<svg xmlns="http://www.w3.org/2000/svg" viewBox="0 0 64 64" width="128" height="128"><path d="M6.423 52.356a7.972 7.972 0 012.912-3.116 7.972 7.972 0 014.105-1.155c2.065-.004 4.055.799 5.836 1.844 1.78 1.045 3.404 2.338 5.147 3.444a29.123 29.123 0 0016.817 4.47 29.123 29.123 0 0016.336-5.996" fill="none" stroke="#000" stroke-width="2.15" stroke-linecap="round" stroke-linejoin="round"/><path d="M6.423 38.261a7.972 7.972 0 012.911-3.115 7.972 7.972 0 014.106-1.156c2.064-.004 4.055.8 5.835 1.845 1.781 1.045 3.404 2.337 5.148 3.443a29.123 29.123 0 0016.817 4.47 29.123 29.123 0 0016.335-5.995" fill="none" stroke="#000" stroke-width="2.75" stroke-linecap="round" stroke-linejoin="round"/><path d="M6.422 24.167a7.972 7.972 0 012.912-3.116 7.972 7.972 0 014.105-1.155c2.065-.004 4.055.8 5.836 1.844 1.78 1.046 3.404 2.338 5.147 3.444a29.123 29.123 0 0016.817 4.47 29.123 29.123 0 0016.336-5.995" fill="none" stroke="#000" stroke-width="3.75" stroke-linecap="round" stroke-linejoin="round"/><path d="M6.421 10.073a7.972 7.972 0 012.912-3.116A7.972 7.972 0 0113.438 5.8c2.065-.004 4.055.8 5.836 1.845 1.78 1.045 3.404 2.337 5.147 3.443a29.123 29.123 0 0016.817 4.47 29.123 29.123 0 0016.336-5.995" fill="none" stroke="#000" stroke-width="5" stroke-linecap="round" stroke-linejoin="round"/></svg>