<svg height="512pt" viewBox="-17 0 512 512.00012" width="512pt" xmlns="http://www.w3.org/2000/svg"><path d="m323.453125 387.632812 117.242187-58.566406c16.742188-8.363281 27.929688-24.8125 29.625-43.449218.632813-7 .960938-14.089844.960938-21.257813 0-127.269531-101.585938-230.238281-228.84375-231.871094-129.464844-1.660156-234.9375 102.789063-234.9375 231.871094 0 128.070313 103.820312 231.890625 231.890625 231.890625h.515625c27.734375-.0625 50.652344-21.710938 52.734375-49.367188l1.136719-15.054687c1.425781-18.925781 12.695312-35.714844 29.675781-44.195313zm0 0" fill="#efedee"/><path d="m37.5 264.359375c0-123.035156 95.820312-223.691406 216.910156-231.414063-3.964844-.25-7.957031-.402343-11.972656-.457031-129.464844-1.660156-234.9375 102.789063-234.9375 231.871094 0 128.070313 103.820312 231.890625 231.890625 231.890625h.515625c3.207031-.003906 6.34375-.3125 9.394531-.875-118.660156-10.183594-211.800781-109.714844-211.800781-231.015625zm0 0" fill="#e0e0e0"/><path d="m349.523438 298.125 9.09375 179.578125c.757812 15.011719 13.152343 26.792969 28.183593 26.792969s27.425781-11.78125 28.183594-26.792969l9.105469-179.578125zm0 0" fill="#d28654"/><path d="m344.503906 199.144531 5.019532 98.980469c11.613281 4.164062 24.179687 6.429688 37.277343 6.429688 13.109375 0 25.671875-2.265626 37.289063-6.429688l5.019531-98.980469zm0 0" fill="#b0bec5"/><path d="m386.800781 504.378906c5.210938.03125 10.4375-1.335937 15-4.203125-7.542969-4.742187-12.703125-12.957031-13.183593-22.472656l-9.09375-179.578125h-30l1.253906 24.769531s7.839844 154.792969 7.839844 154.808594c.316406 6.261719 2.796874 12.410156 6.925781 17.132813 5.410156 6.191406 13.308593 9.496093 21.257812 9.542968zm0 0" fill="#b67248"/><path d="m349.523438 298.125c9.539062 3.417969 19.722656 5.535156 30.3125 6.191406l-.3125-6.191406-5.019532-98.980469h-30zm0 0" fill="#90a4ae"/><path d="m328.367188 142.007812c0 26.292969-21.3125 47.605469-47.601563 47.605469-26.292969 0-47.605469-21.3125-47.605469-47.605469 0-26.289062 21.3125-47.601562 47.605469-47.601562 26.289063 0 47.601563 21.3125 47.601563 47.601562zm0 0" fill="#33c0ff"/><path d="m300.765625 179.613281c-26.292969 0-47.605469-21.3125-47.605469-47.601562 0-14.597657 6.578125-27.652344 16.921875-36.386719-21.144531 4.851562-36.921875 23.769531-36.921875 46.386719 0 26.289062 21.3125 47.601562 47.605469 47.601562 11.691406 0 22.394531-4.222656 30.679687-11.21875-3.433593.789063-7.007812 1.21875-10.679687 1.21875zm0 0" fill="#029be5"/><path d="m434.617188 73.519531c-18.738282-19.117187-28.832032-38.113281-34.261719-52.722656-5.015625-13.496094-20.160157-17.613281-30.28125-8.164063-22.089844 20.621094-51.90625 59.292969-54.996094 119.535157-1.332031 25.996093 7.816406 44.730469 19.777344 57.996093 26.355469 29.238282 68.847656 31.417969 98.058593 5.03125 13.253907-11.972656 24.273438-29.675781 25.605469-55.667968.007813-.179688.019531-.359375.027344-.535156 1.207031-24.824219-7.644531-48.855469-23.929687-65.472657zm0 0" fill="#546e7a"/><path d="m364.855469 190.167969c-11.960938-13.269531-21.113281-32.003907-19.777344-58 2.964844-57.808594 30.535156-95.746094 52.28125-116.9375-6.582031-8.875-18.726563-10.585938-27.285156-2.597657-22.09375 20.621094-51.90625 59.292969-54.996094 119.535157-1.335937 25.996093 7.816406 44.730469 19.777344 58 17.792969 19.734375 42.9375 27.121093 66.382812 21.730469-13.414062-3.089844-26.121093-10.351563-36.382812-21.730469zm0 0" fill="#455a64"/><path d="m192.570312 149.828125c0 26.292969-21.3125 47.605469-47.605468 47.605469-26.289063 0-47.601563-21.3125-47.601563-47.605469 0-26.289063 21.3125-47.601563 47.601563-47.601563 26.292968 0 47.605468 21.3125 47.605468 47.601563zm0 0" fill="#fc5659"/><path d="m146.585938 183.742188c-24.25-10.148438-35.683594-38.039063-25.535157-62.289063 3.019531-7.214844 7.617188-13.285156 13.214844-18-14.410156 3.339844-27.066406 13.3125-33.214844 28-10.148437 24.25 1.285157 52.140625 25.535157 62.289063 17.039062 7.128906 35.863281 3.597656 49.078124-7.539063-9.382812 2.175781-19.511718 1.542969-29.078124-2.460937zm0 0" fill="#f24447"/><path d="m146.316406 285.351562c0 26.292969-21.3125 47.605469-47.601562 47.605469-26.292969 0-47.605469-21.3125-47.605469-47.605469 0-26.289062 21.3125-47.601562 47.605469-47.601562 26.289062 0 47.601562 21.3125 47.601562 47.601562zm0 0" fill="#ffd54f"/><path d="m84.808594 308.765625c-18.453125-18.726563-18.234375-48.863281.492187-67.320313.886719-.875 1.808594-1.695312 2.746094-2.484374-8.316406 1.902343-16.222656 6.058593-22.746094 12.484374-18.726562 18.453126-18.949219 48.59375-.492187 67.320313 17.578125 17.835937 45.75 18.871094 64.570312 2.980469-15.558594 3.5625-32.546875-.777344-44.570312-12.980469zm0 0" fill="#fabc36"/><path d="m239.226562 399.132812c0 26.289063-21.3125 47.601563-47.601562 47.601563s-47.601562-21.3125-47.601562-47.601563c0-26.289062 21.3125-47.601562 47.601562-47.601562s47.601562 21.3125 47.601562 47.601562zm0 0" fill="#80c56e"/><path d="m167.445312 406.867188c-7.851562-19.5625-1.789062-41.246094 13.492188-54.128907-2.367188.550781-4.722656 1.285157-7.046875 2.21875-24.398437 9.792969-36.238281 37.511719-26.441406 61.910157 9.792969 24.398437 37.511719 36.238281 61.910156 26.441406 4.835937-1.941406 9.171875-4.597656 12.953125-7.78125-22.472656 5.203125-46.003906-6.585938-54.867188-28.660156zm0 0" fill="#68b65c"/><path d="m166.238281 99.003906c-6.792969-2.84375-13.945312-4.285156-21.253906-4.285156-22.285156 0-42.246094 13.28125-50.851563 33.839844-11.730468 28.03125 1.53125 60.375 29.558594 72.105468 6.792969 2.84375 13.945313 4.285157 21.253906 4.285157 22.285157 0 42.246094-13.285157 50.851563-33.84375 11.730469-28.027344-1.53125-60.375-29.558594-72.101563zm15.722657 66.3125c-6.265626 14.964844-20.792969 24.632813-37.015626 24.632813-5.3125 0-10.511718-1.050781-15.460937-3.121094-20.398437-8.539063-30.050781-32.078125-21.515625-52.476563 6.265625-14.964843 20.792969-24.632812 37.015625-24.632812 5.3125 0 10.515625 1.046875 15.460937 3.121094 20.402344 8.535156 30.050782 32.078125 21.515626 52.476562zm0 0"/><path d="m59.464844 324.035156c10.4375 10.59375 24.378906 16.425782 39.25 16.425782 14.566406 0 28.300781-5.632813 38.675781-15.855469 21.640625-21.328125 21.898437-56.285157.570313-77.925781-10.4375-10.589844-24.378907-16.425782-39.25-16.425782-14.5625 0-28.300782 5.632813-38.675782 15.855469-21.640625 21.328125-21.898437 56.285156-.570312 77.925781zm39.246094-78.78125c10.824218 0 20.96875 4.246094 28.566406 11.953125 15.519531 15.75 15.335937 41.191407-.414063 56.714844-7.550781 7.441406-17.546875 11.539063-28.148437 11.539063-10.824219 0-20.96875-4.246094-28.566406-11.953126-15.519532-15.75-15.335938-41.191406.414062-56.714843 7.550781-7.441407 17.550781-11.539063 28.148438-11.539063zm0 0"/><path d="m171.097656 348c-28.195312 11.320312-41.929687 43.46875-30.609375 71.664062 8.433594 21.011719 28.511719 34.589844 51.152344 34.589844 7.03125 0 13.933594-1.339844 20.511719-3.980468 28.195312-11.316407 41.929687-43.46875 30.609375-71.664063-8.433594-21.011719-28.511719-34.589844-51.152344-34.589844-7.035156 0-13.933594 1.339844-20.511719 3.980469zm57.746094 36.199219c8.234375 20.519531-1.757812 43.917969-22.28125 52.152343-4.789062 1.925782-9.8125 2.902344-14.921875 2.902344-16.480469 0-31.09375-9.882812-37.234375-25.179687-8.234375-20.519531 1.757812-43.917969 22.277344-52.15625 4.792968-1.921875 9.816406-2.898438 14.925781-2.898438 16.476563 0 31.09375 9.882813 37.234375 25.179688zm0 0"/><path d="m195.957031 272.5625v-11.4375c0-4.140625-3.355469-7.5-7.5-7.5-4.140625 0-7.5 3.359375-7.5 7.5v11.4375c0 4.144531 3.359375 7.5 7.5 7.5 4.144531 0 7.5-3.355469 7.5-7.5zm0 0"/><path d="m322.375 272.5625v-11.4375c0-4.140625-3.359375-7.5-7.5-7.5s-7.5 3.359375-7.5 7.5v11.4375c0 4.144531 3.359375 7.5 7.5 7.5s7.5-3.355469 7.5-7.5zm0 0"/><path d="m251.667969 286.171875c8.242187 0 15.988281-3.453125 21.246093-9.464844 2.726563-3.121093 2.40625-7.859375-.710937-10.585937-3.117187-2.726563-7.855469-2.40625-10.582031.710937-2.410156 2.757813-6.039063 4.339844-9.953125 4.339844-3.917969 0-7.546875-1.582031-9.957031-4.339844-2.726563-3.117187-7.464844-3.4375-10.582032-.710937-3.117187 2.726562-3.4375 7.464844-.710937 10.582031 5.261719 6.015625 13.003906 9.46875 21.25 9.46875zm0 0"/><path d="m322.578125 132.113281c1.03125-25.898437 8.566406-51.898437 21.351563-74.414062.101562-.179688.191406-.363281.277343-.550781 9.492188-16.582032 20.746094-29.472657 30.984375-39.027344 2.828125-2.640625 6.257813-3.648438 9.664063-2.84375 3.792969.894531 6.878906 3.863281 8.46875 8.140625 6.046875 16.265625 15.300781 31.777343 27.503906 46.113281 2.683594 3.152344 7.417969 3.53125 10.574219.847656 3.152344-2.683594 3.53125-7.417968.847656-10.574218-11.0625-12.996094-19.429688-26.996094-24.863281-41.613282-3.320313-8.929687-10.453125-15.476562-19.082031-17.515625-8.320313-1.964843-16.832032.398438-23.347657 6.480469-10.050781 9.378906-21.007812 21.707031-30.640625 37.253906-28.96875-12.472656-59.808594-19.003906-91.785156-19.414062-64.589844-.824219-125.40625 23.675781-171.320312 69.003906-45.921876 45.335938-71.210938 105.839844-71.210938 170.363281 0 54.90625 19.070312 108.558594 53.695312 151.070313 2.613282 3.210937 7.339844 3.691406 10.550782 1.078125 3.210937-2.617188 3.695312-7.339844 1.078125-10.550781-32.453125-39.84375-50.324219-90.128907-50.324219-141.597657 0-60.480469 23.707031-117.191406 66.75-159.6875 43.035156-42.488281 100.054688-65.472656 160.589844-64.683593 29.449218.378906 57.863281 6.285156 84.585937 17.566406-5.894531 11.621094-10.917969 24.738281-14.40625 39.441406-9.199219-6.503906-20.238281-10.089844-31.753906-10.089844-30.386719 0-55.105469 24.722656-55.105469 55.105469s24.71875 55.101563 55.105469 55.101563c14.558594 0 28.222656-5.695313 38.394531-15.613282 2.136719 3.59375 4.566406 7.058594 7.289063 10.382813 3.242187 3.96875 6.824219 7.640625 10.734375 10.957031l8.378906 165.363281-25.460938 12.71875c-19.234374 9.609375-32.1875 28.898438-33.804687 50.34375l-1.132813 15.054688c-1.789062 23.742187-21.675781 42.378906-45.285156 42.429687h-.488281c-57.660156 0-112.460937-21.835937-154.308594-61.488281-3.007812-2.847656-7.753906-2.722656-10.601562.285156-2.851563 3.007813-2.722657 7.753907.285156 10.605469 44.640625 42.300781 103.105469 65.601562 164.625 65.601562l.53125-.003906c31.382813-.066406 57.824219-24.800781 60.199219-56.300781l1.132812-15.054687c1.222656-16.207032 11.011719-30.789063 25.550782-38.050782l19.585937-9.785156 4.734375 93.523438c.960938 19.015624 16.632812 33.914062 35.675781 33.914062s34.710938-14.894531 35.675781-33.914062l6.839844-134.949219 14.730469-7.359375c19.183594-9.582032 31.796875-28.078125 33.742187-49.476563.65625-7.246093.992188-14.625.992188-21.933593 0-32.800782-6.46875-64.507813-19.199219-94.308594 11.132813-27.558594 8.03125-60.8125-7.425781-86.097656-2.160156-3.535157-6.773438-4.644532-10.3125-2.484376-3.53125 2.160157-4.644531 6.777344-2.484375 10.308594 13.441406 21.980469 15.871094 51.5625 5.203125 75.15625-10.433594 23.074219-34.234375 39.863282-59.929688 39.152344-38.75-1.074219-63.503906-37.628906-62.054687-73.980469zm-41.8125 50.003907c-22.113281 0-40.105469-17.988282-40.105469-40.101563s17.992188-40.105469 40.105469-40.105469c10.800781 0 21.039063 4.320313 28.558594 11.957032.207031.210937-.320313 2.367187-.371094 2.773437-2.144531 16.871094-2.351563 33.902344 3.339844 50.144531-7.585938 9.664063-19.121094 15.332032-31.527344 15.332032zm155.703125 19.917968c.492188-.421875.988281-.835937 1.46875-1.273437 4.519531-4.082031 8.695312-8.71875 12.273438-13.703125 9.011718 24.65625 13.570312 50.589844 13.570312 77.304687 0 6.859375-.3125 13.78125-.929688 20.578125-1.472656 16.1875-11.007812 30.175782-25.507812 37.417969l-7.15625 3.574219zm-28.972656 275.292969c-.558594 11.03125-9.648438 19.671875-20.695313 19.671875s-20.136719-8.640625-20.691406-19.671875l-8.554687-168.910156c1.269531.324219 2.546874.621093 3.828124.902343 8.335938 1.828126 16.886719 2.738282 25.417969 2.738282 1.535157 0 3.0625-.039063 4.585938-.097656 8.316406-.316407 16.605469-1.488282 24.671875-3.542969zm-54.375-263.976563c7.703125 3.8125 16.074218 6.308594 24.613281 7.277344 7.660156.867188 15.398437.578125 22.964844-.925781 6.933593-1.378906 13.660156-3.738281 19.949219-6.964844.089843-.046875.179687-.089843.265624-.136719l-4.058593 80.011719c-9.71875 2.957031-19.898438 4.445313-30.054688 4.445313-10.148437 0-20.339843-1.492188-30.050781-4.445313l-4.027344-79.453125c.132813.066406.265625.125.398438.191406zm0 0"/></svg>