<?xml version="1.0" encoding="UTF-8" standalone="no"?>
<!-- Generator: Adobe Illustrator 27.5.0, SVG Export Plug-In . SVG Version: 6.00 Build 0)  -->

<svg
   version="1.1"
   x="0px"
   y="0px"
   viewBox="0 0 500 500"
   style="enable-background:new 0 0 500 500;"
   xml:space="preserve"
   id="svg97"
   sodipodi:docname="bear.svg"
   inkscape:version="1.3 (0e150ed6c4, 2023-07-21)"
   xmlns:inkscape="http://www.inkscape.org/namespaces/inkscape"
   xmlns:sodipodi="http://sodipodi.sourceforge.net/DTD/sodipodi-0.dtd"
   xmlns="http://www.w3.org/2000/svg"
   xmlns:svg="http://www.w3.org/2000/svg"><defs
   id="defs97" /><sodipodi:namedview
   id="namedview97"
   pagecolor="#ffffff"
   bordercolor="#000000"
   borderopacity="0.25"
   inkscape:showpageshadow="2"
   inkscape:pageopacity="0.0"
   inkscape:pagecheckerboard="0"
   inkscape:deskcolor="#d1d1d1"
   inkscape:zoom="1.6079608"
   inkscape:cx="192.16886"
   inkscape:cy="267.1085"
   inkscape:window-width="2560"
   inkscape:window-height="1351"
   inkscape:window-x="1191"
   inkscape:window-y="187"
   inkscape:window-maximized="1"
   inkscape:current-layer="svg97" />&#10;<g
   id="BACKGROUND">&#10;	<rect
   style="fill:#FFFFFF;"
   width="500"
   height="500"
   id="rect1" />&#10;</g>&#10;<g
   id="OBJECTS">&#10;	<g
   id="g1">&#10;		<path
   d="M263.084,72.377c-0.902,0-1.785-0.353-2.455-1.021l-5.524-5.505c-0.267-0.266-0.667-0.357-1.023-0.232l-7.357,2.59    c-1.352,0.475-2.835,0.087-3.778-0.989c-0.945-1.077-1.137-2.599-0.489-3.876l3.53-6.956c0.17-0.336,0.133-0.746-0.096-1.044    l-4.737-6.198c-0.87-1.138-0.958-2.669-0.226-3.9c0.733-1.232,2.122-1.882,3.535-1.661l7.706,1.207    c0.371,0.059,0.751-0.104,0.964-0.414l4.43-6.42c0.814-1.179,2.243-1.737,3.64-1.42c1.397,0.316,2.446,1.435,2.673,2.849    l1.233,7.703c0.06,0.371,0.331,0.681,0.692,0.789l7.474,2.229c1.373,0.409,2.344,1.596,2.476,3.022    c0.131,1.427-0.608,2.77-1.884,3.422l-6.944,3.553c-0.335,0.172-0.545,0.525-0.536,0.902l0.19,7.798    c0.034,1.432-0.794,2.723-2.11,3.288C264.018,72.283,263.548,72.377,263.084,72.377z M254.4,63.067c0.91,0,1.808,0.354,2.47,1.014    l5.524,5.506c0.439,0.438,0.943,0.27,1.085,0.208c0.143-0.062,0.612-0.311,0.597-0.93l-0.19-7.798l0,0    c-0.031-1.332,0.714-2.583,1.898-3.188l6.943-3.553c0.551-0.282,0.547-0.813,0.532-0.968c-0.014-0.156-0.106-0.678-0.7-0.854    l-7.475-2.229c-1.275-0.382-2.235-1.477-2.445-2.79l-1.233-7.702c-0.098-0.61-0.603-0.771-0.757-0.806    c-0.151-0.036-0.678-0.108-1.029,0.401l-4.429,6.42c-0.757,1.095-2.095,1.664-3.409,1.465l-7.706-1.207    c-0.623-0.108-0.92,0.335-1,0.47c-0.08,0.134-0.313,0.611,0.063,1.104l4.737,6.197c0.809,1.056,0.941,2.506,0.338,3.693    l-3.529,6.956c-0.279,0.552,0.035,0.979,0.139,1.097c0.104,0.118,0.482,0.485,1.069,0.28l7.357-2.59    C253.625,63.13,254.014,63.067,254.4,63.067z"
   id="path1" />&#10;	</g>&#10;	<g
   id="g2">&#10;		<path
   d="M168.781,460.652c-1.266,0-2.392-0.753-2.874-1.926l-2.466-5.992c-0.09-0.218-0.291-0.361-0.526-0.375l-6.47-0.378    c-1.273-0.074-2.359-0.904-2.766-2.115c-0.406-1.211-0.039-2.527,0.934-3.354l4.938-4.197c0.177-0.15,0.253-0.393,0.194-0.617    l-1.641-6.27c-0.323-1.235,0.131-2.524,1.157-3.284c1.026-0.76,2.393-0.817,3.48-0.148l5.517,3.398    c0.204,0.126,0.451,0.123,0.647-0.006l5.455-3.497c1.076-0.688,2.441-0.654,3.482,0.086c1.04,0.741,1.518,2.021,1.217,3.263    l-1.527,6.299c-0.055,0.225,0.025,0.466,0.204,0.612l5.013,4.107c0.988,0.81,1.378,2.12,0.994,3.338    c-0.384,1.218-1.454,2.067-2.727,2.165l-6.463,0.493c-0.23,0.018-0.434,0.169-0.519,0.386l-2.357,6.036    c-0.464,1.189-1.589,1.965-2.866,1.977C168.8,460.652,168.79,460.652,168.781,460.652z M161.112,434.029    c-0.169,0-0.3,0.078-0.363,0.125c-0.099,0.073-0.32,0.283-0.227,0.642l1.641,6.27c0.301,1.148-0.089,2.387-0.993,3.155    l-4.938,4.196c-0.282,0.24-0.222,0.539-0.183,0.656c0.039,0.117,0.171,0.392,0.541,0.413l6.47,0.378    c1.183,0.068,2.239,0.821,2.692,1.919l2.467,5.993c0.139,0.339,0.435,0.377,0.563,0.377c0.001,0,0.003,0,0.005,0    c0.124-0.001,0.426-0.041,0.561-0.387l2.357-6.036l0,0c0.432-1.104,1.475-1.877,2.657-1.968l6.463-0.493    c0.369-0.028,0.495-0.307,0.533-0.424c0.037-0.118,0.092-0.418-0.195-0.653l-5.012-4.107c-0.919-0.753-1.33-1.983-1.05-3.137    l1.527-6.297c0.088-0.36-0.138-0.566-0.238-0.638c-0.1-0.071-0.368-0.213-0.681-0.018l-5.455,3.498    c-0.999,0.64-2.298,0.65-3.309,0.029l-5.516-3.398C161.315,434.054,161.207,434.029,161.112,434.029z"
   id="path2" />&#10;	</g>&#10;	<g
   id="g3">&#10;		<path
   d="M60.678,291.883c-0.108,0-0.218-0.005-0.328-0.017c-1.279-0.132-2.335-1.017-2.689-2.254l-1.806-6.312    c-0.066-0.231-0.263-0.408-0.5-0.448l-6.471-1.11c-1.268-0.218-2.262-1.172-2.532-2.43c-0.27-1.259,0.245-2.536,1.313-3.256    l5.444-3.668c0.2-0.135,0.308-0.376,0.272-0.615l-0.943-6.495c-0.185-1.273,0.415-2.514,1.528-3.159    c1.112-0.645,2.487-0.551,3.502,0.242l5.17,4.045c0.188,0.148,0.452,0.177,0.668,0.068l5.889-2.904    c1.154-0.568,2.519-0.381,3.476,0.477c0.958,0.859,1.293,2.196,0.853,3.405l-2.249,6.168c-0.083,0.227-0.028,0.484,0.14,0.656    l4.583,4.702c0.897,0.922,1.141,2.278,0.619,3.455c-0.522,1.177-1.657,1.936-2.975,1.86l-6.561-0.233    c-0.207,0-0.468,0.124-0.581,0.338l-3.056,5.811C62.896,291.25,61.834,291.883,60.678,291.883z M55.546,264.191    c-0.146,0-0.264,0.055-0.325,0.091c-0.111,0.064-0.364,0.256-0.309,0.638l0.943,6.496c0.171,1.185-0.359,2.381-1.351,3.048    l-5.443,3.668c-0.319,0.215-0.291,0.531-0.265,0.656c0.027,0.126,0.131,0.426,0.512,0.49l6.47,1.11    c1.178,0.202,2.151,1.075,2.48,2.225l1.807,6.313c0.105,0.371,0.414,0.441,0.542,0.455c0.126,0.01,0.443,0.007,0.624-0.335    l3.056-5.811c0,0,0,0,0-0.001c0.558-1.058,1.712-1.73,2.883-1.671l6.562,0.233c0.389,0.011,0.548-0.258,0.6-0.375    c0.052-0.118,0.145-0.422-0.125-0.698l-4.582-4.701c-0.834-0.855-1.108-2.135-0.698-3.259l2.248-6.167    c0.133-0.362-0.076-0.602-0.172-0.688c-0.096-0.085-0.356-0.264-0.7-0.096l-5.889,2.904c-1.072,0.529-2.373,0.395-3.315-0.342    l-5.17-4.045C55.793,264.225,55.661,264.191,55.546,264.191z"
   id="path3" />&#10;	</g>&#10;	<g
   id="g4">&#10;		<path
   d="M427.883,156.739c-0.539,0-1.079-0.156-1.554-0.47c-0.965-0.638-1.439-1.783-1.206-2.916l1.101-5.354    c0.024-0.12-0.021-0.241-0.119-0.316l-4.345-3.312c-0.92-0.701-1.315-1.875-1.008-2.99c0.309-1.116,1.252-1.92,2.402-2.049    l5.43-0.607c0.122-0.014,0.223-0.095,0.264-0.21l1.808-5.156c0.382-1.092,1.376-1.831,2.532-1.882    c1.136-0.061,2.212,0.595,2.69,1.649l2.257,4.978c0.05,0.11,0.16,0.184,0.28,0.186l5.464,0.126    c1.156,0.026,2.166,0.744,2.572,1.828c0.405,1.084,0.115,2.288-0.739,3.068l-4.035,3.683c-0.091,0.083-0.125,0.208-0.09,0.326    l1.568,5.232c0.332,1.109-0.038,2.292-0.943,3.013c-0.906,0.72-2.142,0.816-3.146,0.245l-4.751-2.7    c-0.104-0.06-0.237-0.055-0.336,0.015c0,0-0.001,0-0.001,0.001l-4.493,3.109C429.001,156.572,428.442,156.739,427.883,156.739z     M433.319,133.975c-0.007,0-0.013,0-0.02,0c-0.142,0.006-0.237,0.077-0.284,0.211l-1.808,5.156    c-0.355,1.015-1.275,1.748-2.345,1.868l-5.431,0.607c-0.141,0.016-0.231,0.094-0.27,0.23c-0.038,0.137,0,0.25,0.113,0.336    l4.346,3.313c0.855,0.652,1.267,1.755,1.052,2.807l-1.101,5.354c-0.028,0.139,0.017,0.249,0.136,0.327    c0.119,0.08,0.238,0.076,0.354-0.003l4.493-3.109c0.886-0.611,2.061-0.665,2.994-0.134l4.752,2.7    c0.124,0.071,0.244,0.062,0.354-0.027c0.111-0.089,0.147-0.202,0.106-0.339l-1.569-5.233c-0.308-1.032,0.007-2.165,0.8-2.89    l4.035-3.683c0.105-0.097,0.133-0.212,0.083-0.345c-0.049-0.133-0.146-0.202-0.288-0.205l-5.464-0.126    c-1.075-0.024-2.057-0.675-2.5-1.655l-2.256-4.976C433.546,134.037,433.451,133.975,433.319,133.975z M433.267,152.099h0.01    H433.267z"
   id="path4" />&#10;	</g>&#10;	<g
   id="g5">&#10;		<path
   d="M440.996,408.976c-1.003,0-1.919-0.558-2.378-1.466l-2.232-4.418c-0.03-0.058-0.129-0.075-0.154-0.092l0,0l-4.949,0.096    c-1.1,0.012-2.082-0.618-2.51-1.628c-0.428-1.01-0.201-2.162,0.577-2.935l3.512-3.488c0.046-0.046,0.063-0.113,0.041-0.176    l-1.62-4.677c-0.359-1.037-0.057-2.172,0.772-2.891c0.827-0.719,1.992-0.858,2.969-0.358l4.403,2.262    c0.058,0.03,0.129,0.025,0.18-0.015l3.947-2.986c0.875-0.662,2.048-0.725,2.986-0.158c0.94,0.565,1.434,1.631,1.258,2.714    l-0.789,4.885c-0.011,0.065,0.016,0.129,0.069,0.166l4.061,2.832c0.899,0.628,1.321,1.724,1.073,2.791    c-0.247,1.068-1.107,1.868-2.191,2.036l-4.892,0.758c-0.064,0.01-0.117,0.056-0.136,0.118l-1.439,4.736    c-0.319,1.05-1.231,1.789-2.324,1.884C441.152,408.973,441.074,408.976,440.996,408.976z M436.234,400.5    c1.001,0,1.932,0.57,2.383,1.466l2.232,4.417c0.018,0.034,0.047,0.114,0.166,0.092c0.113-0.01,0.136-0.084,0.147-0.119    l1.438-4.736c0.296-0.974,1.138-1.705,2.145-1.862l4.893-0.758c0.036-0.006,0.113-0.018,0.139-0.129    c0.026-0.111-0.037-0.155-0.067-0.177l-4.061-2.832c-0.835-0.582-1.271-1.608-1.108-2.615l0.79-4.886    c0.007-0.037,0.018-0.113-0.079-0.173c-0.096-0.056-0.158-0.012-0.189,0.011l-3.948,2.986c-0.813,0.614-1.924,0.71-2.83,0.244    l-4.403-2.261c-0.033-0.018-0.102-0.052-0.188,0.023c-0.087,0.075-0.062,0.148-0.049,0.184l1.619,4.677    c0.334,0.962,0.083,2.048-0.64,2.767l-3.513,3.489c-0.026,0.026-0.081,0.081-0.036,0.186c0.044,0.106,0.112,0.108,0.159,0.103    l4.948-0.096C436.2,400.5,436.216,400.5,436.234,400.5z M436.206,401.75h0.01H436.206z"
   id="path5" />&#10;	</g>&#10;	<g
   id="g6">&#10;		<path
   d="M371.314,450.306c-6.798,0-11.009-3.518-13.427-6.7c-1.396-1.838-2.338-3.73-2.943-5.229    c-1.993,3.012-6.272,7.315-14.287,6.853c-8.611-0.507-11.789-7.792-12.504-12.924c-2.272,1.221-6.182,2.822-9.134,1.377    c-2.026-0.99-3.153-3.146-3.352-6.409c-0.218-3.594,0.7-6.228,2.727-7.829c2.452-1.937,5.842-1.742,7.755-1.425    c0.52-3.545,1.977-6.049,4.338-7.456c3.786-2.257,8.704-0.891,10.696-0.175c3.767-4.334,7.389-6.28,10.773-5.782    c2.626,0.386,4.485,2.157,5.637,3.697c1.83-4.219,6.694-11.888,17.449-10.316c12.118,1.773,14.723,14.522,15.257,18.787    c2.526-0.297,7.978-0.52,11.624,2.373c2.223,1.762,3.398,4.347,3.493,7.682c0.097,3.374-0.922,5.901-3.027,7.512    c-3.458,2.646-8.847,1.897-11.294,1.368c-1,3.466-4.758,12.664-16.723,14.373C373.299,450.234,372.28,450.306,371.314,450.306z     M355.212,433.944c0.023,0,0.047,0.001,0.07,0.002c0.56,0.031,1.03,0.43,1.151,0.978c0.134,0.603,3.41,14.712,17.585,12.684    c12.867-1.838,14.849-13.133,14.927-13.613c0.058-0.354,0.267-0.669,0.572-0.86c0.305-0.19,0.679-0.241,1.022-0.139    c0.068,0.021,6.863,2.018,10.333-0.643c1.449-1.11,2.117-2.894,2.045-5.451c-0.074-2.597-0.906-4.491-2.542-5.791    c-3.862-3.067-10.876-1.692-10.946-1.679c-0.358,0.073-0.732-0.016-1.02-0.242c-0.288-0.225-0.464-0.566-0.479-0.933    c-0.026-0.651-0.801-15.974-13.251-17.795c-12.342-1.805-15.462,10.518-15.588,11.044c-0.127,0.525-0.577,0.909-1.115,0.953    c-0.518,0.051-1.043-0.262-1.253-0.76c-0.017-0.039-1.803-4.139-5.143-4.621c-2.602-0.371-5.73,1.561-9.06,5.598    c-0.358,0.432-0.961,0.573-1.476,0.345c-0.057-0.025-5.652-2.48-9.287-0.306c-1.921,1.148-3.022,3.475-3.273,6.915    c-0.028,0.379-0.227,0.725-0.539,0.939c-0.313,0.214-0.708,0.273-1.068,0.167l0,0c-0.046-0.014-4.452-1.3-6.941,0.675    c-1.343,1.065-1.94,2.986-1.774,5.712c0.139,2.296,0.795,3.747,1.951,4.313c2.432,1.195,6.901-1.235,8.417-2.27    c0.378-0.259,0.872-0.288,1.28-0.077c0.408,0.211,0.668,0.631,0.676,1.091c0.008,0.488,0.306,11.966,10.315,12.555    c10.204,0.612,13.107-7.594,13.226-7.942C354.203,434.282,354.681,433.944,355.212,433.944z"
   id="path6" />&#10;	</g>&#10;	<g
   id="g7">&#10;		<path
   d="M66.244,228.447c-0.804,0-1.65-0.061-2.541-0.19c-10.928-1.6-13.362-12.98-13.882-16.974    c-2.352,0.266-7.207,0.412-10.48-2.184c-2.039-1.616-3.117-3.983-3.204-7.037c-0.089-3.092,0.848-5.41,2.784-6.891    c3.111-2.38,7.921-1.761,10.2-1.281c0.959-3.238,4.427-11.438,15.188-12.975c10.918-1.557,15.759,6.112,17.597,10.472    c1.863-2.738,5.75-6.506,12.913-6.085c7.77,0.457,10.695,6.951,11.394,11.621c2.095-1.104,5.57-2.463,8.217-1.169    c1.874,0.916,2.916,2.899,3.098,5.896c0.199,3.291-0.646,5.707-2.512,7.181c-2.2,1.738-5.214,1.611-6.984,1.331    c-0.491,3.18-1.82,5.432-3.962,6.708c-3.415,2.036-7.828,0.855-9.696,0.195c-3.416,3.909-6.703,5.649-9.796,5.207    c-2.32-0.341-3.988-1.857-5.052-3.229C77.957,222.565,74.152,228.447,66.244,228.447z M50.934,208.606    c0.277,0,0.551,0.093,0.772,0.268c0.288,0.226,0.463,0.566,0.479,0.932c0.002,0.037,0.171,3.723,1.775,7.538    c2.07,4.922,5.471,7.762,10.104,8.439c11.051,1.619,13.848-9.425,13.961-9.895c0.127-0.524,0.577-0.909,1.115-0.953    c0.52-0.031,1.044,0.263,1.253,0.76c0.014,0.034,1.605,3.682,4.558,4.105c2.312,0.35,5.1-1.403,8.081-5.019    c0.355-0.433,0.961-0.575,1.475-0.345c0.051,0.022,5.057,2.215,8.289,0.282c1.701-1.018,2.677-3.09,2.901-6.158    c0.028-0.379,0.227-0.725,0.539-0.939c0.313-0.215,0.704-0.278,1.069-0.166c0.079,0.023,3.977,1.145,6.166-0.591    c1.182-0.936,1.707-2.641,1.56-5.063c-0.123-2.029-0.693-3.308-1.697-3.799c-2.138-1.048-6.226,1.183-7.49,2.045    c-0.38,0.26-0.872,0.291-1.282,0.077c-0.408-0.212-0.668-0.632-0.674-1.092c-0.007-0.436-0.277-10.708-9.215-11.233    c-9.212-0.529-11.812,7.021-11.837,7.097c-0.178,0.534-0.723,0.868-1.253,0.851c-0.563-0.03-1.034-0.433-1.154-0.982    c-0.118-0.536-3.072-13.186-15.766-11.374c-11.6,1.657-13.38,12.102-13.396,12.207c-0.056,0.357-0.264,0.671-0.569,0.862    c-0.305,0.192-0.678,0.243-1.025,0.14c-0.062-0.02-6.146-1.807-9.236,0.562c-1.276,0.979-1.865,2.558-1.801,4.829    c0.066,2.311,0.804,3.994,2.253,5.146c3.447,2.739,9.736,1.507,9.799,1.494C50.769,208.614,50.852,208.606,50.934,208.606z"
   id="path7" />&#10;	</g>&#10;	<g
   id="g8">&#10;		<path
   d="M344.248,122.839c-1.735,0-3.49-0.306-5.166-0.958c-5.249-2.042-9.423-7.115-11.096-13.284    c-2.696,2.21-6.71,2.784-9.848,1.126c-2.824-1.493-4.557-4.592-4.649-7.729c-2.425,1.36-5.402,1.731-8.075,0.868    c-3.945-1.276-6.862-5.069-6.937-9.019c-0.053-2.848,0.804-4.976,2.544-6.327c2.263-1.757,5.407-1.633,7.183-1.373    c0.72-3.102,3.038-7.619,8.292-8.69c3.686-0.753,7.301-0.183,10.056,1.521c3.385-13.204,16.514-23.1,30.228-22.377    c5.652,0.296,10.809,2.275,14.52,5.572c3.675,3.266,5.853,7.873,5.96,12.404c3.685-1.073,7.919,0.026,10.518,2.923    c2.604,2.902,3.234,7.242,1.759,10.792c1.852,0.165,3.796,0.455,5.612,1.184c2.903,1.165,5.014,3.375,5.645,5.91    c1.008,4.04-1.853,7.974-5.058,9.623c-2.759,1.42-5.842,1.668-8.689,1.572c0.861,4.187-1.015,8.99-4.82,11.815    c-3.64,2.7-8.788,3.656-14.131,2.621c-4.315-0.838-8.337-2.815-11.853-4.748C353.974,120.346,349.196,122.839,344.248,122.839z     M328.698,104.682c0.083,0,0.168,0.009,0.252,0.025c0.512,0.105,0.903,0.518,0.983,1.033c0.989,6.397,4.936,11.818,10.056,13.811    c5.601,2.18,12.533-0.434,14.538-5.485c0.134-0.335,0.404-0.597,0.744-0.717c0.341-0.122,0.716-0.09,1.029,0.088    c3.612,2.026,7.837,4.262,12.273,5.122c4.65,0.9,9.086,0.11,12.164-2.174c3.416-2.535,4.926-7.216,3.438-10.656    c-0.173-0.401-0.125-0.863,0.128-1.22c0.254-0.358,0.67-0.554,1.11-0.524c2.964,0.215,6.372,0.24,9.179-1.203    c2.351-1.21,4.473-4.003,3.776-6.796c-0.438-1.76-1.99-3.327-4.151-4.194c-2.096-0.841-4.479-1-6.785-1.154    c-0.45-0.03-0.85-0.3-1.044-0.707c-0.195-0.407-0.156-0.887,0.103-1.257c1.955-2.793,1.703-6.97-0.574-9.508    c-2.276-2.539-6.4-3.239-9.391-1.601c-0.41,0.226-0.911,0.203-1.301-0.06c-0.388-0.262-0.598-0.719-0.542-1.184    c0.517-4.354-1.416-9.061-5.043-12.284c-3.289-2.923-7.902-4.679-12.99-4.945c-12.921-0.67-25.786,9.525-28.061,22.276    c-0.08,0.45-0.4,0.821-0.835,0.966c-0.432,0.144-0.913,0.041-1.247-0.271c-2.264-2.108-5.819-2.917-9.51-2.163l0,0    c-5.785,1.18-6.504,7.566-6.531,7.838c-0.038,0.366-0.234,0.698-0.538,0.906c-0.304,0.207-0.685,0.272-1.038,0.175    c-0.039-0.011-4.086-1.082-6.34,0.675c-1.08,0.842-1.608,2.289-1.571,4.301c0.053,2.869,2.291,5.744,5.206,6.687    c2.84,0.92,6.278-0.092,8.168-2.407c0.395-0.485,1.087-0.603,1.621-0.276c0.533,0.326,0.743,0.996,0.492,1.568    c-1.261,2.873,0.067,6.679,2.842,8.145c2.776,1.466,6.667,0.417,8.331-2.243C327.87,104.899,328.273,104.682,328.698,104.682z     M316.747,78.677h0.01H316.747z"
   id="path8" />&#10;	</g>&#10;	<g
   id="g87">&#10;		<g
   id="g9">&#10;			<path
   d="M174.929,256.561c-8.982,0-15.89-1.052-18.427-3.509c-15.035-14.564-23.065-56.197-11.658-90.724     c-7.173-2.369-15.378-8.753-18.094-17.092c-1.998-6.132-0.675-12.317,3.825-17.889c3.124-3.868,6.833-5.862,11.024-5.93     c8.262-0.133,16.341,7.466,20.193,11.715c0.827-0.87,1.665-1.703,2.5-2.489c19.864-18.665,44.279-24.78,67.18-16.889     c1.861-5.196,5.678-13.122,12.298-16.075c3.706-1.653,7.779-1.526,12.108,0.373c5.605,2.458,8.896,6.028,9.784,10.613     c1.36,7.021-3.43,15.192-8.651,20.843c10.308,10.321,19.076,26.045,24.155,43.372c5.039,17.195,5.614,33.441,1.538,43.458     c-8.643,21.238-48.915,31.81-65.828,35.369C202.875,254.654,187.023,256.561,174.929,256.561z M141.819,123.916     c-0.059,0-0.119,0.001-0.179,0.002c-3.415,0.055-6.483,1.736-9.119,5c-3.999,4.951-5.141,10.181-3.394,15.544     c2.575,7.906,11.01,14.059,17.639,15.833c0.335,0.089,0.618,0.314,0.78,0.621c0.163,0.306,0.191,0.666,0.078,0.994     c-11.717,33.9-4.058,75.131,10.618,89.347c4.105,3.977,28.983,4.137,58.12-1.995c49.598-10.438,61.299-27.16,64.026-33.864     c7.723-18.977-2.969-62.782-25.997-84.958c-0.24-0.231-0.378-0.549-0.383-0.882c-0.005-0.333,0.124-0.655,0.356-0.893     c5.096-5.205,10.095-13.066,8.844-19.523c-0.723-3.73-3.526-6.691-8.334-8.8c-3.66-1.604-7.051-1.733-10.086-0.379     c-6.515,2.906-10.113,12.007-11.357,15.785c-0.106,0.321-0.338,0.586-0.644,0.733c-0.305,0.147-0.656,0.165-0.975,0.049     c-22.653-8.313-46.026-2.654-65.808,15.936c-1.11,1.043-2.226,2.177-3.314,3.369c-0.241,0.265-0.598,0.404-0.94,0.407     c-0.357-0.005-0.696-0.163-0.93-0.434C157.728,132.218,149.716,123.916,141.819,123.916z"
   id="path9" />&#10;		</g>&#10;		<g
   id="g10">&#10;			<path
   d="M148.349,153.962c-0.017,0-0.033,0-0.05-0.001c-5.111-0.205-10.475-3.889-12.753-8.761     c-1.818-3.887-1.38-7.898,1.233-11.296c1.521-1.977,3.476-3.041,5.812-3.163c6.686-0.351,14.128,7.4,14.441,7.73     c0.388,0.407,0.456,1.022,0.167,1.505c-1.841,3.066-7.708,13.257-7.768,13.359C149.208,153.724,148.795,153.962,148.349,153.962z      M143.051,133.23c-0.111,0-0.222,0.003-0.332,0.009c-1.594,0.084-2.889,0.801-3.957,2.189c-2.584,3.359-1.943,6.593-0.951,8.714     c1.764,3.77,5.899,6.781,9.85,7.262c1.232-2.137,5.027-8.716,6.892-11.868C152.726,137.798,147.501,133.23,143.051,133.23z"
   id="path10" />&#10;		</g>&#10;		<g
   id="g11">&#10;			<path
   d="M250.088,125.96c-0.275,0-0.552-0.091-0.781-0.274c-2.986-2.39-10.932-6.677-11.012-6.72     c-0.577-0.311-0.816-1.016-0.547-1.613c2.689-5.977,5.662-9.37,9.091-10.375c2.357-0.691,4.831-0.206,7.355,1.44     c1.796,1.171,2.811,2.76,3.015,4.722c0.58,5.568-5.958,12.176-6.236,12.454C250.73,125.837,250.41,125.96,250.088,125.96z      M240.516,117.33c2.057,1.134,6.664,3.729,9.428,5.708c1.922-2.151,5.11-6.463,4.777-9.642c-0.124-1.191-0.743-2.135-1.893-2.885     c-1.911-1.247-3.643-1.618-5.286-1.135C245.078,110.099,242.717,112.773,240.516,117.33z"
   id="path11" />&#10;		</g>&#10;		<g
   id="g12">&#10;			<path
   d="M233.45,176.119c-1.21-0.669-2.776-0.549-3.885,0.271c-0.722,0.534-1.278,1.168-1.845,1.859     c-0.458,0.557-0.893,1.13-1.318,1.71c-1.037-0.607-2.238-1.067-3.455-1.032c-3.139,0.09-5.607,3.421-4.005,6.361     c0.577,1.059,1.576,1.698,2.651,2.152c0.815,0.344,1.641,0.685,2.507,0.876c3.824,0.841,6.076-0.119,8.247-3.272     c0.792-0.755,1.474-1.612,1.947-2.628c0.332-0.713,0.674-1.472,0.801-2.256C235.347,178.602,234.933,176.938,233.45,176.119z"
   id="path12" />&#10;		</g>&#10;		<g
   id="g15">&#10;			<g
   id="g13">&#10;				<path
   d="M188.752,142.931c-0.785-1.859-3.058-2.113-4.837-1.998c-2.423,0.156-4.815,0.962-6.755,2.441      c-1.203,0.917-2.224,1.915-2.973,3.25c-0.453,0.809-0.765,1.628-0.818,2.561c-0.061,1.083,0.507,2.505,1.682,2.768      c0.936,0.209,1.908-0.195,2.579-0.86c0.291-0.289,0.563-0.63,0.801-0.956c0.059-0.081,0.117-0.161,0.175-0.242      c0.003-0.005,0.005-0.007,0.008-0.011c-0.027,0.03-0.055,0.06-0.086,0.089c0.032-0.031,0.06-0.066,0.092-0.098      c0.199-0.275,0.148-0.17,0.016-0.017c0.306-0.312,0.59-0.66,0.895-0.973c0.174-0.178,0.35-0.354,0.536-0.52      c0.064-0.057,0.129-0.113,0.194-0.169c0.405-0.224,0.775-0.531,1.187-0.749c0.221-0.117,0.457-0.208,0.676-0.326      c-0.826,0.447-0.056,0.035,0.221-0.055c0.423-0.137,0.852-0.232,1.286-0.317c0.07-0.007,0.14-0.014,0.21-0.018      c0.272-0.018,0.545-0.022,0.817-0.014c0.222,0.007,0.447,0.048,0.668,0.046c-0.159-0.022-0.318-0.044-0.476-0.066      c0.305,0.049,0.612,0.091,0.919,0.127c0.1-0.002,0.193-0.013,0.294-0.022c0.853-0.075,1.554-0.255,2.165-0.893      C189.005,145.098,189.185,143.956,188.752,142.931z"
   id="path13" />&#10;			</g>&#10;			<g
   id="g14">&#10;				<path
   d="M178.614,149.884c0.008-0.009,0.015-0.017,0.022-0.026c-0.005,0.005-0.011,0.011-0.016,0.017      C178.617,149.878,178.616,149.88,178.614,149.884z"
   id="path14" />&#10;			</g>&#10;		</g>&#10;		<g
   id="g18">&#10;			<g
   id="g16">&#10;				<path
   d="M237.056,133.408c-0.261-0.736-0.648-1.289-1.363-1.644c-0.373-0.185-0.761-0.346-1.151-0.492      c-0.472-0.177-0.959-0.288-1.457-0.361c-1.378-0.202-2.728-0.17-4.087,0.177c-1.242,0.318-2.578,0.9-3.537,1.771      c-0.978,0.888-1.941,2.234-1.773,3.612c0.064,0.523,0.201,0.923,0.63,1.255c0.37,0.286,0.93,0.465,1.393,0.286      c0.29-0.112,0.591-0.187,0.862-0.345c0.13-0.076,0.247-0.171,0.364-0.268c0.051-0.037,0.124-0.09,0.161-0.115      c0.358-0.241,0.702-0.492,1.078-0.705c0.381-0.216,0.752-0.44,1.141-0.643c0.07-0.026,0.139-0.052,0.209-0.076      c0.22-0.075,0.443-0.141,0.669-0.196c0.085-0.021,0.174-0.035,0.263-0.049c0.039-0.018,0.131-0.045,0.231-0.054      c0.013-0.001,0.027-0.002,0.04-0.003c0.029-0.007,0.06-0.01,0.088-0.019c-0.023,0.007-0.038,0.011-0.059,0.017      c0.082-0.007,0.164-0.013,0.246-0.017c0.231-0.012,0.463-0.012,0.694-0.002c0.076,0.004,0.152,0.01,0.227,0.015      c0.393,0.108,0.793,0.179,1.185,0.306c0.05,0.024,0.1,0.047,0.149,0.073c0.748,0.389,1.327,0.505,2.168,0.348      C236.606,136.057,237.45,134.522,237.056,133.408z"
   id="path15" />&#10;			</g>&#10;			<g
   id="g17">&#10;				<path
   d="M230.457,135.613c-0.054,0.025,0.004,0.028,0.3-0.059c-0.01,0.001-0.02,0.001-0.029,0.002      C230.638,135.578,230.549,135.598,230.457,135.613z"
   id="path16" />&#10;			</g>&#10;		</g>&#10;		<g
   id="g19">&#10;			<path
   d="M201.465,169.991c-1.31-2.797-3.439-5.62-5.639-7.777c-2.359-2.314-5.252-3.938-8.599-4.141     c-2.945-0.178-5.895,1.162-7.846,3.347c-2.215,2.481-3.352,5.645-3.45,8.953c-0.056,1.896,0.242,3.835,0.673,5.675     c0.075,0.321,0.154,0.659,0.236,1.003c-1.022-0.259-2.052-0.462-3.074-0.497c-0.886-0.03-1.48,1.23-0.76,1.835     c0.886,0.746,1.914,1.288,2.94,1.818c0.774,0.4,2.348,0.844,2.704,1.652c1.141,2.591,5.342,1.234,5.234-1.418     c-0.072-1.765-0.817-3.423-1.257-5.118c-0.385-1.486-0.662-2.965-0.655-4.504c0.01-2.139,0.673-4.248,2.254-5.741     c0.364-0.344,0.545-0.489,1.144-0.774c-0.163,0.077,0.685-0.241,0.859-0.27c1.21-0.202,2.477,0.212,3.516,0.807     c2.426,1.39,3.98,3.949,5.36,6.296c0.912,1.552,1.825,3.635,3.946,3.635C201.591,174.774,202.402,171.993,201.465,169.991z"
   id="path18" />&#10;		</g>&#10;		<g
   id="g20">&#10;			<path
   d="M250.002,150.085c-1.107-0.971-2.731,0.343-3.622,1.007c-0.189,0.141-0.352,0.306-0.528,0.46     c-1.866-3.29-4.788-5.995-8.263-7.474c-3.102-1.32-6.646-1.32-9.018,1.396c-2.035,2.33-2.774,5.414-3.091,8.418     c-0.189,1.788-0.099,3.789,0.379,5.528c0.492,1.794,1.458,3.256,2.79,4.517c0.811,0.768,2.061,0.192,2.125-0.88     c0.09-1.507,0.217-2.988,0.174-4.504c-0.044-1.559-0.083-3.107,0.129-4.661c0.078-0.572,0.269-1.415,0.454-2.073     c0.17-0.607,0.307-1.026,0.427-1.258c0.174-0.339,0.357-0.665,0.561-0.988c0.062-0.098,0.085-0.145,0.092-0.168     c0.026-0.016,0.069-0.048,0.156-0.123c0.023-0.02,0.199-0.211,0.295-0.311c0.008-0.003,0.016-0.004,0.024-0.007     c-0.017,0.021-0.034,0.042-0.065,0.079c0.138-0.072,0.209-0.112,0.223-0.127c0.068-0.021,0.135-0.047,0.205-0.062     c0.003,0,0.355,0.011,0.365,0.001c0.329,0.047,0.66,0.17,0.97,0.277c0.371,0.128,0.859,0.384,1.411,0.708     c0.298,0.175,0.59,0.36,0.875,0.556c0.049,0.034,0.332,0.254,0.428,0.324c0.467,0.39,0.915,0.802,1.332,1.246     c0.208,0.222,0.407,0.451,0.601,0.685c0.043,0.063,0.31,0.41,0.332,0.442c0.365,0.529,0.693,1.083,0.986,1.655     c0.037,0.073,0.264,0.573,0.299,0.631c0.09,0.229,0.176,0.461,0.253,0.694c0.217,0.659,0.376,1.331,0.499,2.013     c0.422,2.349,3.602,2.856,5.13,1.355c1.372-1.348,2.523-2.735,3.29-4.51C250.807,153.572,251.297,151.221,250.002,150.085z"
   id="path19" />&#10;		</g>&#10;		<g
   id="g21">&#10;			<path
   d="M183.127,282.077c-11.104,0.001-19.561-2.007-23.368-7.636c-7.419-10.966-3.732-22.215-3.57-22.688     c0.222-0.653,0.932-1.002,1.585-0.782c0.653,0.222,1.004,0.93,0.783,1.583l0,0c-0.035,0.105-3.431,10.578,3.273,20.487     c6.884,10.175,34.054,6.546,61.294,1.957c13.194-2.223,27.848-8.538,40.202-17.326c11.101-7.895,18.914-16.749,20.392-23.104     c0.469-2.016,0.902-3.729,1.279-5.216c2.099-8.296,2.271-8.974-2.94-16.169c-0.404-0.56-0.279-1.341,0.279-1.746     c0.559-0.404,1.341-0.279,1.746,0.279c5.896,8.143,5.505,9.686,3.338,18.249c-0.373,1.474-0.803,3.171-1.267,5.169     c-3.392,14.581-33.552,37.435-62.613,42.329C208.738,279.956,194.536,282.077,183.127,282.077z"
   id="path20" />&#10;		</g>&#10;		<g
   id="g22">&#10;			<path
   d="M126.299,304.342c-6.949,0-12.718-1.416-14.368-3.341c-2.347-2.738-2.198-9.095-1.9-12.641     c0.501-5.975,2.232-13.398,4.85-15.579c2.357-1.967,6.454-1.045,11.638,0.122c4.588,1.033,9.791,2.204,14.481,1.47     c9.223-1.44,14.277-11.064,14.327-11.16c0.316-0.613,1.071-0.858,1.684-0.539c0.614,0.316,0.856,1.07,0.539,1.684     c-0.227,0.442-5.7,10.852-16.163,12.486c-5.166,0.805-10.612-0.42-15.417-1.501c-4.154-0.935-8.078-1.818-9.489-0.642     c-1.445,1.205-3.369,6.85-3.958,13.868c-0.438,5.214,0.063,9.354,1.308,10.805c1.181,1.379,9.627,3.651,20.637,1.788     c8.371-1.417,23.418-6.357,30.142-23.52c0.253-0.644,0.98-0.958,1.62-0.708c0.643,0.252,0.96,0.977,0.708,1.62     c-7.173,18.31-23.161,23.568-32.053,25.073C131.958,304.122,129.036,304.342,126.299,304.342z"
   id="path21" />&#10;		</g>&#10;		<g
   id="g23">&#10;			<path
   d="M123.148,274.058c-0.365,0-0.727-0.159-0.974-0.466c-5.286-6.555-3.339-15.045-0.065-20.323     c1.727-2.784,4.455-5.563,6.909-5.016c2.16,0.479,3.814,2.303,5.729,4.416c2.282,2.518,4.869,5.37,9.11,7.165     c7.293,3.085,11.106-0.078,11.144-0.109c0.524-0.449,1.315-0.387,1.763,0.136c0.449,0.524,0.389,1.314-0.136,1.763     c-0.201,0.174-5.041,4.196-13.746,0.514c-4.749-2.01-7.653-5.214-9.988-7.789c-1.695-1.87-3.035-3.348-4.418-3.653     c-0.541-0.121-2.381,0.89-4.243,3.893c-2.843,4.583-4.578,11.899-0.114,17.436c0.434,0.537,0.35,1.324-0.188,1.757     C123.701,273.967,123.423,274.058,123.148,274.058z"
   id="path22" />&#10;		</g>&#10;		<g
   id="g24">&#10;			<path
   d="M244.256,303.634c-0.667,0-1.323-0.007-1.97-0.019c-0.69-0.013-1.239-0.583-1.227-1.273     c0.013-0.691,0.611-1.26,1.273-1.227c14.552,0.265,34.569-2.375,47.368-16.507c7.737-8.542,9.501-17.819,9.237-20.055     c-0.486-4.131-2.84-4.49-2.941-4.504c-0.431-0.058-0.828-0.338-1.005-0.735c-1.106-2.492-3.033-1.957-3.404-1.823     c-0.384,0.138-0.814,0.08-1.146-0.154c-0.331-0.234-0.535-0.612-0.535-1.019c-0.002-0.073-0.068-2.104-2.157-3.264     c-0.858-0.477-2.552,1.165-4.513,3.064c-1.735,1.68-3.895,3.77-6.632,5.595c-6.613,4.408-18.798,8.093-19.313,8.247     c-0.665,0.204-1.358-0.178-1.557-0.838c-0.198-0.661,0.177-1.358,0.838-1.557c0.123-0.037,12.344-3.732,18.646-7.933     c2.549-1.699,4.53-3.618,6.279-5.312c2.787-2.699,4.987-4.83,7.467-3.453c2.028,1.127,2.861,2.795,3.204,3.989     c1.539-0.073,3.539,0.499,4.829,2.872c1.299,0.414,3.869,1.823,4.423,6.53c0.364,3.087-1.616,12.918-9.866,22.026     C278.7,300.479,259.119,303.633,244.256,303.634z"
   id="path23" />&#10;		</g>&#10;		<g
   id="g25">&#10;			<path
   d="M278.401,260.058c-0.56,0-1.068-0.378-1.211-0.944c-0.06-0.211-0.46-0.823-0.751-1.271     c-1.088-1.669-2.578-3.956-1.675-6.061c0.773-1.804,3.233-3.323,5.599-3.458c2.261-0.134,4.16,0.942,5.347,3.019     c0.343,0.6,0.135,1.363-0.465,1.705c-0.597,0.343-1.362,0.137-1.705-0.465c-0.711-1.243-1.716-1.836-3.034-1.764     c-1.633,0.094-3.13,1.216-3.444,1.947c-0.375,0.876,0.736,2.583,1.473,3.712c0.52,0.799,0.932,1.431,1.081,2.026     c0.167,0.67-0.24,1.349-0.909,1.517C278.603,260.046,278.501,260.058,278.401,260.058z"
   id="path24" />&#10;		</g>&#10;		<g
   id="g26">&#10;			<path
   d="M309.637,244.511c-0.007,0-0.014-0.001-0.021-0.001c-1.964-0.011-3.669-1.435-4.535-2.315     c-3.353,0.84-6.011-1.262-7.222-2.842c-1.464-0.516-2.564-1.823-2.987-3.59c-0.603-2.513,0.186-6.369,4.206-9.658l0,0     c0.001,0,0,0.001,0,0c4.137-3.383,13.62,0.159,16.997,4.212c3.61,4.333,0.135,8.551-2.659,11.939l-0.444,0.542     C311.815,244.21,310.524,244.51,309.637,244.511z M305.47,239.512c0.372,0,0.733,0.166,0.977,0.469     c0.423,0.524,1.92,2.026,3.186,2.029c0.317,0.03,0.816-0.079,1.402-0.795l0.451-0.549c3.081-3.738,4.798-6.192,2.668-8.75     c-2.81-3.369-10.8-6.082-13.493-3.876l0,0c-3.126,2.557-3.784,5.364-3.358,7.14c0.241,1.008,0.835,1.707,1.588,1.871     c0.321,0.07,0.602,0.264,0.78,0.539c0.085,0.129,2.194,3.228,5.348,2.006C305.166,239.539,305.319,239.512,305.47,239.512z      M299.87,227.072h0.01H299.87z"
   id="path25" />&#10;		</g>&#10;		<g
   id="g27">&#10;			<path
   d="M295.513,235.167c-0.116,0-0.235-0.017-0.353-0.051c-0.345-0.102-3.399-1.058-4.518-3.403     c-0.524-1.101-0.53-2.334-0.018-3.566c1.609-3.862,6.245-3.15,8.476-2.231c0.638,0.264,0.942,0.994,0.68,1.633     c-0.264,0.638-0.991,0.942-1.63,0.681c-0.171-0.069-4.162-1.655-5.217,0.879c-0.242,0.581-0.254,1.065-0.036,1.524     c0.541,1.143,2.328,1.893,2.971,2.086c0.66,0.198,1.037,0.894,0.841,1.554C296.548,234.816,296.052,235.167,295.513,235.167z"
   id="path26" />&#10;		</g>&#10;		<g
   id="g28">&#10;			<path
   d="M154.457,414.054c-6.496,0-12.735-0.678-18.338-2.209c-0.666-0.183-1.059-0.87-0.877-1.535     c0.183-0.666,0.874-1.059,1.535-0.877c20.358,5.564,51.454-0.858,69.759-10.28c0.615-0.317,1.368-0.074,1.684,0.539     c0.316,0.614,0.074,1.368-0.539,1.684C193.972,408.432,173.16,414.054,154.457,414.054z"
   id="path27" />&#10;		</g>&#10;		<g
   id="g29">&#10;			<path
   d="M303.572,359.874c-0.432,0-0.851-0.224-1.083-0.624c-0.346-0.597-0.142-1.361,0.456-1.708     c34.829-20.167,59.694-41.23,74.42-55.35c14.423-13.829,22.198-23.874,23.618-25.757c0.113-48.91-30.96-66.196-33.909-67.722     c-24.83-0.611-40.011,2.29-48.388,4.83c-5.704,1.73-9.103,3.531-10.852,4.641c3.998,2.384,12.72,9.386,10.696,24.301     c-2.541,18.748-10.829,26.444-19.604,34.593l-0.073,0.068c-0.504,0.47-1.297,0.442-1.767-0.065     c-0.47-0.506-0.44-1.297,0.065-1.767l0.073-0.068c8.805-8.175,16.407-15.235,18.829-33.097     c2.32-17.115-10.495-22.409-11.042-22.626c-0.396-0.157-0.686-0.506-0.768-0.925c-0.081-0.419,0.055-0.851,0.364-1.144     c0.536-0.51,13.706-12.461,62.807-11.234c0.173,0.005,0.343,0.045,0.5,0.118c0.358,0.168,35.878,17.444,35.565,70.521     c-0.002,0.261-0.085,0.516-0.239,0.728c-0.311,0.428-31.895,43.237-99.045,82.118     C303.999,359.82,303.785,359.874,303.572,359.874z"
   id="path28" />&#10;		</g>&#10;		<g
   id="g30">&#10;			<path
   d="M237.528,450.204c-7.445,0-13.976-2.683-19.19-8.028c-18.575-19.045-16.265-65.153,5.152-102.782     c0.122-0.216,0.307-0.391,0.529-0.501c2.382-1.185,58.476-29.038,70.335-31.223c0.335-0.061,0.682,0.017,0.959,0.217     c0.277,0.2,0.46,0.505,0.506,0.843c0.037,0.268,3.644,27.166,0.94,57.063c-3.603,39.824-16.738,66.901-37.99,78.305     C251.175,448.173,244.005,450.204,237.528,450.204z M225.474,340.961c-10.256,18.139-16.314,38.619-17.066,57.714     c-0.716,18.167,3.557,33.386,11.72,41.756c9.033,9.26,21.984,9.768,37.46,1.464c46.59-24.999,37.365-119.019,35.921-131.468     C280.106,313.967,230.117,338.661,225.474,340.961z"
   id="path29" />&#10;		</g>&#10;		<g
   id="g31">&#10;			<path
   d="M243.198,456.149c-2.422,0-4.867-0.186-7.328-0.561c-25.31-3.853-27.882-28.068-29.117-39.706l-0.17-1.57     c-0.077-0.685,0.417-1.305,1.104-1.381c0.677-0.072,1.305,0.417,1.381,1.103l0.171,1.584c1.17,11.015,3.604,33.935,27.009,37.499     c17.8,2.706,41.388-5.23,54.188-35.646c9.539-22.669,14.468-70.558,11.858-94.142l-8.766-13.757     c-0.371-0.582-0.2-1.355,0.382-1.726c0.58-0.371,1.354-0.201,1.726,0.382l8.922,14.001c0.103,0.16,0.167,0.342,0.188,0.53     c2.732,23.922-2.015,71.935-12.006,95.68c-5.157,12.256-12.861,22.248-22.279,28.897     C262.212,453.157,252.904,456.149,243.198,456.149z"
   id="path30" />&#10;		</g>&#10;		<g
   id="g32">&#10;			<path
   d="M124.081,325.317c-0.406,0-0.805-0.197-1.045-0.563c-0.38-0.576-0.221-1.352,0.356-1.731     c1.677-1.105,41.106-27.093,43.653-28.712c0.414-0.263,0.941-0.261,1.354,0.008c0.37,0.24,37.645,23.944,84.998,6.871     c0.646-0.235,1.365,0.102,1.6,0.752c0.234,0.649-0.103,1.365-0.752,1.6c-44.945,16.209-81.078-3.482-86.509-6.7     c-5.826,3.79-42.578,28.012-42.969,28.27C124.556,325.25,124.318,325.317,124.081,325.317z"
   id="path31" />&#10;		</g>&#10;		<g
   id="g33">&#10;			<path
   d="M167.716,296.615c-0.555,0-1.062-0.372-1.209-0.935c-1.41-5.404-2.395-16.101-2.436-16.555     c-0.063-0.688,0.444-1.296,1.132-1.358c0.693-0.054,1.296,0.444,1.358,1.132c0.01,0.108,1.007,10.945,2.365,16.15     c0.174,0.668-0.226,1.351-0.894,1.525C167.927,296.603,167.821,296.615,167.716,296.615z"
   id="path32" />&#10;		</g>&#10;		<g
   id="g34">&#10;			<path
   d="M300.724,263.947c-0.642,0-1.188-0.491-1.244-1.142c-0.06-0.686,0.446-1.29,1.131-1.354     c0.206-0.021,4.71-0.533,7.147-5.813c2.66-5.762,2.994-13.602,2.997-13.682c0.027-0.69,0.598-1.204,1.298-1.2     c0.689,0.027,1.227,0.607,1.2,1.297c-0.013,0.341-0.353,8.411-3.226,14.633c-3.068,6.649-8.944,7.233-9.193,7.255     C300.796,263.944,300.76,263.947,300.724,263.947z"
   id="path33" />&#10;		</g>&#10;		<g
   id="g35">&#10;			<path
   d="M291.975,228.244c-0.407,0-0.808-0.199-1.047-0.566l-3.967-6.067c-0.378-0.577-0.216-1.353,0.362-1.73     c0.578-0.379,1.354-0.216,1.73,0.362l3.967,6.067c0.378,0.577,0.216,1.353-0.362,1.73     C292.447,228.179,292.209,228.244,291.975,228.244z"
   id="path34" />&#10;		</g>&#10;		<g
   id="g36">&#10;			<path
   d="M289.289,222.061c-0.638,0-1.182-0.485-1.242-1.134c-0.065-0.686,0.44-1.296,1.128-1.36     c5.209-0.489,14.096-1.556,15.766-2.338c0.622-0.294,1.368-0.025,1.662,0.602c0.293,0.625,0.023,1.369-0.602,1.662     c-2.61,1.224-15.17,2.43-16.594,2.563C289.368,222.059,289.328,222.061,289.289,222.061z"
   id="path35" />&#10;		</g>&#10;		<g
   id="g37">&#10;			<path
   d="M310.292,221.433c1.867,1.4,5.6,6.767,5.484,8.4c-0.117,1.633-1.983,0.117-5.017-1.75     c-3.033-1.867-5.134-2.684-7.584-2.334c-2.45,0.35-2.8,1.75-3.5,1.867c-0.7,0.117-1.517-2.1-3.384-1.75     c-1.867,0.35-4.083,2.217-5.95-1.283c-1.867-3.5-1.75-3.617,3.15-4.55s12.134-1.283,13.301-0.933     C307.959,219.449,310.292,221.433,310.292,221.433z"
   id="path36" />&#10;		</g>&#10;		<g
   id="g38">&#10;			<path
   d="M300.492,240.451c0,0,1.4,9.801-1.089,19.29l0.544,2.489c0,0,3.189-0.7,5.212-2.8c2.022-2.1,3.422-4.356,4.2-7.001     c0.778-2.645,2.8-5.522,2.645-7.311c-0.155-1.789-0.544-0.311-2.8-1.711C306.948,242.006,301.892,238.973,300.492,240.451z"
   id="path37" />&#10;		</g>&#10;		<g
   id="g39">&#10;			<path
   d="M164.736,202.984c-1.559,0-3.05-0.244-4.38-0.729c-2.508-0.914-4.164-2.572-4.661-4.668     c-0.498-2.097,0.234-4.322,2.063-6.268c1.724-1.832,4.246-3.215,7.103-3.893c6.15-1.462,11.752,0.716,12.758,4.952l0,0     c1.006,4.238-3.021,8.701-9.167,10.161C167.201,202.835,165.948,202.984,164.736,202.984z M168.525,188.989     c-1.031,0-2.112,0.122-3.201,0.381c-2.481,0.59-4.649,1.768-6.108,3.318c-1.354,1.439-1.913,3.014-1.575,4.435     c0.338,1.421,1.545,2.576,3.401,3.252c1.999,0.729,4.467,0.808,6.947,0.218c4.888-1.161,8.406-4.711,7.685-7.753l0,0     C175.111,190.476,172.122,188.989,168.525,188.989z"
   id="path38" />&#10;		</g>&#10;		<g
   id="g40">&#10;			<path
   d="M258.308,169.932c-1.384,0-2.709-0.217-3.891-0.647c-2.244-0.818-3.726-2.306-4.173-4.188     c-0.447-1.884,0.207-3.879,1.844-5.618c1.531-1.627,3.769-2.855,6.302-3.456c2.533-0.603,5.084-0.512,7.184,0.253     c2.244,0.817,3.726,2.306,4.173,4.189c0.9,3.79-2.678,7.776-8.146,9.075C260.494,169.801,259.383,169.932,258.308,169.932z      M261.689,157.626c-0.92,0-1.877,0.113-2.836,0.341c-2.157,0.513-4.042,1.535-5.308,2.881c-1.161,1.233-1.642,2.578-1.355,3.785     c0.287,1.208,1.321,2.192,2.913,2.772c1.735,0.633,3.879,0.698,6.035,0.188c4.231-1.006,7.282-4.059,6.663-6.667     c-0.287-1.208-1.321-2.192-2.913-2.772C263.925,157.802,262.835,157.626,261.689,157.626z"
   id="path39" />&#10;		</g>&#10;		<g
   id="g41">&#10;			<path
   d="M97.012,381.787c-0.152,0-0.307-0.028-0.454-0.086c-15.193-5.93-39.278-33.325-41.611-51.035     c-0.743-5.645,0.798-10.05,4.457-12.74c10.305-7.577,32.282-5.421,47.969-1.27c3.535,0.935,15.188,4.247,16.684,7.602l0,0     c7.935,17.792-24.709,55.505-26.103,57.102C97.711,381.637,97.366,381.787,97.012,381.787z M80.273,315.346     c-7.801,0-14.872,1.273-19.389,4.594c-2.921,2.148-4.085,5.647-3.459,10.4c2.154,16.352,24.863,42.448,39.226,48.695     c4.385-5.189,31.863-38.63,25.122-53.76l0,0c-0.355-0.794-4.654-3.463-15.112-6.222     C98.665,316.944,89.011,315.346,80.273,315.346z"
   id="path40" />&#10;		</g>&#10;		<g
   id="g42">&#10;			<path
   d="M99.711,437.612c-2.015,0-3.799-0.781-5.242-2.315c-11.676-12.405,5.37-45.532,6.102-46.936     c0.128-0.246,0.333-0.441,0.585-0.558c2.414-1.114,33.37-21.868,45.095-29.77c0.43-0.291,0.995-0.284,1.419,0.015     c0.424,0.3,0.619,0.83,0.49,1.333c-9.172,35.69-32.072,74.296-46.234,77.939C101.161,437.515,100.422,437.612,99.711,437.612z      M102.614,389.857c-0.838,1.667-4.525,9.2-7.098,17.763c-2.612,8.694-4.599,20.257,0.773,25.965     c1.327,1.41,2.969,1.841,5.013,1.314c12.78-3.288,34.23-39.463,43.574-72.927C135.703,368.142,107.108,387.338,102.614,389.857z"
   id="path41" />&#10;		</g>&#10;		<g
   id="g43">&#10;			<path
   d="M103.673,441.71c-3.888,0-5.533-2.002-7.614-4.534c-0.486-0.592-1.01-1.23-1.611-1.902     c-0.46-0.514-0.416-1.305,0.099-1.765c0.513-0.46,1.303-0.418,1.765,0.099c0.626,0.699,1.173,1.364,1.68,1.98     c2.646,3.221,3.741,4.55,9.675,3.01c10.518-2.735,23.489-21.342,29.953-37.751c5.423-13.765,11.291-30.918,12.395-34.167     l-4.141-6.974c-0.353-0.593-0.156-1.36,0.438-1.713c0.592-0.351,1.359-0.156,1.713,0.438l4.434,7.468     c0.186,0.313,0.226,0.692,0.109,1.037c-0.065,0.194-6.613,19.574-12.622,34.827c-6.602,16.756-19.938,36.209-31.65,39.255     C106.452,441.496,104.944,441.71,103.673,441.71z"
   id="path42" />&#10;		</g>&#10;		<g
   id="g44">&#10;			<path
   d="M101.68,390.188c-0.439,0-0.865-0.232-1.094-0.643l-4.667-8.4c-0.335-0.604-0.118-1.365,0.485-1.7     c0.605-0.334,1.364-0.117,1.7,0.485l4.667,8.4c0.335,0.604,0.118,1.365-0.485,1.7     C102.094,390.137,101.885,390.188,101.68,390.188z"
   id="path43" />&#10;		</g>&#10;		<g
   id="g45">&#10;			<path
   d="M243.007,414.442c-0.075,0-0.15-0.002-0.227-0.006c-1.691-0.091-3.062-1.204-3.575-2.905l-2.021-6.693     c-0.201-0.665-0.709-1.099-1.324-1.133l-6.542-0.355c-1.617-0.087-2.966-1.126-3.52-2.711c-0.644-1.841-0.077-3.964,1.408-5.283     l5.355-4.759c0.619-0.55,0.933-1.426,0.799-2.233l-1.159-7.012c-0.32-1.939,0.576-3.941,2.231-4.98     c1.432-0.898,3.141-0.881,4.463,0.048l5.33,3.753c0.505,0.358,1.185,0.327,1.771-0.075l5.825-3.979     c1.493-1.02,3.277-1.029,4.66-0.026c1.484,1.076,2.083,3.012,1.524,4.931l-2.062,7.077c-0.23,0.789-0.059,1.606,0.437,2.079     l4.761,4.553c1.255,1.2,1.649,3.053,1.03,4.833c-0.629,1.807-2.113,3.031-3.874,3.196l-6.605,0.622     c-0.698,0.066-1.359,0.604-1.685,1.368l-2.884,6.793C246.372,413.324,244.771,414.442,243.007,414.442z M236.666,378.204     c-0.374,0-0.699,0.155-0.904,0.284c-0.676,0.425-1.276,1.349-1.094,2.455l1.159,7.012c0.274,1.66-0.341,3.389-1.605,4.511     l-5.355,4.759c-0.851,0.755-0.969,1.845-0.708,2.589c0.129,0.369,0.468,0.995,1.294,1.04l6.542,0.354h0.001     c1.669,0.091,3.075,1.231,3.581,2.906l2.021,6.693c0.284,0.939,0.947,1.111,1.317,1.132c0.597,0.017,1.459-0.308,1.91-1.373     l2.884-6.793c0.688-1.623,2.126-2.727,3.75-2.88l6.605-0.622c0.927-0.087,1.51-0.848,1.747-1.529     c0.23-0.662,0.247-1.589-0.397-2.205l-4.76-4.553c-1.179-1.127-1.605-2.883-1.109-4.584l2.062-7.078     c0.315-1.084-0.121-1.867-0.592-2.208c-0.518-0.375-1.17-0.353-1.782,0.067l-5.825,3.979c-1.446,0.99-3.261,1.014-4.621,0.056     l-5.33-3.753C237.186,378.273,236.915,378.204,236.666,378.204z"
   id="path44" />&#10;		</g>&#10;		<g
   id="g46">&#10;			<path
   d="M90.702,358.922c-0.805,0-1.563-0.4-2.019-1.093l-4.895-7.45l-8.835,1.181c-0.982,0.13-1.94-0.345-2.43-1.211     c-0.489-0.866-0.403-1.928,0.219-2.704l5.603-6.995l-3.883-8c-0.431-0.896-0.273-1.95,0.398-2.684     c0.673-0.734,1.712-0.979,2.642-0.63l8.384,3.168l6.408-6.165c0.722-0.686,1.772-0.861,2.677-0.449     c0.906,0.413,1.461,1.322,1.414,2.316l-0.421,8.952l7.843,4.19c0.875,0.472,1.368,1.416,1.255,2.405     c-0.112,0.989-0.806,1.798-1.767,2.062l-8.645,2.366l-1.561,8.754c-0.181,0.979-0.927,1.739-1.902,1.938     C91.026,358.905,90.863,358.922,90.702,358.922z M83.823,347.874c0.807,0,1.579,0.408,2.029,1.092l4.815,7.328l1.581-8.625     c0.169-0.91,0.853-1.655,1.743-1.898l8.456-2.315l-7.713-4.169c-0.814-0.442-1.312-1.324-1.267-2.246l0.412-8.757l-6.349,6.047     c-0.671,0.639-1.664,0.84-2.527,0.512l-8.202-3.099l3.789,7.908c0.4,0.832,0.286,1.838-0.292,2.561l-5.482,6.844l8.691-1.161l0,0     C83.613,347.881,83.718,347.874,83.823,347.874z"
   id="path45" />&#10;		</g>&#10;		<g
   id="g47">&#10;			<path
   d="M242.81,418.902c-2.564,0-5.134-0.462-7.614-1.435c-5.825-2.285-10.282-7.005-12.551-13.29     c-2.247-6.227-2.073-13.253,0.489-19.786c2.563-6.532,7.215-11.803,13.097-14.841c5.936-3.063,12.413-3.495,18.238-1.21     c5.824,2.285,10.281,7.005,12.55,13.29c2.247,6.227,2.073,13.253-0.489,19.786C262.318,412.151,252.612,418.902,242.81,418.902z      M246.812,369.396c-3.161,0-6.374,0.797-9.435,2.377c-5.343,2.759-9.574,7.564-11.915,13.532     c-2.342,5.968-2.507,12.369-0.466,18.024c2.02,5.598,5.967,9.792,11.111,11.81c10.685,4.191,23.284-2.375,28.094-14.636v-0.001     c2.342-5.967,2.507-12.368,0.466-18.023c-2.021-5.598-5.967-9.792-11.111-11.811     C251.388,369.819,249.114,369.396,246.812,369.396z"
   id="path46" />&#10;		</g>&#10;		<g
   id="g48">&#10;			<path
   d="M377.962,304.549c-0.645,0-1.192-0.495-1.245-1.149c-5.169-63.857-52.998-90.213-53.48-90.472     c-0.608-0.326-0.838-1.083-0.512-1.691c0.326-0.609,1.085-0.835,1.691-0.513c0.507,0.271,12.561,6.811,25.436,21.514     c11.869,13.556,26.598,36.869,29.357,70.961c0.056,0.688-0.457,1.291-1.145,1.347     C378.03,304.548,377.996,304.549,377.962,304.549z"
   id="path47" />&#10;		</g>&#10;		<g
   id="g49">&#10;			<path
   d="M405.644,248.738c-2.57,0-4.867-0.176-6.752-0.524c-0.679-0.126-1.127-0.778-1.002-1.457     c0.127-0.678,0.774-1.126,1.457-1.002c11.428,2.12,40.248-2.76,48.103-14.715c2.951-4.493,2.567-9.571-1.143-15.094     c-2.915-4.341-6.878-6.818-11.779-7.363c-17.844-2.005-42.7,21.339-42.949,21.575c-0.503,0.474-1.293,0.453-1.768-0.049     c-0.475-0.502-0.452-1.293,0.049-1.768c0.065-0.061,6.512-6.135,15.162-11.864c11.742-7.778,21.771-11.27,29.779-10.38     c5.667,0.63,10.237,3.475,13.582,8.454c4.263,6.347,4.662,12.523,1.155,17.861C442.327,243.393,419.831,248.738,405.644,248.738z     "
   id="path48" />&#10;		</g>&#10;		<g
   id="g50">&#10;			<path
   d="M385.742,223.966c-0.147,0-0.297-0.026-0.443-0.081c-0.646-0.245-0.971-0.967-0.726-1.612     c5.209-13.73,4.096-40.512-4.178-49.087c-2.587-2.682-5.591-3.395-9.187-2.178c-5.058,1.715-8.455,4.721-10.098,8.935     c-4.237,10.867,4.173,26.46,4.259,26.616c0.331,0.605,0.108,1.365-0.496,1.697c-0.606,0.328-1.365,0.11-1.697-0.496     c-0.371-0.679-9.055-16.761-4.397-28.72c1.923-4.938,5.835-8.437,11.627-10.399c4.476-1.518,8.551-0.546,11.788,2.81     c8.996,9.322,10.283,37.034,4.717,51.709C386.721,223.658,386.246,223.966,385.742,223.966z"
   id="path49" />&#10;		</g>&#10;		<g
   id="g51">&#10;			<path
   d="M414.939,317.14c-6.815,0.001-16.119-7.289-23.225-28.06c-0.224-0.653,0.125-1.363,0.778-1.587     c0.654-0.224,1.363,0.125,1.587,0.778c7.08,20.694,16.167,27.096,21.8,26.304c5.291-0.752,8.883-7.599,9.371-17.87     c1.186-24.918-24.112-34.141-24.368-34.23c-0.651-0.229-0.992-0.943-0.763-1.595c0.23-0.651,0.943-0.994,1.595-0.763     c0.273,0.097,27.308,9.953,26.034,36.707c-0.559,11.72-4.864,19.281-11.518,20.226     C415.812,317.109,415.379,317.14,414.939,317.14z"
   id="path50" />&#10;		</g>&#10;		<g
   id="g52">&#10;			<path
   d="M233.743,229.531c-5.507,0.001-10.9-2.093-15.589-6.185c-7.614-6.646-11.032-14.826-9.625-23.036     c1.484-8.659,8.291-16.375,17.764-20.137l0,0c8.046-3.192,15.303-2.843,20.983,1.013c8.28,5.622,11.219,17.003,11.219,25.04     c0,8.273-6.366,17.17-15.137,21.156C240.194,228.822,236.949,229.531,233.743,229.531z M227.214,182.498     c-8.667,3.441-14.883,10.429-16.222,18.235c-1.254,7.317,1.873,14.68,8.806,20.73c9.102,7.943,18.021,5.693,22.525,3.644     c7.922-3.601,13.671-11.541,13.671-18.881c0-7.427-2.651-17.898-10.123-22.971C240.836,179.836,234.559,179.583,227.214,182.498     L227.214,182.498z"
   id="path51" />&#10;		</g>&#10;		<g
   id="g53">&#10;			<path
   d="M218.353,199.693"
   id="path52" />&#10;		</g>&#10;		<g
   id="g54">&#10;			<path
   d="M225.439,205.65c-6.518,0-8.264-5.533-8.283-5.598c-0.198-0.661,0.177-1.358,0.838-1.557     c0.665-0.201,1.355,0.176,1.555,0.831c0.073,0.232,1.705,5.067,8.48,3.504c1.051-0.242,1.761-0.789,2.235-1.721     c1.643-3.227-0.181-9.882-1.532-13.605c-0.406-0.958-0.634-1.61-0.671-1.718c-0.218-0.637,0.106-1.331,0.734-1.572     c0.627-0.242,1.334,0.058,1.599,0.677c0.045,0.106,0.311,0.738,0.669,1.722c1.442,3.382,4.456,8.793,8.021,9.356     c1.641,0.257,2.953-0.269,3.902-1.565c1.371-1.872,1.514-4.649,1.007-5.664c-0.309-0.617-0.059-1.368,0.56-1.677     c0.616-0.309,1.369-0.058,1.677,0.559c0.944,1.89,0.678,5.659-1.226,8.258c-1.504,2.055-3.745,2.967-6.311,2.558     c-2.116-0.334-3.954-1.713-5.48-3.446c0.342,2.642,0.274,5.294-0.722,7.251c-0.813,1.597-2.125,2.614-3.901,3.023     C227.433,205.533,226.385,205.65,225.439,205.65z"
   id="path53" />&#10;		</g>&#10;		<g
   id="g55">&#10;			<path
   d="M237.004,215.797c-6.488,0-11.144-6.054-12.943-9.983c-0.287-0.627-0.012-1.368,0.615-1.655     c0.626-0.292,1.368-0.014,1.657,0.613c0.222,0.48,5.52,11.718,14.526,7.629c2.214-1.006,3.609-2.473,4.267-4.483     c1.641-5.02-2.001-11.59-2.038-11.656c-0.338-0.602-0.125-1.363,0.476-1.702c0.6-0.34,1.361-0.128,1.702,0.475     c0.173,0.307,4.218,7.58,2.239,13.651c-0.873,2.681-2.761,4.696-5.61,5.991C240.171,215.459,238.537,215.797,237.004,215.797z"
   id="path54" />&#10;		</g>&#10;		<g
   id="g56">&#10;			<path
   d="M232.665,214.32c-0.106,0-0.215-0.014-0.322-0.043c-0.666-0.178-1.063-0.859-0.886-1.525     c0.03-0.119,3.243-11.705,14.856-9.146c0.674,0.148,1.1,0.815,0.951,1.49c-0.148,0.674-0.811,1.099-1.49,0.951     c-9.254-2.041-11.797,6.963-11.9,7.347C233.723,213.951,233.217,214.32,232.665,214.32z"
   id="path55" />&#10;		</g>&#10;		<g
   id="g57">&#10;			<path
   d="M227.998,204.671c-1.542,1.053-2.489,1.4-0.622,3.889c1.867,2.489,4.045,3.889,4.667,4.2     c0.622,0.311,1.711-3.889,4.045-5.6c2.334-1.711,4.511-3.423,6.534-2.645c2.022,0.778,4.511,1.244,3.734-2.645     c-0.778-3.889-0.622-6.689-4.2-5.445c-3.578,1.244-4.511,0.622-6.689-1.4c-2.178-2.022-3.267-2.956-3.267-2.956     S234.376,200.315,227.998,204.671z"
   id="path56" />&#10;		</g>&#10;		<g
   id="g58">&#10;			<path
   d="M226.132,113.198"
   id="path57" />&#10;		</g>&#10;		<g
   id="g59">&#10;			<path
   d="M161.77,136.242c-0.417,0-0.824-0.208-1.062-0.588c-4.607-7.383-4.043-15.748-3.589-22.469     c0.127-1.886,0.247-3.667,0.247-5.276c0-7.271,5.162-25.703,12.953-26.446c6.657-0.637,33.137,2.42,44.756,11.459     c11.36,8.836,15.487,20.312,15.658,20.796c0.229,0.65-0.113,1.363-0.765,1.593c-0.647,0.229-1.364-0.112-1.594-0.764     c-0.04-0.111-4.078-11.285-14.835-19.652c-10.925-8.498-36.773-11.531-42.983-10.943c-2.329,0.223-5.065,3.684-7.32,9.259     c-1.984,4.906-3.37,10.951-3.37,14.699c0,1.693-0.123,3.516-0.253,5.444c-0.452,6.693-0.964,14.28,3.216,20.977     c0.365,0.586,0.186,1.357-0.398,1.723C162.225,136.181,161.996,136.242,161.77,136.242z"
   id="path58" />&#10;		</g>&#10;		<g
   id="g60">&#10;			<path
   d="M158.041,91.25c-0.762,0-1.484-0.112-2.095-0.396c-0.818-0.38-1.385-1.028-1.639-1.876     c-0.561-1.868,0.138-3.3,1.181-4.303c-0.839-0.389-1.656-0.952-2.158-1.76c-0.397-0.64-0.763-1.701-0.245-3.124     c0.38-1.045,1.109-1.822,2.107-2.246c0.95-0.403,2.036-0.443,3.045-0.327c-0.316-0.778-0.501-1.646-0.372-2.523     c0.13-0.886,0.641-2.132,2.336-3.045c2.677-1.441,4.941-0.714,6.476,0.449c0.304-0.718,0.76-1.467,1.444-2.056     c0.906-0.779,2.07-1.125,3.355-1.027c1.293,0.108,2.37,0.653,3.114,1.578c0.457,0.568,0.744,1.216,0.92,1.849     c0.666-0.234,1.733-0.335,3.059,0.493c3.227,2.017,0.958,7.461-0.167,9.708c-0.311,0.617-1.062,0.866-1.678,0.559     c-0.617-0.31-0.867-1.061-0.559-1.678c1.579-3.152,2.032-5.873,1.078-6.47c-0.218-0.136-0.618-0.354-0.898-0.256     c-0.323,0.113-0.602,0.629-0.68,0.847c-0.215,0.604-0.854,0.953-1.473,0.803c-0.622-0.15-1.032-0.74-0.948-1.374     c0.065-0.52,0.085-2.066-0.606-2.918c-0.316-0.392-0.752-0.598-1.369-0.648c-0.635-0.059-1.11,0.082-1.512,0.425     c-0.855,0.73-1.144,2.249-1.183,2.772c-0.04,0.541-0.425,0.996-0.951,1.124c-0.531,0.129-1.076-0.095-1.36-0.557     c-0.192-0.305-1.989-2.975-4.876-1.422c-0.944,0.508-1.022,1.031-1.048,1.204c-0.178,1.192,1.167,2.858,1.651,3.348     c0.423,0.427,0.482,1.094,0.143,1.589c-0.341,0.495-0.983,0.68-1.534,0.436c-0.739-0.325-3.143-1.132-4.431-0.58     c-0.362,0.154-0.589,0.401-0.733,0.799c-0.186,0.513-0.089,0.776,0.018,0.949c0.526,0.85,2.453,1.327,3.305,1.425     c0.587,0.067,1.049,0.538,1.102,1.127c0.055,0.589-0.309,1.136-0.875,1.31c-0.112,0.036-2.846,0.925-2.282,2.803     c0.042,0.14,0.104,0.237,0.296,0.327c1.175,0.547,4.272-0.324,6.098-1.114c0.634-0.273,1.369,0.016,1.645,0.648     c0.274,0.634-0.016,1.369-0.648,1.645C163.401,90.067,160.52,91.25,158.041,91.25z"
   id="path59" />&#10;		</g>&#10;		<g
   id="g61">&#10;			<path
   d="M158.926,125.96c-0.202,0-0.407-0.05-0.598-0.153c-0.605-0.33-0.829-1.089-0.499-1.694     c0.194-0.358,19.951-35.573,63.646-23.945c0.667,0.178,1.064,0.862,0.887,1.529c-0.178,0.667-0.863,1.066-1.529,0.887     c-17.519-4.661-33.059-2.274-46.195,7.097c-9.835,7.017-14.566,15.544-14.612,15.629     C159.797,125.725,159.368,125.96,158.926,125.96z"
   id="path60" />&#10;		</g>&#10;		<g
   id="g62">&#10;			<path
   d="M421.581,199.982c-0.469,0-0.918-0.265-1.132-0.717c-5.065-10.739-15.389-19.113-26.941-21.854     c-0.672-0.159-1.088-0.833-0.928-1.504c0.158-0.673,0.832-1.095,1.504-0.928c12.462,2.955,23.163,11.635,28.627,23.219     c0.294,0.624,0.026,1.369-0.598,1.664C421.941,199.943,421.759,199.982,421.581,199.982z"
   id="path61" />&#10;		</g>&#10;		<g
   id="g63">&#10;			<path
   d="M412.804,203.433c-0.539,0-1.037-0.352-1.197-0.896c-1.071-3.622-3.48-6.914-6.609-9.032     c-0.571-0.387-0.721-1.164-0.334-1.736c0.387-0.571,1.165-0.721,1.736-0.334c3.653,2.473,6.354,6.164,7.604,10.394     c0.196,0.662-0.182,1.357-0.844,1.553C413.041,203.416,412.922,203.433,412.804,203.433z"
   id="path62" />&#10;		</g>&#10;		<g
   id="g64">&#10;			<path
   d="M431.308,285.348c-0.227,0-0.455-0.062-0.661-0.189c-0.586-0.366-0.764-1.138-0.398-1.723     c6.101-9.764,9.189-21.475,8.694-32.976c-0.029-0.689,0.506-1.272,1.195-1.303c0.677-0.034,1.273,0.505,1.303,1.195     c0.516,12.001-2.706,24.22-9.071,34.407C432.132,285.14,431.725,285.348,431.308,285.348z"
   id="path63" />&#10;		</g>&#10;		<g
   id="g65">&#10;			<path
   d="M424.351,274.706c-0.284,0-0.569-0.097-0.805-0.294c-0.527-0.444-0.595-1.233-0.15-1.762     c2.176-2.583,3.608-5.712,4.144-9.048c0.109-0.682,0.751-1.142,1.433-1.036c0.682,0.109,1.146,0.751,1.036,1.433     c-0.606,3.783-2.232,7.332-4.7,10.263C425.061,274.555,424.707,274.706,424.351,274.706z"
   id="path64" />&#10;		</g>&#10;		<g
   id="g66">&#10;			<path
   d="M396.011,311.08c-0.046,0-0.092-0.002-0.138-0.008c-2.801-0.306-5.548-1.252-7.946-2.736     c-0.587-0.363-0.768-1.133-0.404-1.721c0.364-0.587,1.135-0.767,1.721-0.404c2.082,1.288,4.469,2.11,6.901,2.377     c0.686,0.074,1.182,0.691,1.107,1.378C397.182,310.607,396.64,311.08,396.011,311.08z"
   id="path65" />&#10;		</g>&#10;		<g
   id="g67">&#10;			<path
   d="M344.046,203.119c-0.093,0-0.188-0.01-0.282-0.032c-0.673-0.155-1.092-0.827-0.936-1.499     c1.382-5.977,4.211-11.607,8.181-16.281c0.448-0.526,1.235-0.589,1.763-0.143c0.525,0.447,0.59,1.236,0.144,1.763     c-3.713,4.371-6.358,9.636-7.651,15.225C345.129,202.729,344.616,203.119,344.046,203.119z"
   id="path66" />&#10;		</g>&#10;		<g
   id="g68">&#10;			<path
   d="M351.224,203.125c-0.113,0-0.228-0.015-0.341-0.047c-0.665-0.188-1.051-0.879-0.863-1.543     c0.565-1.999,1.314-3.958,2.226-5.821c0.303-0.62,1.05-0.876,1.672-0.574c0.62,0.304,0.877,1.052,0.574,1.672     c-0.846,1.73-1.541,3.548-2.065,5.403C352.27,202.766,351.769,203.125,351.224,203.125z"
   id="path67" />&#10;		</g>&#10;		<g
   id="g69">&#10;			<path
   d="M343.427,227.389c-0.506,0-0.982-0.309-1.171-0.811c-0.242-0.646,0.086-1.366,0.732-1.609     c0.922-0.346,22.745-8.477,36.474-9.102c0.691-0.035,1.273,0.502,1.306,1.192c0.031,0.689-0.503,1.274-1.192,1.306     c-13.338,0.607-35.487,8.861-35.71,8.945C343.721,227.363,343.573,227.389,343.427,227.389z"
   id="path68" />&#10;		</g>&#10;		<g
   id="g70">&#10;			<path
   d="M362.408,253.212c-0.423,0-0.835-0.215-1.07-0.603c-0.357-0.591-0.169-1.359,0.422-1.717     c0.221-0.134,22.152-13.421,29.512-18.327c0.573-0.381,1.351-0.229,1.733,0.347c0.383,0.574,0.227,1.351-0.347,1.733     c-7.404,4.936-29.382,18.252-29.604,18.386C362.852,253.154,362.628,253.212,362.408,253.212z"
   id="path69" />&#10;		</g>&#10;		<g
   id="g71">&#10;			<path
   d="M374.54,280.592c-0.328,0-0.656-0.129-0.901-0.385c-0.478-0.498-0.462-1.289,0.036-1.767     c0.155-0.149,15.643-15.025,24.546-24.236c0.479-0.494,1.27-0.511,1.768-0.029c0.496,0.479,0.51,1.27,0.029,1.768     c-8.935,9.243-24.456,24.151-24.612,24.301C375.164,280.477,374.852,280.592,374.54,280.592z"
   id="path70" />&#10;		</g>&#10;		<g
   id="g72">&#10;			<path
   d="M348.407,288.998c-0.013,0-0.026,0-0.039,0c-1.381-0.021-2.482-1.157-2.462-2.538l0.312-20.535     c0.021-1.38,1.142-2.47,2.538-2.462c1.381,0.021,2.482,1.157,2.462,2.538l-0.312,20.535     C350.884,287.904,349.769,288.998,348.407,288.998z"
   id="path71" />&#10;		</g>&#10;		<g
   id="g73">&#10;			<path
   d="M340.318,294.909c-0.013,0-0.026,0-0.039,0c-1.38-0.021-2.482-1.157-2.462-2.538l0.31-20.534     c0.021-1.38,1.178-2.517,2.538-2.462c1.38,0.021,2.482,1.157,2.462,2.538l-0.31,20.534     C342.796,293.815,341.681,294.909,340.318,294.909z"
   id="path72" />&#10;		</g>&#10;		<g
   id="g74">&#10;			<path
   d="M332.539,301.132c-0.013,0-0.026,0-0.039,0c-1.38-0.021-2.482-1.157-2.462-2.538l0.311-20.534     c0.021-1.381,1.124-2.494,2.538-2.462c1.38,0.021,2.482,1.157,2.462,2.538l-0.311,20.534     C335.018,300.037,333.903,301.132,332.539,301.132z"
   id="path73" />&#10;		</g>&#10;		<g
   id="g75">&#10;			<path
   d="M176.915,280.98c-0.3,0-0.597-0.134-0.794-0.391c-4.95-6.436-6.656-23.934-6.726-24.677     c-0.053-0.55,0.352-1.037,0.9-1.089c0.561-0.066,1.038,0.352,1.09,0.9c0.018,0.177,1.721,17.665,6.321,23.646     c0.336,0.438,0.255,1.065-0.184,1.402C177.342,280.912,177.128,280.98,176.915,280.98z"
   id="path74" />&#10;		</g>&#10;		<g
   id="g76">&#10;			<path
   d="M201.559,279.53c-0.292,0-0.581-0.127-0.778-0.371c-4.216-5.208-7.786-23.579-7.937-24.359     c-0.103-0.542,0.251-1.066,0.794-1.171c0.54-0.101,1.065,0.251,1.171,0.794c0.035,0.186,3.624,18.657,7.526,23.479     c0.348,0.429,0.281,1.059-0.148,1.406C202.002,279.456,201.78,279.53,201.559,279.53z"
   id="path75" />&#10;		</g>&#10;		<g
   id="g77">&#10;			<path
   d="M225.961,275.423c-0.276,0-0.552-0.114-0.75-0.339c-3.746-4.245-8.248-23.067-8.438-23.866     c-0.128-0.538,0.204-1.077,0.741-1.204c0.54-0.133,1.076,0.205,1.204,0.741c1.262,5.31,5.155,19.791,7.992,23.007     c0.365,0.414,0.326,1.046-0.089,1.411C226.433,275.341,226.197,275.423,225.961,275.423z"
   id="path76" />&#10;		</g>&#10;		<g
   id="g78">&#10;			<path
   d="M247.706,267.933c-0.388,0-0.757-0.227-0.919-0.607c-1.449-3.38-7.503-21.299-7.76-22.059     c-0.177-0.523,0.104-1.091,0.627-1.268c0.526-0.181,1.092,0.104,1.268,0.627c0.063,0.187,6.285,18.604,7.703,21.913     c0.218,0.507-0.018,1.095-0.525,1.313C247.972,267.907,247.838,267.933,247.706,267.933z"
   id="path77" />&#10;		</g>&#10;		<g
   id="g79">&#10;			<path
   d="M266.551,256.094c-0.521,0-0.962-0.405-0.997-0.934c-0.188-2.816-5.054-13.6-6.912-17.517     c-0.237-0.499-0.024-1.096,0.475-1.332c0.5-0.236,1.096-0.024,1.332,0.475c0.701,1.477,6.854,14.534,7.102,18.241     c0.036,0.551-0.38,1.027-0.932,1.065C266.596,256.093,266.574,256.094,266.551,256.094z"
   id="path78" />&#10;		</g>&#10;		<g
   id="g80">&#10;			<path
   d="M282.014,241.839c-0.485,0-0.911-0.354-0.987-0.848c-0.407-2.646-7.017-11.064-8.293-12.018     c-0.384-0.14-0.658-0.508-0.658-0.94c0-0.553,0.447-1,1-1c1.873,0,9.53,11.071,9.928,13.653c0.084,0.546-0.29,1.057-0.836,1.141     C282.116,241.835,282.065,241.839,282.014,241.839z M273.075,229.033h0.001H273.075z"
   id="path79" />&#10;		</g>&#10;		<g
   id="g81">&#10;			<path
   d="M285.639,230.241c-0.435,0-0.836-0.286-0.962-0.726c-0.737-2.58-4.265-6.68-5.561-8.041     c-0.382-0.399-0.366-1.032,0.034-1.413c0.399-0.381,1.032-0.368,1.413,0.034c0.205,0.214,5.014,5.292,6.037,8.871     c0.151,0.53-0.156,1.084-0.688,1.236C285.822,230.229,285.73,230.241,285.639,230.241z"
   id="path80" />&#10;		</g>&#10;		<g
   id="g82">&#10;			<path
   d="M126.418,302.966c-0.383,0-0.747-0.22-0.913-0.591c-3.234-7.215,0.496-26.368,0.656-27.18     c0.107-0.543,0.636-0.893,1.175-0.788c0.542,0.107,0.894,0.634,0.788,1.175c-0.038,0.193-3.769,19.339-0.795,25.975     c0.227,0.504,0.001,1.096-0.503,1.321C126.694,302.938,126.555,302.966,126.418,302.966z"
   id="path81" />&#10;		</g>&#10;		<g
   id="g83">&#10;			<path
   d="M145.99,298.617c-0.34,0-0.671-0.173-0.858-0.485c-2.987-4.977-4.197-20.557-4.247-21.218     c-0.042-0.551,0.371-1.03,0.922-1.072c0.553-0.036,1.03,0.371,1.072,0.922c0.012,0.157,1.223,15.765,3.968,20.339     c0.284,0.474,0.131,1.088-0.343,1.372C146.342,298.572,146.164,298.617,145.99,298.617z"
   id="path82" />&#10;		</g>&#10;		<g
   id="g84">&#10;			<path
   d="M159.036,288.711c-0.336,0-0.664-0.169-0.853-0.476c-1.927-3.129-8.219-14.776-8.485-15.271     c-0.263-0.486-0.081-1.093,0.404-1.355c0.487-0.264,1.094-0.08,1.355,0.404c0.065,0.121,6.532,12.093,8.429,15.173     c0.289,0.471,0.143,1.086-0.327,1.376C159.396,288.663,159.215,288.711,159.036,288.711z"
   id="path83" />&#10;		</g>&#10;		<g
   id="g85">&#10;			<path
   d="M131.733,274.94c-0.396,0-0.773-0.237-0.929-0.629c-2.022-5.057,2.824-17.466,3.383-18.863     c0.205-0.515,0.787-0.763,1.3-0.558c0.513,0.205,0.763,0.787,0.558,1.3c-1.436,3.594-4.846,13.723-3.383,17.379     c0.205,0.513-0.045,1.095-0.558,1.3C131.983,274.917,131.857,274.94,131.733,274.94z"
   id="path84" />&#10;		</g>&#10;		<g
   id="g86">&#10;			<path
   d="M145.989,273.973c-0.278,0-0.555-0.115-0.753-0.342c-1.887-2.155-1.136-9.675-0.966-11.16     c0.061-0.549,0.552-0.955,1.107-0.88c0.549,0.063,0.942,0.558,0.88,1.106c-0.439,3.857-0.379,8.63,0.485,9.617     c0.363,0.415,0.321,1.047-0.095,1.411C146.457,273.892,146.223,273.973,145.989,273.973z"
   id="path85" />&#10;		</g>&#10;	</g>&#10;	<g
   id="g92">&#10;		<g
   id="g88">&#10;			<path
   d="M71.673,99.421c-4.597,0-8.182-1.314-9.459-3.503c-1.079-1.851-0.807-3.28-0.388-4.154     c0.408-0.853,1.112-1.517,1.909-2.03c-2.202-0.717-4.493-2.02-5.202-4.381c-1.087-3.626,2.928-6.861,5.338-8.429     c-1.889-1.795-3.688-4.671-3.239-7.404c0.267-1.628,1.444-3.773,5.54-4.749c5.85-1.397,15.692,5.138,21.221,12.11     c3.822,4.821,5.083,9.167,3.55,12.234l0,0c0,0.001,0,0,0,0c-3.638,7.275-12.225,10.092-18.472,10.293     C72.202,99.417,71.936,99.421,71.673,99.421z M67.912,67.076c-0.415,0-0.804,0.041-1.161,0.126     c-2.214,0.527-3.442,1.443-3.652,2.722c-0.347,2.115,1.919,5.021,3.631,6.091c0.379,0.236,0.602,0.658,0.586,1.105     c-0.017,0.446-0.271,0.851-0.666,1.06c-2.157,1.139-6.394,4.215-5.722,6.454c0.761,2.534,5.857,3.373,7.581,3.467     c0.64,0.035,1.149,0.548,1.181,1.188c0.031,0.64-0.427,1.199-1.06,1.297c-1.447,0.221-3.963,1.03-4.55,2.261     c-0.085,0.178-0.344,0.72,0.294,1.813c0.691,1.187,3.494,2.408,8.016,2.251c5.561-0.179,13.171-2.62,16.316-8.911l0,0     c1.06-2.119-0.134-5.604-3.272-9.563C80.414,72.104,72.509,67.076,67.912,67.076z"
   id="path87" />&#10;		</g>&#10;		<g
   id="g89">&#10;			<path
   d="M72.972,113.301c-9.807,0.001-17.203-3.332-19.309-5.203c-1.283-1.141-1.478-2.35-1.414-3.163     c0.106-1.365,0.993-2.534,1.815-3.339c-0.915-1.011-1.248-2.488-0.816-4.062c0.857-3.117,4.395-5.692,9.503-4.581     c0.675,0.146,1.102,0.813,0.956,1.487c-0.146,0.675-0.81,1.103-1.487,0.956c-4.008-0.87-6.12,1.196-6.56,2.8     c-0.108,0.392-0.36,1.7,0.894,2.119c0.456,0.151,0.785,0.553,0.845,1.03c0.06,0.477-0.159,0.946-0.564,1.207     c-0.65,0.422-2.02,1.61-2.093,2.578c-0.018,0.233,0.023,0.602,0.582,1.098c1.959,1.74,19.576,10.466,39.817-1.8     c11.847-7.181,16.082-17.063,13.732-32.04c-1.059-6.755-6.978-9.773-12.29-9.259c-4.753,0.459-10.189,4.056-9.87,12.683     c0.025,0.689-0.513,1.27-1.203,1.295c-0.689,0.049-1.27-0.513-1.295-1.203c-0.359-9.699,5.832-14.655,12.128-15.263     c6.317-0.619,13.714,3.164,15.001,11.36c2.494,15.904-2.242,26.888-14.908,34.565C88.089,111.626,79.925,113.301,72.972,113.301z     "
   id="path88" />&#10;		</g>&#10;		<g
   id="g90">&#10;			<path
   d="m 111.775,82.77 c -0.459,0 -0.9,-0.253 -1.119,-0.691 -0.309,-0.617 -0.059,-1.368 0.56,-1.677 L 111.19989,76.822815 109.857,71.636 c -0.61,-0.323 -0.843,-1.079 -0.52,-1.689 0.322,-0.61 1.079,-0.841 1.689,-0.52 l 11.322,5.994 c 0.414,0.219 0.67,0.65 0.665,1.119 -0.006,0.468 -0.272,0.894 -0.691,1.104 l -9.99,4.995 c -0.178,0.089 -0.37,0.131 -0.557,0.131 z"
   id="path89"
   style="fill:#000000;fill-opacity:1"
   sodipodi:nodetypes="scccccccccss" />&#10;		</g>&#10;		<g
   id="g91">&#10;			<path
   d="M105.396,74.456c-0.531-2.545-2.282-5.292-5.128-5.443c-1.362-0.072-2.705,0.689-3.587,1.683     c-0.47,0.529-0.795,1.145-1.044,1.803c-0.235,0.621-0.472,1.471-0.033,2.056c0.297,0.396,0.813,0.63,1.283,0.336     c0.526-0.328,0.659-0.85,0.891-1.296c0.102-0.197,0.219-0.381,0.343-0.565c0.029-0.043,0.035-0.055,0.04-0.065     c0.011-0.01,0.021-0.018,0.056-0.056c0.068-0.073,0.134-0.148,0.201-0.221c0.15-0.163,0.303-0.319,0.466-0.469     c0.032-0.029,0.052-0.049,0.066-0.063c0.018-0.011,0.038-0.024,0.071-0.046c0.109-0.073,0.219-0.143,0.334-0.207     c0.019-0.01,0.154-0.072,0.204-0.097c0.062-0.018,0.182-0.057,0.2-0.062c0.073-0.019,0.383-0.042,0.155-0.037     c0.106-0.003,0.208,0,0.313,0.002c0.024,0.003,0.052,0.008,0.084,0.015c0.114,0.027,0.223,0.069,0.335,0.1     c0.009,0.003,0.004,0,0.01,0.001c0.012,0.008,0.013,0.011,0.042,0.027c0.103,0.06,0.207,0.114,0.307,0.179     c0.047,0.03,0.296,0.257,0.106,0.072c0.071,0.07,0.15,0.132,0.222,0.202c0.086,0.084,0.16,0.181,0.246,0.263     c0.015,0.014,0.014,0.01,0.019,0.012c0.008,0.013,0.007,0.013,0.023,0.037c0.148,0.219,0.286,0.442,0.408,0.677     c0.05,0.097,0.093,0.2,0.144,0.297c0.012,0.023,0.013,0.022,0.016,0.025c0.005,0.015,0.008,0.025,0.023,0.066     c0.187,0.499,0.341,1.007,0.535,1.503c0.261,0.666,0.932,1.204,1.689,0.959C105.181,75.904,105.553,75.211,105.396,74.456z"
   id="path90" />&#10;		</g>&#10;	</g>&#10;	<g
   id="g97">&#10;		<g
   id="g93">&#10;			<path
   d="M379.64,368.31c-3.929,0-7.003-1.141-8.109-3.038c-0.949-1.628-0.705-2.896-0.333-3.673     c0.302-0.63,0.785-1.141,1.344-1.554c-1.774-0.643-3.54-1.754-4.116-3.676c-0.917-3.059,2.275-5.767,4.35-7.156     c-1.553-1.553-2.969-3.935-2.597-6.209c0.234-1.426,1.256-3.302,4.798-4.145c4.967-1.179,13.321,4.328,17.996,10.223     c3.258,4.108,4.323,7.829,3,10.476l0,0c-3.09,6.18-10.368,8.571-15.663,8.741C380.083,368.306,379.86,368.31,379.64,368.31z      M376.502,341.188c-0.339,0-0.655,0.033-0.947,0.102c-1.77,0.422-2.748,1.134-2.909,2.118c-0.277,1.692,1.563,4.034,2.951,4.902     c0.379,0.236,0.602,0.658,0.586,1.105c-0.017,0.446-0.271,0.851-0.666,1.06c-1.76,0.931-5.224,3.419-4.697,5.175     c0.603,2.013,4.764,2.686,6.174,2.764c0.64,0.035,1.15,0.549,1.181,1.189s-0.429,1.199-1.063,1.295     c-0.988,0.151-3.186,0.787-3.66,1.782c-0.059,0.125-0.242,0.507,0.239,1.331c0.568,0.975,3.008,1.893,6.538,1.788     c4.607-0.148,10.909-2.165,13.507-7.36l0,0c0.84-1.679-0.179-4.597-2.723-7.805C386.84,345.372,380.29,341.188,376.502,341.188z"
   id="path92" />&#10;		</g>&#10;		<g
   id="g94">&#10;			<path
   d="M380.738,379.94c-8.293,0-14.555-2.823-16.337-4.407c-1.138-1.012-1.31-2.091-1.253-2.818     c0.088-1.128,0.774-2.098,1.448-2.791c-0.718-0.889-0.965-2.133-0.604-3.45c0.743-2.705,3.797-4.944,8.205-3.986     c0.675,0.146,1.103,0.813,0.956,1.487c-0.146,0.674-0.81,1.106-1.487,0.956c-3.227-0.702-4.915,0.934-5.263,2.204     c-0.101,0.365-0.24,1.244,0.619,1.531c0.456,0.151,0.785,0.553,0.845,1.029c0.06,0.478-0.159,0.947-0.564,1.208     c-0.64,0.416-1.613,1.345-1.663,2.008c-0.007,0.097-0.026,0.355,0.421,0.753c1.628,1.445,16.278,8.693,33.146-1.531     c9.853-5.971,13.375-14.192,11.419-26.659c-0.869-5.54-5.721-8.009-10.085-7.593c-3.897,0.377-8.355,3.333-8.093,10.426     c0.025,0.69-0.513,1.27-1.203,1.295c-0.678,0.058-1.27-0.513-1.295-1.203c-0.307-8.264,4.978-12.486,10.351-13.006     c5.379-0.511,11.698,2.699,12.796,9.694c2.105,13.428-1.897,22.701-12.595,29.185C393.477,378.529,386.599,379.94,380.738,379.94     z"
   id="path93" />&#10;		</g>&#10;		<g
   id="g95">&#10;			<path
   d="m 413.257,354.348 c -0.459,0 -0.9,-0.253 -1.119,-0.691 -0.309,-0.617 -0.059,-1.368 0.56,-1.677 l -0.008,-2.93709 -1.13548,-4.05491 c -0.61,-0.322 -0.843,-1.079 -0.52,-1.689 0.322,-0.61 1.079,-0.841 1.689,-0.52 l 9.493,5.025 c 0.414,0.219 0.67,0.65 0.665,1.119 -0.006,0.468 -0.272,0.893 -0.691,1.103 l -8.377,4.189 c -0.178,0.091 -0.369,0.133 -0.557,0.133 z"
   id="path94"
   sodipodi:nodetypes="sccccccccccs" />&#10;		</g>&#10;		<g
   id="g96">&#10;			<path
   d="M407.909,347.175c-0.445-2.134-1.913-4.437-4.299-4.564c-1.142-0.06-2.268,0.578-3.007,1.411     c-0.394,0.444-0.666,0.96-0.875,1.512c-0.197,0.52-0.395,1.233-0.027,1.724c0.249,0.332,0.682,0.528,1.076,0.282     c0.441-0.275,0.553-0.713,0.747-1.086c0.086-0.165,0.184-0.32,0.287-0.474c0.024-0.036,0.029-0.046,0.033-0.055     c0.009-0.008,0.017-0.015,0.047-0.047c0.057-0.061,0.112-0.124,0.169-0.186c0.126-0.137,0.254-0.267,0.391-0.393     c0.027-0.025,0.044-0.041,0.055-0.053c0.015-0.009,0.032-0.02,0.06-0.038c0.091-0.061,0.184-0.12,0.28-0.173     c0.016-0.009,0.129-0.06,0.171-0.081c0.052-0.015,0.153-0.048,0.168-0.052c0.061-0.016,0.321-0.036,0.13-0.031     c0.089-0.002,0.174,0,0.262,0.002c0.02,0.003,0.044,0.006,0.07,0.012c0.096,0.022,0.187,0.058,0.281,0.084     c0.008,0.002,0.004,0,0.009,0.001c0.01,0.007,0.011,0.009,0.035,0.023c0.087,0.05,0.174,0.096,0.258,0.151     c0.039,0.025,0.249,0.216,0.089,0.06c0.06,0.059,0.126,0.111,0.186,0.17c0.072,0.07,0.134,0.152,0.207,0.22     c0.013,0.012,0.011,0.008,0.016,0.01c0.007,0.01,0.006,0.011,0.019,0.031c0.124,0.183,0.24,0.37,0.342,0.567     c0.042,0.082,0.078,0.167,0.12,0.249c0.01,0.019,0.011,0.019,0.013,0.021c0.004,0.013,0.007,0.021,0.02,0.055     c0.157,0.418,0.286,0.844,0.449,1.26c0.219,0.559,0.782,1.009,1.416,0.804C407.73,348.389,408.041,347.808,407.909,347.175z"
   id="path95" />&#10;		</g>&#10;	</g>&#10;</g>&#10;</svg>
