<?xml version="1.0" encoding="UTF-8" standalone="no"?>
<!-- Created with Inkscape (http://www.inkscape.org/) -->

<svg
   width="82.603996mm"
   height="45.028999mm"
   viewBox="0 0 82.603997 45.028999"
   version="1.1"
   id="svg1"
   inkscape:version="1.3 (0e150ed6c4, 2023-07-21)"
   sodipodi:docname="bulldozer.svg"
   xmlns:inkscape="http://www.inkscape.org/namespaces/inkscape"
   xmlns:sodipodi="http://sodipodi.sourceforge.net/DTD/sodipodi-0.dtd"
   xmlns="http://www.w3.org/2000/svg"
   xmlns:svg="http://www.w3.org/2000/svg">
  <sodipodi:namedview
     id="namedview1"
     pagecolor="#ffffff"
     bordercolor="#000000"
     borderopacity="0.25"
     inkscape:showpageshadow="2"
     inkscape:pageopacity="0.0"
     inkscape:pagecheckerboard="0"
     inkscape:deskcolor="#d1d1d1"
     inkscape:document-units="mm"
     inkscape:zoom="2.8649133"
     inkscape:cx="101.39923"
     inkscape:cy="97.210622"
     inkscape:window-width="2560"
     inkscape:window-height="1351"
     inkscape:window-x="1191"
     inkscape:window-y="187"
     inkscape:window-maximized="1"
     inkscape:current-layer="layer1" />
  <defs
     id="defs1" />
  <g
     inkscape:label="Layer 1"
     inkscape:groupmode="layer"
     id="layer1"
     transform="translate(-27.252073,-70.643748)">
    <g
       id="g52"
       transform="matrix(0.26458333,0,0,0.26458333,-107.78634,-46.324667)"
       style="stroke:#000000;stroke-opacity:1;stroke-width:1.00157481;stroke-dasharray:none">
      <g
         id="g4"
         style="stroke:#000000;stroke-opacity:1;stroke-width:1.00157481;stroke-dasharray:none">
        <path
           style="fill:#ffffff;stroke:#000000;stroke-width:1.00157481;stroke-miterlimit:10;stroke-opacity:1;stroke-dasharray:none"
           d="m 654.736,470.44 v -9.284 c 0,-0.813 0.866,-1.33 1.582,-0.947 l 3.327,1.785 c 0.971,0.521 1.581,1.542 1.581,2.644 v 7.228 z"
           id="path1" />
        <path
           style="fill:#ffffff;stroke:#000000;stroke-width:1.00157481;stroke-miterlimit:10;stroke-opacity:1;stroke-dasharray:none"
           d="m 673.221,508.424 h 7.029 v -3.525 c 0,-1.941 -1.574,-3.515 -3.513,-3.515 -1.941,0 -3.517,1.573 -3.517,3.515 v 3.525 z"
           id="path2" />
        <path
           style="fill:#ffffff;stroke:#000000;stroke-width:1.00157481;stroke-miterlimit:10;stroke-opacity:1;stroke-dasharray:none"
           d="m 658.234,471.875 c -1.941,0.019 -3.517,1.574 -3.517,3.515 0,25.81 0,18.279 0,40.942 h 7.029 c 0,-22.672 -0.256,-12.755 -0.256,-38.557 0.211,-1.055 -2.32,-5.91 -3.256,-5.9 z"
           id="path3" />
        <path
           style="fill:#ffffff;stroke:#000000;stroke-width:1.00157481;stroke-miterlimit:10;stroke-opacity:1;stroke-dasharray:none"
           d="m 650.986,473.49 c 0,-2.063 1.674,-3.734 3.736,-3.734 h 7.024 c 2.063,0 3.734,1.672 3.734,3.734 v 26.354 c 0,2.063 -1.672,3.734 -3.734,3.734 h -7.024 c -2.063,0 -3.736,-1.672 -3.736,-3.734 z"
           id="path4" />
      </g>
      <path
         style="fill:#ffffff;stroke:#000000;stroke-width:1.00157481;stroke-miterlimit:10;stroke-opacity:1;stroke-dasharray:none"
         d="m 597.636,533.097 c 0,-2.063 1.674,-3.734 3.738,-3.734 h 0.201 v 19.861 h -0.201 c -2.064,0 -3.738,-1.673 -3.738,-3.734 z"
         id="path5" />
      <path
         style="fill:#ffffff;stroke:#000000;stroke-width:1.00157481;stroke-miterlimit:10;stroke-opacity:1;stroke-dasharray:none"
         d="m 597.636,517.776 c 0,-2.063 1.674,-3.734 3.738,-3.734 h 0.201 v 10.474 h -0.201 c -2.064,0 -3.738,-1.673 -3.738,-3.735 z"
         id="path6" />
      <g
         id="g8"
         style="stroke:#000000;stroke-opacity:1;stroke-width:1.00157481;stroke-dasharray:none">
        <path
           style="fill:#ffffff;stroke:#000000;stroke-width:1.00157481;stroke-miterlimit:10;stroke-opacity:1;stroke-dasharray:none"
           d="m 566.926,547.846 c -1.032,-0.489 -1.474,-1.721 -0.986,-2.751 0.487,-1.031 1.718,-1.474 2.751,-0.984 l 12.359,5.74 -1.764,3.734 z"
           id="path7" />
        <path
           style="fill:#ffffff;stroke:#000000;stroke-width:1.00157481;stroke-miterlimit:10;stroke-opacity:1;stroke-dasharray:none"
           d="m 579.327,555.727 c -1.211,-0.574 -1.731,-2.023 -1.157,-3.236 l 1.329,-2.811 c 0.572,-1.211 2.021,-1.731 3.233,-1.157 l 25.752,12.17 c 1.213,0.573 1.731,2.019 1.159,3.234 l -1.327,2.811 c -0.575,1.214 -2.022,1.729 -3.234,1.159 z"
           id="path8" />
      </g>
      <rect
         x="743.29602"
         y="514.47302"
         style="fill:#ffffff;stroke:#000000;stroke-width:1.00157481;stroke-miterlimit:10;stroke-opacity:1;stroke-dasharray:none"
         width="31.627001"
         height="43.487999"
         id="rect8" />
      <path
         style="fill:#ffffff;stroke:#000000;stroke-width:1.00157481;stroke-miterlimit:10;stroke-opacity:1;stroke-dasharray:none"
         d="m 757.353,542.586 h 34.041 c 2.061,0 3.735,-1.673 3.735,-3.734 v -30.308 c 0,-2.064 -1.674,-3.736 -3.735,-3.736 h -34.041 z"
         id="path9" />
      <path
         style="fill:#ffffff;stroke:#000000;stroke-width:1.00157481;stroke-miterlimit:10;stroke-opacity:1;stroke-dasharray:none"
         d="m 601.509,511.926 c 0,-2.062 1.674,-3.734 3.736,-3.734 h 109.697 v 49.769 H 601.509 Z"
         id="path10" />
      <path
         style="fill:#ffffff;stroke:#000000;stroke-width:1.00157481;stroke-miterlimit:10;stroke-opacity:1;stroke-dasharray:none"
         d="m 688.867,557.961 h 16.335 54.446 v -87.782 c 0,-2.064 -1.673,-3.736 -3.735,-3.736 h -42.438 c -2.286,0 -4.387,1.299 -5.406,3.342 l -19.202,38.407 v -0.006 z"
         id="path11" />
      <path
         style="fill:#ffffff;stroke:#000000;stroke-width:1.00157481;stroke-miterlimit:10;stroke-opacity:1;stroke-dasharray:none"
         d="m 697.555,539.019 c 0,2.063 1.673,3.734 3.735,3.734 h 47.06 c 2.065,0 3.737,-1.672 3.737,-3.734 V 478.61 c 0,-2.064 -1.673,-3.736 -3.737,-3.736 h -31.245 c -2.277,0 -4.367,1.316 -5.351,3.37 l -14.199,29.639 z"
         id="path12" />
      <path
         style="fill:#ffffff;stroke:#000000;stroke-width:1.00157481;stroke-miterlimit:10;stroke-opacity:1;stroke-dasharray:none"
         d="m 762.369,512.134 c 0,-1.895 1.535,-3.429 3.427,-3.429 h 22.916 c 1.894,0 3.428,1.534 3.428,3.429 v 8.882 c 0,1.892 -1.534,3.428 -3.428,3.428 h -22.916 c -1.892,0 -3.427,-1.536 -3.427,-3.428 z"
         id="path13" />
      <path
         style="fill:#ffffff;stroke:#000000;stroke-width:1.00157481;stroke-miterlimit:10;stroke-opacity:1;stroke-dasharray:none"
         d="m 706.695,504.777 c -0.713,1.607 0.461,3.414 2.22,3.414 h 34.749 c 2.063,0 3.735,-1.673 3.735,-3.734 v -22.222 c 0,-2.064 -1.672,-3.736 -3.735,-3.736 h -21.571 c -2.264,0 -4.332,1.344 -5.251,3.414 z"
         id="path14" />
      <path
         style="fill:#ffffff;stroke:#000000;stroke-width:1.00157481;stroke-miterlimit:10;stroke-opacity:1;stroke-dasharray:none"
         d="m 747.532,516.198 c 0,1.17 -0.949,2.119 -2.119,2.119 h -4.233 c -1.171,0 -2.118,-0.949 -2.118,-2.119 0,-1.168 0.947,-2.116 2.118,-2.116 h 4.233 c 1.17,0 2.119,0.948 2.119,2.116 z"
         id="path15" />
      <path
         style="fill:#ffffff;stroke:#000000;stroke-width:1.00157481;stroke-miterlimit:10;stroke-opacity:1;stroke-dasharray:none"
         d="m 568.951,532.351 c -1.726,-0.316 -2.866,-1.971 -2.551,-3.697 0.315,-1.724 1.972,-2.867 3.696,-2.55 l 60.6,10.737 -1.143,6.248 z"
         id="path16" />
      <path
         style="fill:#ffffff;stroke:#000000;stroke-width:1.00157481;stroke-miterlimit:10;stroke-opacity:1;stroke-dasharray:none"
         d="m 596.888,540.889 c -2.039,-0.305 -3.445,-2.206 -3.143,-4.247 l 0.707,-4.727 c 0.306,-2.041 2.205,-3.447 4.246,-3.142 l 43.32,6.475 c 2.04,0.306 3.446,2.205 3.141,4.247 l -0.705,4.727 c -0.303,2.038 -2.205,3.447 -4.246,3.142 z"
         id="path17" />
      <path
         style="fill:#ffffff;stroke:#000000;stroke-width:1.00157481;stroke-miterlimit:10;stroke-opacity:1;stroke-dasharray:none"
         d="m 568.919,556.26 v 0 l 12.85,-42.983 c 0.591,-1.976 -0.533,-4.058 -2.509,-4.649 l -6.065,-1.813 c -1.977,-0.592 -4.059,0.532 -4.65,2.511 l -15.733,52.626 c -0.32,1.072 -0.836,2.065 -1.512,2.937 -1.518,1.961 -12.443,15.494 -12.443,15.494 -2.533,3.678 -0.082,7.436 4.368,5.428 l 16.974,-9.475 c 2.087,-1.164 3.648,-3.109 4.331,-5.398 l 0.748,-2.498 z"
         id="path18" />
      <g
         id="g37"
         style="stroke:#000000;stroke-opacity:1;stroke-width:1.00157481;stroke-dasharray:none">
        <path
           style="fill:#ffffff;stroke:#000000;stroke-width:1.00157481;stroke-miterlimit:10;stroke-opacity:1;stroke-dasharray:none"
           d="m 772.898,563.535 c 6.006,0 10.892,4.886 10.892,10.891 0,6.005 -4.886,10.889 -10.892,10.889 H 601.386 c -6.005,0 -10.889,-4.884 -10.889,-10.889 0,-6.005 4.884,-10.891 10.889,-10.891 h 171.512"
           id="path19" />
        <g
           id="g21"
           style="stroke:#000000;stroke-opacity:1;stroke-width:1.00157481;stroke-dasharray:none">
          <path
             style="fill:#ffffff;stroke:#000000;stroke-width:1.00157481;stroke-miterlimit:10;stroke-opacity:1;stroke-dasharray:none"
             d="m 788.099,574.426 c 0,7.566 -6.135,13.702 -13.703,13.702 -7.569,0 -13.703,-6.136 -13.703,-13.702 0,-7.568 6.134,-13.703 13.703,-13.703 7.568,0 13.703,6.134 13.703,13.703 z"
             id="path20" />
          <path
             style="fill:#ffffff;stroke:#000000;stroke-width:1.00157481;stroke-miterlimit:10;stroke-opacity:1;stroke-dasharray:none"
             d="m 783.685,574.426 c 0,5.13 -4.16,9.289 -9.289,9.289 -5.131,0 -9.29,-4.159 -9.29,-9.289 0,-5.131 4.159,-9.29 9.29,-9.29 5.128,0 9.289,4.159 9.289,9.29 z"
             id="path21" />
          <circle
             style="fill:#ffffff;stroke:#000000;stroke-width:1.00157481;stroke-miterlimit:10;stroke-opacity:1;stroke-dasharray:none"
             cx="774.396"
             cy="574.42603"
             r="4.3260002"
             id="circle21" />
        </g>
        <g
           id="g24"
           style="stroke:#000000;stroke-opacity:1;stroke-width:1.00157481;stroke-dasharray:none">
          <path
             style="fill:#ffffff;stroke:#000000;stroke-width:1.00157481;stroke-miterlimit:10;stroke-opacity:1;stroke-dasharray:none"
             d="m 613.309,574.426 c 0,7.566 -6.134,13.702 -13.702,13.702 -7.566,0 -13.703,-6.136 -13.703,-13.702 0,-7.568 6.137,-13.703 13.703,-13.703 7.568,0 13.702,6.134 13.702,13.703 z"
             id="path22" />
          <path
             style="fill:#ffffff;stroke:#000000;stroke-width:1.00157481;stroke-miterlimit:10;stroke-opacity:1;stroke-dasharray:none"
             d="m 608.896,574.426 c 0,5.13 -4.159,9.289 -9.289,9.289 -5.13,0 -9.29,-4.159 -9.29,-9.289 0,-5.131 4.16,-9.29 9.29,-9.29 5.129,0 9.289,4.159 9.289,9.29 z"
             id="path23" />
          <path
             style="fill:#ffffff;stroke:#000000;stroke-width:1.00157481;stroke-miterlimit:10;stroke-opacity:1;stroke-dasharray:none"
             d="m 603.933,574.426 c 0,2.39 -1.936,4.326 -4.326,4.326 -2.389,0 -4.326,-1.937 -4.326,-4.326 0,-2.39 1.938,-4.326 4.326,-4.326 2.39,0 4.326,1.936 4.326,4.326 z"
             id="path24" />
        </g>
        <g
           id="g27"
           style="stroke:#000000;stroke-opacity:1;stroke-width:1.00157481;stroke-dasharray:none">
          <path
             style="fill:#ffffff;stroke:#000000;stroke-width:1.00157481;stroke-miterlimit:10;stroke-opacity:1;stroke-dasharray:none"
             d="m 648.956,574.426 c 0,7.566 -6.133,13.702 -13.702,13.702 -7.567,0 -13.703,-6.136 -13.703,-13.702 0,-7.568 6.136,-13.703 13.703,-13.703 7.569,0 13.702,6.134 13.702,13.703 z"
             id="path25" />
          <path
             style="fill:#ffffff;stroke:#000000;stroke-width:1.00157481;stroke-miterlimit:10;stroke-opacity:1;stroke-dasharray:none"
             d="m 644.543,574.426 c 0,5.13 -4.159,9.289 -9.289,9.289 -5.13,0 -9.291,-4.159 -9.291,-9.289 0,-5.131 4.161,-9.29 9.291,-9.29 5.13,0 9.289,4.159 9.289,9.29 z"
             id="path26" />
          <path
             style="fill:#ffffff;stroke:#000000;stroke-width:1.00157481;stroke-miterlimit:10;stroke-opacity:1;stroke-dasharray:none"
             d="m 639.579,574.426 c 0,2.39 -1.935,4.326 -4.325,4.326 -2.39,0 -4.326,-1.937 -4.326,-4.326 0,-2.39 1.937,-4.326 4.326,-4.326 2.39,0 4.325,1.936 4.325,4.326 z"
             id="path27" />
        </g>
        <g
           id="g30"
           style="stroke:#000000;stroke-opacity:1;stroke-width:1.00157481;stroke-dasharray:none">
          <path
             style="fill:#ffffff;stroke:#000000;stroke-width:1.00157481;stroke-miterlimit:10;stroke-opacity:1;stroke-dasharray:none"
             d="m 683.741,574.426 c 0,7.566 -6.133,13.702 -13.7,13.702 -7.569,0 -13.704,-6.136 -13.704,-13.702 0,-7.568 6.135,-13.703 13.704,-13.703 7.567,0 13.7,6.134 13.7,13.703 z"
             id="path28" />
          <path
             style="fill:#ffffff;stroke:#000000;stroke-width:1.00157481;stroke-miterlimit:10;stroke-opacity:1;stroke-dasharray:none"
             d="m 679.329,574.426 c 0,5.13 -4.159,9.289 -9.288,9.289 -5.132,0 -9.292,-4.159 -9.292,-9.289 0,-5.131 4.16,-9.29 9.292,-9.29 5.129,0 9.288,4.159 9.288,9.29 z"
             id="path29" />
          <path
             style="fill:#ffffff;stroke:#000000;stroke-width:1.00157481;stroke-miterlimit:10;stroke-opacity:1;stroke-dasharray:none"
             d="m 674.365,574.426 c 0,2.39 -1.937,4.326 -4.324,4.326 -2.39,0 -4.328,-1.937 -4.328,-4.326 0,-2.39 1.939,-4.326 4.328,-4.326 2.388,0 4.324,1.936 4.324,4.326 z"
             id="path30" />
        </g>
        <g
           id="g33"
           style="stroke:#000000;stroke-opacity:1;stroke-width:1.00157481;stroke-dasharray:none">
          <path
             style="fill:#ffffff;stroke:#000000;stroke-width:1.00157481;stroke-miterlimit:10;stroke-opacity:1;stroke-dasharray:none"
             d="m 718.527,574.426 c 0,7.566 -6.134,13.702 -13.701,13.702 -7.568,0 -13.704,-6.136 -13.704,-13.702 0,-7.568 6.136,-13.703 13.704,-13.703 7.568,0 13.701,6.134 13.701,13.703 z"
             id="path31" />
          <path
             style="fill:#ffffff;stroke:#000000;stroke-width:1.00157481;stroke-miterlimit:10;stroke-opacity:1;stroke-dasharray:none"
             d="m 714.114,574.426 c 0,5.13 -4.16,9.289 -9.288,9.289 -5.132,0 -9.292,-4.159 -9.292,-9.289 0,-5.131 4.16,-9.29 9.292,-9.29 5.128,0 9.288,4.159 9.288,9.29 z"
             id="path32" />
          <path
             style="fill:#ffffff;stroke:#000000;stroke-width:1.00157481;stroke-miterlimit:10;stroke-opacity:1;stroke-dasharray:none"
             d="m 709.152,574.426 c 0,2.39 -1.938,4.326 -4.326,4.326 -2.39,0 -4.328,-1.937 -4.328,-4.326 0,-2.39 1.938,-4.326 4.328,-4.326 2.388,0 4.326,1.936 4.326,4.326 z"
             id="path33" />
        </g>
        <g
           id="g36"
           style="stroke:#000000;stroke-opacity:1;stroke-width:1.00157481;stroke-dasharray:none">
          <path
             style="fill:#ffffff;stroke:#000000;stroke-width:1.00157481;stroke-miterlimit:10;stroke-opacity:1;stroke-dasharray:none"
             d="m 753.313,574.426 c 0,7.566 -6.133,13.702 -13.702,13.702 -7.568,0 -13.703,-6.136 -13.703,-13.702 0,-7.568 6.135,-13.703 13.703,-13.703 7.57,0 13.702,6.134 13.702,13.703 z"
             id="path34" />
          <path
             style="fill:#ffffff;stroke:#000000;stroke-width:1.00157481;stroke-miterlimit:10;stroke-opacity:1;stroke-dasharray:none"
             d="m 748.899,574.426 c 0,5.13 -4.158,9.289 -9.288,9.289 -5.13,0 -9.29,-4.159 -9.29,-9.289 0,-5.131 4.16,-9.29 9.29,-9.29 5.13,0 9.288,4.159 9.288,9.29 z"
             id="path35" />
          <path
             style="fill:#ffffff;stroke:#000000;stroke-width:1.00157481;stroke-miterlimit:10;stroke-opacity:1;stroke-dasharray:none"
             d="m 743.938,574.426 c 0,2.39 -1.938,4.326 -4.326,4.326 -2.39,0 -4.326,-1.937 -4.326,-4.326 0,-2.39 1.936,-4.326 4.326,-4.326 2.388,0 4.326,1.936 4.326,4.326 z"
             id="path36" />
        </g>
        <path
           style="fill:#ffffff;stroke:#000000;stroke-width:1.00157481;stroke-miterlimit:10;stroke-opacity:1;stroke-dasharray:none"
           d="m 790.863,572.277 h -0.86 c -0.353,-2.824 -1.384,-5.433 -2.93,-7.663 l 0.684,-0.604 c 0.697,-0.617 0.768,-1.688 0.146,-2.387 -0.618,-0.697 -1.686,-0.766 -2.386,-0.147 l -0.634,0.562 c -1.748,-1.691 -3.851,-3.017 -6.188,-3.852 l 0.209,-0.803 c 0.234,-0.903 -0.31,-1.826 -1.215,-2.06 -0.901,-0.234 -1.824,0.309 -2.059,1.213 l -0.216,0.833 c -0.822,-0.12 -1.661,-0.185 -2.518,-0.185 h -5.594 v -0.898 c 0,-0.934 -0.756,-1.689 -1.691,-1.689 -0.934,0 -1.689,0.756 -1.689,1.689 v 0.898 h -8.805 v -0.898 c 0,-0.934 -0.756,-1.689 -1.69,-1.689 -0.933,0 -1.689,0.756 -1.689,1.689 v 0.898 h -8.804 v -0.898 c 0,-0.934 -0.757,-1.689 -1.69,-1.689 -0.935,0 -1.691,0.756 -1.691,1.689 v 0.898 h -8.803 v -0.898 c 0,-0.934 -0.757,-1.689 -1.69,-1.689 -0.935,0 -1.69,0.756 -1.69,1.689 v 0.898 h -8.803 v -0.898 c 0,-0.934 -0.758,-1.689 -1.691,-1.689 -0.935,0 -1.69,0.756 -1.69,1.689 v 0.898 h -8.805 v -0.898 c 0,-0.934 -0.755,-1.689 -1.689,-1.689 -0.935,0 -1.691,0.756 -1.691,1.689 v 0.898 h -8.803 v -0.898 c 0,-0.934 -0.759,-1.689 -1.69,-1.689 -0.936,0 -1.693,0.756 -1.693,1.689 v 0.898 h -8.803 v -0.898 c 0,-0.934 -0.757,-1.689 -1.689,-1.689 -0.933,0 -1.691,0.756 -1.691,1.689 v 0.898 h -8.803 v -0.898 c 0,-0.934 -0.757,-1.689 -1.691,-1.689 -0.933,0 -1.689,0.756 -1.689,1.689 v 0.898 h -8.805 v -0.898 c 0,-0.934 -0.757,-1.689 -1.691,-1.689 -0.931,0 -1.69,0.756 -1.69,1.689 v 0.898 h -8.804 v -0.898 c 0,-0.934 -0.757,-1.689 -1.689,-1.689 -0.935,0 -1.69,0.756 -1.69,1.689 v 0.898 h -8.806 v -0.898 c 0,-0.934 -0.756,-1.689 -1.69,-1.689 -0.934,0 -1.69,0.756 -1.69,1.689 v 0.898 h -8.804 v -0.898 c 0,-0.934 -0.756,-1.689 -1.69,-1.689 -0.934,0 -1.691,0.756 -1.691,1.689 v 0.898 h -8.804 v -0.898 c 0,-0.934 -0.756,-1.689 -1.689,-1.689 -0.933,0 -1.69,0.756 -1.69,1.689 v 0.898 h -4.14 c -0.884,0 -1.751,0.066 -2.599,0.195 l -0.218,-0.844 c -0.235,-0.904 -1.158,-1.447 -2.061,-1.213 -0.904,0.234 -1.447,1.157 -1.213,2.06 l 0.215,0.828 c -2.324,0.842 -4.414,2.173 -6.149,3.864 l -0.679,-0.6 c -0.699,-0.618 -1.768,-0.55 -2.387,0.147 -0.618,0.699 -0.551,1.77 0.146,2.387 l 0.687,0.606 0.41,-0.465 c -1.776,2.391 -2.947,5.258 -3.288,8.375 v -0.249 h -0.916 c -0.934,-0.002 -1.69,0.755 -1.69,1.689 0,0.936 0.758,1.689 1.69,1.689 h 0.857 c 0.202,2.86 1.099,5.527 2.527,7.834 l -0.728,0.528 c -0.755,0.549 -0.922,1.605 -0.374,2.361 0.55,0.756 1.607,0.923 2.361,0.376 l 0.739,-0.538 -0.394,-0.543 c 1.916,2.224 4.388,3.955 7.204,4.972 l -0.192,0.592 c -0.291,0.89 0.197,1.844 1.084,2.132 0.888,0.289 1.843,-0.198 2.131,-1.086 l 0.263,-0.806 c 0.839,0.124 1.697,0.191 2.571,0.191 h 4.138 v 0.909 c 0,0.935 0.759,1.691 1.691,1.691 0.933,0 1.69,-0.757 1.69,-1.691 v -0.909 h 8.803 v 0.909 c 0,0.935 0.757,1.691 1.69,1.691 0.935,0 1.691,-0.757 1.691,-1.691 v -0.909 h 8.804 v 0.909 c 0,0.935 0.756,1.691 1.689,1.691 0.935,0 1.69,-0.757 1.69,-1.691 v -0.909 h 8.806 v 0.909 c 0,0.935 0.755,1.691 1.69,1.691 0.934,0 1.69,-0.757 1.69,-1.691 v -0.909 h 8.802 v 0.909 c 0,0.935 0.759,1.691 1.691,1.691 0.934,0 1.691,-0.757 1.691,-1.691 v -0.909 h 8.803 v 0.909 c 0,0.935 0.759,1.691 1.691,1.691 0.932,0 1.69,-0.757 1.69,-1.691 v -0.909 h 8.805 v 0.909 c 0,0.935 0.755,1.691 1.689,1.691 0.934,0 1.691,-0.757 1.691,-1.691 v -0.909 h 8.803 v 0.909 c 0,0.935 0.756,1.691 1.689,1.691 0.935,0 1.691,-0.757 1.691,-1.691 v -0.909 h 8.803 v 0.909 c 0,0.935 0.759,1.691 1.691,1.691 0.934,0 1.69,-0.757 1.69,-1.691 v -0.909 h 8.804 v 0.909 c 0,0.935 0.757,1.691 1.691,1.691 0.932,0 1.691,-0.757 1.691,-1.691 v -0.909 h 8.801 v 0.909 c 0,0.935 0.756,1.691 1.691,1.691 0.934,0 1.691,-0.757 1.691,-1.691 v -0.909 h 8.803 v 0.909 c 0,0.935 0.757,1.691 1.69,1.691 0.933,0 1.691,-0.757 1.691,-1.691 v -0.909 h 8.802 v 0.909 c 0,0.935 0.759,1.691 1.691,1.691 0.932,0 1.69,-0.757 1.69,-1.691 v -0.909 h 8.804 v 0.909 c 0,0.935 0.757,1.691 1.69,1.691 0.933,0 1.69,-0.757 1.69,-1.691 v -0.909 h 5.595 c 0.846,0 1.679,-0.064 2.492,-0.183 l 0.259,0.797 c 0.288,0.888 1.242,1.375 2.131,1.086 0.888,-0.288 1.373,-1.242 1.085,-2.132 l -0.185,-0.565 c 2.628,-0.936 4.961,-2.491 6.825,-4.49 l -0.024,0.035 0.74,0.538 c 0.755,0.547 1.812,0.38 2.361,-0.376 0.547,-0.756 0.381,-1.813 -0.374,-2.361 l -0.671,-0.485 c 1.444,-2.316 2.352,-4.999 2.554,-7.877 h 0.772 c 0.935,0 1.691,-0.754 1.691,-1.689 0.009,-0.932 -0.748,-1.689 -1.683,-1.687 z m -17.965,13.038 H 601.386 c -6.005,0 -10.889,-4.884 -10.889,-10.889 0,-6.005 4.884,-10.891 10.889,-10.891 h 171.512 c 6.006,0 10.892,4.886 10.892,10.891 -10e-4,6.005 -4.887,10.889 -10.892,10.889 z"
           id="path37" />
      </g>
      <g
         id="g39"
         style="stroke:#000000;stroke-opacity:1;stroke-width:1.00157481;stroke-dasharray:none">
        <line
           style="fill:#ffffff;stroke:#000000;stroke-width:1.00157481;stroke-linecap:round;stroke-miterlimit:10;stroke-opacity:1;stroke-dasharray:none"
           x1="766.00897"
           y1="512.28101"
           x2="788.16901"
           y2="512.28101"
           id="line37" />
        <line
           style="fill:#ffffff;stroke:#000000;stroke-width:1.00157481;stroke-linecap:round;stroke-miterlimit:10;stroke-opacity:1;stroke-dasharray:none"
           x1="766.00897"
           y1="516.71399"
           x2="788.16901"
           y2="516.71399"
           id="line38" />
        <line
           style="fill:#ffffff;stroke:#000000;stroke-width:1.00157481;stroke-linecap:round;stroke-miterlimit:10;stroke-opacity:1;stroke-dasharray:none"
           x1="766.00897"
           y1="520.93402"
           x2="788.16901"
           y2="520.93402"
           id="line39" />
      </g>
      <g
         id="g51"
         style="stroke:#000000;stroke-opacity:1;stroke-width:1.00157481;stroke-dasharray:none">
        <path
           style="fill:#ffffff;stroke:#000000;stroke-width:1.00157481;stroke-miterlimit:10;stroke-opacity:1;stroke-dasharray:none"
           d="m 607.24,516.545 c 0,-1.562 1.267,-2.827 2.827,-2.827 h 70.318 c 1.562,0 2.828,1.266 2.828,2.827 v 7.811 c 0,1.56 -1.267,2.828 -2.828,2.828 h -70.318 c -1.56,0 -2.827,-1.268 -2.827,-2.828 z"
           id="path39" />
        <g
           id="g50"
           style="stroke:#000000;stroke-opacity:1;stroke-width:1.00157481;stroke-dasharray:none">
          <line
             style="fill:#ffffff;stroke:#000000;stroke-width:1.00157481;stroke-linecap:round;stroke-miterlimit:10;stroke-opacity:1;stroke-dasharray:none"
             x1="613.57001"
             y1="524.039"
             x2="613.57001"
             y2="516.862"
             id="line40" />
          <line
             style="fill:#ffffff;stroke:#000000;stroke-width:1.00157481;stroke-linecap:round;stroke-miterlimit:10;stroke-opacity:1;stroke-dasharray:none"
             x1="619.901"
             y1="524.039"
             x2="619.901"
             y2="516.862"
             id="line41" />
          <line
             style="fill:#ffffff;stroke:#000000;stroke-width:1.00157481;stroke-linecap:round;stroke-miterlimit:10;stroke-opacity:1;stroke-dasharray:none"
             x1="626.23297"
             y1="524.039"
             x2="626.23297"
             y2="516.862"
             id="line42" />
          <line
             style="fill:#ffffff;stroke:#000000;stroke-width:1.00157481;stroke-linecap:round;stroke-miterlimit:10;stroke-opacity:1;stroke-dasharray:none"
             x1="632.56299"
             y1="524.039"
             x2="632.56299"
             y2="516.862"
             id="line43" />
          <line
             style="fill:#ffffff;stroke:#000000;stroke-width:1.00157481;stroke-linecap:round;stroke-miterlimit:10;stroke-opacity:1;stroke-dasharray:none"
             x1="638.896"
             y1="524.039"
             x2="638.896"
             y2="516.862"
             id="line44" />
          <line
             style="fill:#ffffff;stroke:#000000;stroke-width:1.00157481;stroke-linecap:round;stroke-miterlimit:10;stroke-opacity:1;stroke-dasharray:none"
             x1="645.22699"
             y1="524.039"
             x2="645.22699"
             y2="516.862"
             id="line45" />
          <line
             style="fill:#ffffff;stroke:#000000;stroke-width:1.00157481;stroke-linecap:round;stroke-miterlimit:10;stroke-opacity:1;stroke-dasharray:none"
             x1="651.55902"
             y1="524.039"
             x2="651.55902"
             y2="516.862"
             id="line46" />
          <line
             style="fill:#ffffff;stroke:#000000;stroke-width:1.00157481;stroke-linecap:round;stroke-miterlimit:10;stroke-opacity:1;stroke-dasharray:none"
             x1="657.89001"
             y1="524.039"
             x2="657.89001"
             y2="516.862"
             id="line47" />
          <line
             style="fill:#ffffff;stroke:#000000;stroke-width:1.00157481;stroke-linecap:round;stroke-miterlimit:10;stroke-opacity:1;stroke-dasharray:none"
             x1="664.22101"
             y1="524.039"
             x2="664.22101"
             y2="516.862"
             id="line48" />
          <line
             style="fill:#ffffff;stroke:#000000;stroke-width:1.00157481;stroke-linecap:round;stroke-miterlimit:10;stroke-opacity:1;stroke-dasharray:none"
             x1="670.552"
             y1="524.039"
             x2="670.552"
             y2="516.862"
             id="line49" />
          <line
             style="fill:#ffffff;stroke:#000000;stroke-width:1.00157481;stroke-linecap:round;stroke-miterlimit:10;stroke-opacity:1;stroke-dasharray:none"
             x1="676.88397"
             y1="524.039"
             x2="676.88397"
             y2="516.862"
             id="line50" />
        </g>
      </g>
    </g>
  </g>
</svg>
