<svg width="312.204" height="170.188" viewBox="0 0 82.604 45.029" xmlns="http://www.w3.org/2000/svg"><g stroke="#000" stroke-width="1.002" fill="#fff" stroke-miterlimit="10"><path d="M38.194 7.502V5.046c0-.215.229-.352.418-.25l.88.471a.796.796 0 01.419.7V7.88zM43.085 17.552h1.86v-.933a.93.93 0 10-1.86 0v.933zM39.12 7.882a.934.934 0 00-.931.93v10.832h1.86c0-5.998-.068-3.374-.068-10.201.056-.28-.614-1.564-.862-1.561z" stroke-width=".26510915999999995"/><path d="M37.202 8.31c0-.547.443-.989.988-.989h1.859c.545 0 .988.443.988.988v6.973a.988.988 0 01-.988.988H38.19a.988.988 0 01-.988-.988zM23.086 24.08c0-.546.443-.988.99-.988h.052v5.255h-.053a.989.989 0 01-.989-.988zM23.086 20.026c0-.545.443-.987.99-.987h.052v2.77h-.053a.989.989 0 01-.989-.987zM14.96 27.983a.547.547 0 01.468-.989l3.27 1.519-.467.988z" stroke-width=".26510915999999995"/><path d="M18.242 30.068a.643.643 0 01-.306-.857l.351-.743a.642.642 0 01.856-.306l6.813 3.22c.321.151.458.534.307.855l-.351.744a.643.643 0 01-.856.307zM61.625 19.153h8.368v11.506h-8.368z" stroke-width=".26510915999999995"/><path d="M65.345 26.59h9.006a.989.989 0 00.988-.987v-8.02a.989.989 0 00-.988-.988h-9.006zM24.11 18.479c0-.546.444-.988.99-.988h29.023v13.168H24.111z" stroke-width=".26510915999999995"/><path d="M47.224 30.659h18.728V7.433a.988.988 0 00-.988-.988H53.735c-.605 0-1.16.343-1.43.884l-5.08 10.162v-.002z" stroke-width=".26510915999999995"/><path d="M49.523 25.647c0 .546.443.988.988.988h12.452a.988.988 0 00.988-.988V9.664a.988.988 0 00-.988-.989h-8.267c-.603 0-1.156.349-1.416.892l-3.757 7.842zM66.672 18.534c0-.502.406-.908.906-.908h6.064c.5 0 .907.406.907.908v2.35c0 .5-.406.907-.907.907h-6.064a.907.907 0 01-.906-.907z" stroke-width=".26510915999999995"/><path d="M51.941 16.587a.642.642 0 00.588.903h9.194a.988.988 0 00.988-.988v-5.88a.988.988 0 00-.988-.988h-5.708c-.599 0-1.146.356-1.389.904zM62.746 19.609a.56.56 0 01-.56.56h-1.12a.56.56 0 110-1.12h1.12c.309 0 .56.25.56.56zM15.497 23.883a.84.84 0 01.302-1.653l16.034 2.84-.302 1.654z" stroke-width=".26510915999999995"/><path d="M22.888 26.142a.99.99 0 01-.831-1.124l.187-1.25a.988.988 0 011.123-.832L34.83 24.65c.54.081.912.584.83 1.124l-.186 1.25a.988.988 0 01-1.123.832zM15.488 30.209h0l3.4-11.373a.989.989 0 00-.664-1.23l-1.605-.48a.988.988 0 00-1.23.665l-4.163 13.924a2.379 2.379 0 01-.4.777c-.401.519-3.292 4.1-3.292 4.1-.67.972-.022 1.967 1.156 1.435l4.49-2.507a2.437 2.437 0 001.147-1.428l.198-.66z" stroke-width=".26510915999999995"/><g><path d="M69.458 32.134a2.885 2.885 0 012.881 2.881 2.885 2.885 0 01-2.881 2.881h-45.38a2.884 2.884 0 01-2.88-2.88 2.884 2.884 0 012.88-2.882h45.38" stroke-width=".26510915999999995"/><g transform="matrix(.26458 0 0 .26458 -135.038 -116.968)"><path d="M788.099 574.426c0 7.566-6.135 13.702-13.703 13.702-7.569 0-13.703-6.136-13.703-13.702 0-7.568 6.134-13.703 13.703-13.703 7.568 0 13.703 6.134 13.703 13.703z"/><path d="M783.685 574.426a9.29 9.29 0 11-18.58-.002 9.29 9.29 0 0118.58.002z"/><circle cx="774.396" cy="574.426" r="4.326"/></g><path d="M27.233 35.015a3.625 3.625 0 11-7.251 0 3.625 3.625 0 017.25 0z" stroke-width=".26510915999999995"/><path d="M26.065 35.015a2.458 2.458 0 11-4.915 0 2.458 2.458 0 014.915 0z" stroke-width=".26510915999999995"/><path d="M24.752 35.015a1.144 1.144 0 11-2.288 0 1.144 1.144 0 012.288 0zM36.665 35.015a3.625 3.625 0 11-7.251 0 3.625 3.625 0 017.25 0z" stroke-width=".26510915999999995"/><path d="M35.497 35.015a2.458 2.458 0 11-4.916 0 2.458 2.458 0 014.916 0z" stroke-width=".26510915999999995"/><path d="M34.184 35.015a1.144 1.144 0 11-2.289.001 1.144 1.144 0 012.289 0z" stroke-width=".26510915999999995"/><g><path d="M45.868 35.015a3.625 3.625 0 11-7.25 0 3.625 3.625 0 017.25 0z" stroke-width=".26510915999999995"/><path d="M44.7 35.015a2.458 2.458 0 11-4.915 0 2.458 2.458 0 014.916 0z" stroke-width=".26510915999999995"/><path d="M43.387 35.015a1.144 1.144 0 11-2.288 0 1.144 1.144 0 012.288 0z" stroke-width=".26510915999999995"/></g><g><path d="M55.072 35.015a3.625 3.625 0 11-7.251 0 3.625 3.625 0 017.25 0z" stroke-width=".26510915999999995"/><path d="M53.904 35.015a2.458 2.458 0 11-4.916 0 2.458 2.458 0 014.916 0z" stroke-width=".26510915999999995"/><path d="M52.591 35.015a1.145 1.145 0 11-2.289 0 1.145 1.145 0 012.29 0z" stroke-width=".26510915999999995"/></g><g><path d="M64.276 35.015a3.625 3.625 0 11-7.25 0 3.625 3.625 0 017.25 0z" stroke-width=".26510915999999995"/><path d="M63.108 35.015a2.458 2.458 0 11-4.915 0 2.458 2.458 0 014.915 0z" stroke-width=".26510915999999995"/><path d="M61.795 35.015a1.145 1.145 0 11-2.29 0 1.145 1.145 0 012.29 0z" stroke-width=".26510915999999995"/></g><path d="M74.21 34.447h-.227a4.54 4.54 0 00-.775-2.028l.181-.16a.447.447 0 00-.593-.67l-.167.148a4.566 4.566 0 00-1.638-1.019l.056-.212a.447.447 0 00-.867-.224l-.057.22a4.605 4.605 0 00-.666-.049h-1.48v-.237a.447.447 0 10-.894 0v.237h-2.33v-.237a.447.447 0 10-.894 0v.237h-2.33v-.237a.447.447 0 10-.894 0v.237h-2.33v-.237a.447.447 0 10-.893 0v.237h-2.33v-.237a.447.447 0 00-.894 0v.237h-2.33v-.237a.446.446 0 10-.894 0v.237h-2.33v-.237a.447.447 0 00-.894 0v.237h-2.33v-.237a.447.447 0 10-.894 0v.237h-2.329v-.237a.447.447 0 00-.894 0v.237h-2.33v-.237a.447.447 0 00-.894 0v.237h-2.33v-.237a.447.447 0 10-.894 0v.237h-2.33v-.237a.447.447 0 10-.894 0v.237h-2.33v-.237a.447.447 0 10-.894 0v.237h-2.33v-.237a.447.447 0 10-.893 0v.237h-1.096c-.234 0-.463.018-.687.052l-.058-.224a.448.448 0 00-.866.225l.057.219a4.557 4.557 0 00-1.627 1.022l-.18-.159a.448.448 0 00-.593.67l.182.161.108-.123a4.538 4.538 0 00-.87 2.216v-.066h-.242a.446.446 0 100 .894h.227c.053.756.29 1.462.668 2.073l-.192.14a.447.447 0 00.525.723l.196-.142-.104-.144a4.566 4.566 0 001.906 1.316l-.051.157a.447.447 0 10.85.276l.07-.213c.222.033.45.05.68.05h1.095v.241a.448.448 0 00.895 0v-.24h2.329v.24a.447.447 0 10.895 0v-.24h2.329v.24a.447.447 0 10.894 0v-.24h2.33v.24a.447.447 0 10.894 0v-.24h2.33v.24a.448.448 0 00.894 0v-.24h2.329v.24a.448.448 0 00.895 0v-.24h2.33v.24a.447.447 0 10.894 0v-.24h2.329v.24a.447.447 0 10.894 0v-.24h2.33v.24a.448.448 0 00.894 0v-.24h2.329v.24a.447.447 0 10.895 0v-.24h2.328v.24a.447.447 0 10.895 0v-.24h2.33v.24a.447.447 0 10.894 0v-.24h2.329v.24a.448.448 0 00.894 0v-.24h2.33v.24a.447.447 0 10.894 0v-.24h1.48c.224 0 .445-.017.66-.049l.068.211a.447.447 0 10.851-.277l-.049-.15a4.565 4.565 0 001.806-1.187l-.006.009.195.142a.448.448 0 00.526-.724l-.177-.128a4.53 4.53 0 00.675-2.084h.205a.447.447 0 00.002-.893zm-4.752 3.45h-45.38a2.884 2.884 0 01-2.88-2.882 2.884 2.884 0 012.88-2.881h45.38a2.885 2.885 0 012.881 2.881 2.885 2.885 0 01-2.881 2.881z" stroke-width=".26510915999999995"/></g><g stroke-linecap="round"><path d="M67.635 18.573h5.863M67.635 19.745h5.863M67.635 20.862h5.863" stroke-width=".26510915999999995"/></g><g><path d="M25.627 19.7c0-.412.335-.747.748-.747H44.98c.413 0 .748.335.748.748v2.066a.749.749 0 01-.748.749H26.375a.749.749 0 01-.748-.749z" stroke-width=".26510915999999995"/><g stroke-linecap="round"><path d="M27.302 21.684v-1.9M28.977 21.684v-1.9M30.652 21.684v-1.9M32.327 21.684v-1.9M34.003 21.684v-1.9M35.678 21.684v-1.9M37.353 21.684v-1.9M39.028 21.684v-1.9M40.703 21.684v-1.9M42.378 21.684v-1.9M44.054 21.684v-1.9" stroke-width=".26510915999999995"/></g></g></g></svg>