<?xml version="1.0" encoding="UTF-8" standalone="no"?>
<svg
   width="312.204"
   height="170.188"
   viewBox="0 0 82.604 45.029"
   version="1.1"
   id="svg31"
   sodipodi:docname="bulldozer.svg"
   inkscape:version="1.3 (0e150ed6c4, 2023-07-21)"
   xmlns:inkscape="http://www.inkscape.org/namespaces/inkscape"
   xmlns:sodipodi="http://sodipodi.sourceforge.net/DTD/sodipodi-0.dtd"
   xmlns="http://www.w3.org/2000/svg"
   xmlns:svg="http://www.w3.org/2000/svg">
  <defs
     id="defs31" />
  <sodipodi:namedview
     id="namedview31"
     pagecolor="#ffffff"
     bordercolor="#000000"
     borderopacity="0.25"
     inkscape:showpageshadow="2"
     inkscape:pageopacity="0.0"
     inkscape:pagecheckerboard="0"
     inkscape:deskcolor="#d1d1d1"
     inkscape:zoom="4.2761065"
     inkscape:cx="123.0091"
     inkscape:cy="69.806493"
     inkscape:window-width="2560"
     inkscape:window-height="1351"
     inkscape:window-x="1191"
     inkscape:window-y="187"
     inkscape:window-maximized="1"
     inkscape:current-layer="svg31" />
  <g
     stroke="#000"
     stroke-width="1.002"
     fill="#fff"
     stroke-miterlimit="10"
     id="g31">
    <path
       d="M38.194 7.502V5.046c0-.215.229-.352.418-.25l.88.471a.796.796 0 01.419.7V7.88zM43.085 17.552h1.86v-.933a.93.93 0 10-1.86 0v.933zM39.12 7.882a.934.934 0 00-.931.93v10.832h1.86c0-5.998-.068-3.374-.068-10.201.056-.28-.614-1.564-.862-1.561z"
       stroke-width=".26510915999999995"
       id="path1" />
    <path
       d="M37.202 8.31c0-.547.443-.989.988-.989h1.859c.545 0 .988.443.988.988v6.973a.988.988 0 01-.988.988H38.19a.988.988 0 01-.988-.988zM23.086 24.08c0-.546.443-.988.99-.988h.052v5.255h-.053a.989.989 0 01-.989-.988zM23.086 20.026c0-.545.443-.987.99-.987h.052v2.77h-.053a.989.989 0 01-.989-.987zM14.96 27.983a.547.547 0 01.468-.989l3.27 1.519-.467.988z"
       stroke-width=".26510915999999995"
       id="path2" />
    <path
       d="M18.242 30.068a.643.643 0 01-.306-.857l.351-.743a.642.642 0 01.856-.306l6.813 3.22c.321.151.458.534.307.855l-.351.744a.643.643 0 01-.856.307zM61.625 19.153h8.368v11.506h-8.368z"
       stroke-width=".26510915999999995"
       id="path3" />
    <path
       d="M65.345 26.59h9.006a.989.989 0 00.988-.987v-8.02a.989.989 0 00-.988-.988h-9.006zM24.11 18.479c0-.546.444-.988.99-.988h29.023v13.168H24.111z"
       stroke-width=".26510915999999995"
       id="path4" />
    <path
       d="M47.224 30.659h18.728V7.433a.988.988 0 00-.988-.988H53.735c-.605 0-1.16.343-1.43.884l-5.08 10.162v-.002z"
       stroke-width=".26510915999999995"
       id="path5" />
    <path
       d="M49.523 25.647c0 .546.443.988.988.988h12.452a.988.988 0 00.988-.988V9.664a.988.988 0 00-.988-.989h-8.267c-.603 0-1.156.349-1.416.892l-3.757 7.842zM66.672 18.534c0-.502.406-.908.906-.908h6.064c.5 0 .907.406.907.908v2.35c0 .5-.406.907-.907.907h-6.064a.907.907 0 01-.906-.907z"
       stroke-width=".26510915999999995"
       id="path6" />
    <path
       d="M51.941 16.587a.642.642 0 00.588.903h9.194a.988.988 0 00.988-.988v-5.88a.988.988 0 00-.988-.988h-5.708c-.599 0-1.146.356-1.389.904zM62.746 19.609a.56.56 0 01-.56.56h-1.12a.56.56 0 110-1.12h1.12c.309 0 .56.25.56.56zM15.497 23.883a.84.84 0 01.302-1.653l16.034 2.84-.302 1.654z"
       stroke-width=".26510915999999995"
       id="path7" />
    <path
       d="M22.888 26.142a.99.99 0 01-.831-1.124l.187-1.25a.988.988 0 011.123-.832L34.83 24.65c.54.081.912.584.83 1.124l-.186 1.25a.988.988 0 01-1.123.832zM15.488 30.209h0l3.4-11.373a.989.989 0 00-.664-1.23l-1.605-.48a.988.988 0 00-1.23.665l-4.163 13.924a2.379 2.379 0 01-.4.777c-.401.519-3.292 4.1-3.292 4.1-.67.972-.022 1.967 1.156 1.435l4.49-2.507a2.437 2.437 0 001.147-1.428l.198-.66z"
       stroke-width=".26510915999999995"
       id="path8" />
    <g
       id="g26">
      <path
         d="M69.458 32.134a2.885 2.885 0 012.881 2.881 2.885 2.885 0 01-2.881 2.881h-45.38a2.884 2.884 0 01-2.88-2.88 2.884 2.884 0 012.88-2.882h45.38"
         stroke-width=".26510915999999995"
         id="path9" />
      <g
         transform="matrix(.26458 0 0 .26458 -135.038 -116.968)"
         id="g11">
        <path
           d="M788.099 574.426c0 7.566-6.135 13.702-13.703 13.702-7.569 0-13.703-6.136-13.703-13.702 0-7.568 6.134-13.703 13.703-13.703 7.568 0 13.703 6.134 13.703 13.703z"
           id="path10" />
        <path
           d="M783.685 574.426a9.29 9.29 0 11-18.58-.002 9.29 9.29 0 0118.58.002z"
           id="path11" />
        <circle
           cx="774.396"
           cy="574.426"
           r="4.326"
           id="circle11" />
      </g>
      <path
         d="M27.233 35.015a3.625 3.625 0 11-7.251 0 3.625 3.625 0 017.25 0z"
         stroke-width=".26510915999999995"
         id="path12" />
      <path
         d="M26.065 35.015a2.458 2.458 0 11-4.915 0 2.458 2.458 0 014.915 0z"
         stroke-width=".26510915999999995"
         id="path13" />
      <path
         d="M24.752 35.015a1.144 1.144 0 11-2.288 0 1.144 1.144 0 012.288 0zM36.665 35.015a3.625 3.625 0 11-7.251 0 3.625 3.625 0 017.25 0z"
         stroke-width=".26510915999999995"
         id="path14" />
      <path
         d="M35.497 35.015a2.458 2.458 0 11-4.916 0 2.458 2.458 0 014.916 0z"
         stroke-width=".26510915999999995"
         id="path15" />
      <path
         d="M34.184 35.015a1.144 1.144 0 11-2.289.001 1.144 1.144 0 012.289 0z"
         stroke-width=".26510915999999995"
         id="path16" />
      <g
         id="g19">
        <path
           d="M45.868 35.015a3.625 3.625 0 11-7.25 0 3.625 3.625 0 017.25 0z"
           stroke-width=".26510915999999995"
           id="path17" />
        <path
           d="M44.7 35.015a2.458 2.458 0 11-4.915 0 2.458 2.458 0 014.916 0z"
           stroke-width=".26510915999999995"
           id="path18" />
        <path
           d="M43.387 35.015a1.144 1.144 0 11-2.288 0 1.144 1.144 0 012.288 0z"
           stroke-width=".26510915999999995"
           id="path19" />
      </g>
      <g
         id="g22">
        <path
           d="M55.072 35.015a3.625 3.625 0 11-7.251 0 3.625 3.625 0 017.25 0z"
           stroke-width=".26510915999999995"
           id="path20" />
        <path
           d="M53.904 35.015a2.458 2.458 0 11-4.916 0 2.458 2.458 0 014.916 0z"
           stroke-width=".26510915999999995"
           id="path21" />
        <path
           d="M52.591 35.015a1.145 1.145 0 11-2.289 0 1.145 1.145 0 012.29 0z"
           stroke-width=".26510915999999995"
           id="path22" />
      </g>
      <g
         id="g25">
        <path
           d="M64.276 35.015a3.625 3.625 0 11-7.25 0 3.625 3.625 0 017.25 0z"
           stroke-width=".26510915999999995"
           id="path23" />
        <path
           d="M63.108 35.015a2.458 2.458 0 11-4.915 0 2.458 2.458 0 014.915 0z"
           stroke-width=".26510915999999995"
           id="path24" />
        <path
           d="M61.795 35.015a1.145 1.145 0 11-2.29 0 1.145 1.145 0 012.29 0z"
           stroke-width=".26510915999999995"
           id="path25" />
      </g>
      <path
         d="m 74.21,34.447 h -0.227 c -0.09052,-0.728729 -0.356457,-1.424625 -0.775,-2.028 l 0.181,-0.16 c 0.446666,-0.395333 -0.146334,-1.065333 -0.593,-0.67 l -0.167,0.148 c -0.467197,-0.452447 -1.025659,-0.799866 -1.638,-1.019 l 0.056,-0.212 c 0.149333,-0.578 -0.717667,-0.802 -0.867,-0.224 l -0.057,0.22 c -0.220522,-0.03243 -0.443107,-0.04881 -0.666,-0.049 h -1.48 v -0.237 c 0,-0.596 -0.894,-0.596 -0.894,0 v 0.237 h -2.33 v -0.237 c 0,-0.596 -0.894,-0.596 -0.894,0 v 0.237 h -2.33 v -0.237 c 0,-0.596 -0.894,-0.596 -0.894,0 v 0.237 h -2.33 v -0.237 c 0.02955,-0.624182 -0.922548,-0.624182 -0.893,0 v 0.237 h -2.33 v -0.237 c 0,-0.596 -0.894,-0.596 -0.894,0 v 0.237 h -2.33 v -0.237 c 0,-0.596 -0.894,-0.596 -0.894,0 v 0.237 h -2.33 v -0.237 c 0,-0.596 -0.894,-0.596 -0.894,0 v 0.237 h -2.33 v -0.237 c 0,-0.596 -0.894,-0.596 -0.894,0 v 0.237 h -2.329 v -0.237 c 0,-0.596 -0.894,-0.596 -0.894,0 v 0.237 h -2.33 v -0.237 c 0,-0.596 -0.894,-0.596 -0.894,0 v 0.237 h -2.33 v -0.237 c 0,-0.596 -0.894,-0.596 -0.894,0 v 0.237 h -2.33 v -0.237 c 0,-0.596 -0.894,-0.596 -0.894,0 v 0.237 h -2.33 v -0.237 c 0,-0.596 -0.894,-0.596 -0.894,0 v 0.237 h -2.33 v -0.237 c 0.02955,-0.624182 -0.922548,-0.624182 -0.893,0 v 0.237 h -1.096 c -0.234,0 -0.463,0.018 -0.687,0.052 l -0.058,-0.224 c -0.171219,-0.540116 -0.979348,-0.330152 -0.866,0.225 l 0.057,0.219 c -0.608803,0.221164 -1.163463,0.569574 -1.627,1.022 l -0.18,-0.159 c -0.443477,-0.352317 -0.996581,0.272607 -0.593,0.67 0,0 0.08523,0.06533 0.182,0.161 -0.270608,0.308364 -0.756016,1.519325 -0.762,2.027 -0.191609,-0.01053 -0.242,0 -0.242,0 -0.596,0 -0.596,0.894 0,0.894 h 0.227 c 0.053,0.756 0.29,1.462 0.668,2.073 l -0.192,0.14 c -0.454992,0.354057 0.0475,1.046063 0.525,0.723 0.02805,0.01558 0.09535,-0.08983 0.196,-0.142 0.789065,0.755674 1.802,1.172 1.802,1.172 l -0.051,0.157 c -0.204344,0.576867 0.676471,0.862873 0.85,0.276 l 0.07,-0.213 c 0.222,0.033 0.45,0.05 0.68,0.05 h 1.095 v 0.241 c 0.02691,0.56912 0.868089,0.56912 0.895,0 v -0.24 h 2.329 v 0.24 c 0,0.596666 0.895,0.596666 0.895,0 v -0.24 h 2.329 v 0.24 c 0,0.596 0.894,0.596 0.894,0 v -0.24 h 2.33 v 0.24 c 0,0.596 0.894,0.596 0.894,0 v -0.24 h 2.33 v 0.24 c 0.03731,0.557444 0.856692,0.557444 0.894,0 v -0.24 h 2.329 v 0.24 c 0.02691,0.56912 0.868089,0.56912 0.895,0 v -0.24 h 2.33 v 0.24 c 0,0.596 0.894,0.596 0.894,0 v -0.24 h 2.329 v 0.24 c 0,0.596 0.894,0.596 0.894,0 v -0.24 h 2.33 v 0.24 c 0.03731,0.557444 0.856692,0.557444 0.894,0 v -0.24 h 2.329 v 0.24 c 0,0.596666 0.895,0.596666 0.895,0 v -0.24 h 2.328 v 0.24 c 0,0.596666 0.895,0.596666 0.895,0 v -0.24 h 2.33 v 0.24 c 0,0.596 0.894,0.596 0.894,0 v -0.24 h 2.329 v 0.24 c 0.03731,0.557444 0.856692,0.557444 0.894,0 v -0.24 h 2.33 v 0.24 c 0,0.596 0.894,0.596 0.894,0 v -0.24 h 1.48 c 0.224,0 0.445,-0.017 0.66,-0.049 l 0.068,0.211 c 0.184667,0.567333 1.035667,0.290333 0.851,-0.277 l -0.049,-0.15 c 0.688331,-0.24541 1.307686,-0.652483 1.806,-1.187 0.05944,0.05479 0.125557,0.101177 0.189,0.151 0.475882,0.310983 0.968829,-0.367521 0.526,-0.724 l -0.177,-0.128 c 0.392102,-0.628985 0.623879,-1.344573 0.675,-2.084 h 0.205 c 0.567908,-0.02558 0.569788,-0.864878 0.002,-0.893 z m -4.752,3.45 h -45.38 c -1.590446,-0.0022 -2.878899,-1.291552 -2.88,-2.882 0.0017,-1.590057 1.289944,-2.878796 2.88,-2.881 h 45.38 c 1.590219,0.0022 2.878797,1.290781 2.881,2.881 -0.0022,1.590219 -1.290781,2.878797 -2.881,2.881 z"
         stroke-width="0.265109"
         id="path26"
         sodipodi:nodetypes="ccccccccccccssccssccssccccccssccssccssccssccssccssccssccssccsscccccscccccccccsscccccccccscccccssccssccssccccccccccssccssccccccssccssccssccccccsscscccccccccccccccccccc" />
    </g>
    <g
       stroke-linecap="round"
       id="g27">
      <path
         d="M67.635 18.573h5.863M67.635 19.745h5.863M67.635 20.862h5.863"
         stroke-width=".26510915999999995"
         id="path27" />
    </g>
    <g
       id="g30">
      <path
         d="M25.627 19.7c0-.412.335-.747.748-.747H44.98c.413 0 .748.335.748.748v2.066a.749.749 0 01-.748.749H26.375a.749.749 0 01-.748-.749z"
         stroke-width=".26510915999999995"
         id="path28" />
      <g
         stroke-linecap="round"
         id="g29">
        <path
           d="M27.302 21.684v-1.9M28.977 21.684v-1.9M30.652 21.684v-1.9M32.327 21.684v-1.9M34.003 21.684v-1.9M35.678 21.684v-1.9M37.353 21.684v-1.9M39.028 21.684v-1.9M40.703 21.684v-1.9M42.378 21.684v-1.9M44.054 21.684v-1.9"
           stroke-width=".26510915999999995"
           id="path29" />
      </g>
    </g>
  </g>
</svg>
