<?xml version="1.0" encoding="UTF-8" standalone="no"?>
<!-- Generator: Adobe Illustrator 27.5.0, SVG Export Plug-In . SVG Version: 6.00 Build 0)  -->

<svg
   version="1.1"
   x="0px"
   y="0px"
   viewBox="0 0 500 500"
   style="enable-background:new 0 0 500 500;"
   xml:space="preserve"
   id="svg111"
   sodipodi:docname="cat.svg"
   inkscape:version="1.3 (0e150ed6c4, 2023-07-21)"
   xmlns:inkscape="http://www.inkscape.org/namespaces/inkscape"
   xmlns:sodipodi="http://sodipodi.sourceforge.net/DTD/sodipodi-0.dtd"
   xmlns="http://www.w3.org/2000/svg"
   xmlns:svg="http://www.w3.org/2000/svg"><defs
   id="defs111" /><sodipodi:namedview
   id="namedview111"
   pagecolor="#ffffff"
   bordercolor="#000000"
   borderopacity="0.25"
   inkscape:showpageshadow="2"
   inkscape:pageopacity="0.0"
   inkscape:pagecheckerboard="0"
   inkscape:deskcolor="#d1d1d1"
   inkscape:zoom="1.6079608"
   inkscape:cx="221.70938"
   inkscape:cy="263.99897"
   inkscape:window-width="2560"
   inkscape:window-height="1351"
   inkscape:window-x="1191"
   inkscape:window-y="187"
   inkscape:window-maximized="1"
   inkscape:current-layer="svg111" />&#10;&#10;<g
   id="OBJECTS">&#10;	<g
   id="g62">&#10;		<g
   id="g8">&#10;			<path
   style="fill:#FFFFFF;stroke:#000000;stroke-width:2;stroke-linecap:round;stroke-linejoin:round;stroke-miterlimit:10;"
   d="     M82.53,390.43c9.02-15.44,24.24-12.58,39.42-2.9s24.58,22.52,15.56,37.96c-9.02,15.44-36.37,35.84-51.55,26.16     S73.51,405.87,82.53,390.43z"
   id="path1" />&#10;			<g
   id="g2">&#10;				&#10;					<path
   style="fill:#FFFFFF;stroke:#000000;stroke-width:2;stroke-linecap:round;stroke-linejoin:round;stroke-miterlimit:10;"
   d="      M139.65,396.04c-0.81-1.86-2.18-3.4-3.52-4.91c-2.93-3.27-6.16-6.17-9.6-8.58c2.8-2.06,5.61-4.13,8.41-6.19      c1.42-1.04,2.97-2.34,3.03-4.15c0.06-1.95-1.81-3.59-3.7-3.79c-1.89-0.2-3.71,0.66-5.28,1.72c-3.34,2.26-6,5.52-7.66,9.27      c-1.76-0.9-3.56-1.68-5.39-2.29c-4.35-1.46-8.98-1.97-13.49-1.48c-1.8,0.2-3.88,0.8-4.46,2.56c-0.76,2.33,1.79,4.54,4.15,5.01      s4.92,0.09,7.07,1.22c-2.2,0.08-3.56,2.92-2.74,5.06c0.81,2.14,3.15,3.37,5.36,3.42c2.21,0.05,4.3-0.86,6.23-1.91      c-0.54,1.95-0.51,4.16,0.44,5.98c0.95,1.82,2.92,3.14,4.89,2.95c1.97-0.2,3.68-2.14,3.38-4.18c0.92,2.91,2.43,5.83,4.99,7.4      c2.56,1.57,6.32,1.27,7.86-1.28C140.64,400.16,140.46,397.9,139.65,396.04z"
   id="path2" />&#10;			</g>&#10;			<path
   d="M128.467,415.365c0.567-1.883,1.892-3.148,2.961-2.827c1.068,0.322,1.475,2.109,0.908,3.991     c-0.567,1.883-1.892,3.148-2.961,2.827C128.307,419.035,127.9,417.248,128.467,415.365z"
   id="path3" />&#10;			<path
   d="M105.002,412.528c0.95-1.702,2.518-2.637,3.502-2.088c0.984,0.549,1.011,2.374,0.061,4.077     c-0.95,1.702-2.518,2.637-3.502,2.088C104.079,416.056,104.052,414.23,105.002,412.528z"
   id="path4" />&#10;			<path
   d="M85.962,419.117c0.724-1.822,2.151-2.965,3.188-2.554c1.037,0.412,1.291,2.223,0.567,4.045     c-0.724,1.822-2.151,2.965-3.188,2.554C85.492,422.751,85.238,420.94,85.962,419.117z"
   id="path5" />&#10;			<path
   d="M112.353,431.004c1.279-1.457,3.006-2.032,3.856-1.285c0.851,0.747,0.503,2.533-0.776,3.99s-3.006,2.032-3.856,1.285     C110.726,434.247,111.074,432.46,112.353,431.004z"
   id="path6" />&#10;			<path
   d="M90.406,441.538c1.164-1.557,2.843-2.27,3.75-1.592c0.907,0.678,0.698,2.49-0.466,4.047     c-1.164,1.557-2.843,2.27-3.75,1.592C89.034,444.907,89.242,443.095,90.406,441.538z"
   id="path7" />&#10;			<path
   d="M92.12,391.156c1.288-1.449,3.018-2.014,3.864-1.262c0.846,0.752,0.489,2.536-0.799,3.986     c-1.288,1.449-3.018,2.014-3.864,1.262C90.474,394.39,90.832,392.605,92.12,391.156z"
   id="path8" />&#10;		</g>&#10;		<g
   id="g16">&#10;			<path
   style="fill:#FFFFFF;stroke:#000000;stroke-width:2;stroke-linecap:round;stroke-linejoin:round;stroke-miterlimit:10;"
   d="     M398.18,412.93c-8.22-15.78-23.85-13.91-39.85-5.31s-26.31,20.66-18.09,36.44S375,481.64,391,473.04S406.41,428.71,398.18,412.93     z"
   id="path9" />&#10;			<g
   id="g10">&#10;				&#10;					<path
   style="fill:#FFFFFF;stroke:#000000;stroke-width:2;stroke-linecap:round;stroke-linejoin:round;stroke-miterlimit:10;"
   d="      M339.86,414.91c0.94-1.78,2.41-3.22,3.87-4.62c3.17-3.04,6.62-5.7,10.27-7.86c-2.72-2.21-5.45-4.41-8.17-6.62      c-1.38-1.12-2.88-2.49-2.83-4.28c0.05-1.93,2.05-3.42,3.99-3.51s3.73,0.88,5.26,2.03c3.25,2.43,5.76,5.81,7.22,9.61      c1.84-0.78,3.71-1.43,5.61-1.93c4.51-1.17,9.24-1.39,13.79-0.62c1.82,0.31,3.89,1.03,4.37,2.8c0.63,2.34-2.09,4.36-4.51,4.68      c-2.43,0.32-5-0.22-7.25,0.77c2.23,0.22,3.44,3.1,2.48,5.16c-0.96,2.05-3.4,3.12-5.65,3.03c-2.24-0.09-4.32-1.12-6.21-2.27      c0.44,1.96,0.27,4.13-0.81,5.87c-1.08,1.73-3.16,2.92-5.14,2.6c-1.99-0.32-3.61-2.34-3.18-4.32c-1.11,2.81-2.82,5.59-5.51,6.99      c-2.69,1.4-6.49,0.86-7.9-1.75C338.6,418.91,338.92,416.69,339.86,414.91z"
   id="path10" />&#10;			</g>&#10;			<path
   d="M347.2,431.684c1.098-0.278,2.375,1.029,2.854,2.919c0.479,1.89-0.023,3.647-1.121,3.925     c-1.098,0.278-2.375-1.029-2.854-2.919C345.601,433.72,346.103,431.962,347.2,431.684z"
   id="path11" />&#10;			<path
   d="M370.568,431.081c1.007-0.517,2.541,0.463,3.426,2.188c0.885,1.725,0.785,3.542-0.222,4.059     c-1.007,0.517-2.541-0.463-3.426-2.188C369.461,433.415,369.561,431.598,370.568,431.081z"
   id="path12" />&#10;			<path
   d="M389.896,438.293c1.068-0.375,2.457,0.807,3.101,2.642c0.644,1.834,0.301,3.625-0.767,4.001     c-1.068,0.375-2.457-0.807-3.101-2.642C388.484,440.459,388.827,438.668,389.896,438.293z"
   id="path13" />&#10;			<path
   d="M361.535,449.613c0.878-0.724,2.589-0.099,3.823,1.396c1.234,1.495,1.522,3.294,0.645,4.018     c-0.878,0.724-2.589,0.099-3.823-1.396C360.946,452.137,360.657,450.337,361.535,449.613z"
   id="path14" />&#10;			<path
   d="M383.355,461.086c0.932-0.652,2.589,0.107,3.7,1.696c1.111,1.589,1.256,3.405,0.323,4.057     c-0.932,0.652-2.589-0.107-3.7-1.696C382.568,463.554,382.423,461.738,383.355,461.086z"
   id="path15" />&#10;			<path
   d="M384.539,411.597c0.873-0.729,2.589-0.115,3.831,1.373c1.243,1.488,1.542,3.285,0.669,4.015     c-0.873,0.729-2.589,0.115-3.831-1.373C383.966,414.124,383.666,412.326,384.539,411.597z"
   id="path16" />&#10;		</g>&#10;		<g
   id="g24">&#10;			<path
   style="fill:#FFFFFF;stroke:#000000;stroke-width:2;stroke-linecap:round;stroke-linejoin:round;stroke-miterlimit:10;"
   d="     M426.31,83.8c-8.21-15.78-23.84-13.93-39.84-5.35s-26.33,20.64-18.13,36.42c8.2,15.78,34.72,37.61,50.73,29.03     C435.07,135.33,434.51,99.59,426.31,83.8z"
   id="path17" />&#10;			<g
   id="g18">&#10;				&#10;					<path
   style="fill:#FFFFFF;stroke:#000000;stroke-width:2;stroke-linecap:round;stroke-linejoin:round;stroke-miterlimit:10;"
   d="      M367.98,85.72c0.94-1.78,2.42-3.22,3.88-4.61c3.18-3.04,6.63-5.7,10.27-7.85c-2.72-2.21-5.44-4.42-8.16-6.63      c-1.38-1.12-2.88-2.49-2.82-4.29c0.06-1.93,2.06-3.42,3.99-3.5c1.93-0.08,3.73,0.89,5.25,2.03c3.25,2.44,5.75,5.82,7.21,9.61      c1.84-0.78,3.71-1.43,5.61-1.92c4.51-1.17,9.24-1.38,13.79-0.61c1.82,0.31,3.89,1.03,4.37,2.81c0.63,2.34-2.09,4.36-4.52,4.68      c-2.43,0.31-5-0.23-7.25,0.76c2.23,0.22,3.43,3.1,2.48,5.16c-0.96,2.05-3.41,3.12-5.65,3.03c-2.24-0.09-4.31-1.12-6.21-2.28      c0.43,1.96,0.26,4.13-0.82,5.86c-1.08,1.73-3.16,2.91-5.15,2.59s-3.6-2.34-3.18-4.33c-1.11,2.81-2.83,5.59-5.52,6.98      s-6.5,0.86-7.9-1.76C366.72,89.72,367.04,87.5,367.98,85.72z"
   id="path18" />&#10;			</g>&#10;			<path
   d="M375.326,102.494c1.098-0.277,2.374,1.031,2.851,2.922c0.477,1.89-0.027,3.647-1.125,3.924     c-1.098,0.277-2.374-1.031-2.851-2.922C373.725,104.528,374.229,102.771,375.326,102.494z"
   id="path19" />&#10;			<path
   d="M398.655,101.879c1.008-0.516,2.541,0.465,3.424,2.191c0.883,1.726,0.782,3.543-0.226,4.058     c-1.008,0.516-2.541-0.465-3.424-2.191S397.647,102.395,398.655,101.879z"
   id="path20" />&#10;			<path
   d="M417.941,109.177c1.069-0.374,2.456,0.81,3.098,2.645s0.297,3.625-0.772,3.999c-1.069,0.374-2.455-0.81-3.098-2.645     C416.527,111.341,416.873,109.551,417.941,109.177z"
   id="path21" />&#10;			<path
   d="M389.648,120.453c0.878-0.723,2.589-0.096,3.821,1.4c1.232,1.496,1.519,3.296,0.641,4.019     c-0.878,0.723-2.589,0.096-3.821-1.4C389.057,122.975,388.77,121.176,389.648,120.453z"
   id="path22" />&#10;			<path
   d="M411.449,131.899c0.933-0.651,2.589,0.11,3.698,1.7c1.109,1.59,1.252,3.406,0.319,4.058     c-0.933,0.651-2.589-0.11-3.698-1.7C410.659,134.367,410.516,132.55,411.449,131.899z"
   id="path23" />&#10;			<path
   d="M412.659,82.481c0.874-0.728,2.589-0.112,3.83,1.378c1.241,1.489,1.539,3.287,0.665,4.015     c-0.874,0.728-2.589,0.112-3.83-1.378C412.082,85.007,411.785,83.209,412.659,82.481z"
   id="path24" />&#10;		</g>&#10;		<g
   id="g32">&#10;			<path
   style="fill:#FFFFFF;stroke:#000000;stroke-width:2;stroke-linecap:round;stroke-linejoin:round;stroke-miterlimit:10;"
   d="     M55.54,91.37c-3.53-17.44,9.79-25.81,27.64-29.19c17.85-3.38,33.45-0.49,36.98,16.95c3.53,17.44-3.38,51.08-21.23,54.46     C81.09,136.97,59.07,108.81,55.54,91.37z"
   id="path25" />&#10;			<g
   id="g26">&#10;				&#10;					<path
   style="fill:#FFFFFF;stroke:#000000;stroke-width:2;stroke-linecap:round;stroke-linejoin:round;stroke-miterlimit:10;"
   d="      M102.13,56.22c-1.85-0.8-3.9-0.98-5.91-1.15c-4.38-0.37-8.74-0.27-12.92,0.35c0.73-3.43,1.46-6.86,2.18-10.29      c0.37-1.73,0.67-3.75-0.5-5.11c-1.26-1.47-3.75-1.37-5.31-0.22c-1.56,1.15-2.34,3.03-2.81,4.88c-1,3.94-0.82,8.14,0.43,12.01      c-1.92,0.55-3.79,1.22-5.57,2.03c-4.24,1.92-8.05,4.74-11.11,8.19c-1.22,1.38-2.38,3.25-1.63,4.93c0.98,2.21,4.37,2.08,6.45,0.8      c2.09-1.28,3.75-3.31,6.12-3.97c-1.6,1.57-0.72,4.57,1.31,5.57c2.04,1,4.61,0.29,6.3-1.19c1.69-1.48,2.65-3.58,3.4-5.68      c0.89,1.8,2.39,3.38,4.32,4.05s4.29,0.28,5.64-1.22c1.35-1.5,1.33-4.09-0.25-5.36c2.63,1.49,5.71,2.57,8.68,1.96      c2.97-0.61,5.59-3.41,5.04-6.33C105.62,58.54,103.98,57.02,102.13,56.22z"
   id="path26" />&#10;			</g>&#10;			<path
   d="M106.973,73.871c1.028-0.474,2.524,0.576,3.34,2.346c0.817,1.77,0.646,3.59-0.382,4.064     c-1.028,0.474-2.524-0.576-3.34-2.346C105.773,76.165,105.945,74.345,106.973,73.871z"
   id="path27" />&#10;			<path
   d="M88.401,88.088c1.108-0.232,2.328,1.118,2.726,3.016c0.397,1.897-0.179,3.624-1.287,3.856s-2.328-1.118-2.726-3.016     C86.717,90.047,87.293,88.32,88.401,88.088z"
   id="path28" />&#10;			<path
   d="M77.97,105.851c1.066-0.38,2.46,0.796,3.113,2.627s0.318,3.624-0.748,4.004c-1.066,0.38-2.46-0.796-3.113-2.627     S76.904,106.231,77.97,105.851z"
   id="path29" />&#10;			<path
   d="M104.989,100.338c0.019-1.938,0.956-3.501,2.093-3.49c1.138,0.011,2.045,1.591,2.027,3.53     c-0.019,1.938-0.956,3.501-2.093,3.49C105.878,103.857,104.971,102.277,104.989,100.338z"
   id="path30" />&#10;			<path
   d="M97.342,119.451c1.135-0.08,2.165,1.423,2.301,3.357c0.136,1.934-0.674,3.566-1.809,3.645     c-1.135,0.08-2.165-1.423-2.3-3.357C95.397,121.162,96.207,119.53,97.342,119.451z"
   id="path31" />&#10;			<path
   d="M63.213,85.231c0.03-1.938,0.977-3.495,2.114-3.478c1.138,0.018,2.035,1.603,2.005,3.542     c-0.03,1.938-0.977,3.495-2.114,3.478C64.08,88.755,63.183,87.17,63.213,85.231z"
   id="path32" />&#10;		</g>&#10;		<g
   id="g34">&#10;			<path
   style="fill:#FFFFFF;stroke:#000000;stroke-width:2;stroke-linecap:round;stroke-miterlimit:10;"
   d="M337.07,44.65     c-3.16-8.88,5.18-9.57,5.18-9.57s6.44-4.67,9.63,4.3c1.46,4.09-0.55,7.92-4.64,9.38C343.15,50.22,338.52,48.74,337.07,44.65z"
   id="path33" />&#10;			<path
   style="fill:none;stroke:#000000;stroke-width:2;stroke-linecap:round;stroke-miterlimit:10;"
   d="M342.52,36.56     c-1.42-3.12-1.44-6.86-0.04-9.99"
   id="path34" />&#10;		</g>&#10;		<g
   id="g36">&#10;			<path
   style="fill:#FFFFFF;stroke:#000000;stroke-width:2;stroke-linecap:round;stroke-miterlimit:10;"
   d="M436.74,417.25     c-3.16-8.88,5.18-9.57,5.18-9.57s6.44-4.67,9.63,4.3c1.46,4.09-0.55,7.92-4.64,9.38C442.83,422.81,438.2,421.34,436.74,417.25z"
   id="path35" />&#10;			<path
   style="fill:none;stroke:#000000;stroke-width:2;stroke-linecap:round;stroke-miterlimit:10;"
   d="M442.19,409.16     c-1.42-3.12-1.44-6.86-0.04-9.99"
   id="path36" />&#10;		</g>&#10;		<g
   id="g38">&#10;			<path
   style="fill:#FFFFFF;stroke:#000000;stroke-width:2;stroke-linecap:round;stroke-miterlimit:10;"
   d="M149.02,468.36     c-3.16-8.88,5.18-9.57,5.18-9.57s6.44-4.67,9.63,4.3c1.46,4.09-0.55,7.92-4.64,9.38S150.47,472.46,149.02,468.36z"
   id="path37" />&#10;			<path
   style="fill:none;stroke:#000000;stroke-width:2;stroke-linecap:round;stroke-miterlimit:10;"
   d="M154.47,460.28     c-1.42-3.12-1.44-6.86-0.04-9.99"
   id="path38" />&#10;		</g>&#10;		<g
   id="g40">&#10;			<path
   style="fill:#FFFFFF;stroke:#000000;stroke-width:2;stroke-linecap:round;stroke-miterlimit:10;"
   d="M441.29,189.83     c5.71-10.3-4.44-12.86-4.44-12.86s-6.98-7.07-12.75,3.33c-2.63,4.75-0.95,9.88,3.8,12.51     C432.64,195.44,438.65,194.58,441.29,189.83z"
   id="path39" />&#10;			<path
   style="fill:none;stroke:#000000;stroke-width:2;stroke-linecap:round;stroke-miterlimit:10;"
   d="M436.22,178.74     c2.39-3.56,3.17-8.16,2.1-12.32"
   id="path40" />&#10;		</g>&#10;		<g
   id="g42">&#10;			<path
   style="fill:#FFFFFF;stroke:#000000;stroke-width:2;stroke-linecap:round;stroke-miterlimit:10;"
   d="M380.34,318.23     c1.29-11.71-9.06-10.15-9.06-10.15s-9.17-3.83-10.48,8c-0.59,5.39,2.94,9.48,8.34,10.07     C374.54,326.74,379.75,323.62,380.34,318.23z"
   id="path41" />&#10;			<path
   style="fill:none;stroke:#000000;stroke-width:2;stroke-linecap:round;stroke-miterlimit:10;"
   d="M371.39,309.96     c0.83-4.21-0.23-8.75-2.82-12.17"
   id="path42" />&#10;		</g>&#10;		<g
   id="g44">&#10;			<path
   style="fill:#FFFFFF;stroke:#000000;stroke-width:2;stroke-linecap:round;stroke-miterlimit:10;"
   d="M204.47,40.66     c2.57-11.22,11.61-7.06,11.61-7.06s9.69-1.15,7.09,10.18c-1.18,5.17-5.76,8.03-10.92,7.17S203.29,45.82,204.47,40.66z"
   id="path43" />&#10;			<path
   style="fill:none;stroke:#000000;stroke-width:2;stroke-linecap:round;stroke-miterlimit:10;"
   d="M215.39,35.32     c0.59-4.13,3.02-8.08,6.51-10.57"
   id="path44" />&#10;		</g>&#10;		<g
   id="g50">&#10;			<path
   style="fill:none;stroke:#000000;stroke-width:2;stroke-linecap:round;stroke-miterlimit:10;"
   d="M60.49,162.08     c-11.89,1.61-26.11,97.63-19.12,106.01c13.57,16.27,87.75,1.45,95-22.48C140.01,233.61,74.69,160.15,60.49,162.08z"
   id="path45" />&#10;			<path
   style="fill:none;stroke:#000000;stroke-width:2;stroke-linecap:round;stroke-miterlimit:10;"
   d="M133.37,235.81     c-20.74,18.94-55.79,28.16-93.83,22.16"
   id="path46" />&#10;			<ellipse
   cx="62.24"
   cy="189.89"
   rx="2.67"
   ry="4.57"
   id="ellipse46" />&#10;			<path
   d="M74.645,214.06c1.418-0.385,3.107,1.289,3.774,3.741c0.667,2.452,0.058,4.751-1.36,5.137     c-1.418,0.386-3.107-1.289-3.774-3.741C72.618,216.746,73.227,214.446,74.645,214.06z"
   id="path47" />&#10;			<path
   d="M56.437,233.439c1.467-0.151,2.866,1.761,3.125,4.272c0.259,2.511-0.72,4.669-2.187,4.82     c-1.467,0.151-2.866-1.761-3.125-4.272C53.992,235.748,54.971,233.59,56.437,233.439z"
   id="path48" />&#10;			<path
   d="M102.007,231.741c1.262-0.709,3.306,0.536,4.566,2.78c1.26,2.244,1.259,4.638-0.002,5.346     c-1.262,0.709-3.306-0.536-4.566-2.78C100.744,234.843,100.745,232.45,102.007,231.741z"
   id="path49" />&#10;			<path
   d="M81.212,192.693c1.18-0.818,3.333,0.244,4.809,2.373c1.476,2.129,1.715,4.517,0.535,5.336     c-1.18,0.818-3.333-0.244-4.809-2.373C80.272,195.9,80.032,193.511,81.212,192.693z"
   id="path50" />&#10;		</g>&#10;		<g
   id="g52">&#10;			<path
   style="fill:#FFFFFF;stroke:#000000;stroke-width:2;stroke-linecap:round;stroke-miterlimit:10;"
   d="M63.54,362.68     c-4.08-11.05-12.64-5.03-12.64-5.03s-9.91,0.68-5.79,11.84c1.88,5.09,6.87,7.16,11.96,5.28     C62.16,372.89,65.42,367.77,63.54,362.68z"
   id="path51" />&#10;			<path
   style="fill:none;stroke:#000000;stroke-width:2;stroke-linecap:round;stroke-miterlimit:10;"
   d="M51.83,359.29     c-1.14-4.14-4.11-7.73-7.97-9.62"
   id="path52" />&#10;		</g>&#10;		<g
   id="g59">&#10;			<path
   style="fill:none;stroke:#000000;stroke-width:2;stroke-linecap:round;stroke-miterlimit:10;"
   d="M442.89,266.24     c-10.49-3.67-64.87,72.81-62.85,82.98c3.91,19.75,71.45,38.55,88.05,21.07C476.41,361.51,455.41,270.62,442.89,266.24z"
   id="path53" />&#10;			<path
   style="fill:none;stroke:#000000;stroke-width:2;stroke-linecap:round;stroke-miterlimit:10;"
   d="M469.98,360.59     c-25.46,7.46-58.36,0.48-86.94-20.85"
   id="path54" />&#10;			<path
   d="M429.766,289.773c1.122-2.168,3.014-3.417,4.225-2.79c1.212,0.627,1.284,2.893,0.162,5.061     c-1.122,2.168-3.014,3.417-4.225,2.79C428.717,294.207,428.645,291.941,429.766,289.773z"
   id="path55" />&#10;			<path
   d="M428.043,320.686c0.566-2.38,2.096-4.055,3.418-3.741c1.322,0.314,1.935,2.499,1.369,4.879     c-0.566,2.38-2.096,4.055-3.418,3.741C428.09,325.25,427.478,323.066,428.043,320.686z"
   id="path56" />&#10;			<path
   d="M403.881,329.039c0.913-2.264,2.679-3.686,3.944-3.175c1.265,0.51,1.551,2.759,0.638,5.023     c-0.913,2.264-2.679,3.685-3.944,3.175S402.968,331.303,403.881,329.039z"
   id="path57" />&#10;			<path
   d="M443.631,348.219c0.003-2.463,1.103-4.458,2.456-4.457c1.353,0.002,2.447,2,2.444,4.463     c-0.003,2.463-1.103,4.458-2.456,4.457C444.722,352.68,443.628,350.682,443.631,348.219z"
   id="path58" />&#10;			<path
   d="M446.403,301.364c1.342-0.121,2.61,1.779,2.833,4.243c0.222,2.464-0.686,4.56-2.028,4.681     c-1.342,0.121-2.61-1.779-2.833-4.243C444.153,303.581,445.061,301.485,446.403,301.364z"
   id="path59" />&#10;		</g>&#10;		<path
   style="fill:#FFFFFF;stroke:#000000;stroke-width:2;stroke-linecap:round;stroke-linejoin:round;stroke-miterlimit:10;"
   d="    M288.3,430.72c0,0-13.79-10.24-20.67,0.05c-10.54,15.78,21.74,32.1,28.27,30.82c7.14-1.41,26.63-34.79,10.25-40.66    C293.83,416.5,288.3,430.72,288.3,430.72z"
   id="path60" />&#10;		<path
   style="fill:#FFFFFF;stroke:#000000;stroke-width:2;stroke-linecap:round;stroke-linejoin:round;stroke-miterlimit:10;"
   d="    M114.66,306.73c0,0-12.13-20-26.05-10.54c-21.36,14.51,10.93,51.67,19.81,53.39c9.71,1.89,51.36-30.26,33.74-46.06    C128.9,291.63,114.66,306.73,114.66,306.73z"
   id="path61" />&#10;		<path
   style="fill:#FFFFFF;stroke:#000000;stroke-width:2;stroke-linecap:round;stroke-linejoin:round;stroke-miterlimit:10;"
   d="    M400.09,225.04c0,0-7.99-19.95-22.05-13.49c-21.58,9.91,2.13,48.45,9.93,51.36c8.53,3.18,51.18-19.62,37.57-36.61    C415.3,213.51,400.09,225.04,400.09,225.04z"
   id="path62" />&#10;	</g>&#10;	<g
   id="g111">&#10;		<g
   id="g81">&#10;			<path
   style="fill:#FFFFFF;stroke:#000000;stroke-width:2;stroke-linecap:round;stroke-linejoin:round;stroke-miterlimit:10;"
   d="     M172.13,282.59c0,0-9.02,163.62,21.69,172.13c36.15,10.02,126.51-134.15,126.51-134.15L172.13,282.59z"
   id="path63" />&#10;			<path
   style="fill:#FFFFFF;stroke:#000000;stroke-width:2;stroke-linecap:round;stroke-linejoin:round;stroke-miterlimit:10;"
   d="     M333.33,308.86c31.86-32.03,17.56-84.22-16.74-108.58c-31.54-22.4-89.14-34.53-120.25-6.27c-18.66,16.96-23.29,38.46-25.35,56.8     c-0.45,4.01-3.17,7.68-5.84,10.72c-6.15,7-12.47,17.02-9.78,25.98c7.52,25.05,43.66,6.39,60.5,12.63     c10.13,3.75,12.13,18.47,21.87,23.13c19.93,9.52,52.62-18.73,50.91,27.03c-0.36,9.62-2.68,19.7,1.29,28.49     c6.26,13.86,26.24,16.81,36.4,5.41C345.72,362.46,314.08,328.22,333.33,308.86z"
   id="path64" />&#10;			<g
   id="g72">&#10;				<path
   style="fill:none;stroke:#000000;stroke-linecap:round;stroke-miterlimit:10;"
   d="M171.43,320.08      c13.63-7.6,27.72-14.38,42.17-20.3"
   id="path65" />&#10;				<path
   style="fill:none;stroke:#000000;stroke-linecap:round;stroke-miterlimit:10;"
   d="M171.85,355.87      c23.99-12.16,49.06-22.25,74.81-30.11"
   id="path66" />&#10;				<path
   style="fill:none;stroke:#000000;stroke-linecap:round;stroke-miterlimit:10;"
   d="M174.27,403.07      c40.08-10.26,78.63-26.38,114.03-47.68"
   id="path67" />&#10;				<path
   style="fill:none;stroke:#000000;stroke-linecap:round;stroke-miterlimit:10;"
   d="M183.64,443.34      c21.04-3.94,41.5-10.89,60.55-20.57"
   id="path68" />&#10;				<path
   style="fill:none;stroke:#000000;stroke-linecap:round;stroke-miterlimit:10;"
   d="M184.09,302.27      c11.59,45.75,27.12,90.51,46.37,133.63"
   id="path69" />&#10;				<path
   style="fill:none;stroke:#000000;stroke-linecap:round;stroke-miterlimit:10;"
   d="M175.07,409.14      c4.67,16.27,12.18,31.73,22.1,45.49"
   id="path70" />&#10;				<path
   style="fill:none;stroke:#000000;stroke-linecap:round;stroke-miterlimit:10;"
   d="M236.77,322.77      c9.24,25.46,18.48,50.91,27.71,76.37"
   id="path71" />&#10;				<path
   style="fill:none;stroke:#000000;stroke-linecap:round;stroke-miterlimit:10;"
   d="M272.59,323.46      c5.73,13.15,10.6,26.68,14.55,40.46"
   id="path72" />&#10;			</g>&#10;			<g
   id="g80">&#10;				&#10;					<path
   style="fill:#FFFFFF;stroke:#000000;stroke-width:2;stroke-linecap:round;stroke-linejoin:round;stroke-miterlimit:10;"
   d="      M217.77,221.62c-2.35-4.72-4.93-8.22-0.98-10.18c4.06-2.02,5.18,2.2,7.53,6.92c2.35,4.72,4.42,8.51,0.98,10.18      C222.36,229.98,220.12,226.35,217.77,221.62z"
   id="path73" />&#10;				&#10;					<path
   style="fill:#FFFFFF;stroke:#000000;stroke-width:2;stroke-linecap:round;stroke-linejoin:round;stroke-miterlimit:10;"
   d="      M272.75,209.16c3.94-3.5,6.64-6.9,9.57-3.61c3.01,3.39-0.77,5.57-4.71,9.08c-3.94,3.5-7.06,6.49-9.57,3.61      C265.89,215.77,268.81,212.66,272.75,209.16z"
   id="path74" />&#10;				&#10;					<path
   style="fill:#FFFFFF;stroke:#000000;stroke-width:2;stroke-linecap:round;stroke-linejoin:round;stroke-miterlimit:10;"
   d="      M245.94,267.92c5.25,0.47,9.58,0.11,9.19,4.49c-0.4,4.52-4.59,3.26-9.84,2.79s-9.57-0.69-9.19-4.49      C236.43,267.46,240.69,267.45,245.94,267.92z"
   id="path75" />&#10;				&#10;					<path
   style="fill:#FFFFFF;stroke:#000000;stroke-width:2;stroke-linecap:round;stroke-linejoin:round;stroke-miterlimit:10;"
   d="      M296.62,250.39c3.43,4.01,6.78,6.77,3.43,9.64c-3.45,2.95-5.56-0.87-8.99-4.88c-3.43-4.01-6.36-7.18-3.43-9.64      C290.14,243.4,293.19,246.38,296.62,250.39z"
   id="path76" />&#10;				&#10;					<path
   style="fill:#FFFFFF;stroke:#000000;stroke-width:2;stroke-linecap:round;stroke-linejoin:round;stroke-miterlimit:10;"
   d="      M353.43,251.98c1.33,5.11,3.13,9.06-1.14,10.17c-4.39,1.14-4.61-3.22-5.94-8.33c-1.33-5.11-2.57-9.24,1.14-10.17      C350.67,242.86,352.1,246.87,353.43,251.98z"
   id="path77" />&#10;				&#10;					<path
   style="fill:#FFFFFF;stroke:#000000;stroke-width:2;stroke-linecap:round;stroke-linejoin:round;stroke-miterlimit:10;"
   d="      M309.59,303.42c4.3-3.06,7.35-6.15,9.9-2.56c2.63,3.7-1.37,5.46-5.67,8.52c-4.3,3.06-7.72,5.69-9.9,2.56      C302.05,309.24,305.29,306.47,309.59,303.42z"
   id="path78" />&#10;				&#10;					<path
   style="fill:#FFFFFF;stroke:#000000;stroke-width:2;stroke-linecap:round;stroke-linejoin:round;stroke-miterlimit:10;"
   d="      M156.91,266c2.52-4.64,3.9-8.75,7.77-6.65c3.99,2.17,1.17,5.5-1.35,10.14c-2.52,4.64-4.44,8.51-7.77,6.65      C152.7,274.55,154.39,270.64,156.91,266z"
   id="path79" />&#10;				&#10;					<path
   style="fill:#FFFFFF;stroke:#000000;stroke-width:2;stroke-linecap:round;stroke-linejoin:round;stroke-miterlimit:10;"
   d="      M193.96,280.76c5.28,0,9.55-0.75,9.55,3.66c0,4.54-4.28,3.66-9.55,3.66c-5.28,0-9.59,0.16-9.55-3.66      C184.44,281.14,188.68,280.76,193.96,280.76z"
   id="path80" />&#10;			</g>&#10;		</g>&#10;		<g
   id="g110">&#10;			<g
   id="g82">&#10;				<path
   style="fill:#FFFFFF;stroke:#000000;stroke-width:2;stroke-linecap:round;stroke-miterlimit:10;"
   d="M330.67,192.54      c11.26,3.37,24.54-2.48,29.66-13.06c1.96-4.06,2.81-8.6,4.96-12.56c2.15-3.96,6.28-7.43,10.74-6.75      c3.37,0.51,6.05,3.35,7.17,6.57c1.12,3.22,0.91,6.75,0.31,10.1c-2.25,12.48-10.08,23.84-20.93,30.38      c-10.85,6.54-24.56,8.17-36.64,4.34C326.48,205.24,327.02,198.92,330.67,192.54z"
   id="path81" />&#10;				<path
   style="fill:none;stroke:#000000;stroke-width:2;stroke-linecap:round;stroke-miterlimit:10;"
   d="M358.01,183.39      c3.87-1.08,8.22-0.32,11.49,2.01c3.27,2.33,5.43,6.18,5.68,10.19"
   id="path82" />&#10;			</g>&#10;			<g
   id="g85">&#10;				<path
   style="fill:#FFFFFF;stroke:#000000;stroke-width:2;stroke-linecap:round;stroke-miterlimit:10;"
   d="M177.68,188      c-12.43,10.34-19.04,27.74-16.74,44.04c0.74,5.21,2.4,10.43,5.76,14.36c3.36,3.93,8.63,6.34,13.59,5.18      c6.84-1.6,10.94-9.27,11.69-16.51c0.76-7.24-0.9-14.49-1.08-21.77c-0.18-7.28,1.57-15.34,7.27-19.6      C191.22,191.65,184.27,189.59,177.68,188z"
   id="path83" />&#10;				<path
   style="fill:none;stroke:#000000;stroke-width:2;stroke-linecap:round;stroke-miterlimit:10;"
   d="M185.82,247.55      c-2.31-2.32-3.55-5.65-3.33-8.91"
   id="path84" />&#10;				<path
   style="fill:none;stroke:#000000;stroke-width:2;stroke-linecap:round;stroke-miterlimit:10;"
   d="M175.18,251.61      c-2.48-2.42-3.65-6.12-3-9.53"
   id="path85" />&#10;			</g>&#10;			<g
   id="g88">&#10;				<path
   style="fill:#FFFFFF;stroke:#000000;stroke-width:2;stroke-linecap:round;stroke-miterlimit:10;"
   d="M310.37,171.31      c63.03,11.46,30.23,84.34,10.92,45.37c-5.68-11.46-20.04-26.89-33.8-30.57c0,0.08,0,0.17,0,0.25"
   id="path86" />&#10;				<path
   style="fill:none;stroke:#000000;stroke-width:2;stroke-linecap:round;stroke-miterlimit:10;"
   d="M328.59,226.42      c1.55-3.52,2.11-7.46,1.62-11.27"
   id="path87" />&#10;				<path
   style="fill:none;stroke:#000000;stroke-width:2;stroke-linecap:round;stroke-miterlimit:10;"
   d="M341.69,223.12      c0.73-3.76-0.09-7.8-2.24-10.98"
   id="path88" />&#10;			</g>&#10;			<g
   id="g109">&#10;				<g
   id="g92">&#10;					<g
   id="g89">&#10;						<path
   style="fill:#FFFFFF;stroke:#000000;stroke-width:2;stroke-linecap:round;stroke-miterlimit:10;"
   d="M275.03,193.02        c39.97-7.68,76.74-36.03,41.3-88.37c-2.39-58-24-80.33-69.44-31.94c-10.93-0.47-22.81,0.81-33.48,3.6        c-58.87-35.31-70.73-11.16-62.66,47.53C120.03,214.43,216.43,204.29,275.03,193.02z"
   id="path89" />&#10;					</g>&#10;					<g
   id="g91">&#10;						&#10;							<path
   style="fill:#FFFFFF;stroke:#000000;stroke-width:2;stroke-linecap:round;stroke-linejoin:round;stroke-miterlimit:10;"
   d="        M299.58,83.89c0,0-3.28-24.3-10.95-24.86c-7.66-0.56-20.83,12.65-20.83,12.65S286.07,74.72,299.58,83.89z"
   id="path90" />&#10;						&#10;							<path
   style="fill:#FFFFFF;stroke:#000000;stroke-width:2;stroke-linecap:round;stroke-linejoin:round;stroke-miterlimit:10;"
   d="        M161.3,104.33c0,0-3.04-23.01,4.23-26.3s23.15,6.34,23.15,6.34S170.49,95.27,161.3,104.33z"
   id="path91" />&#10;					</g>&#10;				</g>&#10;				<g
   id="g98">&#10;					<g
   id="g93">&#10;						<path
   d="M233.42,150.67c-0.17-1.37,1.63-2.72,4.02-3.03c2.39-0.3,4.47,0.56,4.64,1.93c0.11,0.88-1.58,1.88-2.8,2.48        c-0.79,0.39-1.68,0.5-2.54,0.32C235.41,152.1,233.53,151.55,233.42,150.67z"
   id="path92" />&#10;					</g>&#10;					<g
   id="g96">&#10;						&#10;							<path
   style="fill:#FFFFFF;stroke:#000000;stroke-width:2;stroke-linecap:round;stroke-linejoin:round;stroke-miterlimit:10;"
   d="        M228.07,159.98c0,0,2.25,20.4,13.91,18.92c11.72-1.48,8.77-21.79,8.77-21.79"
   id="path93" />&#10;						<g
   id="g95">&#10;							<path
   style="fill:#FFFFFF;stroke:#000000;stroke-width:2;stroke-linecap:round;stroke-miterlimit:10;"
   d="M226.42,159.33         c1.94,1.47,4.51,2.08,6.9,1.63c2.39-0.45,4.56-1.96,5.83-4.04"
   id="path94" />&#10;							<path
   style="fill:#FFFFFF;stroke:#000000;stroke-width:2;stroke-linecap:round;stroke-miterlimit:10;"
   d="M252.08,156.09         c-1.51,1.91-3.85,3.14-6.28,3.29c-2.43,0.15-4.91-0.76-6.65-2.46"
   id="path95" />&#10;						</g>&#10;						<path
   style="fill:none;stroke:#000000;stroke-width:2;stroke-linecap:round;stroke-linejoin:round;stroke-miterlimit:10;"
   d="        M232.1,172.6c5.15-3.42,11.97-4.18,17.75-2"
   id="path96" />&#10;					</g>&#10;					<path
   style="fill:#FFFFFF;stroke:#000000;stroke-width:2;stroke-linecap:round;stroke-miterlimit:10;"
   d="M214.04,153.99       c-0.86-5.87-6.77-10.53-12.67-10c-5.91,0.53-10.89,6.17-10.69,12.1"
   id="path97" />&#10;					<path
   style="fill:#FFFFFF;stroke:#000000;stroke-width:2;stroke-linecap:round;stroke-miterlimit:10;"
   d="M285.22,144.55       c-1.09-5.83-7.18-10.25-13.06-9.49c-5.88,0.77-10.63,6.6-10.19,12.52"
   id="path98" />&#10;				</g>&#10;				<g
   id="g100">&#10;					<path
   style="fill:none;stroke:#000000;stroke-linecap:round;stroke-miterlimit:10;"
   d="M148.71,160.46       c-10.85-2.38-22.42-1.39-32.71,2.79"
   id="path99" />&#10;					<path
   style="fill:none;stroke:#000000;stroke-linecap:round;stroke-miterlimit:10;"
   d="M154.63,178.13       c-10.15,3-19.44,8.85-26.54,16.71"
   id="path100" />&#10;				</g>&#10;				<g
   id="g102">&#10;					<path
   style="fill:none;stroke:#000000;stroke-linecap:round;stroke-miterlimit:10;"
   d="M325.06,135.02       c10.48-5.51,22.83-7.38,34.48-5.21"
   id="path101" />&#10;					<path
   style="fill:none;stroke:#000000;stroke-linecap:round;stroke-miterlimit:10;"
   d="M327.44,152.95       c10.86-0.77,21.9,1.19,31.82,5.66"
   id="path102" />&#10;				</g>&#10;				<g
   id="g108">&#10;					<path
   style="fill:none;stroke:#000000;stroke-linecap:round;stroke-miterlimit:10;"
   d="M215.11,76.34       c0.99,5.11,2.58,10.11,4.73,14.86c0.84,1.85,2.22,3.95,4.24,3.83c1.44-0.08,2.59-1.36,2.99-2.74c0.4-1.38,0.23-2.86,0.05-4.29       c-0.58-4.62-1.17-9.24-1.75-13.86"
   id="path103" />&#10;					<path
   style="fill:none;stroke:#000000;stroke-linecap:round;stroke-miterlimit:10;"
   d="M231.1,73.68       c0.62,5.61,1.37,11.33,3.84,16.41c0.87,1.79,2.46,3.73,4.42,3.36c1.1-0.21,1.95-1.15,2.36-2.19s0.46-2.18,0.51-3.3       c0.21-5.03,0.42-10.06,0.63-15.1"
   id="path104" />&#10;					<path
   style="fill:none;stroke:#000000;stroke-linecap:round;stroke-miterlimit:10;"
   d="M319.89,109.44       c-5.47,3.52-10.93,7.04-16.4,10.56c-1.71,1.1-3.63,2.59-3.52,4.62c0.12,2.25,2.67,3.53,4.9,3.87       c7.44,1.13,14.62-2.75,21.15-6.5"
   id="path105" />&#10;					<path
   style="fill:none;stroke:#000000;stroke-linecap:round;stroke-miterlimit:10;"
   d="M328.27,128.59       c-5.17,2.75-10.34,5.5-15.51,8.24c-1.4,0.74-2.83,1.51-3.89,2.68c-1.07,1.17-1.71,2.86-1.25,4.37       c0.73,2.36,3.62,3.22,6.08,3.37c5.62,0.35,11.33-1.07,16.14-3.99"
   id="path106" />&#10;					<path
   style="fill:none;stroke:#000000;stroke-linecap:round;stroke-miterlimit:10;"
   d="M147.74,135.82       c5.56,1.33,11.12,2.67,16.68,4c1.81,0.43,3.91,1.12,4.49,2.89c0.38,1.14-0.05,2.43-0.83,3.34s-1.87,1.5-2.98,1.96       c-6.09,2.54-12.99,1.86-19.55,1.12"
   id="path107" />&#10;					<path
   style="fill:none;stroke:#000000;stroke-linecap:round;stroke-miterlimit:10;"
   d="M144.72,156.17       c5.7,0.43,11.41,0.86,17.11,1.28c1.96,0.15,4.25,0.5,5.16,2.24c0.69,1.32,0.26,3-0.69,4.15c-0.95,1.14-2.32,1.85-3.68,2.44       c-4.97,2.18-10.38,3.36-15.81,3.46"
   id="path108" />&#10;				</g>&#10;			</g>&#10;		</g>&#10;	</g>&#10;</g>&#10;</svg>
