<svg viewBox="0 0 500 500" xmlns="http://www.w3.org/2000/svg"><path d="M82.53 390.43c9.02-15.44 24.24-12.58 39.42-2.9s24.58 22.52 15.56 37.96c-9.02 15.44-36.37 35.84-51.55 26.16s-12.45-45.78-3.43-61.22z" fill="#fff" stroke="#000" stroke-width="2" stroke-linecap="round" stroke-linejoin="round" stroke-miterlimit="10"/><path d="M139.65 396.04c-.81-1.86-2.18-3.4-3.52-4.91-2.93-3.27-6.16-6.17-9.6-8.58l8.41-6.19c1.42-1.04 2.97-2.34 3.03-4.15.06-1.95-1.81-3.59-3.7-3.79-1.89-.2-3.71.66-5.28 1.72-3.34 2.26-6 5.52-7.66 9.27-1.76-.9-3.56-1.68-5.39-2.29a31.755 31.755 0 00-13.49-1.48c-1.8.2-3.88.8-4.46 2.56-.76 2.33 1.79 4.54 4.15 5.01s4.92.09 7.07 1.22c-2.2.08-3.56 2.92-2.74 5.06.81 2.14 3.15 3.37 5.36 3.42 2.21.05 4.3-.86 6.23-1.91-.54 1.95-.51 4.16.44 5.98.95 1.82 2.92 3.14 4.89 2.95 1.97-.2 3.68-2.14 3.38-4.18.92 2.91 2.43 5.83 4.99 7.4 2.56 1.57 6.32 1.27 7.86-1.28 1.02-1.71.84-3.97.03-5.83z" fill="#fff" stroke="#000" stroke-width="2" stroke-linecap="round" stroke-linejoin="round" stroke-miterlimit="10"/><path d="M128.467 415.365c.567-1.883 1.892-3.148 2.961-2.827 1.068.322 1.475 2.109.908 3.991-.567 1.883-1.892 3.148-2.961 2.827-1.068-.321-1.475-2.108-.908-3.991zM105.002 412.528c.95-1.702 2.518-2.637 3.502-2.088.984.549 1.011 2.374.061 4.077-.95 1.702-2.518 2.637-3.502 2.088-.984-.549-1.011-2.375-.061-4.077zM85.962 419.117c.724-1.822 2.151-2.965 3.188-2.554 1.037.412 1.291 2.223.567 4.045s-2.151 2.965-3.188 2.554c-1.037-.411-1.291-2.222-.567-4.045zM112.353 431.004c1.279-1.457 3.006-2.032 3.856-1.285.851.747.503 2.533-.776 3.99s-3.006 2.032-3.856 1.285c-.851-.747-.503-2.534.776-3.99zM90.406 441.538c1.164-1.557 2.843-2.27 3.75-1.592.907.678.698 2.49-.466 4.047-1.164 1.557-2.843 2.27-3.75 1.592-.906-.678-.698-2.49.466-4.047zM92.12 391.156c1.288-1.449 3.018-2.014 3.864-1.262.846.752.489 2.536-.799 3.986-1.288 1.449-3.018 2.014-3.864 1.262-.847-.752-.489-2.537.799-3.986z"/><path d="M398.18 412.93c-8.22-15.78-23.85-13.91-39.85-5.31s-26.31 20.66-18.09 36.44S375 481.64 391 473.04s15.41-44.33 7.18-60.11z" fill="#fff" stroke="#000" stroke-width="2" stroke-linecap="round" stroke-linejoin="round" stroke-miterlimit="10"/><path d="M339.86 414.91c.94-1.78 2.41-3.22 3.87-4.62 3.17-3.04 6.62-5.7 10.27-7.86-2.72-2.21-5.45-4.41-8.17-6.62-1.38-1.12-2.88-2.49-2.83-4.28.05-1.93 2.05-3.42 3.99-3.51s3.73.88 5.26 2.03c3.25 2.43 5.76 5.81 7.22 9.61 1.84-.78 3.71-1.43 5.61-1.93 4.51-1.17 9.24-1.39 13.79-.62 1.82.31 3.89 1.03 4.37 2.8.63 2.34-2.09 4.36-4.51 4.68-2.43.32-5-.22-7.25.77 2.23.22 3.44 3.1 2.48 5.16-.96 2.05-3.4 3.12-5.65 3.03-2.24-.09-4.32-1.12-6.21-2.27.44 1.96.27 4.13-.81 5.87-1.08 1.73-3.16 2.92-5.14 2.6-1.99-.32-3.61-2.34-3.18-4.32-1.11 2.81-2.82 5.59-5.51 6.99-2.69 1.4-6.49.86-7.9-1.75-.96-1.76-.64-3.98.3-5.76z" fill="#fff" stroke="#000" stroke-width="2" stroke-linecap="round" stroke-linejoin="round" stroke-miterlimit="10"/><path d="M347.2 431.684c1.098-.278 2.375 1.029 2.854 2.919.479 1.89-.023 3.647-1.121 3.925s-2.375-1.029-2.854-2.919c-.478-1.889.024-3.647 1.121-3.925zM370.568 431.081c1.007-.517 2.541.463 3.426 2.188.885 1.725.785 3.542-.222 4.059-1.007.517-2.541-.463-3.426-2.188-.885-1.725-.785-3.542.222-4.059zM389.896 438.293c1.068-.375 2.457.807 3.101 2.642.644 1.834.301 3.625-.767 4.001-1.068.375-2.457-.807-3.101-2.642-.645-1.835-.302-3.626.767-4.001zM361.535 449.613c.878-.724 2.589-.099 3.823 1.396 1.234 1.495 1.522 3.294.645 4.018-.878.724-2.589.099-3.823-1.396-1.234-1.494-1.523-3.294-.645-4.018zM383.355 461.086c.932-.652 2.589.107 3.7 1.696 1.111 1.589 1.256 3.405.323 4.057-.932.652-2.589-.107-3.7-1.696-1.11-1.589-1.255-3.405-.323-4.057zM384.539 411.597c.873-.729 2.589-.115 3.831 1.373 1.243 1.488 1.542 3.285.669 4.015-.873.729-2.589.115-3.831-1.373s-1.542-3.286-.669-4.015z"/><g><path d="M426.31 83.8c-8.21-15.78-23.84-13.93-39.84-5.35s-26.33 20.64-18.13 36.42c8.2 15.78 34.72 37.61 50.73 29.03 16-8.57 15.44-44.31 7.24-60.1z" fill="#fff" stroke="#000" stroke-width="2" stroke-linecap="round" stroke-linejoin="round" stroke-miterlimit="10"/><path d="M367.98 85.72c.94-1.78 2.42-3.22 3.88-4.61 3.18-3.04 6.63-5.7 10.27-7.85l-8.16-6.63c-1.38-1.12-2.88-2.49-2.82-4.29.06-1.93 2.06-3.42 3.99-3.5 1.93-.08 3.73.89 5.25 2.03 3.25 2.44 5.75 5.82 7.21 9.61 1.84-.78 3.71-1.43 5.61-1.92 4.51-1.17 9.24-1.38 13.79-.61 1.82.31 3.89 1.03 4.37 2.81.63 2.34-2.09 4.36-4.52 4.68-2.43.31-5-.23-7.25.76 2.23.22 3.43 3.1 2.48 5.16-.96 2.05-3.41 3.12-5.65 3.03-2.24-.09-4.31-1.12-6.21-2.28.43 1.96.26 4.13-.82 5.86-1.08 1.73-3.16 2.91-5.15 2.59s-3.6-2.34-3.18-4.33c-1.11 2.81-2.83 5.59-5.52 6.98s-6.5.86-7.9-1.76c-.93-1.73-.61-3.95.33-5.73z" fill="#fff" stroke="#000" stroke-width="2" stroke-linecap="round" stroke-linejoin="round" stroke-miterlimit="10"/><path d="M375.326 102.494c1.098-.277 2.374 1.031 2.851 2.922.477 1.89-.027 3.647-1.125 3.924-1.098.277-2.374-1.031-2.851-2.922-.476-1.89.028-3.647 1.125-3.924zM398.655 101.879c1.008-.516 2.541.465 3.424 2.191.883 1.726.782 3.543-.226 4.058-1.008.516-2.541-.465-3.424-2.191s-.782-3.542.226-4.058zM417.941 109.177c1.069-.374 2.456.81 3.098 2.645s.297 3.625-.772 3.999c-1.069.374-2.455-.81-3.098-2.645-.642-1.835-.296-3.625.772-3.999zM389.648 120.453c.878-.723 2.589-.096 3.821 1.4 1.232 1.496 1.519 3.296.641 4.019-.878.723-2.589.096-3.821-1.4-1.232-1.497-1.519-3.296-.641-4.019zM411.449 131.899c.933-.651 2.589.11 3.698 1.7 1.109 1.59 1.252 3.406.319 4.058-.933.651-2.589-.11-3.698-1.7-1.109-1.59-1.252-3.407-.319-4.058zM412.659 82.481c.874-.728 2.589-.112 3.83 1.378 1.241 1.489 1.539 3.287.665 4.015-.874.728-2.589.112-3.83-1.378-1.242-1.489-1.539-3.287-.665-4.015z"/></g><g><path d="M55.54 91.37c-3.53-17.44 9.79-25.81 27.64-29.19 17.85-3.38 33.45-.49 36.98 16.95 3.53 17.44-3.38 51.08-21.23 54.46-17.84 3.38-39.86-24.78-43.39-42.22z" fill="#fff" stroke="#000" stroke-width="2" stroke-linecap="round" stroke-linejoin="round" stroke-miterlimit="10"/><path d="M102.13 56.22c-1.85-.8-3.9-.98-5.91-1.15-4.38-.37-8.74-.27-12.92.35.73-3.43 1.46-6.86 2.18-10.29.37-1.73.67-3.75-.5-5.11-1.26-1.47-3.75-1.37-5.31-.22-1.56 1.15-2.34 3.03-2.81 4.88-1 3.94-.82 8.14.43 12.01-1.92.55-3.79 1.22-5.57 2.03a33.236 33.236 0 00-11.11 8.19c-1.22 1.38-2.38 3.25-1.63 4.93.98 2.21 4.37 2.08 6.45.8 2.09-1.28 3.75-3.31 6.12-3.97-1.6 1.57-.72 4.57 1.31 5.57 2.04 1 4.61.29 6.3-1.19 1.69-1.48 2.65-3.58 3.4-5.68.89 1.8 2.39 3.38 4.32 4.05s4.29.28 5.64-1.22c1.35-1.5 1.33-4.09-.25-5.36 2.63 1.49 5.71 2.57 8.68 1.96 2.97-.61 5.59-3.41 5.04-6.33-.37-1.93-2.01-3.45-3.86-4.25z" fill="#fff" stroke="#000" stroke-width="2" stroke-linecap="round" stroke-linejoin="round" stroke-miterlimit="10"/><path d="M106.973 73.871c1.028-.474 2.524.576 3.34 2.346.817 1.77.646 3.59-.382 4.064-1.028.474-2.524-.576-3.34-2.346-.818-1.77-.646-3.59.382-4.064zM88.401 88.088c1.108-.232 2.328 1.118 2.726 3.016.397 1.897-.179 3.624-1.287 3.856s-2.328-1.118-2.726-3.016c-.397-1.897.179-3.624 1.287-3.856zM77.97 105.851c1.066-.38 2.46.796 3.113 2.627s.318 3.624-.748 4.004c-1.066.38-2.46-.796-3.113-2.627s-.318-3.624.748-4.004zM104.989 100.338c.019-1.938.956-3.501 2.093-3.49 1.138.011 2.045 1.591 2.027 3.53-.019 1.938-.956 3.501-2.093 3.49-1.138-.011-2.045-1.591-2.027-3.53zM97.342 119.451c1.135-.08 2.165 1.423 2.301 3.357.136 1.934-.674 3.566-1.809 3.645-1.135.08-2.165-1.423-2.3-3.357-.137-1.934.673-3.566 1.808-3.645zM63.213 85.231c.03-1.938.977-3.495 2.114-3.478 1.138.018 2.035 1.603 2.005 3.542-.03 1.938-.977 3.495-2.114 3.478-1.138-.018-2.035-1.603-2.005-3.542z"/></g><g stroke="#000" stroke-width="2" stroke-linecap="round" stroke-miterlimit="10"><path d="M337.07 44.65c-3.16-8.88 5.18-9.57 5.18-9.57s6.44-4.67 9.63 4.3c1.46 4.09-.55 7.92-4.64 9.38-4.09 1.46-8.72-.02-10.17-4.11z" fill="#fff"/><path d="M342.52 36.56c-1.42-3.12-1.44-6.86-.04-9.99" fill="none"/></g><g stroke="#000" stroke-width="2" stroke-linecap="round" stroke-miterlimit="10"><path d="M436.74 417.25c-3.16-8.88 5.18-9.57 5.18-9.57s6.44-4.67 9.63 4.3c1.46 4.09-.55 7.92-4.64 9.38-4.08 1.45-8.71-.02-10.17-4.11z" fill="#fff"/><path d="M442.19 409.16c-1.42-3.12-1.44-6.86-.04-9.99" fill="none"/></g><g stroke="#000" stroke-width="2" stroke-linecap="round" stroke-miterlimit="10"><path d="M149.02 468.36c-3.16-8.88 5.18-9.57 5.18-9.57s6.44-4.67 9.63 4.3c1.46 4.09-.55 7.92-4.64 9.38s-8.72-.01-10.17-4.11z" fill="#fff"/><path d="M154.47 460.28c-1.42-3.12-1.44-6.86-.04-9.99" fill="none"/></g><g stroke="#000" stroke-width="2" stroke-linecap="round" stroke-miterlimit="10"><path d="M441.29 189.83c5.71-10.3-4.44-12.86-4.44-12.86s-6.98-7.07-12.75 3.33c-2.63 4.75-.95 9.88 3.8 12.51 4.74 2.63 10.75 1.77 13.39-2.98z" fill="#fff"/><path d="M436.22 178.74c2.39-3.56 3.17-8.16 2.1-12.32" fill="none"/></g><g stroke="#000" stroke-width="2" stroke-linecap="round" stroke-miterlimit="10"><path d="M380.34 318.23c1.29-11.71-9.06-10.15-9.06-10.15s-9.17-3.83-10.48 8c-.59 5.39 2.94 9.48 8.34 10.07 5.4.59 10.61-2.53 11.2-7.92z" fill="#fff"/><path d="M371.39 309.96c.83-4.21-.23-8.75-2.82-12.17" fill="none"/></g><g stroke="#000" stroke-width="2" stroke-linecap="round" stroke-miterlimit="10"><path d="M204.47 40.66c2.57-11.22 11.61-7.06 11.61-7.06s9.69-1.15 7.09 10.18c-1.18 5.17-5.76 8.03-10.92 7.17s-8.96-5.13-7.78-10.29z" fill="#fff"/><path d="M215.39 35.32c.59-4.13 3.02-8.08 6.51-10.57" fill="none"/></g><g><path d="M60.49 162.08c-11.89 1.61-26.11 97.63-19.12 106.01 13.57 16.27 87.75 1.45 95-22.48 3.64-12-61.68-85.46-75.88-83.53zM133.37 235.81c-20.74 18.94-55.79 28.16-93.83 22.16" fill="none" stroke="#000" stroke-width="2" stroke-linecap="round" stroke-miterlimit="10"/><ellipse cx="62.24" cy="189.89" rx="2.67" ry="4.57"/><path d="M74.645 214.06c1.418-.385 3.107 1.289 3.774 3.741.667 2.452.058 4.751-1.36 5.137-1.418.386-3.107-1.289-3.774-3.741-.667-2.451-.058-4.751 1.36-5.137zM56.437 233.439c1.467-.151 2.866 1.761 3.125 4.272.259 2.511-.72 4.669-2.187 4.82-1.467.151-2.866-1.761-3.125-4.272-.258-2.511.721-4.669 2.187-4.82zM102.007 231.741c1.262-.709 3.306.536 4.566 2.78 1.26 2.244 1.259 4.638-.002 5.346-1.262.709-3.306-.536-4.566-2.78-1.261-2.244-1.26-4.637.002-5.346zM81.212 192.693c1.18-.818 3.333.244 4.809 2.373 1.476 2.129 1.715 4.517.535 5.336-1.18.818-3.333-.244-4.809-2.373-1.475-2.129-1.715-4.518-.535-5.336z"/></g><g stroke="#000" stroke-width="2" stroke-linecap="round" stroke-miterlimit="10"><path d="M63.54 362.68c-4.08-11.05-12.64-5.03-12.64-5.03s-9.91.68-5.79 11.84c1.88 5.09 6.87 7.16 11.96 5.28 5.09-1.88 8.35-7 6.47-12.09z" fill="#fff"/><path d="M51.83 359.29c-1.14-4.14-4.11-7.73-7.97-9.62" fill="none"/></g><g><path d="M442.89 266.24c-10.49-3.67-64.87 72.81-62.85 82.98 3.91 19.75 71.45 38.55 88.05 21.07 8.32-8.78-12.68-99.67-25.2-104.05zM469.98 360.59c-25.46 7.46-58.36.48-86.94-20.85" fill="none" stroke="#000" stroke-width="2" stroke-linecap="round" stroke-miterlimit="10"/><path d="M429.766 289.773c1.122-2.168 3.014-3.417 4.225-2.79 1.212.627 1.284 2.893.162 5.061s-3.014 3.417-4.225 2.79c-1.211-.627-1.283-2.893-.162-5.061zM428.043 320.686c.566-2.38 2.096-4.055 3.418-3.741 1.322.314 1.935 2.499 1.369 4.879-.566 2.38-2.096 4.055-3.418 3.741-1.322-.315-1.934-2.499-1.369-4.879zM403.881 329.039c.913-2.264 2.679-3.686 3.944-3.175 1.265.51 1.551 2.759.638 5.023-.913 2.264-2.679 3.685-3.944 3.175s-1.551-2.759-.638-5.023zM443.631 348.219c.003-2.463 1.103-4.458 2.456-4.457 1.353.002 2.447 2 2.444 4.463-.003 2.463-1.103 4.458-2.456 4.457-1.353-.002-2.447-2-2.444-4.463zM446.403 301.364c1.342-.121 2.61 1.779 2.833 4.243.222 2.464-.686 4.56-2.028 4.681-1.342.121-2.61-1.779-2.833-4.243-.222-2.464.686-4.56 2.028-4.681z"/></g><path d="M288.3 430.72s-13.79-10.24-20.67.05c-10.54 15.78 21.74 32.1 28.27 30.82 7.14-1.41 26.63-34.79 10.25-40.66-12.32-4.43-17.85 9.79-17.85 9.79zM114.66 306.73s-12.13-20-26.05-10.54c-21.36 14.51 10.93 51.67 19.81 53.39 9.71 1.89 51.36-30.26 33.74-46.06-13.26-11.89-27.5 3.21-27.5 3.21zM400.09 225.04s-7.99-19.95-22.05-13.49c-21.58 9.91 2.13 48.45 9.93 51.36 8.53 3.18 51.18-19.62 37.57-36.61-10.24-12.79-25.45-1.26-25.45-1.26z" fill="#fff" stroke="#000" stroke-width="2" stroke-linecap="round" stroke-linejoin="round" stroke-miterlimit="10"/><g><g stroke="#000" stroke-linecap="round" stroke-miterlimit="10"><path d="M172.13 282.59s-9.02 163.62 21.69 172.13c36.15 10.02 126.51-134.15 126.51-134.15l-148.2-37.98z" fill="#fff" stroke-width="2" stroke-linejoin="round"/><path d="M333.33 308.86c31.86-32.03 17.56-84.22-16.74-108.58-31.54-22.4-89.14-34.53-120.25-6.27-18.66 16.96-23.29 38.46-25.35 56.8-.45 4.01-3.17 7.68-5.84 10.72-6.15 7-12.47 17.02-9.78 25.98 7.52 25.05 43.66 6.39 60.5 12.63 10.13 3.75 12.13 18.47 21.87 23.13 19.93 9.52 52.62-18.73 50.91 27.03-.36 9.62-2.68 19.7 1.29 28.49 6.26 13.86 26.24 16.81 36.4 5.41 19.38-21.74-12.26-55.98 6.99-75.34z" fill="#fff" stroke-width="2" stroke-linejoin="round"/><g fill="none"><path d="M171.43 320.08c13.63-7.6 27.72-14.38 42.17-20.3M171.85 355.87a467.431 467.431 0 0174.81-30.11M174.27 403.07c40.08-10.26 78.63-26.38 114.03-47.68M183.64 443.34c21.04-3.94 41.5-10.89 60.55-20.57M184.09 302.27a824.972 824.972 0 0046.37 133.63M175.07 409.14a147.607 147.607 0 0022.1 45.49M236.77 322.77c9.24 25.46 18.48 50.91 27.71 76.37M272.59 323.46a326.72 326.72 0 0114.55 40.46"/></g><g fill="#fff" stroke-width="2" stroke-linejoin="round"><path d="M217.77 221.62c-2.35-4.72-4.93-8.22-.98-10.18 4.06-2.02 5.18 2.2 7.53 6.92 2.35 4.72 4.42 8.51.98 10.18-2.94 1.44-5.18-2.19-7.53-6.92zM272.75 209.16c3.94-3.5 6.64-6.9 9.57-3.61 3.01 3.39-.77 5.57-4.71 9.08-3.94 3.5-7.06 6.49-9.57 3.61-2.15-2.47.77-5.58 4.71-9.08zM245.94 267.92c5.25.47 9.58.11 9.19 4.49-.4 4.52-4.59 3.26-9.84 2.79s-9.57-.69-9.19-4.49c.33-3.25 4.59-3.26 9.84-2.79zM296.62 250.39c3.43 4.01 6.78 6.77 3.43 9.64-3.45 2.95-5.56-.87-8.99-4.88-3.43-4.01-6.36-7.18-3.43-9.64 2.51-2.11 5.56.87 8.99 4.88zM353.43 251.98c1.33 5.11 3.13 9.06-1.14 10.17-4.39 1.14-4.61-3.22-5.94-8.33-1.33-5.11-2.57-9.24 1.14-10.17 3.18-.79 4.61 3.22 5.94 8.33zM309.59 303.42c4.3-3.06 7.35-6.15 9.9-2.56 2.63 3.7-1.37 5.46-5.67 8.52-4.3 3.06-7.72 5.69-9.9 2.56-1.87-2.7 1.37-5.47 5.67-8.52zM156.91 266c2.52-4.64 3.9-8.75 7.77-6.65 3.99 2.17 1.17 5.5-1.35 10.14-2.52 4.64-4.44 8.51-7.77 6.65-2.86-1.59-1.17-5.5 1.35-10.14zM193.96 280.76c5.28 0 9.55-.75 9.55 3.66 0 4.54-4.28 3.66-9.55 3.66-5.28 0-9.59.16-9.55-3.66.03-3.28 4.27-3.66 9.55-3.66z"/></g></g><g stroke="#000" stroke-width="2" stroke-linecap="round" stroke-miterlimit="10"><path d="M330.67 192.54c11.26 3.37 24.54-2.48 29.66-13.06 1.96-4.06 2.81-8.6 4.96-12.56 2.15-3.96 6.28-7.43 10.74-6.75 3.37.51 6.05 3.35 7.17 6.57s.91 6.75.31 10.1c-2.25 12.48-10.08 23.84-20.93 30.38-10.85 6.54-24.56 8.17-36.64 4.34.54-6.32 1.08-12.64 4.73-19.02z" fill="#fff"/><path d="M358.01 183.39c3.87-1.08 8.22-.32 11.49 2.01 3.27 2.33 5.43 6.18 5.68 10.19" fill="none"/></g><g stroke="#000" stroke-width="2" stroke-linecap="round" stroke-miterlimit="10"><path d="M177.68 188c-12.43 10.34-19.04 27.74-16.74 44.04.74 5.21 2.4 10.43 5.76 14.36 3.36 3.93 8.63 6.34 13.59 5.18 6.84-1.6 10.94-9.27 11.69-16.51.76-7.24-.9-14.49-1.08-21.77-.18-7.28 1.57-15.34 7.27-19.6-6.95-2.05-13.9-4.11-20.49-5.7z" fill="#fff"/><path d="M185.82 247.55c-2.31-2.32-3.55-5.65-3.33-8.91M175.18 251.61c-2.48-2.42-3.65-6.12-3-9.53" fill="none"/></g><g stroke="#000" stroke-width="2" stroke-linecap="round" stroke-miterlimit="10"><path d="M310.37 171.31c63.03 11.46 30.23 84.34 10.92 45.37-5.68-11.46-20.04-26.89-33.8-30.57v.25" fill="#fff"/><path d="M328.59 226.42c1.55-3.52 2.11-7.46 1.62-11.27M341.69 223.12c.73-3.76-.09-7.8-2.24-10.98" fill="none"/></g><path d="M275.03 193.02c39.97-7.68 76.74-36.03 41.3-88.37-2.39-58-24-80.33-69.44-31.94-10.93-.47-22.81.81-33.48 3.6-58.87-35.31-70.73-11.16-62.66 47.53-30.72 90.59 65.68 80.45 124.28 69.18z" fill="#fff" stroke="#000" stroke-width="2" stroke-linecap="round" stroke-miterlimit="10"/><g fill="#fff" stroke="#000" stroke-width="2" stroke-linecap="round" stroke-linejoin="round" stroke-miterlimit="10"><path d="M299.58 83.89s-3.28-24.3-10.95-24.86c-7.66-.56-20.83 12.65-20.83 12.65s18.27 3.04 31.78 12.21zM161.3 104.33s-3.04-23.01 4.23-26.3 23.15 6.34 23.15 6.34-18.19 10.9-27.38 19.96z"/></g><path d="M233.42 150.67c-.17-1.37 1.63-2.72 4.02-3.03 2.39-.3 4.47.56 4.64 1.93.11.88-1.58 1.88-2.8 2.48-.79.39-1.68.5-2.54.32-1.33-.27-3.21-.82-3.32-1.7z"/><g stroke="#000" stroke-width="2" stroke-linecap="round" stroke-miterlimit="10"><path d="M228.07 159.98s2.25 20.4 13.91 18.92c11.72-1.48 8.77-21.79 8.77-21.79" fill="#fff" stroke-linejoin="round"/><g fill="#fff"><path d="M226.42 159.33c1.94 1.47 4.51 2.08 6.9 1.63 2.39-.45 4.56-1.96 5.83-4.04M252.08 156.09c-1.51 1.91-3.85 3.14-6.28 3.29-2.43.15-4.91-.76-6.65-2.46"/></g><path d="M232.1 172.6c5.15-3.42 11.97-4.18 17.75-2" fill="none" stroke-linejoin="round"/></g><path d="M214.04 153.99c-.86-5.87-6.77-10.53-12.67-10-5.91.53-10.89 6.17-10.69 12.1M285.22 144.55c-1.09-5.83-7.18-10.25-13.06-9.49-5.88.77-10.63 6.6-10.19 12.52" fill="#fff" stroke="#000" stroke-width="2" stroke-linecap="round" stroke-miterlimit="10"/><g fill="none" stroke="#000" stroke-linecap="round" stroke-miterlimit="10"><path d="M148.71 160.46c-10.85-2.38-22.42-1.39-32.71 2.79M154.63 178.13c-10.15 3-19.44 8.85-26.54 16.71"/></g><g fill="none" stroke="#000" stroke-linecap="round" stroke-miterlimit="10"><path d="M325.06 135.02c10.48-5.51 22.83-7.38 34.48-5.21M327.44 152.95c10.86-.77 21.9 1.19 31.82 5.66"/></g><g fill="none" stroke="#000" stroke-linecap="round" stroke-miterlimit="10"><path d="M215.11 76.34c.99 5.11 2.58 10.11 4.73 14.86.84 1.85 2.22 3.95 4.24 3.83 1.44-.08 2.59-1.36 2.99-2.74.4-1.38.23-2.86.05-4.29-.58-4.62-1.17-9.24-1.75-13.86M231.1 73.68c.62 5.61 1.37 11.33 3.84 16.41.87 1.79 2.46 3.73 4.42 3.36 1.1-.21 1.95-1.15 2.36-2.19s.46-2.18.51-3.3l.63-15.1M319.89 109.44c-5.47 3.52-10.93 7.04-16.4 10.56-1.71 1.1-3.63 2.59-3.52 4.62.12 2.25 2.67 3.53 4.9 3.87 7.44 1.13 14.62-2.75 21.15-6.5M328.27 128.59c-5.17 2.75-10.34 5.5-15.51 8.24-1.4.74-2.83 1.51-3.89 2.68-1.07 1.17-1.71 2.86-1.25 4.37.73 2.36 3.62 3.22 6.08 3.37 5.62.35 11.33-1.07 16.14-3.99M147.74 135.82c5.56 1.33 11.12 2.67 16.68 4 1.81.43 3.91 1.12 4.49 2.89.38 1.14-.05 2.43-.83 3.34s-1.87 1.5-2.98 1.96c-6.09 2.54-12.99 1.86-19.55 1.12M144.72 156.17c5.7.43 11.41.86 17.11 1.28 1.96.15 4.25.5 5.16 2.24.69 1.32.26 3-.69 4.15-.95 1.14-2.32 1.85-3.68 2.44a41.385 41.385 0 01-15.81 3.46"/></g></g></svg>