<?xml version="1.0" encoding="UTF-8" standalone="no"?>
<!-- Generator: Adobe Illustrator 27.5.0, SVG Export Plug-In . SVG Version: 6.00 Build 0)  -->

<svg
   version="1.1"
   x="0px"
   y="0px"
   viewBox="0 0 500 500"
   style="enable-background:new 0 0 500 500;"
   xml:space="preserve"
   id="svg95"
   sodipodi:docname="cow.svg"
   inkscape:version="1.3 (0e150ed6c4, 2023-07-21)"
   xmlns:inkscape="http://www.inkscape.org/namespaces/inkscape"
   xmlns:sodipodi="http://sodipodi.sourceforge.net/DTD/sodipodi-0.dtd"
   xmlns="http://www.w3.org/2000/svg"
   xmlns:svg="http://www.w3.org/2000/svg"><defs
   id="defs95" /><sodipodi:namedview
   id="namedview95"
   pagecolor="#ffffff"
   bordercolor="#000000"
   borderopacity="0.25"
   inkscape:showpageshadow="2"
   inkscape:pageopacity="0.0"
   inkscape:pagecheckerboard="0"
   inkscape:deskcolor="#d1d1d1"
   inkscape:zoom="1.6079608"
   inkscape:cx="241.29941"
   inkscape:cy="251.56086"
   inkscape:window-width="2560"
   inkscape:window-height="1351"
   inkscape:window-x="1191"
   inkscape:window-y="187"
   inkscape:window-maximized="1"
   inkscape:current-layer="svg95" />&#10;<g
   id="BACKGROUND">&#10;	<rect
   style="fill:#FFFFFF;"
   width="500"
   height="500"
   id="rect1" />&#10;</g>&#10;<g
   id="OBJECTS">&#10;	<g
   id="g95">&#10;		<g
   id="g25">&#10;			<g
   id="g12">&#10;				<g
   id="g5">&#10;					<g
   id="g1">&#10;						<path
   d="M452.576,327.52c-8.938,16.894-28.138,24.16-45.857,27.762c-20.174,4.1-41.08,4.197-61.563,3.197        c-1.34-0.065-2.23,1.569-0.536,1.651c21.813,1.065,44.121,0.913,65.529-3.872c17.659-3.948,36.048-11.751,44.915-28.513        C455.595,326.741,453.074,326.58,452.576,327.52L452.576,327.52z"
   id="path1" />&#10;					</g>&#10;					<g
   id="g2">&#10;						<path
   d="M430.541,257.669c9.365,5.88,16.613,13.615,21.227,23.725c0.439,0.962,2.922,0.466,2.411-0.653        c-4.754-10.416-12.301-18.342-21.944-24.397C431.331,255.777,429.232,256.848,430.541,257.669L430.541,257.669z"
   id="path2" />&#10;					</g>&#10;					<g
   id="g3">&#10;						<path
   d="M139.631,75.941c27.596-7.204,56.297-10.897,84.66-13.536c26.331-2.45,52.866-3.518,79.293-2.209        c21.866,1.083,44.056,3.593,65.004,10.222c15.04,4.76,31.286,12.174,40.306,25.78c11.999,18.1,6.273,44.343-6.106,60.687        c-0.817,1.079,1.641,1.467,2.266,0.641c11.358-14.996,17.326-38.249,9.448-56.143c-6.263-14.225-20.449-23.063-34.303-28.732        c-19.746-8.08-41.358-11.414-62.5-13.202c-26.507-2.242-53.242-1.763-79.752,0.161c-33.159,2.407-66.914,6.387-99.132,14.798        C137.183,74.835,138.318,76.284,139.631,75.941L139.631,75.941z"
   id="path3" />&#10;					</g>&#10;					<g
   id="g4">&#10;						<path
   d="M109.174,259.448c-8.192-1.858-16.327-6.4-22.239-12.304c-9.773-9.76-14.51-26.416-1.84-35.7        c8.738-6.403,20.12-7.412,28.987-13.376c6.104-4.106,8.451-11.206,4.51-17.646c-3.518-5.75-9.483-9.956-14.996-13.608        c-10.569-7-21.64-11.551-28.349-22.962c-0.54-0.917-3.019-0.38-2.411,0.653c4.963,8.44,12.087,13.605,20.435,18.361        c7.484,4.265,15.555,9.001,21.118,15.74c6.756,8.183,2.946,16.415-6.052,20.447c-9.811,4.396-21.834,6.627-29.239,15.06        c-8.477,9.653-3.386,23.952,4.24,32.496c6.251,7.004,15.497,12.296,24.679,14.379        C109.138,261.24,110.799,259.816,109.174,259.448L109.174,259.448z"
   id="path4" />&#10;					</g>&#10;				</g>&#10;				<g
   id="g8">&#10;					<g
   id="g6">&#10;						<path
   d="M31.101,144.999c44.762,0,89.524,0,134.286,0c6.377,0,12.755,0,19.132,0c0.559,0,1.281-0.111,1.512-0.713        c1.351-3.522,1.51-7.791,0.406-11.378c-2.626-8.532-11.834-11.395-19.792-12.455c0.325,0.313,0.651,0.625,0.976,0.938        c4.186-14.165-9.381-25.658-22.795-23.833c0.447,0.238,0.895,0.476,1.342,0.714c0.68-13.19-5.434-27.457-16.232-35.159        c-19.246-13.73-45.737-8.295-60.308,9.363c-6.978,8.457-12.097,19.815-10.971,30.975c0.777-0.208,1.554-0.416,2.33-0.624        c-3.894-4.428-10.718-3.914-14.964-0.297c-4.25,3.621-4.971,9.715-3.352,14.826c0.595-0.365,1.189-0.73,1.784-1.096        c-6.555-2.144-14.693-0.894-18.835,5.028c-5.416,7.742-2.424,17.898,4.687,23.397c0.804,0.622,3.169-0.214,2.12-1.025        c-5.472-4.232-8.66-11.529-6.277-18.276c2.589-7.331,10.122-9.884,17.148-7.586c0.705,0.231,2.084-0.15,1.784-1.096        c-0.856-2.702-0.97-6.016-0.084-8.7c1.847-5.599,9.535-9.079,13.869-4.15c0.516,0.587,2.431,0.371,2.331-0.624        C59.204,83.46,75.89,62.988,94.536,58.22c20.938-5.353,42.183,6.687,47.561,27.487c1.061,4.104,1.751,8.53,1.531,12.787        c-0.03,0.583,0.954,0.767,1.342,0.715c12.292-1.673,23.884,9.364,20.162,21.957c-0.176,0.594,0.519,0.877,0.976,0.938        c7.933,1.056,16.821,4.252,18.286,13.156c0.474,2.878,0.198,6.065-0.852,8.801c0.504-0.238,1.008-0.476,1.512-0.713        c-44.762,0-89.524,0-134.286,0c-6.378,0-12.755,0-19.133,0C30.314,143.348,29.405,144.999,31.101,144.999z"
   id="path5" />&#10;					</g>&#10;					<path
   d="M35.204,121.298c-7.449,4.011-5.488,12.776-0.509,17.919c0.595,0.614,1.552-0.161,1.029-0.853       c-3.168-4.191-5.361-11.684,0.512-14.754C37.676,122.857,36.639,120.526,35.204,121.298z"
   id="path6" />&#10;					&#10;					<path
   d="M143.759,104.37c-0.783,0.065-0.686,1.352,0.092,1.368c8.221,0.175,12.648,7.382,10.549,15.025       c-0.362,1.319,1.777,1.931,2.291,0.69C160.353,112.62,152.922,103.603,143.759,104.37z"
   id="path8" />&#10;				</g>&#10;				<g
   id="g11">&#10;					<g
   id="g9">&#10;						<path
   d="M386.576,328.456c25.936,0,51.873,0,77.809,0c3.674,0,7.348,0,11.022,0c0.459,0,1.41-0.103,1.512-0.713        c1.369-8.214-1.045-17.357-10.834-16.999c0.439,0.313,0.878,0.625,1.316,0.938c3.82-13.471-3.308-26.993-16.183-32.079        c-16.616-6.565-32.746,3.111-39.247,18.768c0.817-0.071,1.633-0.143,2.45-0.214c-1.905-4.226-6.666-6.761-11.091-4.688        c-4.572,2.142-4.539,8.146-3.48,12.393c0.706-0.258,1.411-0.516,2.117-0.773c-13.583-5.519-23.269,11.689-16.329,22.87        c0.561,0.904,3.039,0.358,2.411-0.653c-5.244-8.449,0.326-25.726,12.224-20.892c0.491,0.2,2.364,0.217,2.117-0.773        c-0.566-2.271-0.86-4.932-0.276-7.21c0.898-3.505,5.616-4.509,8.195-2.153c0.722,0.66,1.295,1.633,1.701,2.533        c0.398,0.883,2.128,0.559,2.45-0.214c6.593-15.879,23.813-25.048,39.627-15.426c9.58,5.829,13.881,17.519,10.827,28.289        c-0.214,0.755,0.805,0.957,1.316,0.938c8.172-0.299,9.242,8.879,8.201,15.123c0.504-0.238,1.008-0.475,1.512-0.713        c-25.936,0-51.873,0-77.809,0c-3.674,0-7.348,0-11.022,0C385.789,326.805,384.88,328.456,386.576,328.456z"
   id="path9" />&#10;					</g>&#10;					<path
   d="M398.846,311.109c-6.564-0.289-10.623,6.727-7.986,12.456c0.475,1.032,2.117,0.433,1.666-0.631       c-2.069-4.883,1.206-9.349,6.264-9.74C400.101,313.093,400.219,311.169,398.846,311.109z"
   id="path10" />&#10;					<path
   d="M451.018,287.302c-10.037-5.042-19.872-0.417-26.528,7.546c-0.606,0.725,0.372,1.809,1.034,1.087       c6.368-6.942,15.113-11.362,24.256-6.338c7.626,4.191,9.007,11.789,8.434,19.739c-0.076,1.059,1.632,1.501,2.06,0.518       C463.842,301.666,458.672,291.148,451.018,287.302z"
   id="path11" />&#10;				</g>&#10;			</g>&#10;			<g
   id="g24">&#10;				<g
   id="g13">&#10;					<path
   d="M48.561,444.362c13.609,0,27.218,0,40.827,0c32.498,0,64.997,0,97.495,0c39.284,0,78.568,0,117.852,0       c33.967,0,67.933,0,101.9,0c11.243,0,22.485,0,33.728,0c5.236,0,10.688,0.439,15.911,0c0.237-0.02,0.483,0,0.722,0       c1.323,0,2.232-1.651,0.536-1.651c-13.609,0-27.218,0-40.827,0c-32.498,0-64.997,0-97.495,0c-39.284,0-78.568,0-117.852,0       c-33.967,0-67.933,0-101.9,0c-11.243,0-22.485,0-33.728,0c-5.236,0-10.688-0.439-15.911,0c-0.237,0.02-0.483,0-0.722,0       C47.774,442.711,46.865,444.362,48.561,444.362L48.561,444.362z"
   id="path12" />&#10;				</g>&#10;				<g
   id="g18">&#10;					<g
   id="g14">&#10;						<path
   d="M382.807,443.426c-1.014-6.55-5.877-12.319-10.523-16.681c-0.218,0.426-0.435,0.853-0.653,1.279        c6.176-1.245,12.926,4.941,16.659,9.591c0.553,0.689,2.293,0.309,2.33-0.624c0.145-3.563-1.206-7.374-2.487-10.626        c-4.151-10.544-11.603-19.579-19.444-27.59c-0.546,0.427-1.093,0.854-1.639,1.282c18.476,3.47,32.865,19.605,39.22,36.436        c0.347,0.918,2.49,0.573,2.476-0.438c-0.152-11.094-2.987-22.633-8.19-32.405c-0.595,0.365-1.189,0.73-1.784,1.095        c11.063,3.988,16.557,19.96,18.685,30.438c0.201,0.992,2.283,0.969,2.514,0.001c2.806-11.781,9.96-23.253,19.863-30.234        c-0.694-0.275-1.388-0.551-2.082-0.826c-5.824,8.823-8.893,19.913-8.106,30.434c0.082,1.099,1.928,0.736,2.403,0.21        c4.217-4.666,10.618-6.865,16.727-5.177c-0.042-0.475-0.083-0.951-0.125-1.426c-6.104,3.028-11.965,8.386-12.599,15.484        c-0.095,1.06,2.438,0.919,2.54-0.222c0.567-6.353,6.022-11.248,11.465-13.949c0.751-0.373,0.701-1.198-0.125-1.426        c-7.336-2.027-15.043,0.422-20.151,6.074c0.801,0.07,1.602,0.14,2.403,0.21c-0.761-10.18,2.188-21.019,7.832-29.57        c0.786-1.191-1.479-1.251-2.082-0.826c-10.152,7.157-17.575,18.937-20.453,31.02c0.838,0,1.676,0.001,2.514,0.001        c-2.303-11.339-7.831-27.342-20.068-31.754c-0.579-0.209-2.267,0.19-1.784,1.096c5.146,9.665,7.91,21.003,8.061,31.974        c0.825-0.146,1.651-0.292,2.476-0.438c-6.532-17.299-21.525-33.761-40.474-37.32c-0.61-0.115-2.581,0.319-1.639,1.282        c7.748,7.917,15.051,16.803,19.153,27.218c1.228,3.117,2.497,6.771,2.357,10.195c0.777-0.208,1.554-0.416,2.33-0.624        c-4.493-5.596-11.764-11.677-19.594-10.098c-0.547,0.11-1.207,0.759-0.653,1.279c4.396,4.127,9.139,9.65,10.103,15.878        C380.44,444.767,382.977,444.521,382.807,443.426L382.807,443.426z"
   id="path13" />&#10;					</g>&#10;					<path
   d="M387.101,442.384c-1.15-3.656-3.181-6.81-6.012-9.389c-0.201-0.183-0.543,0.117-0.359,0.33       c2.415,2.793,3.982,6.011,4.754,9.618C385.709,443.995,387.439,443.457,387.101,442.384z"
   id="path14" />&#10;					<path
   d="M383.839,409.687c-0.323-0.366-0.852,0.109-0.566,0.492c7.26,9.745,11.936,20.875,13.848,32.869       c0.212,1.329,2.227,0.837,2.03-0.482C397.304,430.242,392.09,419.018,383.839,409.687z"
   id="path15" />&#10;					<path
   d="M406.645,413.053c-0.095-0.187-0.415-0.044-0.339,0.153c3.527,9.083,5.87,18.405,6.857,28.106       c0.103,1.012,1.691,0.983,1.593-0.044C413.817,431.351,411.169,421.924,406.645,413.053z"
   id="path16" />&#10;					<path
   d="M429.169,418.199c-2.73,7.317-5.025,15.626-4.582,23.504c0.043,0.762,1.223,0.669,1.301-0.049       c0.87-7.981,1.335-15.58,3.483-23.393C429.408,418.129,429.217,418.073,429.169,418.199z"
   id="path17" />&#10;					<path
   d="M440.748,431.231c-4.011,3.02-7.865,6.36-8.716,11.566c-0.167,1.023,1.446,1.37,1.551,0.368       c0.511-4.883,3.997-8.472,7.258-11.829C440.905,431.271,440.821,431.177,440.748,431.231z"
   id="path18" />&#10;				</g>&#10;				<g
   id="g23">&#10;					<g
   id="g19">&#10;						<path
   d="M71.625,443.21c-2.905-7.368-8.454-13.859-14.365-18.965c-0.443,0.446-0.886,0.892-1.328,1.338        c7.846,0.695,15.229,5.255,19.22,12.002c0.458,0.775,2.553,0.667,2.476-0.438c-0.823-11.717-4.717-24.537-12.867-33.203        c-0.707,0.342-1.414,0.684-2.121,1.025c9.868,7.614,18.651,17.716,23.919,29.021c0.429,0.92,2.41,0.57,2.476-0.438        c0.578-8.936,6.768-16.934,14.278-21.265c-0.649-0.256-1.298-0.513-1.948-0.769c-4.201,8.082-6.853,17.659-5.964,26.788        c0.105,1.078,1.925,0.768,2.403,0.21c4.497-5.246,11.575-7.957,18.316-8.246c-0.259-0.494-0.517-0.988-0.776-1.482        c-6.004,2.603-10.436,8.164-11.323,14.636c-0.169,1.233,2.347,1.255,2.488,0.225c0.816-5.96,4.677-11.135,10.242-13.547        c1.277-0.553,0.111-1.52-0.776-1.482c-7.563,0.324-15.41,3.391-20.437,9.256c0.801,0.07,1.602,0.14,2.403,0.21        c-0.873-8.966,1.78-18.392,5.912-26.341c0.487-0.937-1.502-1.026-1.947-0.769c-8.169,4.711-14.783,13.084-15.412,22.801        c0.825-0.146,1.65-0.292,2.476-0.438c-5.326-11.429-14.239-21.7-24.21-29.393c-0.733-0.566-3.119-0.036-2.121,1.025        c7.942,8.444,11.646,20.996,12.447,32.4c0.825-0.146,1.65-0.292,2.476-0.438c-4.378-7.401-12.524-12.241-21.095-13        c-0.581-0.051-2.198,0.587-1.328,1.338c5.828,5.035,11.214,11.335,14.075,18.593C69.598,444.839,72.08,444.365,71.625,443.21        L71.625,443.21z"
   id="path19" />&#10;					</g>&#10;					<path
   d="M74.614,442.108c-1.895-4.834-4.768-9.2-8.881-12.422c-0.21-0.164-0.539,0.104-0.36,0.33       c3.113,3.907,5.793,7.979,7.623,12.651C73.398,443.691,75.017,443.136,74.614,442.108z"
   id="path20" />&#10;					<path
   d="M76.492,420.715c-0.08-0.147-0.342-0.047-0.279,0.116c2.71,7,4.612,14.367,5.556,21.814c0.15,1.182,2,0.934,1.835-0.25       C82.524,434.637,80.232,427.596,76.492,420.715z"
   id="path21" />&#10;					<path
   d="M96.203,419.005c-4.052,6.902-6.475,15.542-5.666,23.576c0.111,1.105,1.634,0.953,1.684-0.112       c0.393-8.31,1.413-15.394,4.625-23.14C97.002,418.953,96.412,418.648,96.203,419.005z"
   id="path22" />&#10;					<path
   d="M106.395,433.867c-1.721,1.075-3.207,2.431-4.372,4.099c-0.934,1.336-2.093,3.254-1.914,4.928       c0.054,0.506,0.82,0.753,1.11,0.291c0.779-1.244,0.933-2.83,1.626-4.155c0.973-1.86,2.274-3.396,3.923-4.681       C107.082,434.105,106.721,433.663,106.395,433.867z"
   id="path23" />&#10;				</g>&#10;			</g>&#10;		</g>&#10;		<g
   id="g94">&#10;			<g
   id="g60">&#10;				<g
   id="g26">&#10;					<path
   d="M320.011,381.617c17.652-9.593,31.448-24.662,36.485-44.398c2.202-8.63,3.2-18.422,1.468-27.255       c-0.219-1.116-2.751-0.853-2.54,0.222c5.655,28.839-12.157,56.715-36.819,70.118       C317.137,381.101,318.974,382.18,320.011,381.617L320.011,381.617z"
   id="path25" />&#10;				</g>&#10;				<g
   id="g59">&#10;					<g
   id="g27">&#10;						<path
   d="M168.129,386.183c18.46,6.801,38.143,9.651,57.722,10.599c19.788,0.958,39.732,0.323,59.231-3.369        c1.662-0.315,0.495-1.781-0.815-1.533c-19.659,3.722-39.856,4.247-59.794,3.152c-18.746-1.029-37.513-3.875-55.187-10.387        C168.176,384.236,166.563,385.606,168.129,386.183L168.129,386.183z"
   id="path26" />&#10;					</g>&#10;					<g
   id="g28">&#10;						<path
   d="M297.92,212.487c-16.475,6.973-37.474,4.569-53.822-1.014c-7.127-2.434-13.718-6.122-20.88-8.455        c-5.857-1.907-11.95-3.114-18.093-3.569c-11.409-0.847-22.923,0.898-33.615,4.943c-38.364,14.514-56.4,56.274-59.28,94.84        c-1.876,25.122,4.931,49.901,23.498,67.617c0.746,0.711,3.106-0.085,2.121-1.025c-31.965-30.5-26.792-79.581-9.929-116.548        c8.759-19.199,23.197-34.725,43.008-42.794c12.249-4.989,25.741-6.723,38.838-4.82c14.401,2.092,26.649,10.01,40.616,13.572        c15.322,3.907,34,4.892,48.944-1.433C300.86,213.151,298.981,212.037,297.92,212.487L297.92,212.487z"
   id="path27" />&#10;					</g>&#10;					<g
   id="g33">&#10;						<g
   id="g29">&#10;							<path
   d="M164.411,401.014c14.988,8.312,33.726,4.337,46.626-5.801c1.206-0.948-1.066-1.665-1.898-1.01         c-11.942,9.387-29.137,13.194-43.033,5.487C165.18,399.176,163.066,400.267,164.411,401.014L164.411,401.014z"
   id="path28" />&#10;						</g>&#10;						<g
   id="g30">&#10;							<path
   d="M170.639,403.068c0.082,1.365,0.251,2.742,0.539,4.079c0.301,1.398,0.72,3.389,2.299,3.86         c3.422,1.021,4.874-4.36,5.446-6.695c0.292-1.193-2.235-1.255-2.488-0.225c-0.218,0.889-0.495,1.768-0.816,2.624         c-0.275,0.732-0.574,1.485-1.019,2.132c-0.033,0.049-0.592,0.687-0.594,0.678c0.764,0.194,0.982,0.164,0.654-0.091         c-0.054-0.059-0.101-0.124-0.139-0.194c-0.101-0.56-0.527-1.178-0.674-1.758c-0.174-0.685-0.294-1.384-0.396-2.083         c-0.123-0.845-0.218-1.697-0.27-2.549C173.113,401.733,170.571,401.939,170.639,403.068L170.639,403.068z"
   id="path29" />&#10;						</g>&#10;						<g
   id="g31">&#10;							<path
   d="M185.874,404.784c0.938,2.157,2.721,6.616,5.643,6.382c3.261-0.262,3.222-5.56,3.216-7.92         c-0.003-1.098-2.543-0.917-2.54,0.222c0.002,0.93-0.05,1.869-0.161,2.793c-0.088,0.731-0.21,1.473-0.433,2.176         c-0.081,0.256-0.331,0.625-0.356,0.878c-0.058,0.091-0.12,0.179-0.185,0.265c0.659,0.087,0.876,0.067,0.649-0.06         c-0.001,0.004-1.099-1.154-1.182-1.272c-0.415-0.583-0.775-1.209-1.117-1.838c-0.405-0.743-0.784-1.504-1.121-2.28         C187.865,403.163,185.382,403.652,185.874,404.784L185.874,404.784z"
   id="path30" />&#10;						</g>&#10;						<g
   id="g32">&#10;							<path
   d="M202.774,400.176c1.784,1.684,5.954,5.286,8.511,3.139c1.991-1.672-1.06-5.798-2.106-7.298         c-0.607-0.872-3.079-0.305-2.411,0.653c0.455,0.652,0.875,1.332,1.268,2.023c0.331,0.583,0.646,1.178,0.904,1.797         c0.22,0.528,0.227,1.127,0.421,1.631c0.261,0.678-0.591-0.354,0.282,0.095c-0.171-0.088-0.453-0.094-0.643-0.166         c-0.693-0.264-1.351-0.703-1.952-1.131c-0.755-0.536-1.479-1.133-2.153-1.769         C204.146,398.444,201.785,399.242,202.774,400.176L202.774,400.176z"
   id="path31" />&#10;						</g>&#10;					</g>&#10;					<g
   id="g40">&#10;						<g
   id="g34">&#10;							<path
   d="M198.886,392.499c-14.827-18.405-17.908-54.008,3.466-68.757c11.719-8.087,27.117-5.622,35.635,5.735         c5.03,6.706,7.152,14.414,9.475,22.315c1.37,4.662,3.106,9.492,7.851,11.613c3.056,1.366,6.505,1.087,9.665,2.088         c3.94,1.248,7.393,3.911,9.431,7.523c4.143,7.344,1.458,15.721-4.173,21.371c-0.918,0.921,1.55,1.36,2.266,0.642         c9.526-9.559,8.245-25.535-5.236-30.675c-4.031-1.537-9.005-0.775-12.459-3.59c-3.026-2.466-4.105-6.76-5.13-10.329         c-2.438-8.491-5.011-16.781-10.884-23.636c-7.906-9.229-20.908-11.877-32.076-7.438         c-15.078,5.993-21.798,22.223-22.029,37.56c-0.191,12.669,4.039,26.628,12.076,36.604         C197.413,394.328,199.756,393.579,198.886,392.499L198.886,392.499z"
   id="path33" />&#10;						</g>&#10;						<g
   id="g35">&#10;							<path
   d="M124.912,353.941c4.714,3.008,11.095,3.748,16.419,2.272c8.891-2.465,18.423-12.473,16.341-22.292         c-1.756-8.285-9.927-13.913-16.752-17.947c-1.558-0.921-3.408-1.654-4.785-2.827c-2.426-2.066-2.561-5.296-2.55-8.278         c0.019-5.066,1.109-10.409-0.507-15.34c-2.546-7.768-14.557-12.625-19.117-3.835c-0.525,1.012,1.998,1.17,2.488,0.225         c2.144-4.133,7.52-3.858,10.7-1.102c2.586,2.241,3.749,5.195,4.105,8.512c0.521,4.858-0.626,9.741-0.118,14.591         c0.816,7.788,9.648,9.784,15.052,14.081c3.59,2.855,7.087,6.339,8.549,10.795c1.99,6.066-0.951,11.669-5.117,16.039         c-6.004,6.298-15.37,8.66-23.013,3.783C125.706,352.042,123.609,353.11,124.912,353.941L124.912,353.941z"
   id="path34" />&#10;						</g>&#10;						<g
   id="g36">&#10;							<path
   d="M153.833,261.691c-5.877,1.697-11.808,5.108-12.834,11.686c-0.786,5.038,1.508,9.121,4.75,12.694         c5.921,6.527,1.601,16.259,5.377,23.922c2.749,5.579,9.381,7.794,15.154,8.442c8.154,0.915,16.598-0.978,23.981-4.414         c5.554-2.585,15.326-7.701,14.301-15.193c-0.804-5.873-7.663-9.702-12.22-12.435c-4.918-2.949-7.091-5.548-9.538-10.684         c-2.242-4.705-4.581-9.641-9.099-12.583C167.771,259.263,160.359,260.095,153.833,261.691         c-1.642,0.402-0.499,1.854,0.815,1.533c6.151-1.504,13.154-2.256,18.408,2.008c3.031,2.46,4.871,5.999,6.54,9.448         c1.377,2.844,2.569,5.922,4.592,8.391c2.645,3.227,6.927,4.756,10.309,7.078c5.467,3.752,10.528,9.258,4.959,15.404         c-5.967,6.585-16.15,10.245-24.809,11.198c-6.489,0.714-15.217,0.147-19.749-5.291c-4.635-5.561-2.508-13.227-3.523-19.726         c-0.863-5.525-6.128-7.952-7.542-13.251c-2.112-7.91,3.71-13.208,10.816-15.259         C156.267,262.757,155.143,261.313,153.833,261.691z"
   id="path35" />&#10;						</g>&#10;						<g
   id="g37">&#10;							<path
   d="M168.379,205.799c-5.138,7.235-6.995,17.3-4.61,25.817c3.571,12.753,17.028,25.074,30.149,27.375         c5.607,0.983,11.36,0.069,16.406-2.57c6.892-3.606,11.118-9.781,16.38-15.246c4.084-4.242,9.68-9.997,16.184-8.477         c4.154,0.97,7.106,4.429,11.418,4.99c4.127,0.537,8.686-0.952,11.288-4.304c4.23-5.451,1.245-12.263-2.356-17.122         c-0.631-0.852-3.098-0.274-2.411,0.653c4.239,5.719,7.376,16.093-2.023,18.845c-5.756,1.686-9.589-3.281-14.759-4.6         c-10.593-2.702-18.843,8.516-24.866,15.307c-6.614,7.457-15.183,13.038-25.553,10.693         c-9.317-2.106-17.86-9.504-23.186-17.215c-6.831-9.891-6.798-23.643,0.206-33.504         C171.434,205.33,168.98,204.953,168.379,205.799L168.379,205.799z"
   id="path36" />&#10;						</g>&#10;						<g
   id="g38">&#10;							<path
   d="M259.496,257.742c-15.912,0.629-32.415,18.839-24.833,34.989c4.032,8.589,13.563,13.133,18.342,21.21         c5.362,9.063,2.355,20.989,10.591,28.612c12.14,11.236,38.772,0.713,33.511-17.122c-1.315-4.459-3.671-8.585-4.656-13.146         c-0.697-3.227-0.315-6.307,0.008-9.535c0.614-6.126,1.072-12.308,0.352-18.448c-0.807-6.874-3.149-13.754-8.236-18.654         C277.905,259.224,268.396,257.733,259.496,257.742c-1.578,0.002-1.4,1.653,0.145,1.651         c15.365-0.016,27.575,6.942,30.288,22.724c0.883,5.134,0.835,10.391,0.467,15.571c-0.316,4.441-1.418,9.173-0.721,13.606         c1.233,7.842,8.605,16.337,4.67,24.321c-4.314,8.755-18.039,12.896-26.326,7.686c-8.921-5.609-7.375-15.949-10.233-24.691         c-2.316-7.085-7.48-11.626-12.638-16.685c-7.131-6.993-11.761-14.1-8.436-24.314c3.267-10.035,12.227-17.794,22.928-18.217         C261.212,259.332,261.052,257.681,259.496,257.742z"
   id="path37" />&#10;						</g>&#10;						<g
   id="g39">&#10;							<path
   d="M313.499,261.404c-2.228,1.757-4.172,4.176-5.224,6.813c-2.232,5.596,0.684,9.435,4.167,13.576         c5.147,6.12,5.402,11.371,1.953,18.324c-1.433,2.889-2.353,4.946-1.851,8.209c2.953,19.21,28.046,24.893,43.869,24.557         c1.576-0.034,1.407-1.684-0.145-1.651c-11.306,0.24-23.217-1.866-32.194-9.211c-4.531-3.707-9.08-9.451-9.153-15.611         c-0.037-3.14,1.793-5.455,3.004-8.255c1.561-3.609,2.214-7.289,0.766-11.051c-2.268-5.894-9.817-9.661-8.546-16.633         c0.569-3.122,2.786-6.11,5.252-8.055C316.602,261.465,314.33,260.748,313.499,261.404L313.499,261.404z"
   id="path38" />&#10;						</g>&#10;					</g>&#10;					<g
   id="g44">&#10;						<g
   id="g41">&#10;							<path
   d="M51.123,277.87c0.503,11.681,2.808,26.686,13.198,33.98c6.53,4.584,14.816,4.227,21.813,0.903         c9.189-4.365,14.752-13.266,19.629-21.807c2.598-4.549,4.986-9.215,7.603-13.753c1.95-3.381,4.057-7.46,7.425-9.637         c1.268-0.82-1.028-1.573-1.898-1.01c-5.45,3.521-8.479,11.159-11.452,16.62c-4.45,8.173-8.881,17.133-15.769,23.574         c-6.45,6.031-16.547,9.445-24.591,4.491c-10.76-6.626-12.925-22.171-13.416-33.584         C53.616,276.539,51.075,276.737,51.123,277.87L51.123,277.87z"
   id="path40" />&#10;						</g>&#10;						<g
   id="g42">&#10;							<path
   d="M137.673,229.481c-17.737,2.681-26.76,21.922-32.618,36.461c-4.957,12.304-10.71,27.958-22.031,35.938         c-5.654,3.985-13.5,5.128-17.585-1.51c-3.977-6.464-4.741-14.952-6.25-22.233c-0.231-1.115-2.762-0.847-2.54,0.222         c1.687,8.139,2.503,23.141,11.197,27.427c6.291,3.101,14.273-0.298,19.122-4.509c18.746-16.278,18.379-45.09,36.213-61.815         c3.876-3.634,9.806-7.6,14.635-8.33C139.346,230.901,139.238,229.244,137.673,229.481L137.673,229.481z"
   id="path41" />&#10;						</g>&#10;						<g
   id="g43">&#10;							<path
   d="M59.055,227.741c-5.829,6.938-10.84,15.357-13.465,24.043c-2.433,8.053-2.664,25.528,8.501,27.569         c8.443,1.544,15.265-9.873,15.097-17.095c-0.101-4.345-2.204-8.474-3.702-12.46c-2.67-7.101-3.988-14.259-4.028-21.848         c-0.006-1.099-2.546-0.917-2.54,0.222c0.054,10.364,3.213,18.767,6.477,28.356c1.184,3.48,1.729,6.882,0.513,10.436         c-1.502,4.392-6.386,12.874-12.183,10.352c-5.224-2.273-7.099-10.67-7.171-15.707c-0.077-5.366,1.605-10.679,3.753-15.54         c2.784-6.3,6.573-12.402,11.014-17.687C62.181,227.359,59.717,226.952,59.055,227.741z"
   id="path42" />&#10;						</g>&#10;					</g>&#10;					<g
   id="g47">&#10;						<g
   id="g45">&#10;							<path
   d="M134.669,365.632c1.254,25.656,2.509,51.312,3.763,76.967c0.021,0.438,0.625,0.715,1.002,0.715         c9.087,0,18.175,0,27.262,0c0.533,0,1.914-0.299,1.474-1.152c-2.152-4.173-5.228-6.181-8.615-9.081         c-1.029-0.881-0.241,1.191-0.489-0.418c-0.114-0.741,0.472-2.043,0.639-2.768c1.865-8.074,3.729-16.148,5.594-24.222         c3.405-14.745,6.811-29.491,10.216-44.236c0.277-1.199-2.25-1.256-2.488-0.225c-5.547,24.017-11.093,48.033-16.639,72.05         c-0.11,0.474,0.267,0.745,0.665,0.881c3.962,1.36,6.838,5.051,8.705,8.672c0.491-0.384,0.982-0.768,1.474-1.152         c-7.603,0-15.205,0-22.808,0c-1.3,0-2.748-0.187-4.038,0c-0.558,0.081,0.309,1.132,0.561,0.208         c0.46-1.685-0.216-4.418-0.301-6.148c-0.879-17.979-1.758-35.958-2.637-53.937c-0.267-5.459-0.534-10.918-0.801-16.376         C137.155,364.3,134.613,364.501,134.669,365.632L134.669,365.632z"
   id="path44" />&#10;						</g>&#10;						<g
   id="g46">&#10;							<path
   d="M159.129,425.753c-3.969,0.316-7.705-4.463-9.499-7.29c-4.056-6.394-2.17-11.696,4.32-15.045         c2.732-1.41,4.878-1.979,4.731-5.383c-0.161-3.727-3.074-6.723,3.35-8.149c1.592-0.354,3.582-0.002,5.155,0.382         c1.122,0.274,2.778-1.143,1.157-1.538c-3.651-0.89-9.112-1.281-11.81,1.926c-2.282,2.712-0.284,4.658-0.393,7.602         c-0.121,3.29-5.523,4.561-7.882,6.654c-8.102,7.19,0.847,23.304,11.014,22.494         C160.834,427.279,160.693,425.628,159.129,425.753L159.129,425.753z"
   id="path45" />&#10;						</g>&#10;						<path
   d="M158.446,433.355c-7.306-3.036-16.017,1.002-18.536,8.436c-0.053,0.158,0.174,0.235,0.258,0.107        c4.281-6.531,10.386-8.754,18.009-7.222C158.968,434.835,159.117,433.634,158.446,433.355z"
   id="path46" />&#10;						<path
   d="M158.382,441.043c-0.021-0.048-0.053-0.09-0.076-0.137c-0.009-0.019-0.007-0.037-0.017-0.057        c0.002,0.014,0.003,0.02,0.004,0.033c-0.115-0.234-0.24-0.463-0.379-0.685c-0.396-0.632-0.862-1.225-1.347-1.79        c-1.038-1.211-2.288-2.215-3.647-3.045c-0.728-0.445-1.471,0.591-0.765,1.095c2.003,1.431,3.442,3.231,4.725,5.307        c0.457,0.74,1.369,0.321,1.491-0.351c0.028,0.122,0.047,0.083,0.052-0.161C158.409,441.184,158.395,441.114,158.382,441.043z"
   id="path47" />&#10;					</g>&#10;					<g
   id="g50">&#10;						<g
   id="g48">&#10;							<path
   d="M166.696,443.314c5.667,0,11.333,0,17,0c0.554,0,1.565-0.169,1.538-0.937c-0.114-3.237-2.489-6.128-4.996-7.918         c-0.406-0.29-3.601-1.699-3.492-1.46c-0.117-0.256,0.291-0.946,0.281-1.225c-0.053-1.46,0.773-3.37,1.099-4.791         c1.714-7.471,3.429-14.942,5.143-22.413c0.275-1.2-2.251-1.257-2.488-0.225c-2.187,9.531-4.374,19.063-6.561,28.594         c-0.074,0.323,0.084,0.641,0.397,0.775c3.657,1.567,7.92,4.437,8.077,8.886c0.513-0.312,1.025-0.624,1.538-0.937         c-5.667,0-11.333,0-17,0C165.909,441.663,165.001,443.314,166.696,443.314L166.696,443.314z"
   id="path48" />&#10;						</g>&#10;						<path
   d="M176.612,433.185c-4.547-1.57-10.523-0.827-14.123,2.524c-0.317,0.295,0.028,0.829,0.427,0.637        c4.495-2.173,8.311-3.051,13.245-1.927C176.956,434.6,177.436,433.47,176.612,433.185z"
   id="path49" />&#10;						<path
   d="M176.227,438.14c-0.982-1.566-2.48-2.776-4.149-3.545c-0.855-0.394-1.632,0.801-0.773,1.286        c1.398,0.787,2.479,1.851,3.334,3.204c0.405,0.641,0.71,1.336,0.941,2.057c0.26,0.811,0.225,1.337,0.976,1.762        c0.22,0.124,0.49,0.023,0.653-0.141C178.318,441.642,176.884,439.187,176.227,438.14z"
   id="path50" />&#10;					</g>&#10;					<g
   id="g54">&#10;						<g
   id="g51">&#10;							<path
   d="M282.207,367.412c1.185,25.062,2.369,50.125,3.554,75.187c0.021,0.438,0.626,0.715,1.002,0.715         c11.847,0,23.693,0,35.54,0c0.599,0,1.515-0.168,1.538-0.937c0.24-7.951-8.645-10.196-14.912-10.152         c0.439,0.313,0.877,0.625,1.316,0.938c5.126-25.913,10.252-51.826,15.378-77.739c0.743-3.758,1.487-7.515,2.23-11.273         c0.24-1.213-2.284-1.258-2.488-0.225c-5.126,25.913-10.252,51.826-15.379,77.739c-0.743,3.758-1.487,7.515-2.23,11.273         c-0.153,0.772,0.751,0.942,1.316,0.938c5.417-0.038,12.427,2.127,12.228,8.723c0.513-0.312,1.025-0.624,1.538-0.937         c-7.708,0-15.415,0-23.123,0c-3.29,0-8.226-0.97-11.379,0c-1.674,0.515-0.029-0.375-0.046,0.499         c0.014-0.711-0.068-1.438-0.102-2.148c-0.856-18.118-1.713-36.237-2.569-54.356c-0.291-6.156-0.582-12.312-0.873-18.468         C284.695,366.081,282.153,366.281,282.207,367.412L282.207,367.412z"
   id="path51" />&#10;						</g>&#10;						<g
   id="g52">&#10;							<path
   d="M313.724,411.333c-4.607-0.926-9.375-3.564-11.992-7.535c-2.119-3.216-3.095-7.713-1.076-11.18         c1.558-2.675,4.405-4.176,6.553-6.307c6.976-6.922-0.565-24.749,14.783-21.087c1.122,0.268,2.779-1.151,1.157-1.538         c-5.422-1.293-11.373-1.126-13.653,4.814c-2.457,6.403,0.213,12.979-5.519,17.993c-5.63,4.925-9.448,9.873-4.955,17.462         c2.775,4.688,8.27,7.857,13.543,8.917C313.685,413.096,315.354,411.661,313.724,411.333L313.724,411.333z"
   id="path52" />&#10;						</g>&#10;						<path
   d="M310.213,432.512c-6.792-0.062-13.206,3.734-16.999,9.254c-0.261,0.38,0.289,0.738,0.578,0.401        c4.315-5.03,9.892-7.337,16.412-7.842C311.216,434.247,311.261,432.522,310.213,432.512z"
   id="path53" />&#10;						<path
   d="M315.156,438.306c-1.256-1.368-2.776-2.248-4.58-2.688c-0.566-0.138-0.869,0.712-0.34,0.965        c1.435,0.686,2.788,1.699,3.76,2.965c0.407,0.53,0.738,1.093,1.022,1.697c0.312,0.663,0.411,1.312,1.047,1.727        c0.399,0.261,0.841,0.061,1.027-0.34C317.716,441.284,316.01,439.236,315.156,438.306z"
   id="path54" />&#10;					</g>&#10;					<g
   id="g58">&#10;						<g
   id="g55">&#10;							<path
   d="M322.303,443.314c5.923,0,11.847,0,17.77,0c0.445,0,1.428-0.103,1.512-0.713c1.231-8.992-7.746-11.86-15.048-11.506         c0.439,0.313,0.878,0.625,1.316,0.938c5.205-23.062,10.41-46.125,15.615-69.187c0.271-1.202-2.255-1.257-2.488-0.225         c-5.205,23.062-10.41,46.125-15.615,69.187c-0.17,0.755,0.766,0.965,1.316,0.938c6.27-0.303,13.391,2.5,12.415,9.631         c0.504-0.238,1.008-0.476,1.512-0.713c-5.923,0-11.847,0-17.77,0C321.516,441.663,320.607,443.314,322.303,443.314         L322.303,443.314z"
   id="path55" />&#10;						</g>&#10;						<g
   id="g56">&#10;							<path
   d="M330.458,415.232c-5.934-0.829-1.14-8.48-0.811-11.794c0.344-3.46-1.883-4.509-3.768-6.999         c-1.731-2.286-2.094-5.382-1.096-8.062c2.043-5.487,8.477-7.131,13.659-7.739c1.545-0.181,1.422-1.835-0.144-1.651         c-7.864,0.922-20.337,6.203-15.805,16.456c0.932,2.109,3.063,3.124,4.092,5.097c1.715,3.289-1.149,6.692-1.586,9.956         c-0.458,3.425,1.534,5.913,4.922,6.387C331.276,417.073,332.126,415.465,330.458,415.232L330.458,415.232z"
   id="path56" />&#10;						</g>&#10;						<path
   d="M328.667,431.82c-0.853-1.596-3.259-0.499-4.44,0.136c-1.775,0.956-3.175,2.383-4.484,3.887        c-0.294,0.337,0.242,0.726,0.559,0.49c2.004-1.491,4.788-4.048,7.498-3.328C328.493,433.189,328.978,432.401,328.667,431.82z"
   id="path57" />&#10;						<path
   d="M333.867,438.261c-0.478-1.218-1.202-2.295-2.128-3.217c-0.548-0.545-1.521,0.13-0.987,0.755        c0.817,0.956,1.43,2.014,1.758,3.235c0.262,0.978,0.031,2.112,0.631,2.942c0.241,0.333,0.772,0.311,1.007-0.012        C334.901,440.93,334.296,439.352,333.867,438.261z"
   id="path58" />&#10;					</g>&#10;				</g>&#10;			</g>&#10;			<g
   id="g61">&#10;				<path
   d="M363.622,283.392c4.634-2.294,8.576-6.874,8.42-12.321c-0.032-1.105-2.573-0.913-2.54,0.222      c0.135,4.72-3.265,8.794-7.287,10.785C360.719,282.819,362.573,283.911,363.622,283.392L363.622,283.392z"
   id="path60" />&#10;			</g>&#10;			<g
   id="g69">&#10;				<g
   id="g66">&#10;					<g
   id="g62">&#10;						<path
   d="M350.867,299.95c-2.889,0.169-16.575,1.291-14.875,6.903c0.669,2.21,4.081,2.904,5.952,3.292        c5.008,1.038,10.454,0.961,15.535,0.526c2.281-0.195,13.556-0.978,12.427-5.426c-0.5-1.968-3.972-3.017-5.541-3.557        C360.03,300.195,355.415,299.887,350.867,299.95c-1.577,0.022-1.404,1.673,0.144,1.651c4.31-0.06,11.171-0.09,14.775,2.744        c4.388,3.451-6.213,4.481-8.451,4.674c-4.637,0.402-11.189,1.024-15.675-0.74c-0.994-0.391-3.52-1.479-3.004-3.079        c0.313-0.971,2.778-1.755,3.693-2.084c2.788-1.002,5.719-1.343,8.662-1.516C352.578,301.509,352.427,299.859,350.867,299.95z"
   id="path61" />&#10;					</g>&#10;					<g
   id="g63">&#10;						<path
   d="M369.988,306.061c1.693-11.429-2.139-26.003-14.977-28.721c-15.317-3.243-24.121,16.668-19.113,28.935        c0.397,0.973,2.879,0.494,2.411-0.653c-4.973-12.183,5.628-34.131,20.69-24.676c7.923,4.974,9.781,16.243,8.501,24.89        C367.318,307.067,369.836,307.093,369.988,306.061L369.988,306.061z"
   id="path62" />&#10;					</g>&#10;					<g
   id="g64">&#10;						<path
   d="m 348.719,300.511 c -1.099,1.184 -1.298,2.954 -0.39,4.299 0.902,1.337 2.506,1.788 4.047,1.763 3.189,-0.052 6.583,-2.304 5.587,-5.853 -0.308,-1.099 -4.84919,-0.82243 -4.56119,0.20257 -6.71558,-0.21821 1.45434,-1.02851 -1.09526,-0.19913 0.423,-0.456 -1.45355,-0.52944 -1.87655,-0.66244 -0.594,-0.185 -1.292,-10e-4 -1.711,0.45 z"
   id="path63"
   style="fill:#000000;fill-opacity:1"
   sodipodi:nodetypes="cccccccc" />&#10;					</g>&#10;					<g
   id="g65">&#10;						<path
   d="M340.695,297.703c6.895-3.668,15.336-3.654,22.548-1.091c1.114,0.396,2.731-0.979,1.157-1.538        c-7.992-2.841-17.487-2.741-25.113,1.315C337.814,297.174,339.655,298.256,340.695,297.703L340.695,297.703z"
   id="path64" />&#10;					</g>&#10;				</g>&#10;				<g
   id="g68">&#10;					<g
   id="g67">&#10;						<path
   d="M302.196,205.463c-9.541,5.607-5.085,23.298-2.724,31.07c6.061,19.952,21.414,38.985,41.089,46.808        c0.953,0.379,3.093-0.769,1.694-1.325c-18.198-7.235-32.75-24.383-39.216-42.602c-2.802-7.895-5.367-17.573-3.224-25.966        c0.586-2.295,2.303-5.799,3.788-6.671C305.041,205.932,303.219,204.862,302.196,205.463L302.196,205.463z"
   id="path66" />&#10;					</g>&#10;					<path
   d="M368.507,275.067c-5.263-0.808-10.288-1.019-15.414-2.738c-4.319-1.449-8.478-3.484-12.272-6.008       c-8.596-5.718-15.383-13.641-19.512-23.108c-0.189-0.432-0.827-0.124-0.659,0.307c3.784,9.698,10.264,17.888,18.806,23.846       c7.846,5.472,19.133,10.368,28.929,9.346C369.283,276.62,369.482,275.217,368.507,275.067z"
   id="path67" />&#10;					<path
   d="M322.193,258.78c-5.944-7.23-10.545-15.454-13.609-24.299c-3.134-9.05-7.024-23.078-1.958-31.986       c0.686-1.207-1.175-2.31-1.855-1.1c-4.975,8.853-1.774,21.428,1.141,30.495c3.269,10.169,8.869,19.252,16.083,27.089       C322.119,259.115,322.306,258.918,322.193,258.78z"
   id="path68" />&#10;				</g>&#10;			</g>&#10;			<g
   id="g93">&#10;				<g
   id="g73">&#10;					<g
   id="g70">&#10;						<path
   d="M335.966,133.58c-1.383-6.632-0.343-13.375,1.807-19.736c0.537-1.589,4.931-13.1,6.873-12.352        c1.865,0.718,2.046,10.751,2.176,12.331c0.244,2.96,0.417,5.93,0.505,8.899c0.03,1.025,2.4,0.932,2.514,0.001        c1.55-12.614,10.861-23.192,23.34-26.141c-0.538-0.147-1.075-0.293-1.613-0.44c6.559,12.536,0.565,32.614-14.947,34.306        c-0.674,0.073-1.581,0.611-0.988,1.338c9.513,11.679,21.762,20.376,36.498,23.984c11.113,2.721,22.144,2.011,33.445,2.025        c6.112,0.008,12.671,0.435,18.042,3.657c6.602,3.96,9.754,11.411,11.267,18.653c2.645,12.659,0.702,27.008-4.379,38.896        c-0.099,0.232,0.044,0.459,0.184,0.625c3.435,4.08,4.679,10.079,3.041,15.139c-1.561,4.822-6.254,9.571-11.475,8.561        c-0.546-0.105-1.363-0.085-1.712,0.448c-8.892,13.598-21.403,24.592-37.57,28.212c-13.896,3.111-28.523,0.509-41.415-5.159        c-11.882-5.224-22.768-13.071-31.282-22.888c-10.485-12.09-17.308-27.273-22.665-42.212        c-3.37-9.396-6.322-19.068-8.312-28.862c-0.198-0.976-2.323-0.985-2.514-0.001c-1.253,6.447-7.764,11.19-13.368,13.57        c-8.271,3.512-21.778,3.512-25.364-6.991c-0.13-0.38-0.778-1.109-0.71-1.519c0.07-0.423,2.678-3.074,2.974-3.42        c1.233-1.437,2.572-2.811,4.012-4.043c4.146-3.547,9.198-5.928,14.665-6.392c4.991-0.424,10.58,0.594,14.964,3.122        c0.687,0.396,2.919-0.266,1.907-1.175c-1.53-1.374-3.252-2.571-4.998-3.65c-1.879-1.161-3.857-2.165-5.913-2.973        c-1.909-0.749-4.271-0.885-6.091-1.692c-4.366-1.938,5.076-4.082,6.8-4.32c6.895-0.949,13.663,0.526,19.841,3.613        c0.939,0.469,3.063-0.641,1.694-1.325c-6.54-3.268-13.726-4.863-21.04-4.025c-3.107,0.356-8.826,1.105-10.835,3.935        c-1.623,2.285,0.316,3.077,2.384,3.66c5.934,1.671,11.357,3.597,16.039,7.802c0.636-0.392,1.272-0.783,1.907-1.175        c-12.162-7.013-27.405-3.142-36.563,6.822c-2.027,2.206-4.664,4.124-3.645,7.025c0.866,2.468,3.272,5.022,5.215,6.639        c7.191,5.983,16.829,4.723,24.836,1.11c5.772-2.605,12.48-7.698,13.778-14.373c-0.838,0-1.676-0.001-2.514-0.001        c5.021,24.702,14.324,51.657,30.725,71.091c17.379,20.594,46.529,34.729,73.737,29.854        c17.821-3.193,31.86-14.737,41.59-29.616c-0.571,0.149-1.141,0.299-1.712,0.448c10.352,2.001,17.609-9.111,15.505-18.485        c-0.564-2.51-1.797-4.517-2.994-6.732c-0.737-1.365-0.847-0.153,0.1-2.243c2.57-5.671,3.708-12.561,4.387-18.681        c1.515-13.674-0.456-32.778-14.543-39.529c-10.904-5.225-24.006-2.356-35.629-2.933c-20.227-1.005-37.362-9.776-50.17-25.501        c-0.329,0.446-0.659,0.892-0.988,1.338c16.812-1.833,24.634-22.43,17.214-36.611c-0.284-0.543-1.109-0.559-1.613-0.44        c-13.127,3.102-23.37,14.078-25.013,27.45c0.838,0,1.676,0.001,2.514,0.001c-0.141-4.782-0.428-9.594-1.07-14.336        c-0.32-2.369-0.511-8.704-4.015-8.759c-3.794-0.06-6.447,6.82-7.658,9.515c-3.446,7.675-5.441,16.531-3.699,24.883        C333.658,134.917,336.189,134.649,335.966,133.58L335.966,133.58z"
   id="path69" />&#10;					</g>&#10;					<g
   id="g71">&#10;						<path
   d="M357.899,130.947c-5.302-12.257,5.261-24.796,17.332-25.841c1.558-0.135,1.42-1.787-0.145-1.651        c-5.34,0.462-11.053,2.606-14.931,6.355c-5.221,5.048-7.62,14.966-4.667,21.79        C355.906,132.568,358.389,132.08,357.899,130.947L357.899,130.947z"
   id="path70" />&#10;					</g>&#10;					<g
   id="g72">&#10;						<path
   d="M259.993,183.199c9.319-9.779,24.05-11.969,36.207-6.818c0.951,0.403,3.087-0.734,1.694-1.325        c-13.533-5.734-29.784-3.395-40.167,7.502C256.823,183.506,259.29,183.937,259.993,183.199L259.993,183.199z"
   id="path71" />&#10;					</g>&#10;				</g>&#10;				<g
   id="g74">&#10;					<path
   d="M317.025,138.424c-4.263,3.307-7.289,8.061-9.481,12.937c-1.365,3.037-4.1,9.173-1.58,12.358       c1.993,2.519,5.705,1.384,8.007,0.05c5.121-2.967,8.787-8.576,10.688-14.049c-0.817,0.071-1.633,0.143-2.45,0.214       c3.315,6.668,15.001,11.815,22.038,9.221c2.872-1.058,4.251-3.556,3.154-6.507c-1.897-5.102-8.349-7.371-13.133-8.444       c-0.282,0.531-0.564,1.063-0.847,1.595c3.751,0.489,25.047,0.203,18.958-8.393c-2.878-4.062-10.738-4.34-15.088-4.372       C330.221,132.982,322.948,134.42,317.025,138.424c-1.257,0.849,1.035,1.594,1.898,1.01c4.811-3.252,10.662-4.517,16.4-4.716       c4.019-0.14,10.932-0.188,14.126,2.876c4.345,4.169-4.007,6.503-6.967,6.768c-2.819,0.253-5.718,0.151-8.525-0.215       c-1.021-0.133-2.351,1.258-0.847,1.595c3.985,0.893,8.891,2.478,11.184,6.208c2.273,3.698-0.053,6.21-4.157,6.032       c-5.521-0.239-12.896-3.427-15.518-8.702c-0.411-0.827-2.161-0.617-2.45,0.214c-1.445,4.161-3.855,8.061-7.134,11.04       c-0.572,0.52-1.218,1.16-1.898,1.535c-1.148,0.633-4.053,1.736-5.147,0.39c-0.847-1.042-0.232-3.865-0.028-4.843       c1.398-6.701,5.527-13.968,10.961-18.183C320.135,138.495,317.861,137.776,317.025,138.424z"
   id="path73" />&#10;				</g>&#10;				<g
   id="g79">&#10;					<g
   id="g75">&#10;						<path
   d="M334.857,248.84c-2.53-7.859-0.625-17.528,1.76-25.102c3.923-12.457,10.335-22.126,22.277-27.766        c9.134-4.314,19.007-6.791,27.866-11.741c11.179-6.246,19.472-15.564,25.628-26.71c0.669-1.21-1.765-1.55-2.266-0.641        c-7.186,13.01-17.158,22.9-30.742,29.026c-8.976,4.048-18.798,6.394-27.218,11.619c-10.362,6.429-15.854,17.437-18.897,28.965        c-1.878,7.116-3.142,15.79-0.82,23.003C332.763,250.479,335.24,250.029,334.857,248.84L334.857,248.84z"
   id="path74" />&#10;					</g>&#10;					<g
   id="g76">&#10;						<path
   d="M377.583,238.895c-4.333-1.066-12.443-3.641-12.488-9.386c-0.057-7.272,12.206-5.782,16.42-4.819        c4.238,0.969,11.967,3.891,11.947,9.34C393.434,241.454,382.03,239.821,377.583,238.895c-1.119-0.233-2.786,1.199-1.157,1.538        c5.542,1.153,16.479,2.701,19.176-4.378c2.733-7.174-7.733-11.701-12.93-12.902c-5.428-1.254-17.068-2.554-19.737,4.377        c-2.854,7.411,8.397,11.65,13.491,12.903C377.548,240.71,379.203,239.294,377.583,238.895z"
   id="path75" />&#10;					</g>&#10;					<g
   id="g77">&#10;						<path
   d="M431.944,182.989c-0.253,5.24,1.854,14.934,9.126,13.655c7.127-1.254,8.951-11.332,8-17.175        c-0.812-4.991-4.036-11.266-10.061-9.405C433.724,171.697,432.361,178.178,431.944,182.989        c-0.092,1.062,2.441,0.919,2.54-0.222c0.26-3.006,0.849-6.46,2.652-8.955c4.558-6.309,8.681,1.559,9.394,5.88        c0.748,4.531,0.088,10.649-3.612,13.867c-6.471,5.629-8.626-6.821-8.434-10.792C434.537,181.687,432,181.846,431.944,182.989z        "
   id="path76" />&#10;					</g>&#10;					<g
   id="g78">&#10;						<path
   d="M443.115,221.278c-7.008,2.991-5.082,21.197,3.723,17.271c7.166-3.195,6.257-20.329-3.427-17.381        c-1.611,0.49-0.495,1.932,0.815,1.533c6.215-1.892,5.701,11.856,1.754,14.237c-4.343,2.62-6.692-12.113-1.458-14.346        C446.054,221.938,444.176,220.825,443.115,221.278z"
   id="path77" />&#10;					</g>&#10;				</g>&#10;				<g
   id="g83">&#10;					<g
   id="g80">&#10;						&#10;					</g>&#10;					<g
   id="g81">&#10;						&#10;					</g>&#10;					<g
   id="g82">&#10;						<path
   d="M295.095,165.84c0.768-4.47,3.851-8.68,8.212-10.125c1.594-0.528,0.49-1.965-0.815-1.533        c-5.06,1.677-8.974,6.126-9.885,11.433C292.397,166.838,294.918,166.873,295.095,165.84L295.095,165.84z"
   id="path81" />&#10;					</g>&#10;				</g>&#10;				<g
   id="g87">&#10;					<g
   id="g84">&#10;						&#10;					</g>&#10;					<g
   id="g85">&#10;						&#10;					</g>&#10;					<g
   id="g86">&#10;						<path
   d="M335.167,128.539c2.592-4.703,7.871-7.116,13.104-6.703c1.347,0.106,2.224-1.518,0.536-1.651        c-6.142-0.485-12.805,2.086-15.906,7.713C332.233,129.109,334.666,129.448,335.167,128.539L335.167,128.539z"
   id="path85" />&#10;					</g>&#10;				</g>&#10;				<g
   id="g92">&#10;					<g
   id="g88">&#10;						&#10;					</g>&#10;					<g
   id="g89">&#10;						&#10;					</g>&#10;					<path
   d="M328.471,174.856c-2.225,1.568-2.689,5.088-2.754,7.549c-0.097,3.719,0.928,7.095,3.041,10.14       c0.325,0.468,1.196,0.119,0.944-0.45c-1.577-3.569-3.636-10.4-1.115-14.095c0.924-1.354,4.024-1.196,5.331-0.381       c0.816,0.509,1.489,1.405,2.08,2.159c1.261,1.608,2.038,3.454,2.99,5.242c0.391,0.733,1.735,0.29,1.565-0.541       C339.7,180.333,333.719,171.157,328.471,174.856z"
   id="path89" />&#10;					<path
   d="M325.581,170.439c-4.104,1.306-6.516,5.428-6.957,9.54c-0.094,0.875,1.422,1.057,1.548,0.175       c0.549-3.841,2.895-6.393,5.995-8.513C326.726,171.259,326.226,170.234,325.581,170.439z"
   id="path90" />&#10;					<path
   d="M375.497,158.89c-3.342-3.512-9.417-10.93-14.89-6.519c-5.023,4.048-1.149,11.173,0.69,15.729       c0.465,1.151,2.118,0.382,1.74-0.759c-1.232-3.719-5.42-10.131-1.267-13.482c4.299-3.47,10.073,3.356,13.011,5.868       C375.33,160.197,375.976,159.393,375.497,158.89z"
   id="path91" />&#10;					<path
   d="M365.412,144.956c-3.465-0.372-6.935,1.263-9.321,3.694c-0.657,0.669,0.257,1.666,0.981,1.072       c2.502-2.05,5.259-2.665,8.405-2.862C366.587,146.792,366.465,145.069,365.412,144.956z"
   id="path92" />&#10;				</g>&#10;			</g>&#10;		</g>&#10;	</g>&#10;</g>&#10;</svg>
