<?xml version="1.0" encoding="UTF-8" standalone="no"?>
<!-- Generator: Adobe Illustrator 27.5.0, SVG Export Plug-In . SVG Version: 6.00 Build 0)  -->

<svg
   version="1.1"
   id="Layer_1"
   x="0px"
   y="0px"
   viewBox="0 0 277.865 309.059"
   style="enable-background:new 0 0 277.865 309.059;"
   xml:space="preserve"
   sodipodi:docname="crab2.svg"
   inkscape:version="1.3 (0e150ed6c4, 2023-07-21)"
   xmlns:inkscape="http://www.inkscape.org/namespaces/inkscape"
   xmlns:sodipodi="http://sodipodi.sourceforge.net/DTD/sodipodi-0.dtd"
   xmlns="http://www.w3.org/2000/svg"
   xmlns:svg="http://www.w3.org/2000/svg"><defs
   id="defs64" /><sodipodi:namedview
   id="namedview64"
   pagecolor="#ffffff"
   bordercolor="#000000"
   borderopacity="0.25"
   inkscape:showpageshadow="2"
   inkscape:pageopacity="0.0"
   inkscape:pagecheckerboard="0"
   inkscape:deskcolor="#d1d1d1"
   inkscape:zoom="3.7953919"
   inkscape:cx="87.474497"
   inkscape:cy="162.43382"
   inkscape:window-width="2560"
   inkscape:window-height="1369"
   inkscape:window-x="1072"
   inkscape:window-y="259"
   inkscape:window-maximized="1"
   inkscape:current-layer="g64" />&#10;<g
   id="g64">&#10;	<path
   style="fill:#FFFFFF;"
   d="M183.051,145.985l-6.476,0.924c1.955,13.908-5.873,19.758-5.873,19.758l7.564,1.904   C184.954,154.361,183.051,145.985,183.051,145.985z"
   id="path1" />&#10;	<path
   style="fill:#FFFFFF;"
   d="M72.34,237.792c0,0-0.992,0.706-2.463,2.112c-0.089,0.086-0.173,0.164-0.266,0.255   c-0.138,0.133-0.282,0.281-0.426,0.428c-0.144,0.145-0.285,0.286-0.434,0.443c-0.13,0.136-0.264,0.281-0.398,0.426   c-0.173,0.188-0.348,0.376-0.527,0.577c-0.13,0.145-0.262,0.299-0.395,0.452c-0.19,0.221-0.382,0.446-0.579,0.684   c-0.133,0.16-0.266,0.325-0.4,0.493c-0.202,0.251-0.404,0.51-0.609,0.778c-0.135,0.177-0.269,0.355-0.405,0.539   c-0.207,0.28-0.415,0.57-0.623,0.869c-0.136,0.193-0.27,0.386-0.407,0.587c-0.21,0.311-0.419,0.635-0.628,0.962   c-0.135,0.21-0.268,0.417-0.401,0.634c-0.212,0.346-0.42,0.706-0.629,1.069c-0.126,0.22-0.254,0.434-0.378,0.66   c-0.217,0.393-0.43,0.806-0.642,1.22c-0.11,0.217-0.224,0.426-0.334,0.648c-0.238,0.484-0.466,0.99-0.694,1.501   c-0.075,0.17-0.155,0.33-0.229,0.503c-0.301,0.698-0.591,1.416-0.867,2.161c0,0.001,0.001,0.001,0.001,0.002   c0,0.001-0.001,0.001-0.001,0.002c-0.905,2.434-1.657,5.135-2.174,8.092c-1.224,7.045-1.089,15.584,1.703,25.688   c1.876,3.354,2.983-1.905,5.086-9.695c0.101-0.373,0.203-0.75,0.309-1.135c0.02-0.073,0.04-0.147,0.061-0.221   c0.731-2.648,1.582-5.532,2.612-8.438l0.007-0.015l0.073-0.205l0.022-0.063l0.068-0.185l0.005-0.021   c0.033-0.092,0.066-0.185,0.1-0.276l0.001-0.002l0.089-0.248c0.646-1.724,1.353-3.447,2.133-5.118c0-0.001,0.001-0.001,0.001-0.002   c0.264-0.562,0.539-1.117,0.821-1.667c0.046-0.092,0.094-0.183,0.142-0.274c0.579-1.114,1.198-2.197,1.86-3.236   c0.04-0.063,0.08-0.125,0.12-0.188c0.671-1.039,1.388-2.032,2.152-2.967c0.053-0.066,0.109-0.131,0.164-0.197   c0.375-0.449,0.759-0.888,1.157-1.308c0.006-0.007,0.014-0.015,0.021-0.021c0.403-0.424,0.821-0.826,1.249-1.216   c0.079-0.07,0.159-0.14,0.238-0.21c0.387-0.341,0.784-0.669,1.191-0.979c1.415-1.078,2.955-1.97,4.643-2.611   C84.639,239.668,72.34,237.792,72.34,237.792z"
   id="path2" />&#10;	<path
   style="fill:#FFFFFF;"
   d="M197.281,283.094c-1.246-1.353-2.466-2.756-3.605-4.218c-4.48-5.732-7.762-12.232-7.047-18.996   c-0.189-0.125-0.375-0.238-0.56-0.345c-0.58-0.34-1.154-0.602-1.724-0.789c-0.012-0.004-0.025-0.011-0.037-0.015l-0.049-0.011   c-6.887-2.188-12.721,5.975-12.721,5.975s0.009,0.063,0.029,0.173c0-0.001-0.001-0.001-0.001-0.002   c0.002,0.01,0.006,0.032,0.008,0.043c0.012,0.068,0.027,0.148,0.046,0.248c0.006,0.032,0.013,0.065,0.02,0.101   c0.025,0.123,0.054,0.26,0.09,0.421c0.005,0.026,0.012,0.056,0.019,0.082c0.037,0.165,0.08,0.345,0.129,0.542   c0.007,0.031,0.014,0.057,0.021,0.089c0.055,0.215,0.118,0.453,0.188,0.704c0.012,0.045,0.023,0.087,0.037,0.133   c0.071,0.254,0.153,0.527,0.242,0.815c0.017,0.053,0.032,0.104,0.049,0.158c0.092,0.293,0.195,0.602,0.305,0.923   c0.02,0.059,0.039,0.115,0.06,0.174c0.116,0.333,0.243,0.678,0.38,1.036c0.019,0.053,0.04,0.106,0.061,0.158   c0.145,0.375,0.299,0.76,0.469,1.159c0.016,0.038,0.033,0.078,0.049,0.115c0.181,0.423,0.373,0.855,0.582,1.303   c0,0.001,0.001,0.002,0.002,0.004c0.213,0.455,0.443,0.922,0.688,1.398c0.013,0.024,0.025,0.05,0.038,0.074   c0.237,0.459,0.492,0.927,0.759,1.402c0.028,0.051,0.056,0.1,0.085,0.151c0.264,0.463,0.546,0.935,0.841,1.411   c0.041,0.063,0.079,0.127,0.12,0.191c0.297,0.473,0.61,0.95,0.94,1.433c0.046,0.067,0.093,0.135,0.14,0.202   c0.337,0.484,0.689,0.974,1.061,1.464c0.046,0.06,0.093,0.122,0.14,0.183c0.384,0.503,0.783,1.006,1.206,1.511   c0.035,0.041,0.072,0.084,0.107,0.125c0.443,0.526,0.904,1.054,1.393,1.58c1.769,1.909,3.823,3.799,6.238,5.599   c0.001,0,0.002-0.001,0.003-0.001c5.733,4.278,13.404,8.006,23.679,10.091C217.222,299.665,206.407,292.946,197.281,283.094z"
   id="path3" />&#10;	<path
   style="fill:#FFFFFF;"
   d="M219.937,262.044c-1.472-1.098-2.928-2.264-4.314-3.484c-5.458-4.815-9.879-10.607-10.406-17.384   c-0.214-0.093-0.424-0.173-0.632-0.244c-0.201-0.073-0.399-0.134-0.597-0.191l-0.147-0.046c-0.017-0.004-0.032-0.007-0.049-0.011   c-0.151-0.04-0.301-0.073-0.449-0.104c-0.05-0.011-0.099-0.02-0.147-0.029c-0.966-0.183-1.882-0.186-2.744-0.046   c-0.017,0.002-0.035,0.001-0.052,0.004h-0.005c0,0.002,0.001,0.003,0.001,0.005c-5.781,0.973-9.139,8.162-9.139,8.162   s0.425,1.245,1.459,3.198c0.007,0.014,0.014,0.027,0.021,0.042c0.155,0.29,0.322,0.596,0.504,0.915   c0.022,0.04,0.045,0.079,0.068,0.12c0.177,0.31,0.367,0.631,0.571,0.964c0.032,0.052,0.064,0.103,0.096,0.155   c0.207,0.334,0.424,0.676,0.658,1.03c0.033,0.05,0.068,0.102,0.102,0.151c0.243,0.364,0.497,0.734,0.769,1.114   c0.021,0.03,0.045,0.061,0.064,0.089c0.266,0.369,0.547,0.745,0.841,1.126c0.04,0.053,0.078,0.104,0.119,0.156   c0.298,0.382,0.614,0.77,0.942,1.162c0.059,0.071,0.116,0.142,0.176,0.212c0.327,0.387,0.671,0.776,1.029,1.168   c0.07,0.077,0.14,0.154,0.211,0.231c0.364,0.393,0.743,0.788,1.139,1.184c0.073,0.074,0.146,0.146,0.221,0.221   c0.408,0.403,0.831,0.807,1.272,1.21c0.067,0.06,0.136,0.121,0.203,0.183c0.462,0.416,0.938,0.83,1.438,1.242   c0.047,0.038,0.097,0.077,0.144,0.116c0.529,0.433,1.076,0.863,1.647,1.289c2.083,1.553,4.465,3.037,7.161,4.357   c6.418,3.159,14.646,5.429,25.13,5.591C242.573,274.68,230.712,270.061,219.937,262.044z M213.141,269.66   c0.026-0.018,0.051-0.034,0.077-0.052c0.001,0,0.001-0.001,0.001-0.001C213.192,269.625,213.167,269.643,213.141,269.66z    M219.046,263.609c-0.02,0.029-0.04,0.056-0.059,0.085c0.007-0.011,0.015-0.021,0.022-0.033c0.02-0.029,0.04-0.055,0.059-0.084   C219.06,263.588,219.052,263.598,219.046,263.609z M219.194,263.361c-0.002,0.003-0.005,0.007-0.006,0.011   c0.009-0.015,0.018-0.031,0.027-0.047c0.001-0.004,0.004-0.008,0.006-0.012C219.212,263.329,219.204,263.347,219.194,263.361z"
   id="path4" />&#10;	<path
   style="fill:#FFFFFF;"
   d="M237.126,237.375c-1.748-0.576-3.499-1.218-5.195-1.933c-6.286-2.661-11.98-6.42-14.856-12.035   c-0.191-0.374-0.371-0.757-0.537-1.147c-0.227-0.02-0.448-0.028-0.665-0.03c-0.682-0.016-1.32,0.039-1.915,0.155   c-0.003,0-0.005,0-0.008,0.001l-0.067,0.016c-0.001,0.001-0.004,0.002-0.006,0.002c-0.766,0.158-1.462,0.416-2.095,0.752   c-0.007,0.003-0.016,0.005-0.022,0.009c0,0.001,0.001,0.001,0.001,0.002c-5.17,2.758-6.077,10.633-6.077,10.633   s0.772,1.003,2.292,2.468c0.054,0.052,0.102,0.1,0.159,0.153c0.164,0.155,0.344,0.318,0.524,0.483   c0.125,0.113,0.244,0.225,0.376,0.342c0.162,0.144,0.335,0.291,0.51,0.44c0.172,0.148,0.344,0.295,0.527,0.447   c0.168,0.139,0.343,0.278,0.52,0.42c0.213,0.17,0.429,0.34,0.656,0.515c0.177,0.135,0.359,0.271,0.544,0.409   c0.249,0.184,0.503,0.368,0.767,0.554c0.19,0.135,0.382,0.268,0.58,0.403c0.281,0.191,0.572,0.383,0.87,0.574   c0.205,0.133,0.409,0.264,0.622,0.396c0.313,0.194,0.637,0.388,0.966,0.581c0.22,0.128,0.437,0.258,0.664,0.385   c0.346,0.195,0.708,0.386,1.071,0.578c0.232,0.122,0.459,0.245,0.698,0.366c0.387,0.194,0.793,0.384,1.199,0.573   c0.237,0.109,0.465,0.223,0.708,0.33c0.453,0.202,0.926,0.393,1.402,0.586c0.216,0.087,0.422,0.18,0.643,0.265   c0.704,0.271,1.428,0.532,2.179,0.778c2.471,0.809,5.196,1.457,8.171,1.86c7.094,0.952,15.618,0.49,25.615-2.683   C262.604,242.167,249.896,241.555,237.126,237.375z"
   id="path5" />&#10;	<path
   style="fill:#FFFFFF;"
   d="M112.561,138.058l-7.766-0.71c-4.409,15.084-1.226,23.065-1.226,23.065l6.262-1.924   C105.733,145.058,112.561,138.058,112.561,138.058z"
   id="path6" />&#10;	<path
   style="fill:#FFFFFF;"
   d="M261.906,198.538c-0.08-0.04-0.176-0.068-0.284-0.089c-0.009-0.001-0.014-0.005-0.022-0.007h-0.017   c-0.005-0.001-0.011,0-0.015-0.001c-0.289-0.045-0.666-0.029-1.123,0.041c-0.016,0.003-0.027,0.002-0.043,0.005l-0.009,0.004   c-0.792,0.128-1.815,0.408-3.028,0.793c-0.081,0.025-0.165,0.053-0.247,0.079c-0.304,0.097-0.616,0.199-0.941,0.309   c-1.881,0.627-4.106,1.425-6.574,2.255l-0.172,0.057l-0.609,0.207c-0.049,0.016-0.097,0.032-0.146,0.048   c-0.271,0.085-0.542,0.176-0.819,0.265l-0.539,0.179c-0.459,0.141-0.928,0.29-1.392,0.433l-0.483,0.149   c-0.437,0.135-0.882,0.262-1.318,0.395l-0.232,0.072c-0.028,0.009-0.055,0.017-0.082,0.025c-0.5,0.142-1.004,0.279-1.508,0.42   c-0.014,0.004-0.028,0.008-0.042,0.011l-0.39,0.099c-0.555,0.15-1.105,0.295-1.667,0.434v0.001   c-1.789,0.431-3.607,0.813-5.435,1.104c-7.19,1.126-14.468,0.833-20.027-3.074c-0.367,0.186-0.699,0.39-1.015,0.601   c-0.016,0.011-0.036,0.02-0.051,0.03l-0.127,0.092c-0.337,0.235-0.649,0.483-0.931,0.746c-0.003,0.002-0.007,0.005-0.01,0.008   l-0.044,0.045c-0.001,0.001-0.002,0.002-0.003,0.003c-0.565,0.537-1.02,1.12-1.38,1.735c-0.006,0.012-0.015,0.021-0.021,0.03   c0.001,0.001,0.002,0.001,0.003,0.001c-2.938,5.074,0.457,12.241,0.457,12.241s0.063,0.023,0.172,0.063   c-0.004-0.001-0.009-0.001-0.015-0.002c0.359,0.125,1.377,0.453,2.903,0.787c0.006,0.002,0.013,0.003,0.02,0.005   c0.288,0.063,0.595,0.124,0.919,0.186c0.084,0.017,0.165,0.032,0.252,0.049c0.182,0.033,0.368,0.065,0.56,0.098   c0.241,0.039,0.487,0.079,0.743,0.117c0.176,0.025,0.358,0.05,0.54,0.074c0.247,0.033,0.5,0.064,0.759,0.094   c0.207,0.024,0.418,0.046,0.632,0.066c0.282,0.029,0.571,0.054,0.866,0.077c0.199,0.016,0.399,0.029,0.603,0.042   c0.336,0.021,0.679,0.038,1.029,0.052c0.148,0.006,0.294,0.012,0.445,0.017c0.427,0.012,0.867,0.016,1.314,0.015   c0.14-0.001,0.278,0,0.42-0.002c0.472-0.006,0.956-0.021,1.448-0.044c0.138-0.007,0.273-0.013,0.412-0.02   c0.51-0.028,1.03-0.066,1.561-0.115c0.127-0.012,0.255-0.024,0.383-0.038c0.552-0.055,1.113-0.12,1.686-0.2   c0.106-0.016,0.213-0.032,0.321-0.049c0.602-0.088,1.214-0.189,1.837-0.308c0.067-0.013,0.136-0.027,0.202-0.04   c0.667-0.132,1.343-0.276,2.03-0.444c2.531-0.619,5.189-1.507,7.93-2.74c6.519-2.932,13.517-7.829,20.323-15.794   c0.197-0.393,0.298-0.706,0.326-0.964C262.278,198.905,262.166,198.667,261.906,198.538z"
   id="path7" />&#10;	<path
   style="fill:#000000;"
   d="M103.71,160.867l-0.14-0.455l0.439-0.18l-0.439,0.18L103.71,160.867l-0.421,0.126l-0.162-0.41   c-0.028-0.081-3.223-8.182,1.202-23.37l0.112-0.374l9.154,0.838l-0.696,0.716c0.005,0-0.387,0.395-0.948,1.233   c-0.551,0.837-1.26,2.097-1.843,3.769c-1.163,3.343-1.835,8.33,0.18,14.957l0.136,0.455L103.71,160.867z M109.241,158.171   c-3.174-10.903,0.792-17.614,2.376-19.72l-6.481-0.596c-2.088,7.307-2.375,12.889-2.134,16.651c0.18,2.8,0.635,4.563,0.865,5.316   L109.241,158.171z"
   id="path8" />&#10;	<path
   style="fill:#000000;"
   d="M182.995,145.513l0.066,0.472l-0.472,0.105l0.472-0.105L182.995,145.513l0.431-0.059l0.097,0.424   c0.016,0.085,1.914,8.583-4.82,22.901l-0.173,0.351l-8.907-2.247l0.804-0.598c-0.012-0.005,0.438-0.337,1.122-1.075   c0.681-0.739,1.578-1.873,2.405-3.431c1.673-3.128,3.116-7.949,2.15-14.803l-0.062-0.47L182.995,145.513z M177.104,147.313   c1.442,11.271-3.515,17.271-5.402,19.116l6.306,1.589c3.195-6.887,4.341-12.36,4.695-16.115c0.264-2.791,0.085-4.605-0.028-5.383   L177.104,147.313z"
   id="path9" />&#10;	<polygon
   style="fill:#7D0F10;"
   points="179.693,146.484 177.306,146.831 177.367,147.276 179.744,146.936  "
   id="polygon9" />&#10;	<path
   style="fill:#ED3425;"
   d="M219.925,244.215l-0.663-0.316L219.925,244.215z"
   id="path10" />&#10;	<path
   style="fill:#ED3425;"
   d="M221.98,245.065l-0.611-0.247L221.98,245.065z"
   id="path11" />&#10;	<path
   style="fill:#ED3425;"
   d="M219.262,243.899c-0.415-0.192-0.842-0.391-1.248-0.589   C218.42,243.509,218.835,243.707,219.262,243.899z"
   id="path12" />&#10;	<path
   style="fill:#ED3425;"
   d="M221.369,244.818c-0.484-0.203-0.973-0.396-1.444-0.607   C220.396,244.422,220.885,244.615,221.369,244.818z"
   id="path13" />&#10;	<path
   style="fill:#000000;"
   d="M213.656,298.504l-0.011-0.011c-0.746-1.942-4.851-5.099-9.726-9.619l-0.506-0.472l-0.549-0.505   c-0.331-0.317-0.658-0.638-0.999-0.953l-0.416-0.4c-0.298-0.289-0.601-0.59-0.91-0.888l-0.246-0.247   c-0.377-0.371-0.752-0.753-1.124-1.143l-0.314-0.311c-0.387-0.41-0.786-0.82-1.163-1.238c-1.24-1.337-2.453-2.732-3.578-4.182   c-4.031-5.149-7.036-10.889-7.03-16.78c0-0.605,0.028-1.21,0.096-1.814l-0.236-0.515c-0.382-0.261-0.759-0.472-1.123-0.647   l-0.028-0.018v-0.008l-0.179-0.088c-0.388-0.181-0.764-0.337-1.135-0.464l-0.066-0.016c-0.439-0.135-0.866-0.23-1.286-0.288   l-0.443-0.038l-0.658-0.062h-0.012l-0.123,0.014h-0.017c-1.82,0-3.499,0.567-4.964,1.376l-0.061,0.029   c-0.309,0.171-0.602,0.35-0.878,0.535l-0.123,0.085c-0.286,0.19-0.578,0.394-0.865,0.613l-0.028,0.018   c-0.265,0.203-0.518,0.405-0.753,0.607l-0.13,0.108l-0.656,0.599l-0.141,0.135l-0.521,0.515l-0.074,0.075l-0.472,0.508   l-0.124,0.133l-0.372,0.435l-0.071,0.088l-0.231,0.284l-0.067,0.083l-0.172,0.217l-0.024,0.035l-0.056,0.077l-0.095,0.418   c0,0.005,0.023,0.157,0.074,0.424l0.016,0.067l0.005,0.061l0.107,0.485c0.039,0.209,0.1,0.438,0.163,0.7l0.028,0.105l0.136,0.515   l0.083,0.283l0.023,0.068l0.028,0.118c0.084,0.27,0.163,0.538,0.253,0.83l0.089,0.283c0.095,0.281,0.197,0.573,0.297,0.882   l0.068,0.172l0.055,0.154l0.18,0.485l0.186,0.479l0.169,0.423c0.128,0.315,0.269,0.639,0.41,0.972l0.218,0.485   c0.113,0.257,0.236,0.524,0.372,0.792l0.095,0.226l0.257,0.509v0.005l0.007,0.009c0.175,0.342,0.349,0.685,0.54,1.027l0.116,0.225   l0.187,0.352l0.202,0.351l0.42,0.717l0.354,0.605c0.23,0.365,0.466,0.73,0.702,1.087l0.403,0.628   c0.265,0.383,0.54,0.754,0.81,1.127l0.438,0.612c0.314,0.418,0.639,0.821,0.972,1.233l0.427,0.53   c0.483,0.589,0.999,1.17,1.544,1.761c1.79,1.935,3.88,3.843,6.311,5.665c5.802,4.328,13.557,8.099,23.908,10.188l0.134,0.017   c0.55-0.023,0.994-0.095,1.358-0.306c0.377-0.18,0.653-0.62,0.635-1.039l-0.083-0.477L213.656,298.504z M212.606,299.173   c-0.106,0.06-0.381,0.141-0.808,0.163c-10.164-2.075-17.74-5.761-23.395-9.984c-2.382-1.777-4.415-3.646-6.167-5.532   c-0.528-0.566-1.027-1.142-1.506-1.718l-0.415-0.52c-0.332-0.405-0.652-0.801-0.944-1.197l-0.432-0.598   c-0.271-0.369-0.541-0.737-0.781-1.103l-0.399-0.604c-0.235-0.36-0.471-0.72-0.679-1.062l-0.359-0.591l-0.399-0.707l-0.202-0.345   l-0.18-0.326l-0.123-0.226c-0.174-0.337-0.354-0.672-0.522-0.999v-0.008l-0.006-0.009l-0.235-0.5l-0.106-0.22   c-0.13-0.261-0.248-0.522-0.36-0.773l-0.208-0.465c-0.141-0.327-0.275-0.634-0.405-0.948l-0.162-0.41l-0.173-0.463l-0.181-0.479   l-0.067-0.162l-0.051-0.148c-0.101-0.298-0.202-0.584-0.291-0.859l-0.089-0.27c-0.085-0.291-0.168-0.55-0.237-0.806l-0.039-0.135   l-0.028-0.068l-0.056-0.251l-0.134-0.487l-0.034-0.11l-0.157-0.673l-0.101-0.471l-0.024-0.118l-0.028-0.158l0.096-0.12l0.061-0.067   l0.213-0.266l0.072-0.092l0.345-0.4l0.122-0.127l0.445-0.485l0.077-0.077l0.496-0.483l0.133-0.137l0.62-0.558l0.122-0.107   l0.714-0.573l0.016-0.022c0.258-0.193,0.534-0.388,0.815-0.576l0.101-0.056l0.753-0.472l0.066-0.03   c1.349-0.753,2.869-1.267,4.482-1.267h0.129l0.128-0.008l0.444,0.044l0.381,0.04c0.378,0.051,0.748,0.132,1.124,0.248l0.045,0.018   v-0.008c0.348,0.111,0.668,0.247,1.005,0.404h-0.012l0.046,0.019l0.146,0.071l0.736,0.415c-0.05,0.534-0.062,1.062-0.062,1.59   c0,6.277,3.156,12.214,7.261,17.471c1.146,1.469,2.381,2.886,3.634,4.245c0.398,0.424,0.791,0.843,1.178,1.253l0.314,0.323   c0.382,0.387,0.765,0.777,1.14,1.148l0.254,0.247c0.309,0.307,0.618,0.604,0.92,0.905l0.415,0.403   c0.338,0.318,0.675,0.633,1.012,0.952l0.55,0.508l0.507,0.477c4.874,4.443,9.092,7.959,9.468,9.241v0.009l0.033,0.163   L212.606,299.173z"
   id="path14" />&#10;	<path
   style="fill:#000000;"
   d="M258.926,242.881l-0.006-0.007c-0.256-0.224-0.646-0.434-1.129-0.633l-0.022-0.01   c-2.263-0.943-6.706-1.746-11.961-3.025c-0.281-0.058-0.551-0.132-0.826-0.201l-0.601-0.149c-0.467-0.111-0.928-0.233-1.394-0.357   l-0.517-0.126c-0.42-0.121-0.854-0.242-1.291-0.36l-0.28-0.075c-0.517-0.148-1.038-0.3-1.561-0.455l-0.4-0.126   c-0.554-0.165-1.093-0.334-1.628-0.509c-1.741-0.573-3.482-1.209-5.167-1.917c-6.643-2.809-12.523-6.838-15.094-12.892   l-0.456-0.334c-0.291-0.023-0.567-0.038-0.837-0.038l-0.483,0.016h0.029l-0.248,0.005c-0.415,0.026-0.819,0.076-1.206,0.152   l-0.068,0.013c-0.793,0.164-1.505,0.427-2.156,0.762l-0.118,0.063l0.01-0.009c-1.661,0.882-2.879,2.238-3.778,3.67l-0.068,0.09   c-0.213,0.336-0.397,0.682-0.573,1.016l-0.039,0.083c-0.292,0.575-0.545,1.165-0.765,1.732l-0.05,0.133   c-0.203,0.546-0.377,1.078-0.506,1.56l-0.038,0.135l-0.163,0.607l-0.023,0.104l-0.139,0.573l-0.018,0.12l-0.083,0.396l-0.017,0.104   l-0.058,0.364l-0.006,0.055l-0.038,0.207v0.03l-0.007,0.082l0.102,0.404l0.061,0.082l0.064,0.075l0.027,0.023l0.169,0.214   l0.089,0.107l0.085,0.089l0.113,0.135l0.028,0.027l0.028,0.04c0.297,0.334,0.69,0.752,1.167,1.23l0.036,0.038l0.044,0.043   l0.634,0.62l0.062,0.045l0.151,0.151l0.747,0.676l0.09,0.086l0.157,0.134l0.539,0.446l0.258,0.232l0.33,0.261   c0.277,0.223,0.557,0.441,0.859,0.675l0.197,0.145l0.198,0.152c0.297,0.215,0.605,0.446,0.926,0.67l0.466,0.323l0.652,0.432   l0.341,0.226l0.534,0.342l0.713,0.424l0.348,0.212l0.606,0.351l0.641,0.342l0.511,0.278l0.281,0.146l0.365,0.197   c0.41,0.202,0.837,0.401,1.258,0.598l0.686,0.32c0.471,0.207,0.955,0.41,1.439,0.604l0.629,0.256   c0.707,0.274,1.447,0.545,2.213,0.791c2.498,0.82,5.262,1.478,8.264,1.882c2.114,0.28,4.348,0.446,6.713,0.443h0.051   c5.642,0,12.011-0.904,19.092-3.15l0.119-0.05c0.708-0.449,1.212-0.882,1.241-1.584c0-0.396-0.192-0.707-0.439-0.936   L258.926,242.881z M258.263,244.079c-0.095,0.113-0.279,0.263-0.55,0.439c-6.968,2.195-13.191,3.077-18.7,3.077   c-2.325,0-4.532-0.158-6.605-0.44c-2.942-0.398-5.631-1.038-8.075-1.837c-0.741-0.247-1.455-0.5-2.156-0.77l-0.607-0.248   c-0.482-0.198-0.961-0.395-1.409-0.594l-0.675-0.307c-0.415-0.196-0.826-0.391-1.218-0.59l-0.348-0.18l-0.287-0.148l-0.501-0.271   l-0.622-0.333l-0.585-0.347l-0.342-0.199l-0.696-0.421l-0.522-0.335l-0.337-0.219l-0.634-0.415l-0.455-0.323   c-0.303-0.213-0.612-0.433-0.894-0.648l-0.196-0.141l-0.202-0.148c-0.281-0.218-0.557-0.438-0.826-0.652l-0.32-0.262l-0.265-0.216   l-0.504-0.438l-0.163-0.143l-0.084-0.067l-0.714-0.654l0.018,0.018l-0.033-0.031l-0.152-0.142l-0.046-0.045l-0.623-0.597   l-0.056-0.068l-0.022-0.021c-0.465-0.454-0.833-0.857-1.106-1.162l-0.029-0.04l-0.032-0.028l-0.113-0.135l-0.078-0.091l-0.08-0.085   l-0.145-0.181l0.006-0.067l0.011-0.046l0.056-0.336l0.018-0.096l0.074-0.376l0.021-0.112l0.123-0.565l0.034-0.098l0.14-0.553   l0.04-0.135c0.133-0.461,0.297-0.961,0.483-1.483l0.05-0.126c0.203-0.53,0.444-1.075,0.719-1.629l0.038-0.066   c0.146-0.29,0.304-0.582,0.466-0.857l0.062-0.075c0.843-1.367,1.949-2.598,3.409-3.375l-0.01,0.008l0.123-0.05   c0.567-0.293,1.179-0.523,1.859-0.665l0.084-0.014c0.321-0.061,0.674-0.104,1.044-0.131l0.203-0.005h-0.023l0.455-0.018l0.41,0.018   c2.814,6.285,8.895,10.344,15.546,13.157c1.729,0.733,3.486,1.377,5.239,1.949c0.555,0.189,1.105,0.36,1.651,0.523l0.421,0.129   c0.522,0.155,1.044,0.313,1.573,0.455l0.285,0.081c0.438,0.117,0.872,0.239,1.302,0.359l0.517,0.133   c0.472,0.12,0.933,0.241,1.394,0.359l0.617,0.147c0.28,0.067,0.557,0.144,0.827,0.204c5.278,1.268,9.776,2.109,11.799,2.969   l0.033,0.01c0.409,0.171,0.712,0.351,0.864,0.485l0.006,0.014l0.124,0.149L258.263,244.079z"
   id="path15" />&#10;	<path
   style="fill:#000000;"
   d="M262.571,198.389l-0.444,0.338l0.41-0.374l-0.039-0.046l-0.281-0.223l-0.101-0.055l-0.354-0.117   l-0.107-0.025h-0.017l-0.371-0.028l-0.522,0.028l-0.421,0.053h-0.027c-0.287,0.053-0.584,0.112-0.904,0.188l-0.484,0.126   l-0.544,0.149l-0.629,0.185l-0.523,0.158c-0.264,0.089-0.539,0.18-0.809,0.269l-0.443,0.141c-0.365,0.12-0.746,0.256-1.141,0.39   l-0.162,0.051c-1.567,0.539-3.32,1.167-5.228,1.801l-0.158,0.051l-0.557,0.189l-0.1,0.035c-0.31,0.107-0.63,0.203-0.95,0.316   l-0.516,0.161c-0.454,0.144-0.917,0.293-1.388,0.441l-0.235,0.067l-0.225,0.073c-0.448,0.134-0.904,0.271-1.371,0.403l-0.214,0.068   c-0.534,0.147-1.061,0.297-1.589,0.44l-0.386,0.105c-0.562,0.147-1.117,0.291-1.668,0.426c-1.774,0.43-3.583,0.812-5.397,1.097   c-2.27,0.358-4.543,0.566-6.761,0.566c-4.741,0-9.199-0.969-12.861-3.544l-0.567-0.037c-0.41,0.208-0.786,0.441-1.122,0.672   l-0.192,0.126c-0.337,0.239-0.656,0.494-0.949,0.761l-0.052,0.06c-0.611,0.575-1.105,1.216-1.492,1.884l-0.019,0.036   c-0.925,1.59-1.246,3.388-1.252,5.098l-0.005,0.09c0,0.396,0.018,0.782,0.057,1.164v0.074c0.061,0.665,0.151,1.291,0.269,1.895   l0.023,0.112c0.117,0.59,0.253,1.129,0.392,1.621l0.045,0.133l0.181,0.599l0.033,0.091l0.202,0.572l0.029,0.082l0.157,0.411   l0.028,0.082l0.141,0.352l0.017,0.044l0.084,0.195l0.027,0.044l0.023,0.06l0.315,0.292l0.168,0.059l0.023,0.009l0.288,0.096   l0.146,0.044l0.309,0.1l0.033,0.008l0.101,0.027l0.511,0.144l0.197,0.05l0.662,0.172l0.174,0.041l0.057,0.014l0.022,0.007   c0.293,0.068,0.619,0.145,0.972,0.208l0.051,0.016l0.157,0.024c0.297,0.059,0.595,0.109,0.904,0.162l0.106,0.022l0.073,0.018   l0.23,0.037c0.343,0.051,0.686,0.104,1.045,0.148l0.14,0.016l0.264,0.035l0.732,0.085l0.365,0.036l0.196,0.017l0.285,0.023   l0.506,0.036l0.648,0.045l0.285,0.014l0.276,0.018l0.606,0.015l0.59,0.021h0.635l0.504-0.005c0.242,0,0.49,0,0.753-0.005   l0.403-0.018l0.282-0.009c0.427-0.015,0.865-0.044,1.297-0.081c0.242-0.015,0.477-0.031,0.74-0.054   c0.456-0.037,0.928-0.096,1.382-0.146l0.006-0.012l0.73-0.081c0.416-0.059,0.825-0.133,1.23-0.199l0.33-0.054l0.663-0.112   c0.751-0.14,1.511-0.306,2.297-0.499c2.314-0.564,4.74-1.352,7.233-2.419v0.002c0.359-0.166,0.725-0.314,1.09-0.467   c0.029-0.013,0.059-0.019,0.089-0.026c0.002-0.015,0.004-0.027,0.006-0.042c0.303-0.141,0.618-0.289,0.933-0.438l0.162-0.085   c0.36-0.179,0.719-0.356,1.085-0.544l0.146-0.075c0.365-0.203,0.736-0.396,1.117-0.605l0.118-0.072   c0.383-0.22,0.766-0.434,1.146-0.659l0.129-0.082c0.382-0.226,0.758-0.454,1.134-0.693l0.159-0.106   c0.375-0.236,0.739-0.478,1.123-0.731l0.162-0.112c0.365-0.256,0.742-0.508,1.112-0.778l0.224-0.162   c0.349-0.253,0.703-0.515,1.061-0.783l0.253-0.194c0.343-0.27,0.685-0.536,1.039-0.814l0.259-0.216   c0.341-0.275,0.679-0.559,1.021-0.851l0.342-0.293c0.314-0.275,0.635-0.541,0.949-0.834l0.405-0.373   c0.297-0.27,0.59-0.53,0.887-0.823l0.522-0.499c0.246-0.246,0.504-0.49,0.767-0.752l0.664-0.68l0.629-0.648   c0.309-0.321,0.612-0.657,0.911-0.986l0.375-0.404c0.434-0.475,0.854-0.96,1.293-1.463l0.068-0.109l0.235-0.57l0.023-0.067   l0.122-0.699C262.806,198.866,262.729,198.605,262.571,198.389z M261.683,199.136l-0.061,0.354l-0.029,0.056l-0.151,0.377   c-0.405,0.472-0.809,0.934-1.219,1.388l-0.364,0.397c-0.303,0.335-0.606,0.664-0.904,0.975l-0.611,0.628l-0.658,0.673l-0.758,0.748   l-0.51,0.49c-0.281,0.277-0.573,0.539-0.872,0.808l-0.398,0.363c-0.302,0.277-0.617,0.547-0.931,0.815l-0.327,0.29   c-0.337,0.284-0.673,0.561-1.01,0.829l-0.259,0.226c-0.336,0.268-0.679,0.53-1.021,0.792l-0.241,0.185   c-0.349,0.27-0.692,0.522-1.046,0.778l-0.213,0.153c-0.371,0.264-0.724,0.517-1.095,0.761l-0.163,0.112   c-0.365,0.251-0.73,0.486-1.095,0.719l-0.158,0.104c-0.365,0.231-0.729,0.454-1.107,0.68l-0.134,0.082   c-0.364,0.216-0.736,0.435-1.112,0.636l-0.117,0.074c-0.364,0.201-0.729,0.401-1.095,0.59l-0.136,0.075   c-0.357,0.185-0.706,0.354-1.061,0.536l-0.162,0.075c-0.325,0.164-0.664,0.321-1.001,0.47l-0.189,0.09l-0.012,0.006l-0.106,0.053   c-2.707,1.217-5.33,2.093-7.829,2.696c-0.751,0.185-1.499,0.352-2.24,0.485l-0.635,0.112l-0.337,0.048   c-0.398,0.075-0.803,0.143-1.185,0.196l-0.708,0.081h-0.009c-0.462,0.06-0.917,0.113-1.355,0.15l-0.718,0.059   c-0.433,0.031-0.859,0.061-1.27,0.075l-0.271,0.009l-0.398,0.015l-0.734,0.008l-0.483,0.008h-0.202l-0.41-0.008l-0.584-0.014   l-0.579-0.018l-0.281-0.014l-0.28-0.014l-0.629-0.048l-0.477-0.028l-0.293-0.03l-0.179-0.018l-0.366-0.037l-0.701-0.071   l-0.264-0.041l-0.136-0.016c-0.348-0.043-0.679-0.094-0.999-0.149l-0.241-0.037l-0.073-0.005l-0.107-0.017   c-0.292-0.06-0.589-0.112-0.858-0.162l-0.169-0.031l-0.039-0.009c-0.343-0.076-0.664-0.141-0.955-0.208l-0.033-0.009l-0.051-0.014   l-0.146-0.031l-0.636-0.162l-0.189-0.053l-0.501-0.134l-0.067-0.025l-0.039-0.005l-0.006-0.005l-0.314-0.1l-0.141-0.037   l-0.22-0.075l-0.028-0.063l-0.017-0.04l-0.123-0.32l-0.033-0.069l-0.146-0.394l-0.027-0.076l-0.198-0.559l-0.01-0.059l-0.181-0.589   l-0.039-0.123c-0.135-0.469-0.27-0.983-0.377-1.537l-0.022-0.112c-0.112-0.561-0.202-1.156-0.253-1.768l-0.006-0.075   c-0.022-0.328-0.045-0.654-0.05-0.986l0.005-0.135c0.006-1.581,0.297-3.2,1.119-4.618l0.021-0.037   c0.32-0.544,0.747-1.098,1.281-1.606l0.056-0.05c0.242-0.225,0.517-0.45,0.82-0.666l0.175-0.117l0.718-0.441   c3.847,2.597,8.446,3.552,13.209,3.552c2.29,0,4.621-0.219,6.936-0.584c1.848-0.297,3.684-0.68,5.486-1.12   c0.563-0.132,1.123-0.275,1.68-0.43l0.398-0.106c0.539-0.142,1.079-0.289,1.606-0.446l0.229-0.067   c0.461-0.135,0.91-0.271,1.377-0.409l0.223-0.068l0.236-0.076c0.473-0.14,0.944-0.289,1.4-0.44l0.522-0.163   c0.319-0.112,0.64-0.217,0.955-0.314l0.111-0.036l0.54-0.189l0.18-0.059c1.905-0.633,3.661-1.262,5.229-1.797l0.151-0.051   c0.393-0.136,0.775-0.262,1.135-0.383l0.438-0.151c0.269-0.088,0.545-0.177,0.803-0.253l0.502-0.154l0.618-0.189l0.52-0.134   l0.456-0.13c0.308-0.064,0.583-0.123,0.82-0.159v-0.013h0.057l0.342-0.035l0.4-0.02l0.201,0.01l0.032,0.004l0.012,0.009   l0.134,0.037l0.017,0.017l0.024,0.006l0.004,0.009V199.136z"
   id="path16" />&#10;	<path
   style="fill:#000000;"
   d="M238.86,274.203c-0.206-0.335-0.5-0.646-0.885-0.991l-0.069-0.045   c-1.792-1.57-5.75-3.754-10.355-6.639l-0.68-0.43l-0.557-0.352c-0.386-0.254-0.791-0.516-1.189-0.778l-0.438-0.282   c-0.365-0.244-0.747-0.491-1.122-0.745l-0.244-0.164c-0.443-0.306-0.881-0.612-1.324-0.927l-0.36-0.252   c-0.46-0.329-0.92-0.658-1.374-1.001c-1.467-1.089-2.904-2.239-4.281-3.457c-5.414-4.767-9.71-10.459-10.216-17.009l-0.336-0.467   c-0.421-0.183-0.831-0.317-1.225-0.439l0.012,0.009l-0.051-0.017l-0.181-0.06c-0.392-0.104-0.786-0.18-1.156-0.23h-0.017   l-0.097-0.018h-0.028c-0.314-0.034-0.639-0.058-0.965-0.058l-0.331,0.008l-0.433,0.046l-0.657,0.059l-0.145,0.045   c-1.78,0.337-3.326,1.196-4.617,2.255l-0.067,0.045c-0.275,0.224-0.528,0.462-0.77,0.695l-0.09,0.088   c-0.257,0.256-0.517,0.509-0.752,0.778l-0.056,0.068c-0.185,0.192-0.398,0.445-0.602,0.705l-0.089,0.107l-0.551,0.721l-0.096,0.128   l-0.442,0.648l-0.029,0.041l-0.398,0.625l-0.084,0.136l-0.287,0.493l-0.045,0.088l-0.197,0.351l-0.04,0.067l-0.128,0.256   l-0.036,0.064l-0.027,0.068l-0.023,0.427l0.018,0.031l0.028,0.064v0.01l0.096,0.26l0.038,0.104l0.152,0.351l0.039,0.113v0.008   l0.315,0.702l0.028,0.051l0.124,0.261l0.253,0.53l0.039,0.068l0.039,0.072l0.309,0.612l0.106,0.204l0.102,0.187l0.153,0.274   l0.336,0.599l0.074,0.127l0.094,0.165c0.185,0.295,0.359,0.588,0.556,0.892l0.225,0.352l0.012,0.031   c0.19,0.302,0.375,0.581,0.578,0.874l0.05,0.082l0.235,0.346l0.13,0.17l0.528,0.739l0.123,0.166l0.224,0.297   c0.237,0.313,0.483,0.626,0.735,0.946l0.4,0.494l0.083,0.099c0.231,0.275,0.466,0.549,0.713,0.833l0.473,0.537l0.517,0.548   l0.37,0.401l0.214,0.222l0.303,0.308c0.32,0.32,0.657,0.642,0.988,0.961l0.556,0.524c0.382,0.349,0.775,0.686,1.163,1.024   l0.522,0.446c0.59,0.495,1.201,0.977,1.841,1.457c2.123,1.567,4.527,3.065,7.25,4.411c6.492,3.193,14.81,5.47,25.362,5.641   l0.127-0.014c0.938-0.208,1.708-0.59,1.742-1.467c0-0.261-0.077-0.482-0.185-0.684L238.86,274.203z M237.918,275.059   c-0.112,0.084-0.36,0.196-0.736,0.294c-10.373-0.181-18.504-2.419-24.834-5.532c-2.662-1.314-5.01-2.778-7.065-4.308   c-0.628-0.467-1.224-0.938-1.796-1.419l-0.518-0.441c-0.393-0.334-0.774-0.662-1.135-0.991l-0.539-0.514   c-0.336-0.323-0.662-0.627-0.971-0.933l-0.276-0.291l-0.225-0.231l-0.365-0.398l-0.499-0.528l-0.454-0.517   c-0.243-0.274-0.479-0.552-0.703-0.821l-0.085-0.094l-0.387-0.479c-0.247-0.307-0.483-0.612-0.708-0.919l-0.224-0.297l-0.119-0.155   l-0.516-0.718l-0.13-0.173l-0.215-0.318l-0.061-0.091c-0.203-0.291-0.387-0.572-0.567-0.858l-0.028-0.04l-0.202-0.32   c-0.186-0.297-0.359-0.581-0.521-0.864l-0.113-0.186l-0.061-0.104l-0.327-0.584l-0.152-0.262l-0.099-0.193l-0.102-0.188   l-0.299-0.591l-0.051-0.087l-0.039-0.076l-0.229-0.485l-0.125-0.267l-0.022-0.046l-0.28-0.62l-0.017-0.04h0.005l-0.005-0.014   l-0.039-0.098l-0.151-0.343l-0.028-0.086l-0.045-0.129l0.067-0.145l0.04-0.067l0.168-0.319l0.056-0.09l0.275-0.465l0.074-0.134   l0.376-0.581l0.017-0.036l0.432-0.621l0.09-0.12l0.528-0.693l0.078-0.099l0.612-0.722l0.055-0.067l0.653-0.666l0.083-0.082   l0.652-0.58l0.062-0.054c1.224-1.025,2.672-1.814,4.307-2.09l0.112-0.038l0.454-0.037l0.382-0.03l0.292-0.007   c0.281,0,0.567,0.014,0.849,0.047l0.039,0.004h0.04c0.365,0.055,0.702,0.122,1.044,0.218l0.179,0.053h0.024   c0.27,0.081,0.527,0.17,0.792,0.266c0.668,6.862,5.15,12.64,10.558,17.425c1.403,1.229,2.869,2.403,4.351,3.505   c0.467,0.352,0.933,0.69,1.398,1.017l0.36,0.254c0.449,0.315,0.894,0.635,1.342,0.932l0.246,0.166   c0.383,0.261,0.754,0.518,1.129,0.762l0.444,0.291c0.405,0.261,0.803,0.522,1.202,0.777l0.561,0.357l0.687,0.427   c4.604,2.889,8.613,5.121,10.27,6.576l0.062,0.05c0.293,0.264,0.523,0.523,0.619,0.706l0.004,0.005l0.068,0.179L237.918,275.059z"
   id="path17" />&#10;	<path
   style="fill:#8F1A1D;"
   d="M185.825,258.775l-0.017-0.016L185.825,258.775z"
   id="path18" />&#10;	<path
   style="fill:#8F1A1D;"
   d="M193.855,254.909l0.012,0.021L193.855,254.909z"
   id="path19" />&#10;	<path
   style="fill:#8F1A1D;"
   d="M192.143,249.414l-0.006-0.014L192.143,249.414z"
   id="path20" />&#10;	<path
   style="fill:#8F1A1D;"
   d="M211.618,218.873l0.023,0.005L211.618,218.873z"
   id="path21" />&#10;	<path
   style="fill:#FFFFFF;"
   d="M62.023,185.784c0,0-0.441-0.295-1.243-0.738c-0.082-0.045-0.149-0.085-0.238-0.133   c-0.058-0.03-0.126-0.065-0.187-0.097c-0.193-0.103-0.393-0.208-0.618-0.321c-0.067-0.033-0.144-0.069-0.213-0.104   c-0.236-0.117-0.481-0.235-0.749-0.359c-0.085-0.039-0.179-0.08-0.267-0.121c-0.27-0.122-0.548-0.246-0.847-0.372   c-0.107-0.045-0.222-0.092-0.333-0.138c-0.298-0.123-0.604-0.246-0.929-0.37c-0.131-0.05-0.267-0.1-0.401-0.149   c-0.324-0.121-0.656-0.24-1.002-0.358c-0.155-0.053-0.312-0.104-0.471-0.156c-0.347-0.114-0.705-0.227-1.073-0.337   c-0.176-0.053-0.353-0.105-0.535-0.156c-0.371-0.105-0.753-0.207-1.143-0.308c-0.198-0.05-0.395-0.101-0.598-0.149   c-0.395-0.094-0.801-0.183-1.213-0.269c-0.218-0.046-0.432-0.092-0.654-0.135c-0.42-0.081-0.854-0.154-1.293-0.226   c-0.231-0.037-0.457-0.077-0.693-0.111c-0.455-0.066-0.924-0.121-1.396-0.174c-0.237-0.027-0.467-0.059-0.708-0.082   c-0.515-0.05-1.047-0.084-1.582-0.116c-0.212-0.013-0.416-0.032-0.63-0.043c-0.756-0.034-1.528-0.053-2.319-0.048   c-2.599,0.014-5.391,0.255-8.339,0.822c-7.03,1.336-14.961,4.479-23.44,10.653c-0.808,0.959-0.779,1.516-0.105,1.806   c-0.001,0-0.001,0-0.001,0c0.001,0.001,0.003,0.001,0.005,0.002c0.103,0.043,0.221,0.081,0.354,0.113   c0.012,0.003,0.024,0.007,0.036,0.009c0.132,0.031,0.278,0.056,0.436,0.076c0.008,0.001,0.016,0.002,0.024,0.003   c2.815,0.341,9.682-0.851,17.489-1.233c0.105-0.005,0.21-0.01,0.316-0.016c0.3-0.014,0.601-0.025,0.902-0.037   c0.196-0.007,0.391-0.013,0.588-0.018c0.247-0.008,0.494-0.016,0.742-0.021c0.456-0.011,0.913-0.019,1.374-0.021   c0.627-0.002,1.256,0.014,1.886,0.026c0.319,0.006,0.638,0.005,0.958,0.017c0.901,0.029,1.802,0.075,2.699,0.146   c0-0.009-0.001-0.016-0.002-0.025l0.002,0.023c0.565,0.044,1.129,0.101,1.69,0.162c0.161,0.018,0.32,0.037,0.479,0.057   c0.453,0.054,0.903,0.115,1.351,0.184c0.123,0.018,0.246,0.033,0.368,0.053c0.554,0.089,1.104,0.188,1.649,0.298   c0.117,0.023,0.232,0.05,0.349,0.075c0.45,0.095,0.896,0.198,1.338,0.31c0.132,0.033,0.265,0.065,0.396,0.101   c1.086,0.288,2.144,0.628,3.166,1.025c0.113,0.044,0.223,0.09,0.335,0.134c0.457,0.186,0.907,0.382,1.348,0.592   c0.052,0.025,0.107,0.048,0.159,0.073c0.497,0.241,0.982,0.5,1.456,0.775c1.75,1.014,3.335,2.261,4.69,3.796   C64.606,197.957,62.023,185.784,62.023,185.784z M36.52,191.77c0-0.001,0-0.002,0-0.003C36.52,191.768,36.52,191.769,36.52,191.77   c0,0.001,0,0.002,0,0.003C36.52,191.771,36.52,191.77,36.52,191.77z"
   id="path22" />&#10;	<path
   style="fill:#DF9492;"
   d="M20.579,236.667l-0.027,0.019L20.579,236.667z M20.686,236.594l-0.069,0.047L20.686,236.594z    M36.404,224.919c-6.638,4.284-12.31,9.339-15.702,11.664C24.094,234.26,29.761,229.211,36.404,224.919z"
   id="path23" />&#10;	<path
   style="fill:#CF1E15;"
   d="M36.022,224.488l0.034,0.039L36.022,224.488z"
   id="path24" />&#10;	<path
   style="fill:#CF1E15;"
   d="M36.129,224.61l0.275,0.309L36.129,224.61z"
   id="path25" />&#10;	<path
   style="fill:#FFFFFF;"
   d="M58.97,202.736c0,0-0.065-0.002-0.178-0.002c0.004,0,0.006-0.001,0.009-0.002   c-0.285-0.001-0.965,0.015-1.932,0.097c-0.04,0.003-0.079,0.006-0.119,0.01c-0.242,0.021-0.5,0.049-0.776,0.08   c-0.079,0.01-0.156,0.017-0.238,0.027c-0.168,0.02-0.337,0.042-0.517,0.066c-0.206,0.028-0.419,0.06-0.64,0.094   c-0.173,0.026-0.35,0.055-0.532,0.087c-0.246,0.041-0.497,0.085-0.756,0.134c-0.173,0.033-0.351,0.069-0.531,0.106   c-0.232,0.047-0.47,0.098-0.712,0.152c-0.222,0.049-0.446,0.102-0.676,0.156c-0.252,0.061-0.51,0.126-0.771,0.194   c-0.225,0.059-0.452,0.12-0.684,0.185c-0.289,0.081-0.583,0.166-0.882,0.257c-0.193,0.059-0.385,0.118-0.581,0.181   c-0.355,0.112-0.716,0.234-1.081,0.36c-0.168,0.059-0.334,0.116-0.504,0.178c-0.408,0.148-0.823,0.308-1.243,0.474   c-0.17,0.068-0.34,0.136-0.511,0.206c-0.43,0.178-0.865,0.365-1.304,0.564c-0.169,0.076-0.339,0.155-0.51,0.234   c-0.449,0.21-0.902,0.428-1.359,0.661c-0.166,0.085-0.333,0.174-0.5,0.261c-0.469,0.247-0.939,0.5-1.413,0.773   c-0.158,0.09-0.316,0.186-0.475,0.28c-0.411,0.242-0.824,0.494-1.238,0.758c-0.111,0.07-0.221,0.13-0.331,0.202   c0,0.002-0.001,0.004-0.001,0.006c-2.189,1.413-4.398,3.112-6.588,5.177c-5.2,4.903-10.208,11.816-14.028,21.579   c-0.166,1.243,0.157,1.696,0.88,1.579c-0.002,0.001-0.003,0.003-0.004,0.005c0.014-0.002,0.031-0.011,0.046-0.013   c0.114-0.021,0.237-0.056,0.37-0.104c0.023-0.009,0.044-0.015,0.067-0.023c0.156-0.06,0.323-0.135,0.504-0.227   c0.017-0.009,0.035-0.02,0.051-0.028c0.158-0.082,0.325-0.178,0.5-0.282c0.056-0.033,0.113-0.068,0.171-0.104   c0.166-0.104,0.339-0.215,0.52-0.336c0.028-0.019,0.052-0.032,0.081-0.052l0.026-0.019c0.028-0.019,0.056-0.037,0.083-0.057   l0.025-0.017l0.017-0.011c0.036-0.025,0.076-0.054,0.112-0.079c0.158-0.109,0.32-0.223,0.488-0.344   c0.062-0.045,0.125-0.091,0.189-0.137c0.162-0.119,0.329-0.241,0.5-0.369c0.061-0.045,0.123-0.092,0.185-0.139   c0.191-0.143,0.385-0.291,0.586-0.444c0.043-0.033,0.086-0.065,0.129-0.099c1.17-0.899,2.494-1.955,3.948-3.097   c0.004-0.003,0.006-0.004,0.009-0.007c0.248-0.194,0.502-0.394,0.757-0.592c0.081-0.064,0.164-0.128,0.245-0.191   c0.224-0.173,0.449-0.349,0.678-0.525c0.086-0.067,0.176-0.135,0.264-0.203c0.392-0.302,0.792-0.605,1.197-0.913   c0.141-0.105,0.28-0.212,0.422-0.318c0.165-0.124,0.333-0.247,0.499-0.372c0.182-0.135,0.362-0.269,0.546-0.403   c0.166-0.122,0.334-0.245,0.502-0.366c0.192-0.141,0.385-0.279,0.579-0.419c0.165-0.119,0.331-0.237,0.498-0.356   c0.206-0.145,0.413-0.292,0.622-0.438c0.16-0.111,0.319-0.224,0.48-0.334c0.235-0.162,0.473-0.323,0.711-0.485   c0.137-0.093,0.274-0.187,0.412-0.279c0.379-0.253,0.761-0.505,1.146-0.754c1.545-1,3.145-1.955,4.779-2.828   c0.143-0.076,0.287-0.147,0.431-0.223c0.349-0.182,0.699-0.36,1.051-0.533c0.206-0.103,0.414-0.203,0.622-0.302   c0.419-0.199,0.839-0.392,1.262-0.577c0.126-0.056,0.251-0.112,0.378-0.166c0.494-0.212,0.991-0.41,1.49-0.601   c0.161-0.061,0.322-0.121,0.485-0.18c0.482-0.176,0.966-0.343,1.452-0.497c0.064-0.02,0.13-0.044,0.195-0.064   c0.544-0.168,1.089-0.316,1.635-0.453c0.14-0.035,0.28-0.067,0.42-0.101c0.501-0.116,1.001-0.221,1.502-0.309   c0.062-0.01,0.124-0.023,0.184-0.035c0.554-0.092,1.108-0.16,1.662-0.213c0.129-0.012,0.258-0.021,0.388-0.031   c0.502-0.04,1.005-0.064,1.506-0.067c0.085-0.001,0.171-0.007,0.255-0.006h0.077c1.663,0.016,3.313,0.233,4.937,0.698   C67.696,211.609,58.97,202.736,58.97,202.736z"
   id="path26" />&#10;	<path
   style="fill:#FFFFFF;"
   d="M65.972,222.551c0,0-5.008,0.569-11.425,3.943c-0.027,0.015-0.055,0.028-0.083,0.043   c-0.493,0.261-0.995,0.54-1.504,0.836c-0.039,0.022-0.079,0.046-0.12,0.068c-0.504,0.296-1.016,0.609-1.533,0.94   c-0.042,0.026-0.084,0.054-0.125,0.082c-0.523,0.337-1.049,0.692-1.579,1.068c-0.029,0.021-0.058,0.042-0.087,0.063   c-0.547,0.391-1.096,0.801-1.648,1.234l-0.001,0.001c-0.569,0.447-1.139,0.915-1.708,1.411c-1.958,1.71-3.913,3.717-5.785,6.066   c0.144,0.433,0.317,0.888,0.507,1.352c0,0.002,0.001,0.003,0.001,0.005c-0.189-0.465-0.363-0.922-0.508-1.356   c-4.453,5.599-8.423,13.152-10.821,23.365c0.048,4.234,4.279-1.157,10.884-7.901c0.155-0.158,0.311-0.316,0.468-0.476   c0.172-0.174,0.342-0.349,0.518-0.523c0.332-0.332,0.669-0.667,1.011-1.003c0.12-0.118,0.243-0.237,0.364-0.355   c0.331-0.322,0.666-0.646,1.006-0.97c0.061-0.059,0.121-0.116,0.183-0.175c0.397-0.376,0.803-0.751,1.212-1.127   c0.099-0.09,0.197-0.18,0.297-0.27c0.425-0.386,0.854-0.771,1.291-1.151c1.388-1.21,2.836-2.381,4.33-3.478   c0.336-0.247,0.675-0.488,1.016-0.727c0.118-0.083,0.238-0.163,0.357-0.245c0.227-0.155,0.455-0.31,0.683-0.462   c0.137-0.089,0.273-0.178,0.411-0.267c0.217-0.141,0.436-0.279,0.656-0.416c0.14-0.086,0.279-0.173,0.419-0.258   c0.229-0.139,0.459-0.273,0.69-0.407c0.128-0.075,0.256-0.15,0.386-0.224c0.319-0.18,0.64-0.354,0.96-0.523   c0.079-0.042,0.157-0.082,0.236-0.123c0.317-0.163,0.635-0.321,0.955-0.475c0.133-0.064,0.267-0.123,0.4-0.185   c0.234-0.107,0.469-0.214,0.705-0.315c0.149-0.064,0.3-0.126,0.449-0.188c0.225-0.093,0.451-0.182,0.677-0.268   c0.152-0.059,0.304-0.116,0.457-0.171c0.236-0.086,0.474-0.165,0.711-0.243c0.139-0.046,0.278-0.095,0.418-0.138   c0.333-0.104,0.668-0.199,1.003-0.287c0.089-0.023,0.179-0.046,0.268-0.068c0.324-0.081,0.648-0.156,0.974-0.222   c0.143-0.029,0.286-0.053,0.43-0.079c0.238-0.044,0.479-0.085,0.718-0.12c0.159-0.023,0.318-0.043,0.477-0.063   c0.23-0.027,0.46-0.052,0.691-0.072c0.159-0.014,0.319-0.026,0.479-0.037c1.187-0.072,2.381-0.04,3.58,0.125   C75.866,230.099,65.972,222.551,65.972,222.551z M41.061,240.076c-0.039-0.087-0.078-0.177-0.114-0.265   c0.039,0.094,0.08,0.187,0.12,0.28C41.065,240.087,41.062,240.082,41.061,240.076z M41.361,240.748   c-0.001-0.003-0.002-0.005-0.003-0.008c0.002,0.007,0.006,0.014,0.01,0.02c0.001,0.002,0.002,0.005,0.003,0.007   C41.367,240.76,41.364,240.755,41.361,240.748z M41.854,241.729c-0.002-0.003-0.003-0.007-0.005-0.01   c0.006,0.012,0.012,0.023,0.018,0.035C41.862,241.746,41.858,241.737,41.854,241.729z M41.876,241.773   c-0.002-0.003-0.003-0.005-0.004-0.007c0.001,0.001,0.001,0.002,0.002,0.003c0.001,0.002,0.002,0.004,0.003,0.007   C41.877,241.774,41.876,241.773,41.876,241.773z"
   id="path27" />&#10;	<path
   style="fill:#000000;"
   d="M58.65,289.849l-0.035-0.058l-0.017-0.063c-1.741-6.307-2.46-12.012-2.46-17.134   c0-3.152,0.276-6.085,0.741-8.801c0.522-2.993,1.287-5.723,2.201-8.192c0.276-0.75,0.569-1.472,0.872-2.171l0.303-0.666   c0.207-0.458,0.415-0.918,0.628-1.367l0.377-0.725c0.202-0.392,0.403-0.785,0.618-1.17l0.399-0.7   c0.207-0.357,0.415-0.71,0.629-1.058l0.404-0.648c0.214-0.33,0.421-0.652,0.641-0.974l0.404-0.588   c0.213-0.304,0.427-0.604,0.639-0.891l0.394-0.528c0.218-0.281,0.432-0.552,0.646-0.819l0.371-0.457   c0.214-0.262,0.432-0.513,0.641-0.753l0.336-0.394l0.63-0.684l0.304-0.323l0.605-0.618l0.253-0.256l0.578-0.554l0.203-0.19   l0.538-0.482l0.142-0.127l0.461-0.388c0.567-0.475,0.915-0.72,0.92-0.724l0.187-0.138l0.229,0.039l0.051,0.011l0.018,0.003   l0.157,0.025l0.033,0.009c0.162,0.028,0.381,0.075,0.646,0.137l0.056,0.013l0.406,0.097l0.05,0.015   c0.336,0.087,0.719,0.192,1.106,0.317l0.04,0.012l0.64,0.213l0.016,0.007c0.68,0.238,1.41,0.532,2.163,0.903l0.017,0.008   c0.743,0.371,1.5,0.81,2.22,1.334l0.028,0.02c0.42,0.309,0.824,0.643,1.206,1.012h0.006l0.162,0.163   c0.63,0.631,1.184,1.355,1.629,2.176h0.039l0.13,0.333c0.33,0.688,0.572,1.441,0.712,2.256l0.018,0.102   c0.062,0.385,0.095,0.787,0.107,1.2l-0.557,0.007l0.557,0.018v0.102v0.118c0,0.409-0.019,0.839-0.08,1.294l-0.038,0.329   l-0.309,0.121c-6.15,2.331-10.4,8.061-13.462,14.59c-0.773,1.658-1.476,3.366-2.111,5.078c-0.196,0.534-0.387,1.074-0.573,1.609   l-0.134,0.396c-0.181,0.521-0.355,1.039-0.522,1.556l-0.068,0.22c-0.151,0.454-0.293,0.909-0.427,1.362l-0.139,0.446   c-0.147,0.478-0.288,0.951-0.422,1.423l-0.151,0.509c-0.085,0.313-0.174,0.615-0.259,0.922l-0.197,0.689l-0.073,0.278   c-1.426,5.113-2.359,9.311-3.409,11.268c-0.359,0.63-0.746,1.177-1.487,1.217C59.498,291.12,59.077,290.588,58.65,289.849z    M60.076,289.949l0.151,0.105l0.128-0.087c0.102-0.095,0.237-0.284,0.383-0.554c0.297-0.539,0.618-1.388,0.949-2.454   c0.674-2.136,1.42-5.158,2.37-8.575l0.073-0.284l0.197-0.694c0.083-0.304,0.173-0.616,0.264-0.919l0.146-0.522   c0.14-0.473,0.281-0.949,0.427-1.436l0.139-0.448c0.141-0.453,0.281-0.913,0.434-1.371l0.067-0.221   c0.169-0.523,0.348-1.052,0.529-1.575l0.133-0.397c0.191-0.544,0.383-1.089,0.584-1.633c0.646-1.735,1.359-3.475,2.151-5.168   c3.066-6.533,7.357-12.456,13.747-15.031c0.023-0.28,0.034-0.557,0.034-0.836l-0.006-0.114v-0.115   c-0.005-0.364-0.039-0.711-0.09-1.046l-0.011-0.078c-0.113-0.657-0.303-1.258-0.567-1.842l-0.066-0.141   c-0.383-0.789-0.888-1.477-1.472-2.089l-0.101-0.102c-0.389-0.388-0.81-0.741-1.248-1.064l-0.027-0.02   c-0.658-0.48-1.359-0.89-2.056-1.234l-0.017-0.006c-0.702-0.35-1.393-0.627-2.033-0.852l-0.022-0.006l-0.574-0.195l-0.038-0.011   c-0.393-0.125-0.758-0.229-1.068-0.305l-0.054-0.014l-0.383-0.095l-0.051-0.012l-0.607-0.127l-0.011-0.002   c-0.14,0.111-0.377,0.29-0.674,0.537l-0.442,0.378l-0.136,0.118l-0.522,0.466l-0.19,0.188l-0.561,0.533l-0.248,0.245l-0.588,0.605   l-0.293,0.311l-0.606,0.663l-0.331,0.382l-0.624,0.736l-0.359,0.442c-0.207,0.258-0.415,0.525-0.63,0.801l-0.381,0.512   c-0.208,0.28-0.415,0.572-0.629,0.873l-0.395,0.569c-0.202,0.306-0.415,0.623-0.617,0.949l-0.404,0.632   c-0.202,0.328-0.4,0.677-0.607,1.031l-0.387,0.681c-0.202,0.369-0.405,0.754-0.608,1.146l-0.358,0.702   c-0.207,0.427-0.415,0.879-0.617,1.337l-0.299,0.646c-0.292,0.684-0.579,1.393-0.847,2.121c-0.894,2.404-1.634,5.072-2.146,7.999   c-0.46,2.653-0.73,5.52-0.73,8.608c0,5.001,0.703,10.585,2.405,16.771C59.816,289.658,59.964,289.849,60.076,289.949z    M29.267,263.066c-0.196-0.379-0.257-0.826-0.264-1.395v-0.068l0.011-0.061c2.416-10.28,6.424-17.917,10.929-23.581   c1.893-2.375,3.87-4.405,5.856-6.132c0.603-0.528,1.203-1.019,1.809-1.494l0.573-0.433c0.403-0.304,0.808-0.612,1.217-0.901   l0.669-0.454c0.365-0.244,0.736-0.498,1.111-0.739l0.68-0.416c0.353-0.214,0.707-0.429,1.061-0.629l0.663-0.372   c0.348-0.189,0.691-0.375,1.033-0.552l0.629-0.316c0.337-0.169,0.675-0.329,1-0.483l0.59-0.264   c0.331-0.149,0.652-0.289,0.972-0.421l0.534-0.22c0.32-0.126,0.629-0.245,0.938-0.359l0.465-0.175   c0.315-0.108,0.606-0.21,0.899-0.306l0.404-0.135c0.297-0.093,0.572-0.176,0.848-0.258l0.325-0.095   c0.287-0.082,0.545-0.149,0.788-0.212l0.257-0.067l0.707-0.168l0.18-0.043l0.573-0.119c0.736-0.141,1.163-0.194,1.18-0.194   l0.218-0.027l0.179,0.139l0.034,0.022l0.039,0.031l0.113,0.091l0.028,0.024l0.51,0.436l0.029,0.023l0.331,0.304l0.017,0.02   c0.252,0.235,0.538,0.511,0.854,0.842l-0.005-0.006l0.466,0.503l0.011,0.012c0.477,0.53,0.976,1.14,1.455,1.817l0.01,0.019   c0.483,0.679,0.932,1.427,1.309,2.224l0.023,0.049c0.247,0.536,0.466,1.098,0.635,1.659l0.006,0.027   c0.223,0.78,0.364,1.606,0.381,2.456h0.079l-0.091,0.599c-0.038,0.761-0.179,1.542-0.455,2.328l-0.032,0.101   c-0.13,0.368-0.293,0.733-0.478,1.096l-0.124,0.22c-0.197,0.355-0.415,0.73-0.684,1.103l-0.197,0.27l-0.331-0.048   c-0.786-0.111-1.567-0.163-2.347-0.163c-5.705-0.002-11.339,2.77-16.449,6.518c-1.478,1.087-2.916,2.252-4.29,3.445   c-0.433,0.377-0.86,0.762-1.282,1.144l-0.297,0.27c-0.41,0.375-0.815,0.752-1.213,1.129l-0.141,0.129   c-0.36,0.343-0.718,0.688-1.067,1.03l-0.303,0.295c-0.36,0.355-0.719,0.71-1.072,1.067l-0.338,0.34l-0.73,0.743l-0.442,0.449   l-0.619,0.638c-2.184,2.263-4.066,4.308-5.597,5.802c-1.568,1.479-2.607,2.478-3.731,2.546l-0.044,0.002   C29.862,263.722,29.441,263.438,29.267,263.066z M30.243,262.551l0.073,0.064c0.259,0.072,1.5-0.759,2.96-2.236   c1.495-1.46,3.387-3.504,5.577-5.778l0.619-0.637l0.442-0.455l0.736-0.75l0.343-0.343c0.354-0.357,0.712-0.716,1.084-1.073   l0.303-0.297c0.354-0.346,0.713-0.693,1.078-1.042l0.14-0.132c0.4-0.379,0.81-0.764,1.226-1.138l0.303-0.274   c0.427-0.388,0.86-0.775,1.303-1.159c1.393-1.211,2.847-2.395,4.357-3.499c5.206-3.819,11.03-6.728,17.102-6.734   c0.717,0,1.442,0.043,2.168,0.131l0.432-0.723l0.102-0.188c0.167-0.33,0.309-0.652,0.426-0.978l0.029-0.076   c0.219-0.64,0.342-1.269,0.388-1.93l0.004-0.105l0.011-0.367c0-0.795-0.129-1.568-0.335-2.29l-0.007-0.026   c-0.151-0.523-0.349-1.028-0.578-1.515l-0.023-0.048c-0.347-0.737-0.763-1.43-1.207-2.063l-0.011-0.018   c-0.449-0.636-0.921-1.214-1.387-1.73l-0.006-0.004l-0.449-0.477l0.005,0.003c-0.286-0.303-0.556-0.564-0.801-0.792l-0.018-0.018   l-0.309-0.28l-0.028-0.025l-0.478-0.408l-0.006-0.005c-0.179,0.028-0.477,0.075-0.87,0.153l-0.545,0.114l-0.18,0.038l-0.685,0.163   l-0.241,0.061c-0.247,0.064-0.494,0.13-0.764,0.205l-0.32,0.096c-0.269,0.079-0.54,0.156-0.825,0.249l-0.387,0.133   c-0.287,0.094-0.573,0.19-0.871,0.295l-0.462,0.171c-0.297,0.11-0.599,0.225-0.908,0.352l-0.516,0.213   c-0.309,0.126-0.629,0.261-0.95,0.407l-0.573,0.261c-0.32,0.143-0.64,0.306-0.978,0.467l-0.611,0.308   c-0.332,0.167-0.663,0.352-1.006,0.537l-0.646,0.362c-0.336,0.191-0.686,0.405-1.039,0.617l-0.655,0.405   c-0.356,0.224-0.72,0.471-1.092,0.718l-0.644,0.444c-0.39,0.276-0.793,0.573-1.192,0.879l-0.561,0.42   c-0.59,0.462-1.175,0.943-1.764,1.452c-1.938,1.691-3.869,3.668-5.717,5.998c-4.391,5.518-8.316,12.976-10.696,23.079   C30.116,262.165,30.188,262.446,30.243,262.551z M70.319,237.787l0.078-0.548L70.319,237.787z M17.046,237.943   c-0.219-0.314-0.28-0.685-0.28-1.097l0.044-0.646l0.012-0.063l0.021-0.065c3.854-9.835,8.908-16.826,14.17-21.787   c2.212-2.086,4.458-3.813,6.673-5.239c0.672-0.438,1.335-0.837,1.998-1.219l0.633-0.348c0.439-0.245,0.888-0.491,1.332-0.719   l0.725-0.349c0.399-0.198,0.803-0.396,1.213-0.579l0.719-0.308c0.382-0.165,0.769-0.328,1.152-0.483l0.701-0.271   c0.371-0.137,0.741-0.271,1.107-0.398l0.664-0.224c0.364-0.119,0.712-0.23,1.066-0.335l0.612-0.179   c0.353-0.099,0.697-0.192,1.027-0.278l0.551-0.141c0.342-0.082,0.667-0.154,0.989-0.221l0.482-0.105   c0.326-0.067,0.641-0.123,0.943-0.179l0.405-0.073c0.313-0.051,0.607-0.096,0.892-0.138l0.321-0.045   c0.297-0.042,0.578-0.073,0.848-0.104l0.225-0.025c0.291-0.028,0.561-0.058,0.813-0.074l0.089-0.009   c0.276-0.016,0.518-0.032,0.731-0.044l0.416-0.011l0.1-0.005l0.359-0.007l0.185,0.003l0.23,0.009l0.158,0.171l0.04,0.033   l0.005,0.012l0.113,0.12l0.017,0.023l0.455,0.517l0.005,0.006l0.264,0.32l0.04,0.047c0.988,1.229,2.504,3.383,3.295,5.959   l0.012,0.033c0.168,0.57,0.303,1.154,0.394,1.76l0.005,0.012c0.055,0.444,0.088,0.901,0.088,1.368   c0.007,0.556-0.044,1.12-0.162,1.719l0.006-0.029c-0.146,0.76-0.399,1.518-0.792,2.274l-0.039,0.076   c-0.18,0.346-0.394,0.683-0.635,1.022l-0.141,0.19c-0.247,0.328-0.523,0.663-0.843,0.994l-0.229,0.239l-0.321-0.09   c-1.635-0.47-3.29-0.684-4.966-0.684c-4.84,0-9.832,1.781-14.55,4.297c-1.617,0.865-3.201,1.811-4.733,2.802   c-0.482,0.309-0.96,0.627-1.432,0.948l-0.337,0.227c-0.46,0.314-0.911,0.625-1.354,0.939l-0.18,0.129   c-0.398,0.278-0.792,0.563-1.18,0.847l-0.354,0.259c-0.405,0.298-0.809,0.595-1.203,0.89v0.003l-0.403,0.303   c-0.269,0.208-0.54,0.412-0.81,0.617l-0.511,0.396l-0.696,0.539c-2.41,1.87-4.515,3.578-6.217,4.83   c-1.73,1.24-2.926,2.072-3.998,2.116H17.99C17.653,238.424,17.265,238.262,17.046,237.943z M17.873,236.847   c-0.006,0.291,0.056,0.438,0.078,0.454l0.079,0.014c0.387,0.049,1.712-0.665,3.347-1.898c1.667-1.227,3.773-2.933,6.188-4.811   l0.703-0.542l0.51-0.399c0.275-0.204,0.545-0.409,0.82-0.622l0.404-0.304l0.331,0.442l-0.331-0.442   c0.398-0.297,0.805-0.602,1.207-0.899l0.366-0.264c0.388-0.282,0.78-0.566,1.184-0.854l0.187-0.129   c0.442-0.319,0.904-0.635,1.364-0.949l0.343-0.233c0.477-0.318,0.954-0.64,1.449-0.958c1.556-1.002,3.167-1.965,4.819-2.846   c4.807-2.564,9.956-4.426,15.065-4.426c1.659,0,3.314,0.193,4.944,0.635l0.527-0.651l0.129-0.174   c0.214-0.301,0.398-0.601,0.556-0.889l0.041-0.084c0.336-0.653,0.56-1.308,0.689-1.992l-0.006,0.024   c0.096-0.495,0.136-0.985,0.142-1.477c0-0.41-0.035-0.817-0.085-1.22v-0.008c-0.079-0.54-0.208-1.072-0.365-1.592l-0.006-0.034   c-0.724-2.358-2.16-4.424-3.065-5.543l-0.04-0.048l-0.292-0.354v-0.001l-0.421-0.481l-0.006-0.006l-0.241,0.003l-0.112,0.006   l-0.394,0.011l-0.696,0.044l-0.101,0.007c-0.237,0.02-0.494,0.042-0.775,0.07l-0.225,0.024c-0.258,0.028-0.522,0.061-0.815,0.099   l-0.314,0.044c-0.276,0.043-0.561,0.086-0.865,0.136l-0.393,0.068c-0.298,0.056-0.601,0.108-0.92,0.176l-0.461,0.098   c-0.314,0.07-0.639,0.142-0.966,0.222l-0.533,0.137c-0.327,0.083-0.663,0.173-1.005,0.27l-0.597,0.173   c-0.342,0.104-0.684,0.213-1.038,0.329l-0.646,0.216c-0.354,0.121-0.713,0.253-1.078,0.394l-0.685,0.262   c-0.365,0.143-0.741,0.303-1.124,0.465l-0.707,0.305c-0.382,0.176-0.774,0.365-1.18,0.564l-0.701,0.343   c-0.427,0.213-0.86,0.455-1.298,0.699l-0.623,0.339c-0.646,0.369-1.298,0.764-1.949,1.188c-2.157,1.393-4.353,3.077-6.515,5.112   c-5.127,4.842-10.074,11.662-13.871,21.318L17.873,236.847z M54.97,200.537c-4.348-4.931-11.209-6.891-18.397-7.446   c-1.697-0.135-3.393-0.188-5.083-0.188l-0.415,0.002c-0.573,0.003-1.14,0.015-1.712,0.028l-0.415,0.011   c-0.551,0.017-1.095,0.036-1.641,0.064l-0.252,0.015c-0.466,0.022-0.932,0.05-1.393,0.075l-0.482,0.031   c-0.489,0.033-0.978,0.068-1.455,0.105l-0.561,0.045c-0.32,0.025-0.635,0.053-0.956,0.081l-0.667,0.056l-0.642,0.057   c-4.182,0.387-7.716,0.827-10.024,0.834c-0.961-0.007-1.701-0.064-2.286-0.308l0.118-0.27v-0.014l-0.124,0.283   c-0.433-0.16-0.849-0.596-0.837-1.136c0.018-0.546,0.299-0.998,0.741-1.535l0.04-0.048l0.056-0.04   c8.536-6.22,16.555-9.396,23.665-10.752c2.982-0.565,5.808-0.813,8.413-0.827l0.27-0.005c0.713,0,1.416,0.02,2.094,0.051   c0.265,0.011,0.489,0.036,0.713,0.048c0.507,0.033,1.022,0.064,1.522,0.114c0.28,0.025,0.538,0.062,0.791,0.088   c0.444,0.052,0.894,0.106,1.343,0.167l0.758,0.124c0.42,0.07,0.837,0.138,1.247,0.216l0.714,0.149   c0.399,0.085,0.791,0.169,1.179,0.264l0.645,0.157c0.384,0.099,0.754,0.196,1.119,0.297l0.573,0.173   c0.365,0.107,0.719,0.218,1.061,0.327l0.496,0.17c0.353,0.12,0.685,0.238,1.009,0.358l0.412,0.154   c0.331,0.129,0.645,0.256,0.953,0.382l0.31,0.13c0.325,0.138,0.63,0.271,0.909,0.402l0.218,0.091   c0.32,0.152,0.618,0.294,0.882,0.427l0.086,0.043c0.611,0.306,1.105,0.578,1.487,0.798l0.04,0.021l0.416,0.245l0.253,0.156   l-0.029-0.013l0.057,0.033l0.147,0.093l0.185,0.12l0.05,0.22l0.006,0.051l0.012,0.044l0.028,0.143l0.004,0.033   c0.029,0.161,0.068,0.391,0.102,0.657v0.033c0.09,0.672,0.192,1.666,0.192,2.826c0,1.339-0.13,2.9-0.55,4.435l-0.012,0.04   c-0.163,0.572-0.365,1.148-0.594,1.65l-0.023,0.055c-0.416,0.911-0.972,1.781-1.708,2.562l0.006-0.008   c-0.529,0.559-1.157,1.061-1.877,1.482l-0.082,0.048c-0.345,0.192-0.703,0.367-1.091,0.523l-0.219,0.083   c-0.387,0.146-0.797,0.281-1.241,0.389l-0.331,0.075L54.97,200.537z M36.657,191.984c7.199,0.567,14.253,2.493,18.914,7.564   c0.275-0.079,0.54-0.169,0.797-0.264l0.197-0.074c0.343-0.139,0.662-0.291,0.96-0.46l0.062-0.042   c0.635-0.367,1.178-0.803,1.645-1.298l-0.005,0.007c0.635-0.672,1.122-1.427,1.471-2.191l0.022-0.059   c0.225-0.496,0.409-1.013,0.551-1.518l0.011-0.043c0.392-1.419,0.517-2.886,0.517-4.158c0-1.096-0.095-2.042-0.175-2.659   l-0.006-0.035c-0.033-0.271-0.067-0.482-0.095-0.623v-0.014l-0.196-0.12l-0.399-0.235l-0.034-0.022   c-0.359-0.206-0.836-0.467-1.416-0.759l-0.089-0.045c-0.269-0.13-0.55-0.266-0.859-0.414l-0.208-0.089   c-0.281-0.129-0.573-0.259-0.887-0.393l-0.299-0.123c-0.302-0.122-0.611-0.247-0.931-0.37l-0.399-0.149   c-0.32-0.118-0.646-0.232-0.983-0.351l-0.481-0.161c-0.332-0.111-0.676-0.215-1.029-0.323l-0.561-0.161   c-0.354-0.102-0.72-0.197-1.089-0.294l-0.63-0.158c-0.371-0.088-0.758-0.172-1.151-0.256l-0.696-0.146   c-0.389-0.069-0.798-0.137-1.213-0.207l-0.747-0.121c-0.416-0.062-0.859-0.109-1.304-0.163c-0.27-0.03-0.515-0.065-0.77-0.085   c-0.477-0.047-0.983-0.081-1.487-0.111l-0.685-0.048c-0.674-0.034-1.358-0.05-2.056-0.05l-0.229,0.002   c-2.573,0.018-5.324,0.256-8.245,0.815c-6.935,1.321-14.775,4.415-23.165,10.523c-0.348,0.415-0.448,0.707-0.433,0.76l0.007,0.017   l0.118,0.086l0.005,0.002l0.04,0.018c0.286,0.128,0.953,0.219,1.852,0.216c2.172,0.003,5.728-0.439,9.924-0.823l0.64-0.059   l0.045,0.548l-0.045-0.55l0.674-0.06c0.32-0.026,0.634-0.051,0.959-0.078l0.562-0.047c0.483-0.038,0.976-0.071,1.471-0.104   l0.484-0.032c0.471-0.03,0.937-0.056,1.408-0.079l0.259-0.014c0.55-0.025,1.1-0.044,1.657-0.062l0.421-0.011   c0.573-0.017,1.151-0.028,1.729-0.031l0.426-0.003C33.203,191.796,34.934,191.849,36.657,191.984z"
   id="path28" />&#10;	<path
   style="fill:#FFFFFF;"
   d="M59.198,183.998c0,0-3.587-35.573,1.691-47.65c3.132-7.193,8.468-3.471,10.068-0.412   c1.595,3.055,12.405,21.177,12.451,27.284C83.455,169.326,64.455,188.165,59.198,183.998z"
   id="path29" />&#10;	<path
   style="fill:#000000;stroke:#000000;stroke-opacity:1;stroke-width:0.2;stroke-dasharray:none"
   d="M58.901,184.381l0.297-0.383l0.472-0.041l-0.472,0.041L58.901,184.381l-0.158-0.127l-0.022-0.202   c0.017-0.045-3.425-33.678,1.309-46.852c0.135-0.357,0.269-0.709,0.417-1.045c1.745-4.136,4.553-5.001,6.844-4.128   c1.814,0.663,3.314,2.216,4.083,3.688c1.584,3.074,12.406,21.065,12.512,27.506c0,0.581-0.146,1.225-0.399,1.918   c-1.325,3.643-5.738,8.995-10.552,13.28c-4.834,4.238-9.922,7.508-13.174,6.433l-0.022-0.014   C59.441,184.732,59.154,184.573,58.901,184.381z M60.08,183.957c2.31,0.938,7.531-2.017,12.227-6.251   c4.734-4.187,9.098-9.562,10.293-12.889c0.225-0.629,0.338-1.171,0.338-1.598c0.004-5.77-10.789-24.027-12.406-27.065   c-0.651-1.27-2.056-2.696-3.567-3.231c-1.876-0.635-3.908-0.239-5.644,3.618c-0.14,0.301-0.269,0.635-0.399,0.986   c-2.297,6.321-2.633,17.973-2.364,27.989c0.237,9.109,0.966,16.865,1.091,18.229L60.08,183.957z"
   id="path30" />&#10;	<path
   style="fill:#FFFFFF;"
   d="M180.181,203.645c0,0,17.594-31.133,28.871-37.954c6.71-4.062,8.918,2.054,8.458,5.47   c-0.455,3.426-2.079,24.46-5.56,29.477C208.462,205.645,182.073,210.077,180.181,203.645z"
   id="path31" />&#10;	<path
   style="fill:#000000;stroke:#000000;stroke-opacity:1;stroke-width:0.4;stroke-dasharray:none"
   d="M179.726,203.78l0.455-0.136l0.415,0.232l-0.415-0.232L179.726,203.78l-0.062-0.196l0.096-0.178   c0.039-0.021,16.634-29.483,28.107-37.516c0.31-0.213,0.623-0.424,0.938-0.613c3.813-2.364,6.599-1.454,7.969,0.577   c1.094,1.589,1.432,3.726,1.212,5.366c-0.482,3.438-2.022,24.373-5.65,29.687c-0.337,0.477-0.82,0.917-1.431,1.344   c-3.19,2.21-9.877,4.029-16.281,4.754c-6.396,0.671-12.427,0.412-14.472-2.345l-0.012-0.02   C179.957,204.376,179.816,204.087,179.726,203.78z M180.934,204.114c1.336,2.099,7.306,2.696,13.583,1.949   c6.284-0.693,12.951-2.559,15.849-4.591c0.545-0.379,0.95-0.761,1.19-1.109c3.336-4.711,5.054-25.85,5.486-29.261   c0.197-1.411-0.124-3.389-1.049-4.704c-1.163-1.597-3.055-2.446-6.706-0.298c-0.292,0.163-0.578,0.359-0.887,0.576   c-5.521,3.836-12.522,13.166-18.083,21.503c-5.053,7.57-8.934,14.323-9.62,15.511L180.934,204.114z"
   id="path32" />&#10;	<path
   style="fill:#000000;"
   d="M213.32,197.643l-0.607,0.32l-0.044,0.117l0.298,0.531   C213.085,198.305,213.202,197.982,213.32,197.643z M217.026,169.237c0.089,0.66,0.095,1.309,0.017,1.865   c-0.376,2.993-1.746,19.645-4.336,26.86l0.607-0.32c2.55-7.618,3.802-23.54,4.196-26.482c0.074-0.549,0.077-1.174,0.005-1.811   L217.026,169.237z"
   id="path33" />&#10;	<path
   style="fill:#ffffff;stroke-width:0.889781"
   d="m 109.07074,114.6513 c -6.60867,0 -11.964048,5.62335 -11.964048,12.56024 0,6.93324 5.354508,12.55568 11.964048,12.55568 6.60955,0 11.97013,-5.62244 11.97013,-12.55568 -8.6e-4,-6.93689 -5.36058,-12.56024 -11.97013,-12.56024 z"
   id="path34" />&#10;	<path
   style="fill:#FFFFFF;"
   d="M220.637,221.932c-8.114-47.583-59.387-68.602-90.74-70.82c-53.12-2.583-78.937,42.42-78.937,42.42   c0.933,8.252,2.899,16.191,5.768,23.672c2.971,7.75,6.93,15.016,11.76,21.627c3.525,4.845,7.525,9.336,11.939,13.419   c2.948,2.727,6.087,5.266,9.39,7.61c5.453,3.866,11.372,7.184,17.707,9.895c4.655,1.984,9.54,3.642,14.629,4.924   c6.616,1.106,13,1.436,19.132,1.135c4.864-0.239,9.569-0.874,14.091-1.833c5.094-1.091,9.957-2.583,14.573-4.392   c6.081-2.382,11.715-5.304,16.842-8.522c6.604-4.128,12.371-8.75,17.184-13.354C215.421,236.77,221.525,225.926,220.637,221.932z"
   id="path35" />&#10;	<path
   style="fill:#000000;"
   d="M78.81,174.536c0,0,12.175,1.656,18.628-7.563C97.438,168.815,92.086,177.669,78.81,174.536z"
   id="path36" />&#10;	<path
   style="fill:#FFFFFF;"
   d="M179.9,124.771c-7.61,0-13.781,6.166-13.781,13.776c0,7.609,6.171,13.778,13.781,13.778   c7.604,0,13.775-6.169,13.775-13.778C193.676,130.938,187.504,124.771,179.9,124.771z"
   id="path37" />&#10;	<path
   style="fill:#000000;stroke-width:0.6;stroke-dasharray:none;fill-opacity:1;stroke:#000000;stroke-opacity:1"
   d="m 95.164824,126.45431 c 0,-7.807 6.330996,-14.133 14.134996,-14.135 7.807,0.002 14.129,6.328 14.129,14.135 0,7.803 -6.323,14.13 -14.129,14.13 -7.804,0 -14.134996,-6.326 -14.134996,-14.13 z m 0.715,0 c 0.009,7.41 6.007996,13.405 13.419996,13.419 7.413,-0.014 13.411,-6.009 13.422,-13.419 -0.011,-7.413 -6.009,-13.411 -13.422,-13.426 -7.411,0.015 -13.410996,6.013 -13.419996,13.426 z"
   id="path38" />&#10;	<path
   style="fill:#000000;stroke:#000000;stroke-opacity:1;stroke-width:0.6;stroke-dasharray:none"
   d="M165.766,138.547c0-7.805,6.328-14.13,14.129-14.133c7.805,0,14.134,6.328,14.134,14.133   c0,7.803-6.33,14.129-14.134,14.133C172.094,152.676,165.766,146.35,165.766,138.547z M166.478,138.547   c0.012,7.413,6.009,13.407,13.417,13.422c7.413-0.016,13.411-6.01,13.427-13.422c-0.017-7.413-6.014-13.411-13.427-13.421   C172.487,125.136,166.49,131.134,166.478,138.547z"
   id="path39" />&#10;	<path
   style="fill:#000000;"
   d="M183.796,133.068c2.365,0,4.28,2.767,4.28,6.177c0,3.409-1.915,6.175-4.28,6.175   c-2.358,0-4.271-2.767-4.271-6.175C179.525,135.835,181.439,133.068,183.796,133.068z"
   id="path40" />&#10;	<path
   style="fill:#FFFFFF;"
   d="M181.944,135.68c0.522,0,0.949,0.613,0.949,1.363c0,0.754-0.427,1.364-0.949,1.364   c-0.516,0-0.938-0.61-0.938-1.364C181.007,136.292,181.428,135.68,181.944,135.68z"
   id="path41" />&#10;	<path
   style="fill:#FFFFFF;"
   d="M185.393,141.211c0.281,0,0.505,0.326,0.505,0.728c0,0.4-0.224,0.727-0.505,0.727   c-0.281,0-0.505-0.327-0.505-0.727C184.887,141.538,185.111,141.211,185.393,141.211z"
   id="path42" />&#10;	<path
   style="fill:#FFFFFF;"
   d="M76.457,102.833c-2.976-0.612-6.127-1.41-7.193-2.207c-5.666,8.022-10.507,31.258-10.507,31.258   s0.324,1.449,1.459,2.457c1.333,1.18,3.762,1.769,8.081-1.209c9.962-8.436,14.388-29.183,14.388-29.183   S79.669,103.498,76.457,102.833z"
   id="path43" />&#10;	<path
   style="fill:#000000;"
   d="M76.457,102.833l0.113-0.536c-1.477-0.307-3-0.658-4.269-1.031c-0.635-0.18-1.207-0.373-1.679-0.562   c-0.46-0.186-0.831-0.37-1.022-0.52l-0.455-0.345l-0.332,0.463c-1.472,2.081-2.841,5.068-4.105,8.399   c-3.774,9.979-6.491,23.055-6.497,23.068l-0.023,0.122l0.03,0.117c0.017,0.046,0.341,1.585,1.633,2.741   c0.697,0.626,1.698,1.111,2.982,1.104c1.517,0,3.397-0.626,5.779-2.269l0.022-0.014l0.018-0.018   c5.109-4.34,8.716-11.703,11.09-17.987c2.365-6.275,3.482-11.487,3.482-11.509l0.125-0.572l-0.585-0.086   c-0.005,0-0.741-0.109-1.898-0.305c-1.151-0.195-2.695-0.47-4.295-0.798L76.457,102.833l-0.113,0.545   c3.235,0.666,6.252,1.114,6.256,1.114l0.085-0.544l-0.544-0.122l-0.045,0.231c-0.264,1.134-1.512,6.377-3.836,12.296   c-2.336,5.916-5.779,12.515-10.317,16.351l0.354,0.427l-0.32-0.456c-2.269,1.567-3.948,2.075-5.145,2.075   c-1.021-0.009-1.711-0.36-2.251-0.82c-0.483-0.44-0.82-0.986-1.022-1.427l-0.208-0.547l-0.044-0.149l-0.018-0.037v-0.004   l-0.533,0.117l0.533,0.112c0.005,0,0.08-0.359,0.224-1.007c0.501-2.27,1.831-8.061,3.651-14.161   c0.909-3.044,1.943-6.163,3.056-8.949c1.111-2.791,2.295-5.24,3.497-6.933l-0.455-0.32l-0.332,0.438   c0.337,0.255,0.765,0.462,1.28,0.674c1.545,0.609,3.882,1.176,6.132,1.64L76.457,102.833z"
   id="path44" />&#10;	<path
   style="fill:#FFFFFF;"
   d="M67.201,97.764c-3.387-3.888-6.144-8.544-8.024-13.949c-6.301-18.123,0.736-37.297,12.564-51.331   c30.224-35.852,74.634-20.31,75.521-18.072c0.893,2.232-45.365,8.124-50.56,65.774c0,0-1.993,2.92,18.482-2.291   c20.481-5.212,34.291-20.166,35.969-22.654c1.679-2.485,5.605,25.931-25.978,48.204C106.417,116.673,81.31,113.941,67.201,97.764z"
   id="path45" />&#10;	<path
   style="fill:#000000;stroke:#000000;stroke-opacity:1;stroke-width:0.4;stroke-dasharray:none"
   d="M71.341,32.132c6.267-7.441,13.163-12.695,20.155-16.316c13.399-6.933,27.147-7.876,37.659-6.852   c5.257,0.508,9.704,1.508,12.911,2.5c3.146,1.03,4.959,1.771,5.599,2.591l0.063,0.072l0.033,0.093   c0.157,0.857-0.443,1.014-0.887,1.298c-1.814,0.933-6.695,2.39-12.844,5.576c-13.736,7.127-33.497,22.638-36.789,59.146   l-0.01,0.065c0.639,0.331,4.531,0.502,17.824-2.923c5.071-1.292,9.732-3.189,13.906-5.346c12.494-6.455,20.581-15.34,21.749-17.091   l0.332-0.307c0.6-0.261,0.983,0.253,1.117,0.522c0.909,1.85,1.304,8.808-1.983,18.077c-3.313,9.228-10.406,20.58-24.691,30.649   c-1.786,1.254-3.628,2.375-5.51,3.349c-18.145,9.393-40.226,5.734-53.175-9.112v-0.008c-2.14-2.449-4.029-5.204-5.605-8.255   c-0.96-1.85-1.803-3.799-2.522-5.868C52.298,65.626,59.418,46.27,71.341,32.132z M62.142,89.369   c1.538,2.979,3.38,5.658,5.464,8.048c12.596,14.455,34.139,18.046,51.867,8.864c1.842-0.949,3.645-2.044,5.393-3.268   c14.111-9.958,21.053-21.108,24.294-30.141c3.072-8.463,2.756-15.218,2.162-16.959c-1.948,2.552-9.839,10.839-21.869,17.077   c-4.233,2.188-8.974,4.114-14.134,5.428c-7.88,2.011-12.445,2.814-15.118,3.043c-2.656,0.188-3.51,0.026-3.993-0.693   c-0.151-0.313-0.095-0.567-0.027-0.722c3.324-36.823,23.436-52.722,37.355-59.91c6.212-3.208,11.249-4.74,12.854-5.573l0.17-0.099   c-1.479-1.058-8.739-3.74-18.493-4.523c-10.227-0.852-23.316,0.232-36.077,6.831c-6.873,3.552-13.652,8.715-19.84,16.052   C60.395,46.77,53.46,65.766,59.683,83.643C60.391,85.66,61.209,87.568,62.142,89.369z"
   id="path46" />&#10;	<path
   style="fill:#000000;"
   d="M151.18,54.725l-0.213,0.151c-1.684,2.488-15.487,17.451-35.963,22.662   c-9.666,2.455-14.321,3.104-16.545,3.104c-0.843,0-1.335-0.093-1.623-0.213c0.151,0.244,0.45,0.637,0.955,1.078   c0.219,0.021,0.46,0.031,0.741,0.031c0.46,0,1.012-0.027,1.667-0.072c2.673-0.231,7.245-1.036,15.118-3.047   c5.16-1.311,9.9-3.238,14.134-5.425c12.036-6.241,19.921-14.525,21.869-17.078c0.399,1.161,0.675,4.558-0.107,9.205l0.355-0.328   C152.596,58.695,151.843,54.721,151.18,54.725z"
   id="path47" />&#10;	<path
   style="fill:#000000;"
   d="M121.832,8.787c-15.236,0-34.654,4.796-50.278,23.332C56.027,50.532,55.185,67.31,58.014,79.291   c-0.135-1.12-0.214-2.288-0.236-3.501c-2.196-15.44,4.324-31.046,14.371-42.964c6.188-7.337,12.967-12.5,19.84-16.052   c10.366-5.364,20.954-7.086,30.045-7.086c2.095,0,4.116,0.093,6.032,0.254c9.754,0.782,17.015,3.464,18.493,4.523l-0.17,0.099   c-0.887,0.46-2.823,1.134-5.425,2.187l0.259,0.027c3.739-1.498,6.059-2.209,5.852-2.731   C146.649,12.971,136.069,8.787,121.832,8.787z"
   id="path48" />&#10;	<path
   style="fill:#FFFFFF;"
   d="M74.11,137.303c0,3.749-4.061,6.784-9.064,6.784c-5.004,0-9.065-3.036-9.065-6.784   c0-3.74,4.06-6.775,9.065-6.775C70.049,130.528,74.11,133.566,74.11,137.303z"
   id="path49" />&#10;	<path
   style="fill:#000000;"
   d="M73.969,137.281h-0.555c0,1.662-0.899,3.197-2.433,4.349c-1.533,1.149-3.684,1.877-6.076,1.877   c-2.387,0-4.544-0.728-6.072-1.877c-1.538-1.151-2.432-2.684-2.432-4.349c0-1.663,0.894-3.197,2.427-4.35   c1.533-1.146,3.69-1.876,6.077-1.876c2.392,0,4.543,0.73,6.076,1.876c1.534,1.151,2.433,2.687,2.433,4.35H73.969h0.551   c0-2.081-1.13-3.934-2.876-5.234c-1.747-1.305-4.122-2.095-6.739-2.097c-2.612,0.002-4.987,0.792-6.733,2.097   c-1.747,1.3-2.875,3.154-2.875,5.234c0,2.078,1.128,3.933,2.875,5.237c1.747,1.305,4.121,2.091,6.733,2.094   c2.617-0.003,4.992-0.79,6.739-2.094c1.746-1.304,2.876-3.16,2.876-5.237H73.969z"
   id="path50" />&#10;	<path
   style="fill:#FFFFFF;"
   d="M242.933,123.65c-1.517-1.71-20.291-3.061-23.053,2.912c-2.752,5.973-3.746,32.999-3.746,32.999   c5.878,1.053,6.345,4.843,6.345,4.843C233.402,155.411,244.448,125.36,242.933,123.65z"
   id="path51" />&#10;	<path
   style="fill:#000000;"
   d="M231.089,121.795c4.997-0.264,9.905,0.311,11.659,1.163l0.533,0.373   c0.472,0.702,0.248,1.516-0.005,2.948c-0.909,4.173-3.971,12.532-8.042,20.647c-3.613,7.185-7.992,14.169-12.45,17.847   l-0.669,0.553l-0.106-0.86c0,0-0.051-0.485-0.466-1.195c-0.41-0.707-1.163-1.598-2.578-2.314c-0.764-0.388-1.719-0.716-2.92-0.924   l-0.404-0.075l0.016-0.41c0.024-0.053,0.955-26.954,3.791-33.187l0.063-0.118C221.125,123.146,226.123,122.092,231.089,121.795z    M242.556,123.957l-0.236-0.149c-1.343-0.693-6.341-1.352-11.181-1.067c-4.875,0.238-9.637,1.494-10.788,3.926l-0.034,0.084   c-1.314,2.819-2.286,11.114-2.87,18.586c-0.506,6.419-0.758,12.276-0.82,13.837c1.089,0.222,1.999,0.55,2.763,0.932   c2.124,1.066,2.999,2.553,3.342,3.458c4.082-3.621,8.232-10.244,11.653-17.065c2.696-5.366,4.942-10.861,6.402-15.121   c0.736-2.137,1.263-3.965,1.555-5.301c0.142-0.672,0.23-1.215,0.247-1.606l-0.011-0.432L242.556,123.957z M216.218,159.101   l-0.084,0.46L216.218,159.101z"
   id="path52" />&#10;	<path
   style="fill:#FFFFFF;"
   d="M229.55,132.36c0,0-24.002,0.062-32.123-25.846c-8.11-25.903,4.331-47.146,8.52-49.594   c5.032-2.934-0.522,31.299,17.471,46.024c4.847,3.964,9.401-45.017-15.927-66.6c-9.474-8.071,40.508-4.587,57.428,34.042   C281.833,109.007,249.464,133.34,229.55,132.36z"
   id="path53" />&#10;	<path
   style="fill:#000000;stroke:#000000;stroke-opacity:1;stroke-width:0.4;stroke-dasharray:none"
   d="M215.88,32.713c5.224,0.778,12.036,2.764,19.078,6.293c11.473,5.765,23.581,15.654,30.392,31.188   c6.846,15.629,5.689,29.011,0.517,39.319c-7.727,15.349-24.205,23.901-36.351,23.329c-0.437-0.009-6.952-0.112-14.292-3.785   c-6.83-3.425-14.37-9.988-18.251-22.402c-5.576-17.788-1.527-33.386,2.96-42.321c2.112-4.195,4.256-6.922,5.774-7.815   c0.41-0.254,0.926-0.336,1.336-0.112c1.286,0.784,1.494,3.021,1.97,6.383c1.208,10.03,2.342,29.707,14.714,39.791l0.117,0.081   l0.337-0.044c0.169-0.113,0.404-0.405,0.629-0.86c3.617-7.05,4.179-46.583-17.623-65.048c-1.096-0.918-1.64-1.881-1.202-2.816   C207.035,32.177,210.636,32.006,215.88,32.713z M225.658,102.184c-0.504,1.002-1.286,1.778-2.241,1.332l-0.304-0.206   c-8.523-6.986-11.809-18.195-13.433-27.832c-0.809-4.813-1.201-9.255-1.617-12.578c-0.342-3.308-0.978-5.559-1.439-5.643   c-0.094-0.045-0.168-0.068-0.437,0.083c-1.163,0.654-3.371,3.318-5.408,7.419c-4.403,8.755-8.378,24.117-2.892,41.61   c3.801,12.161,11.12,18.491,17.763,21.834c3.672,1.846,7.138,2.754,9.687,3.218c2.561,0.46,4.208,0.456,4.208,0.46l0.005,0.48   l0.022-0.48c11.67,0.593,27.939-7.798,35.447-22.794c5.039-10.068,6.212-23.101-0.538-38.513   c-6.694-15.29-18.621-25.03-29.944-30.715c-6.952-3.488-13.675-5.443-18.795-6.204c-5.105-0.837-8.683-0.158-8.907,0.664   c-0.146,0.241-0.052,0.792,0.965,1.665C230.016,55.051,229.449,94.465,225.658,102.184z"
   id="path54" />&#10;	<path
   style="fill:#93808A;"
   d="M207.288,56.584c0.219,0.187,0.399,0.426,0.557,0.715C207.682,56.957,207.496,56.716,207.288,56.584   z"
   id="path55" />&#10;	<path
   style="fill:#D79292;"
   d="M258.37,58.25l0.028,0.033L258.37,58.25z M257.955,57.704l0.051,0.059L257.955,57.704z    M257.556,57.188l0.039,0.051L257.556,57.188z M257.158,56.688l0.072,0.093L257.158,56.688z M256.731,56.163l0.094,0.115   L256.731,56.163z M256.325,55.674l0.057,0.07L256.325,55.674z M255.927,55.208l0.013,0.014L255.927,55.208z"
   id="path56" />&#10;	<path
   style="fill:#000000;stroke:#000000;stroke-opacity:1;stroke-width:0.3;stroke-dasharray:none"
   d="M220.637,221.932l0.545-0.088c-4.093-23.983-19.06-41.263-36.907-52.795   c-17.847-11.54-38.564-17.369-54.346-18.49h-0.005c-1.493-0.072-2.964-0.103-4.413-0.103c-25.232,0-44.005,10.703-56.445,21.393   c-12.433,10.695-18.561,21.368-18.583,21.407l-0.078,0.334c0.943,8.3,2.919,16.289,5.811,23.814   c2.993,7.798,6.97,15.098,11.822,21.756c3.554,4.866,7.571,9.389,12.017,13.501c2.966,2.74,6.111,5.295,9.441,7.654   c5.48,3.88,11.434,7.23,17.813,9.947c4.684,1.999,9.591,3.665,14.701,4.956l0.045,0.009c5.104,0.859,10.086,1.245,14.91,1.245   c1.461,0,2.916-0.038,4.348-0.102c4.896-0.241,9.63-0.883,14.174-1.853c5.128-1.09,10.024-2.598,14.664-4.411   c6.11-2.396,11.776-5.33,16.942-8.571c6.628-4.145,12.422-8.79,17.27-13.423c5.38-5.146,9.593-10.271,12.467-14.705   c1.438-2.217,2.543-4.255,3.29-6.046c0.748-1.792,1.152-3.322,1.152-4.577c0-0.342-0.033-0.662-0.095-0.969L220.637,221.932   l0.545-0.088L220.637,221.932l-0.538,0.12c0.044,0.208,0.066,0.458,0.066,0.732c0,1.008-0.353,2.439-1.065,4.15   c-2.146,5.134-7.509,12.748-15.506,20.377c-4.79,4.582-10.53,9.179-17.089,13.292c-5.105,3.195-10.708,6.1-16.757,8.472   c-4.583,1.792-9.419,3.285-14.489,4.361c-4.493,0.955-9.165,1.589-14.001,1.828c-1.415,0.066-2.847,0.103-4.285,0.103   c-4.774,0-9.681-0.392-14.729-1.232l-0.09,0.543l0.135-0.535c-5.06-1.275-9.913-2.927-14.544-4.895   c-6.303-2.696-12.192-6.001-17.601-9.84c-3.291-2.328-6.409-4.851-9.335-7.561c-4.396-4.061-8.367-8.532-11.877-13.339   c-4.797-6.575-8.733-13.792-11.687-21.506c-2.846-7.44-4.806-15.328-5.732-23.532l-0.553,0.059l0.479,0.275l0.067-0.109   c0.724-1.216,7.165-11.771,19.458-21.997c12.294-10.233,30.416-20.141,54.548-20.141c1.437,0,2.88,0.039,4.358,0.105l0.027-0.553   l-0.038,0.553c15.579,1.099,36.16,6.889,53.823,18.31c17.662,11.427,32.38,28.444,36.412,52.058l0.006,0.021L220.637,221.932z"
   id="path57" />&#10;	<path
   style="fill:#000000;"
   d="M184.853,181.544c0,0,3.876,10.328,16.971,12.355C197.579,195.008,187.622,191.689,184.853,181.544z   "
   id="path58" />&#10;	<path
   style="fill:#000000;stroke:#000000;stroke-opacity:1"
   d="M90.98,174.351c0,0,32.087,52.009,100.696,17.152C190.852,192.332,131.092,223.317,90.98,174.351z"
   id="path59" />&#10;	<path
   style="fill:#FFFFFF;"
   d="M211.281,158.932c1.628-2.499,5.661-2.76,9.009-0.581c3.346,2.182,4.734,5.973,3.105,8.471   c-1.635,2.51-5.66,2.771-9.008,0.59C211.035,165.233,209.646,161.434,211.281,158.932z"
   id="path60" />&#10;	<path
   style="fill:#000000;"
   d="M211.361,159.017l0.46,0.297c0.77-1.17,2.163-1.805,3.852-1.814c1.393,0,2.96,0.458,4.398,1.391   c2.263,1.471,3.544,3.723,3.538,5.635c0,0.761-0.196,1.462-0.596,2.075c-0.763,1.179-2.162,1.813-3.848,1.813   c-1.398,0-2.964-0.449-4.396-1.386c-2.269-1.475-3.543-3.727-3.538-5.639c0-0.753,0.191-1.463,0.589-2.075L211.361,159.017   l-0.466-0.307c-0.522,0.806-0.77,1.732-0.77,2.679c0.004,2.39,1.517,4.911,4.038,6.561c1.606,1.053,3.37,1.568,5.003,1.568   c1.956,0.008,3.764-0.753,4.769-2.314c0.528-0.806,0.774-1.733,0.774-2.679c-0.005-2.39-1.515-4.911-4.038-6.562   c-1.612-1.045-3.375-1.567-4.998-1.567c-1.954,0-3.763,0.761-4.778,2.314L211.361,159.017z"
   id="path61" />&#10;	<path
   style="fill:#000000;"
   d="M112.611,121.634c2.359,0,4.274,2.766,4.274,6.175c0,3.412-1.915,6.175-4.274,6.175   c-2.363,0-4.28-2.763-4.28-6.175C108.331,124.4,110.248,121.634,112.611,121.634z"
   id="path62" />&#10;	<path
   style="fill:#FFFFFF;"
   d="M110.758,124.243c0.522,0,0.943,0.613,0.943,1.365c0,0.753-0.421,1.363-0.943,1.363   c-0.523,0-0.943-0.61-0.943-1.363C109.815,124.856,110.235,124.243,110.758,124.243z"
   id="path63" />&#10;	<path
   style="fill:#FFFFFF;"
   d="M114.207,129.775c0.274,0,0.5,0.326,0.5,0.729c0,0.402-0.226,0.725-0.5,0.725   c-0.282,0-0.506-0.323-0.506-0.725C113.701,130.101,113.925,129.775,114.207,129.775z"
   id="path64" />&#10;</g>&#10;</svg>
