<?xml version="1.0" encoding="UTF-8" standalone="no"?>
<!-- Creator: CorelDRAW X6 -->

<svg
   xmlns:dc="http://purl.org/dc/elements/1.1/"
   xmlns:cc="http://creativecommons.org/ns#"
   xmlns:rdf="http://www.w3.org/1999/02/22-rdf-syntax-ns#"
   xmlns:svg="http://www.w3.org/2000/svg"
   xmlns="http://www.w3.org/2000/svg"
   xmlns:sodipodi="http://sodipodi.sourceforge.net/DTD/sodipodi-0.dtd"
   xmlns:inkscape="http://www.inkscape.org/namespaces/inkscape"
   xml:space="preserve"
   width="240"
   height="219.99936"
   version="1.1"
   style="clip-rule:evenodd;fill-rule:evenodd;image-rendering:optimizeQuality;shape-rendering:geometricPrecision;text-rendering:geometricPrecision"
   viewBox="0 0 2500 2292"
   id="svg5291"
   sodipodi:docname="crab.svg"
   inkscape:version="0.92.1 r15371"><defs
     id="defs5468" /><metadata
     id="metadata5295"><rdf:RDF><cc:Work
         rdf:about=""><dc:format>image/svg+xml</dc:format><dc:type
           rdf:resource="http://purl.org/dc/dcmitype/StillImage" /><dc:title /></cc:Work></rdf:RDF></metadata><sodipodi:namedview
     pagecolor="#ffffff"
     bordercolor="#666666"
     borderopacity="1"
     objecttolerance="10"
     gridtolerance="10"
     guidetolerance="10"
     inkscape:pageopacity="0"
     inkscape:pageshadow="2"
     inkscape:window-width="1920"
     inkscape:window-height="1003"
     id="namedview5293"
     showgrid="false"
     units="px"
     inkscape:zoom="10.413784"
     inkscape:cx="218.20431"
     inkscape:cy="146.4652"
     inkscape:window-x="-9"
     inkscape:window-y="-9"
     inkscape:window-maximized="1"
     inkscape:current-layer="svg5291" /><path
     style="fill:#000000;fill-rule:nonzero"
     inkscape:connector-curvature="0"
     id="path4974"
     d="m 923,1894 c -57,-14 -115,-26 -173,-35 -212,-41 -450,-39 -659,40 -29,12 -60,23 -90,36 v 6 c 31,-14 63,-25 94,-37 132,-48 337,-94 651,-39 92,15 182,36 271,64 10,3 21,7 31,10 0,-2 1,-4 2,-5 0,-1 0,-1 1,-1 0,0 0,-1 0,-1 -42,-14 -84,-27 -127,-38 z"
     class="fil0" /><path
     style="fill:#000000;fill-rule:nonzero"
     inkscape:connector-curvature="0"
     id="path4976"
     d="m 1081,1901 c 0,0 -210,-47 -320,-66 -275,-56 -530,-42 -691,-11 -24,4 -47,8 -70,13 v 8 c 18,-3 40,-8 65,-12 332,-64 655,0 693,8 0,0 0,0 0,0 109,19 209,43 302,61 v 0 c 71,23 223,27 223,27 l 1,-5 c -113,-4 -160,-12 -203,-22 z"
     class="fil0" /><path
     style="fill:#000000;fill-rule:nonzero"
     inkscape:connector-curvature="0"
     id="path4978"
     d="m 1908,1765 c 0,0 0,0 0,0 -28,12 -57,23 -85,34 0,0 -123,48 -212,76 -56,17 -112,31 -170,40 -53,8 -106,10 -159,8 0,1 1,2 1,3 0,1 0,1 1,2 49,2 99,0 149,-7 60,-8 118,-23 176,-41 109,-33 222,-79 222,-79 0,0 0,0 0,0 27,-11 69,-27 96,-39 -1,0 -18,3 -18,2 z"
     class="fil0" /><path
     style="fill:#000000;fill-rule:nonzero"
     inkscape:connector-curvature="0"
     id="path4980"
     d="m 1291,766 c 0,17 -14,32 -32,32 -17,0 -32,-14 -32,-32 0,-17 14,-32 32,-32 17,0 32,14 32,32 z m -68,0 c 0,20 16,36 36,36 20,0 36,-16 36,-36 0,-20 -16,-36 -36,-36 -20,0 -36,16 -36,36 z"
     class="fil0" /><path
     style="fill:#000000;fill-rule:nonzero"
     inkscape:connector-curvature="0"
     id="path4982"
     d="m 1058,545 c 23,0 42,19 42,42 0,23 -19,42 -42,42 -23,0 -42,-19 -42,-42 0,-23 19,-42 42,-42 z m 0,89 c 26,0 47,-21 47,-47 0,-26 -21,-47 -47,-47 -26,0 -47,21 -47,47 0,26 21,47 47,47 z"
     class="fil0" /><path
     style="fill:#000000;fill-rule:nonzero"
     inkscape:connector-curvature="0"
     id="path4984"
     d="m 1229,535 c -17,0 -31,-14 -31,-31 0,-17 14,-31 31,-31 17,0 31,14 31,31 0,17 -14,31 -31,31 z m 35,-31 c 0,-19 -16,-35 -35,-35 -19,0 -35,16 -35,35 0,19 16,35 35,35 19,0 35,-16 35,-35 z"
     class="fil0" /><path
     style="fill:#000000;fill-rule:nonzero"
     inkscape:connector-curvature="0"
     id="path4986"
     d="m 1058,337 c 9,0 17,8 17,17 0,9 -8,17 -17,17 -9,0 -17,-8 -17,-17 0,-9 8,-17 17,-17 z m 0,38 c 12,0 21,-10 21,-21 0,-12 -10,-21 -21,-21 -12,0 -21,10 -21,21 0,12 10,21 21,21 z"
     class="fil0" /><path
     style="fill:#000000;fill-rule:nonzero"
     inkscape:connector-curvature="0"
     id="path4988"
     d="m 2155,627 c 10,0 18,8 18,18 0,10 -8,18 -18,18 -10,0 -18,-8 -18,-18 0,-10 8,-18 18,-18 z m 0,41 c 13,0 23,-10 23,-23 0,-13 -10,-23 -23,-23 -13,0 -23,10 -23,23 0,13 10,23 23,23 z"
     class="fil0" /><path
     style="fill:#000000;fill-rule:nonzero"
     inkscape:connector-curvature="0"
     id="path4990"
     d="m 689,486 c 19,0 34,15 34,34 0,19 -15,34 -34,34 -19,0 -34,-15 -34,-34 0,-19 15,-34 34,-34 z m 0,72 c 21,0 39,-17 39,-39 0,-21 -17,-39 -39,-39 -21,0 -39,17 -39,39 0,21 17,39 39,39 z"
     class="fil0" /><path
     style="fill:#000000;fill-rule:nonzero"
     inkscape:connector-curvature="0"
     id="path4992"
     d="m 726,129 c 25,0 45,20 45,45 0,25 -20,45 -45,45 -25,0 -45,-20 -45,-45 0,-25 20,-45 45,-45 z m 0,95 c 27,0 50,-22 50,-50 0,-27 -22,-50 -50,-50 -27,0 -50,22 -50,50 0,27 22,50 50,50 z"
     class="fil0" /><path
     style="fill:#000000;fill-rule:nonzero"
     inkscape:connector-curvature="0"
     id="path4994"
     d="m 1481,420 c 26,0 47,21 47,47 0,26 -21,47 -47,47 -26,0 -47,-21 -47,-47 0,-26 21,-47 47,-47 z m 0,99 c 28,0 51,-23 51,-51 0,-28 -23,-51 -51,-51 -28,0 -51,23 -51,51 0,28 23,51 51,51 z"
     class="fil0" /><path
     style="fill:#000000;fill-rule:nonzero"
     inkscape:connector-curvature="0"
     id="path4996"
     d="m 645,268 c 22,0 39,18 39,39 0,22 -18,39 -39,39 -22,0 -39,-18 -39,-39 0,-22 18,-39 39,-39 z m 0,83 c 24,0 44,-20 44,-44 0,-24 -20,-44 -44,-44 -24,0 -44,20 -44,44 0,24 20,44 44,44 z"
     class="fil0" /><path
     style="fill:#000000;fill-rule:nonzero"
     inkscape:connector-curvature="0"
     id="path4998"
     d="m 2341,153 c 15,0 27,12 27,27 0,15 -12,27 -27,27 -15,0 -27,-12 -27,-27 0,-15 12,-27 27,-27 z m 0,58 c 17,0 31,-14 31,-31 0,-17 -14,-31 -31,-31 -17,0 -31,14 -31,31 0,17 14,31 31,31 z"
     class="fil0" /><path
     style="fill:#000000;fill-rule:nonzero"
     inkscape:connector-curvature="0"
     id="path5000"
     d="m 1368,60 c 15,0 27,12 27,27 0,15 -12,27 -27,27 -15,0 -27,-12 -27,-27 0,-15 12,-27 27,-27 z m 0,58 c 17,0 31,-14 31,-31 0,-17 -14,-31 -31,-31 -17,0 -31,14 -31,31 0,17 14,31 31,31 z"
     class="fil0" /><path
     style="fill:#000000;fill-rule:nonzero"
     inkscape:connector-curvature="0"
     id="path5002"
     d="m 2176,192 c 29,0 52,23 52,52 0,29 -23,52 -52,52 -29,0 -52,-23 -52,-52 0,-29 23,-52 52,-52 z m 0,109 c 31,0 57,-26 57,-57 0,-31 -26,-57 -57,-57 -31,0 -57,26 -57,57 0,31 26,57 57,57 z"
     class="fil0" /><path
     style="fill:#000000;fill-rule:nonzero"
     inkscape:connector-curvature="0"
     id="path5004"
     d="m 2086,380 c 18,0 33,15 33,33 0,18 -15,33 -33,33 -18,0 -33,-15 -33,-33 0,-18 15,-33 33,-33 z m 0,71 c 21,0 38,-17 38,-38 0,-21 -17,-38 -38,-38 -21,0 -38,17 -38,38 0,21 17,38 38,38 z"
     class="fil0" /><path
     style="fill:#000000;fill-rule:nonzero"
     inkscape:connector-curvature="0"
     id="path5006"
     d="m 1424,250 c 0,15 -12,27 -27,27 -15,0 -27,-12 -27,-27 0,-15 12,-27 27,-27 15,0 27,12 27,27 z m -58,0 c 0,17 14,31 31,31 17,0 31,-14 31,-31 0,-17 -14,-31 -31,-31 -17,0 -31,14 -31,31 z"
     class="fil0" /><path
     style="fill:#000000;fill-rule:nonzero"
     inkscape:connector-curvature="0"
     id="path5008"
     d="m 1696,56 c 20,0 36,16 36,36 0,20 -16,36 -36,36 -20,0 -36,-16 -36,-36 0,-20 16,-36 36,-36 z m 0,76 c 22,0 40,-14 40,-36 0,-22 -18,-45 -40,-45 -22,0 -40,18 -40,40 0,22 18,40 40,40 z"
     class="fil0" /><path
     style="fill:#000000;fill-rule:nonzero;stroke:#000000;stroke-opacity:1"
     inkscape:connector-curvature="0"
     id="path5010"
     d="m 2209,520 c -17,0 -31,-14 -31,-31 0,-17 14,-31 31,-31 6,0 11,2 16,4 -1,0 -1,0 -2,0 -9,0 -17,8 -17,17 0,9 8,17 17,17 8,0 14,-5 16,-13 0,2 0,3 0,5 0,17 -14,31 -31,31 z m 30,-39 c -1,8 -8,14 -16,14 -9,0 -16,-7 -16,-16 0,-9 7,-16 16,-16 1,0 3,0 4,1 6,4 10,10 12,17 z m -30,-27 c -20,0 -35,16 -35,35 0,20 16,35 35,35 20,0 35,-16 35,-35 0,-20 -16,-35 -35,-35 z"
     class="fil0" /><path
     style="fill:#000000;fill-rule:nonzero"
     inkscape:connector-curvature="0"
     id="path5012"
     d="m 1333,307 c 11,0 20,9 20,20 0,11 -9,20 -20,20 -11,0 -20,-9 -20,-20 0,-11 9,-20 20,-20 z m 0,44 c 13,0 24,-11 24,-24 0,-13 -11,-24 -24,-24 -13,0 -24,11 -24,24 0,13 11,24 24,24 z"
     class="fil0" /><path
     style="fill:#000000;fill-rule:nonzero;stroke:#000000;stroke-width:1.01876223;stroke-opacity:1"
     inkscape:connector-curvature="0"
     id="path5014"
     d="m 144,1688.7119 c 0,-1.0379 0,-2.0757 1,-3.1136 -12,2.0757 -25,3.1136 -41,4.1515 -5,0 -9,0 -12,0 -21,0 -37,-4.1515 -50,-11.4167 -8,-5.1893 -13,-12.4545 -14,-21.7954 -2,-12.4545 3,-28.0226 12,-39.4393 14,-16.606 32,-23.8711 56,-23.8711 11,0 22,1.0378 32,3.1136 13,2.0757 28,4.1515 43,7.2651 8,1.0379 18,4.1515 28,8.303 6,3.1137 9,6.2273 12,10.3788 2,3.1136 3,7.2651 3,13.4924 1,0 3,0 4,0 0,0 0,0 0,0 0,0 1,0 1,0 0,-2.0758 0,-3.1136 0,-5.1894 0,0 0,-1.0379 0,-2.0757 v 0 c 0,0 0,0 0,0 v 0 c 0,0 0,0 0,0 v 0 0 c 0,0 0,0 0,0 -3,-14.5303 -15,-22.8333 -36,-28.0227 l -2,-1.0379 c -16,-3.1136 -32,-7.2651 -48,-9.3409 -12,-2.0757 -23,-3.1136 -32,-3.1136 -27,0 -47,8.303 -62,23.8712 -13,14.5302 -19,31.1363 -16,47.7423 3,16.606 14,28.0227 31,33.212 9,3.1137 20,4.1515 33,4.1515 v 0 c 6,0 12,0 20,-1.0378 11,-1.0379 25,-2.0758 39,-4.1515 0,-1.0379 0,-2.0758 0,-3.1137 z"
     class="fil0" /><path
     style="fill:#000000;fill-rule:nonzero"
     inkscape:connector-curvature="0"
     id="path5016"
     d="m 1074,558 c 8,0 14,6 14,14 0,8 -6,14 -14,14 -8,0 -14,-6 -14,-14 0,-8 6,-14 14,-14 z m 0,30 c 9,0 16,-7 16,-16 0,-9 -7,-16 -16,-16 -9,0 -16,7 -16,16 0,9 7,16 16,16 z"
     class="fil0" /><path
     style="fill:#000000;fill-rule:nonzero;stroke:#000000;stroke-opacity:1"
     inkscape:connector-curvature="0"
     id="path5018"
     d="m 1495,431 c 10,0 18,8 18,18 0,10 -8,18 -18,18 -10,0 -18,-8 -18,-18 0,-10 8,-18 18,-18 z m 0,36 c 10,0 19,-8 19,-19 0,-10 -8,-19 -19,-19 -10,0 -19,8 -19,19 0,10 8,19 19,19 z"
     class="fil0" /><path
     style="fill:#000000;fill-rule:nonzero"
     inkscape:connector-curvature="0"
     id="path5020"
     d="m 1222,504 c -6,0 -10,-4 -10,-10 0,-6 5,-10 10,-10 6,0 10,5 10,10 0,6 -4,10 -10,10 z m 0,-21 c -6,0 -11,5 -11,11 0,6 5,11 11,11 6,0 11,-5 11,-11 0,-6 -5,-11 -11,-11 z"
     class="fil0" /><path
     style="fill:#000000;fill-rule:nonzero"
     inkscape:connector-curvature="0"
     id="path5022"
     d="m 1250,764 c -5,0 -9,-4 -9,-9 0,-5 4,-9 9,-9 5,0 9,4 9,9 0,5 -4,9 -9,9 z m 0,-19 c -6,0 -10,5 -10,10 0,6 5,10 10,10 6,0 10,-5 10,-10 0,-6 -5,-10 -10,-10 z"
     class="fil0" /><path
     style="fill:#000000;fill-rule:nonzero"
     inkscape:connector-curvature="0"
     id="path5024"
     d="m 709,142 c 6,0 12,5 12,12 0,6 -5,12 -12,12 -6,0 -12,-5 -12,-12 0,-6 5,-12 12,-12 z m 0,25 c 7,0 13,-6 13,-13 0,-7 -6,-13 -13,-13 -7,0 -13,6 -13,13 0,7 6,13 13,13 z"
     class="fil0" /><path
     style="fill:#000000;fill-rule:nonzero;stroke:#000000;stroke-opacity:1"
     inkscape:connector-curvature="0"
     id="path5026"
     d="m 676,504 c 7,0 12,5 12,12 0,7 -5,12 -12,12 -7,0 -12,-5 -12,-12 0,-7 5,-12 12,-12 z m 0,26 c 7,0 13,-6 13,-13 0,-7 -6,-13 -13,-13 -7,0 -13,6 -13,13 0,7 6,13 13,13 z"
     class="fil0" /><path
     style="fill:#000000;fill-rule:nonzero"
     inkscape:connector-curvature="0"
     id="path5028"
     d="m 658,290 c 9,0 17,8 17,17 0,9 -8,17 -17,17 -9,0 -17,-8 -17,-17 0,-9 8,-17 17,-17 z m 0,35 c 10,0 18,-8 18,-18 0,-10 -8,-18 -18,-18 -10,0 -18,8 -18,18 0,10 8,18 18,18 z"
     class="fil0" /><path
     style="fill:#000000;fill-rule:nonzero;stroke:#000000;stroke-opacity:1;stroke-width:1.04182122;stroke-miterlimit:4;stroke-dasharray:none"
     inkscape:connector-curvature="0"
     id="path5030"
     d="m 1665,86 c 0,-8 7,-15 15,-15 8,0 15,7 15,15 0,8 -7,15 -15,15 -8,0 -15,-7 -15,-15 z m 32,0 c 0,-9 -7,-16 -16,-16 -9,0 -16,7 -16,16 0,9 7,16 16,16 9,0 16,-7 16,-16 z"
     class="fil0" /><path
     style="fill:#000000;fill-rule:nonzero"
     inkscape:connector-curvature="0"
     id="path5032"
     d="m 328,117 c 25,0 45,20 45,45 0,25 -20,45 -45,45 -25,0 -45,-20 -45,-45 0,-25 20,-45 45,-45 z m 0,94 c 28,0 50,-17 50,-45 0,-28 -22,-55 -50,-55 -28,0 -50,22 -50,50 0,28 22,50 50,50 z"
     class="fil0" /><path
     style="fill:#000000;fill-rule:nonzero"
     inkscape:connector-curvature="0"
     id="path5034"
     d="m 290,154 c 0,-10 8,-19 19,-19 10,0 19,8 19,19 0,10 -8,19 -19,19 -10,0 -19,-8 -19,-19 z m 39,0 c 0,-11 -9,-20 -20,-20 -11,0 -20,9 -20,20 0,11 9,20 20,20 11,0 20,-9 20,-20 z"
     class="fil0" /><path
     style="fill:#000000;fill-rule:nonzero"
     inkscape:connector-curvature="0"
     id="path5036"
     d="m 2192,204 c 13,0 24,11 24,23 0,13 -11,23 -24,23 -13,0 -23,-11 -23,-23 0,-6 5,-23 23,-23 z m 0,48 c 14,0 25,-11 25,-25 0,-14 -11,-25 -25,-25 -14,0 -25,11 -25,25 0,14 11,25 25,25 z"
     class="fil0" /><path
     style="fill:#000000;fill-rule:nonzero"
     inkscape:connector-curvature="0"
     id="path5038"
     d="m 2098,400 c 7,0 12,6 12,12 0,7 -6,12 -12,12 -7,0 -13,-6 -13,-12 0,-7 6,-12 13,-12 z m 0,26 c 8,0 14,-6 14,-14 0,-8 -6,-14 -14,-14 -8,0 -14,6 -14,14 0,8 6,14 14,14 z"
     class="fil0" /><path
     style="fill:#000000;fill-rule:nonzero"
     inkscape:connector-curvature="0"
     id="path5040"
     d="m 1991,1991 c 2,-6 11,-8 16,-8 3,0 7,0 10,1 1,0 7,3 7,4 -5,5 -11,8 -18,9 -3,0 -18,1 -15,-5 1,-2 -1,2 0,0 z m 1,6 c 6,3 15,1 21,0 4,-1 8,-3 11,-6 1,-1 4,-3 4,-4 -6,-5 -14,-8 -22,-7 -5,1 -11,3 -14,6 -4,4 -4,9 1,11 2,1 -1,0 0,0 z"
     class="fil0" /><path
     style="fill:#000000;fill-rule:nonzero"
     inkscape:connector-curvature="0"
     id="path5042"
     d="m 2027,2092 c 1,0 1,0 -1,0 -2,0 -1,0 -1,0 -19,-5 -39,-2 -57,6 0,1 0,2 0,4 6,-2 12,-4 18,-6 12,-3 23,-3 35,-1 8,1 21,6 15,17 0,-1 0,-1 0,0 -2,4 -1,2 0,0 -8,15 -27,26 -43,27 -8,1 -17,1 -25,0 -4,-1 -9,-2 -14,-3 -1,1 -1,1 -2,2 3,1 7,2 10,3 17,3 37,3 52,-7 8,-5 17,-11 23,-20 6,-11 -1,-18 -11,-21 z"
     class="fil0" /><path
     style="fill:#000000;fill-rule:nonzero"
     inkscape:connector-curvature="0"
     id="path5044"
     d="m 2059,2152 c -4,-2 -7,-4 -11,-7 -2,-2 -1,-4 1,-6 4,-8 11,-18 21,-12 7,4 15,17 10,26 -4,7 -16,2 -21,0 -3,-1 5,2 0,0 z m 18,6 c 20,-7 -9,-58 -28,-24 -2,3 -3,6 -4,10 -1,3 4,6 7,8 7,4 17,10 25,7 3,-1 -9,3 0,0 z"
     class="fil0" /><path
     style="fill:#000000;fill-rule:nonzero"
     inkscape:connector-curvature="0"
     id="path5046"
     d="m 2112,2149 c -2,0 -6,1 -7,-1 0,-3 1,-6 4,-8 3,-2 6,-2 9,-1 2,0 7,2 8,4 1,3 -12,6 -14,6 -3,0 3,0 0,0 z m 16,-5 c 3,-2 0,-3 -2,-5 -5,-4 -14,-6 -19,-1 -2,2 -4,5 -3,8 0,4 2,4 6,4 7,0 13,-1 19,-6 0,0 -2,2 0,0 z"
     class="fil0" /><path
     style="fill:#000000;fill-rule:nonzero"
     inkscape:connector-curvature="0"
     id="path5050"
     d="m 2128,2165 c 2,-1 4,-6 7,-5 2,1 4,3 6,4 -4,1 -9,1 -13,1 1,0 6,0 0,0 z m 9,-7 c -4,-2 -6,2 -9,4 -2,2 -3,4 1,4 5,0 11,0 16,0 -2,-3 -5,-7 -8,-8 -1,-1 1,1 0,0 z"
     class="fil0" /><path
     style="fill:#000000;fill-rule:nonzero"
     inkscape:connector-curvature="0"
     id="path5054"
     d="m 2167,2112 c 1,0 0,0 -1,1 -4,1 -7,0 -11,0 4,-3 7,-3 11,0 0,0 -2,-2 0,0 z m -12,-1 c -5,4 11,5 13,4 5,-1 1,-4 -1,-6 -5,-3 -8,-1 -12,2 -5,4 1,-1 0,0 z"
     class="fil0" /><path
     style="fill:#000000;fill-rule:nonzero"
     inkscape:connector-curvature="0"
     id="path5064"
     d="m 932,1778 c -2,0 -7,0 -6,-3 1,-3 3,-5 6,-7 3,-1 7,-1 9,1 1,1 6,4 6,6 0,3 -13,3 -15,3 -3,0 3,0 0,0 z m 17,-1 c 4,-1 1,-3 0,-5 -4,-5 -12,-9 -19,-5 -3,1 -5,4 -5,7 0,4 1,4 5,5 7,2 13,2 20,-1 0,0 -2,1 0,0 z"
     class="fil0" /><path
     style="fill:#000000;fill-rule:nonzero"
     inkscape:connector-curvature="0"
     id="path5066"
     d="m 905,1817 c 0,0 11,-4 12,-4 6,0 12,2 16,6 0,0 -3,1 -4,2 -3,1 -7,2 -10,2 -5,0 -11,-1 -15,-5 0,0 0,0 0,0 z m 2,4 c 6,3 14,3 21,2 3,-1 6,-2 8,-3 1,0 -2,-4 -3,-4 -5,-4 -11,-6 -17,-5 -1,0 -16,5 -15,7 2,1 4,3 6,4 2,1 -2,-1 0,0 z"
     class="fil0" /><path
     style="fill:#000000;fill-rule:nonzero;stroke:#000000;stroke-opacity:1;stroke-width:2.04196958;stroke-miterlimit:4;stroke-dasharray:none"
     inkscape:connector-curvature="0"
     id="path5074"
     d="m 993,2153 c -12,1 -30,2 -49,0 -17,-2 -46,-11 -51,-23 -2,-4 0,-14 5,-19 12,-13 36,-19 59,-19 3,0 8,0 11,0 13,1 28,7 37,16 36,33 8,43 -14,45 z m 31,-31 v 0 0 c 0,0 0,0 0,-1 v 0 c 0,0 0,0 0,-1 v -1 0 c -11,-20 -35,-32 -65,-32 -1,0 -2,0 -3,0 -13,0 -26,3 -37,7 -8,3 -26,13 -29,28 -2,11 8,21 27,27 15,5 32,7 46,7 2,0 5,0 8,0 16,0 45,-2 53,-16 4,-6 3,-13 -1,-21 z"
     class="fil0" /><path
     style="fill:#000000;fill-rule:nonzero;stroke:#000000;stroke-opacity:1"
     inkscape:connector-curvature="0"
     id="path5076"
     d="m 282,1674 v 0 0 c 0,8 -10,14 -29,19 -13,3 -27,6 -47,7 -18,1 -50,-1 -56,-13 -2,-4 -1,-9 3,-16 11,-15 32,-27 57,-31 4,-1 8,-1 11,-1 15,-1 27,2 39,8 9,5 23,14 22,27 v 0 h 1 z m 2,-16 v 0 0 c 0,0 0,0 0,0 v 0 0 c 0,0 0,0 0,0 v 0 0 c -15,-18 -43,-26 -75,-21 -1,0 -2,0 -3,1 -14,3 -27,7 -38,14 -8,5 -26,17 -26,33 0,12 11,20 34,23 17,3 35,1 50,0 2,0 5,-1 9,-1 17,-3 48,-10 55,-25 3,-6 2,-13 -4,-21 z"
     class="fil0" /><path
     style="fill:#000000;fill-rule:nonzero;stroke:#000000;stroke-opacity:1;stroke-width:3.0837908;stroke-miterlimit:4;stroke-dasharray:none"
     inkscape:connector-curvature="0"
     id="path5106"
     d="m 2489,1926 c -7,-4 -14,-7 -21,-11 -14,-6 -28,-12 -42,-16 -30,-9 -61,-13 -92,-14 -35,-1 -71,4 -105,13 -36,10 -70,24 -106,35 -32,10 -68,18 -102,14 -25,-2 -49,-5 -74,-6 -13,-1 -26,-1 -38,-1 0,2 -1,3 -1,4 22,0 45,1 67,2 23,2 47,5 70,4 37,-1 72,-12 106,-24 30,-10 59,-22 89,-29 30,-7 60,-11 91,-10 59,1 118,15 169,46 1,-4 -8,-7 -11,-9 z"
     class="fil0" /><path
     style="fill:#000000;fill-rule:nonzero"
     inkscape:connector-curvature="0"
     id="path5108"
     d="m 2333,1885 c 43,1 -43,-1 0,0 z"
     class="fil0" /><path
     style="fill:#000000;fill-rule:nonzero;stroke:#000000;stroke-opacity:1;stroke-width:3.0837908;stroke-miterlimit:4;stroke-dasharray:none"
     inkscape:connector-curvature="0"
     id="path5110"
     d="m 1637,2072 c 0,-2 0,-3 0,-5 -11,14 -22,28 -35,41 -26,28 -56,48 -92,58 -38,10 -77,13 -117,14 36,-5 73,-13 107,-28 32,-14 59,-38 84,-62 11,-11 22,-22 33,-32 -1,0 -3,1 -4,1 -1,0 -2,0 -2,0 -15,15 -30,31 -47,45 -13,12 -27,22 -42,32 -15,10 -33,17 -51,23 -31,10 -63,16 -95,19 -30,3 -60,3 -89,4 -44,2 -87,3 -131,4 -35,1 -70,2 -105,6 -46,5 -92,13 -135,31 -19,8 -37,19 -53,32 -6,6 -13,12 -18,18 0,1 -7,8 -10,13 4,-6 15,-18 16,-20 11,-11 23,-20 36,-28 27,-16 57,-26 88,-33 69,-16 140,-17 211,-17 2,0 5,0 7,0 -59,5 -118,13 -174,30 -26,8 -51,18 -74,32 -11,6 -21,13 -30,21 -1,1 -19,17 -19,17 0,0 22,-19 25,-21 12,-9 25,-17 38,-24 29,-15 61,-25 93,-33 34,-8 69,-13 104,-17 27,-3 55,-6 82,-7 38,-1 75,-3 113,-4 38,-2 76,-2 114,-7 36,-4 71,-12 101,-32 29,-19 51,-46 72,-73 0,-1 0,-1 0,-2 z"
     class="fil0" /><path
     style="fill:#000000;fill-rule:nonzero;stroke:#000000;stroke-opacity:1;stroke-width:3.0837908;stroke-miterlimit:4;stroke-dasharray:none"
     inkscape:connector-curvature="0"
     id="path5112"
     d="m 2490,2035 c -8,-5 -16,-10 -25,-14 -14,-7 -29,-14 -44,-20 -32,-13 -66,-23 -100,-30 -36,-7 -72,-10 -109,-9 -37,2 -74,9 -111,12 -49,4 -156,-14 -172,-16 0,1 1,5 1,5 9,1 107,15 145,15 19,0 46,0 64,-3 19,-3 37,-7 55,-8 72,-6 145,6 212,32 32,12 63,27 91,45 v -5 c 0,-1 -8,-5 -9,-6 z"
     class="fil0" /><path
     style="fill:#000000;fill-rule:nonzero;stroke:#000000;stroke-opacity:1;stroke-width:2.04196958;stroke-miterlimit:4;stroke-dasharray:none"
     inkscape:connector-curvature="0"
     id="path5114"
     d="m 2490,2145 c -8,-8 -16,-16 -24,-23 -18,-16 -37,-31 -57,-44 9,6 16,10 -1,-1 -18,-11 -11,-7 -2,-1 -58,-37 -124,-63 -193,-67 -19,-1 -37,0 -55,2 -18,1 -37,1 -55,1 -37,-1 -124,-3 -170,8 0,2 -3,4 -3,6 46,-11 112,-12 149,-10 18,1 37,2 55,1 19,0 37,-3 55,-3 70,-2 140,23 200,58 42,24 80,55 112,91 v -6 c 0,-3 -8,-9 -10,-11 z"
     class="fil0" /><path
     style="fill:#000000;fill-rule:nonzero"
     inkscape:connector-curvature="0"
     id="path5116"
     d="m 2069,2239 c -46,-3 -93,-2 -139,6 -40,7 -82,20 -114,47 5,1 11,-6 15,-8 8,-5 15,-9 24,-13 14,-6 29,-11 44,-15 34,-9 69,-13 104,-14 70,-2 142,7 209,26 15,4 29,9 43,14 11,4 21,11 33,11 -67,-32 -144,-47 -218,-53 -42,-3 85,6 0,0 z"
     class="fil0" /><path
     style="fill:#000000;fill-rule:nonzero"
     inkscape:connector-curvature="0"
     id="path5118"
     d="m 2498,1754 c -4,-1 -7,-1 -11,-2 -8,-1 -16,-2 -24,-3 -17,-2 -33,-2 -50,-2 -36,0 -73,4 -109,9 -35,5 -70,12 -104,19 -12,2 -41,9 -61,13 0,0 0,0 0,1 0,1 0,3 1,4 13,-3 29,-6 34,-7 35,-8 70,-15 105,-21 73,-12 148,-20 221,-6 0,-2 1,-3 -2,-4 z"
     class="fil0" /><path
     style="fill:#000000;fill-rule:nonzero"
     inkscape:connector-curvature="0"
     id="path5120"
     d="m 2443,1185 c 0,0 0,0 0,0 0,0 0,0 0,0 z"
     class="fil0" /><path
     style="fill:#000000;fill-rule:nonzero"
     inkscape:connector-curvature="0"
     id="path5122"
     d="m 2442,1186 c 0,0 -1,0 -1,1 0,0 1,0 1,-1 z"
     class="fil0" /><path
     style="fill:#000000;fill-rule:nonzero"
     inkscape:connector-curvature="0"
     id="path5124"
     d="m 2438,1188 c 1,-1 2,-1 2,-1 -1,0 -2,1 -2,1 z"
     class="fil0" /><path
     style="fill:#000000;fill-rule:nonzero"
     inkscape:connector-curvature="0"
     id="path5126"
     d="m 2433,1192 c 1,-1 2,-1 2,-2 -1,1 -2,1 -2,2 z"
     class="fil0" /><path
     style="fill:#000000;fill-rule:nonzero"
     inkscape:connector-curvature="0"
     id="path5128"
     d="m 2435,1190 c 1,-1 2,-1 2,-1 -1,1 -2,1 -2,1 z"
     class="fil0" /><path
     style="fill:#000000;fill-rule:nonzero"
     inkscape:connector-curvature="0"
     id="path5130"
     d="m 298,1520 c 2,-26 54,-31 58,-3 3,22 -56,24 -58,2 0,-2 -8,-1 -8,2 2,18 31,17 43,16 11,-1 30,-5 30,-20 0,-36 -71,-27 -73,4 0,3 8,1 8,-1 z"
     class="fil0" /><path
     style="fill:#000000;fill-rule:nonzero"
     inkscape:connector-curvature="0"
     id="path5132"
     d="m 307,1505 c -2,-29 -36,-36 -59,-38 -29,-2 -76,5 -89,36 -11,27 34,37 51,39 26,3 66,3 89,-13 4,-3 -2,-6 -5,-4 -14,11 -38,11 -54,12 -21,1 -65,2 -73,-24 -12,-41 129,-63 133,-6 0,4 8,3 8,0 v 0 z"
     class="fil0" /><path
     style="fill:#000000;fill-rule:nonzero"
     inkscape:connector-curvature="0"
     id="path5134"
     d="m 355,1501 c 5,-18 31,-25 47,-29 21,-5 45,-5 62,11 28,27 -15,46 -37,49 -23,3 -44,-4 -65,-13 -3,-1 -9,3 -4,5 29,13 62,20 93,8 24,-9 38,-29 20,-53 -16,-20 -48,-18 -70,-13 -19,4 -48,14 -53,35 -1,4 7,3 8,-1 v 0 z"
     class="fil0" /><path
     style="fill:#000000;fill-rule:nonzero;stroke:#000000;stroke-opacity:1;stroke-width:2.04196958;stroke-miterlimit:4;stroke-dasharray:none"
     inkscape:connector-curvature="0"
     id="path5136"
     d="m 242,1470 c 15,-20 31,-72 -9,-75 -24,-2 -44,13 -67,12 -20,-1 -24,-15 -22,-29 2,-19 28,-20 42,-18 12,1 28,10 40,1 14,-10 -9,-36 -23,-47 -16,-12 -31,-24 -50,-28 -28,-6 -59,10 -59,40 0,12 -3,24 -13,32 -27,23 -34,-1 -32,-21 1,-11 -9,-13 -17,-13 -10,1 -20,7 -29,9 H 2 v 4 c 12,-4 39,-15 43,-4 2,6 -1,15 1,21 3,13 15,15 25,12 11,-3 22,-14 24,-25 2,-7 2,-15 2,-22 0,-18 20,-25 34,-29 28,-8 53,11 72,28 7,6 41,41 9,41 -24,0 -64,-18 -72,17 -10,42 44,33 65,25 20,-7 43,-5 48,18 4,17 -5,35 -15,48 -2,3 3,4 5,2 v 0 z M 0,1284 c 16,-6 35,-9 46,-12 24,-7 56,-21 39,-52 -6,-12 -25,-12 -35,-12 -15,0 -30,-2 -43,-10 -3,-1 -5,-3 -7,-5 v 7 c 1,1 2,1 2,2 6,4 15,7 22,9 22,4 63,-5 60,30 -2,24 -47,30 -65,35 -7,2 -13,4 -19,6 v 3 z m 0,-233 c 2,1 3,2 5,4 5,6 3,16 2,22 0,2 0,6 3,7 3,1 5,0 7,-2 4,-2 21,-18 21,3 0,8 -7,18 -11,24 -7,12 -17,28 -9,42 7,12 21,16 34,13 13,-3 23,-8 30,-20 3,-6 3,-13 2,-19 -3,-16 -5,-32 5,-45 10,-13 30,-9 41,1 8,7 8,21 7,31 0,6 -10,28 -6,33 4,5 9,4 30,2 8,-1 14,3 15,9 3,15 -15,19 -28,18 -16,-2 -22,2 -26,13 -4,12 16,26 24,32 18,14 40,29 63,32 13,2 28,-3 36,-12 14,-16 11,-37 7,-54 -5,-19 -19,-34 -36,-44 -12,-7 -39,-13 -54,-25 -11,-9 -10,-28 -2,-36 11,-10 25,-8 36,0 24,16 45,53 63,24 6,-10 3,-27 1,-38 -4,-18 -14,-27 -31,-32 -13,-4 -28,-5 -35,-18 -7,-15 13,-22 25,-17 3,1 5,1 8,1 9,0 11,-8 10,-15 -2,-19 -16,-38 -15,-57 1,-28 29,-41 41,-14 6,14 1,22 4,32 2,6 13,1 16,0 31,-10 23,28 13,42 -7,9 -13,17 -14,28 -1,10 5,22 8,32 4,12 4,26 4,39 0,14 -3,28 -6,41 -1,6 0,13 4,18 19,20 32,-34 33,-41 3,-15 1,-29 7,-42 7,-16 31,-14 32,5 0,7 -3,13 -5,20 -2,5 -17,28 -2,30 11,2 18,-6 25,-13 13,-14 26,-29 39,-42 19,-20 45,-7 41,17 -2,15 -17,28 -28,36 -20,16 -43,27 -66,39 -10,5 -31,12 -36,23 -4,8 1,14 10,13 17,-2 38,-3 35,21 -3,20 -30,18 -44,17 -15,-1 -28,5 -38,17 -17,20 -14,56 -1,78 12,20 42,24 62,15 30,-14 48,-40 60,-70 3,-8 7,-18 5,-28 -1,-5 -7,-9 -10,-12 -7,-8 -15,-19 -11,-29 6,-15 21,-15 26,-6 3,5 2,15 7,19 5,4 10,3 12,2 11,-7 11,-23 16,-34 8,-17 32,-26 44,-10 7,11 1,28 -5,36 -14,20 -59,51 -25,77 16,12 46,-10 53,-23 7,-13 12,-29 19,-42 8,-17 38,-26 36,-1 -1,7 -9,10 -7,17 1,4 20,-6 27,-11 23,-17 37,0 37,15 0,11 -11,21 -19,27 -13,10 -30,15 -45,20 -7,2 -21,4 -18,15 0,1 3,4 4,4 17,12 3,35 -22,23 -6,-3 -9,-10 -16,-11 -2,0 -5,1 -6,3 -8,6 -15,13 -25,17 -19,9 -44,5 -62,16 -26,17 2,42 25,34 7,-3 14,-7 20,-11 9,-6 28,-8 18,6 -2,3 -6,5 -9,7 -6,4 -6,10 2,11 13,2 28,-4 39,9 5,6 3,15 1,22 -5,14 -21,16 -33,15 -16,-1 -30,-10 -43,-19 -6,-4 -14,-10 -22,-10 -6,0 -8,4 -14,13 -5,8 -19,10 -31,-2 -8,-9 -11,-34 -23,-36 -29,-4 -23,49 -18,67 3,12 9,22 18,30 2,2 7,-1 5,-3 -18,-16 -22,-41 -22,-64 0,-6 0,-13 3,-19 11,-25 24,5 26,8 3,7 6,17 13,22 8,6 21,10 28,2 4,-4 6,-7 8,-11 7,-13 30,8 41,14 27,14 65,21 71,-15 2,-14 -6,-23 -19,-26 -2,-1 -12,-1 -14,0 1,0 -20,1 -12,-6 4,-4 9,-6 12,-11 4,-8 -2,-12 -9,-13 -23,-1 -47,34 -63,10 -18,-26 54,-32 62,-35 9,-3 17,-9 25,-15 11,-9 11,-5 21,3 23,17 55,-9 30,-28 -11,-9 16,-14 25,-17 10,-3 20,-7 28,-13 15,-10 27,-23 23,-41 -3,-13 -14,-17 -26,-16 -6,0 -14,4 -19,7 -5,4 -19,11 -18,10 2,-3 6,-7 7,-10 3,-11 0,-19 -11,-22 -12,-3 -24,3 -32,17 -9,16 -14,33 -25,48 -12,17 -50,31 -52,-1 -1,-18 17,-34 28,-45 26,-25 20,-63 -16,-58 -12,2 -22,12 -25,22 -2,5 -6,21 -5,15 1,-3 -8,27 -17,13 -4,-5 -2,-14 -6,-19 -6,-8 -16,-7 -23,-3 -12,8 -11,21 -7,32 3,8 9,15 15,22 7,8 0,21 -3,29 -10,27 -26,51 -52,65 -55,30 -86,-48 -58,-86 19,-27 90,3 83,-45 -2,-14 -20,-17 -37,-16 -10,1 -10,-9 -1,-15 4,-3 29,-16 40,-22 29,-15 79,-37 83,-74 3,-31 -32,-34 -50,-14 -12,13 -23,25 -35,39 -3,3 -8,9 -13,11 -13,6 -13,-3 -11,-9 1,-3 5,-10 6,-13 3,-7 7,-18 5,-26 -3,-12 -12,-17 -24,-16 -13,2 -20,15 -23,26 -4,12 -2,27 -5,39 -1,3 -9,44 -23,30 -8,-8 2,-32 3,-41 2,-13 1,-26 0,-39 -1,-12 -6,-23 -9,-34 -4,-15 2,-26 10,-38 6,-11 17,-35 1,-44 -9,-5 -16,0 -26,0 -6,0 -3,-17 -5,-27 -2,-8 -4,-14 -11,-18 -10,-7 -23,-5 -32,4 -12,11 -10,29 -8,42 1,9 4,18 7,27 2,8 9,30 -8,23 -8,-3 -22,-3 -27,5 -8,12 -2,25 10,31 7,4 17,6 25,8 17,5 24,14 28,30 2,8 3,16 3,25 0,9 -7,23 -21,13 -6,-4 -11,-9 -16,-14 -13,-12 -26,-24 -44,-22 -12,2 -21,9 -24,22 -4,18 15,34 29,39 13,5 25,8 37,14 13,7 21,21 27,35 5,13 9,31 4,45 -10,30 -45,22 -66,11 -17,-9 -61,-29 -55,-50 5,-19 36,-2 49,-15 8,-9 5,-23 -6,-27 -8,-3 -20,0 -27,1 -20,2 -5,-15 -3,-25 6,-26 -6,-57 -38,-52 -11,2 -18,8 -24,17 -12,21 8,46 -7,65 -13,16 -42,14 -50,-5 -5,-12 4,-25 10,-35 7,-11 19,-31 3,-39 -8,-4 -24,12 -22,0 1,-11 -2,-24 -13,-27 v 6 z"
     class="fil0" /><path
     style="fill:#000000;fill-rule:nonzero"
     inkscape:connector-curvature="0"
     id="path5138"
     d="m 0,1311 c 0,-1 0,-1 0,-2 0,-1 0,-1 0,-2 v -6 c 2,2 3,5 3,8 0,3 -1,6 -3,8 z"
     class="fil0" /><path
     style="fill:#000000;fill-rule:nonzero"
     inkscape:connector-curvature="0"
     id="path5152"
     d="m 0,1070 v 14 c 1,-2 2,-4 2,-7 0,-2 -1,-5 -2,-7 z"
     class="fil0" /><path
     style="fill:#000000;fill-rule:nonzero"
     inkscape:connector-curvature="0"
     id="path5196"
     d="m 1860,1431 c -59,14 -296,75 -380,90 0,1 1,1 1,2 87,-15 365,-85 373,-87 2,0 5,-1 8,-2 -1,-1 -1,-2 -2,-3 z"
     class="fil0" /><path
     style="fill:#000000;fill-rule:nonzero;stroke:#000000;stroke-opacity:1;stroke-width:2.04196958;stroke-miterlimit:4;stroke-dasharray:none"
     inkscape:connector-curvature="0"
     id="path5198"
     d="m 227,1470 c -74,-19 -147,-43 -218,-71 -2,-1 -6,2 -9,3 v 1 c 68,27 137,49 208,68 5,-2 12,-2 19,-2 z"
     class="fil0" /><path
     style="fill:#000000;fill-rule:nonzero;stroke:#000000;stroke-opacity:1;stroke-width:2.04196958;stroke-miterlimit:4;stroke-dasharray:none"
     inkscape:connector-curvature="0"
     id="path5200"
     d="m 1363,1538 c -104,13 -208,20 -312,22 -195,4 -391,-9 -583,-41 0,0 -1,1 -1,1 0,0 -1,1 -1,1 -1,1 -2,2 -3,2 28,4 56,9 84,12 219,29 441,36 661,19 53,-4 106,-9 158,-16 -1,-1 -1,-1 -2,-2 z"
     class="fil0" /><path
     style="fill:#000000;fill-rule:nonzero"
     inkscape:connector-curvature="0"
     id="path5202"
     d="m 2165,1781 c -54,11 -107,26 -159,43 0,0 0,0 0,0 0,2 0,4 -1,6 53,-17 107,-33 161,-44 7,-2 6,-7 -1,-5 z"
     class="fil0" /><path
     style="fill:#000000;fill-rule:nonzero"
     inkscape:connector-curvature="0"
     id="path5204"
     d="m 1568,1966 c -28,7 -56,12 -85,17 -61,10 -124,13 -186,8 -3,0 -5,0 -8,-1 0,1 0,3 0,4 0,1 0,1 0,2 26,2 53,3 80,2 68,-1 133,-11 198,-26 0,-2 1,-5 1,-7 z"
     class="fil0" /><path
     style="fill:#000000;fill-rule:nonzero"
     inkscape:connector-curvature="0"
     id="path5206"
     d="m 2500,1518 c -36,7 -70,19 -104,32 -9,4 -18,7 -28,11 0,1 -1,1 -1,2 0,2 -1,4 -4,5 0,0 -1,0 -1,1 0,0 0,0 0,0 34,-14 68,-28 104,-38 10,-3 21,-6 33,-9 v -4 z"
     class="fil0" /><path
     style="fill:#000000;fill-rule:nonzero"
     inkscape:connector-curvature="0"
     id="path5208"
     d="m 290,1135 c 0,2 0,4 0,5 6,2 11,3 17,5 1,-1 2,-3 3,-4 -7,-2 -14,-4 -21,-6 z"
     class="fil0" /><path
     style="fill:#000000;fill-rule:nonzero"
     inkscape:connector-curvature="0"
     id="path5210"
     d="m 142,1108 c 0,1 0,2 0,4 0,0 0,1 0,1 0,0 0,0 0,1 6,1 12,1 18,2 -2,-2 -3,-4 -5,-6 0,0 0,0 0,0 -4,-1 -9,-1 -13,-1 0,0 0,0 0,1 z"
     class="fil0" /><path
     style="fill:#000000;fill-rule:nonzero"
     inkscape:connector-curvature="0"
     id="path5212"
     d="m 80,1107 c 0,-1 0,-1 0,-1 0,-1 0,-1 0,-2 -16,-1 -31,-1 -47,-1 0,1 0,1 -1,2 0,1 -1,1 -1,2 16,0 32,1 48,2 0,-1 0,-1 0,-2 z"
     class="fil0" /><path
     style="fill:#000000;fill-rule:nonzero"
     inkscape:connector-curvature="0"
     id="path5214"
     d="m 365,1158 c -2,1 -4,3 -6,4 20,7 40,16 60,24 11,5 22,10 33,16 1,-2 1,-3 2,-5 -29,-15 -58,-28 -89,-39 z"
     class="fil0" /><path
     style="fill:#000000;fill-rule:nonzero"
     inkscape:connector-curvature="0"
     id="path5216"
     d="m 492,1220 c -1,1 -2,2 -4,4 14,9 28,19 41,29 0,0 0,-1 1,-1 1,-1 1,-2 2,-4 -13,-10 -27,-19 -41,-28 z"
     class="fil0" /><path
     style="fill:#000000;fill-rule:nonzero"
     inkscape:connector-curvature="0"
     id="path5218"
     d="m 612,1543 c 2,0 4,0 6,0 31,-56 31,-128 5,-187 -12,-27 -29,-51 -49,-72 -2,1 -4,2 -6,2 0,0 0,0 -1,0 13,13 24,28 34,44 39,62 45,148 10,212 z"
     class="fil0" /><path
     style="fill:#000000;fill-rule:nonzero;stroke:#000000;stroke-opacity:1;stroke-width:2.04196958;stroke-miterlimit:4;stroke-dasharray:none"
     inkscape:connector-curvature="0"
     id="path5220"
     d="m 930,1506 c -10,-32 -38,-54 -66,-68 -67,-36 -152,-39 -227,-23 0,1 1,2 1,3 73,-16 154,-11 221,23 27,14 52,35 64,64 8,19 6,40 0,58 0,0 0,0 0,0 h 4 c 0,0 1,0 1,0 6,-18 7,-37 2,-57 z"
     class="fil0" /><path
     style="fill:#000000;fill-rule:nonzero;stroke:#000000;stroke-opacity:1;stroke-width:2.04196958;stroke-miterlimit:4;stroke-dasharray:none"
     inkscape:connector-curvature="0"
     id="path5222"
     d="m 149,910 c -14,-29 -28,-58 -35,-90 -8,-37 4,-71 14,-107 7,-27 10,-52 4,-79 -8,-36 -30,-67 -36,-103 -5,-34 20,-66 28,-98 5,-22 6,-58 -11,-76 -2,-2 -2,-1 -1,2 10,64 -37,112 -49,171 -6,29 5,55 19,80 19,36 25,67 12,106 -9,28 -15,55 -13,84 3,31 11,60 21,89 21,61 44,123 20,187 -1,3 5,3 6,1 21,-57 7,-112 -12,-168 -10,-29 -20,-58 -25,-88 -7,-39 0,-73 12,-110 10,-29 8,-54 -3,-82 -13,-35 -36,-60 -29,-100 5,-31 22,-58 35,-86 10,-23 16,-47 14,-72 11,23 3,56 -4,77 -8,27 -27,49 -24,78 3,34 22,64 33,96 12,34 6,66 -4,100 -8,27 -15,54 -13,83 2,30 15,59 28,86 27,57 60,116 40,181 -1,3 5,4 6,1 17,-58 -6,-112 -31,-164 z"
     class="fil0" /><path
     style="fill:#000000;fill-rule:nonzero;stroke:#000000;stroke-opacity:1;stroke-width:2.04196958;stroke-miterlimit:4;stroke-dasharray:none"
     inkscape:connector-curvature="0"
     id="path5224"
     d="m 168,852 c -8,-27 7,-47 20,-69 22,-37 3,-86 -1,-125 -2,-32 9,-62 18,-92 -2,23 -4,45 -4,68 0,18 3,36 7,54 5,22 16,42 16,65 0,25 -16,46 -23,69 -9,32 8,61 27,86 1,-1 2,-2 4,-3 0,0 1,0 1,0 -20,-27 -35,-56 -24,-90 7,-23 21,-42 21,-66 0,-17 -7,-33 -12,-48 -6,-20 -9,-41 -11,-61 -3,-43 7,-86 9,-129 0,-3 -3,13 -5,19 -13,49 -28,75 -30,119 -2,48 25,97 -2,143 -10,17 -20,32 -19,53 1,16 10,33 18,46 19,36 39,69 39,111 2,0 4,1 6,2 0,-35 -13,-66 -30,-96 -9,-17 -19,-33 -25,-51 z"
     class="fil0" /><path
     style="fill:#000000;fill-rule:nonzero"
     inkscape:connector-curvature="0"
     id="path5226"
     d="m 2195,1136 c -1,-2 -1,-4 -1,-7 0,0 0,0 0,-1 -39,64 -53,142 -28,213 1,-1 2,-1 2,-2 1,-1 2,-1 3,-2 -23,-68 -11,-140 24,-202 z"
     class="fil0" /><path
     style="fill:#000000;fill-rule:nonzero;stroke:#000000;stroke-opacity:1"
     inkscape:connector-curvature="0"
     id="path5228"
     d="m 2295,1028 c 0,0 0,0 0,0 -19,11 -36,25 -53,40 0,2 0,3 0,5 16,-16 34,-31 54,-43 0,-1 -1,-1 -1,-2 z"
     class="fil0" /><path
     style="fill:#000000;fill-rule:nonzero;stroke:#000000;stroke-opacity:1"
     inkscape:connector-curvature="0"
     id="path5230"
     d="m 2376,995 c 0,0 -1,-1 -1,-1 0,0 0,0 0,0 -22,6 -43,14 -64,25 1,1 1,1 1,2 20,-11 42,-19 64,-24 0,0 0,-1 -1,-1 z"
     class="fil0" /><path
     style="fill:#000000;fill-rule:nonzero;stroke:#000000;stroke-opacity:1"
     inkscape:connector-curvature="0"
     id="path5232"
     d="m 2500,993 c -31,-8 -62,-9 -92,-5 0,1 1,2 1,2 30,-3 61,-1 91,6 v -4 z"
     class="fil0" /><path
     style="fill:#000000;fill-rule:nonzero"
     inkscape:connector-curvature="0"
     id="path5234"
     d="m 1748,1459 c 1,0 2,-1 4,-1 1,0 2,0 3,0 -3,-67 63,-139 115,-181 0,-2 0,-4 0,-6 -55,43 -125,118 -121,188 z"
     class="fil0" /><path
     style="fill:#000000;fill-rule:nonzero;stroke:#000000;stroke-opacity:1"
     inkscape:connector-curvature="0"
     id="path5236"
     d="m 2168,1201 c -20,-4 -41,-4 -62,-4 0,1 0,2 0,3 20,-1 41,1 60,4 0,-1 1,-3 1,-4 z"
     class="fil0" /><path
     style="fill:#ffffff;fill-rule:nonzero"
     inkscape:connector-curvature="0"
     id="path5238"
     d="m 2108,835 c -28,-66 -84,-126 -145,-164 -2,-1 -12,0 -11,5 37,128 -11,259 -84,368 -64,-78 -72,-191 -34,-284 1,-3 -6,-3 -7,-2 -66,17 -136,58 -167,121 -42,83 0,172 68,222 -14,52 4,100 43,127 0,0 0,0 0,1 -2,62 -34,123 -88,156 -17,-32 -52,-53 -87,-72 -23,-13 -47,-23 -72,-33 -9,-4 -18,-7 -27,-10 -21,-8 -11,-28 -6,-43 18,-7 34,-18 47,-32 0,0 1,0 1,0 45,-41 63,-108 41,-165 -20,-54 -76,-83 -131,-85 -96,2 -152,71 -142,162 0,0 0,1 0,1 -2,70 55,120 119,127 0,0 0,0 0,1 6,26 -29,13 -40,10 -29,-8 -61,-8 -91,-7 -25,1 -49,5 -73,10 -14,3 -41,14 -48,-4 -3,-8 -1,-17 -1,-26 60,-26 103,-83 106,-153 14,-110 -64,-208 -178,-211 -72,2 -133,35 -165,101 -36,74 -17,162 41,217 30,36 75,59 125,60 -1,18 -1,36 -16,48 -8,7 -19,11 -28,16 -23,14 -46,28 -68,43 -26,17 -53,35 -78,53 -17,12 -38,26 -50,44 -54,-33 -87,-94 -89,-157 39,-27 56,-78 43,-129 71,-53 110,-150 62,-233 -31,-55 -98,-92 -158,-107 -2,0 -12,1 -11,4 38,92 31,204 -32,282 -73,-110 -123,-243 -85,-371 1,-4 -9,0 -11,1 -64,39 -119,102 -148,170 -45,107 -13,239 100,283 11,4 22,8 34,11 13,51 43,89 86,104 27,97 98,159 195,180 -1,18 5,37 14,54 -31,19 -88,58 -86,97 -73,6 -62,187 -44,191 7,2 11,-3 15,-9 15,-22 24,-46 41,-67 8,-10 58,-48 48,-71 31,-4 66,-28 89,-42 8,11 17,21 26,31 -21,25 -48,50 -51,84 0,4 0,9 1,13 -27,12 -30,41 -32,68 -1,18 -1,68 20,84 12,10 9,-11 19,-32 19,-38 57,-53 53,-85 32,-6 50,-35 69,-66 8,5 15,9 23,14 -8,25 -17,56 -6,77 -22,11 -17,38 -11,59 5,17 22,67 30,67 5,0 7,-17 16,-45 13,-38 31,-49 23,-63 23,-11 32,-37 38,-60 97,26 205,20 300,-17 7,25 20,55 44,61 -8,13 20,42 24,51 7,15 14,35 22,50 3,6 21,-50 23,-65 3,-22 13,-53 -14,-61 10,-23 -2,-56 -13,-81 6,-4 13,-9 19,-13 24,27 45,61 79,64 -2,32 46,47 63,83 7,14 9,45 19,28 12,-20 16,-55 15,-70 -2,-31 -5,-71 -39,-82 1,-5 1,-9 0,-14 -6,-35 -37,-59 -61,-83 7,-9 13,-19 19,-29 25,13 66,35 100,36 -12,28 41,56 53,66 18,16 34,36 46,56 4,7 8,16 14,14 13,-3 6,-89 4,-102 -6,-35 -18,-89 -62,-84 0,-52 -72,-82 -110,-101 3,-14 5,-29 5,-43 0,-6 0,-12 -1,-18 96,-21 167,-82 195,-177 44,-16 75,-56 87,-106 17,-4 33,-10 48,-17 109,-49 126,-185 83,-286 z"
     class="fil1" /><path
     style="fill:#000000;fill-rule:nonzero"
     inkscape:connector-curvature="0"
     id="path5240"
     d="m 1468,1152 c 0,23 -19,42 -42,42 -23,0 -42,-19 -42,-42 0,-23 19,-42 42,-42 23,0 42,19 42,42 z"
     class="fil0" /><path
     style="fill:#ffffff;fill-rule:nonzero"
     inkscape:connector-curvature="0"
     id="path5242"
     d="m 1455,1140 c 0,8 -7,15 -15,15 -8,0 -15,-7 -15,-15 0,-8 7,-15 15,-15 8,0 15,7 15,15 z"
     class="fil1" /><path
     style="fill:#000000;fill-rule:nonzero"
     inkscape:connector-curvature="0"
     id="path5244"
     d="m 1232,1125 c 0,32 -26,58 -58,58 -32,0 -58,-26 -58,-58 0,-32 26,-58 58,-58 32,0 58,26 58,58 z"
     class="fil0" /><path
     style="fill:#ffffff;fill-rule:nonzero"
     inkscape:connector-curvature="0"
     id="path5246"
     d="m 1213,1109 c 0,12 -9,21 -21,21 -12,0 -21,-9 -21,-21 0,-12 9,-21 21,-21 12,0 21,9 21,21 z"
     class="fil1" /><path
     style="fill:#000000;fill-rule:nonzero;stroke:#000000;stroke-opacity:1;stroke-width:2.04196958;stroke-miterlimit:4;stroke-dasharray:none"
     inkscape:connector-curvature="0"
     id="path5254"
     d="m 1458,1559 c -25,-17 -59,-23 -88,-16 -25,6 -44,17 -60,32 -28,-4 -55,-3 -81,9 -19,9 -30,22 -44,37 -29,-19 -54,-44 -75,-71 77,9 162,-7 232,-27 58,-16 119,-45 172,-80 -14,41 -31,80 -56,115 z m -72,71 c -66,44 -136,33 -194,-3 9,-10 18,-21 30,-29 23,-18 53,-18 81,-14 -12,13 -23,29 -33,48 -3,5 3,0 3,0 22,-34 48,-65 88,-78 29,-9 65,-4 90,15 -18,24 -39,45 -65,62 z m 187,-234 c -8,-14 -28,-20 -24,-16 5,6 11,11 15,18 -59,52 -136,92 -209,118 -48,17 -101,23 -151,28 -52,5 -107,4 -156,-14 2,-11 12,-33 10,-32 -28,17 -27,48 -14,75 2,3 1,-20 3,-35 15,5 31,9 47,11 v 0 c 65,85 158,138 265,99 43,-16 77,-45 103,-82 1,-1 2,-1 2,-2 28,-40 49,-86 64,-131 14,-10 27,-20 40,-31 5,9 7,18 8,28 1,6 10,-13 -3,-35 z"
     class="fil0" /><path
     style="fill:#000000;fill-rule:nonzero;stroke:#000000;stroke-opacity:1;stroke-width:3.0837908;stroke-miterlimit:4;stroke-dasharray:none"
     inkscape:connector-curvature="0"
     id="path5256"
     d="m 1927,1138 c -37,4 -76,1 -112,-8 101,-119 191,-284 153,-444 65,44 118,112 141,186 20,65 12,142 -29,197 -25,34 -77,60 -152,69 z m -109,100 c -62,-11 -92,-72 -79,-130 16,11 34,19 52,25 52,17 115,19 173,6 -18,69 -72,111 -145,98 z m -125,175 c -1,-8 -4,-15 -6,-21 56,-33 92,-93 96,-157 12,6 25,11 39,13 20,3 38,3 55,-1 -27,89 -93,146 -183,166 z m 94,176 c -2,41 -53,35 -77,26 -21,-7 -42,-18 -61,-28 17,-29 31,-64 38,-96 48,20 103,51 100,98 z m 68,92 c 2,27 3,68 1,76 0,-1 -35,-51 -57,-71 -16,-14 -52,-28 -45,-56 14,-2 29,-10 38,-24 4,-6 6,-12 6,-18 46,-4 54,65 56,93 z m -179,43 c 0,0 0,1 0,1 -2,10 -12,26 -41,30 -32,-1 -60,-41 -75,-64 0,0 0,0 0,0 18,-15 35,-31 50,-49 3,-3 6,-7 8,-10 31,24 63,61 58,92 z m 31,145 c 0,0 0,-26 -23,-50 -18,-19 -46,-32 -45,-56 5,-1 14,-3 20,-5 12,-5 21,-15 26,-28 42,7 39,110 22,139 z m -612,-120 c -87,-37 -152,-110 -199,-190 -16,-27 -34,-58 -33,-89 0,-1 0,-1 0,-2 1,-12 5,-25 15,-36 26,-32 69,-55 102,-78 32,-21 64,-42 97,-61 28,-16 37,-29 38,-62 16,-1 32,-4 47,-9 0,19 0,39 24,37 18,-2 35,-9 52,-12 32,-6 64,-7 96,-5 8,0 109,31 104,-8 6,0 11,0 17,-1 8,-1 16,-2 23,-4 -6,18 -13,35 9,44 25,10 50,20 74,31 34,16 67,35 95,61 8,7 14,16 18,26 0,0 0,1 0,1 11,27 7,62 3,88 -16,85 -64,170 -137,217 -151,98 -318,105 -446,52 z m 436,54 c -8,10 -21,14 -29,12 -1,0 -1,-1 -2,-1 -11,-4 -21,-14 -28,-24 -7,-12 -11,-25 -15,-38 22,-9 47,-22 67,-35 11,26 27,62 7,86 z m 19,49 c -2,18 -12,58 -13,59 -1,-3 -2,-8 -3,-10 -4,-12 -8,-23 -13,-34 -9,-18 -31,-33 -23,-47 5,0 12,0 18,-2 12,-4 20,-9 25,-16 17,9 11,35 10,51 z m -411,-79 c -5,21 -15,51 -35,58 -10,3 -25,2 -36,-5 -25,-18 -14,-57 -4,-83 23,11 75,30 75,30 z m -54,111 c -7,18 -11,31 -16,49 0,0 -15,-37 -18,-48 -4,-17 -17,-51 2,-64 6,8 17,15 31,17 4,1 11,0 15,0 7,5 -10,35 -14,46 z m -124,-99 c -10,2 -20,0 -27,-3 -24,-10 -25,-40 -18,-61 7,-21 27,-39 44,-57 4,4 8,9 13,13 16,16 34,30 53,43 -9,18 -35,60 -65,64 z m -42,69 c -11,14 -17,32 -23,48 0,0 -16,-6 -18,-70 -1,-23 6,-67 29,-68 6,13 17,24 32,27 5,1 13,2 18,2 7,24 -25,44 -37,61 z M 792,1630 c -12,-39 44,-76 76,-95 9,18 21,35 30,50 8,13 18,26 27,39 -38,23 -112,72 -133,6 z m 5,93 c -20,20 -33,47 -46,72 -3,6 -12,18 -16,8 -17,-54 2,-169 46,-168 2,9 8,18 19,26 8,6 16,9 26,10 21,13 -22,44 -29,52 z M 671,1301 c 18,4 38,5 59,1 12,-2 24,-6 34,-11 4,64 39,126 96,158 -3,6 -6,13 -7,19 -90,-21 -155,-77 -182,-166 z m -87,-105 c 50,10 105,8 153,-4 2,0 5,-1 7,-2 9,-2 17,-5 25,-8 13,-5 26,-12 38,-19 15,62 -18,121 -84,132 -71,12 -122,-35 -140,-99 z m -59,-28 c -56,-27 -85,-82 -94,-141 -17,-115 57,-221 146,-286 1,-1 3,-2 4,-3 -42,162 49,329 152,450 -19,4 -38,6 -58,7 -51,2 -103,-4 -150,-27 z M 727,822 c 72,22 144,74 160,150 14,68 -21,140 -75,180 -21,15 -43,25 -67,32 -21,-24 -41,-50 -60,-78 67,-77 78,-190 42,-284 z m 224,244 c 0,-1 0,-2 0,-3 3,-91 74,-162 166,-160 87,2 151,79 153,162 2,91 -77,163 -166,161 -86,-2 -150,-77 -153,-159 z m -13,-80 c 19,-76 87,-123 164,-124 86,2 150,60 168,136 -27,-61 -90,-106 -158,-104 -26,1 -50,7 -72,17 -20,9 -37,21 -51,36 -30,30 -48,71 -49,118 0,15 3,30 7,45 -16,-38 -18,-80 -8,-123 z m 384,119 c 0,-9 0,-17 2,-25 10,-44 42,-78 82,-92 0,0 1,0 1,0 2,-1 4,-1 6,-2 1,0 1,0 2,0 2,-1 5,-1 7,-2 0,0 0,0 0,0 20,-4 42,-2 64,5 48,18 78,68 80,118 0,1 0,8 0,9 -7,75 -72,130 -149,112 -57,-13 -93,-68 -94,-123 z m 126,-156 c 55,2 103,32 125,83 13,30 12,64 2,96 2,-7 2,-15 3,-23 -2,-60 -40,-106 -92,-122 -7,-2 -15,-4 -22,-6 -32,-5 -63,2 -88,18 -26,16 -46,40 -57,68 8,-64 53,-113 129,-114 z m 225,67 c -51,-119 39,-212 145,-247 1,0 2,-1 4,-1 -38,95 -27,210 41,287 -18,26 -37,51 -56,74 -58,-17 -108,-52 -134,-112 z m 436,-180 c -28,-66 -84,-126 -145,-164 -2,-1 -12,0 -11,5 37,128 -11,259 -84,368 -64,-78 -72,-191 -34,-284 1,-3 -6,-3 -7,-2 -66,17 -136,58 -167,121 -42,83 0,172 68,222 -14,52 4,100 43,127 0,0 0,0 0,1 -2,62 -34,123 -88,156 -17,-32 -52,-53 -87,-72 -23,-13 -47,-23 -72,-33 -9,-4 -18,-7 -27,-10 -21,-8 -11,-28 -6,-43 18,-7 34,-18 47,-32 0,0 1,0 1,0 45,-41 63,-108 41,-165 -20,-54 -76,-83 -131,-85 -96,2 -152,71 -142,162 0,0 0,1 0,1 -2,70 55,120 119,127 0,0 0,0 0,1 6,26 -29,13 -40,10 -29,-8 -61,-8 -91,-7 -25,1 -49,5 -73,10 -14,3 -41,14 -48,-4 -3,-8 -1,-17 -1,-26 60,-26 103,-83 106,-153 14,-110 -64,-208 -178,-211 -72,2 -133,35 -165,101 -36,74 -17,162 41,217 30,36 75,59 125,60 -1,18 -1,36 -16,48 -8,7 -19,11 -28,16 -23,14 -46,28 -68,43 -26,17 -53,35 -78,53 -17,12 -38,26 -50,44 -54,-33 -87,-94 -89,-157 39,-27 56,-78 43,-129 71,-53 110,-150 62,-233 -31,-55 -98,-92 -158,-107 -2,0 -12,1 -11,4 38,92 31,204 -32,282 -73,-110 -123,-243 -85,-371 1,-4 -9,0 -11,1 -64,39 -119,102 -148,170 -45,107 -13,239 100,283 11,4 22,8 34,11 13,51 43,89 86,104 27,97 98,159 195,180 -1,18 5,37 14,54 -31,19 -88,58 -86,97 -73,6 -62,187 -44,191 7,2 11,-3 15,-9 15,-22 24,-46 41,-67 8,-10 58,-48 48,-71 31,-4 66,-28 89,-42 8,11 17,21 26,31 -21,25 -48,50 -51,84 0,4 0,9 1,13 -27,12 -30,41 -32,68 -1,18 -1,68 20,84 12,10 9,-11 19,-32 19,-38 57,-53 53,-85 32,-6 50,-35 69,-66 8,5 15,9 23,14 -8,25 -17,56 -6,77 -22,11 -17,38 -11,59 5,17 22,67 30,67 5,0 7,-17 16,-45 13,-38 31,-49 23,-63 23,-11 32,-37 38,-60 97,26 205,20 300,-17 7,25 20,55 44,61 -8,13 20,42 24,51 7,15 14,35 22,50 3,6 21,-50 23,-65 3,-22 13,-53 -14,-61 10,-23 -2,-56 -13,-81 6,-4 13,-9 19,-13 24,27 45,61 79,64 -2,32 46,47 63,83 7,14 9,45 19,28 12,-20 16,-55 15,-70 -2,-31 -5,-71 -39,-82 1,-5 1,-9 0,-14 -6,-35 -37,-59 -61,-83 7,-9 13,-19 19,-29 25,13 66,35 100,36 -12,28 41,56 53,66 18,16 34,36 46,56 4,7 8,16 14,14 13,-3 6,-89 4,-102 -6,-35 -18,-89 -62,-84 0,-52 -72,-82 -110,-101 3,-14 5,-29 5,-43 0,-6 0,-12 -1,-18 96,-21 167,-82 195,-177 44,-16 75,-56 87,-106 17,-4 33,-10 48,-17 109,-49 126,-185 83,-286 z"
     class="fil0" /><path
     style="fill:#ffffff;fill-rule:nonzero"
     inkscape:connector-curvature="0"
     id="path5258"
     d="m 2227,2006 c -6,-16 -18,-20 -31,-18 12,-7 22,-18 24,-32 3,-19 -12,-34 -29,-39 -10,-3 -21,-2 -30,3 17,-43 -56,-68 -85,-37 -1,-1 -3,-2 -4,-3 -31,-16 -101,2 -88,48 -14,0 -27,7 -35,17 -12,15 -6,35 4,50 -5,3 -10,6 -14,12 -8,12 -1,27 10,32 10,4 22,2 30,2 10,0 21,1 30,7 0,1 0,1 0,2 0,0 0,0 0,1 0,1 0,1 0,2 0,0 0,1 0,1 -16,0 -29,-11 -51,-4 -13,4 -21,17 -17,30 2,5 5,10 8,13 -8,4 -13,12 -14,21 -1,6 0,12 3,16 0,0 0,0 0,1 6,12 12,21 25,28 11,5 24,7 36,8 6,1 10,6 15,10 22,15 67,13 82,-13 15,9 37,7 52,0 14,-6 26,-22 26,-37 21,-7 33,-28 35,-50 0,0 0,-1 0,-1 0,0 0,0 0,0 1,-11 -5,-21 -17,-23 -17,-3 -36,3 -54,-2 1,0 2,0 2,0 15,-2 27,-4 40,-5 11,-1 25,1 36,-4 14,-7 16,-23 11,-36 z"
     class="fil1" /><path
     style="fill:#000000;fill-rule:nonzero;stroke:#000000;stroke-opacity:1;stroke-width:2.04196958;stroke-miterlimit:4;stroke-dasharray:none"
     inkscape:connector-curvature="0"
     id="path5262"
     d="m 2202,2043 c -23,3 -46,3 -69,7 0,-3 1,-5 1,-8 -1,-33 -29,-60 -63,-59 -34,1 -62,25 -63,60 0,2 0,3 0,5 0,0 0,1 0,1 -8,-4 -17,-6 -26,-6 -18,0 -35,1 -41,-15 -2,-7 0,-15 4,-20 2,-4 6,-6 9,-8 2,-1 3,-1 5,-2 8,-2 17,-2 24,0 8,3 20,8 26,13 3,2 2,1 1,0 -17,-15 -35,-21 -53,-16 -10,-15 -15,-33 -2,-49 12,-16 36,-16 52,-6 14,9 22,19 32,44 1,2 2,5 1,-1 -8,-27 -23,-49 -49,-53 0,0 0,0 0,0 -16,-49 75,-75 92,-30 8,22 3,49 -1,72 0,3 -1,5 0,2 5,-23 18,-69 -3,-88 28,-36 100,0 73,44 -7,10 -23,43 -32,54 -2,2 -5,6 0,1 14,-14 35,-62 54,-65 19,-3 36,11 40,28 4,19 -12,33 -38,47 -3,1 -6,3 -8,4 0,0 0,0 -1,0 0,0 0,0 0,0 -9,5 -17,11 -23,15 -2,2 0,0 1,0 13,-8 24,-14 35,-19 1,0 1,-1 2,-1 1,-1 3,-1 4,-2 16,-5 30,2 35,19 5,16 -4,29 -21,31 z m -6,16 c 9,5 9,17 7,25 -4,15 -22,25 -37,24 0,0 0,0 0,0 -1,-1 -7,-5 -8,-5 -5,-3 -3,-1 -2,0 10,7 13,21 7,30 -13,21 -49,24 -69,15 6,-9 8,-21 6,-33 0,-4 -1,-4 -1,-2 4,25 -17,50 -41,57 -17,5 -49,-2 -56,-21 16,-6 29,-19 40,-30 2,-2 1,-1 0,0 -19,21 -48,38 -77,29 -10,-3 -19,-10 -23,-20 -4,-9 1,-26 10,-30 18,11 49,5 66,0 4,-1 3,-1 1,-1 -21,7 -59,10 -71,-13 -10,-17 9,-32 26,-32 12,0 24,5 36,5 7,26 33,46 61,45 30,-1 55,-20 62,-48 7,1 15,2 22,3 14,1 29,-3 42,3 z m -21,65 c -1,-4 -2,-8 -5,-12 0,0 0,0 0,0 0,-1 -1,-1 -1,-2 12,0 25,-6 33,-15 -4,13 -13,24 -26,28 z m -16,31 c -13,15 -44,18 -60,5 -1,-1 -4,0 -5,1 -14,31 -65,28 -84,5 -3,-4 -11,-2 -16,-3 -10,-1 -21,-4 -30,-9 -5,-3 -9,-7 -12,-12 2,1 5,3 7,4 13,6 26,6 39,2 8,22 42,26 62,22 13,-3 25,-11 33,-21 20,8 41,5 60,-4 7,-4 14,-11 17,-19 1,10 -4,21 -10,28 z m -145,-114 c -1,-33 29,-57 60,-56 30,1 54,27 55,56 -1,33 -28,57 -60,56 -30,-1 -54,-27 -55,-56 z m 213,-35 c -6,-16 -18,-20 -31,-18 12,-7 22,-18 24,-32 3,-19 -12,-34 -29,-39 -10,-3 -21,-2 -30,3 17,-43 -56,-68 -85,-37 -1,-1 -3,-2 -4,-3 -31,-16 -101,2 -88,48 -14,0 -27,7 -35,17 -12,15 -6,35 4,50 -5,3 -10,6 -14,12 -8,12 -1,27 10,32 10,4 22,2 30,2 10,0 21,1 30,7 0,1 0,1 0,2 0,0 0,0 0,1 0,1 0,1 0,2 0,0 0,1 0,1 -16,0 -29,-11 -51,-4 -13,4 -21,17 -17,30 2,5 5,10 8,13 -8,4 -13,12 -14,21 -1,6 0,12 3,16 0,0 0,0 0,1 6,12 12,21 25,28 11,5 24,7 36,8 6,1 10,6 15,10 22,15 67,13 82,-13 15,9 37,7 52,0 14,-6 26,-22 26,-37 21,-7 33,-28 35,-50 0,0 0,-1 0,-1 0,0 0,0 0,0 1,-11 -5,-21 -17,-23 -17,-3 -36,3 -54,-2 1,0 2,0 2,0 15,-2 27,-4 40,-5 11,-1 25,1 36,-4 14,-7 16,-23 11,-36 z"
     class="fil0" /><path
     style="fill:#000000;fill-rule:nonzero;stroke:#000000;stroke-opacity:1;stroke-width:2.04196958;stroke-miterlimit:4;stroke-dasharray:none"
     inkscape:connector-curvature="0"
     id="path5264"
     d="m 2401,1222 c -1,17 3,34 9,50 5,14 11,27 15,42 4,14 4,29 2,43 -5,29 -23,52 -31,80 -4,14 -6,29 -7,43 -1,14 0,28 -3,42 -6,25 -22,46 -40,64 -3,-11 -11,-20 -21,-27 13,-11 25,-21 34,-35 9,-14 13,-30 12,-47 -1,-18 -7,-36 -3,-53 3,-18 16,-30 24,-45 8,-16 9,-33 4,-50 -5,-17 -15,-32 -17,-49 -4,-28 6,-56 12,-82 2,-8 3,-17 0,-25 -3,-9 -8,-16 -13,-23 -10,-15 -15,-31 -11,-49 4,-18 14,-34 20,-51 3,-8 5,-16 5,-24 -1,-9 -5,-16 -10,-24 -4,-7 -9,-14 -12,-22 -3,-9 -1,-18 1,-26 5,-17 13,-32 21,-47 15,-29 27,-60 30,-93 0,-2 0,-3 0,-5 14,31 6,67 -8,96 -7,15 -14,31 -16,48 -2,18 3,35 8,53 2,8 4,16 3,24 -1,9 -3,18 -7,27 -7,16 -12,32 -8,49 5,23 17,43 15,67 -2,17 -8,33 -10,50 z m -79,335 c -2,-1 -4,-3 -6,-4 -3,-2 -9,-4 -9,-8 1,-4 1,-9 1,-14 0,-18 -8,-35 -11,-52 -3,-18 4,-32 14,-47 8,-12 16,-24 16,-39 1,-18 -17,-29 -21,-45 -6,-21 6,-38 15,-56 10,-20 11,-42 0,-62 -7,-14 -18,-26 -24,-41 -7,-18 0,-34 6,-50 7,-16 15,-32 18,-49 3,-18 -4,-34 -14,-48 -9,-15 -23,-27 -28,-44 -6,-18 2,-35 8,-52 6,-17 13,-35 12,-53 0,-18 -8,-34 -15,-50 -7,-15 -14,-30 -16,-46 -1,-8 3,-17 6,-24 4,-8 8,-16 12,-23 8,-15 16,-30 23,-45 6,-13 11,-30 5,-44 12,8 24,21 25,36 2,17 -8,33 -17,46 -9,15 -19,30 -22,47 -3,18 2,36 7,54 5,17 10,34 9,52 -1,18 -10,36 -15,53 -6,17 -8,34 -3,52 5,17 15,31 22,46 8,16 13,33 11,50 -1,13 -4,26 -8,38 -2,7 -4,15 -6,22 -4,16 -1,32 4,48 5,16 11,31 13,48 2,18 -4,34 -9,51 -4,14 -8,30 -2,44 6,16 21,29 23,47 2,18 -13,30 -21,44 -9,16 -7,33 -3,50 4,18 7,34 4,52 -1,4 -1,9 -4,11 -2,2 -2,3 -5,1 z m -18,-12 c -4,-2 -5,-3 -5,-7 0,-4 0,-7 -1,-11 -1,-7 -3,-14 -6,-20 -6,-14 -14,-27 -19,-41 -5,-14 -5,-28 0,-42 5,-13 13,-26 11,-41 -3,-29 -32,-48 -37,-77 0,-1 0,-3 -1,-4 2,-1 64,-36 77,-44 2,2 -1,13 -1,16 -1,6 -4,12 -7,18 -6,12 -13,23 -15,35 -3,14 1,27 9,38 8,11 16,20 13,34 -2,10 -7,19 -13,27 -8,11 -15,22 -17,36 -2,14 4,28 8,41 4,13 6,26 5,40 z m -39,-24 c -3,-1 -6,-2 -8,-3 -2,-3 -4,-6 -5,-9 -3,-5 -6,-11 -9,-16 -11,-26 5,-48 14,-72 4,-11 6,-22 3,-34 -3,-12 -10,-22 -17,-32 -14,-18 -35,-37 -34,-62 1,-13 7,-24 12,-35 5,-12 8,-24 8,-36 -1,-27 -18,-47 -28,-71 -5,-12 -7,-24 -4,-36 3,-13 10,-24 14,-36 8,-23 10,-48 -5,-68 30,16 39,50 34,82 -3,18 -9,34 -7,52 2,18 11,35 17,52 6,17 8,35 3,52 -4,17 -14,33 -13,51 1,17 9,32 19,46 9,14 21,29 20,47 -1,13 -9,24 -12,37 -3,13 -3,25 2,38 9,25 26,46 27,73 -10,-7 -19,-13 -30,-18 z m 79,-242 c 2,-7 2,-15 1,-22 0,-4 -1,-8 -1,-11 3,-2 7,-4 10,-6 9,-5 18,-11 26,-16 -3,14 -6,29 -6,43 0,16 4,29 10,43 6,14 12,29 11,44 -1,16 -10,28 -19,41 -8,12 -13,26 -13,41 0,14 4,28 5,42 3,30 -14,52 -35,72 3,-14 3,-28 1,-42 -3,-14 -7,-28 -7,-42 1,-28 34,-43 27,-73 -3,-14 -13,-25 -19,-37 -6,-12 -7,-22 -4,-35 3,-14 9,-27 12,-41 z m 156,-130 c -31,15 -60,33 -89,50 4,-17 8,-34 4,-51 -4,-17 -13,-33 -15,-50 -2,-18 6,-32 12,-48 6,-17 4,-33 -1,-50 -5,-17 -9,-33 -7,-51 2,-17 10,-33 17,-49 12,-28 18,-67 2,-95 -2,32 -13,62 -27,90 -14,28 -41,64 -24,96 8,15 20,28 15,46 -4,17 -14,32 -20,48 -6,17 -8,35 -1,52 6,14 20,26 21,43 1,10 -3,19 -5,28 0,1 -1,8 -2,9 -1,1 -27,16 -38,23 -4,-17 -12,-34 -15,-51 -2,-12 -1,-23 2,-35 6,-25 15,-50 11,-76 -3,-17 -10,-32 -19,-47 -9,-15 -17,-31 -17,-49 0,-18 7,-35 12,-51 6,-18 10,-35 7,-54 -3,-21 -12,-40 -15,-61 -4,-22 2,-41 13,-60 10,-17 24,-36 23,-57 -1,-19 -16,-35 -33,-43 9,13 3,31 -2,44 -7,16 -15,31 -24,47 -8,14 -18,30 -20,46 -2,16 7,34 14,49 7,16 15,32 16,50 1,19 -6,36 -12,53 -6,16 -13,33 -10,51 4,18 15,30 25,45 7,10 14,21 16,33 3,14 -1,27 -6,39 -10,24 -26,50 -19,77 4,12 11,22 19,32 10,12 13,29 13,30 0,0 -51,32 -76,46 0,-13 7,-26 10,-38 4,-14 7,-28 4,-42 -4,-28 -22,-51 -24,-80 -1,-14 4,-27 6,-40 2,-14 3,-28 0,-41 -5,-23 -21,-41 -43,-50 9,12 14,26 13,41 -1,17 -8,33 -15,49 -7,16 -12,32 -6,49 5,17 16,32 23,48 7,17 10,34 4,51 -5,17 -16,31 -17,49 0,8 2,17 5,24 -8,4 -78,40 -123,52 -122,38 -224,61 -224,61 l 2,3 c 116,-28 224,-59 224,-59 19,-8 76,-26 121,-51 3,-2 3,1 4,3 3,5 6,9 9,13 13,17 31,33 34,56 3,22 -13,42 -19,62 -3,11 -3,22 0,33 3,9 9,18 14,26 -16,-5 -33,-6 -50,-9 -23,-3 -45,-8 -68,-3 -26,5 -45,22 -67,35 -22,12 -45,21 -67,31 0,0 -1,1 -1,1 0,0 -1,0 -1,0 -2,1 -3,1 -5,2 0,0 -5,3 -5,3 -2,1 -3,2 -5,4 -5,5 -8,11 -10,18 0,0 -2,19 -2,25 0,12 3,40 4,42 1,0 4,0 3,-1 0,-4 -1,-7 -1,-11 -1,-9 -1,-18 -1,-26 0,-14 0,-34 13,-44 6,-5 13,-7 20,-10 8,-3 16,-7 24,-10 17,-7 33,-15 49,-24 15,-9 28,-20 45,-25 16,-5 33,-4 50,-2 18,2 36,5 54,8 17,3 33,8 48,17 7,4 14,9 21,14 7,4 14,8 20,13 12,9 25,22 20,39 -2,7 -6,14 -8,21 -6,15 -13,30 -20,44 -8,14 -18,27 -29,38 -5,6 -11,11 -18,15 -6,3 -13,5 -20,6 -21,3 -42,9 -64,12 -34,5 -68,8 -102,6 -11,-1 -34,-3 -44,-5 -3,3 -2,2 -3,3 8,1 32,4 37,5 17,2 34,3 50,3 35,0 71,-5 105,-12 19,-4 40,-5 55,-18 27,-23 43,-53 57,-85 3,-8 7,-15 10,-23 3,-7 5,-14 3,-22 6,-6 12,-12 17,-18 10,-12 18,-26 24,-40 6,-17 5,-33 6,-51 1,-18 4,-36 10,-52 6,-17 17,-31 22,-48 6,-17 9,-35 7,-53 -2,-19 -10,-36 -16,-53 -4,-11 -10,-23 -10,-35 -1,-17 2,-33 3,-34 8,-5 49,-30 63,-38 6,-3 12,-7 18,-10 3,-2 6,-3 9,-5 0,0 0,-1 0,-1 v 0 0 0 c 0,-1 0,-2 0,-2 z"
     class="fil0" /><path
     style="fill:#000000;fill-rule:nonzero;stroke:#000000;stroke-opacity:1;stroke-width:2.04196958;stroke-miterlimit:4;stroke-dasharray:none"
     inkscape:connector-curvature="0"
     id="path5266"
     d="m 1725,2164 c 0,1 -1,1 -1,2 -10,14 -20,28 -33,39 -25,22 -59,32 -92,37 -36,5 -73,4 -109,3 -35,-1 -71,-2 -106,1 -31,3 -63,9 -90,27 -6,4 -11,9 -16,14 21,-21 51,-31 79,-36 34,-6 69,-5 104,-4 37,1 73,3 110,1 34,-2 70,-8 100,-25 25,-14 42,-36 57,-59 0,0 23,-50 56,-81 50,-47 146,-58 146,-58 v -5 c -157,17 -186,109 -207,144 z"
     class="fil0" /><path
     style="fill:#000000;fill-rule:nonzero"
     inkscape:connector-curvature="0"
     id="path5268"
     d="m 1611,2059 c 48,-48 113,-129 298,-118 l -1,4 c 0,0 -95,-11 -173,25 -58,26 -120,90 -120,90 l -3,-2 z"
     class="fil0" /><path
     style="fill:#000000;fill-rule:nonzero"
     inkscape:connector-curvature="0"
     id="path5270"
     d="m 1635,2069 c 32,-37 135,-140 299,-108 l -3,4 c 0,0 -83,-15 -146,8 -63,23 -103,51 -151,103 v -7 z"
     class="fil0" /><path
     style="fill:#000000;fill-rule:nonzero"
     inkscape:connector-curvature="0"
     id="path5272"
     d="m 1568,1966 c 111,-31 366,-120 438,-142 l 7,3 c 0,0 -272,97 -446,146 z"
     class="fil0" /><path
     style="fill:#000000;fill-rule:nonzero"
     inkscape:connector-curvature="0"
     id="path5274"
     d="m 1048,1932 c 39,12 165,53 241,59 l -1,6 c 0,0 -108,-10 -242,-58 l 1,-8 z"
     class="fil0" /><path
     style="fill:#000000;fill-rule:nonzero;stroke:#000000;stroke-opacity:1"
     inkscape:connector-curvature="0"
     id="path5276"
     d="m 1870,1277 c 94,-65 206,-77 237,-76 v -3 c 0,0 -122,-5 -236,74 v 6 z"
     class="fil0" /><path
     style="fill:#000000;fill-rule:nonzero"
     inkscape:connector-curvature="0"
     id="path5278"
     d="m 2023,1741 c -9,7 -21,12 -32,14 -38,5 -81,6 -81,6 -10,0 -20,-1 -27,-4 -5,-2 -22,-10 -19,-32 2,-17 24,-30 40,-37 0,0 1,0 2,-1 0,0 0,0 0,0 53,-21 139,-30 139,11 0,17 -10,32 -23,42 z m 3,-76 c -25,-9 -83,4 -84,4 -15,3 -33,11 -35,11 -10,4 -20,9 -27,14 -22,15 -45,69 30,70 26,2 83,-3 83,-3 21,-5 40,-15 53,-34 14,-21 12,-51 -20,-62 z"
     class="fil0" /><path
     style="fill:#ffffff;fill-rule:nonzero"
     inkscape:connector-curvature="0"
     id="path5280"
     d="m 875,2192 c -5,-6 -18,-7 -25,-11 -16,-8 -28,-23 -38,-37 -16,-23 -36,-33 -61,-39 21,-12 47,-17 68,-31 10,-7 39,-46 19,-54 -5,-2 -11,2 -15,5 -5,4 -8,11 -13,15 -14,12 -38,7 -55,6 -15,-1 -29,3 -40,11 -3,-9 -4,-18 -4,-28 1,-21 20,-28 33,-40 9,-9 32,-59 5,-60 -5,0 -9,1 -12,5 -3,3 -3,8 -4,12 -2,18 -21,24 -36,26 -4,1 -8,2 -11,3 -1,-1 -3,-2 -4,-3 -12,-10 -27,-13 -42,-15 -1,-12 -2,-23 -7,-33 4,1 8,1 12,2 19,3 38,4 57,1 28,-5 42,-30 17,-34 -17,-3 -29,8 -61,-7 -16,-7 -29,-18 -44,-26 10,-6 30,-5 40,-7 12,-3 22,-6 35,-14 7,-4 22,-15 21,-28 0,-8 -8,-13 -15,-11 -11,3 -22,11 -33,13 -23,4 -44,-4 -66,-6 -21,-2 -39,3 -56,11 1,-25 17,-43 23,-66 4,-18 2,-34 -5,-50 -3,-7 -11,-20 -21,-16 -13,6 -6,24 -8,35 -3,26 -35,42 -53,57 -9,8 -17,16 -23,26 -7,-6 -13,-13 -18,-20 -9,-16 1,-35 2,-52 1,-19 -14,-62 -40,-54 -22,7 2,28 1,43 -1,22 -23,36 -29,56 -4,13 0,25 7,35 -13,-3 -27,-6 -39,-15 -19,-14 -28,-32 -53,-34 -12,-1 -25,3 -34,12 -10,10 -1,18 10,19 29,3 37,23 50,46 8,15 19,30 33,41 -8,5 -15,9 -23,14 -8,4 -16,6 -24,7 11,-14 20,-30 5,-35 -6,-2 -12,5 -14,9 -7,10 -15,17 -24,22 -10,-4 -18,-10 -28,-14 -8,-3 -16,-4 -20,5 -3,7 1,16 6,23 -21,7 -39,17 -44,41 -2,-2 -5,-3 -7,-5 -16,-11 -38,-35 -31,-57 3,-9 21,-19 17,-26 -14,-23 -47,30 -52,47 -9,30 -2,62 11,89 -21,-3 -41,-5 -59,-20 -10,-8 -14,-20 -15,-32 -1,-6 0,-22 -8,-25 -10,-4 -15,6 -17,14 -8,37 13,86 38,112 0,0 1,1 1,1 -9,5 -17,11 -25,22 -9,13 -13,30 -22,43 -3,5 -7,8 -11,10 v 27 c 3,-1 5,-1 7,-2 13,-4 25,-13 35,-22 5,-5 12,-10 19,-15 -3,7 -4,15 -4,23 -1,24 17,43 25,64 5,12 3,26 -1,38 -1,3 -6,11 -4,15 5,8 16,4 22,-1 11,-9 20,-22 24,-36 7,26 20,50 37,70 -2,3 -4,5 -5,8 h 493 c 5,-4 10,-8 14,-13 4,-4 8,-8 11,-13 6,8 13,16 18,26 h 32 c -1,-4 -1,-9 -2,-13 -6,-27 -20,-41 -14,-70 24,9 47,24 51,51 1,10 2,21 6,32 h 35 c -2,-5 -4,-11 -6,-15 -6,-18 3,-41 1,-60 -1,-15 -7,-27 -16,-38 12,1 33,21 42,25 13,5 24,7 38,7 10,0 27,-6 17,-19 z"
     class="fil1" /><path
     style="fill:#000000;fill-rule:nonzero"
     inkscape:connector-curvature="0"
     id="path5282"
     d="m 187,2041 c 2,-1 4,-2 6,-3 0,0 0,0 0,0 10,-5 19,-8 26,-8 3,0 5,1 6,2 2,3 -7,13 -24,22 -10,5 -20,8 -26,8 -3,0 -5,-1 -6,-2 -1,-3 5,-11 18,-19 z m -12,24 c 7,0 18,-3 28,-8 16,-8 29,-20 26,-27 0,-1 -1,-2 -2,-2 -1,-1 -4,-2 -7,-2 0,0 0,0 0,0 -7,0 -18,3 -28,8 0,0 0,0 0,0 -2,1 -4,2 -7,4 -12,8 -22,17 -19,23 1,2 3,4 9,4 z"
     class="fil0" /><path
     style="fill:#000000;fill-rule:nonzero"
     inkscape:connector-curvature="0"
     id="path5284"
     d="m 699,2128 c 0,4 -2,7 -4,8 0,0 0,0 0,0 -1,1 -3,1 -4,1 -7,0 -16,-7 -22,-16 -7,-11 -8,-23 -3,-29 0,-1 1,-1 2,-1 1,-1 3,-1 4,-1 1,0 1,0 2,0 6,1 14,7 20,16 4,6 6,13 6,19 0,1 0,2 0,3 z m -28,-42 c -1,0 -2,0 -2,0 -1,0 -3,1 -4,1 -1,1 -2,1 -3,2 -6,7 -5,20 3,33 7,11 17,18 25,18 2,0 4,-1 5,-1 0,0 1,0 1,0 2,-1 3,-3 5,-5 1,-3 2,-6 2,-10 0,-6 -3,-14 -7,-21 -7,-11 -17,-18 -25,-18 z"
     class="fil0" /><path
     style="fill:#000000;fill-rule:nonzero;stroke:#000000;stroke-opacity:1;stroke-width:2.04196958;stroke-miterlimit:4;stroke-dasharray:none"
     inkscape:connector-curvature="0"
     id="path5286"
     d="m 850,2207 c -20,-1 -36,-13 -51,-24 -6,-4 -15,-8 -22,-6 -14,-16 -35,-28 -54,-39 0,0 0,0 -1,0 0,-2 0,-4 0,-5 6,-9 16,-19 25,-24 22,6 40,14 55,32 15,18 27,36 49,46 3,1 6,2 9,3 13,4 23,19 -10,17 z m -681,85 h 6 c -9,-10 -22,-29 -25,-34 -13,-21 -22,-46 -25,-71 0,-3 -1,-6 -1,-9 -1,-15 0,-30 2,-44 3,-7 7,-14 12,-21 4,-5 8,-10 13,-14 -6,10 -11,20 -12,32 -2,24 17,44 34,59 7,6 16,12 18,22 3,11 -3,19 -4,29 -1,11 11,10 18,8 12,-3 21,-13 26,-23 11,-20 -3,-40 -13,-57 -12,-20 -3,-36 8,-54 2,-3 4,-7 5,-10 10,11 23,18 38,23 22,7 47,8 54,33 3,12 -17,37 -3,45 5,3 20,-4 28,-18 21,-35 12,-72 0,-97 -5,-11 -13,-19 -22,-26 16,-11 48,15 63,22 2,1 5,2 7,3 8,12 15,26 20,39 12,36 19,81 14,122 0,2 -1,3 -1,5 -1,8 -7,27 -11,37 h 7 c 2,-6 6,-15 7,-18 2,-5 3,-11 4,-16 2,12 5,23 10,34 h 8 c -5,-11 -9,-25 -11,-36 0,-2 0,-3 -1,-5 -4,-38 9,-80 26,-110 2,1 4,2 6,3 14,6 27,4 41,-1 10,-3 19,-6 29,-9 8,-2 16,-3 23,-2 3,0 5,0 8,1 7,1 14,2 21,4 1,0 1,0 2,0 -21,21 -26,42 -17,71 6,22 6,43 -16,55 -6,3 -14,5 -15,12 0,0 -1,0 -1,0 0,1 0,3 0,4 0,0 1,0 1,0 0,0 0,0 0,0 3,11 16,10 28,7 0,0 0,0 0,0 3,-1 7,-2 10,-3 0,0 0,0 0,0 5,-2 10,-4 12,-6 22,-14 29,-36 36,-59 4,10 10,19 15,27 4,6 9,12 14,18 -4,6 -9,11 -13,16 -5,5 -10,10 -16,14 h 9 c 5,-4 10,-8 14,-13 4,-4 8,-8 11,-13 6,8 13,16 18,26 h 7 c -8,-24 -25,-34 -37,-51 -13,-18 -20,-34 -18,-57 1,-12 9,-23 16,-33 11,11 24,18 36,18 2,0 4,0 6,-1 2,0 4,-1 6,-2 1,13 -2,25 -4,37 0,1 -1,2 -1,4 -1,4 -2,9 -2,13 -1,7 -1,15 0,23 4,17 14,32 18,49 h 6 c -1,-4 -1,-9 -2,-13 -6,-27 -20,-41 -14,-70 24,9 47,24 51,51 1,10 2,21 6,32 h 5 c -4,-10 -6,-22 -8,-32 -4,-20 -12,-40 -54,-57 3,-14 8,-27 6,-42 4,-4 7,-10 8,-17 26,15 54,29 64,60 6,19 2,37 0,56 -1,8 3,20 6,24 1,2 3,4 3,7 h 6 c -2,-5 -4,-11 -6,-15 -6,-18 3,-41 1,-60 -1,-15 -7,-27 -16,-38 12,1 33,21 42,25 13,5 24,7 38,7 10,0 27,-6 17,-19 -5,-6 -18,-7 -25,-11 -16,-8 -28,-23 -38,-37 -16,-23 -36,-33 -61,-39 21,-12 47,-17 68,-31 10,-7 39,-46 19,-54 -5,-2 -11,2 -15,5 -5,4 -8,11 -13,15 -14,12 -38,7 -55,6 -15,-1 -29,3 -40,11 -3,-9 -4,-18 -4,-28 1,-21 20,-28 33,-40 9,-9 32,-59 5,-60 -5,0 -9,1 -12,5 -3,3 -3,8 -4,12 -2,18 -21,24 -36,26 -4,1 -8,2 -11,3 -1,-1 -3,-2 -4,-3 -12,-10 -27,-13 -42,-15 -1,-12 -2,-23 -7,-33 4,1 8,1 12,2 19,3 38,4 57,1 28,-5 42,-30 17,-34 -17,-3 -29,8 -61,-7 -16,-7 -29,-18 -44,-26 10,-6 30,-5 40,-7 12,-3 22,-6 35,-14 7,-4 22,-15 21,-28 0,-8 -8,-13 -15,-11 -11,3 -22,11 -33,13 -23,4 -44,-4 -66,-6 -21,-2 -39,3 -56,11 1,-25 17,-43 23,-66 4,-18 2,-34 -5,-50 -3,-7 -11,-20 -21,-16 -13,6 -6,24 -8,35 -3,26 -35,42 -53,57 -9,8 -17,16 -23,26 -7,-6 -13,-13 -18,-20 -9,-16 1,-35 2,-52 1,-19 -14,-62 -40,-54 -22,7 2,28 1,43 -1,22 -23,36 -29,56 -4,13 0,25 7,35 -13,-3 -27,-6 -39,-15 -19,-14 -28,-32 -53,-34 -12,-1 -25,3 -34,12 -10,10 -1,18 10,19 29,3 37,23 50,46 8,15 19,30 33,41 -8,5 -15,9 -23,14 -8,4 -16,6 -24,7 11,-14 20,-30 5,-35 -6,-2 -12,5 -14,9 -7,10 -15,17 -24,22 -10,-4 -18,-10 -28,-14 -8,-3 -16,-4 -20,5 -3,7 1,16 6,23 -21,7 -39,17 -44,41 -2,-2 -5,-3 -7,-5 -16,-11 -38,-35 -31,-57 3,-9 21,-19 17,-26 -14,-23 -47,30 -52,47 -9,30 -2,62 11,89 -21,-3 -41,-5 -59,-20 -10,-8 -14,-20 -15,-32 -1,-6 0,-22 -8,-25 -10,-4 -15,6 -17,14 -8,37 13,86 38,112 0,0 1,1 1,1 -9,5 -17,11 -25,22 -9,13 -13,30 -22,43 -3,5 -7,8 -11,10 v 5 c 10,-5 17,-12 22,-22 7,-12 11,-25 18,-36 6,-9 13,-15 21,-19 9,8 22,16 36,22 -14,8 -26,19 -33,33 -1,0 -2,1 -3,1 -9,4 -17,12 -24,19 -11,10 -23,18 -37,22 v 4 c 3,-1 5,-1 7,-2 13,-4 25,-13 35,-22 5,-5 12,-10 19,-15 -3,7 -4,15 -4,23 -1,24 17,43 25,64 5,12 3,26 -1,38 -1,3 -6,11 -4,15 5,8 16,4 22,-1 11,-9 20,-22 24,-36 6,24 29,60 46,78 z m 537,-130 c 0,0 0,0 -1,0 -2,1 -3,2 -5,2 -2,1 -4,1 -6,1 -11,0 -23,-7 -34,-18 -1,-1 -1,-1 -2,-2 -1,-1 -2,-3 -3,-4 -1,-1 -2,-2 -2,-3 -1,-2 -2,-3 -3,-5 -8,-12 -12,-26 -11,-38 0,-3 0,-5 1,-7 0,-2 1,-4 1,-5 1,-2 2,-4 3,-6 1,-2 3,-4 5,-6 1,-1 2,-1 2,-2 1,0 1,-1 2,-1 2,-1 3,-1 5,-2 2,0 3,-1 5,-1 8,0 17,4 26,10 1,1 2,1 2,2 1,0 1,1 2,1 1,0 1,1 2,1 5,5 9,10 13,17 6,10 10,21 11,31 0,1 0,2 0,2 0,2 0,4 0,6 0,1 0,3 0,4 -1,7 -4,13 -8,17 -1,1 -2,1 -2,2 0,0 -1,1 -1,1 z m -71,43 c -6,27 -9,48 -31,65 -4,3 -27,18 -42,11 -7,-3 -7,-9 7,-14 7,-3 15,-9 19,-14 11,-13 5,-34 1,-49 -8,-28 -2,-46 18,-66 15,4 29,7 44,6 1,1 2,2 3,3 0,0 0,0 -1,1 -8,12 -16,23 -19,37 -1,7 -1,13 1,20 z m -56,-79 c -3,0 -5,-1 -8,-1 -2,0 -4,0 -6,0 -15,1 -29,6 -44,11 -8,3 -16,5 -24,6 -12,1 -37,-6 -33,-17 3,-7 24,6 60,-15 18,-11 51,-39 111,-22 0,2 -1,5 -1,8 0,13 4,27 12,40 1,1 1,2 2,3 -23,1 -46,-10 -69,-13 z m -138,71 c -2,-24 -8,-49 -15,-71 -4,-12 -10,-24 -16,-34 9,2 19,1 29,-1 22,-5 23,-31 -2,-29 -45,4 -58,-51 -95,-69 -3,-1 -6,-3 -9,-4 0,-1 1,-2 1,-4 4,0 7,0 11,0 13,0 27,-3 39,-8 11,-4 23,-8 29,-19 2,-5 0,-12 -6,-13 -11,-2 -22,5 -32,8 -10,3 -19,3 -28,2 1,-3 3,-6 5,-9 1,-2 2,-4 3,-5 21,-36 53,-63 95,-65 1,0 3,0 4,0 2,0 5,0 8,0 64,4 99,63 113,124 0,1 1,2 1,4 2,8 3,16 4,23 -3,-1 -5,-1 -8,-2 -11,-4 -35,-10 -43,-48 -3,-14 -3,-21 -12,-20 -8,0 -17,9 -18,28 -1,13 3,28 5,34 7,19 24,30 38,43 3,2 7,6 10,9 -28,10 -54,27 -72,48 -6,-1 -16,-3 -19,5 -2,5 2,10 5,14 -11,18 -19,38 -24,60 z m -51,-117 c -11,-5 -19,-13 -31,-18 -11,-5 -26,-9 -37,-1 -1,-1 -2,-1 -3,-2 -3,-2 -5,-3 -8,-4 -18,-9 -38,-14 -55,-20 4,-7 5,-12 3,-17 0,0 -1,-1 -1,-1 -1,-1 -3,-3 -4,-4 2,-1 3,-3 5,-4 1,-1 2,-1 2,-2 2,-1 4,-3 6,-4 3,-2 7,-3 10,-5 4,-1 7,-3 11,-3 11,-3 22,-3 33,0 2,1 5,1 7,2 13,4 26,12 36,24 16,19 39,44 66,44 15,0 22,3 15,16 -4,7 -30,10 -56,-1 z m -56,0 c 23,26 29,70 15,101 -6,13 -20,25 -26,18 -8,-11 19,-29 -2,-57 -1,-1 -2,-2 -3,-3 -11,-10 -28,-11 -41,-16 -17,-5 -31,-14 -41,-28 3,-12 1,-23 -5,-36 7,-5 14,-11 19,-16 2,-2 3,-3 4,-5 20,6 40,12 58,22 3,2 6,4 8,5 5,4 10,8 14,13 z m -105,16 c 0,1 0,2 -1,2 -1,3 -2,7 -4,10 -6,12 -15,22 -17,35 -3,14 6,27 13,38 11,18 13,38 -1,56 -8,10 -28,12 -23,-3 2,-6 5,-12 5,-18 0,-15 -13,-23 -23,-32 -17,-15 -29,-32 -30,-55 -1,-14 8,-27 16,-39 1,-1 2,-3 3,-4 2,0 4,-1 6,-1 12,-2 25,-7 38,-14 4,-2 9,-5 13,-7 5,11 7,21 5,31 z m -97,17 c -2,3 -4,6 -6,9 -2,3 -4,7 -5,10 -5,13 -6,26 -4,40 4,27 1,50 -17,71 -9,10 -17,8 -12,-4 3,-7 5,-14 5,-22 1,-19 -9,-35 -18,-50 -10,-19 -12,-40 -4,-60 1,-1 1,-3 2,-4 1,-1 1,-2 2,-3 6,-12 17,-20 28,-26 2,-1 5,-2 7,-3 10,-4 22,-6 33,-8 -3,5 -4,9 -3,13 0,1 0,2 1,3 0,0 0,0 0,0 0,0 0,0 0,1 1,2 2,3 4,4 4,2 9,3 15,3 0,0 1,0 1,0 0,1 -1,1 -1,2 -10,7 -19,15 -27,25 z m -78,-81 c -21,-25 -34,-64 -31,-97 1,-13 12,-12 12,-3 1,11 0,23 4,33 6,15 22,24 37,29 14,5 29,6 43,8 3,0 6,1 9,1 3,0 5,1 8,2 16,4 30,13 41,25 -12,7 -22,15 -29,22 -2,2 -3,4 -4,5 0,0 0,0 0,0 -14,1 -28,5 -41,10 -13,-5 -25,-13 -35,-21 -1,-1 -2,-2 -3,-3 -5,-4 -9,-8 -12,-12 z m 56,-108 c 2,-19 9,-38 22,-53 4,-7 19,-18 22,-8 2,6 -15,11 -19,29 -7,26 18,47 37,61 13,9 26,18 36,32 5,8 8,17 11,26 0,1 0,2 1,3 -9,2 -19,6 -29,11 -1,0 -1,1 -2,1 -1,1 -2,1 -3,2 -11,-11 -23,-20 -38,-24 -7,-2 -13,-3 -20,-4 -13,-23 -19,-47 -17,-74 z m 115,-12 c 3,-1 5,-2 8,-2 10,-3 20,-5 29,-9 1,0 1,-1 2,-1 3,-1 5,-3 8,-4 5,-3 10,-7 14,-11 6,-5 19,-25 15,-4 -2,7 -5,13 -9,18 -2,2 -3,4 -5,5 -10,9 -23,16 -32,25 -2,2 -3,3 -4,5 -2,3 -4,7 -6,11 0,0 0,0 0,1 -1,2 -1,4 -2,7 -2,10 -2,20 1,31 2,7 6,14 8,21 0,1 1,3 1,4 -1,1 -2,2 -4,3 -2,0 -5,-1 -8,-1 -2,0 -3,0 -5,0 -3,0 -6,1 -9,1 0,-1 -1,-2 -1,-3 -2,-10 -6,-19 -11,-27 -7,-11 -18,-20 -29,-28 3,-26 20,-35 40,-41 z m 22,-19 c 3,2 6,3 10,4 -6,3 -13,5 -20,7 -2,1 -5,1 -7,2 -2,-3 -4,-7 -5,-11 -6,-15 17,-5 22,-2 z m 93,61 c -10,-2 -19,-6 -29,-9 3,0 6,0 9,0 7,0 17,-1 25,1 -2,3 -3,6 -5,9 z m -84,67 c 0,0 0,0 0,0 2,4 0,9 -4,15 -1,1 -2,2 -2,3 -1,1 -2,2 -3,3 -6,6 -13,12 -21,17 -2,1 -3,1 -3,2 -4,3 -9,5 -13,7 -7,3 -13,6 -20,9 -7,2 -13,4 -19,5 0,0 -1,0 -1,0 -3,0 -5,1 -7,1 -1,0 -2,0 -4,0 -6,0 -10,-1 -13,-3 -1,0 -1,-1 -2,-1 -1,-1 -1,-1 -1,-2 0,-1 0,-1 -1,-2 0,0 0,-1 0,-1 0,-5 3,-11 10,-19 4,-4 9,-9 15,-13 4,-3 9,-6 14,-9 2,-1 4,-2 7,-4 1,0 1,-1 2,-1 5,-2 9,-5 14,-6 5,-2 10,-4 15,-5 3,-1 5,-1 8,-2 5,-1 9,-1 13,-1 1,0 3,0 4,0 3,0 5,1 7,2 2,1 4,2 5,4 z m 70,-35 c 0,1 0,1 -1,2 -3,-1 -7,-1 -10,-1 4,0 7,-1 11,-1 z m -18,-3 c -6,1 -12,3 -17,6 -11,3 -22,8 -32,14 -2,-7 -5,-15 -8,-22 -5,-14 -3,-26 2,-36 4,-2 9,-3 13,-3 8,-1 17,1 25,4 15,4 30,11 43,14 1,0 1,0 2,0 2,0 4,1 6,1 9,1 17,-1 25,-2 7,-1 44,-17 35,2 -6,14 -39,18 -52,20 -6,1 -11,1 -17,1 -2,0 -5,0 -7,0 -7,0 -13,0 -20,1 z m 3,-81 c 14,-3 27,-12 39,-19 12,8 25,12 41,10 -17,12 -31,29 -42,47 -9,-1 -20,-1 -28,-1 -9,0 -18,0 -27,0 -7,-2 -14,-2 -20,-2 -4,-1 -8,-2 -12,-4 4,-4 9,-9 14,-12 3,-2 10,-9 17,-17 6,0 12,-1 18,-3 z m 7,-68 c -10,-18 -22,-45 -47,-45 -16,2 -19,-3 -11,-16 8,-6 16,-8 26,-6 14,1 24,12 33,21 11,12 24,20 39,25 16,6 34,6 51,11 13,4 24,12 34,21 0,9 1,18 4,27 -19,1 -36,8 -51,18 -14,1 -30,-3 -40,-10 -2,-1 -3,-2 -5,-4 -14,-11 -25,-28 -33,-42 z m 61,-64 c 5,-15 19,-27 25,-42 3,-8 3,-16 0,-24 -2,-6 -20,-34 4,-20 31,18 21,57 16,84 -3,16 12,32 26,42 -4,8 -7,17 -8,26 -10,-8 -20,-14 -33,-17 -7,-2 -14,-4 -21,-5 -12,-13 -15,-27 -9,-44 z m 78,44 c 1,-2 2,-3 3,-5 6,-11 15,-20 26,-29 21,-17 46,-23 49,-61 0,-9 -5,-24 3,-28 12,-7 20,22 21,29 3,19 -3,40 -11,57 -8,16 -14,28 -15,45 0,1 0,1 0,2 0,1 0,2 0,3 0,15 2,29 -4,43 -7,5 -14,11 -20,17 -11,-6 -23,-11 -37,-14 -6,-1 -13,-2 -19,-2 -2,-7 -4,-13 -5,-19 0,-3 0,-7 0,-10 0,-10 3,-20 7,-28 z m 106,1 c 20,-6 39,0 59,3 19,3 39,3 58,-4 2,-1 6,-3 11,-5 17,-6 19,11 7,20 -4,3 -27,24 -69,25 -5,0 -12,2 -17,5 -4,-2 -7,-3 -11,-4 -22,-6 -43,-2 -61,9 3,-13 2,-26 2,-40 0,0 0,0 0,0 7,-3 14,-7 22,-9 z m 66,61 c 15,11 31,19 50,22 8,2 45,-3 48,4 7,20 -41,24 -59,22 -12,-1 -24,-4 -36,-6 -8,-12 -30,-20 -40,-8 -2,3 -3,8 -2,10 -7,3 -14,6 -19,11 -2,1 -3,3 -5,4 -2,2 -4,3 -5,5 -7,-12 -14,-23 -24,-33 -4,-4 -7,-7 -11,-11 -3,-3 -7,-5 -10,-8 60,-62 108,-19 114,-15 z m -22,157 c -7,-2 -13,-3 -20,-4 -1,-9 -3,-18 -4,-27 5,-1 9,-2 14,-3 0,1 0,3 -1,4 -1,12 3,22 11,30 z m -33,-98 c 6,-5 12,-8 18,-10 0,0 1,1 1,1 8,10 12,13 12,26 -12,-3 -22,-9 -32,-18 z m 16,20 c 5,2 10,4 15,4 -1,12 -6,24 -8,36 0,0 0,0 -1,0 -5,1 -10,2 -15,3 -4,-18 -10,-35 -18,-51 1,-1 2,-3 3,-5 1,-1 2,-2 3,-3 6,6 13,12 21,15 z m -28,130 c -8,3 -16,7 -23,12 -15,10 -32,22 -51,23 18,-21 42,-36 68,-45 3,3 5,7 6,10 z m -2,-17 c -6,-6 -13,-11 -18,-16 -15,-13 -31,-24 -36,-45 -5,-23 -2,-33 0,-36 5,-14 15,-10 17,4 8,41 31,49 44,54 4,2 8,3 13,4 3,1 5,1 8,2 7,1 14,3 21,4 17,5 30,15 41,28 0,0 0,0 0,0 -2,1 -3,2 -4,3 -2,2 -3,4 -5,6 -1,2 -2,4 -3,6 -17,-4 -33,-6 -49,-5 -3,0 -5,1 -8,1 -4,1 -8,1 -11,2 -1,-3 -3,-7 -6,-10 -1,-1 -2,-3 -4,-4 z m 79,-81 c 0,1 1,3 2,4 2,5 4,9 7,13 3,4 7,7 11,10 1,0 1,1 2,1 6,4 13,8 19,14 10,11 10,28 10,43 -8,-6 -17,-9 -26,-9 -2,0 -4,0 -6,1 -9,-11 -19,-19 -32,-26 -1,0 -1,-1 -2,-1 -42,-21 -14,-48 -12,-82 1,-9 -4,-23 -13,-33 -12,-13 5,-17 12,-14 21,9 23,35 24,47 0,1 0,3 0,5 0,3 0,5 0,8 0,6 2,13 3,18 z m 24,9 c -1,3 -3,6 -3,10 -4,-4 -7,-8 -10,-13 5,1 9,2 13,4 z m -18,-34 c 14,2 27,7 37,16 -7,3 -12,8 -16,13 -4,-2 -9,-3 -14,-4 -1,0 -3,0 -4,0 -3,-7 -3,-16 -4,-26 1,0 1,0 2,0 z m 47,16 c 4,-2 9,-3 14,-4 8,-1 17,-4 24,-9 6,-4 10,-8 13,-15 2,-4 2,-10 3,-15 3,-10 11,10 11,12 3,15 -6,31 -16,42 -8,8 -21,13 -27,22 -9,14 -9,35 -2,50 0,0 0,0 0,0 -5,4 -10,9 -14,15 0,-15 1,-33 -9,-46 -6,-9 -14,-14 -22,-20 0,-5 1,-9 2,-13 1,-2 1,-3 2,-5 3,-5 8,-10 14,-13 2,-1 4,-2 7,-3 z m 68,73 c 12,1 24,2 37,0 6,-1 14,-3 19,-7 3,-2 6,-5 9,-8 6,-7 16,-14 13,3 -6,35 -40,45 -70,56 -8,3 -16,7 -23,11 -1,1 -2,1 -4,2 -7,5 -14,11 -20,18 -2,-9 -5,-19 -11,-28 -4,-6 -8,-11 -12,-16 0,0 1,0 1,-1 15,-21 32,-33 59,-31 z"
     class="fil0" /><path
     style="fill:#000000;fill-rule:nonzero"
     inkscape:connector-curvature="0"
     id="path5288"
     d="m 256,1937 c 1,0 1,1 2,1 -1,0 -2,1 -3,1 0,-1 1,-1 1,-2 z"
     class="fil0" /><rect
     style="fill:none;fill-opacity:1;stroke:#000000;stroke-width:5.22499514;stroke-linecap:round;stroke-miterlimit:4;stroke-dasharray:none;stroke-opacity:1"
     id="rect5470"
     width="2496.8469"
     height="2287.9016"
     x="1.5697781"
     y="2.844372" /></svg>