<?xml version="1.0" encoding="UTF-8" standalone="no"?>
<!-- Created with Inkscape (http://www.inkscape.org/) -->

<svg
   version="1.1"
   id="svg2"
   width="301.85333"
   height="477.37332"
   viewBox="0 0 301.85333 477.37332"
   sodipodi:docname="i3eu_v9u5_230629.eps"
   xmlns:inkscape="http://www.inkscape.org/namespaces/inkscape"
   xmlns:sodipodi="http://sodipodi.sourceforge.net/DTD/sodipodi-0.dtd"
   xmlns="http://www.w3.org/2000/svg"
   xmlns:svg="http://www.w3.org/2000/svg">
  <defs
     id="defs6">
    <clipPath
       clipPathUnits="userSpaceOnUse"
       id="clipPath92">
      <path
         d="m 744,2256.46 c 1.777,8.31 4.336,16.36 7.449,24.07 4.406,6 8.34,12.24 11.711,17.54 0.742,1.16 1.485,2.33 2.227,3.49 5.652,7.35 11.433,14.44 18.301,20.51 23.796,21.01 53.308,26.98 81.152,15.22 27.148,-11.46 47.637,-38.5 61.473,-68.81 15.234,-33.39 22.902,-72.72 25.332,-110.75 1.378,-21.61 1.074,-43.21 0.957,-64.86 -0.047,-9.77 0.058,-19.59 -0.332,-29.35 -0.106,-2.43 -0.293,-4.83 -0.516,-7.22 -15.324,5.2 -31.152,6.48 -46.973,7.05 -11.152,0.4 -22.297,0.8 -33.437,1.09 -9.492,0.57 -18.985,1.11 -28.477,1.97 -12.578,1.13 -25.402,1.33 -37.609,5.65 l -1.063,-0.05 c -8.488,3.29 -16.582,8.05 -23.937,15.08 -19.551,18.66 -29.07,47.79 -34.61,76.7 -5.632,29.41 -7.949,63.16 -1.648,92.67 z"
         id="path90" />
    </clipPath>
  </defs>
  <sodipodi:namedview
     id="namedview4"
     pagecolor="#ffffff"
     bordercolor="#000000"
     borderopacity="0.25"
     inkscape:showpageshadow="2"
     inkscape:pageopacity="0.0"
     inkscape:pagecheckerboard="0"
     inkscape:deskcolor="#d1d1d1" />
  <g
     id="g8"
     inkscape:groupmode="layer"
     inkscape:label="ink_ext_XXXXXX"
     transform="matrix(1.3333333,0,0,-1.3333333,0,477.37333)">
    <g
       id="g10"
       transform="scale(0.1)">
      <path
         d="m 1009.17,2779.69 c -7.12,13.77 -15.787,26.7 -24.857,39.25 -18.528,25.64 -37.942,50.45 -55.333,76.92 -9.472,14.41 -18.496,29.16 -26.261,44.58 -7.293,14.47 -15.313,30.21 -17.391,46.45 -2.031,15.84 4.024,32.35 9.59,46.91 5.605,14.66 11.727,29.19 17.84,43.64 6.992,16.54 14.836,32.7 21.504,49.37 5.441,13.6 12.004,27.46 13.633,42.17 1.418,12.73 -2.176,24.53 -11.817,33.17 -8.457,7.58 -20.644,11.57 -31.883,8.99 -26.64,-6.12 -38.234,-42.16 -46.093,-64.47 -5.461,-15.51 -10.45,-31.54 -14.375,-47.51 -0.84,-3.43 -1.282,-6.93 -1.973,-10.39 -0.344,-1.7 -1.867,-11.57 -4.309,-11.96 -1.531,-0.24 -4.726,6.41 -5.398,7.6 -2.277,4.04 -4.199,8.27 -6.457,12.32 -8.281,14.85 -17.246,29.36 -25.762,44.08 -16.629,28.78 -33.379,57.44 -50.515,85.92 -16.047,26.68 -33.145,56.55 -31.524,88.75 1.473,29.17 13.242,56.72 21.68,84.33 5.086,16.64 9.804,33.49 12.176,50.76 2.226,16.22 2.902,34.59 -5.196,49.41 -8.34,15.27 -26.738,21.47 -43.379,19.56 -14.629,-1.69 -24.91,-11.93 -30.281,-25.15 -6.457,-15.91 -7.168,-34.08 -7.453,-51.01 -0.301,-17.23 0.695,-34.51 -0.223,-51.72 -0.195,-3.67 -0.48,-7.4 -1.093,-11.05 -14.2,14.43 -20.481,35.87 -31.926,52.24 -10.879,15.57 -24.746,37.58 -44.961,41.44 -19.746,3.76 -37.528,-11.91 -45.301,-28.71 -4.152,-8.96 -6.184,-19.37 -3.887,-29.12 2.91,-12.44 12.071,-22.08 19.707,-31.84 9.051,-11.57 16.883,-24.03 25,-36.26 8.457,-12.75 17.246,-25.26 25.555,-38.1 8.379,-12.96 16.523,-26.06 24.609,-39.2 3.868,-6.29 7.891,-12.52 11.582,-18.92 1.778,-3.09 5.715,-9.03 4.446,-12.9 -1.992,-6.07 -19.739,-1.4 -23.614,-0.65 -14.355,2.76 -28.429,6.95 -42.968,8.75 -19.094,2.36 -50.723,0.35 -58.242,-21.78 -6.211,-18.31 10.886,-33.05 26.003,-39.15 25.469,-10.27 53.606,-9.73 80.207,-15 24.961,-4.95 46.993,-15.88 61.446,-37.43 16.601,-24.76 32.402,-50.16 48.679,-75.14 16.36,-25.09 31.438,-50.72 45.782,-77 7.636,-13.97 15.566,-27.77 23.593,-41.52 3.079,-5.26 6.27,-10.46 9.239,-15.78 1.203,-2.16 2.472,-4.44 3.058,-6.88 1.063,-4.39 -1.953,-2.91 -5.058,-1.97 -12.949,3.92 -26.223,7.11 -39.434,10.1 -13.234,3 -27.023,5.34 -40.617,3.84 -14.59,-1.63 -36.844,-14.01 -32.969,-31.83 2.266,-10.42 13.332,-16.11 22.297,-19.83 11.414,-4.74 23.699,-6.87 35.859,-8.63 13.692,-1.99 27.559,-3.36 40.918,-7.12 11.551,-3.26 22.743,-8.58 33.145,-14.54 10.379,-5.93 20.605,-13.29 26.816,-23.75 7.391,-12.47 12.598,-26.63 17.325,-40.28 9.402,-27.19 15.789,-55.31 23.242,-83.07 3.23,-12.06 6.844,-23.99 10.887,-35.8 l -0.196,-2.44 0.949,-2.54 c 0.469,-1.27 1.602,-2.26 3.055,-2.14 12.395,0.97 22.832,9.41 32.168,16.91 8.137,6.52 16.594,12.58 24.836,18.98 16.941,13.16 37.41,30 42.2,52.06 2.72,12.5 -2.63,23.19 -8.28,34.08"
         style="fill:#000000;fill-opacity:1;fill-rule:nonzero;stroke:none"
         id="path12" />
      <path
         d="m 1000.07,2727.52 c -13.004,-17.97 -32.125,-29.57 -49.109,-43.23 -7.723,-6.22 -17.449,-16.07 -27.793,-18.03 -0.859,2.29 -3.23,2.47 -5.352,1.61 -15.671,51.33 -22.761,105.47 -46.738,154.01 -10.312,20.87 -31.043,31.82 -51.668,40.59 -23.82,10.13 -49.972,9.25 -74.777,15.33 -11.238,2.75 -26.512,7.11 -33.086,17.51 -5.684,9 0.547,18.34 8.359,23.42 10.832,7.04 24.153,6.71 36.516,5.17 15.019,-1.87 29.558,-6.4 44.246,-9.9 4.855,-1.17 9.492,-2.71 14.297,-4.04 3.555,-0.98 7.578,-1.58 10.754,0.78 6.855,5.1 0.594,15.11 -2.461,20.56 -14.621,26.04 -28.625,52.43 -43.176,78.51 -14.355,25.74 -30.742,50.31 -46.961,74.89 -7.93,12 -15.859,24.01 -23.574,36.14 -6.836,10.75 -12.981,21.98 -22.024,31.09 -17.293,17.43 -40.898,24.34 -64.578,27.89 -13.293,2 -26.711,3.15 -39.972,5.39 -12.461,2.1 -25.957,4.92 -36.883,11.56 -7.5,4.55 -14.504,11.86 -15.676,20.91 -1.258,9.68 5.52,16.44 13.957,19.8 27.742,11.04 57.676,-2.93 85.371,-6.8 7.059,-0.99 16.199,-2.07 22.274,2.65 5.695,4.44 4.726,11.4 2.16,17.33 -5.352,12.32 -13.879,23.73 -20.938,35.13 -7.949,12.8 -15.996,25.55 -24.289,38.14 -15.886,24.06 -31.445,48.86 -49.558,71.3 -7.825,9.69 -15.657,20.28 -15.02,33.36 0.516,10.45 5.203,20.82 12.274,28.49 36.543,39.64 73.234,-35.85 87.441,-61.3 5.117,-9.16 10.852,-18.15 19.055,-24.86 2.05,-1.68 5.398,0.74 6.093,2.73 4.442,12.72 3.582,27.44 3.543,40.69 -0.058,17.74 -0.554,35.57 1.328,53.25 1.418,13.39 3.946,30.73 15.098,39.85 11.438,9.37 31.777,5.79 42.481,-3.01 12.675,-10.41 14.054,-28.97 13.136,-44.14 -1.066,-17.54 -5.371,-34.73 -10.285,-51.53 -7.012,-23.96 -16.289,-47.34 -21.445,-71.82 -2.774,-13.15 -4.336,-26.67 -2.625,-40.08 1.785,-14 6.914,-27.48 12.832,-40.22 13.074,-28.14 30.976,-53.96 46.492,-80.78 8.43,-14.57 16.828,-29.17 25.274,-43.73 8.007,-13.83 16.699,-27.41 24.25,-41.49 1.96,-3.68 3.757,-7.45 5.808,-11.09 1.633,-2.9 3.684,-7.29 6.789,-9 7.285,-4 13.301,5.14 15.313,10.75 3.183,8.87 4.453,18.56 7.215,27.61 4.648,15.25 9.433,30.49 15.117,45.4 7.883,20.67 23.047,61.06 52.265,45.73 30.078,-15.77 12.141,-51.93 2.754,-75.07 -11.894,-29.3 -25.457,-57.88 -37.07,-87.32 -5.469,-13.86 -10.887,-28.72 -11.758,-43.73 -0.898,-15.36 5.188,-29.89 11.348,-43.61 13.176,-29.29 30.508,-56.08 48.722,-82.45 17.286,-25.06 37.11,-48.33 53.563,-73.98 3.809,-5.93 7.434,-12 10.741,-18.23 3.24,-6.12 6.98,-12.67 8.48,-19.48 2.27,-10.37 -2.59,-20.44 -8.53,-28.65"
         style="fill:#ffffff;fill-opacity:1;fill-rule:nonzero;stroke:none"
         id="path14" />
      <path
         d="m 1363.88,2752.33 c 4.8,-22.06 25.27,-38.89 42.21,-52.05 8.24,-6.4 16.7,-12.46 24.83,-18.99 9.34,-7.5 19.78,-15.93 32.17,-16.91 1.46,-0.11 2.58,0.87 3.06,2.15 l 0.94,2.53 -0.19,2.44 c 4.03,11.82 7.66,23.75 10.89,35.8 7.45,27.76 13.84,55.88 23.24,83.07 4.73,13.66 9.93,27.81 17.32,40.28 6.21,10.46 16.44,17.82 26.82,23.76 10.4,5.95 21.58,11.28 33.15,14.54 13.35,3.76 27.21,5.12 40.9,7.11 12.17,1.76 24.46,3.89 35.87,8.63 8.96,3.72 20.03,9.41 22.3,19.83 3.87,17.82 -18.38,30.2 -32.98,31.82 -13.58,1.52 -27.38,-0.83 -40.61,-3.82 -13.21,-3 -26.48,-6.19 -39.44,-10.11 -3.11,-0.93 -6.11,-2.41 -5.05,1.98 0.59,2.43 1.86,4.71 3.06,6.88 2.97,5.32 6.16,10.52 9.23,15.78 8.03,13.74 15.96,27.54 23.59,41.51 14.36,26.28 29.42,51.91 45.78,77.01 16.29,24.97 32.09,50.37 48.69,75.13 14.46,21.55 36.49,32.48 61.45,37.43 26.6,5.27 54.73,4.73 80.19,15 15.13,6.1 32.23,20.85 26.01,39.16 -7.51,22.12 -39.14,24.13 -58.23,21.77 -14.54,-1.8 -28.62,-5.98 -42.97,-8.75 -3.88,-0.75 -21.62,-5.42 -23.61,0.66 -1.27,3.87 2.65,9.8 4.44,12.89 3.69,6.4 7.71,12.64 11.58,18.93 8.08,13.14 16.23,26.24 24.61,39.19 8.31,12.84 17.09,25.36 25.55,38.1 8.12,12.23 15.94,24.69 25.01,36.26 7.63,9.76 16.78,19.4 19.7,31.84 2.29,9.75 0.27,20.16 -3.88,29.12 -7.78,16.8 -25.56,32.48 -45.31,28.71 -20.21,-3.86 -34.08,-25.87 -44.96,-41.44 -11.45,-16.37 -17.72,-37.8 -31.92,-52.23 -0.62,3.64 -0.91,7.37 -1.1,11.04 -0.91,17.22 0.07,34.49 -0.22,51.72 -0.29,16.93 -1,35.11 -7.45,51.01 -5.37,13.22 -15.65,23.46 -30.28,25.15 -16.64,1.92 -35.04,-4.29 -43.38,-19.56 -8.1,-14.82 -7.42,-33.18 -5.2,-49.41 2.38,-17.27 7.09,-34.11 12.17,-50.76 8.45,-27.61 20.21,-55.16 21.68,-84.33 1.63,-32.2 -15.47,-62.06 -31.52,-88.74 -17.13,-28.48 -33.88,-57.15 -50.51,-85.92 -8.52,-14.73 -17.48,-29.24 -25.76,-44.08 -2.26,-4.06 -4.18,-8.28 -6.47,-12.33 -0.66,-1.18 -3.86,-7.84 -5.39,-7.59 -2.44,0.39 -3.96,10.26 -4.31,11.95 -0.69,3.46 -1.13,6.97 -1.97,10.39 -3.93,15.98 -8.91,32 -14.38,47.51 -7.85,22.32 -19.45,58.35 -46.1,64.47 -11.23,2.59 -23.41,-1.4 -31.87,-8.99 -9.64,-8.64 -13.23,-20.44 -11.82,-33.17 1.62,-14.7 8.2,-28.57 13.64,-42.17 6.66,-16.67 14.51,-32.83 21.5,-49.37 6.1,-14.45 12.24,-28.98 17.84,-43.64 5.57,-14.55 11.62,-31.07 9.59,-46.9 -2.09,-16.24 -10.11,-31.99 -17.39,-46.46 -7.78,-15.41 -16.79,-30.16 -26.26,-44.58 -17.39,-26.46 -36.81,-51.28 -55.33,-76.92 -9.08,-12.55 -17.74,-25.48 -24.88,-39.25 -5.63,-10.88 -10.98,-21.57 -8.27,-34.08"
         style="fill:#000000;fill-opacity:1;fill-rule:nonzero;stroke:none"
         id="path16" />
      <path
         d="m 1372.74,2762.89 c 1.49,6.81 5.23,13.36 8.48,19.49 3.31,6.22 6.92,12.29 10.74,18.23 16.44,25.64 36.27,48.91 53.56,73.97 18.21,26.38 35.55,53.16 48.72,82.46 6.17,13.71 12.24,28.25 11.35,43.6 -0.88,15.02 -6.3,29.88 -11.76,43.74 -11.61,29.43 -25.18,58.01 -37.07,87.32 -9.39,23.14 -27.32,59.29 2.75,75.07 29.23,15.32 44.39,-25.06 52.27,-45.73 5.69,-14.91 10.47,-30.16 15.12,-45.41 2.75,-9.04 4.03,-18.74 7.21,-27.61 2.01,-5.61 8.02,-14.75 15.32,-10.75 3.1,1.71 5.15,6.11 6.79,9 2.05,3.64 3.83,7.41 5.81,11.09 7.55,14.09 16.23,27.66 24.24,41.49 8.45,14.56 16.85,29.16 25.28,43.73 15.51,26.82 33.41,52.65 46.49,80.79 5.92,12.73 11.04,26.22 12.83,40.22 1.71,13.41 0.14,26.92 -2.62,40.08 -5.16,24.47 -14.44,47.85 -21.45,71.81 -4.92,16.8 -9.23,34 -10.28,51.53 -0.92,15.18 0.46,33.73 13.13,44.14 10.7,8.8 31.04,12.38 42.48,3.01 11.16,-9.12 13.68,-26.46 15.1,-39.85 1.88,-17.67 1.38,-35.51 1.33,-53.25 -0.04,-13.25 -0.91,-27.97 3.54,-40.68 0.7,-1.99 4.05,-4.42 6.1,-2.74 8.19,6.72 13.93,15.7 19.05,24.86 14.21,25.45 50.9,100.95 87.44,61.3 7.06,-7.66 11.76,-18.03 12.27,-28.49 0.64,-13.08 -7.19,-23.67 -15.01,-33.36 -18.13,-22.44 -33.68,-47.24 -49.56,-71.3 -8.3,-12.58 -16.35,-25.33 -24.29,-38.14 -7.06,-11.39 -15.59,-22.81 -20.94,-35.12 -2.57,-5.93 -3.54,-12.9 2.16,-17.34 6.07,-4.72 15.22,-3.64 22.28,-2.65 27.69,3.88 57.62,17.85 85.37,6.8 8.44,-3.36 15.21,-10.12 13.95,-19.79 -1.18,-9.06 -8.17,-16.36 -15.68,-20.93 -10.93,-6.63 -24.42,-9.44 -36.88,-11.55 -13.26,-2.24 -26.68,-3.38 -39.98,-5.38 -23.67,-3.55 -47.28,-10.46 -64.58,-27.89 -9.04,-9.11 -15.17,-20.34 -22.01,-31.09 -7.72,-12.14 -15.64,-24.15 -23.57,-36.15 -16.22,-24.58 -32.61,-49.15 -46.97,-74.89 -14.55,-26.08 -28.55,-52.46 -43.18,-78.51 -3.06,-5.45 -9.31,-15.45 -2.45,-20.56 3.17,-2.36 7.2,-1.76 10.75,-0.78 4.8,1.33 9.45,2.87 14.3,4.04 14.69,3.51 29.22,8.03 44.25,9.91 12.36,1.53 25.68,1.86 36.51,-5.18 7.81,-5.08 14.04,-14.41 8.36,-23.42 -6.57,-10.4 -21.86,-14.76 -33.09,-17.51 -24.8,-6.07 -50.96,-5.19 -74.77,-15.32 -20.63,-8.78 -41.36,-19.73 -51.67,-40.6 -23.98,-48.54 -31.07,-102.68 -46.74,-154.01 -2.12,0.86 -4.49,0.69 -5.35,-1.61 -10.34,1.97 -20.07,11.82 -27.8,18.03 -16.99,13.67 -36.11,25.27 -49.11,43.23 -5.93,8.21 -10.8,18.29 -8.52,28.65"
         style="fill:#ffffff;fill-opacity:1;fill-rule:nonzero;stroke:none"
         id="path18" />
      <path
         d="m 421.723,1531.35 c -2.637,14.84 -6.836,29.46 -12.743,43.34 -2.91,6.83 -6.132,13.52 -9.718,20.03 -1.981,3.61 -4.012,7.52 -6.504,10.98 -1.231,3.85 -2.723,7.63 -4.559,11.34 -10,20.13 -27.207,35.72 -46.738,46.42 -14.758,8.07 -30.109,13 -46.32,17.04 -14.989,3.74 -30.633,7.18 -44.383,14.45 -14.961,7.91 -24.297,19.97 -22.668,37.46 0.273,2.91 -3.016,3.07 -4.93,2.38 -14.551,-5.22 -22.941,-24.13 -26.066,-38.1 -1.25,-5.61 -1.641,-11.3 -1.367,-16.92 -12.461,2.93 -25.301,4.4 -37.723,7.4 -16.172,3.91 -31.945,9.53 -45.91,18.73 -7.031,4.63 -13.926,9.98 -19.5315,16.27 -2.9883,3.35 -5.5547,6.94 -7.2266,11.11 -1.3476,3.36 -2.4101,6.72 -4.4609,9.75 -2.2969,3.39 -7.168,-0.2 -8.3125,-2.74 -4.8516,-10.84 -7.3711,-22.47 -9.8125,-34.04 -2.6484,-12.55 -5.207,-25.12 -7.2852,-37.78 -4.0351,-24.53 -6.0273,-49.22 -3.4375,-74.01 3.1836,-30.54 13.0157,-60.08 30.6836,-84.53 -2.9687,1.98 -5.8515,4.08 -8.625,6.33 -11.1718,11.05 -18.9062,25.85 -29.6171,37.57 -1.9532,2.14 -5.4883,0.75 -6.7891,-1.48 -2.8203,-4.87 -3.2617,-10.43 -3.3867,-15.96 -0.1758,-7.75 -0.5782,-15.53 -0.1289,-23.27 0.8789,-15.41 4.0351,-30.71 9.1211,-45.28 9.4843,-27.17 24.7656,-53.65 45.2343,-74.02 19.1215,-19.02 42.5505,-33.96 69.2505,-39.36 14.324,-2.9 28.816,-3.13 43.308,-1.39 16.086,1.93 31.836,5.99 47.93,7.89 17.082,2 35.605,1.4 50.695,-7.76 6.445,-3.92 11.688,-9.12 15.469,-15.64 2.469,-4.26 6.211,-11.29 5.164,-16.69 -1.309,-0.96 -2.195,-2.4 -1.074,-3.5 l 0.617,-0.49 1.434,-1.15 c 11.417,-7.46 28.496,8.64 35.957,15.8 13.918,13.35 25.812,29.52 35.527,46.09 26.828,45.74 38.242,101.33 28.926,153.73"
         style="fill:#000000;fill-opacity:1;fill-rule:nonzero;stroke:none"
         id="path20" />
      <path
         d="m 412.984,1467.23 c -5.312,-43.73 -23.468,-85.97 -51.738,-119.31 -5.598,-6.61 -11.523,-13.2 -18.203,-18.73 -3.867,-3.19 -8.73,-7.04 -13.898,-7.85 2.453,8.64 -2.247,19.18 -6.954,26.16 -7.363,10.91 -19.882,17.82 -32.39,21.08 -31.77,8.28 -63.242,-4.8 -94.817,-7.02 -60.769,-4.27 -108.816,39.42 -134.3551,90.95 -7.6758,15.48 -13.0742,31.88 -16.1601,48.89 -1.6797,9.32 -2.3555,18.63 -2.2266,28.1 0.0469,4.19 -0.4883,9.22 0,13.84 1.1992,-1.52 2.3906,-3.12 3.582,-4.74 2.0313,-4.23 5.1094,-8.24 7.7461,-11.63 2.5586,-3.3 5.3711,-6.39 8.2891,-9.36 2.8711,-3.2 5.9297,-6.11 9.2383,-8.53 4.6015,-3.8 9.4648,-7.28 14.707,-10.13 3.1367,-1.7 6.3672,-3.22 9.6289,-4.64 l 0.5391,-0.24 c 3.5039,-3.61 7.1953,-7.08 11.1603,-10.33 16.64,-13.66 38.457,-26.45 60.039,-29.6 l 2.363,0.67 c -26.25,11.14 -52.93,26.76 -69.8631,49.55 -6.1328,6.68 -11.6094,13.97 -16.3086,21.81 -23.9141,39.88 -26.9024,88.53 -20.6445,133.58 2.0117,14.5 4.7968,28.89 7.7734,43.23 1.7773,8.57 3.5664,17.15 6.2031,25.47 l 0.8867,-2.22 c 1.6407,-3.65 3.9844,-6.91 6.5625,-9.95 5.1172,-6.01 11.2696,-11.15 17.7075,-15.68 13.211,-9.29 28.269,-15.54 43.789,-19.8 15.047,-4.13 30.496,-5.8 45.691,-9.08 10.715,-0.44 21.301,-2.64 30.879,-7.7 3.996,-2.11 7.617,-4.72 10.957,-7.65 -2.07,3.51 -4.344,6.87 -7.344,9.74 -5.418,5.19 -12.48,8.43 -19.539,10.76 l -1.847,0.55 c -0.79,5.35 -0.829,10.86 0.058,16.5 1.516,9.51 6.262,23.98 14.758,31.07 -0.598,-12.11 4.09,-23 13.758,-31.16 11.398,-9.64 26.894,-14.27 41.027,-18.14 13.828,-3.79 28.152,-6.35 41.531,-11.59 20.364,-7.97 39.473,-20.02 53.262,-37.18 0.957,-0.26 1.848,-0.84 2.531,-1.87 11.934,-17.9 21.719,-37.27 28.633,-57.58 3.348,-8.65 6.192,-17.51 8.438,-26.49 6.023,-24.11 7.546,-49.09 4.55,-73.75"
         style="fill:#ffffff;fill-opacity:1;fill-rule:nonzero;stroke:none"
         id="path22" />
      <path
         d="m 841.273,1071.34 c -30.066,34.19 -62.605,66.18 -96.64,96.42 -17.567,15.61 -35.633,30.02 -55.176,43.12 -22.879,15.34 -47.215,30.02 -73.418,38.91 -11.445,3.88 -26.629,7.75 -39.023,4.63 6.562,-28.15 13.722,-56.17 19.113,-84.57 1.238,-6.51 2.41,-13.03 3.594,-19.55 0.566,-4.61 1.238,-9.21 1.992,-13.81 2.976,-18.22 3.465,-35.83 1.961,-54.21 -2.852,-34.71 -8.27,-72.35 -25.996,-102.96 -8.094,-13.968 -20.02,-24.359 -32.598,-34.172 -12.098,-9.429 -24.695,-18 -30.254,-32.957 -5.242,-14.14 -4.09,-29.722 -3.387,-44.492 0.907,-19.179 2.852,-38.301 5.497,-57.308 5.507,-39.532 13.906,-78.559 21.074,-117.801 7.148,-39.102 12.422,-78.481 17.453,-117.899 5.117,-40.05 9.961,-80.179 16.765,-119.992 4.387,-25.648 11.125,-51.097 21.711,-74.918 10.079,-22.691 23.543,-43.871 42.325,-60.351 19.101,-16.77 42.968,-26.969 68.25,-29.399 7.246,-0.691 14.57,-0.551 21.828,-0.101 l 1.445,0.39 c 2.703,-0.672 5.633,-0.621 8.367,-0.511 4.551,0.171 9.121,0.519 13.625,1.222 8.282,1.309 16.602,4.09 22.871,9.86 6.278,5.769 8.77,13.359 8.914,21.398 6.555,-0.617 13.672,1.133 19.122,4.051 3.398,1.82 6.484,4.121 9.199,6.781 1.836,0.039 3.984,0.949 5.187,2.598 12.461,17.101 5.137,40.051 -2.754,57.461 -9.015,19.89 -21.476,37.75 -33.437,55.91 -16.535,25.101 -32.18,51.219 -45.363,78.242 -14.532,29.758 -23.836,61.02 -30.829,93.316 -7.121,32.852 -11.964,66.172 -15.324,99.602 -1.66,16.582 -2.91,33.199 -3.887,49.832 -0.878,14.949 -1.609,30.066 0.52,44.957 2.109,14.852 7.898,28.281 17.734,39.66 9.2,10.66 20.36,19.332 31.563,27.77 24.773,18.64 48.523,38.57 71.152,59.793 25.664,24.07 49.942,49.937 70.274,78.728 1.211,1.72 2.382,3.46 3.554,5.2 -11.769,15.51 -24.172,30.55 -37.004,45.15"
         style="fill:#000000;fill-opacity:1;fill-rule:nonzero;stroke:none"
         id="path24" />
      <path
         d="m 841.273,1071.34 c -30.066,34.19 -62.605,66.18 -96.64,96.42 -17.567,15.61 -35.633,30.02 -55.176,43.12 -22.879,15.34 -47.215,30.02 -73.418,38.91 -7.996,2.71 -17.82,5.42 -27.254,5.75 3.399,-16.07 6.875,-32.11 10.281,-48.18 4.61,-21.77 9.153,-43.68 11.008,-65.89 1.875,-9.21 3.301,-18.54 4.043,-27.85 1.387,-17.33 -0.625,-35.21 -2.734,-52.42 -3.957,-32.37 -11.289,-68.688 -31.399,-95.251 -9.168,-12.117 -20.879,-21.668 -32.722,-31.051 -6.164,-4.878 -13.235,-9.539 -17.727,-16.109 -4.16,-6.09 -6.133,-13.297 -6.941,-20.57 -1.77,-15.989 -0.059,-32.778 1.269,-48.739 1.649,-19.781 4.395,-39.46 7.625,-59.039 6.321,-38.3 14.582,-76.25 21.028,-114.531 6.609,-39.32 11.464,-78.898 16.492,-118.441 4.687,-36.821 8.867,-73.949 16.164,-110.36 5.019,-25.039 12.402,-49.961 23.953,-72.808 11.027,-21.789 25.988,-42.129 46.074,-56.352 21.504,-15.211 47.481,-21.668 73.594,-21.98 h 0.031 c 3.965,1.062 8.125,1.043 12.215,1.23 4.57,0.223 9.141,0.68 13.613,1.692 8.254,1.871 15.43,5.98 17.227,14.839 2.492,12.282 -2.723,26.032 -8.418,36.692 -6.18,11.558 -14.617,20.828 -23.699,30.109 -0.918,0.938 1.113,2.489 2.031,2.117 11.855,-4.726 21.668,-15.25 28.406,-25.796 5.11,-7.993 9.797,-18.832 11.067,-29.5 3.523,0.57 7.039,1.168 10.515,2.168 0.567,0.16 1.66,0.539 2.649,0.949 1.062,0.429 2.09,0.922 3.105,1.453 l 0.848,0.457 0.07,0.043 1.211,0.75 c 0.965,0.629 1.895,1.316 2.781,2.047 l 0.606,0.562 1.32,1.34 0.938,1.051 0.449,0.547 0.215,0.293 c 0.632,0.929 1.257,1.84 1.824,2.808 0.695,1.211 0.832,1.512 1.223,2.399 0.847,1.953 1.503,3.972 2.168,5.98 1.511,18.051 -9.239,38.082 -17.442,52.43 -12.512,21.891 -27.441,42.391 -40.598,63.922 -16.64,27.238 -32.246,55.308 -43.574,85.23 -18.203,48.039 -24.648,100.949 -32.82,149.59 -1.301,7.707 -1.848,15.5 -1.895,23.328 -0.207,33.41 -10.207,75.16 3.965,109.52 10.762,26.121 34.61,43.14 56.426,59.531 24.863,18.68 48.496,39.25 70.879,60.82 22.605,21.782 44.316,45.051 62.527,70.68 1.653,2.33 3.282,4.67 4.895,7.04 -10.363,13.34 -21.133,26.38 -32.278,39.05"
         style="fill:#ffffff;fill-opacity:1;fill-rule:nonzero;stroke:none"
         id="path26" />
      <path
         d="m 1497.78,214.789 c 0.07,1.551 -0.18,3.031 -0.94,4.242 -10.03,41.551 -37.53,78.418 -58.6,114.899 -32.07,55.511 -52.74,118.152 -71.85,179.062 -19.23,61.297 -31.6,124.957 -35.47,189.117 -3.63,60.172 -0.3,121.52 15.71,179.84 27.86,101.582 86.01,192.751 106.93,296.491 10.73,53.23 8.94,106.69 -6.42,158.83 -17.52,59.49 -44.84,115.61 -61.31,175.44 -17.95,65.2 -19.22,133.36 -12.18,200.29 7,66.56 23.53,130.93 38.18,196.03 3.86,17.18 7.76,34.3 11.95,51.41 0.33,1.32 -1.62,1.02 -1.9,0.03 -0.74,-2.55 -1.47,-5.12 -2.22,-7.68 0.03,2.12 -0.03,4.25 -0.27,6.38 -0.97,8.31 -5.27,14.75 -11.55,20.08 -13.9,11.79 -33.34,17.1 -50.58,21.75 -20.42,5.52 -40.77,11.44 -61.72,14.65 -56.09,8.61 -113.5,4.56 -169.45,-3.15 -29.52,-4.07 -58.82,-9.38 -87.44,-17.78 -14.48,-4.25 -28.77,-9.17 -42.716,-14.92 -11.602,-4.78 -23.782,-9.28 -34.289,-16.25 -11.415,-7.56 -19.766,-18.55 -22.586,-32.06 -2.754,-13.2 -0.93,-26.98 1.23,-40.15 2.656,-16.14 4.649,-32.01 5.117,-48.41 0.36,-12.74 0.41,-25.62 1.348,-38.37 -1.594,-30.31 -4.59,-60.64 -14.531,-89.15 -12.942,-37.14 -38.262,-71.77 -71.555,-93.11 -36.453,-23.36 -80.203,-26.99 -122.441,-24.35 -50.489,3.16 -99.786,15.45 -149.747,22.62 -42.734,6.14 -85.917,7.4 -128.425,-1.2 -39.797,-8.07 -77.91,-24.51 -110.285,-49.14 -33.543,-25.51 -60.04,-58.51 -77.852,-96.67 -17.449,-37.42 -26.199,-78.44 -30.176,-119.37 -4.394,-45.34 -3.484,-90.77 3.906,-135.75 7.825,-47.59 21.75,-93.87 30.735,-141.23 1.238,-6.51 2.41,-13.03 3.594,-19.54 0.566,-4.61 1.25,-9.21 2,-13.81 2.98,-18.23 3.468,-35.83 1.953,-54.219 -2.84,-34.7 -8.262,-72.34 -25.996,-102.961 -8.086,-13.969 -20.02,-24.36 -32.598,-34.168 -12.09,-9.43 -24.695,-17.992 -30.242,-32.953 -5.254,-14.149 -4.102,-29.727 -3.399,-44.489 0.918,-19.191 2.852,-38.3 5.508,-57.32 5.508,-39.531 13.895,-78.559 21.074,-117.801 7.137,-39.097 12.422,-78.48 17.45,-117.89 5.109,-40.059 9.953,-80.188 16.757,-119.989 4.387,-25.66 11.133,-51.101 21.719,-74.929 10.078,-22.692 23.535,-43.86 42.317,-60.352 19.101,-16.769 42.968,-26.969 68.25,-29.391 7.246,-0.699 14.57,-0.558 21.828,-0.109 l 1.453,0.402 c 2.707,-0.679 5.625,-0.621 8.371,-0.519 4.551,0.168 9.121,0.519 13.613,1.226 8.281,1.313 16.61,4.09 22.871,9.852 6.278,5.781 8.77,13.371 8.926,21.398 6.543,-0.609 13.672,1.141 19.109,4.063 3.399,1.82 6.497,4.117 9.211,6.781 1.825,0.039 3.985,0.949 5.184,2.598 12.453,17.101 5.137,40.039 -2.754,57.461 -9.012,19.879 -21.484,37.738 -33.445,55.898 -16.535,25.11 -32.168,51.223 -45.364,78.242 -14.531,29.77 -23.835,61.028 -30.828,93.321 -7.109,32.847 -11.965,66.168 -15.312,99.597 -1.672,16.582 -2.922,33.2 -3.899,49.832 -0.879,14.957 -1.601,30.071 0.52,44.957 2.117,14.852 7.898,28.282 17.734,39.672 9.207,10.649 20.36,19.321 31.563,27.762 24.773,18.648 48.523,38.578 71.152,59.789 25.672,24.07 49.942,49.949 70.274,78.731 6.55,9.269 12.539,18.949 17.832,28.988 28.972,-28.75 63.738,-51.61 102.058,-66.129 18.313,-6.941 37.363,-12.051 56.711,-15.102 9.227,-1.461 18.504,-2.57 27.82,-3.289 10.43,-0.8 20.254,-0.269 30.598,0.539 -0.48,-27.187 -1.516,-54.339 -2.004,-81.187 -1.492,-82.512 -0.105,-165.43 4.746,-247.813 2.442,-41.48 6.328,-82.89 9.504,-124.328 3.164,-41.242 6.278,-82.492 10.332,-123.652 1.864,-19.008 4.266,-37.949 6.192,-56.949 1.543,-15.211 2.664,-30.461 4.472,-45.641 3.379,-28.551 8.301,-60.359 26.141,-83.918 15.996,-21.1405 40.703,-34.8827 65.187,-43.8593 25.313,-9.2929 53.68,-14.3711 80.645,-11.5 4.18,0.4492 8.259,1.25 12.319,2.2188 l 1.24,0.0508 c 8.93,1.6679 16.68,3.9296 21.45,12.3671 2.7,4.8008 3.91,9.7618 4.17,14.7813 5.19,-3.5391 12.26,-4.3984 18.36,-4.0586 9.36,0.5273 19.02,3.8086 25.72,10.6094 l 1.77,1.9804 c 2.39,0.25 5.52,2.5899 5.63,4.7188 1.49,27.1913 -9.87,53.6603 -20.77,78.0113 -11.57,25.829 -23.49,51.258 -32.19,78.25 -17.81,55.278 -25.39,113.27 -27.02,171.168 -1.66,58.84 2.43,117.711 7.86,176.262 5.79,62.41 14.06,124.649 27.67,185.871 5.47,24.637 14.19,48.078 23.93,71.199 15.72,3.129 31.64,4.93 47.33,8.118 8.7,1.781 17.31,4.339 25.77,7.261 -3.83,-34.609 -3.87,-69.82 -2.62,-104.57 1.27,-35.48 4.22,-70.91 8.24,-106.18 8.08,-71.082 21.04,-141.539 34.26,-211.808 12.18,-64.813 27.39,-130.422 55.16,-190.551 9.96,-21.57 22.72,-42.02 41.26,-57.242 17.38,-14.27 38.24,-21.91 59.64,-27.867 22.71,-6.332 46.3,-11.614 69.95,-12.223 16.22,-0.41 36.5,1.492 48.16,13.652 5.78,2.348 10.28,9.508 11.74,15.469 3.32,-1.27 7.41,-1.148 10.71,-0.691 4.33,0.613 8.63,2.613 12.07,5.3 3.81,2.981 6.76,6.653 8.81,11.032 l 0.35,0.789 c 0.73,1.218 1.52,2.41 2.19,3.672 -0.17,0.898 -0.41,1.789 -0.59,2.687"
         style="fill:#000000;fill-opacity:1;fill-rule:nonzero;stroke:none"
         id="path28" />
      <path
         d="m 1486.15,207.121 -0.11,-0.23 -0.55,-0.961 -0.69,-1.078 -0.31,-0.454 0.2,0.231 -1.44,-1.629 -0.74,-0.641 -0.28,-0.308 -0.04,-0.063 0.03,0.051 -0.01,-0.008 -1.93,-1.359 -0.11,-0.07 -0.03,-0.012 -0.99,-0.488 -2.41,-0.954 -0.11,-0.039 -0.01,-0.007 -1.12,-0.293 -2.36,-0.418 -0.66,-0.059 -1.23,-0.062 c -2,-0.09 -3.97,0.191 -5.96,0.109 l -0.71,-0.109 c -0.85,5.312 -3.75,10.32 -6.7,14.722 -8.43,12.578 -20.2,22.008 -33.99,28.219 -6.82,3.07 -14.98,4.82 -22.38,3 -1.09,-0.27 -2.4,-2.57 -0.52,-2.531 7.39,0.16 14.71,-4.489 20.73,-8.282 6.86,-4.296 13.6,-9.468 19.13,-15.386 2.72,-2.91 4.97,-6.141 7.22,-9.41 2.35,-3.403 4.75,-6.954 6.05,-10.911 1.05,-3.179 1.28,-6.382 -0.04,-9.519 l -0.74,-1.402 -2.01,-1.469 c -10.44,-14.321 -31.74,-14.731 -47.66,-13.91 -20.49,1.05 -40.76,5.539 -60.51,10.918 -19.91,5.429 -39.4,11.902 -56.15,24.363 -18.84,14 -31.85,33.797 -41.9,54.719 -20.38,42.449 -32.68,89.211 -44.54,133.48 -0.75,2.828 -1.4,5.649 -1.96,8.52 -15.64,80.769 -31.28,161.789 -41.7,243.468 -4.84,37.981 -8.64,76.082 -10.54,114.321 -1.86,37.789 -1.45,75.48 -1.46,113.289 4.21,1.562 8.4,3.172 12.53,4.832 29.81,12.039 58.19,27.918 84.4,46.519 50.45,35.821 92.77,83.29 119.17,139.5 12.12,25.79 19.24,52.67 20.12,80.7 -1.51,-4.44 -3.16,-8.85 -4.92,-13.21 -4.11,-19.69 -11.05,-38.98 -19.2,-56.98 -12.62,-27.87 -29.51,-53.95 -49.06,-77.451 -38.45,-46.219 -88.86,-82.797 -143.93,-106.731 -15.67,-6.808 -32,-13.058 -48.72,-16.707 -15.11,-3.3 -31.3,-4.043 -46.05,-8.992 2.23,5.133 4.48,10.262 6.74,15.383 7.06,15.898 14.82,31.469 22.55,47.047 4.71,9.5 10.79,18.551 15.61,28.101 -3.68,-3.531 -7.62,-6.82 -11.62,-9.949 -3.58,-4.953 -7.12,-9.922 -10.05,-15.269 -7.57,-13.852 -15.2,-27.66 -22.06,-41.883 -13.14,-27.207 -25.82,-54.93 -34.38,-83.981 -11.63,-39.468 -16.87,-81.449 -23.83,-121.207 -0.76,-4.382 -1.39,-8.73 -1.87,-13.152 C 996.176,540.41 979.887,401 1014.74,270.75 c 8.22,-30.73 19.82,-59.969 33.24,-88.762 12.31,-26.386 23.98,-53.136 28.56,-82.0075 -0.67,-1.1485 -1.2,-2.2891 -1.79,-3.3008 l -1.01,-1.5977 -0.18,-0.2734 -0.23,-0.25 -1.3,-1.3867 -0.57,-0.5235 c -3.35,-2.7695 -7.05,-4.25 -11.42,-5.1796 -8.33,-1.7696 -17.82,-1.1875 -25.83,2.3828 -1.21,10.7184 -6,21.5004 -10.29,31.3394 l -1.37,2.411 c -5.49,7.757 -11.44,16.218 -18.99,22.73 -4.767,4.109 -10.068,6.859 -15.283,10.258 -1.379,0.89 -3.957,-1.418 -2.433,-2.559 11.437,-8.531 20.276,-25.383 26.286,-32.621 1.59,-1.898 2.57,-4.129 3.2,-6.519 2.78,-10.692 12.17,-26.3715 7.59,-40.1801 -1.06,-3.2226 -2.47,-6.6601 -5.47,-8.4726 -0.88,-0.5274 -1.78,-1 -2.69,-1.4492 l -1.56,-0.0782 c -25.196,-5.2617 -51.985,-2.2109 -76.516,4.7774 -25.692,7.3203 -52.11,19.293 -70.731,38.9997 -25.539,27.024 -28.594,68.293 -33.144,101.453 -0.137,0.989 -0.235,1.969 -0.293,2.981 -1.321,23.269 -4.453,46.34 -6.907,69.476 -4.355,41.051 -7.605,82.192 -10.781,123.34 -3.164,41.102 -6.941,82.16 -9.715,123.293 -5.449,81.098 -6.633,162.547 -6.191,243.809 0.203,38.14 1.844,76.281 1.062,114.422 -0.75,37.097 -2.363,75.578 -11.582,111.699 l -0.281,1.099 c -2.109,3.06 -4.199,6.12 -6.242,9.21 7.695,-43.04 8.84,-87.09 8.215,-131.079 -9.317,0.938 -18.594,2.34 -28.02,2.84 l -1.426,0.11 c -22.753,2.5 -45.468,6.988 -67.293,14.109 -32.316,10.551 -62.257,27.059 -88.769,48.301 -1.047,0.828 -2.004,1.738 -3.027,2.59 -6.204,3.898 -12.227,8.07 -17.871,12.82 -23.204,19.539 -39.571,48.969 -55.305,71.519 -2.207,3.17 -4.024,6.55 -5.438,10.14 -14.16,35.82 -37.441,75.38 -46.64,116.93 1.211,-7.83 2.547,-15.65 4.238,-23.46 3.262,-15.01 7.293,-29.89 12.195,-44.44 9.407,-27.9 21.516,-54.86 37.168,-79.85 10.84,-17.3 23.469,-33.448 37.559,-48.159 -5.586,-10.039 -11.902,-19.672 -18.543,-29.02 C 530.707,906.988 508.988,883.719 486.383,861.93 464,840.359 440.367,819.789 415.512,801.121 393.688,784.73 369.84,767.699 359.078,741.59 c -14.172,-34.36 -4.16,-76.121 -3.957,-109.531 0.051,-7.817 0.586,-15.618 1.887,-23.329 8.172,-48.64 14.617,-101.539 32.82,-149.589 11.328,-29.922 26.945,-57.981 43.586,-85.231 13.145,-21.519 28.074,-42.031 40.586,-63.922 8.203,-14.347 18.953,-34.379 17.449,-52.418 -0.664,-2.019 -1.316,-4.039 -2.176,-5.98 -0.39,-0.891 -0.519,-1.192 -1.222,-2.41 -0.555,-0.969 -1.18,-1.879 -1.817,-2.801 l -0.222,-0.297 -0.442,-0.543 -0.945,-1.059 -1.32,-1.339 -0.606,-0.551 c -0.886,-0.731 -1.816,-1.418 -2.781,-2.059 l -1.203,-0.75 -0.067,-0.043 -0.859,-0.457 c -1.008,-0.531 -2.043,-1.011 -3.098,-1.453 -0.984,-0.398 -2.089,-0.777 -2.656,-0.949 -3.476,-1 -6.98,-1.59 -10.515,-2.16 -1.262,10.66 -5.95,21.5 -11.055,29.492 -6.75,10.559 -16.563,21.078 -28.41,25.801 -0.926,0.367 -2.957,-1.18 -2.039,-2.114 9.082,-9.277 17.519,-18.558 23.699,-30.117 5.703,-10.66 10.918,-24.41 8.43,-36.691 -1.809,-8.86 -8.977,-12.969 -17.239,-14.84 -4.472,-1.012 -9.031,-1.469 -13.613,-1.68 -4.09,-0.199 -8.25,-0.179 -12.215,-1.238 h -0.031 c -26.102,0.309 -52.09,6.77 -73.582,21.988 -20.09,14.219 -35.059,34.559 -46.074,56.34 -11.563,22.86 -18.938,47.77 -23.957,72.809 -7.293,36.41 -11.473,73.551 -16.161,110.363 -5.039,39.539 -9.894,79.129 -16.503,118.449 -6.446,38.278 -14.707,76.231 -21.028,114.528 -3.222,19.57 -5.976,39.261 -7.625,59.031 -1.328,15.969 -3.039,32.75 -1.262,48.75 0.801,7.262 2.786,14.469 6.946,20.558 4.48,6.571 11.562,11.243 17.722,16.122 11.848,9.378 23.547,18.921 32.727,31.05 20.105,26.559 27.43,62.879 31.395,95.239 2.101,17.211 4.113,35.101 2.726,52.431 -0.742,9.31 -2.16,18.63 -4.043,27.85 -1.848,22.2 -6.387,44.11 -11.008,65.89 -5.047,23.81 -10.398,47.56 -15.117,71.44 -4.648,23.55 -9.101,47.09 -11.414,71.01 -2.199,22.72 -2.168,45.55 -1.152,68.33 1.863,41.81 7.761,83.81 22.078,123.3 14.289,39.44 37.461,74.68 69.101,102.35 31.047,27.14 68.879,45.64 108.946,54.94 42.09,9.76 85.226,9.2 127.832,3.44 49.707,-6.73 98.652,-18.84 148.769,-22.56 42.551,-3.17 86.973,-0.57 125.11,20.28 33.152,18.12 59.422,47.17 76.797,80.53 20.925,40.17 24.832,84.71 23.105,129.26 -0.129,3.38 -0.332,6.77 -0.508,10.16 1.074,17.44 1.082,34.98 -0.859,52.17 -2.481,21.93 -11.231,50.14 5.222,68.78 7.95,9.02 19.493,13.51 30.293,18.07 13.347,5.64 26.737,11.02 40.547,15.44 26.99,8.65 54.76,14.5 82.76,18.74 53.51,8.09 108.25,13.07 162.27,7.54 22.89,-2.35 44.55,-7.93 66.74,-13.65 16.68,-4.3 33.96,-8.39 49.29,-16.52 7.25,-3.85 15.36,-9.02 18.75,-16.88 5.19,-12.03 -0.17,-27.32 -3.92,-38.99 -4.51,-14.02 -7.13,-27.75 -7.87,-42.46 -0.58,-11.25 -3.7,-22.21 -5.51,-33.29 -23.22,-91.89 -38.86,-185.61 -26.34,-280.58 8.25,-62.51 32.71,-120.26 54.51,-178.9 10.62,-28.6 20.99,-57.74 26.75,-87.78 5.21,-27.1 6.39,-54.79 4.04,-82.27 -9.17,-107.09 -67.9,-201.29 -101.94,-301.232 -39.07,-114.707 -34.43,-239.566 -5.93,-356.238 15.26,-62.519 36.63,-124.851 62.97,-183.57 11.78,-26.25 25.56,-50.852 40.71,-75.27 14.94,-24.082 30.32,-48.59 39.47,-75.582 1.29,-3.769 2.38,-7.597 3.34,-11.449 -0.7,-2.07 -1.23,-4.238 -2.01,-6.168"
         style="fill:#ffffff;fill-opacity:1;fill-rule:nonzero;stroke:none"
         id="path30" />
      <path
         d="m 1482.23,203.16 0.28,0.32 -0.29,-0.332 z"
         style="fill:#000000;fill-opacity:1;fill-rule:nonzero;stroke:none"
         id="path32" />
      <path
         d="m 1435.88,1682.37 c -4.88,16.99 -12.32,33.28 -21.57,48.33 -9.5,15.47 -19.69,30.38 -27.23,46.97 -4.2,9.26 -7.26,19.15 -8.61,29.26 -0.55,4.15 -0.65,8.39 -0.45,12.58 l 1.33,1.58 c 4.23,10.59 6.15,22.9 -2.99,31.43 -5.11,4.76 -11.99,7.63 -18.27,10.45 -8.88,3.98 -17.95,7.52 -27.17,10.62 -36.51,12.24 -75.15,17.45 -113.6,17.39 -38.93,-0.06 -77.56,-5.22 -115.44,-13.99 -14.81,-3.43 -29.73,-6.92 -44.37,-11.03 -13.37,-3.76 -26.92,-8.62 -38.3,-16.8 -11.9,-8.56 -19.499,-20.21 -23.335,-34.28 -3.223,-11.8 -7.512,-27.58 -2.285,-39.43 l 0.293,-0.22 c -10.82,-57.14 -39.738,-112.44 -29.719,-171.33 1.582,-9.27 4.524,-18.43 8.352,-27.01 2,-4.49 4.414,-8.82 7.011,-12.99 2.508,-4.02 5.196,-7.01 8.36,-10.02 0.117,-0.96 0.215,-1.92 0.332,-2.87 4.472,-34.57 16.781,-69.45 34.651,-99.35 10.45,-17.48 22.87,-33.59 36.91,-48.32 2.91,-3.05 9.07,2.12 7.43,5.68 -3.7,8 -6.18,16.62 -7.9,25.32 5.91,-10.74 12.81,-20.98 20.39,-30.53 11.06,-13.97 23.26,-27.05 33.62,-41.57 5.5,-7.73 10.67,-16.06 14.41,-24.8 3.76,-8.78 4.86,-18.3 9.8,-26.63 1,-1.66 3.66,-1.28 4.99,-0.37 9.04,6.13 9.75,18.71 9.93,28.63 l -0.02,2.31 c 8.21,-15.47 17.64,-30.46 24.13,-46.74 12.73,-31.97 14.56,-69.7 6.13,-103.03 -0.74,-2.91 2.84,-4.55 5.17,-4.09 14.67,2.92 24.97,16.3 35.79,25.56 15.06,12.89 29.19,26.13 42.27,41.06 9.29,10.58 17.76,21.69 25.13,33.38 l 0.15,0.03 c 8.25,2.31 15.42,11.22 21.09,17.34 6.36,6.86 12.28,14.13 17.78,21.7 10.89,14.97 20.19,31.02 29.12,47.21 6.14,11.13 11.86,22.68 16.41,34.63 4.14,2.57 7.83,6.14 11.06,9.48 5.92,6.15 11.21,12.98 15.81,20.18 9.06,14.2 16.58,29.75 22.64,45.45 14.97,38.76 18.48,80.88 10.11,121.52 9.39,24.19 7.66,53.04 0.66,77.31"
         style="fill:#000000;fill-opacity:1;fill-rule:nonzero;stroke:none"
         id="path34" />
      <path
         d="m 1428.66,1596.91 c 1.42,-15.7 0.14,-31.31 -2.46,-46.74 -1.56,-35.34 -13.03,-69.4 -30.01,-100.29 -4.26,-7.73 -8.99,-15.3 -14.49,-22.21 l -0.04,-0.06 0.61,2.37 c 2.41,10.32 4.13,21.03 4.8,31.61 0.27,4.34 -0.05,8.64 -0.45,12.94 -0.66,-2.34 -1.38,-4.67 -2.15,-6.97 -3.44,-10.2 -7.28,-20.3 -10.92,-30.43 -2.5,-6.98 -5.24,-13.93 -8.28,-20.75 -4.73,-13.53 -10.69,-26.54 -17.56,-39.24 -8.38,-15.49 -17.19,-30.8 -27.37,-45.19 -4.99,-7.06 -10.32,-13.92 -16.14,-20.31 5.8,12.53 10.34,25.71 13.32,39.62 2.09,9.78 3.5,19.71 4.1,29.69 0.46,7.94 0.75,16.32 -0.31,24.34 -4.2,-18.52 -9.24,-36.75 -15.95,-54.34 -3.43,-14.09 -8.13,-27.92 -14.26,-41.03 -15.04,-32.15 -40.13,-60.16 -66.85,-83.17 -6.28,-5.41 -12.45,-10.75 -18.47,-16.45 -3.21,-3.03 -6.63,-6.49 -10.43,-9.22 2.2,15.4 4.18,30.6 3.63,46.3 -0.62,17.25 -4,34.35 -10.1,50.5 -6.71,17.77 -16.62,34.35 -25.73,50.97 -1.83,3.33 -3.67,6.65 -5.53,9.96 -5.71,7.86 -11.92,14.95 -19.09,21.65 -2.56,2.39 -4.83,5.09 -7.08,7.83 1.69,-5.05 3.43,-10.08 5.4,-15.03 2.32,-5.81 5.08,-11.47 7.93,-17.07 0.21,-4.52 0.51,-9.05 0.53,-13.61 0.03,-5.48 -0.15,-11.02 -1.09,-16.43 -0.31,-1.82 -0.73,-4.17 -1.53,-6.28 -1.94,6.4 -2.73,13.16 -4.74,19.54 -2.35,7.49 -5.85,14.78 -9.54,21.69 -8.11,15.24 -19.26,28.01 -30.26,41.19 -2.71,3.25 -5.34,6.59 -7.94,9.97 -15.22,16.86 -28.72,35.45 -37.4,56.53 -8.45,20.52 -9.04,42.41 -9.88,64.24 -0.46,-1.15 -0.91,-2.3 -1.28,-3.5 -1.16,-3.69 -1.85,-7.41 -2.36,-11.24 -1.08,-8.2 -0.96,-16.38 -0.08,-24.6 1.18,-10.9 3.99,-21.62 7.73,-31.98 -0.63,-10.03 0.78,-20.27 3.24,-30.26 -19.5,28.27 -34.41,60.35 -43.01,93.79 -0.36,1.35 -0.69,2.71 -1.03,4.06 l -0.61,2.5 c -5.11,20.91 -8.163,42.28 -8.073,63.86 0.066,16.02 0.867,32.89 5.003,48.67 -3.108,-4.89 -5.98,-9.87 -8.03,-15.39 -2.989,-8.07 -5.11,-16.67 -6.36,-25.17 -1.277,-8.75 -1.804,-17.56 -1.738,-26.38 -3.816,9.24 -7.137,18.63 -8.887,28.76 -2.812,16.24 -2.371,32.45 -0.203,48.74 4.481,33.73 16.356,65.9 21.961,99.41 2.867,17.15 3.907,33.8 2.447,50.95 0.79,2.33 1.57,4.67 2.44,6.96 4.12,10.87 8.26,20.52 17.54,28.05 9.95,8.08 22.6,12.47 34.77,15.97 12.94,3.72 26.2,6.59 39.35,9.5 68.32,15.14 140.82,20.35 209.08,2.09 18.34,-4.9 37.5,-11.03 54.17,-20.26 4.46,-2.47 8.63,-5.41 10.26,-10.42 1.47,-4.51 1.34,-9.34 1.5,-14.08 -3.09,-11.32 -2.61,-24.21 -0.01,-34.66 4.27,-17.24 13.1,-32.8 22.43,-47.76 9.46,-15.19 19,-30.03 25.65,-46.75 6.58,-16.52 10.91,-34.47 11.06,-52.31 0.05,-4.63 -0.2,-9.3 -0.72,-13.93 -1.48,4.2 -3.17,8.33 -5.32,12.24 -2.03,3.71 -4.63,7.17 -7.58,10.24 5.96,-17.3 10.74,-35 12.39,-53.22"
         style="fill:#ffffff;fill-opacity:1;fill-rule:nonzero;stroke:none"
         id="path36" />
      <path
         d="m 2229.83,2947.3 c 0.5,40.95 -0.7,81.9 -1.18,122.84 -0.26,21.33 -0.26,42.68 -1.63,63.98 -0.69,10.54 -1.67,21.08 -3.27,31.52 -1.24,8.14 -3.73,15.79 -5.46,23.79 -1.77,8.14 1.58,14.87 6.18,21.47 3.37,4.84 -0.18,8.71 -5.29,7.97 6.1,6.01 11.53,12.83 9.72,20.56 -2.1,8.98 -15.43,8.17 -22.33,7.67 -21.92,-1.58 -43.6,-8.05 -64.68,-13.85 -36.69,-10.08 -72.58,-21.69 -107.72,-36.34 -39.28,-16.36 -77.34,-35.7 -113.66,-57.87 -67.6,-41.27 -128.93,-92.55 -178.75,-154.31 -23.59,-29.25 -44.55,-60.64 -62.81,-93.47 -18.74,-33.67 -33.74,-68.74 -47.82,-104.55 -24.4,-62.01 -56.27,-125.07 -117.67,-157.4 -4.73,-2.49 -9.61,-4.7 -14.56,-6.7 -13.65,4.18 -21.33,-9 -23.11,-20.83 -2.79,-18.38 1.08,-38.04 5.13,-55.94 3.93,-17.35 8.91,-34.47 14.4,-51.4 7.95,-24.56 15.81,-49.46 26.42,-73.02 4.04,-8.94 8.56,-17.67 13.69,-26.02 4.01,-6.49 8.29,-14.38 14.24,-19.34 5.82,-4.84 11.87,-4.07 17.41,-0.95 1.61,0.51 3.1,1.56 4.17,2.67 l 0.98,0.93 c 1.58,1.33 3.11,2.78 4.52,4.28 5.24,4.61 10.94,8.84 16.42,12.99 7.42,5.61 15.19,10.78 23.21,15.48 16.54,9.7 34.14,17.36 52.44,23.04 41.03,12.73 84.45,13.91 126.99,17 82.86,6.03 169.17,18.54 239.13,66.56 33.5,22.99 63.19,51.56 88.87,82.98 25.6,31.31 48.25,66.04 64.47,103.16 33.27,76.13 40.54,160.93 41.55,243.1"
         style="fill:#000000;fill-opacity:1;fill-rule:nonzero;stroke:none"
         id="path38" />
      <path
         d="m 2187.08,2736.27 c -13.04,-38.38 -32.77,-74 -56.52,-106.75 -24.08,-33.21 -52.25,-63.55 -84.57,-88.89 -31.45,-24.68 -66.31,-42.63 -104.74,-53.67 -41.24,-11.85 -84.06,-18.04 -126.74,-21.53 -43.35,-3.54 -87.71,-4.03 -130.15,-14.34 -36.88,-8.95 -73.08,-25.19 -102.35,-49.6 -1.67,-1.38 -3.27,-2.83 -4.85,-4.31 -1.49,-0.59 -2.87,-1.59 -3.87,-2.64 -2.43,-2.51 -8.18,-10.33 -11.36,-10.95 l -1.72,1.04 c -1.94,1.48 -3.5,3.63 -4.92,5.57 -9.24,12.62 -16.74,26.53 -23.05,40.82 -9.57,21.66 -16.67,44.36 -24.45,66.7 -4.8,13.79 -9.2,27.71 -12.99,41.81 -4.53,16.84 -8.82,34.22 -9.9,51.68 -0.49,7.95 -0.81,18.4 4.05,24.34 15.83,4 31.81,9.84 45.75,18.41 13.69,8.42 26.13,18.56 37.36,30.03 23.03,23.52 40.33,51.98 54.47,81.55 15.44,32.28 27.16,66.16 42.36,98.55 15.72,33.47 33.92,65.83 54.9,96.3 42.71,62.02 96.4,115.41 157.68,159.06 66.57,47.43 141.06,84.59 218.87,109.58 24.08,7.73 48.74,14.57 73.4,20.3 10.8,2.51 21.87,4.97 32.98,5.39 2.36,0.08 2.75,0.13 4.56,-0.11 l 2.42,-0.4 0.58,-0.42 -0.13,-0.49 c -1.19,-2.77 -2.95,-5 -4.98,-7.26 -3.99,-4.45 -8.77,-8.23 -12.43,-12.97 -2.42,-3.15 -2.04,-8.11 2.75,-8.6 3.1,-0.31 6.01,-0.03 8.88,0.51 -1.47,-4.24 -2.24,-8.65 -1.76,-13.29 0.72,-7.1 3.23,-13.73 4.69,-20.69 4.4,-20.89 5.01,-42.71 5.38,-63.98 0.71,-41.05 0.66,-82.18 0.57,-123.23 -0.17,-82.92 -3.24,-168.3 -30.17,-247.52"
         style="fill:#ffffff;fill-opacity:1;fill-rule:nonzero;stroke:none"
         id="path40" />
      <path
         d="m 2161.92,3205.86 c -16.75,-22.34 -42.2,-37.48 -66.06,-51.13 -28.62,-16.39 -57.42,-32.45 -86.03,-48.86 -51.88,-29.75 -103.19,-60.66 -149.99,-98.05 -84.14,-67.22 -154.2,-153.53 -188.72,-256.55 -11.32,-33.79 -18.17,-68.75 -20.54,-104.29 -1.13,-17.1 -1.44,-34.27 -1.22,-51.41 0.24,-18.37 0.74,-37.15 3.86,-55.27 0.82,-4.8 9.09,-2.17 9.37,1.77 0.51,6.87 0.75,13.74 0.89,20.62 11.17,-4.13 23.73,-5.41 35.32,-6.36 15.4,-1.26 30.94,-1.75 46.38,-1.66 32.88,0.19 65.84,3.84 97.79,11.64 59.6,14.55 114.1,43.03 160.23,83.4 13.01,11.38 25.61,23.66 36.65,36.99 10.63,12.85 18.85,26.68 26.98,41.15 0.85,1.53 -1.75,1.38 -2.4,0.35 -8.17,-12.91 -19.39,-24.45 -30.07,-35.31 -10.57,-10.72 -21.49,-20.93 -32.91,-30.75 -21.44,-18.44 -44.51,-35.31 -69.36,-48.9 -51.68,-28.27 -110.17,-42.69 -168.86,-45.05 -16.72,-0.67 -33.38,-0.09 -50.09,0.49 -16.64,0.58 -32.83,2.22 -48.7,7.45 l -0.81,0.17 c 0,20.77 -0.64,41.58 0.66,62.3 1.96,31.28 6.69,62.45 15.11,92.65 14.57,52.22 39.27,101.54 70.77,145.56 31.06,43.38 68.46,81.87 109.57,115.77 45.03,37.13 94.5,67.68 144.8,97.07 31.52,18.43 63.38,36.28 94.78,54.9 13.15,7.79 26.2,15.76 38.04,25.47 11.88,9.75 20.97,21.15 27.73,34.96 1.02,2.07 -2.23,2.14 -3.17,0.88"
         style="fill:#000000;fill-opacity:1;fill-rule:nonzero;stroke:none"
         id="path42" />
      <path
         d="m 174.254,2704.2 c 16.219,-37.12 38.867,-71.85 64.461,-103.16 25.676,-31.42 55.371,-59.99 88.867,-82.98 69.973,-48.02 156.281,-60.53 239.133,-66.56 42.539,-3.09 85.965,-4.27 126.992,-17 18.289,-5.68 35.906,-13.34 52.43,-23.04 8.027,-4.7 15.801,-9.87 23.215,-15.48 5.488,-4.15 11.179,-8.38 16.414,-12.99 1.425,-1.5 2.941,-2.95 4.531,-4.28 l 0.976,-0.93 c 1.075,-1.11 2.571,-2.16 4.172,-2.67 5.535,-3.12 11.59,-3.89 17.41,0.95 5.95,4.96 10.235,12.85 14.231,19.34 5.144,8.35 9.668,17.08 13.691,26.02 10.614,23.56 18.477,48.46 26.434,73.02 5.48,16.93 10.461,34.05 14.394,51.4 4.055,17.9 7.911,37.56 5.137,55.94 -1.785,11.83 -9.472,25.01 -23.113,20.83 -4.961,2 -9.824,4.21 -14.563,6.7 -61.394,32.33 -93.281,95.39 -117.664,157.4 -14.082,35.81 -29.082,70.88 -47.824,104.55 -18.269,32.83 -39.226,64.22 -62.812,93.47 -49.825,61.76 -111.153,113.04 -178.75,154.31 -36.317,22.17 -74.375,41.51 -113.653,57.87 -35.156,14.65 -71.043,26.26 -107.722,36.34 -21.094,5.8 -42.774,12.27 -64.68,13.85 -6.902,0.5 -20.234,1.31 -22.332,-7.67 -1.816,-7.73 3.621,-14.55 9.715,-20.56 -5.106,0.74 -8.653,-3.13 -5.281,-7.97 4.589,-6.6 7.937,-13.33 6.179,-21.47 -1.738,-8 -4.238,-15.65 -5.476,-23.79 -1.582,-10.44 -2.571,-20.98 -3.254,-31.52 -1.387,-21.3 -1.375,-42.65 -1.629,-63.98 -0.488,-40.94 -1.68,-81.89 -1.184,-122.84 1.008,-82.17 8.281,-166.97 41.555,-243.1"
         style="fill:#000000;fill-opacity:1;fill-rule:nonzero;stroke:none"
         id="path44" />
      <path
         d="m 145.27,2983.79 c -0.079,41.05 -0.129,82.18 0.574,123.23 0.363,21.27 0.976,43.09 5.371,63.98 1.476,6.96 3.976,13.59 4.707,20.69 0.469,4.64 -0.301,9.05 -1.766,13.29 2.86,-0.54 5.782,-0.82 8.875,-0.51 4.785,0.49 5.168,5.45 2.746,8.6 -3.644,4.74 -8.429,8.52 -12.422,12.97 -2.031,2.26 -3.8,4.49 -4.98,7.26 l -0.137,0.49 0.586,0.42 2.422,0.4 c 1.805,0.24 2.195,0.19 4.551,0.11 11.121,-0.42 22.187,-2.88 32.988,-5.39 24.656,-5.73 49.317,-12.57 73.399,-20.3 77.812,-24.99 152.304,-62.15 218.875,-109.58 61.281,-43.65 114.972,-97.04 157.675,-159.06 20.977,-30.47 39.172,-62.83 54.895,-96.3 15.215,-32.39 26.922,-66.27 42.371,-98.55 14.141,-29.57 31.438,-58.03 54.473,-81.55 11.23,-11.47 23.664,-21.61 37.355,-30.03 13.945,-8.57 29.922,-14.41 45.75,-18.41 4.863,-5.94 4.543,-16.39 4.043,-24.34 -1.074,-17.46 -5.371,-34.84 -9.891,-51.68 -3.8,-14.1 -8.195,-28.02 -13,-41.81 -7.781,-22.34 -14.871,-45.04 -24.441,-66.7 -6.309,-14.29 -13.809,-28.2 -23.047,-40.82 -1.437,-1.94 -2.98,-4.09 -4.933,-5.57 l -1.707,-1.04 c -3.184,0.62 -8.946,8.44 -11.36,10.95 -1.004,1.05 -2.383,2.05 -3.875,2.64 -1.574,1.48 -3.176,2.93 -4.844,4.31 -29.289,24.41 -65.48,40.65 -102.355,49.6 -42.449,10.31 -86.805,10.8 -130.145,14.34 -42.687,3.49 -85.507,9.68 -126.75,21.53 -38.437,11.04 -73.281,28.99 -104.746,53.67 -32.304,25.34 -60.476,55.68 -84.558,88.89 -23.75,32.75 -43.477,68.37 -56.524,106.75 -26.933,79.22 -29.992,164.6 -30.175,247.52"
         style="fill:#ffffff;fill-opacity:1;fill-rule:nonzero;stroke:none"
         id="path46" />
      <path
         d="m 200.609,3205.86 c 16.75,-22.34 42.2,-37.48 66.047,-51.13 28.621,-16.39 57.43,-32.45 86.043,-48.86 51.867,-29.75 103.184,-60.66 149.992,-98.05 84.141,-67.22 154.2,-153.53 188.719,-256.55 11.32,-33.79 18.156,-68.75 20.528,-104.29 1.144,-17.1 1.457,-34.27 1.222,-51.41 -0.234,-18.37 -0.742,-37.15 -3.847,-55.27 -0.821,-4.8 -9.094,-2.17 -9.387,1.77 -0.496,6.87 -0.742,13.74 -0.879,20.62 -11.172,-4.13 -23.731,-5.41 -35.332,-6.36 -15.391,-1.26 -30.926,-1.75 -46.375,-1.66 -32.871,0.19 -65.832,3.84 -97.793,11.64 -59.602,14.55 -114.082,43.03 -160.215,83.4 -13.008,11.38 -25.625,23.66 -36.66,36.99 -10.625,12.85 -18.84,26.68 -26.973,41.15 -0.859,1.53 1.739,1.38 2.391,0.35 8.164,-12.91 19.394,-24.45 30.078,-35.31 10.559,-10.72 21.484,-20.93 32.902,-30.75 21.446,-18.44 44.52,-35.31 69.356,-48.9 51.687,-28.27 110.183,-42.69 168.875,-45.05 16.719,-0.67 33.379,-0.09 50.078,0.49 16.641,0.58 32.832,2.22 48.711,7.45 l 0.812,0.17 c -0.011,20.77 0.633,41.58 -0.664,62.3 -1.965,31.28 -6.691,62.45 -15.117,92.65 -14.562,52.22 -39.258,101.54 -70.762,145.56 -31.054,43.38 -68.457,81.87 -109.57,115.77 -45.031,37.13 -94.504,67.68 -144.797,97.07 -31.523,18.43 -63.379,36.28 -94.793,54.9 -13.144,7.79 -26.191,15.76 -38.027,25.47 -11.895,9.75 -20.988,21.15 -27.734,34.96 -1.016,2.07 2.234,2.14 3.171,0.88"
         style="fill:#000000;fill-opacity:1;fill-rule:nonzero;stroke:none"
         id="path48" />
      <path
         d="m 1653.89,2128.54 c -4.75,16.88 -10.66,33.43 -15.2,50.37 -4.82,17.94 -7.34,36.38 -8.45,54.9 -2.23,36.87 -0.7,73.95 -0.77,110.87 -0.06,36.64 -1.32,73.46 -7.66,109.64 -5.29,30.22 -14.3,59.81 -26.16,88.09 -22.19,52.86 -54.64,101.44 -96.63,140.63 -21.11,19.71 -44.65,36.86 -70.12,50.51 -28.22,15.12 -58.81,25.74 -89.72,33.88 -66.51,17.5 -136.08,21.54 -204.35,13.9 -66.95,-7.49 -135.049,-25.59 -194.787,-57.23 -29.012,-15.37 -56.035,-34.17 -78.984,-57.74 -21.864,-18.56 -41.641,-39.75 -59.043,-62.92 -44.161,-58.77 -72.996,-129.5 -87.5,-201.3 -8.848,-43.84 -11.055,-88.4 -9.961,-133.05 0.636,-25.82 2.179,-51.6 3.535,-77.39 0.605,-11.42 1.191,-22.69 -0.156,-34.08 -1.192,-10.05 -3.563,-19.89 -6.582,-29.54 -12.098,-38.7 -34.247,-75 -35.399,-116.5 -1.133,-40.56 18.262,-78.11 45.418,-107.18 29.758,-31.86 68.117,-55.41 107.09,-74.28 19.883,-9.63 40.273,-18.55 61.066,-26.04 20.176,-7.27 40.977,-13.19 60.301,-22.6 6.672,-3.25 13.203,-6.9 19.582,-10.77 6.746,-9.48 14.168,-18.24 23.164,-25.77 23.166,-19.38 52.966,-30.13 82.376,-35.53 32.24,-5.92 65.11,-4.6 97.08,2.43 31.28,6.87 62.42,17.8 90.61,33.04 11.93,6.43 23.62,13.63 34.74,21.65 1.3,-0.23 2.85,0.04 4.49,1.08 58.11,36.88 127.23,51.14 188.52,81.52 51.91,25.72 99.88,61.13 135.35,107.31 17.45,22.71 31.47,48.43 39.55,75.98 4.29,14.64 7.27,29.98 7.09,45.28 -0.22,17.28 -3.81,34.28 -8.49,50.84"
         style="fill:#000000;fill-opacity:1;fill-rule:nonzero;stroke:none"
         id="path50" />
      <path
         d="m 1628.17,1991.88 c -27.83,-49.84 -73.24,-88.39 -121.77,-117.3 -55.55,-33.09 -118.6,-48.74 -176.78,-76.11 -4.07,-1.92 -8.09,-3.93 -12.08,-5.99 5.06,5.23 9.88,10.69 14.26,16.52 3.38,4.5 -3.67,5.82 -6.48,3.01 -42.98,-43.16 -97.51,-72.63 -156.6,-86.84 -30.52,-7.34 -62.25,-9.72 -93.31,-4.44 -28.17,4.77 -56.76,14.06 -79.625,31.66 -11.719,9.04 -19.922,20.1 -29.453,31.2 -4.551,5.32 -9.16,10.69 -14.824,14.87 -5.301,3.92 -11.367,6.56 -17.332,9.27 l -0.996,-1.27 c 5.488,-3.1 8.445,-8.51 11.679,-13.71 l 1.25,-1.91 c -8.488,4.15 -17.382,7.58 -26.269,10.8 -19.973,7.22 -40.078,13.73 -59.688,21.92 -40.879,17.1 -80.429,37.76 -115.089,65.61 -30.594,24.59 -57.051,57.58 -65.528,96.65 -8.887,40.96 7.871,78.62 22.735,115.88 7.265,18.24 13.82,36.91 16.398,56.47 3.027,23.1 -0.285,47.05 -1.445,70.2 -2.434,48.02 -3.633,96.26 2.812,144.04 9.481,70.28 33.672,139.2 71.18,199.46 23.515,30.58 46.027,62.05 73.098,89.22 25.222,23.19 53.535,42.87 84.863,57.15 8.203,3.74 16.57,7.1 25.066,10.12 l -0.105,1.21 c -11.367,-3.56 -22.403,-7.82 -33.157,-12.6 45.715,24.18 96.6,39.53 146.89,49.05 66.47,12.59 135.31,13.78 202.02,2.19 61.35,-10.67 121.97,-30.98 172.25,-68.5 45.3,-33.81 81.6,-78.82 107.86,-128.68 29.72,-56.44 45.03,-118 48.13,-181.57 1.76,-36.1 0.74,-72.27 0.73,-108.4 0,-35.01 0.28,-70.42 9.07,-104.54 8.55,-33.09 23.32,-65.36 24,-100.03 0.57,-29.36 -9.58,-59.21 -23.76,-84.61"
         style="fill:#ffffff;fill-opacity:1;fill-rule:nonzero;stroke:none"
         id="path52" />
      <path
         d="m 1424.41,2825.81 c -1.59,0.98 -3.22,1.9 -4.87,2.78 -10.45,20.26 -35.3,33.03 -55.57,40.73 -33.62,12.77 -70.46,17.1 -106.26,15.09 -38.6,-2.16 -76.19,-12.63 -113.48,-22.19 -19.5,-5 -39.03,-10.09 -58.78,-14.07 -15.99,-3.23 -32.59,-4.87 -48.88,-3.34 -17.32,1.62 -38.234,7.69 -49.425,22.01 -5.989,7.64 -8.399,17.27 -6.368,26.81 1.953,9.19 8.309,16.16 13.379,23.78 1.278,1.93 0.262,3.88 -1.926,4.12 -14.98,1.64 -30.867,-10.68 -39.941,-21.41 -9.961,-11.78 -16.016,-25.37 -17.918,-40.64 -2.109,-16.96 0.301,-35.65 7.246,-51.94 -6.054,5.42 -11.086,11.99 -14.277,19.42 -2.902,6.74 -3.254,23.42 -12.07,25.25 -10.176,2.11 -15.227,-14.2 -18.02,-21.1 -5.234,-12.96 -8.602,-26.48 -10.066,-40.37 -3.008,-28.53 1.453,-58.02 12.558,-84.46 11.434,-27.24 29.735,-49.74 54.317,-66.21 5.468,-3.66 11.23,-7.01 17.195,-9.98 -6.492,1.77 -12.871,4.04 -19.082,6.17 -6.785,2.33 -13.613,4.78 -20.027,8.03 -5.266,2.67 -9.543,7.41 -15.715,7.62 -2.879,0.1 -6.25,-2.48 -6.434,-5.47 -0.605,-10.06 4.902,-19.39 10.75,-27.15 6.25,-8.29 13.652,-15.85 21.621,-22.48 18.41,-15.28 40.324,-25.51 63.443,-31.35 46.58,-11.76 99.6,-10.38 142.55,12.72 4.47,2.4 8.78,5.01 13.03,7.75 -6.39,-4.84 -13.46,-8.86 -20.2,-13.18 -1.77,-1.12 -4.46,-4.98 -2.42,-7.03 10.92,-10.96 30.64,-9.39 44.86,-8.43 21.82,1.47 43.4,6.42 63.75,14.4 7.79,3.06 15.47,6.66 22.96,10.72 1.06,-0.53 2.41,-0.64 3.73,-0.43 4.28,0.68 10.58,-1.32 15.08,-1.87 6.67,-0.8 13.56,-0.03 20.18,0.9 14.39,2 28.61,6.55 41.43,13.38 8.49,4.54 16.41,10.06 23.65,16.37 18.09,7.81 34.65,18.7 47.28,34.13 15.28,18.64 26.43,41.16 33.03,64.29 11.17,39.16 8.04,93.05 -30.31,116.63"
         style="fill:#000000;fill-opacity:1;fill-rule:nonzero;stroke:none"
         id="path54" />
      <path
         d="m 1417.3,2655.12 c -6.84,-9.42 -14.67,-17.82 -24.26,-24.47 l -0.23,-0.14 c 3.57,4.74 6.83,9.74 9.72,14.94 4.45,8.03 7.47,16.4 10.31,24.89 -6.18,-8.43 -12.94,-16.32 -20.68,-23.21 -0.65,-0.97 -1.32,-1.94 -1.96,-2.89 -8.08,-11.75 -17.84,-22.25 -29.32,-30.73 -12.75,-9.43 -27.4,-15.81 -42.94,-18.98 -8.15,-1.65 -16.8,-2.83 -25.11,-1.82 -1.48,0.17 -2.99,0.42 -4.5,0.65 21.87,14.91 40.98,34.1 54.35,56.48 4.97,8.32 8.78,17.88 10.58,27.67 -3.61,-6.68 -7.71,-13.05 -12.26,-19.09 -7.21,-11.07 -16.05,-21.34 -26.04,-30.27 -4.66,-5.07 -9.63,-9.85 -14.8,-14.31 -29.36,-25.36 -66.11,-41.04 -104.57,-45.64 -8.61,-1.04 -17.42,-1.52 -26.09,-1.14 -5.37,0.23 -11.45,0.71 -16.54,3 8.29,5.48 16.56,11.21 22.86,18.9 3.68,4.49 6.31,9.69 9.11,14.79 1.63,1.43 3.14,3.01 4.72,4.5 -5.29,-3.76 -10.97,-7 -16.63,-9.79 -7.92,-3.93 -16.16,-7.29 -24.59,-10.13 -17.17,-9.7 -35.94,-15.72 -55.53,-18.28 -23.49,-3.08 -47.77,-1.88 -70.98,2.7 -22.268,4.41 -43.674,11.73 -62.561,24.56 -9.648,6.55 -18.308,14.39 -25.859,23.26 -4.316,5.08 -9.227,11.21 -11.836,17.87 l 0.293,-0.19 c 2.727,-1.59 5.715,-2.82 8.625,-4.04 6.621,-2.75 13.496,-5.07 20.391,-7.05 12.605,-3.61 25.547,-5.59 38.613,-4.61 2.793,-0.91 5.613,-1.71 8.457,-2.43 13.977,0.12 27.967,-0.33 41.357,4.24 1.92,0.66 3.81,1.37 5.69,2.11 -52.613,-3.63 -104.313,27.69 -128.649,74.27 -12.043,23.06 -18,49.26 -18.586,75.18 -0.281,12.71 0.821,25.53 3.575,37.96 1.308,5.89 3.066,11.62 5.097,17.3 1.446,4.07 2.715,8.49 5.157,12.1 l 0.031,0.04 1.14,-1.53 c 1.27,-2.41 1.954,-5.2 2.649,-7.82 1.394,-5.33 3.008,-10.34 5.633,-15.24 5.832,-10.87 15.058,-18.3 26.191,-22.4 5.684,-1.5 11.524,-2.32 17.422,-2.53 -6.336,7.43 -11.121,16.33 -14.355,25.56 -7.227,20.62 -9.825,47.38 0.695,67.34 3.992,7.57 9.773,14.45 16.668,19.55 4.933,3.64 11.047,7.24 17.344,8.4 -3.301,-4.73 -6.797,-9.3 -9.063,-14.68 -3.016,-7.15 -3.75,-15.28 -2.117,-22.86 3.406,-15.81 16.355,-25.87 30.388,-32.27 31.34,-14.28 65.83,-9.82 98.25,-2.37 39.84,9.15 79.05,21.3 119.34,28.38 36.5,6.42 74.71,5.88 110.76,-3.01 18.53,-4.56 37.15,-11.19 53.52,-21.13 4.93,-3 9.74,-6.42 14.21,-10.24 -8.52,2.53 -17.39,3.9 -26.24,4.09 5.4,-1.99 10.78,-4.06 16.08,-6.32 11.85,-5.04 24.28,-10.83 33.94,-19.53 7.54,-6.78 12.3,-15.48 15.14,-24.94 1.94,-4.09 3.57,-8.4 4.81,-12.97 11.36,-41.77 -1.9,-87.29 -26.82,-121.68"
         style="fill:#ffffff;fill-opacity:1;fill-rule:nonzero;stroke:none"
         id="path56" />
      <path
         d="m 1313.62,2392.96 c 7.34,9.08 14.58,18.45 22.98,26.58 9.06,8.75 19.31,16.31 30.14,22.71 21.44,12.65 45.54,21.73 70.22,25.2 42.41,5.97 82.91,-6.42 118.55,-28.15 -3.04,9.65 -6.78,18.97 -12.58,27.42 -7.4,10.81 -17.73,19.35 -28.67,26.4 -22.84,14.73 -49.66,20.37 -76.49,16.47 -51.32,-7.45 -96.89,-44.99 -122.86,-88.53 -11.09,-18.58 -18.15,-38.72 -24.57,-59.13 7.17,10.84 15.27,21.13 23.28,31.03"
         style="fill:#000000;fill-opacity:1;fill-rule:nonzero;stroke:none"
         id="path58" />
      <path
         d="m 951.344,2388.98 c -6.242,9.08 -12.383,18.45 -19.512,26.57 -7.687,8.76 -16.398,16.32 -25.598,22.72 -18.191,12.65 -38.652,21.72 -59.609,25.2 -36.004,5.97 -70.391,-6.42 -100.645,-28.15 2.579,9.65 5.754,18.97 10.676,27.42 6.289,10.8 15.047,19.34 24.336,26.4 19.395,14.72 42.156,20.37 64.949,16.47 43.567,-7.46 82.247,-44.99 104.309,-88.53 9.402,-18.58 15.41,-38.72 20.859,-59.14 -6.093,10.84 -12.968,21.13 -19.765,31.04"
         style="fill:#000000;fill-opacity:1;fill-rule:nonzero;stroke:none"
         id="path60" />
      <path
         d="m 1643.37,2294.47 c -0.9,3.86 -5.87,2.73 -8.17,1.25 -10.47,-6.72 -20.85,-8.54 -32.59,-7.06 -2.81,1.85 -5.43,4.04 -7.93,6.39 1.99,-0.07 4,-0.07 5.98,0.1 13.39,1.14 24.57,8.06 33.29,17.93 1.67,1.9 -0.5,3.96 -2.41,2.37 -7.44,-6.16 -17.64,-9.16 -27.17,-9.46 -4.79,-0.15 -9.38,0.33 -13.97,1.81 -4.99,1.61 -9.15,4.63 -13.86,6.78 -2.38,2.61 -4.8,5.22 -7.23,7.81 l 0.82,-0.3 c 8.79,-2.86 17.98,-4.36 27.21,-3.29 4.33,0.51 8.64,1.49 12.52,3.53 4.03,2.12 6.95,5.19 10.35,8.13 1.6,1.4 -0.4,2.93 -1.92,1.89 -6.04,-4.13 -16.01,-4.83 -23.08,-3.99 -7.99,0.95 -15.68,3.52 -23.14,6.45 -7.82,3.07 -15.3,6.89 -22.72,10.79 -5.04,2.64 -10.22,6.02 -15.79,7.61 l -0.2,0.13 c -20.18,12.13 -43.39,15.07 -66.6,13.87 -25.94,-1.36 -50.12,-8.27 -71.88,-22.67 -2.8,-1.85 -5.54,-3.81 -8.23,-5.82 -54.15,-35.22 -82.35,-104.25 -90.4,-166.89 -0.21,-1.68 -0.37,-3.37 -0.55,-5.06 -1.8,-12.59 -2.82,-25.23 -3.84,-37.24 -2.99,-35.22 -4.09,-71.88 7.36,-105.8 1.61,-4.77 7.96,-3.06 10.57,-0.19 10.3,11.28 23.55,15.96 38.36,18.21 16.99,2.59 34.3,3.41 51.42,4.77 5.21,0.42 10.41,0.92 15.61,1.38 3.06,0.05 6.11,0.1 9.17,0.12 36.03,0.15 73.35,1.62 104.36,22.18 28.2,18.7 44.86,48.18 54.42,80.01 5.05,16.8 8.05,34.3 9.41,51.78 1.32,16.83 1.62,34.33 -1.32,51.02 -0.67,3.77 -1.58,7.53 -2.63,11.24 10.28,-5.76 21.62,-7.75 33.63,-1.92 10.75,5.22 24.22,19.09 21.15,32.14"
         style="fill:#000000;fill-opacity:1;fill-rule:nonzero;stroke:none"
         id="path62" />
      <path
         d="m 1573.57,2161.6 c -7.14,-30.14 -19.41,-60.51 -44.64,-79.96 -9.49,-7.33 -19.92,-12.29 -30.88,-15.72 l -1.37,0.04 c -15.75,-4.49 -32.28,-4.7 -48.51,-5.88 -12.24,-0.9 -24.48,-1.45 -36.73,-2.05 -14.37,-0.31 -28.75,-0.72 -43.12,-1.14 -20.41,-0.59 -40.83,-1.92 -60.6,-7.35 -0.28,2.5 -0.53,5 -0.65,7.52 -0.52,10.18 -0.38,20.41 -0.44,30.6 -0.14,22.57 -0.54,45.08 1.24,67.61 3.13,39.64 13.01,80.64 32.67,115.45 17.84,31.59 44.28,59.78 79.29,71.74 35.91,12.25 73.98,6.02 104.68,-15.88 8.85,-6.33 16.32,-13.72 23.6,-21.38 0.96,-1.21 1.92,-2.43 2.87,-3.64 4.36,-5.52 9.43,-12.03 15.11,-18.28 4.02,-8.03 7.31,-16.43 9.61,-25.09 8.12,-30.76 5.13,-65.94 -2.13,-96.59"
         style="fill:#ffffff;fill-opacity:1;fill-rule:nonzero;stroke:none"
         id="path64" />
      <path
         d="m 1566.65,2205.99 c 0,-65.52 -53.11,-118.63 -118.63,-118.63 -65.51,0 -118.62,53.11 -118.62,118.63 0,65.51 53.11,118.62 118.62,118.62 65.52,0 118.63,-53.11 118.63,-118.62"
         style="fill:#3b3b3b;fill-opacity:1;fill-rule:nonzero;stroke:none"
         id="path66" />
      <path
         d="m 1526.31,2205.53 c 0,-39.14 -31.73,-70.87 -70.87,-70.87 -39.14,0 -70.87,31.73 -70.87,70.87 0,39.14 31.73,70.88 70.87,70.88 39.14,0 70.87,-31.74 70.87,-70.88"
         style="fill:#0a0a0a;fill-opacity:1;fill-rule:nonzero;stroke:none"
         id="path68" />
      <path
         d="m 1416.47,2228.33 c 0,-14.2 -11.51,-25.71 -25.71,-25.71 -14.2,0 -25.72,11.51 -25.72,25.71 0,14.2 11.52,25.72 25.72,25.72 14.2,0 25.71,-11.52 25.71,-25.72"
         style="fill:#fdfdfd;fill-opacity:1;fill-rule:nonzero;stroke:none"
         id="path70" />
      <path
         d="m 1414.35,2167.46 c 0,-9.27 -7.51,-16.78 -16.78,-16.78 -9.25,0 -16.76,7.51 -16.76,16.78 0,9.26 7.51,16.76 16.76,16.76 9.27,0 16.78,-7.5 16.78,-16.76"
         style="fill:#fdfdfd;fill-opacity:1;fill-rule:nonzero;stroke:none"
         id="path72" />
      <path
         d="m 1262.01,1942.26 c -27.76,38.76 -74.14,57.88 -120,64.74 -49.51,7.41 -103.35,2.14 -146.838,-24.12 -20.176,-12.18 -43.215,-29.4 -49.551,-53.3 h 0.176 c 8.894,20.69 31.113,35.31 49.969,46.07 21.714,12.39 45.984,19.58 70.664,23.01 44.39,6.17 89.82,-0.73 131.12,-17.69 22.94,-9.42 44.6,-23.19 62.56,-40.34 l 1.9,1.63"
         style="fill:#000000;fill-opacity:1;fill-rule:nonzero;stroke:none"
         id="path74" />
      <path
         d="m 1237.87,1845.92 c -3.35,-8.39 -6.51,-15.71 -12.28,-22.78 -5.37,-6.59 -11.56,-11.69 -18.85,-16.06 -14.58,-8.76 -31.91,-13.7 -48.95,-13.1 -16.07,0.56 -33.23,6.6 -47.21,14.43 -7.32,4.1 -13.45,9.18 -17.28,16.74 -0.79,1.53 -1.49,3.12 -2.16,4.72 -0.85,8.31 -1.47,16.62 -1.39,25.01 0.1,10.38 1.08,20.77 0.78,31.16 21.17,1.15 42.37,9.01 59.55,20.78 15.71,10.76 52.59,41.23 31.38,62.14 -15.13,14.9 -40.16,18.13 -60.21,20.74 -21.47,2.79 -44.58,4.11 -65.85,-1.3 -0.97,-0.18 -1.95,-0.33 -2.91,-0.53 -15.68,-3.23 -34.52,-7.45 -45.32,-20.3 -22.975,-27.33 15.03,-58.86 36.78,-71.26 12.17,-6.93 25.63,-10.13 39.31,-10.4 -0.65,-11.48 -1.37,-22.99 -1.48,-34.49 -0.07,-7.23 0.1,-14.75 1.76,-21.85 -1.93,-7.13 -3.87,-13.67 -8.27,-19.95 -4.04,-5.76 -9.37,-10.53 -15.54,-13.9 -12.11,-6.62 -26.73,-8.16 -40.26,-6.35 -15.04,2.01 -30.15,7.9 -41.38,18.29 -6.082,5.63 -11.074,12.42 -12.879,20.6 -1.758,7.97 -0.586,15.74 1.133,23.62 l -0.93,0.01 c -4.961,-13.02 -9.121,-25.94 -2.246,-39.09 6.613,-12.67 20.449,-21.49 33.359,-26.58 14.603,-5.76 31.513,-7.51 47.193,-4.31 4.43,-1.51 8.86,-3.11 11.86,-6.91 4.8,-6.08 8.07,-12.76 13.78,-18.2 10.16,-9.67 25.16,-14.96 39.03,-11.26 10.9,2.92 18.61,11.13 25.4,19.67 3.47,4.35 6.81,8.84 10.74,12.8 4.48,4.51 9.19,6.44 14.8,9.06 l 0.29,0.2 c 21.04,0.28 42.21,7.64 58.77,20.17 12.13,9.18 20.45,23.1 20.89,38.62 0.03,0.91 -1.21,0.37 -1.41,-0.14"
         style="fill:#000000;fill-opacity:1;fill-rule:nonzero;stroke:none"
         id="path76" />
      <path
         d="m 1061.22,1896.19 c -13.14,4.58 -25.38,13.34 -35.48,22.76 -9.49,8.83 -20.72,22.15 -18.14,36.17 3.21,17.41 25.35,22.72 40.23,26.15 l 1.54,0.08 c 18.55,4.99 37.69,5.38 56.75,3.72 17.44,-1.52 35.58,-3.88 51.98,-10.34 12.32,-4.86 26.76,-13.49 21.12,-28.66 -4.37,-11.72 -15,-21.35 -24.56,-28.96 -25.3,-20.11 -61.88,-31.9 -93.44,-20.92"
         style="fill:#ffffff;fill-opacity:1;fill-rule:nonzero;stroke:none"
         id="path78" />
      <path
         d="m 1133.41,1774.94 c -6.53,-8.01 -12.8,-18.27 -22.95,-22.01 -14.84,-5.44 -31.11,3.68 -40.41,14.96 -4.22,5.12 -7.28,11.81 -13.53,14.85 -1.46,0.71 -3.03,1.1 -4.65,1.34 7.21,2.38 14,5.9 19.98,10.75 5.78,4.69 10.59,10.44 14.22,16.94 0.95,1.71 1.89,3.62 2.73,5.61 1.62,-2.86 3.69,-5.55 6.34,-8.04 10.4,-9.71 25.88,-14.94 39.35,-18.82 3.99,-1.15 8.07,-1.96 12.2,-2.5 -5.17,-3.65 -9.67,-8.66 -13.28,-13.08"
         style="fill:#ffffff;fill-opacity:1;fill-rule:nonzero;stroke:none"
         id="path80" />
      <path
         d="m 707.926,2260.43 c 9.316,-5.59 18.105,-3.68 26.082,1.85 -0.82,-3.57 -1.524,-7.17 -2.039,-10.79 -2.285,-16.01 -2.051,-32.8 -1.028,-48.94 1.067,-16.77 3.391,-33.56 7.297,-49.68 7.41,-30.53 20.332,-58.81 42.196,-76.75 24.035,-19.72 52.98,-21.13 80.91,-21.28 2.363,-0.02 4.734,-0.07 7.097,-0.11 4.036,-0.45 8.067,-0.93 12.11,-1.32 13.281,-1.32 26.691,-2.1 39.863,-4.58 11.477,-2.16 21.75,-6.65 29.738,-17.48 2.02,-2.74 6.942,-4.39 8.192,0.18 8.886,32.55 8.027,67.71 5.715,101.51 -0.793,11.52 -1.594,23.64 -2.981,35.72 -0.144,1.62 -0.262,3.24 -0.43,4.86 -6.238,60.09 -28.105,126.31 -70.078,160.09 -2.097,1.93 -4.218,3.81 -6.386,5.59 -16.864,13.81 -35.614,20.45 -55.731,21.74 -17.988,1.16 -35.988,-1.66 -51.633,-13.3 l -0.144,-0.12 c -4.317,-1.53 -8.34,-4.77 -12.246,-7.3 -5.762,-3.74 -11.555,-7.41 -17.617,-10.36 -5.782,-2.81 -11.75,-5.27 -17.942,-6.18 -5.488,-0.81 -13.203,-0.14 -17.891,3.82 -1.179,1 -2.734,-0.47 -1.484,-1.8 2.629,-2.83 4.895,-5.78 8.02,-7.81 3.007,-1.95 6.355,-2.9 9.707,-3.38 7.148,-1.03 14.277,0.4 21.093,3.15 l 0.633,0.29 c -1.883,-2.49 -3.75,-4.99 -5.605,-7.5 -3.653,-2.06 -6.875,-4.95 -10.742,-6.5 -3.555,-1.42 -7.11,-1.88 -10.829,-1.73 -7.394,0.28 -15.293,3.16 -21.066,9.07 -1.484,1.52 -3.164,-0.45 -1.863,-2.27 6.758,-9.47 15.429,-16.11 25.808,-17.21 1.536,-0.16 3.078,-0.16 4.629,-0.09 -1.941,-2.25 -3.965,-4.35 -6.152,-6.13 -9.102,-1.42 -17.149,0.33 -25.254,6.78 -1.785,1.41 -5.633,2.5 -6.336,-1.2 -2.383,-12.53 8.055,-25.83 16.387,-30.84"
         style="fill:#000000;fill-opacity:1;fill-rule:nonzero;stroke:none"
         id="path82" />
      <path
         d="m 744,2256.46 c 1.777,8.31 4.336,16.36 7.449,24.07 4.406,6 8.34,12.24 11.711,17.54 0.742,1.16 1.485,2.33 2.227,3.49 5.652,7.35 11.433,14.44 18.301,20.51 23.796,21.01 53.308,26.98 81.152,15.22 27.148,-11.46 47.637,-38.5 61.473,-68.81 15.234,-33.39 22.902,-72.72 25.332,-110.75 1.378,-21.61 1.074,-43.21 0.957,-64.86 -0.047,-9.77 0.058,-19.59 -0.332,-29.35 -0.106,-2.43 -0.293,-4.83 -0.516,-7.22 -15.324,5.2 -31.152,6.48 -46.973,7.05 -11.152,0.4 -22.297,0.8 -33.437,1.09 -9.492,0.57 -18.985,1.11 -28.477,1.97 -12.578,1.13 -25.402,1.33 -37.609,5.65 l -1.063,-0.05 c -8.488,3.29 -16.582,8.05 -23.937,15.08 -19.551,18.66 -29.07,47.79 -34.61,76.7 -5.632,29.41 -7.949,63.16 -1.648,92.67"
         style="fill:#ffffff;fill-opacity:1;fill-rule:nonzero;stroke:none"
         id="path84" />
      <g
         id="g86">
        <g
           id="g88"
           clip-path="url(#clipPath92)">
          <path
             d="m 985.844,2191.25 c 0,-62.32 -50.528,-112.85 -112.852,-112.85 -62.324,0 -112.851,50.53 -112.851,112.85 0,62.33 50.527,112.85 112.851,112.85 62.324,0 112.852,-50.52 112.852,-112.85"
             style="fill:#3b3b3b;fill-opacity:1;fill-rule:nonzero;stroke:none"
             id="path94" />
          <path
             d="m 947.477,2190.82 c 0,-37.24 -30.188,-67.43 -67.422,-67.43 -37.239,0 -67.434,30.19 -67.434,67.43 0,37.24 30.195,67.43 67.434,67.43 37.234,0 67.422,-30.19 67.422,-67.43"
             style="fill:#0a0a0a;fill-opacity:1;fill-rule:nonzero;stroke:none"
             id="path96" />
          <path
             d="m 842.973,2212.51 c 0,-13.51 -10.946,-24.47 -24.461,-24.47 -13.516,0 -24.465,10.96 -24.465,24.47 0,13.51 10.949,24.47 24.465,24.47 13.515,0 24.461,-10.96 24.461,-24.47"
             style="fill:#fdfdfd;fill-opacity:1;fill-rule:nonzero;stroke:none"
             id="path98" />
          <path
             d="m 840.953,2154.59 c 0,-8.81 -7.14,-15.95 -15.957,-15.95 -8.808,0 -15.949,7.14 -15.949,15.95 0,8.82 7.141,15.96 15.949,15.96 8.817,0 15.957,-7.14 15.957,-15.96"
             style="fill:#fdfdfd;fill-opacity:1;fill-rule:nonzero;stroke:none"
             id="path100" />
        </g>
      </g>
    </g>
  </g>
</svg>
