<?xml version="1.0" encoding="UTF-8" standalone="no"?>
<!-- Created with Inkscape (http://www.inkscape.org/) -->

<svg
   version="1.1"
   id="svg2"
   width="666.66669"
   height="666.66669"
   viewBox="0 0 666.66669 666.66669"
   sodipodi:docname="dino.svg"
   inkscape:version="1.3 (0e150ed6c4, 2023-07-21)"
   xmlns:inkscape="http://www.inkscape.org/namespaces/inkscape"
   xmlns:sodipodi="http://sodipodi.sourceforge.net/DTD/sodipodi-0.dtd"
   xmlns="http://www.w3.org/2000/svg"
   xmlns:svg="http://www.w3.org/2000/svg">
  <defs
     id="defs6">
    <clipPath
       clipPathUnits="userSpaceOnUse"
       id="clipPath18">
      <path
         d="M 0,500 H 500 V 0 H 0 Z"
         id="path16" />
    </clipPath>
  </defs>
  <sodipodi:namedview
     id="namedview4"
     pagecolor="#ffffff"
     bordercolor="#000000"
     borderopacity="0.25"
     inkscape:showpageshadow="2"
     inkscape:pageopacity="0.0"
     inkscape:pagecheckerboard="0"
     inkscape:deskcolor="#d1d1d1"
     inkscape:zoom="1.2282444"
     inkscape:cx="125.78929"
     inkscape:cy="304.09256"
     inkscape:window-width="2560"
     inkscape:window-height="1369"
     inkscape:window-x="1072"
     inkscape:window-y="259"
     inkscape:window-maximized="1"
     inkscape:current-layer="g8" />
  <g
     id="g8"
     inkscape:groupmode="layer"
     inkscape:label="8433356"
     transform="matrix(1.3333333,0,0,-1.3333333,0,666.66667)">
    <path
       d="M 0,0 H 500 V 500 H 0 Z"
       style="fill:#ffffff;fill-opacity:1;fill-rule:nonzero;stroke:none"
       id="path10" />
    <g
       id="g12">
      <g
         id="g14"
         clip-path="url(#clipPath18)">
        <g
           id="g20"
           transform="translate(435.3428,181.0654)">
          <path
             d="m 0,0 c -0.026,1.911 -0.319,3.056 -0.319,3.056 7.169,1.535 13.775,5.579 18.402,11.266 2.42,2.973 4.346,6.499 4.679,10.32 0.391,4.518 -1.582,9.116 -4.935,12.17 -3.353,3.052 -7.977,4.579 -12.51,4.429 3.675,4.633 6.492,9.448 6.854,14.732 0.362,5.282 -2.3,11.035 -7.235,12.955 5.875,4.758 12.43,9.685 14.163,16.95 1.819,7.627 -2.643,15.803 -9.271,19.992 -6.627,4.191 -14.924,4.957 -22.71,4.023 -0.712,6.203 -2.942,12.427 -7.212,16.695 -4.267,4.267 -10.492,6.496 -16.499,5.909 -6.008,-0.587 -11.682,-3.979 -15.044,-8.993 0.984,9.079 -3.258,18.102 -10.578,22.497 0,0 0.177,18.76 -15.346,22.542 -15.521,3.783 -21.913,-7.907 -21.913,-7.907 0,0 -1.043,37.907 -19.331,42.081 -18.287,4.174 -31.476,-11.514 -31.476,-11.514 0,0 -8.28,17.775 -22.366,15.558 -14.087,-2.218 -17.161,-15.994 -17.161,-15.994 -0.464,16.092 -19.303,14.15 -19.303,14.15 -6.336,11.566 -22.601,15.015 -34.7,9.767 -12.098,-5.248 -20.042,-17.58 -22.917,-30.451 -2.875,-12.871 -1.346,-26.308 1.078,-39.271 -6.403,1.138 -12.885,-0.209 -17.549,-3.726 -4.663,-3.517 -7.64,-8.93 -9.113,-14.582 -1.472,-5.653 -1.557,-11.573 -1.307,-17.408 -2.666,6.178 -8.188,11.436 -14.793,14.149 -6.605,2.713 -14.227,2.855 -20.929,0.389 -4.36,-1.604 -8.404,-4.367 -10.895,-8.288 -2.49,-3.922 -3.236,-9.077 -1.318,-13.308 -9.787,0.455 -19.666,-4.291 -25.428,-12.214 -5.762,-7.924 -6.851,-20.039 -3.401,-29.207 0,0 -4.96,0.216 -6.623,-3.354 -1.663,-3.571 1.11,-8.189 1.11,-8.189 -4.974,-1.436 -8.729,-6.338 -8.82,-11.515 -0.09,-5.176 3.491,-10.208 8.412,-11.816 -3.488,-3.451 -4.673,-8.829 -2.962,-13.232 1.711,-4.402 6.217,-7.568 10.94,-7.686"
             style="fill:#ffffff;fill-opacity:1;fill-rule:nonzero;stroke:none"
             id="path22" />
        </g>
        <g
           id="g24"
           transform="translate(67.0166,186.04)">
          <path
             d="m 0,0 c 0,0 11.345,-49.223 25.742,-59.495 0,0 105.719,6.308 182.437,2.529 76.717,-3.779 127.231,-0.53 127.231,-0.53 0,0 23.769,30.825 29.313,39.956 3.078,5.07 3.642,9.687 3.603,12.565"
             style="fill:#ffffff;fill-opacity:1;fill-rule:nonzero;stroke:none"
             id="path26" />
        </g>
        <g
           id="g28"
           transform="translate(435.3428,181.0654)">
          <path
             d="m 0,0 c -0.026,1.911 -0.319,3.056 -0.319,3.056 7.169,1.535 13.775,5.579 18.402,11.266 2.42,2.973 4.346,6.499 4.679,10.32 0.391,4.518 -1.582,9.116 -4.935,12.17 -3.353,3.052 -7.977,4.579 -12.51,4.429 3.675,4.633 6.492,9.448 6.854,14.732 0.362,5.282 -2.3,11.035 -7.235,12.955 5.875,4.758 12.43,9.685 14.163,16.95 1.819,7.627 -2.643,15.803 -9.271,19.992 -6.627,4.191 -14.924,4.957 -22.71,4.023 -0.712,6.203 -2.942,12.427 -7.212,16.695 -4.267,4.267 -10.492,6.496 -16.499,5.909 -6.008,-0.587 -11.682,-3.979 -15.044,-8.993 0.984,9.079 -3.258,18.102 -10.578,22.497 0,0 0.177,18.76 -15.346,22.542 -15.521,3.783 -21.913,-7.907 -21.913,-7.907 0,0 -1.043,37.907 -19.331,42.081 -18.287,4.174 -31.476,-11.514 -31.476,-11.514 0,0 -8.28,17.775 -22.366,15.558 -14.087,-2.218 -17.161,-15.994 -17.161,-15.994 -0.464,16.092 -19.303,14.15 -19.303,14.15 -6.336,11.566 -22.601,15.015 -34.7,9.767 -12.098,-5.248 -20.042,-17.58 -22.917,-30.451 -2.875,-12.871 -1.346,-26.308 1.078,-39.271 -6.403,1.138 -12.885,-0.209 -17.549,-3.726 -4.663,-3.517 -7.64,-8.93 -9.113,-14.582 -1.472,-5.653 -1.557,-11.573 -1.307,-17.408 -2.666,6.178 -8.188,11.436 -14.793,14.149 -6.605,2.713 -14.227,2.855 -20.929,0.389 -4.36,-1.604 -8.404,-4.367 -10.895,-8.288 -2.49,-3.922 -3.236,-9.077 -1.318,-13.308 -9.787,0.455 -19.666,-4.291 -25.428,-12.214 -5.762,-7.924 -6.851,-20.039 -3.401,-29.207 0,0 -4.96,0.216 -6.623,-3.354 -1.663,-3.571 1.11,-8.189 1.11,-8.189 -4.974,-1.436 -8.729,-6.338 -8.82,-11.515 -0.09,-5.176 3.491,-10.208 8.412,-11.816 -3.488,-3.451 -4.673,-8.829 -2.962,-13.232 1.711,-4.402 6.217,-7.568 10.94,-7.686"
             style="fill:none;stroke:#353535;stroke-width:1.8;stroke-linecap:round;stroke-linejoin:round;stroke-miterlimit:10;stroke-dasharray:none;stroke-opacity:1"
             id="path30" />
        </g>
        <g
           id="g32"
           transform="translate(67.0166,186.04)">
          <path
             d="m 0,0 c 0,0 11.345,-49.223 25.742,-59.495 0,0 105.719,6.308 182.437,2.529 76.717,-3.779 127.231,-0.53 127.231,-0.53 0,0 23.769,30.825 29.313,39.956 3.078,5.07 3.642,9.687 3.603,12.565"
             style="fill:none;stroke:#353535;stroke-width:1.8;stroke-linecap:round;stroke-linejoin:round;stroke-miterlimit:10;stroke-dasharray:none;stroke-opacity:1"
             id="path34" />
        </g>
        <g
           id="g36"
           transform="translate(401.6133,193.3623)">
          <path
             d="M 0,0 C 1.314,19.673 2.479,39.336 4.884,58.785 6.162,37.789 6.013,17.288 4.191,-3.668"
             style="fill:none;stroke:#353535;stroke-width:1.8;stroke-linecap:round;stroke-linejoin:round;stroke-miterlimit:10;stroke-dasharray:none;stroke-opacity:1"
             id="path38" />
        </g>
        <g
           id="g40"
           transform="translate(402.4268,208.8174)">
          <path
             d="M 0,0 C -12.683,4.716 -22.868,15.678 -26.106,28.936 -19.837,27.93 -13.88,25.047 -9.197,20.757 -4.516,16.466 -1.127,10.782 0,0 Z"
             style="fill:none;stroke:#353535;stroke-width:1.8;stroke-linecap:round;stroke-linejoin:round;stroke-miterlimit:10;stroke-dasharray:none;stroke-opacity:1"
             id="path42" />
        </g>
        <g
           id="g44"
           transform="translate(388.6475,233.041)">
          <path
             d="M 0,0 C -4.775,6.857 -7.449,15.159 -7.255,23.843 3.186,18.812 11.563,9.642 15.632,-1.211"
             style="fill:none;stroke:#353535;stroke-width:1.8;stroke-linecap:round;stroke-linejoin:round;stroke-miterlimit:10;stroke-dasharray:none;stroke-opacity:1"
             id="path46" />
        </g>
        <g
           id="g48"
           transform="translate(393.5059,248.5732)">
          <path
             d="M 0,0 C -1.338,2.92 -2.022,6.138 -1.937,9.462 0.396,8.368 2.453,6.688 3.992,4.621"
             style="fill:none;stroke:#353535;stroke-width:1.8;stroke-linecap:round;stroke-linejoin:round;stroke-miterlimit:10;stroke-dasharray:none;stroke-opacity:1"
             id="path50" />
        </g>
        <g
           id="g52"
           transform="translate(407.0127,209.167)">
          <path
             d="m 0,0 c 6.715,1.197 13.043,4.483 17.885,9.288 4.843,4.804 8.177,11.106 9.238,17.819 C 15.627,23.402 5.714,15.021 0.146,4.304"
             style="fill:none;stroke:#353535;stroke-width:1.8;stroke-linecap:round;stroke-linejoin:round;stroke-miterlimit:10;stroke-dasharray:none;stroke-opacity:1"
             id="path54" />
        </g>
        <g
           id="g56"
           transform="translate(407.2217,231.3428)">
          <path
             d="M 0,0 C 6.429,7.786 15.389,13.447 25.313,15.785 24.21,10.754 22.166,6.042 19.371,1.717"
             style="fill:none;stroke:#353535;stroke-width:1.8;stroke-linecap:round;stroke-linejoin:round;stroke-miterlimit:10;stroke-dasharray:none;stroke-opacity:1"
             id="path58" />
        </g>
        <g
           id="g60"
           transform="translate(407.1953,241.5781)">
          <path
             d="M 0,0 C 3.779,8.243 11.186,14.743 20.246,17.309 18.694,10.647 15.398,4.4 10.772,-0.639"
             style="fill:none;stroke:#353535;stroke-width:1.8;stroke-linecap:round;stroke-linejoin:round;stroke-miterlimit:10;stroke-dasharray:none;stroke-opacity:1"
             id="path62" />
        </g>
        <g
           id="g64"
           transform="translate(406.7168,252.3789)">
          <path
             d="M 0,0 C 3.321,8.287 10.168,15.092 18.506,18.076 17.556,12.649 15.472,7.424 12.426,2.833"
             style="fill:none;stroke:#353535;stroke-width:1.8;stroke-linecap:round;stroke-linejoin:round;stroke-miterlimit:10;stroke-dasharray:none;stroke-opacity:1"
             id="path66" />
        </g>
        <g
           id="g68"
           transform="translate(403.4004,261.0947)">
          <path
             d="M 0,0 C -2.643,7.592 -2.298,17.228 0.841,24.296 4.585,20.135 5.643,14.159 5.35,8.568 5.059,2.978 3.593,-2.486 2.971,-8.05"
             style="fill:none;stroke:#353535;stroke-width:1.8;stroke-linecap:round;stroke-linejoin:round;stroke-miterlimit:10;stroke-dasharray:none;stroke-opacity:1"
             id="path70" />
        </g>
        <g
           id="g72"
           transform="translate(408.7246,269.2178)">
          <path
             d="M 0,0 C 1.533,5.727 5.18,11.104 10.182,14.375 11.251,8 10.08,1.27 6.92,-4.37"
             style="fill:none;stroke:#353535;stroke-width:1.8;stroke-linecap:round;stroke-linejoin:round;stroke-miterlimit:10;stroke-dasharray:none;stroke-opacity:1"
             id="path74" />
        </g>
        <g
           id="g76"
           transform="translate(407.582,280.04)">
          <path
             d="M 0,0 C 0.346,5.245 2.27,10.374 5.514,14.669 7.254,9.692 7.533,4.213 6.307,-0.917"
             style="fill:none;stroke:#353535;stroke-width:1.8;stroke-linecap:round;stroke-linejoin:round;stroke-miterlimit:10;stroke-dasharray:none;stroke-opacity:1"
             id="path78" />
        </g>
        <g
           id="g80"
           transform="translate(404.7832,240.4082)">
          <path
             d="M 0,0 C -7.452,8.692 -10.871,20.709 -8.713,32.118 -3.536,26.205 0.086,18.943 1.692,11.25"
             style="fill:none;stroke:#353535;stroke-width:1.8;stroke-linecap:round;stroke-linejoin:round;stroke-miterlimit:10;stroke-dasharray:none;stroke-opacity:1"
             id="path82" />
        </g>
        <g
           id="g84"
           transform="translate(445.3027,140.3809)">
          <path
             d="m 0,0 c 3.587,11.932 12.513,22.149 24.018,27.527 -7.685,1.344 -15.993,-1.81 -21.914,-8.372 3.8,3.121 5.107,8.31 5.861,13.169 C 8.72,37.184 9.23,42.325 12.13,46.525 3.872,40.084 -2.278,30.981 -5.708,20.929 -5.87,36.32 -13.14,51.491 -24.768,59.543 c 2.174,-9.638 2.886,-19.605 1.698,-29.317 -0.767,5.362 -2.337,10.61 -4.585,15.507 -0.927,-4.468 -1.387,-9.034 -1.35,-13.503 -3.989,10.907 -12.123,20.24 -22.584,25.584 4.009,-7.004 6.122,-15.083 5.63,-23.004 -4.505,5.034 -7.806,11.139 -9.973,17.505 -1.516,-6.171 -1.361,-12.746 0.166,-19.394 -1.465,3.31 -3.505,6.366 -6.152,8.828 0.344,-3.399 0.066,-6.862 -1.244,-10.273 -3.982,8.158 -4.904,17.766 -2.527,26.585 -4.659,-4.707 -8.299,-10.414 -10.603,-16.622 0,0 -2.75,8.528 -12.142,11.136 0,0 2.426,-8.635 -1.2,-14.295 0,0 -7.864,3.894 -17.321,12.098 0,0 -10.205,-26.726 2.593,-42.525"
             style="fill:none;stroke:#353535;stroke-width:1.8;stroke-linecap:round;stroke-linejoin:round;stroke-miterlimit:10;stroke-dasharray:none;stroke-opacity:1"
             id="path86" />
        </g>
        <g
           id="g88"
           transform="translate(344.6543,151.3457)">
          <path
             d="m 0,0 c 6.786,4.964 16.296,6.348 23.558,2.107 2.801,-1.638 5.286,-3.975 8.433,-4.772 4.997,-1.266 9.961,1.653 14.892,3.153 8.028,2.44 17.152,0.948 23.982,-3.924 6.831,-4.871 11.216,-13.01 11.525,-21.394 0,0 -30.131,-11.95 -60.262,-7.255 -30.13,4.695 -33.766,17.885 -33.766,17.885 0,0 3.075,7.936 11.638,14.2"
             style="fill:#ffffff;fill-opacity:1;fill-rule:nonzero;stroke:none"
             id="path90" />
        </g>
        <g
           id="g92"
           transform="translate(344.6543,151.3457)">
          <path
             d="m 0,0 c 6.786,4.964 16.296,6.348 23.558,2.107 2.801,-1.638 5.286,-3.975 8.433,-4.772 4.997,-1.266 9.961,1.653 14.892,3.153 8.028,2.44 17.152,0.948 23.982,-3.924 6.831,-4.871 11.216,-13.01 11.525,-21.394 0,0 -30.131,-11.95 -60.262,-7.255 -30.13,4.695 -33.766,17.885 -33.766,17.885 0,0 3.075,7.936 11.638,14.2 z"
             style="fill:none;stroke:#353535;stroke-width:1.8;stroke-linecap:round;stroke-linejoin:round;stroke-miterlimit:10;stroke-dasharray:none;stroke-opacity:1"
             id="path94" />
        </g>
        <g
           id="g96"
           transform="translate(450.8701,116.8428)">
          <path
             d="m 0,0 c 2.509,2.072 4.88,4.421 6.334,7.332 1.452,2.91 1.877,6.476 0.483,9.416 -1.794,3.781 -6.09,5.707 -10.206,6.473 -7.497,1.392 -15.75,0.243 -21.956,-4.188 -6.83,-4.876 -0.177,-17.137 5.562,-20.007 C -14.044,-3.843 0,0 0,0"
             style="fill:#ffffff;fill-opacity:1;fill-rule:nonzero;stroke:none"
             id="path98" />
        </g>
        <g
           id="g100"
           transform="translate(450.8701,116.8428)">
          <path
             d="m 0,0 c 2.509,2.072 4.88,4.421 6.334,7.332 1.452,2.91 1.877,6.476 0.483,9.416 -1.794,3.781 -6.09,5.707 -10.206,6.473 -7.497,1.392 -15.75,0.243 -21.956,-4.188 -6.83,-4.876 -0.177,-17.137 5.562,-20.007 C -14.044,-3.843 0,0 0,0 Z"
             style="fill:none;stroke:#353535;stroke-width:1.8;stroke-linecap:round;stroke-linejoin:round;stroke-miterlimit:10;stroke-dasharray:none;stroke-opacity:1"
             id="path102" />
        </g>
        <g
           id="g104"
           transform="translate(87.7578,184.0215)">
          <path
             d="m 0,0 c 1.208,6.155 2.408,12.294 3.636,18.394 l 5.472,25.674 c 1.012,4.442 2.08,8.865 3.214,13.297 -0.309,-4.685 -0.703,-9.398 -1.19,-14.111 L 7.234,14.505 C 6.091,7.739 4.788,1.012 3.345,-5.613"
             style="fill:none;stroke:#353535;stroke-width:1.8;stroke-linecap:round;stroke-linejoin:round;stroke-miterlimit:10;stroke-dasharray:none;stroke-opacity:1"
             id="path106" />
        </g>
        <g
           id="g108"
           transform="translate(90.4751,203.417)">
          <path
             d="m 0,0 c 0.173,-1.387 0.112,-2.896 0.075,-4.497 -9.614,5.041 -17.12,13.868 -20.493,24.156 0,0 18.513,-4.34 20.418,-19.659 z"
             style="fill:none;stroke:#353535;stroke-width:1.8;stroke-linecap:round;stroke-linejoin:round;stroke-miterlimit:10;stroke-dasharray:none;stroke-opacity:1"
             id="path110" />
        </g>
        <g
           id="g112"
           transform="translate(86.7427,239.4854)">
          <path
             d="M 0,0 C -0.957,3.066 -1.229,6.345 -0.722,9.631 1.455,8.251 3.281,6.323 4.545,4.077"
             style="fill:none;stroke:#353535;stroke-width:1.8;stroke-linecap:round;stroke-linejoin:round;stroke-miterlimit:10;stroke-dasharray:none;stroke-opacity:1"
             id="path114" />
        </g>
        <g
           id="g116"
           transform="translate(117.9307,220.3027)">
          <path
             d="M 0,0 C 2.324,0.853 5.126,1.368 7.553,1.828 7.178,0.544 6.719,-0.722 6.175,-1.939 3.896,-6.868 -11.305,-12.944 -21.542,-11.472"
             style="fill:none;stroke:#353535;stroke-width:1.8;stroke-linecap:round;stroke-linejoin:round;stroke-miterlimit:10;stroke-dasharray:none;stroke-opacity:1"
             id="path118" />
        </g>
        <g
           id="g120"
           transform="translate(99.4331,230.8105)">
          <path
             d="M 0,0 C 4.796,7.696 12.966,13.204 22.279,14.6 19.895,8.188 15.832,2.411 10.605,-2.001"
             style="fill:none;stroke:#353535;stroke-width:1.8;stroke-linecap:round;stroke-linejoin:round;stroke-miterlimit:10;stroke-dasharray:none;stroke-opacity:1"
             id="path122" />
        </g>
        <g
           id="g124"
           transform="translate(100.3296,241.585)">
          <path
             d="M 0,0 C 4.345,7.798 12.001,13.681 20.651,15.58 19.019,10.318 16.288,5.4 12.685,1.232"
             style="fill:none;stroke:#353535;stroke-width:1.8;stroke-linecap:round;stroke-linejoin:round;stroke-miterlimit:10;stroke-dasharray:none;stroke-opacity:1"
             id="path126" />
        </g>
        <g
           id="g128"
           transform="translate(98.2495,251.6855)">
          <path
             d="M 0,0 C -1.659,7.865 -0.197,16.346 3.813,22.958 7,18.354 7.289,12.294 6.29,6.785 5.292,1.276 3.145,-3.957 1.822,-9.396"
             style="fill:none;stroke:#353535;stroke-width:1.8;stroke-linecap:round;stroke-linejoin:round;stroke-miterlimit:10;stroke-dasharray:none;stroke-opacity:1"
             id="path130" />
        </g>
        <g
           id="g132"
           transform="translate(104.3574,258.333)">
          <path
             d="M 0,0 C 2.247,5.485 6.646,10.056 12.023,12.666 12.275,6.206 10.261,-0.32 6.41,-5.513"
             style="fill:none;stroke:#353535;stroke-width:1.8;stroke-linecap:round;stroke-linejoin:round;stroke-miterlimit:10;stroke-dasharray:none;stroke-opacity:1"
             id="path134" />
        </g>
        <g
           id="g136"
           transform="translate(104.6973,268.9121)">
          <path
             d="M 0,0 C 1.008,5.158 3.567,10.002 7.33,13.852 8.425,8.693 8.007,3.223 6.14,-1.709"
             style="fill:none;stroke:#353535;stroke-width:1.8;stroke-linecap:round;stroke-linejoin:round;stroke-miterlimit:10;stroke-dasharray:none;stroke-opacity:1"
             id="path138" />
        </g>
        <g
           id="g140"
           transform="translate(96.8936,229.9551)">
          <path
             d="M 0,0 C -6.29,9.568 -8.156,21.922 -4.569,32.964 -0.184,26.443 2.488,18.779 3.105,10.945"
             style="fill:none;stroke:#353535;stroke-width:1.8;stroke-linecap:round;stroke-linejoin:round;stroke-miterlimit:10;stroke-dasharray:none;stroke-opacity:1"
             id="path142" />
        </g>
        <g
           id="g144"
           transform="translate(95.2061,220.3027)">
          <path
             d="m 0,0 c -17.597,2.773 -19.368,16.821 -19.368,16.821 -0.622,3.965 -0.674,8.049 -0.056,12.144 C -12.199,24.271 -6.399,17.458 -2.81,9.634 -2.81,9.634 -0.5,4.618 0,0"
             style="fill:none;stroke:#353535;stroke-width:1.8;stroke-linecap:round;stroke-linejoin:round;stroke-miterlimit:10;stroke-dasharray:none;stroke-opacity:1"
             id="path146" />
        </g>
        <g
           id="g148"
           transform="translate(96.917,212.7256)">
          <path
             d="m 0,0 c 14.866,-0.399 21.014,7.577 21.014,7.577 3.158,3.833 5.669,8.116 7.337,12.801 -7.656,-0.807 -15.002,-3.551 -21.309,-7.825 0,0 -3.068,-1.8 -5.807,-4.976"
             style="fill:none;stroke:#353535;stroke-width:1.8;stroke-linecap:round;stroke-linejoin:round;stroke-miterlimit:10;stroke-dasharray:none;stroke-opacity:1"
             id="path150" />
        </g>
        <g
           id="g152"
           transform="translate(67.7046,172.1309)">
          <path
             d="m 0,0 c -1.468,1.679 -3.194,3.131 -5.109,4.273 -4.044,2.413 -8.902,3.43 -13.574,2.842 8.062,-8.715 14.443,-19.819 17.845,-31.784 -4.645,12.293 -20.254,18.718 -24.922,31.564 -1.464,-13.807 2.046,-27.386 9.103,-38.807 -2.095,1.913 -4.873,3.047 -7.691,3.568 -2.818,0.524 -5.707,0.481 -8.572,0.435 7.042,-2.733 13.415,-7.77 17.454,-14.286 l 87.588,11.206 c 8.315,7.727 4.583,15.848 4.583,15.848 -2.559,-2.87 -4.487,-6.299 -5.607,-9.978 0,0 -0.64,3.717 -1.325,7.433 -0.684,3.718 -2.79,8.487 -2.79,8.487 -2.433,-3.081 -4.252,-6.646 -5.323,-10.421 0,0 -2.843,6.434 -3.137,10.421 -0.293,3.987 -3.09,8.288 -3.09,8.288 -0.649,-2.676 -1.88,-5.21 -3.583,-7.373 0,0 -3.989,1.722 -4.446,7.373 C 47.143,2.323 44.603,8.435 44.603,8.435 43.204,2.216 40.58,-3.728 36.928,-8.952 38.286,-3.669 34.449,1.908 35.51,7.288 31.261,3.299 27.742,-1.411 25.054,-6.562 25.813,-1.485 24.71,4.422 22.107,8.846 19.321,13.58 14.726,17.525 13.902,22.957 11.579,17.497 10.974,11.56 11.588,5.746 10.545,8.695 8.918,11.361 6.955,13.685 4.992,16.009 2.691,18.019 0.4,20.02 -1.015,13.684 -1.146,6.464 -0.001,0"
             style="fill:#ffffff;fill-opacity:1;fill-rule:nonzero;stroke:none"
             id="path154" />
        </g>
        <g
           id="g156"
           transform="translate(67.7046,172.1309)">
          <path
             d="M 0,0 C 1.631,-1.865 2.943,-4.011 3.838,-6.322"
             style="fill:none;stroke:#353535;stroke-width:1.8;stroke-linecap:round;stroke-linejoin:round;stroke-miterlimit:10;stroke-dasharray:none;stroke-opacity:1"
             id="path158" />
        </g>
        <g
           id="g160"
           transform="translate(87.7622,151.6104)">
          <path
             d="M 0,0 C 1.018,4.856 2.704,9.567 4.996,13.959"
             style="fill:none;stroke:#353535;stroke-width:1.8;stroke-linecap:round;stroke-linejoin:round;stroke-miterlimit:10;stroke-dasharray:none;stroke-opacity:1"
             id="path162" />
        </g>
        <g
           id="g164"
           transform="translate(67.7046,172.1309)">
          <path
             d="m 0,0 c -1.468,1.679 -3.194,3.131 -5.109,4.273 -4.044,2.413 -8.902,3.43 -13.574,2.842 8.062,-8.715 14.443,-19.819 17.845,-31.784 -4.645,12.293 -20.254,18.718 -24.922,31.564 -1.464,-13.807 2.046,-27.386 9.103,-38.807 -2.095,1.913 -4.873,3.047 -7.691,3.568 -2.818,0.524 -5.707,0.481 -8.572,0.435 7.042,-2.733 13.415,-7.77 17.454,-14.286 l 87.588,11.206 c 8.315,7.727 4.583,15.848 4.583,15.848 -2.559,-2.87 -4.487,-6.299 -5.607,-9.978 0,0 -0.64,3.717 -1.325,7.433 -0.684,3.718 -2.79,8.487 -2.79,8.487 -2.433,-3.081 -4.252,-6.646 -5.323,-10.421 0,0 -2.843,6.434 -3.137,10.421 -0.293,3.987 -3.09,8.288 -3.09,8.288 -0.649,-2.676 -1.88,-5.21 -3.583,-7.373 0,0 -3.989,1.722 -4.446,7.373 C 47.143,2.323 44.603,8.435 44.603,8.435 43.204,2.216 40.58,-3.728 36.928,-8.952 38.286,-3.669 34.449,1.908 35.51,7.288 31.261,3.299 27.742,-1.411 25.054,-6.562 25.813,-1.485 24.71,4.422 22.107,8.846 19.321,13.58 14.726,17.525 13.902,22.957 11.579,17.497 10.974,11.56 11.588,5.746 10.545,8.695 8.918,11.361 6.955,13.685 4.992,16.009 2.691,18.019 0.4,20.02 -1.015,13.684 -1.146,6.464 -0.001,0"
             style="fill:none;stroke:#353535;stroke-width:1.8;stroke-linecap:round;stroke-linejoin:round;stroke-miterlimit:10;stroke-dasharray:none;stroke-opacity:1"
             id="path166" />
        </g>
        <g
           id="g168"
           transform="translate(92.6191,138.9541)">
          <path
             d="m 0,0 c 1.247,2.977 2.562,5.97 4.571,8.494 2.009,2.526 4.816,4.567 8.012,5 3.42,0.464 6.817,-0.925 10.266,-1.035 3.799,-0.122 7.504,1.309 11.305,1.333 3.735,0.023 7.461,-1.372 10.261,-3.845 2.801,-2.471 4.648,-5.997 5.087,-9.706 l -45.485,-7.39 -4.68,1.673 z"
             style="fill:#ffffff;fill-opacity:1;fill-rule:nonzero;stroke:none"
             id="path170" />
        </g>
        <g
           id="g172"
           transform="translate(92.6191,138.9541)">
          <path
             d="m 0,0 c 1.247,2.977 2.562,5.97 4.571,8.494 2.009,2.526 4.816,4.567 8.012,5 3.42,0.464 6.817,-0.925 10.266,-1.035 3.799,-0.122 7.504,1.309 11.305,1.333 3.735,0.023 7.461,-1.372 10.261,-3.845 2.801,-2.471 4.648,-5.997 5.087,-9.706 l -45.485,-7.39 -4.68,1.673 z"
             style="fill:none;stroke:#353535;stroke-width:1.8;stroke-linecap:round;stroke-linejoin:round;stroke-miterlimit:10;stroke-dasharray:none;stroke-opacity:1"
             id="path174" />
        </g>
        <g
           id="g176"
           transform="translate(96.6362,131.8047)">
          <path
             d="m 0,0 c -0.949,5.166 -6.15,9.181 -11.387,8.793 -4.306,-0.319 -8.05,-3.164 -12.31,-3.87 -3.622,-0.6 -7.357,0.389 -10.991,-0.131 -4.146,-0.596 -7.941,-3.267 -9.899,-6.968 -1.958,-3.703 -2.03,-8.342 -0.188,-12.104 z"
             style="fill:#ffffff;fill-opacity:1;fill-rule:nonzero;stroke:none"
             id="path178" />
        </g>
        <g
           id="g180"
           transform="translate(96.6362,131.8047)">
          <path
             d="m 0,0 c -0.949,5.166 -6.15,9.181 -11.387,8.793 -4.306,-0.319 -8.05,-3.164 -12.31,-3.87 -3.622,-0.6 -7.357,0.389 -10.991,-0.131 -4.146,-0.596 -7.941,-3.267 -9.899,-6.968 -1.958,-3.703 -2.03,-8.342 -0.188,-12.104 z"
             style="fill:none;stroke:#353535;stroke-width:1.8;stroke-linecap:round;stroke-linejoin:round;stroke-miterlimit:10;stroke-dasharray:none;stroke-opacity:1"
             id="path182" />
        </g>
        <g
           id="g184"
           transform="translate(346.71,140.3076)">
          <path
             d="m 0,0 c 67.803,-7.896 114.396,-20.456 114.396,-36.264 0,-22.499 -94.221,-55.773 -210.404,-55.773 -116.176,0 -210.33,33.274 -210.33,55.773 0,18.375 62.772,33.903 149.046,38.982 C -51.341,6.704 0,0 0,0"
             style="fill:#ffffff;fill-opacity:1;fill-rule:nonzero;stroke:none"
             id="path186" />
        </g>
        <g
           id="g188"
           transform="translate(122.2495,136.3525)">
          <path
             d="m 0,0 c -0.86,-11.146 4.088,-22.578 12.803,-29.578 8.714,-6.999 20.946,-9.367 31.642,-6.124 5.61,1.701 10.678,4.791 16.021,7.198 5.343,2.407 11.298,4.159 17.033,2.947 16.969,-6.535 23.915,-6.632 32.523,-1.448 8.609,5.185 20.136,5.53 29.682,-1.685 2.947,-2.228 6.71,-3.148 10.372,-2.673 3.662,0.476 7.133,1.869 10.71,2.788 3.577,0.919 7.474,1.343 10.881,-0.082 25.91,-7.348 38.062,0.09 66.518,4.148 5.904,0.842 11.524,3.605 15.745,7.816 4.223,4.21 7.026,9.819 7.858,15.723"
             style="fill:none;stroke:#353535;stroke-width:1.2;stroke-linecap:round;stroke-linejoin:round;stroke-miterlimit:10;stroke-dasharray:none;stroke-opacity:1"
             id="path190" />
        </g>
        <g
           id="g192"
           transform="translate(79.9351,127.835)">
          <path
             d="m 0,0 c -26.174,-23.774 6.099,-39.612 24.415,-48.756 40.186,-20.059 87.615,-14.846 132.472,-17.146 27.329,-1.403 54.917,-5.757 81.876,-1.049 16.077,2.807 31.402,8.763 46.94,13.759 13.432,4.319 27.463,8.127 38.586,16.81 11.122,8.682 30.625,24.305 13.727,37.091"
             style="fill:none;stroke:#353535;stroke-width:1.2;stroke-linecap:round;stroke-linejoin:round;stroke-miterlimit:10;stroke-dasharray:none;stroke-opacity:1"
             id="path194" />
        </g>
        <g
           id="g196"
           transform="translate(176.9707,141.7764)">
          <path
             d="M -0.07444627,0.14882648 C 1.729599,-3.0887932 4.4546655,-5.666072 7.6001803,-7.1074908 c 3.1455147,-1.4423474 6.6957827,-1.7423334 9.9982437,-0.8460905 13.057852,4.6957558 26.956599,2.0116708 38.430955,-4.1868007 11.475181,-6.199401 51.369861,-9.925543 57.711271,13.2578939"
             style="fill:none;stroke:#353535;stroke-width:1.05106;stroke-linecap:round;stroke-linejoin:round;stroke-miterlimit:10;stroke-dasharray:none;stroke-opacity:1"
             id="path198" />
        </g>
        <g
           id="g200"
           transform="translate(346.71,140.3076)">
          <path
             d="m 0,0 c 67.803,-7.896 114.396,-20.456 114.396,-36.264 0,-22.499 -94.221,-55.773 -210.404,-55.773 -116.176,0 -210.33,33.274 -210.33,55.773 0,18.375 62.772,33.903 149.046,38.982 C -51.341,6.704 0,0 0,0 Z"
             style="fill:none;stroke:#353535;stroke-width:1.8;stroke-linecap:round;stroke-linejoin:round;stroke-miterlimit:10;stroke-dasharray:none;stroke-opacity:1"
             id="path202" />
        </g>
        <g
           id="g204"
           transform="translate(182.1733,262.8511)">
          <path
             d="m 0,0 c -3.908,0.783 -8.326,0.895 -12.297,0.551 -2.987,-0.258 -6.129,-0.928 -8.283,-3.012 -2.385,-2.306 -3.064,-5.95 -2.557,-9.228 0.508,-3.278 2.085,-6.772 3.594,-9.727 -0.935,0.352 -1.883,0.669 -2.845,0.951 -1.765,0.514 -3.684,0.9 -5.417,0.284 -2.207,-0.784 -3.603,-3.067 -4,-5.375 -0.397,-2.307 -0.011,-4.913 0.415,-7.217 -0.957,1.08 -1.986,2.095 -3.1,3.029 -1.469,1.233 -3.335,2.364 -5.198,1.909 -1.205,-0.295 -2.156,-1.205 -2.941,-2.165 -1.933,-2.364 -3.204,-5.224 -3.938,-8.19 -0.734,-2.965 -0.952,-6.159 -0.917,-9.214 -0.37,0.088 -0.74,0.18 -1.11,0.275 -3.233,0.824 -6.391,1.714 -9.473,2.641 -1.95,0.581 -3.871,1.182 -5.764,1.799 -0.14,0.048 -0.271,0.095 -0.412,0.141 -4.835,1.585 -9.492,3.26 -13.971,4.975 -1.715,0.656 -3.402,1.322 -5.07,1.997 -0.674,0.271 -1.349,0.543 -2.024,0.815 -1.508,0.618 -2.998,1.228 -4.469,1.846 -5.828,2.456 -11.338,4.891 -16.558,7.188 -11.169,4.919 -21.008,9.174 -29.817,11.432 -2.408,0.617 -16.688,4.094 -12.575,-0.985 3.561,-4.386 22.349,-13.859 36.611,-24.494 3.589,-2.689 6.887,-5.434 9.586,-8.199 3.673,-3.757 7.252,-7.6 10.832,-11.461 0.3,-0.336 0.609,-0.665 0.918,-1.001 1.199,-1.293 2.399,-2.587 3.598,-3.89 8.387,-9.032 16.886,-17.944 26.434,-25.712 15.359,-12.482 33.041,-22.611 52.419,-26.641 7.347,-1.518 15.165,-2.202 21.94,-5.425 2.497,-5.44 4.72,-10.97 5.415,-16.879 1.229,-10.437 -2.446,-20.731 -4.787,-30.977 -0.843,-3.69 -1.495,-7.664 -0.075,-11.171 1.705,-4.212 6.128,-6.824 10.604,-7.601 4.475,-0.779 9.059,-0.029 14.112,0.571 5.199,-2.26 10.747,-4.573 16.351,-3.719 1.097,0.167 2.239,0.492 2.987,1.31 0.794,0.868 0.985,2.105 1.062,3.289 4.128,-1.672 8.513,-3.129 12.961,-2.864 1.71,0.102 3.532,0.531 4.662,1.82 0.768,0.876 1.102,2.01 1.276,3.181 1.679,-1.209 3.742,-2.582 5.648,-3.182 2.057,-0.648 4.464,-0.569 6.185,0.732 1.005,0.757 1.702,1.87 2.121,3.056 0.42,1.186 0.581,2.448 0.662,3.704 0.175,2.7 -0.015,5.467 -0.992,7.99 -0.976,2.522 -2.804,4.788 -5.268,5.905 -0.086,0.039 -0.174,0.077 -0.262,0.113 -5.814,8.086 -10.062,17.199 -12.538,26.787 11.344,0.492 22.982,3.145 33.477,7.462 5.942,-6.982 6.319,-17.617 3.887,-26.457 -0.766,-2.786 -1.757,-5.725 -0.92,-8.49 0.719,-2.368 2.711,-4.185 4.949,-5.236 2.24,-1.051 4.728,-1.435 7.184,-1.741 14.752,-1.833 29.684,-1.279 44.539,-0.72 2.058,0.077 4.223,0.185 5.967,1.282 1.108,0.696 1.939,1.745 2.483,2.941 1.109,-1.556 3.575,-2.853 5.487,-2.836 1.851,0.019 3.668,0.957 4.76,2.449 1.107,-0.767 2.509,-1.508 3.851,-1.606 1.343,-0.096 2.779,0.401 3.563,1.494 0.798,1.114 0.799,2.598 0.689,3.964 -0.226,2.811 -0.831,5.7 -2.534,7.947 -1.703,2.247 -4.578,3.563 -7.262,2.704 -0.164,0.17 -0.334,0.332 -0.512,0.487 -9.951,8.385 -15.606,21.639 -18.909,34.225 -2.871,10.937 -4.545,22.187 -4.989,33.487 1.693,0.768 3.304,1.985 4.072,3.68 -0.305,-2.359 -0.339,-4.751 -0.1,-7.117 0.167,-1.65 0.744,-3.609 2.349,-4.029 1.187,-0.31 2.388,0.398 3.338,1.172 2.897,2.351 4.822,5.683 6.068,9.198 0.092,0.26 0.175,0.511 0.247,0.754 -1.02,-3.529 -0.822,-7.133 0.038,-10.573 0.388,-1.554 1.09,-3.231 2.569,-3.842 1.021,-0.425 2.229,-0.222 3.185,0.337 0.956,0.56 1.685,1.438 2.273,2.376 1.947,3.108 2.464,6.872 2.937,10.51 2.424,33.456 -11.268,67.376 -35.578,89.933 -0.965,3.51 -1.894,7.029 -2.746,10.569 -1.669,6.934 -3.028,14.28 -0.992,21.116 1.865,6.272 6.454,11.454 11.788,15.246 5.334,3.791 11.099,6.913 17.719,9.159 8.925,3.026 18.216,5.215 26.678,9.36 3,1.471 5.975,3.103 8.371,5.432 2.394,2.327 4.178,5.222 4.283,8.561 1.32,0.179 2.591,0.579 3.724,1.284 2.909,1.808 4.356,5.251 5.162,8.58 1.684,6.962 1.28,14.502 -1.652,21.039 -2.932,6.535 -8.479,11.964 -15.265,14.256 -5.513,1.861 -11.385,1.624 -17.205,0.753 -1.096,6.217 -2.427,12.782 -5.616,18.232 -3.188,5.448 -8.889,9.879 -15.202,9.738 -3.098,-0.069 -6.064,-1.208 -9.085,-1.913 -1.153,4.528 -2.696,9.182 -4.837,13.335 -2.14,4.155 -5.047,7.977 -8.814,10.74 -2.071,1.519 -4.489,2.733 -7.058,2.774 -3.363,0.054 -6.456,-1.904 -8.834,-4.282 -2.378,-2.377 -4.492,-5.497 -6.85,-7.895 -1.739,1.966 -3.761,3.697 -5.939,5.157 -4.55,3.051 -9.765,4.99 -15.077,6.319 -1.838,0.459 -3.764,0.85 -5.61,0.436 -3.792,-0.851 -6.049,-4.739 -7.299,-8.42 -2.279,-6.71 -2.848,-14.126 -1.441,-21.073 -0.812,-0.662 -1.601,-1.352 -2.363,-2.069 -3.164,3.872 -6.798,7.724 -10.923,10.551 -4.127,2.826 -8.833,4.884 -13.786,5.574 -3.152,0.438 -6.717,0.182 -8.967,-2.067 -2.03,-2.027 -2.461,-5.13 -2.544,-7.998 -0.296,-10.34 2.181,-20.628 6.094,-30.203 -0.671,0.072 -1.347,0.108 -2.023,0.107 -7.004,-0.006 -13.877,-3.913 -17.464,-9.927 -1.316,-2.206 -2.222,-4.791 -1.818,-7.327 0.405,-2.534 2.047,-4.683 3.756,-6.598 5.633,-6.309 12.925,-11.772 19.765,-16.748 -2.751,-2.519 -4.862,-5.787 -6.049,-9.332 -2.145,-6.406 -1.469,-13.56 1.096,-19.809 2.566,-6.25 6.891,-12.056 11.917,-16.569 -2.211,-4.671 -3.73,-9.662 -4.489,-14.777 -1.418,2.328 -3.018,4.543 -4.797,6.611 -4.97,5.768 -11.369,10.357 -18.557,12.867 -3.322,1.16 -7.24,1.803 -10.17,-0.143 -1.558,-1.036 -2.623,-2.697 -3.225,-4.467 -0.602,-1.771 -0.775,-3.657 -0.843,-5.527 -0.255,-7 0.835,-14.531 2.109,-21.42 -6.102,5.086 -13.492,8.539 -21.372,9.368 -2.15,0.225 -4.445,0.231 -6.317,-0.847 C -3.79,20.395 -4.964,18.35 -5.347,16.231 -5.729,14.113 -5.399,11.922 -4.805,9.852 -3.783,6.298 -2.037,3.083 0,0"
             style="fill:#ffffff;fill-opacity:1;fill-rule:nonzero;stroke:none"
             id="path206" />
        </g>
        <g
           id="g208"
           transform="translate(247.9102,302.6558)">
          <path
             d="M 0,0 C -2.21,-4.67 -3.729,-9.662 -4.489,-14.777"
             style="fill:none;stroke:#353535;stroke-width:1.8;stroke-linecap:round;stroke-linejoin:round;stroke-miterlimit:10;stroke-dasharray:none;stroke-opacity:1"
             id="path210" />
        </g>
        <g
           id="g212"
           transform="translate(307.7852,215.3594)">
          <path
             d="m 0,0 c 0.496,4.501 2.558,8.812 5.749,12.022 2.884,0.016 5.824,-0.626 8.272,-2.17 2.448,-1.545 4.355,-4.058 4.804,-6.918 0.45,-2.86 -0.721,-6.006 -3.147,-7.587 -2.506,-1.634 -5.876,-1.395 -8.597,-0.152 -2.723,1.244 -4.937,3.353 -7.355,5.129 -7.221,-0.988 -14.622,-1.557 -21.756,-0.067 -7.135,1.49 -14.049,5.276 -17.964,11.424 -5.527,8.68 -4.07,20.165 -0.191,29.696 3.88,9.531 9.914,18.098 13.606,27.637 1.556,4.699 1.328,9.909 -0.306,14.581 -1.634,4.673 -4.623,8.815 -8.314,12.112 -2.888,2.58 -6.476,4.745 -10.346,4.629 -2.862,-0.085 -5.585,-1.438 -7.726,-3.338 -2.141,-1.901 -3.752,-4.324 -5.136,-6.831 -0.519,-0.942 -1.008,-1.899 -1.468,-2.871"
             style="fill:none;stroke:#353535;stroke-width:1.8;stroke-linecap:round;stroke-linejoin:round;stroke-miterlimit:10;stroke-dasharray:none;stroke-opacity:1"
             id="path214" />
        </g>
        <g
           id="g216"
           transform="translate(240.9463,348.3662)">
          <path
             d="M 0,0 C 2.221,2.034 4.858,3.58 7.765,4.391"
             style="fill:none;stroke:#353535;stroke-width:1.8;stroke-linecap:round;stroke-linejoin:round;stroke-miterlimit:10;stroke-dasharray:none;stroke-opacity:1"
             id="path218" />
        </g>
        <g
           id="g220"
           transform="translate(247.9106,302.6558)">
          <path
             d="m 0,0 c -5.026,4.514 -9.352,10.319 -11.917,16.569 -2.565,6.249 -3.241,13.404 -1.097,19.809 1.188,3.545 3.299,6.813 6.05,9.332"
             style="fill:none;stroke:#353535;stroke-width:1.8;stroke-linecap:round;stroke-linejoin:round;stroke-miterlimit:10;stroke-dasharray:none;stroke-opacity:1"
             id="path222" />
        </g>
        <g
           id="g224"
           transform="translate(238.7305,388.8589)">
          <path
             d="m 0,0 c -3.913,9.576 -6.391,19.863 -6.094,30.204 0.083,2.867 0.514,5.97 2.544,7.997 2.25,2.249 5.815,2.506 8.967,2.067 4.953,-0.689 9.659,-2.748 13.786,-5.574 4.125,-2.826 7.759,-6.679 10.923,-10.55"
             style="fill:none;stroke:#353535;stroke-width:1.8;stroke-linecap:round;stroke-linejoin:round;stroke-miterlimit:10;stroke-dasharray:none;stroke-opacity:1"
             id="path226" />
        </g>
        <g
           id="g228"
           transform="translate(330.792,374.3916)">
          <path
             d="m 0,0 c 0.214,-5.697 -3.195,-10.973 -7.816,-14.028 -4.854,0.253 -9.754,-0.403 -14.374,-1.921 -2.389,0.797 -4.581,2.136 -6.296,4.001 -2.343,2.549 -3.748,5.876 -4.199,9.305 -0.543,4.123 0.319,8.443 2.521,11.966 2.212,3.524 5.79,6.204 9.83,7.178 4.853,1.162 10.195,-0.206 14.027,-3.411 C -2.483,9.895 -0.197,4.985 0,0"
             style="fill:#353535;fill-opacity:1;fill-rule:nonzero;stroke:none"
             id="path230" />
        </g>
        <g
           id="g232"
           transform="translate(330.792,374.3916)">
          <path
             d="m 0,0 c 0.214,-5.697 -3.195,-10.973 -7.816,-14.028 -4.854,0.253 -9.754,-0.403 -14.374,-1.921 -2.389,0.797 -4.581,2.136 -6.296,4.001 -2.343,2.549 -3.748,5.876 -4.199,9.305 -0.543,4.123 0.319,8.443 2.521,11.966 2.212,3.524 5.79,6.204 9.83,7.178 4.853,1.162 10.195,-0.206 14.027,-3.411 C -2.483,9.895 -0.197,4.985 0,0 Z"
             style="fill:none;stroke:#353535;stroke-width:1.8;stroke-linecap:round;stroke-linejoin:round;stroke-miterlimit:10;stroke-dasharray:none;stroke-opacity:1"
             id="path234" />
        </g>
        <g
           id="g236"
           transform="translate(331.7939,358.874)">
          <path
             d="m 0,0 c -2.867,0.853 -5.837,1.34 -8.817,1.49 -4.855,0.253 -9.754,-0.403 -14.375,-1.921 -2.98,-0.975 -5.846,-2.305 -8.498,-3.983"
             style="fill:none;stroke:#353535;stroke-width:1.8;stroke-linecap:round;stroke-linejoin:round;stroke-miterlimit:10;stroke-dasharray:none;stroke-opacity:1"
             id="path238" />
        </g>
        <g
           id="g240"
           transform="translate(297.8037,372.2681)">
          <path
             d="m 0,0 c -1.56,3.279 -2.908,6.709 -3.348,10.312 -0.438,3.604 0.103,7.423 2.087,10.463 2.684,4.113 7.68,6.276 12.578,6.606 6.471,0.437 13.148,-2.116 17.441,-6.977 4.294,-4.861 6.162,-12.09 4.23,-18.281"
             style="fill:none;stroke:#353535;stroke-width:1.8;stroke-linecap:round;stroke-linejoin:round;stroke-miterlimit:10;stroke-dasharray:none;stroke-opacity:1"
             id="path242" />
        </g>
        <g
           id="g244"
           transform="translate(315.9482,376.7241)">
          <path
             d="M 0,0 C 0,2.46 1.996,4.456 4.456,4.456 6.917,4.456 8.912,2.46 8.912,0 8.912,-2.461 6.917,-4.456 4.456,-4.456 1.996,-4.456 0,-2.461 0,0"
             style="fill:#ffffff;fill-opacity:1;fill-rule:nonzero;stroke:none"
             id="path246" />
        </g>
        <g
           id="g248"
           transform="translate(357.4746,91.8545)">
          <path
             d="m 0,0 c 0.378,0.831 0.617,1.733 0.716,2.639 0.239,2.205 -0.273,4.429 -1.015,6.52 -0.856,2.414 -2.145,4.848 -4.363,6.127 -2.828,1.63 -6.619,0.901 -9.108,-1.212 -2.487,-2.113 -3.802,-5.35 -4.227,-8.586 -0.425,-3.236 -0.051,-6.518 0.323,-9.76"
             style="fill:none;stroke:#353535;stroke-width:1.8;stroke-linecap:round;stroke-linejoin:round;stroke-miterlimit:10;stroke-dasharray:none;stroke-opacity:1"
             id="path250" />
        </g>
        <g
           id="g252"
           transform="translate(289.3857,130.2754)">
          <path
             d="m 0,0 c 5.941,-6.982 6.318,-17.617 3.887,-26.457 -0.767,-2.786 -1.757,-5.726 -0.92,-8.49 0.719,-2.368 2.711,-4.186 4.949,-5.237 2.239,-1.05 4.728,-1.434 7.184,-1.74 14.752,-1.834 29.683,-1.279 44.539,-0.721 2.057,0.078 4.222,0.186 5.966,1.283 1.109,0.696 1.94,1.745 2.484,2.941"
             style="fill:none;stroke:#353535;stroke-width:1.8;stroke-linecap:round;stroke-linejoin:round;stroke-miterlimit:10;stroke-dasharray:none;stroke-opacity:1"
             id="path254" />
        </g>
        <g
           id="g256"
           transform="translate(365.5166,106.457)">
          <path
             d="M 0,0 C -1.287,1.124 -2.92,1.835 -4.611,1.753 -6.986,1.637 -9.27,-0.355 -9.26,-2.733"
             style="fill:none;stroke:#353535;stroke-width:1.8;stroke-linecap:round;stroke-linejoin:round;stroke-miterlimit:10;stroke-dasharray:none;stroke-opacity:1"
             id="path258" />
        </g>
        <g
           id="g260"
           transform="translate(366.0283,105.9697)">
          <path
             d="M 0,0 C -0.164,0.17 -0.334,0.332 -0.512,0.487"
             style="fill:none;stroke:#353535;stroke-width:1.8;stroke-linecap:round;stroke-linejoin:round;stroke-miterlimit:10;stroke-dasharray:none;stroke-opacity:1"
             id="path262" />
        </g>
        <g
           id="g264"
           transform="translate(367.7217,91.4668)">
          <path
             d="m 0,0 c 0.036,0.05 0.072,0.1 0.106,0.15 1.284,1.876 1.392,4.31 1.18,6.571 -0.222,2.369 -0.773,4.77 -2.12,6.73 -0.256,0.371 -0.544,0.725 -0.859,1.052"
             style="fill:none;stroke:#353535;stroke-width:1.8;stroke-linecap:round;stroke-linejoin:round;stroke-miterlimit:10;stroke-dasharray:none;stroke-opacity:1"
             id="path266" />
        </g>
        <g
           id="g268"
           transform="translate(357.4736,91.8555)">
          <path
             d="m 0,0 c 1.109,-1.558 3.576,-2.854 5.487,-2.837 1.852,0.019 3.668,0.956 4.761,2.448"
             style="fill:none;stroke:#353535;stroke-width:1.8;stroke-linecap:round;stroke-linejoin:round;stroke-miterlimit:10;stroke-dasharray:none;stroke-opacity:1"
             id="path270" />
        </g>
        <g
           id="g272"
           transform="translate(366.0283,105.9697)">
          <path
             d="M 0,0 C 2.684,0.859 5.559,-0.457 7.262,-2.704 8.965,-4.95 9.57,-7.84 9.796,-10.65 c 0.11,-1.367 0.109,-2.851 -0.689,-3.964 -0.784,-1.094 -2.22,-1.591 -3.563,-1.494 -1.342,0.097 -2.744,0.838 -3.851,1.605"
             style="fill:none;stroke:#353535;stroke-width:1.8;stroke-linecap:round;stroke-linejoin:round;stroke-miterlimit:10;stroke-dasharray:none;stroke-opacity:1"
             id="path274" />
        </g>
        <g
           id="g276"
           transform="translate(357.5928,177.8271)">
          <path
             d="M 0,0 C 0.274,0.95 0.796,1.933 1.228,2.86 4.81,2.326 8.026,0.873 11.002,-1.192"
             style="fill:none;stroke:#353535;stroke-width:1.8;stroke-linecap:round;stroke-linejoin:round;stroke-miterlimit:10;stroke-dasharray:none;stroke-opacity:1"
             id="path278" />
        </g>
        <g
           id="g280"
           transform="translate(333.0166,266.5679)">
          <path
             d="m 0,0 c 24.31,-22.557 38.002,-56.477 35.578,-89.933 -0.474,-3.638 -0.99,-7.401 -2.937,-10.51 -0.588,-0.937 -1.318,-1.815 -2.273,-2.376 -0.956,-0.558 -2.164,-0.762 -3.185,-0.337 -1.479,0.612 -2.181,2.288 -2.57,3.842 -0.859,3.44 -1.057,7.044 -0.037,10.573"
             style="fill:none;stroke:#353535;stroke-width:1.8;stroke-linecap:round;stroke-linejoin:round;stroke-miterlimit:10;stroke-dasharray:none;stroke-opacity:1"
             id="path282" />
        </g>
        <g
           id="g284"
           transform="translate(345.6904,177.8486)">
          <path
             d="M 0,0 C 0.138,1.069 0.331,2.132 0.58,3.181 0.971,4.826 1.568,6.547 2.924,7.561 4.653,8.856 7.198,8.576 9.013,7.4 10.744,6.276 13.425,5.058 11.902,-0.021"
             style="fill:none;stroke:#353535;stroke-width:1.8;stroke-linecap:round;stroke-linejoin:round;stroke-miterlimit:10;stroke-dasharray:none;stroke-opacity:1"
             id="path286" />
        </g>
        <g
           id="g288"
           transform="translate(357.5928,177.8271)">
          <path
             d="m 0,0 c -0.072,-0.243 -0.155,-0.494 -0.247,-0.754 -1.246,-3.516 -3.171,-6.848 -6.068,-9.198 -0.951,-0.774 -2.152,-1.483 -3.338,-1.172 -1.606,0.42 -2.182,2.379 -2.349,4.029 -0.239,2.366 -0.205,4.758 0.1,7.116"
             style="fill:none;stroke:#353535;stroke-width:1.8;stroke-linecap:round;stroke-linejoin:round;stroke-miterlimit:10;stroke-dasharray:none;stroke-opacity:1"
             id="path290" />
        </g>
        <g
           id="g292"
           transform="translate(341.6182,174.1689)">
          <path
             d="m 0,0 c 0.444,-11.3 2.118,-22.55 4.989,-33.487 3.303,-12.586 8.958,-25.84 18.909,-34.225"
             style="fill:none;stroke:#353535;stroke-width:1.8;stroke-linecap:round;stroke-linejoin:round;stroke-miterlimit:10;stroke-dasharray:none;stroke-opacity:1"
             id="path294" />
        </g>
        <g
           id="g296"
           transform="translate(341.5146,182.5547)">
          <path
             d="M 0,0 C -0.041,-2.796 -0.006,-5.593 0.104,-8.386"
             style="fill:none;stroke:#353535;stroke-width:1.8;stroke-linecap:round;stroke-linejoin:round;stroke-miterlimit:10;stroke-dasharray:none;stroke-opacity:1"
             id="path298" />
        </g>
        <g
           id="g300"
           transform="translate(345.6904,177.8486)">
          <path
             d="M 0,0 C -0.769,-1.694 -2.379,-2.911 -4.072,-3.68"
             style="fill:none;stroke:#353535;stroke-width:1.8;stroke-linecap:round;stroke-linejoin:round;stroke-miterlimit:10;stroke-dasharray:none;stroke-opacity:1"
             id="path302" />
        </g>
        <g
           id="g304"
           transform="translate(342.502,185.5566)">
          <path
             d="m 0,0 c 0.869,0.271 1.843,0.189 2.654,-0.224 0.811,-0.413 1.45,-1.153 1.742,-2.015"
             style="fill:none;stroke:#353535;stroke-width:1.8;stroke-linecap:round;stroke-linejoin:round;stroke-miterlimit:10;stroke-dasharray:none;stroke-opacity:1"
             id="path306" />
        </g>
        <g
           id="g308"
           transform="translate(193.8486,196.6211)">
          <path
             d="M 0,0 C 4.196,9.502 11.75,17.479 21.009,22.187"
             style="fill:none;stroke:#353535;stroke-width:1.8;stroke-linecap:round;stroke-linejoin:round;stroke-miterlimit:10;stroke-dasharray:none;stroke-opacity:1"
             id="path310" />
        </g>
        <g
           id="g312"
           transform="translate(276.0811,190.5518)">
          <path
             d="M 0,0 C 22.156,-6.218 46.399,-4.715 67.617,4.19"
             style="fill:none;stroke:#353535;stroke-width:1.2;stroke-linecap:round;stroke-linejoin:round;stroke-miterlimit:10;stroke-dasharray:none;stroke-opacity:1"
             id="path314" />
        </g>
        <g
           id="g316"
           transform="translate(264.9316,169.4014)">
          <path
             d="M 0,0 C 23.47,-7.628 49.652,-6.579 72.437,2.9"
             style="fill:none;stroke:#353535;stroke-width:1.2;stroke-linecap:round;stroke-linejoin:round;stroke-miterlimit:10;stroke-dasharray:none;stroke-opacity:1"
             id="path318" />
        </g>
        <g
           id="g320"
           transform="translate(259.5576,149.4375)">
          <path
             d="M 0,0 C 17.209,-7.291 36.816,-8.779 54.928,-4.167"
             style="fill:none;stroke:#353535;stroke-width:1.2;stroke-linecap:round;stroke-linejoin:round;stroke-miterlimit:10;stroke-dasharray:none;stroke-opacity:1"
             id="path322" />
        </g>
        <g
           id="g324"
           transform="translate(253.5381,137.3809)">
          <path
             d="m 0,0 c 5.085,-3.572 11.193,-5.472 17.347,-6.351 6.152,-0.88 12.397,-0.79 18.612,-0.698"
             style="fill:none;stroke:#353535;stroke-width:1.2;stroke-linecap:round;stroke-linejoin:round;stroke-miterlimit:10;stroke-dasharray:none;stroke-opacity:1"
             id="path326" />
        </g>
        <g
           id="g328"
           transform="translate(156.4434,214.9756)">
          <path
             d="m 0,0 c -2.925,-2.26 -4.621,-6.021 -4.379,-9.709 0.12,-1.826 0.718,-3.668 1.954,-5.017 1.252,-1.365 3.052,-2.118 4.871,-2.469 3.611,-0.699 7.541,0.121 10.42,2.41 2.879,2.288 4.584,6.06 4.153,9.713 -0.433,3.653 -3.097,7.009 -6.629,8.032"
             style="fill:none;stroke:#353535;stroke-width:1.2;stroke-linecap:round;stroke-linejoin:round;stroke-miterlimit:10;stroke-dasharray:none;stroke-opacity:1"
             id="path330" />
        </g>
        <g
           id="g332"
           transform="translate(171.1294,215.3096)">
          <path
             d="M 0,0 C 1.958,-0.038 3.953,0.357 5.642,1.347 7.333,2.335 8.693,3.953 9.168,5.852 9.642,7.751 9.149,9.915 7.746,11.28"
             style="fill:none;stroke:#353535;stroke-width:1.2;stroke-linecap:round;stroke-linejoin:round;stroke-miterlimit:10;stroke-dasharray:none;stroke-opacity:1"
             id="path334" />
        </g>
        <g
           id="g336"
           transform="translate(202.9858,235.124)">
          <path
             d="m 0,0 c -1.55,0.889 -3.482,0.944 -5.196,0.442 -1.715,-0.502 -3.238,-1.516 -4.603,-2.669 -2.393,-2.017 -4.443,-4.614 -5.129,-7.669 -0.686,-3.053 0.246,-6.592 2.797,-8.407 1.971,-1.399 4.589,-1.602 6.96,-1.132 4.244,0.843 8.099,3.903 9.427,8.021 C 5.583,-7.296 4.025,-2.307 0,0 Z"
             style="fill:none;stroke:#353535;stroke-width:1.2;stroke-linecap:round;stroke-linejoin:round;stroke-miterlimit:10;stroke-dasharray:none;stroke-opacity:1"
             id="path338" />
        </g>
        <g
           id="g340"
           transform="translate(223.3677,247.1201)">
          <path
             d="m 0,0 c -1.408,3.058 -0.952,6.769 0.705,9.699 1.656,2.93 4.39,5.138 7.381,6.681 3.342,1.724 7.357,2.682 10.863,1.32 3.211,-1.248 5.525,-4.396 6.047,-7.801 C 25.518,6.493 24.344,2.927 22.127,0.29 19.91,-2.348 16.721,-4.081 13.355,-4.823 10.97,-5.35 8.438,-5.393 6.113,-4.64 3.789,-3.887 1.19,-2.584 0,0 Z"
             style="fill:none;stroke:#353535;stroke-width:1.2;stroke-linecap:round;stroke-linejoin:round;stroke-miterlimit:10;stroke-dasharray:none;stroke-opacity:1"
             id="path342" />
        </g>
        <g
           id="g344"
           transform="translate(139.2534,214.8682)">
          <path
             d="M 0,0 C 0.038,3.681 0.803,7.352 2.239,10.74"
             style="fill:none;stroke:#353535;stroke-width:1.2;stroke-linecap:round;stroke-linejoin:round;stroke-miterlimit:10;stroke-dasharray:none;stroke-opacity:1"
             id="path346" />
        </g>
        <g
           id="g348"
           transform="translate(146.042,213.7598)">
          <path
             d="M 0,0 C -0.37,2.807 -0.489,5.645 -0.356,8.473"
             style="fill:none;stroke:#353535;stroke-width:1.2;stroke-linecap:round;stroke-linejoin:round;stroke-miterlimit:10;stroke-dasharray:none;stroke-opacity:1"
             id="path350" />
        </g>
        <g
           id="g352"
           transform="translate(147.4062,226.7734)">
          <path
             d="M 0,0 C 2.829,-3.659 4.79,-7.986 5.678,-12.526"
             style="fill:none;stroke:#353535;stroke-width:1.2;stroke-linecap:round;stroke-linejoin:round;stroke-miterlimit:10;stroke-dasharray:none;stroke-opacity:1"
             id="path354" />
        </g>
        <g
           id="g356"
           transform="translate(163.8237,217.7822)">
          <path
             d="M 0,0 C -1.971,4.408 -4.668,8.49 -7.951,12.032"
             style="fill:none;stroke:#353535;stroke-width:1.2;stroke-linecap:round;stroke-linejoin:round;stroke-miterlimit:10;stroke-dasharray:none;stroke-opacity:1"
             id="path358" />
        </g>
        <g
           id="g360"
           transform="translate(162.6304,230.8594)">
          <path
             d="M 0,0 C 3.248,-2.826 5.84,-6.4 7.517,-10.367"
             style="fill:none;stroke:#353535;stroke-width:1.2;stroke-linecap:round;stroke-linejoin:round;stroke-miterlimit:10;stroke-dasharray:none;stroke-opacity:1"
             id="path362" />
        </g>
        <g
           id="g364"
           transform="translate(176.5181,225.499)">
          <path
             d="M 0,0 C -2.422,3.254 -5.629,5.919 -9.271,7.707"
             style="fill:none;stroke:#353535;stroke-width:1.2;stroke-linecap:round;stroke-linejoin:round;stroke-miterlimit:10;stroke-dasharray:none;stroke-opacity:1"
             id="path366" />
        </g>
        <g
           id="g368"
           transform="translate(178.2363,255.0996)">
          <path
             d="M 0,0 C 6.083,-3.544 11.311,-8.545 15.121,-14.465"
             style="fill:none;stroke:#353535;stroke-width:1.2;stroke-linecap:round;stroke-linejoin:round;stroke-miterlimit:10;stroke-dasharray:none;stroke-opacity:1"
             id="path370" />
        </g>
        <g
           id="g372"
           transform="translate(178.501,248.5225)">
          <path
             d="M 0,0 C 4.543,-2.928 8.441,-6.851 11.341,-11.411"
             style="fill:none;stroke:#353535;stroke-width:1.2;stroke-linecap:round;stroke-linejoin:round;stroke-miterlimit:10;stroke-dasharray:none;stroke-opacity:1"
             id="path374" />
        </g>
        <g
           id="g376"
           transform="translate(184.4766,231.6641)">
          <path
             d="M 0,0 C -1.365,3.119 -3.453,5.92 -6.055,8.117"
             style="fill:none;stroke:#353535;stroke-width:1.2;stroke-linecap:round;stroke-linejoin:round;stroke-miterlimit:10;stroke-dasharray:none;stroke-opacity:1"
             id="path378" />
        </g>
        <g
           id="g380"
           transform="translate(195.5537,275.0273)">
          <path
             d="M 0,0 C 7.047,-3.366 13.166,-8.654 17.518,-15.14"
             style="fill:none;stroke:#353535;stroke-width:1.2;stroke-linecap:round;stroke-linejoin:round;stroke-miterlimit:10;stroke-dasharray:none;stroke-opacity:1"
             id="path382" />
        </g>
        <g
           id="g384"
           transform="translate(207.2495,255.0327)">
          <path
             d="M 0,0 C -2.207,4.112 -5.304,7.742 -9.018,10.567"
             style="fill:none;stroke:#353535;stroke-width:1.2;stroke-linecap:round;stroke-linejoin:round;stroke-miterlimit:10;stroke-dasharray:none;stroke-opacity:1"
             id="path386" />
        </g>
        <g
           id="g388"
           transform="translate(187.0493,266.0098)">
          <path
             d="M 0,0 C 5.385,-5.199 9.711,-11.488 12.642,-18.376"
             style="fill:none;stroke:#353535;stroke-width:1.2;stroke-linecap:round;stroke-linejoin:round;stroke-miterlimit:10;stroke-dasharray:none;stroke-opacity:1"
             id="path390" />
        </g>
        <g
           id="g392"
           transform="translate(225.772,295.5)">
          <path
             d="M 0,0 C 6.769,-6.173 11.66,-14.38 13.867,-23.271"
             style="fill:none;stroke:#353535;stroke-width:1.2;stroke-linecap:round;stroke-linejoin:round;stroke-miterlimit:10;stroke-dasharray:none;stroke-opacity:1"
             id="path394" />
        </g>
        <g
           id="g396"
           transform="translate(231.8887,269.7666)">
          <path
             d="M 0,0 C -1.296,4.915 -3.446,9.604 -6.327,13.792"
             style="fill:none;stroke:#353535;stroke-width:1.2;stroke-linecap:round;stroke-linejoin:round;stroke-miterlimit:10;stroke-dasharray:none;stroke-opacity:1"
             id="path398" />
        </g>
        <g
           id="g400"
           transform="translate(222.813,265.9053)">
          <path
             d="M 0,0 C -1.9,5.935 -4.532,11.635 -7.816,16.931"
             style="fill:none;stroke:#353535;stroke-width:1.2;stroke-linecap:round;stroke-linejoin:round;stroke-miterlimit:10;stroke-dasharray:none;stroke-opacity:1"
             id="path402" />
        </g>
        <g
           id="g404"
           transform="translate(269.4355,274.0718)">
          <path
             d="M 0,0 C 4.402,7.158 6.743,15.568 6.674,23.972"
             style="fill:none;stroke:#353535;stroke-width:1.2;stroke-linecap:round;stroke-linejoin:round;stroke-miterlimit:10;stroke-dasharray:none;stroke-opacity:1"
             id="path406" />
        </g>
        <g
           id="g408"
           transform="translate(264.0967,274.6914)">
          <path
             d="M 0,0 C 2.081,7.915 2.46,16.273 1.102,24.344"
             style="fill:none;stroke:#353535;stroke-width:1.2;stroke-linecap:round;stroke-linejoin:round;stroke-miterlimit:10;stroke-dasharray:none;stroke-opacity:1"
             id="path410" />
        </g>
        <g
           id="g412"
           transform="translate(255.0937,274.8384)">
          <path
             d="M 0,0 C -0.389,7.086 -1.328,14.141 -2.807,21.081"
             style="fill:none;stroke:#353535;stroke-width:1.2;stroke-linecap:round;stroke-linejoin:round;stroke-miterlimit:10;stroke-dasharray:none;stroke-opacity:1"
             id="path414" />
        </g>
        <g
           id="g416"
           transform="translate(251.8291,341.7012)">
          <path
             d="M -0.97150265,-0.97150265 C -6.6808641,-3.5817578 -11.743955,-8.0775862 -12.573503,-11.716503"
             style="fill:none;stroke:#353535;stroke-width:1.2;stroke-linecap:round;stroke-linejoin:round;stroke-miterlimit:10;stroke-dasharray:none;stroke-opacity:1"
             id="path418"
             sodipodi:nodetypes="cc" />
        </g>
        <g
           id="g420"
           transform="translate(255.4248,334.5239)">
          <path
             d="M -1.4032816,-0.59369606 C -6.9672816,-4.7276961 -11.329282,-10.458696 -13.832282,-16.922696"
             style="fill:none;stroke:#353535;stroke-width:1.2;stroke-linecap:round;stroke-linejoin:round;stroke-miterlimit:10;stroke-dasharray:none;stroke-opacity:1"
             id="path422" />
        </g>
        <g
           id="g424"
           transform="translate(260.9209,326.7808)">
          <path
             d="m -2.6333318,-0.99226994 c -3.066,-2.75499996 -5.561,-6.14499996 -7.275,-9.89300006"
             style="fill:none;stroke:#353535;stroke-width:1.2;stroke-linecap:round;stroke-linejoin:round;stroke-miterlimit:10;stroke-dasharray:none;stroke-opacity:1"
             id="path426" />
        </g>
        <g
           id="g428"
           transform="translate(233.6494,380.6313)">
          <path
             d="M 0,0 C 6.448,0.427 13.032,-1.682 18.031,-5.776"
             style="fill:none;stroke:#353535;stroke-width:1.2;stroke-linecap:round;stroke-linejoin:round;stroke-miterlimit:10;stroke-dasharray:none;stroke-opacity:1"
             id="path430" />
        </g>
        <g
           id="g432"
           transform="translate(227.374,371.1206)">
          <path
             d="M 0,0 C 7.429,1.427 15.26,0.695 22.295,-2.084"
             style="fill:none;stroke:#353535;stroke-width:1.2;stroke-linecap:round;stroke-linejoin:round;stroke-miterlimit:10;stroke-dasharray:none;stroke-opacity:1"
             id="path434" />
        </g>
        <g
           id="g436"
           transform="translate(237.1108,359.4702)">
          <path
             d="M 0,0 C 3.414,1.97 7.465,2.812 11.38,2.362"
             style="fill:none;stroke:#353535;stroke-width:1.2;stroke-linecap:round;stroke-linejoin:round;stroke-miterlimit:10;stroke-dasharray:none;stroke-opacity:1"
             id="path438" />
        </g>
        <g
           id="g440"
           transform="translate(245.5352,421.561)">
          <path
             d="M 0,0 C 7.463,-2.457 14.192,-7.092 19.148,-13.19"
             style="fill:none;stroke:#353535;stroke-width:1.2;stroke-linecap:round;stroke-linejoin:round;stroke-miterlimit:10;stroke-dasharray:none;stroke-opacity:1"
             id="path442" />
          <path
             d="m -3.7856749,-15.288403 c 6.020056,-1.958387 11.4480286,-5.65278 15.4458039,-10.513278"
             style="fill:none;stroke:#353535;stroke-width:0.962214;stroke-linecap:round;stroke-linejoin:round;stroke-miterlimit:10;stroke-dasharray:none;stroke-opacity:1"
             id="path442-6" />
        </g>
        <g
           id="g444"
           transform="translate(288.4385,437.8066)">
          <path
             d="M 0,0 C 5.738,-2.33 10.688,-6.557 13.884,-11.862"
             style="fill:none;stroke:#353535;stroke-width:1.2;stroke-linecap:round;stroke-linejoin:round;stroke-miterlimit:10;stroke-dasharray:none;stroke-opacity:1"
             id="path446" />
        </g>
        <g
           id="g448"
           transform="translate(286.1318,432.5239)">
          <path
             d="M 0,0 C 1.924,-2.351 3.501,-4.984 4.667,-7.79"
             style="fill:none;stroke:#353535;stroke-width:1.2;stroke-linecap:round;stroke-linejoin:round;stroke-miterlimit:10;stroke-dasharray:none;stroke-opacity:1"
             id="path450" />
        </g>
        <g
           id="g452"
           transform="translate(280.25,421.1206)">
          <path
             d="M 0,0 C -0.604,3.326 -1.606,6.578 -2.981,9.666"
             style="fill:none;stroke:#353535;stroke-width:1.2;stroke-linecap:round;stroke-linejoin:round;stroke-miterlimit:10;stroke-dasharray:none;stroke-opacity:1"
             id="path454" />
        </g>
        <g
           id="g456"
           transform="translate(326.9502,437.0464)">
          <path
             d="M 0,0 C 4.482,-5.149 7.18,-11.824 7.532,-18.642"
             style="fill:none;stroke:#353535;stroke-width:1.2;stroke-linecap:round;stroke-linejoin:round;stroke-miterlimit:10;stroke-dasharray:none;stroke-opacity:1"
             id="path458" />
        </g>
        <g
           id="g460"
           transform="translate(323.0156,431.623)">
          <path
             d="M 0,0 C 1.316,-3.074 1.996,-6.419 1.983,-9.763"
             style="fill:none;stroke:#353535;stroke-width:1.2;stroke-linecap:round;stroke-linejoin:round;stroke-miterlimit:10;stroke-dasharray:none;stroke-opacity:1"
             id="path462" />
        </g>
        <g
           id="g464"
           transform="translate(317.5225,424.5117)">
          <path
             d="M 0,0 C -0.025,2.9 -0.703,5.792 -1.968,8.403"
             style="fill:none;stroke:#353535;stroke-width:1.2;stroke-linecap:round;stroke-linejoin:round;stroke-miterlimit:10;stroke-dasharray:none;stroke-opacity:1"
             id="path466" />
        </g>
        <g
           id="g468"
           transform="translate(115.2866,197.0469)">
          <path
             d="M 0,0 C -1.145,-6.239 -1.163,-12.684 -0.057,-18.93"
             style="fill:none;stroke:#353535;stroke-width:1.2;stroke-linecap:round;stroke-linejoin:round;stroke-miterlimit:10;stroke-dasharray:none;stroke-opacity:1"
             id="path470" />
        </g>
        <g
           id="g472"
           transform="translate(103.8804,225.3184)">
          <path
             d="M 0,0 C -3.159,-5.354 -4.379,-11.822 -3.388,-17.958"
             style="fill:none;stroke:#353535;stroke-width:1.2;stroke-linecap:round;stroke-linejoin:round;stroke-miterlimit:10;stroke-dasharray:none;stroke-opacity:1"
             id="path474" />
        </g>
        <g
           id="g476"
           transform="translate(96.4849,216.708)">
          <path
             d="M 0,0 C 0.071,3.604 1.135,7.183 3.045,10.239"
             style="fill:none;stroke:#353535;stroke-width:1.2;stroke-linecap:round;stroke-linejoin:round;stroke-miterlimit:10;stroke-dasharray:none;stroke-opacity:1"
             id="path478" />
        </g>
        <g
           id="g480"
           transform="translate(64.9595,227.0039)">
          <path
             d="M 0,0 C 0.151,2.525 1.069,5 2.601,7.014"
             style="fill:none;stroke:#353535;stroke-width:1.2;stroke-linecap:round;stroke-linejoin:round;stroke-miterlimit:10;stroke-dasharray:none;stroke-opacity:1"
             id="path482" />
        </g>
        <g
           id="g484"
           transform="translate(48.1738,247.7041)">
          <path
             d="M 0,0 C -0.214,-1.972 -0.781,-3.906 -1.666,-5.681"
             style="fill:none;stroke:#353535;stroke-width:1.2;stroke-linecap:round;stroke-linejoin:round;stroke-miterlimit:10;stroke-dasharray:none;stroke-opacity:1"
             id="path486" />
        </g>
        <g
           id="g488"
           transform="translate(68.1899,224.4717)">
          <path
             d="M 0,0 C 0.144,1.842 0.695,3.65 1.603,5.26"
             style="fill:none;stroke:#353535;stroke-width:1.2;stroke-linecap:round;stroke-linejoin:round;stroke-miterlimit:10;stroke-dasharray:none;stroke-opacity:1"
             id="path490" />
        </g>
        <g
           id="g492"
           transform="translate(119.3081,174.8682)">
          <path
             d="M 0,0 C -0.426,4.269 0.004,8.62 1.258,12.723"
             style="fill:none;stroke:#353535;stroke-width:1.2;stroke-linecap:round;stroke-linejoin:round;stroke-miterlimit:10;stroke-dasharray:none;stroke-opacity:1"
             id="path494" />
        </g>
        <g
           id="g496"
           transform="translate(311.7783,351.959)">
          <path
             d="m 0,0 c -3.598,1.62 -8.179,0.713 -10.881,-2.162 -2.702,-2.874 -3.325,-7.506 -1.473,-10.99 1.854,-3.483 6.048,-5.556 9.94,-4.905 3.891,0.649 7.186,3.977 7.79,7.876 C 5.981,-6.282 4,-1.802 0,0 Z"
             style="fill:none;stroke:#353535;stroke-width:1.2;stroke-linecap:round;stroke-linejoin:round;stroke-miterlimit:10;stroke-dasharray:none;stroke-opacity:1"
             id="path498" />
        </g>
        <g
           id="g500"
           transform="translate(301.2588,257.5371)">
          <path
             d="M 0,0 C -4.917,-0.568 -9.543,-3.318 -12.39,-7.366"
             style="fill:none;stroke:#353535;stroke-width:1.2;stroke-linecap:round;stroke-linejoin:round;stroke-miterlimit:10;stroke-dasharray:none;stroke-opacity:1"
             id="path502" />
        </g>
        <g
           id="g504"
           transform="translate(350.8086,220.3486)">
          <path
             d="M 0,0 C 3.785,0.513 7.464,1.806 10.741,3.771"
             style="fill:none;stroke:#353535;stroke-width:1.2;stroke-linecap:round;stroke-linejoin:round;stroke-miterlimit:10;stroke-dasharray:none;stroke-opacity:1"
             id="path506" />
        </g>
        <g
           id="g508"
           transform="translate(355.6689,217.2969)">
          <path
             d="M 0,0 C 2.521,0.558 4.961,1.481 7.22,2.733"
             style="fill:none;stroke:#353535;stroke-width:1.2;stroke-linecap:round;stroke-linejoin:round;stroke-miterlimit:10;stroke-dasharray:none;stroke-opacity:1"
             id="path510" />
        </g>
        <g
           id="g512"
           transform="translate(309.1318,220.0518)">
          <path
             d="M 0,0 C 2.908,-0.952 5.547,-2.713 7.542,-5.032"
             style="fill:none;stroke:#353535;stroke-width:1.2;stroke-linecap:round;stroke-linejoin:round;stroke-miterlimit:10;stroke-dasharray:none;stroke-opacity:1"
             id="path514" />
        </g>
        <g
           id="g516"
           transform="translate(311.4678,224.2793)">
          <path
             d="M 0,0 C 2.645,-1.153 5.077,-2.792 7.138,-4.812"
             style="fill:none;stroke:#353535;stroke-width:1.2;stroke-linecap:round;stroke-linejoin:round;stroke-miterlimit:10;stroke-dasharray:none;stroke-opacity:1"
             id="path518" />
        </g>
        <g
           id="g520"
           transform="translate(318.7676,232.0117)">
          <path
             d="M 0,0 C 2.524,-0.429 4.86,-1.883 6.359,-3.962"
             style="fill:none;stroke:#353535;stroke-width:1.2;stroke-linecap:round;stroke-linejoin:round;stroke-miterlimit:10;stroke-dasharray:none;stroke-opacity:1"
             id="path522" />
        </g>
        <g
           id="g524"
           transform="translate(327.3594,236.8604)">
          <path
             d="M 0,0 C 1.433,-0.726 2.628,-1.912 3.365,-3.339"
             style="fill:none;stroke:#353535;stroke-width:1.2;stroke-linecap:round;stroke-linejoin:round;stroke-miterlimit:10;stroke-dasharray:none;stroke-opacity:1"
             id="path526" />
        </g>
        <g
           id="g528"
           transform="translate(362.2881,179.6367)">
          <path
             d="M 0,0 C -0.122,-2.378 -0.546,-4.74 -1.261,-7.012"
             style="fill:none;stroke:#353535;stroke-width:1.2;stroke-linecap:round;stroke-linejoin:round;stroke-miterlimit:10;stroke-dasharray:none;stroke-opacity:1"
             id="path530" />
        </g>
        <g
           id="g532"
           transform="translate(366.2129,177.9834)">
          <path
             d="M 0,0 C -0.553,-3.089 -1.617,-6.087 -3.139,-8.832"
             style="fill:none;stroke:#353535;stroke-width:1.2;stroke-linecap:round;stroke-linejoin:round;stroke-miterlimit:10;stroke-dasharray:none;stroke-opacity:1"
             id="path534" />
        </g>
        <g
           id="g536"
           transform="translate(355.1582,184.8369)">
          <path
             d="M 0,0 C -0.054,-2.937 -0.654,-5.86 -1.764,-8.579"
             style="fill:none;stroke:#353535;stroke-width:1.2;stroke-linecap:round;stroke-linejoin:round;stroke-miterlimit:10;stroke-dasharray:none;stroke-opacity:1"
             id="path538" />
        </g>
        <g
           id="g540"
           transform="translate(350.627,186.0293)">
          <path
             d="M 0,0 C 0.109,-2.169 -0.174,-4.357 -0.832,-6.428"
             style="fill:none;stroke:#353535;stroke-width:1.2;stroke-linecap:round;stroke-linejoin:round;stroke-miterlimit:10;stroke-dasharray:none;stroke-opacity:1"
             id="path542" />
        </g>
        <g
           id="g544"
           transform="translate(344.2178,185.3262)">
          <path
             d="M 0,0 C 0.003,-1.465 -0.196,-2.931 -0.593,-4.343"
             style="fill:none;stroke:#353535;stroke-width:1.2;stroke-linecap:round;stroke-linejoin:round;stroke-miterlimit:10;stroke-dasharray:none;stroke-opacity:1"
             id="path546" />
        </g>
        <g
           id="g548"
           transform="translate(253.5879,139.7031)">
          <path
             d="M 0,0 C -2.895,-3.964 -6.472,-7.431 -10.526,-10.197"
             style="fill:none;stroke:#353535;stroke-width:1.2;stroke-linecap:round;stroke-linejoin:round;stroke-miterlimit:10;stroke-dasharray:none;stroke-opacity:1"
             id="path550" />
        </g>
        <g
           id="g552"
           transform="translate(345.6074,143.1377)">
          <path
             d="M 0,0 C -1.247,1.734 -3.556,2.552 -5.668,2.232 -7.78,1.914 -9.66,0.562 -10.866,-1.2 c -1.538,-2.25 -1.927,-5.539 -0.133,-7.589 1.036,-1.185 2.631,-1.77 4.2,-1.87 1.921,-0.126 3.894,0.432 5.408,1.621 C 0.123,-7.851 3.584,-4.979 0,0 Z"
             style="fill:none;stroke:#353535;stroke-width:1.2;stroke-linecap:round;stroke-linejoin:round;stroke-miterlimit:10;stroke-dasharray:none;stroke-opacity:1"
             id="path554" />
        </g>
        <g
           id="g556"
           transform="translate(324.9805,119.5215)">
          <path
             d="m 0,0 c -1.428,0.668 -2.321,2.248 -2.347,3.825 -0.026,1.577 0.738,3.109 1.88,4.196 1.143,1.086 2.635,1.757 4.171,2.108 1.232,0.278 2.593,0.348 3.691,-0.276 C 8.335,9.319 8.958,8.338 9.276,7.305 9.958,5.102 9.316,2.543 7.677,0.92 6.037,-0.701 3.363,-1.571 0,0 Z"
             style="fill:none;stroke:#353535;stroke-width:1.2;stroke-linecap:round;stroke-linejoin:round;stroke-miterlimit:10;stroke-dasharray:none;stroke-opacity:1"
             id="path558" />
        </g>
        <g
           id="g560"
           transform="translate(254.4521,175.0811)">
          <path
             d="m 0,0 c 1.554,-1.852 2.722,-4.066 3.128,-6.448 0.407,-2.383 0.013,-4.937 -1.304,-6.964 -1.868,-2.875 -5.566,-4.405 -8.934,-3.769 -3.369,0.636 -6.229,3.361 -7.109,6.673 -0.881,3.313 0.221,7.055 2.698,9.425 C -9.042,1.285 -3.696,4.405 0,0 Z"
             style="fill:none;stroke:#353535;stroke-width:1.2;stroke-linecap:round;stroke-linejoin:round;stroke-miterlimit:10;stroke-dasharray:none;stroke-opacity:1"
             id="path562" />
        </g>
        <g
           id="g564"
           transform="translate(231.2876,158.4805)">
          <path
             d="m 0,0 c -2.285,0.952 -5.149,0.229 -6.721,-1.682 -1.573,-1.909 -1.735,-4.847 -0.397,-6.927 1.338,-2.082 4.067,-3.154 6.468,-2.556 2.4,0.599 4.303,2.812 4.549,5.274 C 4.146,-3.429 2.65,-1.104 0,0 Z"
             style="fill:none;stroke:#353535;stroke-width:1.2;stroke-linecap:round;stroke-linejoin:round;stroke-miterlimit:10;stroke-dasharray:none;stroke-opacity:1"
             id="path566" />
        </g>
        <g
           id="g568"
           transform="translate(239.9639,165.1006)">
          <path
             d="m 0,0 c -3.241,-1.641 -7.482,-1.031 -10.129,1.458 -2.648,2.488 -3.52,6.683 -2.083,10.02 1.437,3.337 5.083,5.585 8.711,5.373 3.626,-0.214 6.983,-2.875 8.019,-6.359"
             style="fill:none;stroke:#353535;stroke-width:1.2;stroke-linecap:round;stroke-linejoin:round;stroke-miterlimit:10;stroke-dasharray:none;stroke-opacity:1"
             id="path570" />
        </g>
        <g
           id="g572"
           transform="translate(318.2998,226.9443)">
          <path
             d="m 0,0 c -0.271,1.827 -0.541,3.718 -0.047,5.497 0.496,1.78 1.971,3.426 3.816,3.505 1.372,0.06 2.624,-0.726 3.758,-1.5 1.551,-1.06 3.087,-2.17 4.365,-3.548 1.279,-1.377 2.296,-3.05 2.633,-4.898 0.338,-1.849 -0.069,-3.881 -1.322,-5.282 -1.253,-1.4 -3.398,-2.025 -5.12,-1.269"
             style="fill:none;stroke:#353535;stroke-width:1.8;stroke-linecap:round;stroke-linejoin:round;stroke-miterlimit:10;stroke-dasharray:none;stroke-opacity:1"
             id="path574" />
        </g>
        <g
           id="g576"
           transform="translate(325.4307,235.0029)">
          <path
             d="M 0,0 C 0.165,1.273 1.355,2.255 2.625,2.453 3.895,2.65 5.193,2.187 6.26,1.469 7.697,0.502 8.84,-1.013 9.039,-2.733 9.238,-4.456 8.332,-6.338 6.723,-6.981"
             style="fill:none;stroke:#353535;stroke-width:1.8;stroke-linecap:round;stroke-linejoin:round;stroke-miterlimit:10;stroke-dasharray:none;stroke-opacity:1"
             id="path578" />
        </g>
        <g
           id="g580"
           transform="translate(329.542,237.4258)">
          <path
             d="m 0,0 c -1.47,4.034 -5.529,6.75 -9.763,7.467 -4.233,0.717 -8.594,-0.306 -12.764,-2.103 -0.757,8.673 -5.794,16.868 -13.192,21.459"
             style="fill:none;stroke:#353535;stroke-width:1.8;stroke-linecap:round;stroke-linejoin:round;stroke-miterlimit:10;stroke-dasharray:none;stroke-opacity:1"
             id="path582" />
        </g>
        <g
           id="g584"
           transform="translate(134.689,215.4473)">
          <path
             d="m 0,0 c 10.921,-2.596 21.673,-2.141 30.909,2.363 9.539,4.658 17.411,12.116 24.748,19.8 7.337,7.675 14.364,15.761 22.854,22.142 17.429,13.11 40.725,18.086 61.995,13.241"
             style="fill:none;stroke:#353535;stroke-width:1.8;stroke-linecap:round;stroke-linejoin:round;stroke-miterlimit:10;stroke-dasharray:none;stroke-opacity:1"
             id="path586" />
        </g>
        <g
           id="g588"
           transform="translate(195.7842,140.748)">
          <path
             d="m 0,0 c -6.775,3.223 -14.593,3.907 -21.94,5.425 -19.378,4.03 -37.06,14.159 -52.418,26.641 -9.549,7.768 -18.048,16.68 -26.434,25.712 -1.2,1.303 -2.399,2.597 -3.599,3.89 -0.309,0.336 -0.618,0.665 -0.918,1.001 -3.58,3.861 -7.159,7.704 -10.832,11.461 -2.699,2.765 -5.997,5.51 -9.586,8.199 -14.262,10.635 -33.05,20.109 -36.611,24.494 -4.113,5.079 10.167,1.602 12.575,0.985 8.809,-2.258 18.648,-6.513 29.817,-11.432 5.22,-2.297 10.73,-4.732 16.558,-7.188 1.471,-0.618 2.961,-1.228 4.47,-1.846 0.674,-0.272 1.349,-0.544 2.023,-0.815 1.668,-0.675 3.355,-1.34 5.07,-1.997 4.479,-1.715 9.137,-3.39 13.971,-4.975 0.141,-0.046 0.272,-0.093 0.413,-0.141 1.893,-0.617 3.814,-1.218 5.763,-1.799 3.082,-0.927 6.24,-1.817 9.473,-2.641 0.37,-0.095 0.74,-0.187 1.11,-0.275"
             style="fill:none;stroke:#353535;stroke-width:1.8;stroke-linecap:round;stroke-linejoin:round;stroke-miterlimit:10;stroke-dasharray:none;stroke-opacity:1"
             id="path590" />
        </g>
        <g
           id="g592"
           transform="translate(241.4531,75.5713)">
          <path
             d="M 0,0 C 0.005,0.089 0.011,0.178 0.015,0.267 0.15,2.828 0.082,5.4 -0.189,7.952 c -0.336,3.17 -1.019,6.389 -2.755,9.063 -1.735,2.672 -4.697,4.719 -7.884,4.65 -3.072,-0.068 -5.87,-2.097 -7.471,-4.719 -1.602,-2.622 -2.155,-5.759 -2.258,-8.83 -0.102,-3.071 0.17,-5.923 0.158,-8.996"
             style="fill:none;stroke:#353535;stroke-width:1.8;stroke-linecap:round;stroke-linejoin:round;stroke-miterlimit:10;stroke-dasharray:none;stroke-opacity:1"
             id="path594" />
        </g>
        <g
           id="g596"
           transform="translate(195.7842,140.748)">
          <path
             d="M 0,0 C 2.497,-5.44 4.72,-10.97 5.416,-16.879 6.644,-27.316 2.969,-37.61 0.628,-47.856 c -0.842,-3.69 -1.495,-7.664 -0.075,-11.171 1.705,-4.212 6.129,-6.824 10.604,-7.601 4.475,-0.779 9.059,-0.029 14.113,0.571 5.198,-2.26 10.747,-4.573 16.35,-3.719 1.097,0.167 2.239,0.492 2.987,1.31 0.794,0.868 0.985,2.105 1.062,3.289"
             style="fill:none;stroke:#353535;stroke-width:1.8;stroke-linecap:round;stroke-linejoin:round;stroke-miterlimit:10;stroke-dasharray:none;stroke-opacity:1"
             id="path598" />
        </g>
        <g
           id="g600"
           transform="translate(187.7231,175.6943)">
          <path
             d="m 0,0 c -2.566,-8.72 0.343,-18.078 4.065,-26.369 1.286,-2.863 2.679,-5.708 3.996,-8.577"
             style="fill:none;stroke:#353535;stroke-width:1.8;stroke-linecap:round;stroke-linejoin:round;stroke-miterlimit:10;stroke-dasharray:none;stroke-opacity:1"
             id="path602" />
        </g>
        <g
           id="g604"
           transform="translate(260.3525,77.708)">
          <path
             d="m 0,0 c -0.174,-1.171 -0.508,-2.305 -1.276,-3.181 -1.13,-1.289 -2.953,-1.717 -4.662,-1.82 -4.448,-0.265 -8.833,1.192 -12.962,2.864"
             style="fill:none;stroke:#353535;stroke-width:1.8;stroke-linecap:round;stroke-linejoin:round;stroke-miterlimit:10;stroke-dasharray:none;stroke-opacity:1"
             id="path606" />
        </g>
        <g
           id="g608"
           transform="translate(238.6904,92.626)">
          <path
             d="m 0,0 c 1.142,2.953 3.667,5.337 6.679,6.309 3.013,0.972 6.456,0.51 9.107,-1.219 2.86,-1.865 4.682,-5.035 5.514,-8.347 0.832,-3.309 0.768,-6.777 0.515,-10.181 -0.037,-0.49 -0.081,-0.988 -0.153,-1.48"
             style="fill:none;stroke:#353535;stroke-width:1.8;stroke-linecap:round;stroke-linejoin:round;stroke-miterlimit:10;stroke-dasharray:none;stroke-opacity:1"
             id="path610" />
        </g>
        <g
           id="g612"
           transform="translate(268.4463,96.0264)">
          <path
             d="m 0,0 c 0.088,-0.036 0.176,-0.074 0.262,-0.113 2.464,-1.117 4.292,-3.383 5.268,-5.906 0.977,-2.522 1.167,-5.29 0.992,-7.99 -0.081,-1.256 -0.242,-2.517 -0.662,-3.703 -0.419,-1.186 -1.116,-2.3 -2.121,-3.057 -1.721,-1.3 -4.128,-1.379 -6.185,-0.731 -1.906,0.6 -3.969,1.973 -5.649,3.182"
             style="fill:none;stroke:#353535;stroke-width:1.8;stroke-linecap:round;stroke-linejoin:round;stroke-miterlimit:10;stroke-dasharray:none;stroke-opacity:1"
             id="path614" />
        </g>
        <g
           id="g616"
           transform="translate(259.7871,90.7158)">
          <path
             d="M 0,0 C 0.491,1.201 1.03,2.398 1.816,3.43 2.604,4.462 3.667,5.327 4.92,5.664 6.15,5.996 7.475,5.795 8.659,5.311"
             style="fill:none;stroke:#353535;stroke-width:1.8;stroke-linecap:round;stroke-linejoin:round;stroke-miterlimit:10;stroke-dasharray:none;stroke-opacity:1"
             id="path618" />
        </g>
        <g
           id="g620"
           transform="translate(255.9082,122.8135)">
          <path
             d="M 0,0 C 2.477,-9.589 6.725,-18.701 12.537,-26.788"
             style="fill:none;stroke:#353535;stroke-width:1.8;stroke-linecap:round;stroke-linejoin:round;stroke-miterlimit:10;stroke-dasharray:none;stroke-opacity:1"
             id="path622" />
        </g>
        <g
           id="g624"
           transform="translate(257.3311,206.7148)">
          <path
             d="m 0,0 c 5.578,-10.467 8.212,-22.484 7.519,-34.325 -0.693,-11.841 -4.708,-23.47 -11.397,-33.134 0.24,-5.565 1.07,-11.078 2.455,-16.442"
             style="fill:none;stroke:#353535;stroke-width:1.8;stroke-linecap:round;stroke-linejoin:round;stroke-miterlimit:10;stroke-dasharray:none;stroke-opacity:1"
             id="path626" />
        </g>
        <g
           id="g628"
           transform="translate(265.1816,174.7295)">
          <path
             d="m 0,0 c 4.314,3.723 8.132,8.219 10.091,13.569 1.959,5.352 1.847,11.653 -1.226,16.452"
             style="fill:none;stroke:#353535;stroke-width:1.8;stroke-linecap:round;stroke-linejoin:round;stroke-miterlimit:10;stroke-dasharray:none;stroke-opacity:1"
             id="path630" />
        </g>
        <g
           id="g632"
           transform="translate(333.0166,266.5679)">
          <path
             d="m 0,0 c -0.965,3.51 -1.895,7.029 -2.746,10.569 -1.669,6.934 -3.028,14.281 -0.992,21.116 1.865,6.273 6.454,11.455 11.788,15.247 5.334,3.79 11.098,6.912 17.719,9.158 8.924,3.026 18.215,5.215 26.677,9.361 3,1.47 5.976,3.102 8.371,5.431 2.395,2.327 4.179,5.222 4.284,8.561"
             style="fill:none;stroke:#353535;stroke-width:1.8;stroke-linecap:round;stroke-linejoin:round;stroke-miterlimit:10;stroke-dasharray:none;stroke-opacity:1"
             id="path634" />
        </g>
        <g
           id="g636"
           transform="translate(289.3857,130.2754)">
          <path
             d="m 0,0 c 16.459,6.771 31.157,17.87 41.845,32.112 7.706,10.269 12.465,22.72 12.911,35.73 0.46,13.449 -0.367,26.919 -3.437,40.022 -2.239,9.559 -5.089,18.961 -7.688,28.428"
             style="fill:none;stroke:#353535;stroke-width:1.8;stroke-linecap:round;stroke-linejoin:round;stroke-miterlimit:10;stroke-dasharray:none;stroke-opacity:1"
             id="path638" />
        </g>
        <g
           id="g640"
           transform="translate(255.9082,122.8135)">
          <path
             d="M 0,0 C 11.344,0.491 22.982,3.145 33.478,7.462"
             style="fill:none;stroke:#353535;stroke-width:1.8;stroke-linecap:round;stroke-linejoin:round;stroke-miterlimit:10;stroke-dasharray:none;stroke-opacity:1"
             id="path642" />
        </g>
        <g
           id="g644"
           transform="translate(372.8818,391.9229)">
          <path
             d="M 0,0 C -2.406,-0.361 -4.804,-0.83 -7.163,-1.304"
             style="fill:none;stroke:#353535;stroke-width:1.8;stroke-linecap:round;stroke-linejoin:round;stroke-miterlimit:10;stroke-dasharray:none;stroke-opacity:1"
             id="path646" />
        </g>
        <g
           id="g648"
           transform="translate(398.1172,346.0103)">
          <path
             d="m 0,0 c 1.32,0.18 2.591,0.58 3.725,1.285 2.908,1.808 4.355,5.251 5.161,8.58 1.684,6.962 1.28,14.502 -1.652,21.039 -2.932,6.534 -8.479,11.964 -15.265,14.256 -5.513,1.861 -11.385,1.624 -17.204,0.753"
             style="fill:none;stroke:#353535;stroke-width:1.8;stroke-linecap:round;stroke-linejoin:round;stroke-miterlimit:10;stroke-dasharray:none;stroke-opacity:1"
             id="path650" />
        </g>
        <g
           id="g652"
           transform="translate(353.1035,355.0112)">
          <path
             d="m 0,0 c 5.457,-2.617 10.977,-5.256 16.973,-6.081 5.034,-0.692 10.197,-0.067 15.204,-0.939 2.797,-0.487 5.502,-1.434 8.307,-1.875 1.488,-0.233 3.039,-0.309 4.53,-0.106"
             style="fill:none;stroke:#353535;stroke-width:1.8;stroke-linecap:round;stroke-linejoin:round;stroke-miterlimit:10;stroke-dasharray:none;stroke-opacity:1"
             id="path654" />
        </g>
        <g
           id="g656"
           transform="translate(355.7988,360.522)">
          <path
             d="M 0,0 C -3.109,-4.188 -4.165,-9.833 -2.778,-14.862"
             style="fill:none;stroke:#353535;stroke-width:1.8;stroke-linecap:round;stroke-linejoin:round;stroke-miterlimit:10;stroke-dasharray:none;stroke-opacity:1"
             id="path658" />
        </g>
        <g
           id="g660"
           transform="translate(367.6074,375.2271)">
          <path
             d="m 0,0 c -1.322,-0.894 -2.296,-2.29 -2.679,-3.839 -0.385,-1.549 -0.175,-3.238 0.578,-4.646 0.336,-0.631 0.789,-1.216 1.391,-1.6 0.603,-0.385 1.367,-0.551 2.049,-0.334 0.824,0.261 1.408,1.044 1.623,1.882 0.216,0.838 0.113,1.725 -0.074,2.571 C 2.438,-3.943 1.493,-2.033 0,0"
             style="fill:#353535;fill-opacity:1;fill-rule:nonzero;stroke:none"
             id="path662" />
        </g>
        <g
           id="g664"
           transform="translate(367.6074,375.2271)">
          <path
             d="m 0,0 c -1.322,-0.894 -2.296,-2.29 -2.679,-3.839 -0.385,-1.549 -0.175,-3.238 0.578,-4.646 0.336,-0.631 0.789,-1.216 1.391,-1.6 0.603,-0.385 1.367,-0.551 2.049,-0.334 0.824,0.261 1.408,1.044 1.623,1.882 0.216,0.838 0.113,1.725 -0.074,2.571 C 2.438,-3.943 1.493,-2.033 0,0 Z"
             style="fill:none;stroke:#353535;stroke-width:1.8;stroke-linecap:round;stroke-linejoin:round;stroke-miterlimit:10;stroke-dasharray:none;stroke-opacity:1"
             id="path666" />
        </g>
        <g
           id="g668"
           transform="translate(369.8291,380.8389)">
          <path
             d="m -1.5265691,0.30531383 c -4.049,-0.039 -7.933,-2.80600003 -9.2919999,-6.61900003 -1.358,-3.8129998 -0.1,-8.4129998 3.0109999,-11.0029998"
             style="fill:none;stroke:#353535;stroke-width:1.8;stroke-linecap:round;stroke-linejoin:round;stroke-miterlimit:10;stroke-dasharray:none;stroke-opacity:1"
             id="path670" />
        </g>
        <g
           id="g672"
           transform="translate(342.9785,417.9805)">
          <path
             d="m 0,0 c 3.021,0.705 5.987,1.843 9.085,1.912 6.312,0.142 12.014,-4.289 15.202,-9.738 3.189,-5.449 4.52,-12.014 5.616,-18.232"
             style="fill:none;stroke:#353535;stroke-width:1.8;stroke-linecap:round;stroke-linejoin:round;stroke-miterlimit:10;stroke-dasharray:none;stroke-opacity:1"
             id="path674" />
        </g>
        <g
           id="g676"
           transform="translate(271.2197,415.0713)">
          <path
             d="m 0,0 c 5.339,4.353 11.705,7.511 18.395,9.195 12.059,3.037 25.024,1.517 36.561,-3.124 4.208,-1.693 8.446,-3.83 12.981,-3.709 1.292,0.034 2.561,0.253 3.822,0.547"
             style="fill:none;stroke:#353535;stroke-width:1.8;stroke-linecap:round;stroke-linejoin:round;stroke-miterlimit:10;stroke-dasharray:none;stroke-opacity:1"
             id="path678" />
        </g>
        <g
           id="g680"
           transform="translate(260.7109,402.4204)">
          <path
             d="M -7.0493883,-23.532194 C -6.0006547,-8.4925127 1.1068074,3.0151036 9.9891607,12.34705"
             style="fill:none;stroke:#353535;stroke-width:1.97814;stroke-linecap:round;stroke-linejoin:round;stroke-miterlimit:10;stroke-dasharray:none;stroke-opacity:1"
             id="path682"
             sodipodi:nodetypes="cc" />
        </g>
        <g
           id="g684"
           transform="translate(306.5859,432.6519)">
          <path
             d="M 0,0 C 1.891,-2.137 3.448,-4.552 4.511,-7.2"
             style="fill:none;stroke:#353535;stroke-width:1.8;stroke-linecap:round;stroke-linejoin:round;stroke-miterlimit:10;stroke-dasharray:none;stroke-opacity:1"
             id="path686" />
        </g>
        <g
           id="g688"
           transform="translate(271.2197,415.0713)">
          <path
             d="m 0,0 c -1.407,6.946 -0.839,14.362 1.44,21.073 1.25,3.681 3.507,7.569 7.299,8.42 1.847,0.414 3.773,0.023 5.611,-0.436 5.312,-1.329 10.527,-3.268 15.077,-6.319 2.177,-1.461 4.2,-3.192 5.939,-5.157"
             style="fill:none;stroke:#353535;stroke-width:1.8;stroke-linecap:round;stroke-linejoin:round;stroke-miterlimit:10;stroke-dasharray:none;stroke-opacity:1"
             id="path690" />
        </g>
        <g
           id="g692"
           transform="translate(306.585,432.6519)">
          <path
             d="m 0,0 c 2.358,2.398 4.473,5.518 6.851,7.896 2.378,2.377 5.47,4.335 8.834,4.281 2.568,-0.041 4.986,-1.255 7.057,-2.774 3.768,-2.763 6.674,-6.585 8.815,-10.739 2.14,-4.154 3.683,-8.808 4.837,-13.335"
             style="fill:none;stroke:#353535;stroke-width:1.8;stroke-linecap:round;stroke-linejoin:round;stroke-miterlimit:10;stroke-dasharray:none;stroke-opacity:1"
             id="path694" />
        </g>
        <g
           id="g696"
           transform="translate(238.7305,388.8599)">
          <path
             d="M 0,0 C -0.671,0.071 -1.347,0.107 -2.023,0.106 -9.027,0.101 -15.9,-3.807 -19.487,-9.821 c -1.316,-2.205 -2.222,-4.791 -1.818,-7.326 0.405,-2.535 2.047,-4.684 3.756,-6.599 5.632,-6.309 12.924,-11.772 19.765,-16.748"
             style="fill:none;stroke:#353535;stroke-width:1.8;stroke-linecap:round;stroke-linejoin:round;stroke-miterlimit:10;stroke-dasharray:none;stroke-opacity:1"
             id="path698" />
        </g>
        <g
           id="g700"
           transform="translate(296.3291,303.8408)">
          <path
             d="m -1.730163,-3.235295 c -10.057957,3.95069633 -19.72601,9.3463136 -27.782074,16.908274 -8.054125,7.560923 -14.440976,17.393029 -17.16739,28.483213 -2.726414,11.088108 -1.558644,23.442597 4.073618,32.693413 -3.150264,5.634361 -8.900855,9.480218 -14.989944,10.166348"
             style="fill:none;stroke:#353535;stroke-width:1.80609;stroke-linecap:round;stroke-linejoin:round;stroke-miterlimit:10;stroke-dasharray:none;stroke-opacity:1"
             id="path702" />
        </g>
        <g
           id="g704"
           transform="translate(150.7832,230.0781)">
          <path
             d="M 0,0 C 3.691,-4.164 6.309,-9.288 8.564,-14.422"
             style="fill:none;stroke:#353535;stroke-width:1.8;stroke-linecap:round;stroke-linejoin:round;stroke-miterlimit:10;stroke-dasharray:none;stroke-opacity:1"
             id="path706" />
        </g>
        <g
           id="g708"
           transform="translate(134.689,215.4473)">
          <path
             d="m 0,0 c -0.035,3.055 0.184,6.249 0.917,9.214 0.734,2.966 2.005,5.826 3.938,8.19 0.785,0.96 1.737,1.869 2.941,2.164 1.863,0.455 3.729,-0.675 5.199,-1.908 1.113,-0.934 2.143,-1.949 3.099,-3.029"
             style="fill:none;stroke:#353535;stroke-width:1.8;stroke-linecap:round;stroke-linejoin:round;stroke-miterlimit:10;stroke-dasharray:none;stroke-opacity:1"
             id="path710" />
        </g>
        <g
           id="g712"
           transform="translate(162.6304,241.4355)">
          <path
             d="M 0,0 C 7,-2.633 13.23,-7.175 18.518,-12.498"
             style="fill:none;stroke:#353535;stroke-width:1.8;stroke-linecap:round;stroke-linejoin:round;stroke-miterlimit:10;stroke-dasharray:none;stroke-opacity:1"
             id="path714" />
        </g>
        <g
           id="g716"
           transform="translate(150.7832,230.0781)">
          <path
             d="m 0,0 c -0.426,2.304 -0.812,4.91 -0.415,7.217 0.397,2.308 1.793,4.591 4,5.375 1.733,0.616 3.652,0.23 5.417,-0.284 0.962,-0.282 1.911,-0.599 2.845,-0.951"
             style="fill:none;stroke:#353535;stroke-width:1.8;stroke-linecap:round;stroke-linejoin:round;stroke-miterlimit:10;stroke-dasharray:none;stroke-opacity:1"
             id="path718" />
        </g>
        <g
           id="g720"
           transform="translate(162.6304,241.4355)">
          <path
             d="m 0,0 c -1.509,2.954 -3.086,6.448 -3.594,9.726 -0.507,3.279 0.172,6.922 2.557,9.228 2.154,2.084 5.296,2.754 8.283,3.013 3.971,0.343 8.389,0.232 12.297,-0.551"
             style="fill:none;stroke:#353535;stroke-width:1.8;stroke-linecap:round;stroke-linejoin:round;stroke-miterlimit:10;stroke-dasharray:none;stroke-opacity:1"
             id="path722" />
        </g>
        <g
           id="g724"
           transform="translate(207.9385,275.7998)">
          <path
             d="M 0,0 C 4.131,-3.443 7.672,-7.635 10.377,-12.268"
             style="fill:none;stroke:#353535;stroke-width:1.8;stroke-linecap:round;stroke-linejoin:round;stroke-miterlimit:10;stroke-dasharray:none;stroke-opacity:1"
             id="path726" />
        </g>
        <g
           id="g728"
           transform="translate(182.1733,262.8511)">
          <path
             d="m 0,0 c -2.037,3.083 -3.783,6.298 -4.805,9.852 -0.594,2.07 -0.924,4.261 -0.542,6.379 0.383,2.119 1.557,4.164 3.423,5.239 1.872,1.078 4.167,1.072 6.317,0.847 7.88,-0.829 15.27,-4.282 21.372,-9.368"
             style="fill:none;stroke:#353535;stroke-width:1.8;stroke-linecap:round;stroke-linejoin:round;stroke-miterlimit:10;stroke-dasharray:none;stroke-opacity:1"
             id="path730" />
        </g>
        <g
           id="g732"
           transform="translate(195.0132,242.749)">
          <path
             d="M 0,0 C -2.744,7.458 -8.462,13.475 -12.84,20.102"
             style="fill:none;stroke:#353535;stroke-width:1.8;stroke-linecap:round;stroke-linejoin:round;stroke-miterlimit:10;stroke-dasharray:none;stroke-opacity:1"
             id="path734" />
        </g>
        <g
           id="g736"
           transform="translate(243.4219,287.8789)">
          <path
             d="M 0,0 C 2.541,-4.169 4.503,-8.698 5.891,-13.383"
             style="fill:none;stroke:#353535;stroke-width:1.8;stroke-linecap:round;stroke-linejoin:round;stroke-miterlimit:10;stroke-dasharray:none;stroke-opacity:1"
             id="path738" />
        </g>
        <g
           id="g740"
           transform="translate(207.9385,275.7998)">
          <path
             d="m 0,0 c -1.274,6.889 -2.364,14.42 -2.109,21.42 0.068,1.87 0.241,3.756 0.843,5.527 0.601,1.77 1.667,3.431 3.224,4.467 2.931,1.946 6.849,1.303 10.171,0.143 7.188,-2.51 13.587,-7.099 18.557,-12.867 1.779,-2.067 3.378,-4.283 4.797,-6.611"
             style="fill:none;stroke:#353535;stroke-width:1.8;stroke-linecap:round;stroke-linejoin:round;stroke-miterlimit:10;stroke-dasharray:none;stroke-opacity:1"
             id="path742" />
        </g>
      </g>
    </g>
  </g>
</svg>
