<?xml version="1.0" encoding="UTF-8" standalone="no"?>
<!-- Creator: CorelDRAW X6 -->

<svg
   xmlns:dc="http://purl.org/dc/elements/1.1/"
   xmlns:cc="http://creativecommons.org/ns#"
   xmlns:rdf="http://www.w3.org/1999/02/22-rdf-syntax-ns#"
   xmlns:svg="http://www.w3.org/2000/svg"
   xmlns="http://www.w3.org/2000/svg"
   xmlns:sodipodi="http://sodipodi.sourceforge.net/DTD/sodipodi-0.dtd"
   xmlns:inkscape="http://www.inkscape.org/namespaces/inkscape"
   xml:space="preserve"
   width="2170.4678"
   height="1524.4485"
   version="1.1"
   style="clip-rule:evenodd;fill-rule:evenodd;image-rendering:optimizeQuality;shape-rendering:geometricPrecision;text-rendering:geometricPrecision"
   viewBox="0 0 22608.739 15879.499"
   id="svg691"
   sodipodi:docname="dinos.svg"
   inkscape:version="0.92.1 r15371"><defs
     id="defs5729" /><metadata
     id="metadata695"><rdf:RDF><cc:Work
         rdf:about=""><dc:format>image/svg+xml</dc:format><dc:type
           rdf:resource="http://purl.org/dc/dcmitype/StillImage" /><dc:title></dc:title></cc:Work></rdf:RDF></metadata><sodipodi:namedview
     pagecolor="#ffffff"
     bordercolor="#666666"
     borderopacity="1"
     objecttolerance="10"
     gridtolerance="10"
     guidetolerance="10"
     inkscape:pageopacity="0"
     inkscape:pageshadow="2"
     inkscape:window-width="1920"
     inkscape:window-height="1003"
     id="namedview693"
     showgrid="false"
     inkscape:zoom="0.37641518"
     inkscape:cx="1221.8537"
     inkscape:cy="718.74099"
     inkscape:window-x="-9"
     inkscape:window-y="-9"
     inkscape:window-maximized="1"
     inkscape:current-layer="svg691"
     units="px" /><path
     style="fill:#231f20;fill-rule:nonzero"
     inkscape:connector-curvature="0"
     id="path114"
     d="m 9428.692,7136.1356 c -57,22 -109,57 -160,89 -69,44 -145,72 -220,103 -155,63 -269,165 -346,314 -175,343 0,742 18,1098 19,403 -136,797 -341,1136 -9,15 15,29 24,14 163,-270 294,-569 333,-885 19,-155 16,-307 -9,-461 -28,-178 -67,-355 -70,-536 -3,-176 42,-345 154,-483 107,-132 262,-170 409,-240 99,-47 184,-138 299,-143 100,-5 110,140 96,208 -20,90 -93,165 -168,214 -15,10 -1,34 14,24 107,-69 215,-200 185,-337 -26,-120 -104,-159 -217,-116 z"
     class="fil0" /><path
     style="fill:#231f20;fill-rule:nonzero"
     inkscape:connector-curvature="0"
     id="path116"
     d="m 9620.692,7296.1356 c 12,41 34,76 35,121 1,48 -11,96 -24,142 -31,103 -91,189 -160,269 -115,132 -248,245 -320,409 -76,174 -67,373 -65,559 2,222 14,445 -1,667 -7,106 -28,210 -35,316 -8,123 -6,244.0004 -34,365.0004 -50,216 -107,430 -174,642 -56,178 -133,347 -261,485 -92,100 -196,189 -300,276 -20,17 -41,32 -60,50 -13,12 7,32 20,20 173,-163 370,-295 493,-504 102,-174 154,-375 210,-566 60,-206 118,-420 129,-635.0004 11,-221 46,-439 48,-661 2,-219 -11,-437 -7,-656 5,-222 66,-406 214,-572 111,-125 241,-235 306,-393 23,-55 39,-111 46,-170 9,-69 -15,-106 -33,-169 -5,-17 -32,-10 -27,7 z"
     class="fil0" /><path
     style="fill:#231f20;fill-rule:nonzero"
     inkscape:connector-curvature="0"
     id="path118"
     d="m 8389.692,9858.1356 c -87,183.0004 -357,251.0004 -541,248.0004 -208,-4 -381,-142.0004 -544,-256.0004 -323,-225 -698,-339 -1092,-311 -376,27 -697,192 -974,440 -289,258.0004 -517,577.0004 -742,889.0004 -172,239 -375,489 -669,579 -192,59 -418,-58 -588,-130 -89,-38 -178,-78 -266,-120 -75,-36 -144,-83 -219,-119 -19,-9 -86,-38 -87,6 -1,47 53,99 81,132 70,83 148,160 227,235 105,100 214,195 331,281 133,99 286,164 443,216 222,73 454,91 686,68 246,-24 474,-139 685,-261 15,-9 2,-33 -14,-24 -187,108 -383,207 -597,247 -202,38 -428,27 -627,-21 -161,-39 -325,-100 -467,-185 -95,-57 -181,-129 -264,-201 -93,-79 -182,-163 -267,-250 -62,-63 -127,-128 -174,-204 -10,-16 -25,-34 -4,-29 50,11 101,48 145,72 162,91 333,165 505,233 153,61 329,129 494,75 265,-86 458,-299 619,-515 239,-320 462,-649 755,-924 145,-136.0004 305,-257.0004 488,-339.0004 186,-84 391,-123 594,-129 214,-7 426,33 625,113 202,81 369,212 551,328.0004 159,101 325,149 513,120 151,-24 350,-103 420,-251.0004 8,-16 -16,-30 -24,-14 z"
     class="fil0" /><path
     style="fill:#231f20;fill-rule:nonzero"
     inkscape:connector-curvature="0"
     id="path120"
     d="m 6487.692,12161.136 c -51,-22 -106,-35 -159,-52 -109,-35 -142,-113 -89,-212 74,-139 208,-237 282,-378 116,-220 -26,-486 -163,-661 -11,-14 -31,6 -20,20 126,161 249,388 173,596 -56,153 -201,261 -288,395 -65,101 -48,199 62,253 102,49 274,48 320,172 29,79 -40,168 -94,218 -65,60 -153,95 -239,112 -94,19 -195,6 -290,-5 -102,-12 -205,-23 -306,-38 -87,-13 -172,-37 -247,-84 -104,-65 -121,-172 -123,-285 -3,-164 -28,-308 -137,-436 -44,-52 -82,-75 -142,-101 -16,-7 -30,17 -14,24 150,66 236,213 258,374 22,161 -20,321 125,435 123,96 292,102 440,120 178,21 357,60 531,0 121,-42 239,-135 268,-265 24,-105 -65,-168 -149,-203 z"
     class="fil0" /><path
     style="fill:#231f20;fill-rule:nonzero"
     inkscape:connector-curvature="0"
     id="path122"
     d="m 6495.692,10747.136 c 17,63 8,125 -7,187 -9,38 -40,67 -38,108 1,18 29,18 28,0 -2,-42 36,-93 45,-136 12,-55 14,-112 -1,-166 -5,-17 -32,-10 -27,7 z"
     class="fil0" /><path
     style="fill:#231f20;fill-rule:nonzero"
     inkscape:connector-curvature="0"
     id="path124"
     d="m 5217.692,11871.136 c -119,88 -279,90 -421,104 -153,14 -307,22 -461,22 -18,0 -18,28 0,28 162,0 325,-9 486,-24 139,-13 294,-19 410,-105 14,-11 0,-35 -14,-24 z"
     class="fil0" /><path
     style="fill:#231f20;fill-rule:nonzero"
     inkscape:connector-curvature="0"
     id="path126"
     d="m 8194.692,11383.136 c -8,-16 -32,-2 -24,14 51,104 39,223 67,333 33,128 85,250 109,381 23,122 11,245 -86,330 -76,67 -187,92 -285,96 -96,5 -190,-18 -248,-100 -50,-71 -57,-167 -60,-251 -4,-111 0,-220 -13,-331 -16,-139 -42,-277 -48,-417 -1,-18 -29,-18 -28,0 7,166 40,329 56,495 11,115 -2,231 12,346 10,80 36,159 95,217 65,64 164,72 250,68 202,-10 383,-123 392,-337 7,-149 -55,-296 -99,-435 -42,-133 -29,-283 -91,-410 z"
     class="fil0" /><path
     style="fill:#231f20;fill-rule:nonzero"
     inkscape:connector-curvature="0"
     id="path128"
     d="m 7623.692,11745.136 c -87,25 -197,8 -286,4 -114,-5 -229,-13 -343,-18 -212,-8 -426,-1 -638,-1 -18,0 -18,28 0,28 215,0 432,-7 647,1 117,4 233,13 350,18 87,4 192,19 277,-5 17,-5 10,-32 -7,-27 z"
     class="fil0" /><path
     style="fill:#231f20;fill-rule:nonzero"
     inkscape:connector-curvature="0"
     id="path130"
     d="m 7599.692,11633.136 c -87,2 -184,-62 -260,-98 -69,-33 -136,-62 -211,-81 -178,-46 -373,-82 -557,-84 -18,0 -18,27 0,28 192,2 395,41 579,91 83,22 158,63 235,100 63,30 141,75 214,73 18,-1 18,-28 0,-28 z"
     class="fil0" /><path
     style="fill:#231f20;fill-rule:nonzero"
     inkscape:connector-curvature="0"
     id="path132"
     d="m 6570.692,12319.136 c -29,-3 -54,15 -70,37 -31,44 -33,130 -4,176 10,15 34,1 24,-14 -20,-30 -18,-73 -11,-107 4,-20 12,-42 29,-55 31,-23 41,1 56,23 10,15 34,1 24,-14 -12,-18 -23,-44 -47,-46 z"
     class="fil0" /><path
     style="fill:#231f20;fill-rule:nonzero"
     inkscape:connector-curvature="0"
     id="path134"
     d="m 6348.692,12602.136 c 1,0 1,1 2,1 1,-1 1,-2 2,-2 -1,0 -3,1 -4,1 z"
     class="fil0" /><path
     style="fill:#231f20;fill-rule:nonzero"
     inkscape:connector-curvature="0"
     id="path136"
     d="m 6342.692,12612.136 c 0,1 0,2 0,2 3,-4 6,-7 8,-11 -1,0 -1,-1 -2,-1 1,0 3,-1 4,-1 -1,1 -1,2 -2,2 5,3 10,6 15,8 -1,-5 -2,-11 -4,-16 -9,-3 -22,4 -20,16 z"
     class="fil0" /><path
     style="fill:#231f20;fill-rule:nonzero"
     inkscape:connector-curvature="0"
     id="path138"
     d="m 6346.692,12434.136 c -33,52 -21,129 -8,185 2,8 10,12 17,10 1,0 3,-1 4,-1 6,-2 10,-7 10,-13 0,-3 0,-6 -1,-10 -1,-5 -4,-8 -7,-9 1,5 2,11 4,16 -5,-3 -10,-6 -15,-8 -3,4 -6,8 -8,11 0,-1 0,-1 0,-2 -2,-13 11,-20 20,-16 -7,-35 -11,-73 -6,-108 3,-19 9,-39 26,-50 28,-17 78,11 85,39 4,17 31,10 27,-7 -14,-57 -112,-92 -148,-36 z"
     class="fil0" /><path
     style="fill:#231f20;fill-rule:nonzero"
     inkscape:connector-curvature="0"
     id="path140"
     d="m 6588.692,12253.136 c -26,16 -40,45 -31,75 5,17 32,10 27,-7 -5,-18 2,-34 18,-43 15,-9 1,-33 -14,-24 z"
     class="fil0" /><path
     style="fill:#231f20;fill-rule:nonzero"
     inkscape:connector-curvature="0"
     id="path142"
     d="m 8249.692,12285.136 c -26,44 -22,113 -7,160 5,17 32,10 27,-7 -9,-31 -10,-64 -7,-96 2,-17 6,-33 15,-48 11,-19 46,-16 57,2 9,15 33,1 24,-14 -25,-42 -85,-36 -108,3 z"
     class="fil0" /><path
     style="fill:#231f20;fill-rule:nonzero"
     inkscape:connector-curvature="0"
     id="path144"
     d="m 8234.692,12348.136 c -31,-6 -58,-17 -88,-5 -18,7 -30,24 -38,41 -19,38 -26,95 -4,134 9,16 33,2 24,-14 -15,-27 -10,-62 -2,-90 4,-16 12,-33 26,-43 21,-15 52,0 75,4 17,3 25,-23 7,-27 z"
     class="fil0" /><path
     style="fill:#231f20;fill-rule:nonzero"
     inkscape:connector-curvature="0"
     id="path146"
     d="m 8352.692,12192.136 c -27,10 -45,40 -41,69 1,7 6,14 14,14 7,0 15,-6 14,-14 -2,-16 5,-36 21,-42 17,-6 9,-33 -7,-27 z"
     class="fil0" /><path
     style="fill:#231f20;fill-rule:nonzero"
     inkscape:connector-curvature="0"
     id="path148"
     d="m 9106.692,7635.1356 c -44,0 -79,-36 -79,-80 0,-44 36,-80 79,-80 44,0 80,36 80,80 0,44 -36,80 -80,80 z m 0,-187 c -59,0 -107,48 -107,107 0,59 48,107 107,107 59,0 107,-48 107,-107 0,-59 -48,-107 -107,-107 z"
     class="fil0" /><path
     style="fill:#231f20;fill-rule:nonzero"
     inkscape:connector-curvature="0"
     id="path150"
     d="m 9115.692,7513.1356 c -23,0 -42,19 -42,42 0,23 19,42 42,42 23,0 42,-19 42,-42 0,-23 -19,-42 -42,-42 z"
     class="fil0" /><path
     style="fill:#231f20;fill-rule:nonzero"
     inkscape:connector-curvature="0"
     id="path152"
     d="m 9522.692,7251.1356 c -17,0 -31,9 -31,21 0,11 14,21 31,21 17,0 31,-9 31,-21 0,-12 -14,-21 -31,-21 z"
     class="fil0" /><path
     style="fill:#231f20;fill-rule:nonzero"
     inkscape:connector-curvature="0"
     id="path154"
     d="m 8686.692,8371.1356 c -41,-25 -95,-73 -113,-119 -12,-28 48,-107 66,-138 -7,6 -20,6 -22,-6 0,-1 0,-1 0,-2 8,1 17,2 25,3 -1,1 -2,3 -3,5 3,-3 6,-8 5,-13 0,-1 0,-1 0,-2 -2,-12 -20,-14 -25,-3 -26,48 -80,106 -72,164 3,25 32,49 47,67 23,26 48,50 79,68 15,9 29,-15 14,-24 z"
     class="fil0" /><path
     style="fill:#231f20;fill-rule:nonzero"
     inkscape:connector-curvature="0"
     id="path156"
     d="m 8616.692,8106.1356 c 0,1 0,1 0,2 2,12 15,12 22,6 1,-2 2,-3 3,-5 -8,-1 -17,-2 -25,-3 z"
     class="fil0" /><path
     style="fill:#231f20;fill-rule:nonzero"
     inkscape:connector-curvature="0"
     id="path158"
     d="m 8705.692,8744.1356 c -31,51 -89,81 -93,144 -4,65 55,130 78,186 7,16 33,9 27,-7 -20,-50 -51,-95 -70,-147 -26,-70 51,-111 82,-162 9,-15 -15,-29 -24,-14 z"
     class="fil0" /><path
     style="fill:#231f20;fill-rule:nonzero"
     inkscape:connector-curvature="0"
     id="path160"
     d="m 8591.692,9439.1356 c -32,6 -60,27 -91,37 -23,7 -33,22 -40,44 -9,27 -4,59 -2,87 3,35 -4,70 8,103 6,17 33,10 27,-7 -14,-41 -10,-100 -10,-143 0,-35 14,-53 46,-64 24,-8 44,-25 69,-29 18,-3 10,-30 -7,-27 z"
     class="fil0" /><path
     style="fill:#231f20;fill-rule:nonzero"
     inkscape:connector-curvature="0"
     id="path162"
     d="m 8262.692,9994.1356 c -62,-20 -162,-67 -225,-35 -24,12 -41,45.0004 -55,66.0004 -21,29 -44,53 -57,87 -6,17 21,24 27,7 16,-42 60,-95 91,-129.0004 33,-37 172,18.0004 211,31.0004 17,6 24,-21 7,-27.0004 z"
     class="fil0" /><path
     style="fill:#231f20;fill-rule:nonzero"
     inkscape:connector-curvature="0"
     id="path164"
     d="m 7284.692,9838.1356 c 9,-11 -5,-22 -16,-19 5,7 10,13 16,20 0,0 0,-1 1,-1 z"
     class="fil0" /><path
     style="fill:#231f20;fill-rule:nonzero"
     inkscape:connector-curvature="0"
     id="path166"
     d="m 7451.692,9798.1356 c -53,-31 -129,7 -183,20 0,0 0,0 0,0 11,-3 25,8 16,19 0,0 0,1 -1,1 -5,-7 -10,-13 -16,-20 -3,1 -6,2 -8,5 0,0 0,1 -1,1 -8,10 5,23 16,20 44,-11 89,-28 135,-31 60,-3 66,129 70,169 2,18.0004 30,18.0004 28,0 -5,-44 -14,-87 -24,-130 -4,-20 -15,-45 -33,-56 z"
     class="fil0" /><path
     style="fill:#231f20;fill-rule:nonzero"
     inkscape:connector-curvature="0"
     id="path168"
     d="m 6965.692,9532.1356 c -58,-52 -151,29 -200,57 -16,9 -2,33 14,24 49,-28 136,-107 184,-42 29,39 39,92 50,138 4,17 31,10 27,-7 -13,-58 -28,-128 -74,-170 z"
     class="fil0" /><path
     style="fill:#231f20;fill-rule:nonzero"
     inkscape:connector-curvature="0"
     id="path170"
     d="m 6349.692,9397.1356 c -28,-3 -51,11 -68,33 -26,34 -59,73 -74,112 -7,17 20,24 27,7 10,-26 34,-50 49,-73 21,-34 45,-65 87,-41 43,24 82,74 102,118 8,16 31,2 24,-14 -24,-52 -85,-135 -147,-142 z"
     class="fil0" /><path
     style="fill:#231f20;fill-rule:nonzero"
     inkscape:connector-curvature="0"
     id="path172"
     d="m 6009.692,9564.1356 c -69,-26 -148,-72 -224,-56 -57,12 -80,119 -95,163 -6,17 21,24 27,7 20,-58 37,-156 116,-144 60,9 113,35 169,56 17,6 24,-21 7,-27 z"
     class="fil0" /><path
     style="fill:#231f20;fill-rule:nonzero"
     inkscape:connector-curvature="0"
     id="path174"
     d="m 5487.692,9782.1356 c -68,11 -160,-19 -224,16 -68,38 -48,134 -47,199 0,18.0004 28,18.0004 28,0 0,-39 -3,-79 0,-118 3,-46 34,-62 75,-66 58,-6 117,6 175,-4 18,-3 10,-30 -7,-27 z"
     class="fil0" /><path
     style="fill:#231f20;fill-rule:nonzero"
     inkscape:connector-curvature="0"
     id="path176"
     d="m 5029.692,10178.136 c -68,24 -155,18 -212,68 -61,53 -12,122 1,186 4,18 30,10 27,-7 -6,-27 -16,-53 -25,-79 -14,-46 2,-74 44,-95 53,-27 117,-25 172,-45 17,-6 10,-33 -7,-27 z"
     class="fil0" /><path
     style="fill:#231f20;fill-rule:nonzero"
     inkscape:connector-curvature="0"
     id="path178"
     d="m 4658.692,10650.136 c -36,-1 -70,13 -105,17 -24,3 -44,7 -62,22 -19,16 -23,50 -26,72 -6,51 -5,102 -4,152 0,18 28,18 28,0 0,-58 -16,-157 22,-205 12,-15 41,-14 57,-16 30,-4 60,-16 91,-15 18,1 18,-27 0,-28 z"
     class="fil0" /><path
     style="fill:#231f20;fill-rule:nonzero"
     inkscape:connector-curvature="0"
     id="path180"
     d="m 4335.692,11070.136 c -78,2 -166,17 -229,67 -21,17 -30,43 -32,68 -4,44 -16,89 -14,133 1,18 29,18 28,0 -1,-30 5,-58 10,-87 5,-35 -1,-68 28,-95 49,-46 146,-57 209,-58 18,-1 18,-28 0,-28 z"
     class="fil0" /><path
     style="fill:#231f20;fill-rule:nonzero"
     inkscape:connector-curvature="0"
     id="path182"
     d="m 3759.692,11397.136 c -26,-19 -47,-53 -78,-64 -72,-25 -127,52 -180,86 -15,10 -1,34 14,24 48,-31 114,-123 179,-68 31,26 83,61 104,94 9,15 34,1 24,-14 -16,-25 -39,-41 -63,-59 z"
     class="fil0" /><path
     style="fill:#231f20;fill-rule:nonzero"
     inkscape:connector-curvature="0"
     id="path184"
     d="m 3194.692,11167.136 c -70,-50 -129,12 -189,48 -15,9 -1,33 14,24 58,-34 114,-96 175,-34 35,36 56,90 68,137 4,17 31,10 27,-7 -15,-59 -44,-131 -95,-167 z"
     class="fil0" /><path
     style="fill:#231f20;fill-rule:nonzero"
     inkscape:connector-curvature="0"
     id="path186"
     d="m 8997.692,7542.1356 c -8,0 -16,4 -24,1 -7,-3 -15,3 -17,10 -2,8 3,14 10,17 11,4 21,1 31,1 18,-1 18,-28 0,-28 z"
     class="fil0" /><path
     style="fill:#231f20;fill-rule:nonzero"
     inkscape:connector-curvature="0"
     id="path188"
     d="m 8994.692,7579.1356 c -1,1 -4,2 -7,1 -17,-4 -25,23 -7,27 13,3 25,1 34,-8 13,-12 -6,-32 -20,-20 z"
     class="fil0" /><path
     style="fill:#231f20;fill-rule:nonzero"
     inkscape:connector-curvature="0"
     id="path190"
     d="m 9013.692,7609.1356 c -8,4 -13,11 -16,20 -3,7 3,15 10,17 8,2 15,-3 17,-10 1,-3 0,-1 2,-3 -1,2 -1,1 1,0 16,-8 2,-32 -14,-24 z"
     class="fil0" /><path
     style="fill:#231f20;fill-rule:nonzero"
     inkscape:connector-curvature="0"
     id="path192"
     d="m 11781.692,3394.1356 c -115,0 -209,94 -209,209 0,115 94,209 209,209 115,0 209,-94 209,-209 0,-115 -94,-209 -209,-209 z m 0,439 c -127,0 -230,-103 -230,-230 0,-127 103,-230 230,-230 127,0 230,103 230,230 0,127 -103,230 -230,230 z"
     class="fil0" /><path
     style="fill:#231f20;fill-rule:nonzero"
     inkscape:connector-curvature="0"
     id="path194"
     d="m 11762.692,3754.1356 c -56,0 -101,-45 -101,-101 0,-56 45,-101 101,-101 56,0 101,45 101,101 0,56 -45,101 -101,101 z"
     class="fil0" /><path
     style="fill:#231f20;fill-rule:nonzero"
     inkscape:connector-curvature="0"
     id="path196"
     d="m 11549.692,3655.1356 c -18,-24 -50,-45 -81,-45 -56,0 -93,27 -93,82 0,18 5,35 13,50 2,0 5,0 7,1 5,-8 13,-14 24,-15 10,-1 20,-3 29,-4 2,-2 4,-4 6,-5 30,-22 46,-26 78,-42 0,-12 12,-11 16,-22 z"
     class="fil0" /><path
     style="fill:#231f20;fill-rule:nonzero"
     inkscape:connector-curvature="0"
     id="path198"
     d="m 10998.692,4800.1356 c -17,0 -33,-5 -49,-16 -64,-42 -76,-160 -81,-210 -13,-120 -2,-234 32,-337 48,-145 123,-259 225,-337 61,-47 130,-84 196,-120 16,-9 32,-17 48,-26 19,-11 39,-23 58,-35 39,-25 79,-51 123,-63 1,0 2,0 3,0 5,0 8,5 9,9 0,3 0,9 -7,11 -48,13 -94,43 -138,72 -23,15 -45,29 -66,41 -12,7 -24,13 -37,20 -54,28 -109,58 -158,95 -122,94 -206,221 -244,367 -27,104 -35,198 -26,289 v 3 c 6,60 23,219 106,219 1,0 3,0 4,0 61,-4 110,-59 149,-103 4,-5 8,-9 12,-13 14,-16 28,-32 42,-48 32,-37 66,-76 102,-109 82,-74 175,-112 274,-152 14,-6 28,-11 42,-17 352,-144 514,-321 496,-541 0,-3 0,-5 2,-6 1,-2 4,-3 7,-3 4,0 11,2 12,10 25,294 -292,469 -482,548 -24,10 -49,19 -73,28 -84,31 -171,64 -240,126 -40,37 -76,77 -112,117 -25,28 -51,57 -77,84 l -4,4 c -39,40 -93,94 -148,94 v 0 z"
     class="fil0" /><path
     style="fill:#231f20;fill-rule:nonzero"
     inkscape:connector-curvature="0"
     id="path200"
     d="m 12182.692,3814.1356 c -1,0 -3,-1 -5,-2 -16,-12 -42,-20 -67,-20 -22,0 -39,6 -51,18 -2,2 -4,3 -6,3 -4,0 -8,-3 -10,-7 -2,-4 -1,-7 2,-11 14,-15 39,-24 67,-24 28,0 55,8 73,22 6,5 5,11 4,13 -1,4 -5,7 -8,7 z"
     class="fil0" /><path
     style="fill:#231f20;fill-rule:nonzero"
     inkscape:connector-curvature="0"
     id="path202"
     d="m 11581.692,4941.1356 c -39,0 -65,-15 -79,-45 -27,-60 25,-158 45,-195 9,-16 18,-32 26,-48 54,-99 106,-193 107,-316 0,-9 9,-10 10,-10 3,0 6,1 8,3 2,2 2,4 2,7 -1,86 -17,158 -53,225 -11,21 -25,44 -40,68 -43,70 -92,150 -90,228 1,40 23,62 63,62 0,0 0,0 0,0 111,0 343,-167 371,-189 348,-285 598,-672 705,-1090 41,-161 91,-372 113,-584 l 1,-13 c 7,-65 15,-139 -8,-200 -15,-39 -36,-58 -63,-58 -59,0 -117,94 -123,105 -26,44 -48,89 -69,133 -37,77 -71,149 -126,214 -56,66 -122,127 -194,181 -14,11 -28,22 -42,33 -41,34 -84,69 -136,81 -1,0 -2,0 -3,0 -6,0 -10,-5 -10,-11 0,-3 0,-8 7,-9 54,-12 98,-49 140,-84 12,-10 24,-20 36,-29 48,-37 104,-82 151,-134 63,-70 113,-146 155,-240 3,-7 7,-15 10,-24 34,-78 105,-241 197,-241 5,0 10,0 14,1 120,22 94,221 81,316 l -2,12 c -33,258 -82,488 -147,684 -76,232 -198,453 -361,655 -116,143 -294,344 -512,452 -39,19 -121,60 -185,60 0,0 0,0 0,0 z"
     class="fil0" /><path
     style="fill:#231f20;fill-rule:nonzero"
     inkscape:connector-curvature="0"
     id="path204"
     d="m 11543.692,4737.1356 c -4,0 -8,-2 -10,-4 -2,-2 -2,-5 -1,-8 9,-34 18,-68 27,-102 6,-26 13,-52 20,-79 1,-5 3,-10 4,-15 15,-53 33,-118 8,-169 -2,-4 -2,-7 0,-10 2,-4 6,-6 10,-6 3,0 5,2 7,5 22,45 15,98 3,149 -18,83 -40,163 -59,231 -2,6 -6,7 -9,7 v 0 z"
     class="fil0" /><path
     style="fill:#231f20;fill-rule:nonzero"
     inkscape:connector-curvature="0"
     id="path206"
     d="m 11299.692,3809.1356 c -2,0 -4,-1 -6,-3 -68,-73 -38,-192 17,-273 46,-67 132,-108 224,-108 27,0 53,4 78,11 7,2 7,8 7,11 -1,4 -4,9 -9,9 v 0 c -1,0 -2,0 -3,0 -23,-7 -47,-10 -73,-10 -80,0 -153,32 -196,85 -49,61 -101,186 -32,260 4,4 3,8 2,11 -2,4 -6,7 -10,7 z"
     class="fil0" /><path
     style="fill:#231f20;fill-rule:nonzero"
     inkscape:connector-curvature="0"
     id="path208"
     d="m 13599.692,4292.1356 c -169,0 -309,-39 -481,-102 -48,-18 -98,-33 -146,-47 -51,-15 -105,-31 -156,-51 -24,-9 -48,-19 -72,-29 -61,-25 -124,-51 -191,-64 -5,-1 -7,-4 -7,-9 1,-5 5,-11 11,-11 1,0 2,0 2,0 59,12 115,35 169,57 29,12 60,25 91,35 41,14 83,27 123,39 48,14 97,29 144,46 l 9,3 c 157,58 305,112 475,112 9,0 18,0 27,0 432,-15 716,-144 893,-407 127,-188 149,-355 71,-539 -12,-28 -27,-57 -42,-84 -45,-82 -91,-166 -48,-259 15,-33 58,-83 84,-83 13,0 22,14 27,41 3,18 5,36 7,54 1,12 2,24 4,37 0,1 19,136 64,136 14,0 28,-13 41,-38 2,-3 4,-5 7,-5 4,0 8,2 10,6 2,3 2,7 0,10 -15,29 -38,47 -61,47 v 0 c -22,0 -41,-14 -54,-40 -17,-34 -22,-77 -27,-115 v -2 c -1,-12 -2,-23 -4,-35 -1,-8 -2,-16 -2,-24 -3,-26 -14,-31 -22,-31 -26,0 -60,60 -63,79 -15,82 20,146 55,208 17,30 34,62 46,95 26,75 52,154 50,229 -2,119 -54,241 -160,372 -188,235 -463,355 -838,368 -12,0 -25,1 -37,1 z"
     class="fil0" /><path
     style="fill:#231f20;fill-rule:nonzero"
     inkscape:connector-curvature="0"
     id="path210"
     d="m 16447.692,1705.1356 c 0,0 0,0 1,0 5,0 9,4 10,8 1,3 1,6 -2,9 l -10,-16 z m -1747,1451 c -4,0 -8,-2 -10,-6 -2,-3 -2,-6 0,-10 22,-43 39,-88 55,-132 17,-48 35,-98 61,-144 47,-85 101,-168 159,-245 109,-145 246,-283 407,-410 280,-222 619,-383 1035,-493 -10,9 -20,19 -32,30 -417,114 -748,277 -1012,497 -180,150 -317,294 -419,439 -50,71 -112,160 -151,252 -13,30 -24,62 -35,92 -15,42 -30,86 -51,127 -2,3 -4,5 -7,5 z m 747,1273 c -1,0 -3,-1 -5,-2 -166,-104 -148,-405 -132,-529 20,-156 78,-451 250,-673 4,-6 9,-12 13,-17 56,-72 109,-140 96,-241 -8,-64 2,-127 32,-203 46,-117 106,-235 183,-362 160,-264 319,-468 500,-641 14,-4 28,-7 41,-11 -188,174 -354,382 -506,633 -72,119 -147,247 -198,385 -27,73 -27,133 -28,203 0,9 0,19 0,28 -1,48 -11,86 -32,120 -22,36 -46,70 -69,103 -45,65 -91,132 -126,208 -51,110 -88,225 -114,350 -23,109 -53,258 -23,384 20,83 47,196 124,244 6,4 5,9 4,11 -1,4 -5,8 -9,8 v 0 z"
     class="fil0" /><path
     style="fill:#231f20;fill-rule:nonzero"
     inkscape:connector-curvature="0"
     id="path212"
     d="m 14773.692,3236.1356 c -4,0 -8,-2 -10,-5 -2,-3 -3,-6 -2,-9 33,-223 174,-446 278,-594 116,-165 274,-298 399,-395 252,-197 537,-352 923,-505 1,-1 3,-1 4,-1 4,0 6,4 7,8 1,5 0,11 -7,14 -398,157 -686,317 -934,516 -143,115 -291,241 -392,401 l -5,8 c -105,166 -224,354 -254,556 -1,4 -3,6 -7,6 z"
     class="fil0" /><path
     style="fill:#231f20;fill-rule:nonzero"
     inkscape:connector-curvature="0"
     id="path214"
     d="m 14765.692,3252.1356 c -4,0 -7,-4 -8,-8 -1,-2 -2,-8 4,-13 115,-81 259,-152 429,-211 128,-45 278,-67 471,-71 v 0 c 9,0 10,8 10,10 0,1 0,11 -10,11 -330,6 -639,103 -892,280 -2,1 -3,2 -5,2 v 0 z"
     class="fil0" /><path
     style="fill:#231f20;fill-rule:nonzero"
     inkscape:connector-curvature="0"
     id="path216"
     d="m 14800.692,3336.1356 c -4,0 -8,-2 -10,-6 -2,-3 -2,-6 0,-10 53,-97 178,-147 288,-192 24,-10 46,-18 67,-28 205,-90 376,-138 522,-148 h 1 c 7,0 8,6 8,9 0,4 -2,11 -10,12 -211,14 -430,105 -542,159 -22,11 -47,21 -73,32 -92,38 -197,82 -244,167 -2,3 -4,5 -7,5 z"
     class="fil0" /><path
     style="fill:#231f20;fill-rule:nonzero"
     inkscape:connector-curvature="0"
     id="path218"
     d="m 15420.692,4429.1356 c -1,0 -3,0 -6,-3 -36,-45 -75,-90 -112,-134 -96,-111 -194,-226 -263,-353 -79,-148 -191,-370 -255,-596 -1,-3 -1,-6 1,-8 2,-3 6,-4 9,-4 3,0 8,1 9,7 54,189 144,399 262,607 68,120 162,229 252,335 37,43 75,87 110,131 4,5 3,10 1,12 -2,4 -6,7 -9,7 v 0 z"
     class="fil0" /><path
     style="fill:#231f20;fill-rule:nonzero"
     inkscape:connector-curvature="0"
     id="path220"
     d="m 15447.692,4428.1356 c -78,0 -154,-78 -210,-135 l -11,-11 c -84,-85 -158,-171 -219,-255 -65,-89 -110,-190 -158,-303 -6,-15 -13,-30 -20,-46 -31,-72 -63,-146 -78,-220 -1,-3 0,-6 2,-9 2,-3 6,-5 10,-5 7,0 8,5 8,7 14,66 41,130 67,193 5,11 9,22 14,33 l 7,18 c 42,103 86,209 150,300 55,78 120,157 200,239 8,8 16,17 25,27 57,62 134,146 214,146 9,0 10,9 10,10 0,2 -1,10 -10,10 v 0 z"
     class="fil0" /><path
     style="fill:#231f20;fill-rule:nonzero"
     inkscape:connector-curvature="0"
     id="path222"
     d="m 13961.692,5380.1356 c -7,0 -8,-6 -8,-9 0,-4 2,-11 10,-12 194,-10 436,-23 620,-139 105,-67 209,-147 337,-261 21,-18 41,-38 62,-59 52,-51 106,-103 166,-136 59,-32 116,-36 158,-36 26,0 53,2 81,4 21,1 44,3 66,4 2,0 4,0 7,0 9,0 24,1 40,1 51,0 81,-8 92,-23 4,-5 7,-14 3,-27 -6,-16 -14,-30 -23,-44 -9,-14 -17,-27 -22,-42 -17,-50 66,-105 91,-121 13,-8 28,-16 44,-25 42,-23 86,-46 113,-81 13,-16 16,-29 11,-40 -6,-12 -23,-19 -52,-19 -42,0 -98,13 -110,17 -93,32 -174,86 -252,138 -107,71 -208,138 -339,157 -16,2 -33,3 -50,3 -142,0 -302,-78 -382,-184 -116,-156 -45,-341 17,-505 6,-15 11,-30 17,-45 34,-92 49,-186 63,-277 8,-55 17,-112 30,-168 1,-5 4,-7 8,-7 4,0 8,2 10,5 2,2 2,5 2,9 -10,44 -15,90 -20,134 -3,27 -6,55 -10,83 -16,99 -49,192 -85,285 -3,8 -6,16 -9,25 -44,114 -99,256 -49,374 51,123 175,199 274,229 45,14 87,20 131,20 v 0 c 148,0 266,-77 391,-159 62,-40 126,-82 193,-114 28,-13 116,-38 179,-38 35,0 57,7 66,21 8,12 6,29 -4,52 -20,46 -69,69 -121,94 -51,24 -104,49 -127,99 -15,31 2,61 17,88 17,31 32,58 6,85 -17,17 -47,25 -93,25 v 0 c -26,0 -52,-3 -74,-5 -5,-1 -10,-1 -15,-1 -10,-1 -19,-2 -29,-3 -30,-3 -62,-7 -93,-7 -48,0 -85,8 -117,25 -51,28 -93,64 -128,96 -20,18 -40,37 -60,56 -145,136 -296,276 -471,354 -180,80 -384,96 -562,105 h -1 z"
     class="fil0" /><path
     style="fill:#231f20;fill-rule:nonzero"
     inkscape:connector-curvature="0"
     id="path224"
     d="m 13807.692,4277.1356 c -1,0 -2,0 -3,0 -179,-43 -347,-183 -438,-366 -80,-161 -89,-328 -26,-472 14,-31 36,-66 60,-103 67,-104 144,-221 67,-325 -7,-10 -15,-14 -22,-14 -19,0 -31,26 -40,83 0,2 0,3 -1,3 l -1,7 c -5,26 -11,52 -20,77 -17,43 -48,74 -77,74 -23,0 -42,-19 -56,-54 -2,-4 0,-6 0,-7 2,-2 5,-4 9,-4 3,0 8,1 11,7 11,27 23,40 38,40 38,0 64,-93 65,-94 6,-25 12,-51 18,-83 1,-3 1,-7 2,-10 5,-28 11,-65 37,-72 3,-1 5,-1 8,-1 28,0 53,42 62,68 19,52 32,129 -11,198 -12,20 -25,39 -38,59 -53,80 -107,162 -122,262 -18,122 1,246 54,350 95,187 251,319 427,361 7,2 7,7 7,10 0,4 -4,10 -10,10 0,0 0,0 0,0 z"
     class="fil0" /><path
     style="fill:#231f20;fill-rule:nonzero"
     inkscape:connector-curvature="0"
     id="path226"
     d="m 11644.692,1621.1356 c -2,-4 -2,-8 0,-11 1,-1 3,-6 8,-6 1,0 2,0 2,0 l -10,16 z m 1626,1581 c -2,0 -8,-1 -11,-7 -18,-46 -32,-94 -44,-140 -16,-57 -32,-115 -58,-171 -43,-92 -83,-165 -125,-231 -104,-160 -227,-308 -366,-439 -250,-236 -558,-420 -943,-563 -10,-12 -20,-22 -29,-32 415,150 738,340 987,581 158,153 279,298 370,444 57,91 107,188 150,288 18,43 30,89 41,133 11,42 22,86 39,127 2,4 0,6 0,7 -2,2 -5,4 -9,4 v 0 z m -875,9 c -3,0 -6,-2 -8,-5 -8,-13 -16,-25 -24,-37 -42,-65 -78,-121 -72,-207 1,-18 4,-35 7,-52 6,-36 11,-71 2,-113 -8,-39 -17,-73 -27,-105 -29,-90 -63,-177 -102,-260 -151,-323 -310,-572 -499,-782 13,5 27,10 40,15 186,212 341,459 476,755 6,12 11,24 17,37 53,116 113,247 121,372 2,30 -2,60 -6,90 -7,49 -13,100 7,152 12,31 32,58 50,85 9,13 19,27 28,41 2,3 2,6 1,9 -2,4 -6,6 -11,6 z"
     class="fil0" /><path
     style="fill:#231f20;fill-rule:nonzero"
     inkscape:connector-curvature="0"
     id="path228"
     d="m 13192.692,3277.1356 c -1,0 -11,0 -11,-10 -12,-221 -133,-454 -223,-609 -98,-170 -237,-310 -360,-425 -231,-215 -499,-394 -867,-578 -4,-2 -6,-5 -5,-9 1,-5 5,-9 11,-9 2,0 3,0 5,1 394,198 676,389 914,622 130,127 274,283 366,475 7,14 14,28 20,43 74,155 151,316 160,491 0,3 -1,5 -2,6 -2,2 -4,3 -7,3 v 0 z"
     class="fil0" /><path
     style="fill:#231f20;fill-rule:nonzero"
     inkscape:connector-curvature="0"
     id="path230"
     d="m 13194.692,3291.1356 c -2,0 -5,-1 -7,-3 -96,-80 -227,-152 -402,-221 -7,-3 -8,-9 -7,-14 1,-4 3,-8 7,-8 1,0 2,0 4,1 182,72 314,145 414,228 3,3 4,5 3,8 -1,4 -6,8 -12,8 v 0 z"
     class="fil0" /><path
     style="fill:#231f20;fill-rule:nonzero"
     inkscape:connector-curvature="0"
     id="path232"
     d="m 12499.692,2987.1356 c -1,0 -2,0 -3,0 -20,-5 -40,-12 -59,-19 -37,-12 -75,-25 -114,-30 -8,-1 -11,-8 -10,-13 0,-3 2,-7 7,-7 0,0 1,0 1,0 41,5 81,18 120,31 20,7 41,13 61,19 7,2 7,7 7,11 -1,5 -4,10 -9,10 v 0 z"
     class="fil0" /><path
     style="fill:#231f20;fill-rule:nonzero"
     inkscape:connector-curvature="0"
     id="path234"
     d="m 13155.692,3373.1356 c -2,0 -9,-1 -11,-7 -32,-76 -111,-118 -181,-156 -9,-5 -17,-9 -26,-14 -51,-28 -107,-58 -168,-85 -4,-2 -5,-4 -5,-8 1,-5 6,-10 12,-10 2,0 3,0 5,1 67,30 136,65 217,112 70,41 135,83 166,156 2,4 0,6 0,7 -2,2 -5,4 -9,4 z"
     class="fil0" /><path
     style="fill:#231f20;fill-rule:nonzero"
     inkscape:connector-curvature="0"
     id="path236"
     d="m 12776.692,4062.1356 c -4,0 -8,-3 -10,-7 -1,-3 -2,-7 2,-11 77,-89 136,-197 193,-301 8,-14 15,-28 23,-42 7,-13 15,-27 22,-40 51,-91 103,-186 141,-284 2,-6 8,-7 11,-7 4,0 8,2 9,4 0,1 2,3 0,7 -44,114 -105,224 -165,330 l -12,21 c -8,14 -15,27 -23,41 -55,99 -112,201 -186,285 -2,2 -4,3 -6,3 v 0 z"
     class="fil0" /><path
     style="fill:#231f20;fill-rule:nonzero"
     inkscape:connector-curvature="0"
     id="path238"
     d="m 12828.692,4096.1356 c -4,0 -7,-3 -9,-7 -1,-3 -2,-7 2,-12 83,-99 150,-214 214,-325 l 4,-7 c 11,-18 22,-37 33,-56 38,-63 77,-128 99,-195 2,-6 6,-7 10,-7 4,0 8,2 9,4 2,2 2,5 1,8 -24,76 -69,150 -113,222 -11,19 -23,37 -33,55 l -6,11 c -62,105 -125,213 -204,306 -2,2 -4,3 -6,3 v 0 z"
     class="fil0" /><path
     style="fill:#231f20;fill-rule:nonzero"
     inkscape:connector-curvature="0"
     id="path240"
     d="m 13375.692,4269.1356 c -2,0 -5,-1 -7,-3 -119,-110 -195,-266 -203,-416 -3,-51 1,-105 4,-156 4,-65 8,-133 1,-198 0,-3 0,-5 1,-6 1,-2 4,-2 7,-2 4,0 12,2 13,10 7,60 3,123 -1,183 -3,44 -6,90 -5,135 5,165 77,324 199,436 3,3 4,6 3,9 -2,4 -6,8 -11,8 z"
     class="fil0" /><path
     style="fill:#231f20;fill-rule:nonzero"
     inkscape:connector-curvature="0"
     id="path242"
     d="m 14011.692,5376.1356 c -78,0 -148,-10 -221,-32 -186,-55 -317,-146 -456,-266 -86,-74 -154,-151 -209,-216 -55,-65 -123,-115 -189,-163 -19,-14 -39,-28 -58,-43 -46,-35 -92,-73 -136,-109 -33,-27 -67,-55 -100,-81 l -20,-15 c -78,-62 -159,-126 -258,-147 -5,-1 -7,-4 -7,-9 1,-5 4,-11 11,-11 1,0 2,0 3,0 127,26 241,124 341,211 26,22 50,43 74,62 46,37 94,73 141,107 33,24 66,49 99,74 54,42 95,90 138,142 17,20 34,40 52,60 93,104 280,287 485,354 13,4 27,9 41,14 76,26 155,53 233,53 2,0 4,0 6,0 70,-1 139,-9 221,-21 1,0 1,0 2,0 8,0 12,7 12,12 0,6 -3,7 -6,7 -82,12 -141,16 -197,16 z"
     class="fil0" /><path
     style="fill:#231f20;fill-rule:nonzero"
     inkscape:connector-curvature="0"
     id="path244"
     d="m 14683.692,5172.1356 c -1,0 -2,0 -2,0 -151,-28 -276,-75 -383,-144 -28,-18 -57,-39 -87,-61 -95,-68 -193,-138 -303,-153 -27,-4 -54,-5 -84,-5 -71,0 -144,10 -214,20 -63,9 -127,18 -190,20 -11,0 -22,0 -32,0 -121,0 -221,-19 -336,-63 -8,-3 -7,-12 -7,-13 1,-4 3,-8 7,-8 1,0 2,0 4,1 109,42 216,61 347,61 35,0 72,-1 114,-4 44,-3 91,-10 135,-18 58,-10 119,-19 177,-19 43,0 81,5 115,16 100,32 182,87 268,145 23,15 46,31 70,46 123,79 255,131 406,159 5,1 7,4 7,8 0,5 -4,11 -11,11 v 0 z"
     class="fil0" /><path
     style="fill:#231f20;fill-rule:nonzero"
     inkscape:connector-curvature="0"
     id="path246"
     d="m 16152.692,15544.136 c 93,-6 183,20 275,27 87,7 177,-11 260,-35 161,-47 300,-147 426,-254 158,-135 331,-262 511,-365 184,-106 392,-178 587,-263 406,-177 820,-322 1248,-435 425,-112 846,-184 1287,-165 292,12 585,65 866,146 268,78 555,197 764,387 10,9 25,-6 15,-15 -278,-252 -671,-379 -1030,-457 -405,-88 -820,-108 -1231,-59 -415,50 -829,173 -1224,304 -198,66 -392,142 -585,224 -199,84 -403,165 -599,258 -277,131 -499,341 -743,520 -114,83 -241,146 -380,175 -79,16 -158,18 -238,7 -70,-10 -138,-25 -209,-20 -13,1 -13,22 0,21 v 0 z"
     class="fil0" /><path
     style="fill:none;fill-rule:nonzero;stroke:#231f20;stroke-width:27.77949905"
     inkscape:connector-curvature="0"
     id="path248"
     d="m 19404.692,14228.136 c 0,0 456,-1129 -9,-1943 -357,-625 -634,-1030 -1718,-1539 -311,-146 -978,-868.0004 -1578,-764.0004 400,676.0004 315,1670.0004 744,2680.0004 430,1010 902,1651 2046,1715"
     class="fil1 str0" /><path
     style="fill:none;fill-rule:nonzero;stroke:#231f20;stroke-width:27.77949905"
     inkscape:connector-curvature="0"
     id="path250"
     d="m 17257.692,13464.136 c 0,0 -221,192 -461,292 -240,101 -815,316 -1197,-78 -122,291 248,1763 1507,1596"
     class="fil1 str0" /><path
     style="fill:none;fill-rule:nonzero;stroke:#231f20;stroke-width:27.77949905"
     inkscape:connector-curvature="0"
     id="path252"
     d="m 18137.692,11008.136 c 0,0 -11,-2307.0004 4,-3090.0004 15,-783 -16,-1598 -179,-1714 523,301 987,793 1375,1368 388,575 1016,1234 980,3000.0004 -36,1766 -96,3277 87,3470"
     class="fil1 str0" /><path
     style="fill:none;fill-rule:nonzero;stroke:#231f20;stroke-width:27.77949905"
     inkscape:connector-curvature="0"
     id="path254"
     d="m 21050.692,14070.136 c 0,0 775,-1034 1061,-2041 287,-1008 487,-2150.0004 375,-2990.0004 -112,-840 -598,-3085 -1105,-3851 -70,447 -424,1710 -643,2180 -219,469 -579,1102 -606,1564"
     class="fil1 str0" /><path
     style="fill:#231f20;fill-rule:nonzero"
     inkscape:connector-curvature="0"
     id="path256"
     d="m 21516.692,8204.1356 c 0,443 -2,886 -5,1329 -3,439 0,878.0004 -44,1315.0004 -22,224 -59,447 -114,666 -53,213 -128,422 -197,631 -137,416 -276,831 -403,1251 -10,32 -19,65 -29,97 -5,17 22,24 27,7 124,-418 262,-832 398,-1246 136,-412 270,-817 328,-1249 58,-434 59,-874 61,-1311.0004 2,-444 6,-887 6,-1330 v -158 c 0,-18 -28,-18 -28,0 z"
     class="fil0" /><path
     style="fill:#231f20;fill-rule:nonzero"
     inkscape:connector-curvature="0"
     id="path258"
     d="m 18771.692,8134.1356 c -10,-14 -34,-1 -24,14 648,911 209,2080.0004 206,3097.0004 0,18 28,18 28,0 3,-1023 441,-2194.0004 -210,-3111.0004 z"
     class="fil0" /><path
     style="fill:#231f20;fill-rule:nonzero"
     inkscape:connector-curvature="0"
     id="path260"
     d="m 18457.692,13735.136 c -171,-214 -305,-451 -407,-706 -97,-244 -165,-498 -238,-749 -78,-270 -164,-525 -319,-762 -146,-225 -332,-421 -515,-616 -12,-13 -32,7 -20,20 187,199 373,400 523,629 161,247 242,521 323,801 72,250 143,501 243,742 98,238 230,459 391,661 11,14 31,-6 20,-20 z"
     class="fil0" /><path
     style="fill:#231f20;fill-rule:nonzero"
     inkscape:connector-curvature="0"
     id="path262"
     d="m 17464.692,14711.136 c -445,137 -955,-11 -1234,-389 -10,-14 -35,0 -24,14 287,389 808,543 1266,402 17,-5 10,-32 -7,-27 z"
     class="fil0" /><path
     style="fill:#231f20;fill-rule:nonzero"
     inkscape:connector-curvature="0"
     id="path264"
     d="m 21766.692,14196.136 c -110,-139 -142,-327 -155,-499 -13,-170 -2,-344 33,-511 3,-13 -17,-19 -20,-6 -38,182 -46,371 -30,556 14,165 53,342 157,475 8,11 23,-4 15,-15 z"
     class="fil0" /><path
     style="fill:#231f20;fill-rule:nonzero"
     inkscape:connector-curvature="0"
     id="path266"
     d="m 22464.692,13241.136 c -68,214 -165,413 -298,595 -8,11 10,21 18,10 134,-183 231,-384 300,-600 4,-13 -16,-18 -20,-6 z"
     class="fil0" /><path
     style="fill:#231f20;fill-rule:nonzero"
     inkscape:connector-curvature="0"
     id="path268"
     d="m 22541.692,8239.1356 c -55,75 -122,143 -154,232 -5,13 16,18 20,6 32,-87 98,-154 152,-227 8,-11 -10,-21 -18,-11 z"
     class="fil0" /><path
     style="fill:#231f20;fill-rule:nonzero"
     inkscape:connector-curvature="0"
     id="path270"
     d="m 18141.692,8186.1356 c -12,4 -23,8 -35,11 -384,127 -765,261 -1149,391 -783,266 -1576,496 -2385,670 -1139,245 -2295,353 -3458,369 -18,0 -18,28 0,28 720,-10 1439,-50 2153,-143 787,-102 1563,-268 2329,-474 785,-211 1548,-487 2317,-747 75,-25 151,-50 226,-75 1,-10 1,-20 2,-30 z"
     class="fil0" /><path
     style="fill:#231f20;fill-rule:nonzero"
     inkscape:connector-curvature="0"
     id="path272"
     d="m 20722.692,6990.1356 c -133,57 -325,144 -447,220 -67,41 -122,97 -189,138 -141,88 -297,154 -446,229 -18,9 -211,92 -229,101 8,6 16,12 15,22 103,-52 378,-175 482,-225 90,-43 182,-89 262,-151 51,-40 99,-79 155,-112 113,-67 287,-149 408,-202 -7,-4 -9,-12 -12,-20 z"
     class="fil0" /><path
     style="fill:#231f20;fill-rule:nonzero"
     inkscape:connector-curvature="0"
     id="path274"
     d="m 20722.692,7014.1356 c 60,-25 120,-50 181,-73 0,-2 1,-4 2,-5 5,-10 10,-19 15,-28 -47,19 -95,38 -142,58 -19,8 -38,16 -57,24 1,3 2,7 2,11 v 3 c 0,4 -1,7 -2,10 z"
     class="fil0" /><path
     style="fill:#231f20;fill-rule:nonzero"
     inkscape:connector-curvature="0"
     id="path276"
     d="m 21957.692,6583.1356 c 1,3 2,7 2,10 5,-4 -13,2 -6,2 1,0 -7,2 -6,2 1,0 7,-2 6,-2 0,0 -7,-2 -7,-2 7,-3 0,0 7,2 1,0 -4,11 -3,11 24,-5 -47,16 14,10 17,-2 92,-35 248,-56 126,-23 252,-42 379,-57 v -28 c -213,24 -425,61 -634,109 z"
     class="fil0" /><path
     style="fill:#231f20;fill-rule:nonzero"
     inkscape:connector-curvature="0"
     id="path278"
     d="m 18140.692,8201.1356 c -441,167 -876,347 -1318,511 -527,197 -1055,392 -1576,603 -461,186 -973,380 -1298,774.0004 -192,234 -234,519 -104,793 55,117 160,216 234,322 75,107 173,269 72,390 -89,107 -262,135 -392,157 -146,24 -294,32 -439,60 -217,42 -431,100 -647,148 -211,47 -422,80 -629,145 -120,38 -256,102 -319,216 -58,105 3,191 81,258 45,39 92,76 93,140 1,53 -50,86 -92,106 -106,52 -237,59 -353,67 -328,23 -650,60 -973,127 -340,70 -678,157 -1015,238 -124,30 -251,66 -361,133 -67,42 -142,118 -105,203 16,36 61,58 92,77 59,35 124,108 63,176 -39,43 -121,46 -174,51 -52,5 -103,7 -155,12 -280,26 -563,115 -826,209 -313,112 -593,303 -867,488 -355,240 -734,437 -1036,748 -136,141 -258,307 -320,494 h 29 c 77,-222 236,-409 407,-568 180,-168 384,-308 594,-434 177,-106 346,-222 519,-335 160,-105 324,-205 497,-289 121,-59 251,-101 379,-141 147,-46 296,-85 446,-116 115,-23 230,-30 346,-41 73,-7 201,-22 209,-117 11,-118 -91,-140 -163,-205 -121,-109 158,-232 225,-257 124,-46 255,-73 384,-100 385,-81 762,-193 1151,-258 171,-29 345,-52 519,-60 108,-5 215,-11 322,-28 87,-14 195,-35 256,-105 57,-64 21,-146 -32,-198 -41,-40 -90,-71 -120,-121 -50,-81 17,-175 77,-227 141,-119 352,-156 526,-195 214,-48 429,-88 642,-139 187,-45 374,-87 566,-108 140,-15 281,-32 415,-75 100,-32 206,-87 242,-192 37,-108 -35,-232 -91,-319 -74,-115 -169,-214 -241,-330 -88,-142 -108,-328 -68,-487 40,-159 145,-295 261,-408.0004 196,-192 443,-331 690,-445 901,-414 1850,-713 2770,-1079 202,-80 403,-162 605,-240 0,-10 1,-21 2,-31 z"
     class="fil0" /><path
     style="fill:#231f20;fill-rule:nonzero"
     inkscape:connector-curvature="0"
     id="path280"
     d="m 18139.692,8349.1356 c -86,55 -172,110 -259,164 -427,268 -852,539 -1270,821 -152,103 -305,207 -451,319 -196,152 -399,323 -523,540.0004 -93,163 -103,331 -71,512 36,206 87,409 124,615 40,224 39,452 -67,658 -77,149 -202,259 -344,343 -261,153 -557,224 -785,433 -121,110 -207,249 -254,405 -25,83 -30,171 -48,256 -19,93 -52,182 -99,265 -189,332 -581,471 -929,561 -313,81 -635,135 -941,245 -150,54 -296,124 -420,225 -136,111 -221,270 -282,431 -70,187 -107,385 -187,568 -20,46 -44,91 -70,134 h 33 c 85,-140 130,-301 175,-457 50,-173 103,-345 205,-496 93,-138 229,-233 376,-305 291,-143 620,-200 933,-274 327,-77 665,-162 928,-383 129,-108 225,-248 277,-408 26,-80 39,-164 50,-247 13,-98 47,-192 94,-279 163,-304 485,-428 781,-563 292,-132 534,-328 607,-655 42,-186 11,-381 -26,-565 -43,-211 -101,-422 -122,-637 -37,-366 279,-632.0004 529,-845.0004 126,-107 264,-200 400,-293 411,-282 831,-550 1252,-816 128,-81 255,-163 383,-245 0,-10 -1,-20 -1,-30 z"
     class="fil0" /><path
     style="fill:#231f20;fill-rule:nonzero"
     inkscape:connector-curvature="0"
     id="path282"
     d="m 17579.692,8424.1356 c -97,35 -189,79 -281,126 -167,84 -337,159 -509,230 -261,107 -527,202 -791,301 -466,173 -929,359 -1371,588 -204,106 -416,221 -580,385.0004 -226,225 -265,524 -204,826 4,18 30,10 27,-7 -36,-177 -43,-357 19,-529 51,-140 152,-257 267,-350.0004 199,-163 439,-280 669,-392 411,-199 836,-366 1264,-524 283,-105 567,-209 845,-327 220,-94 428,-218 653,-299 17,-6 10,-33 -7,-27 z"
     class="fil0" /><path
     style="fill:#231f20;fill-rule:nonzero"
     inkscape:connector-curvature="0"
     id="path284"
     d="m 14192.692,11468.136 c -12,95 -27,217 -90,293 -28,34 -63,61 -98,85 -187,127 -423,182 -641,228 -170,36 -342,57 -513,88 -170,30 -340,68 -508,107 -146,34 -307,69 -442,136 -49,24 -136,96 -102,158 9,16 32,2 24,-14 -80,-149 748,-301 832,-319 321,-68 649,-100 965,-190 156,-45 319,-103 448,-206 111,-88 137,-231 154,-366 2,-18 -26,-18 -28,0 z"
     class="fil0" /><path
     style="fill:#231f20;fill-rule:nonzero"
     inkscape:connector-curvature="0"
     id="path286"
     d="m 11898.692,12747.136 c 18,71 30,139 10,211 -19,72 -88,127 -149,165 -126,79 -290,63 -433,64 -296,2 -585,66 -876,115 -285,48 -568,104 -852,156 -171,31 -387,30 -484,202 -9,16 15,30 24,14 58,-103 168,-138 278,-160 115,-22 232,-39 348,-59 302,-53 602,-111 904,-161 157,-25 312,-64 471,-75 157,-11 317,5 474,-16 107,-14 203,-73 274,-152 79,-89 65,-206 38,-312 -4,-17 -31,-10 -27,7 z"
     class="fil0" /><path
     style="fill:#231f20;fill-rule:nonzero"
     inkscape:connector-curvature="0"
     id="path288"
     d="m 6947.692,15223.136 c 300,-197 600,-391 924,-546 168,-80 339,-155 516,-213 169,-56 346,-75 516,-132 116,-39 200,-91 258,-202 64,-123 91,-266 35,-396 -7,-16 -31,-2 -24,14 64,149 9,345 -99,462 -53,57 -130,80 -202,104 -88,30 -178,52 -269,67 -159,26 -315,84 -463,147 -166,70 -329,146 -489,229 -298,156 -583,349 -861,538 -211,144 -447,303 -535,551 h 30 c 107,-287 420,-463 663,-623 z"
     class="fil0" /><path
     style="fill:#231f20;fill-rule:nonzero"
     inkscape:connector-curvature="0"
     id="path290"
     d="m 15570.692,11262.136 c -15,-53 -7,-112 -2,-166 19,-226 -21,-453 14,-678 3,-18 -24,-25 -27,-7 -34,220 3,442 -13,663 -6,92 -15,176 26,261 51,108 124,194 143,316 3,18 29,10 27,-7 -14,-88 -53,-164 -97,-240 -26,-46 -56,-89 -70,-141 z"
     class="fil0" /><path
     style="fill:#231f20;fill-rule:nonzero"
     inkscape:connector-curvature="0"
     id="path292"
     d="m 14281.692,13049.136 c -50,102 -90,208 -172,290 -55,55 -130,103 -161,177 -36,87 -42,176 -87,260 -50,93 -69,188 -151,264 -13,12 7,32 20,20 61,-57 95,-123 125,-200 17,-44 43,-83 60,-126 17,-44 26,-90 36,-136 25,-116 113,-175 192,-254 77,-77 114,-184 161,-280 8,-16 -16,-30 -24,-14 z"
     class="fil0" /><path
     style="fill:#231f20;fill-rule:nonzero"
     inkscape:connector-curvature="0"
     id="path294"
     d="m 10903.692,15660.136 c 47,-76 84,-156 153,-217 66,-58 144,-100 209,-160 60,-55 112,-119 158,-186 65,-93 129,-162 223,-225 37,-25 69,-57 106,-81 30,-20 57,-40 79,-69 11,-14 -13,-28 -24,-14 -26,34 -63,54 -98,78 -40,28 -77,62 -118,89 -69,46 -117,104 -165,170 -56,77 -113,151 -182,217 -64,61 -140,106 -209,160 -51,40 -86,99 -118,155 -45,77 -88,148 -155,209 -24,22 -49,41 -75,59 h 46 c 4,-3 9,-6 13,-10 64,-51 114,-107 156,-176 z"
     class="fil0" /><path
     style="fill:#231f20;fill-rule:nonzero"
     inkscape:connector-curvature="0"
     id="path296"
     d="m 3391.692,7951.1356 c 590,-35 1181,-60 1772,-77 223,-6 445,-11 668,-12 308,-2 612,24 917,62 227,28 453,59 681,76 227,17 453,30 679,53 183,19 365,42 547,67 0,-2 -1,-3 -1,-5 -1,-8 -2,-16 -2,-24 -369,-52 -741,-95 -1113,-113 -454,-22 -901,-113 -1354,-138 -453,-26 -912,1 -1364,17 -603,21 -1205,50 -1807,90 -444,30 -887,66 -1328,126 -583,79 -1200,269 -1681.0000036,624 v 35 c 520.0000036,-392 1188.0000036,-567 1823.0000036,-651 518,-68 1041,-99 1563,-130 z"
     class="fil0" /><path
     style="fill:#231f20;fill-rule:nonzero"
     inkscape:connector-curvature="0"
     id="path298"
     d="m 13955.692,9379.1356 c -265,38 -484,-110 -715,-210 -218,-94 -445,-171 -671,-245 -522,-170 -1052,-320 -1587,-448 -247,-59 -494,-96 -745,-136 -347,-55 -693,-113 -1040,-168 -1,2 -2,4 -4,6 -5,7 -10,13 -15,19 106,17 211,34 317,51 227,37 454,74 681,110 168,27 338,47 505,79 207,40 413,93 617,146 493,128 983,269 1464,434 190,65 381,133 562,219 70,33 135,73 207,101 135,53 285,88 430,67 18,-3 10,-29 -8,-27 z"
     class="fil0" /><path
     style="fill:#231f20;fill-rule:nonzero"
     inkscape:connector-curvature="0"
     id="path300"
     d="m 18215.692,3842.1356 c -97,-68 -233,-54 -342,-25 -17,5 -10,31 7,27 98,-26 213,-38 306,12 120,65 -27,199 -84,245 -83,67 -176,122 -257,192 -84,73 -177,127 -272,181 -171,97 -357,204 -560,197 -56,-2 -112,-26 -102,-93 8,-48 49,-91 80,-125 49,-54 102,-107 157,-155 14,-12 -6,-31 -20,-20 -64,56 -362,304 -207,395 71,42 165,27 242,11 144,-29 277,-104 403,-176 62,-35 124,-69 183,-108 60,-40 111,-90 169,-133 103,-78 228,-142 306,-249 39,-53 54,-134 -7,-177 z"
     class="fil0" /><path
     style="fill:#231f20;fill-rule:nonzero"
     inkscape:connector-curvature="0"
     id="path302"
     d="m 17954.692,5539.1356 c 4,-118 -39,-272 -178,-285 -112,-11 -235,54 -300,145 -99,140 -97,321 -103,485 -8,212 -33,426 -63,636 9,-3 19,-1 27,4 0,0 1,1 2,1 13,-98 23,-196 33,-294 10,-102 21,-203 27,-305 6,-101 5,-201 20,-301 26,-171 139,-337 326,-345 238,-11 172,330 162,472 -6,87 6,174 55,235 2,-8 6,-15 14,-20 -79,-108 -28,-309 -23,-428 z"
     class="fil0" /><path
     style="fill:#231f20;fill-rule:nonzero"
     inkscape:connector-curvature="0"
     id="path304"
     d="m 18633.692,4636.1356 c -56,-50 -116,-101 -160,-163 -47,-66 -56,-151 -60,-230 -6,-128 10,-260 -34,-383 -82,-228 -349,-167 -520,-85 -16,8 -2,32 14,24 148,-71 370,-133 467,43 82,149 29,347 56,508 28,166 176,267 292,374 132,120 229,256 269,432 13,59 14,144 -68,150 -43,3 -85,-27 -122,-45 -53,-27 -104,-57 -159,-77 -95,-35 -169,7 -181,109 -21,172 41,344 12,516 -29,173 -204,269 -369,222 -17,-5 -33,-12 -46,-20 -4,4 -9,8 -14,11 -3,1 -6,2 -8,3 18,13 38,24 61,33 106,38 237,1 317,-73 112,-103 100,-277 85,-413 -8,-80 -19,-159 -15,-239 5,-100 51,-154 149,-121 58,19 111,53 165,80 45,23 113,64 165,35 110,-60 50,-223 12,-311 -67,-156 -185,-267 -310,-378 z"
     class="fil0" /><path
     style="fill:#231f20;fill-rule:nonzero"
     inkscape:connector-curvature="0"
     id="path306"
     d="m 17304.692,6576.1356 c -20,138 -43,279 -104,405 -65,133 -225,238 -362,129 -100,-80 -102,-245 -91,-360 16,-183 108,-356 156,-532 31,-115 44,-240 45,-359 0,-71 -3,-203 -86,-233 -116,-42 -260,103 -346,162 -68,47 -157,108 -243,93 -60,-11 -43,-77 -28,-118 37,-105 113,-199 180,-286 80,-103 179,-190 235,-310 34,-74 38,-147 42,-227 5,-95 20,-189 53,-279 37,-103 106,-212 194,-278 70,-53 149,-94 215,-153 13,-12 -6,-32 -20,-20 -97,87 -219,136 -300,241 -96,126 -147,264 -164,421 -12,106 -7,202 -53,302 -42,91 -119,152 -178,229 -53,70 -108,138 -156,213 -42,65 -104,157 -86,239 21,98 169,45 222,19 66,-32 126,-77 186,-119 61,-43 167,-140 246,-99 94,48 60,258 52,340 -16,171 -70,327 -126,489 -46,135 -80,267 -68,410 9,101 44,206 135,260 94,56 214,24 289,-46 89,-82 127,-213 153,-327 15,-65 26,-131 37,-198 -1,0 -3,0 -4,0 -10,0 -17,-3 -24,-9 z"
     class="fil0" /><path
     style="fill:#231f20;fill-rule:nonzero"
     inkscape:connector-curvature="0"
     id="path308"
     d="m 16206.692,5840.1356 c -22,43 -59,81 -90,117 -60,70 -122,137 -185,205 -165,178 -334,353 -503,527 -218,225 -432,454 -659,670 -283,269 -578,527 -880,775 -375,307 -766,606 -1192,841 -16,9 -2,33 14,24 559,-308 1063,-721 1544,-1138 262,-226 516,-460 758,-707 236,-242 473,-483 706,-727 116,-122 232,-244 345,-368 56,-62 129,-128 167,-204 8,-16 -16,-30 -24,-14 z"
     class="fil0" /><path
     style="fill:#231f20;fill-rule:nonzero"
     inkscape:connector-curvature="0"
     id="path310"
     d="m 19649.692,6239.1356 c -128,-110 -239,-218 -343,-349 -82,-104 -162,-209 -239,-316 -57,-79 -126,-163 -161,-255 -6,-17 -33,-9 -27,7 33,86 93,163 146,237 73,103 150,204 228,304 47,61 95,123 145,182 58,67 131,124 198,181 152,132 305,272 470,388 101,72 210,137 323,192 99,46 165,53 131,29 -7,-5 -48,-15 -40,-18 -101,-52 -268,-143 -364,-203 -167,-106 -316,-249 -466,-378 z"
     class="fil0" /><path
     style="fill:#231f20;fill-rule:nonzero"
     inkscape:connector-curvature="0"
     id="path312"
     d="m 20829.692,6939.1356 c -127,-38 -252,-69 -370,-129 -1,0 -2,-1 -2,-1 2,4 4,8 7,12 4,8 -46,-8 -48,-1 85,38 223,94 312,118 32,9 63,18 95,27 17,5 24,-22 7,-27 z"
     class="fil0" /><path
     style="fill:#231f20;fill-rule:nonzero"
     inkscape:connector-curvature="0"
     id="path314"
     d="m 22476.692,2362.1356 c -79,16 -156,23 -231,56 -73,32 -137,86 -196,139 -130,116 -248,249 -406,330 -86,44 -179,52 -273,32 -93,-19 -178,-63 -274,-78 -168,-25 -307,62 -433,163 -136,110 -250,245 -349,388 -102,149 -185,311 -259,476 -87,191 -213,363 -313,548 -113,209 -206,429 -319,638 -57,107 -120,211 -183,314 -54,89 -83,190 -139,278 -10,15 14,29 24,14 48,-76 75,-161 117,-241 50,-97 114,-189 168,-284 108,-191 197,-391 295,-587 95,-191 213,-368 316,-554 91,-164 161,-337 258,-497 97,-159 214,-306 353,-431 77,-69 162,-136 259,-175 97,-39 199,-29 298,-1 81,23 155,57 239,66 73,8 144,-9 211,-38 149,-63 270,-192 384,-301 62,-59 126,-114 200,-157 81,-47 169,-55 259,-71 36,-7 72,-15 107,-26 v -30 c -37,12 -75,21 -115,29 z"
     class="fil0" /><path
     style="fill:#231f20;fill-rule:nonzero"
     inkscape:connector-curvature="0"
     id="path316"
     d="m 19981.692,4012.1356 c -136,-30 -255,18 -374,81 -87,46 -165,54 -262,37 -64,-11 -121,-23 -185,-2 -125,42 -181,152 -246,255 -70,110 -191,212 -209,347 -2,18 25,18 28,0 15,-120 128,-220 193,-316 76,-113 144,-262 302,-272 113,-7 220,56 332,5 136,-63 256,-143 413,-108 18,4 25,-23 8,-27 z"
     class="fil0" /><path
     style="fill:#231f20;fill-rule:nonzero"
     inkscape:connector-curvature="0"
     id="path318"
     d="m 19550.692,2838.1356 c -207,177 -493,158 -744,115 -130,-23 -258,-42 -389,-24 -112,16 -214,74 -302,143 -178,138 -270,346 -275,568 -3,113 25,224 74,325 22,45 54,83 83,124 16,22 32,51 59,60 17,6 24,-21 7,-27 -27,-9 -43,-51 -61,-72 -44,-50 -75,-114 -98,-177 -41,-114 -45,-240 -25,-359 37,-225 191,-407 391,-509 241,-123 510,-10 762,5 190,11 389,-26 537,-152 14,-12 -6,-31 -20,-20 z"
     class="fil0" /><path
     style="fill:#231f20;fill-rule:nonzero"
     inkscape:connector-curvature="0"
     id="path320"
     d="m 17026.692,4673.1356 c -8,-1 -17,-2 -25,-3 1,-3 2,-6 4,-9 -1,1 -2,2 -3,3 -3,3 -5,9 -4,14 0,1 1,2 1,3 4,10 20,16 25,3 1,-3 2,-6 4,-9 0,1 -1,1 -1,2 0,-1 -1,-3 -1,-4 z"
     class="fil0" /><path
     style="fill:#231f20;fill-rule:nonzero"
     inkscape:connector-curvature="0"
     id="path322"
     d="m 17031.692,4671.1356 c -1,1 -1,3 -2,5 1,-1 2,-3 2,-5 z"
     class="fil0" /><path
     style="fill:#231f20;fill-rule:nonzero"
     inkscape:connector-curvature="0"
     id="path324"
     d="m 17011.692,3435.1356 c -193,-131 -447,-105 -669,-114 -147,-6 -294,-21 -437,-61 -62,-17 -123,-36 -183,-59 -25,-10 -57,-21 -87,-35 0,0 0,0 0,0 -9,5 -18,11 -27,16 21,10 42,19 63,28 122,51 250,88 380,111 249,44 507,5 754,59 118,26 224,86 304,177 82,93 96,220 86,339 -10,127 -42,254 -69,378 -29,132 -67,262 -122,386 1,-1 2,-2 3,-3 10,-11 25,1 23,13 101,-228 155,-484 188,-730 28,-208 -29,-386 -208,-506 z"
     class="fil0" /><path
     style="fill:#231f20;fill-rule:nonzero"
     inkscape:connector-curvature="0"
     id="path326"
     d="m 17008.692,4658.1356 c -1,1 -2,2 -3,3 -1,3 -2,6 -4,9 8,1 17,2 25,3 0,1 1,3 1,4 1,-1 1,-1 1,-2 1,-2 1,-3 2,-5 2,-12 -13,-24 -23,-13 z"
     class="fil0" /><path
     style="fill:#231f20;fill-rule:nonzero"
     inkscape:connector-curvature="0"
     id="path328"
     d="m 20797.692,2389.1356 c -102,276 -299,475 -583,563 -153,47 -306,50 -465,49 -77,-1 -153,-2 -230,-5 -77,-3 -156,3 -229,-22 -17,-6 -24,21 -7,27 68,23 140,20 211,22 85,2 170,6 256,6 171,1 329,-6 494,-56 284,-87 480,-302 581,-576 6,-17 -20,-24 -27,-7 z"
     class="fil0" /><path
     style="fill:#231f20;fill-rule:nonzero"
     inkscape:connector-curvature="0"
     id="path330"
     d="m 21747.692,1438.1356 c -334,-80 -666,-98 -1008,-85 -128,5 -254,21 -376,61 -55,18 -105,46 -160,63 -27,8 -55,18 -70,44 -9,15 15,29 24,14 17,-28 76,-37 104,-49 52,-23 104,-44 159,-60 104,-31 212,-40 320,-45 177,-8 356,-10 533,6 164,15 327,44 487,83 128,31 262,67 377,132 165,94 292,286 226,476 -66,193 -283,330 -450,425 -180,103 -371,172 -577,197 -209,25 -444,19 -631,-86 -16,-9 -30,15 -14,24 168,94 359,105 547,98 190,-7 378,-53 549,-135 258,-124 727,-390 606,-745 -92,-270 -400,-358 -645,-417 z"
     class="fil0" /><path
     style="fill:#231f20;fill-rule:nonzero"
     inkscape:connector-curvature="0"
     id="path332"
     d="m 20043.692,1348.1356 c -107,-34 -216,-63 -322,-97 -115,-37 -234,-65 -354,-83 -116,-18 -233,-14 -350,-20 -252,-13 -497,-8 -748,19 -116,12 -231,36 -346,58 -62,12 -124,27 -187,33 -31,3 -60,9 -87,26 -15,10 -1,34 14,24 34,-22 70,-19 108,-26 53,-10 106,-20 159,-30 121,-23 242,-46 365,-60 223,-24 444,-33 668,-20 107,6 215,5 322,13 120,9 238,39 354,71 104,29 207,59 310,90 95,29 213,53 290,118 14,11 33,-8 20,-20 -63,-53 -140,-72 -216,-96 z"
     class="fil0" /><path
     style="fill:#231f20;fill-rule:nonzero"
     inkscape:connector-curvature="0"
     id="path334"
     d="m 18029.692,1192.1356 c -117,-50 -238,-76 -364,-96 -134,-21 -269,-48 -405,-61 -140,-14 -282,-12 -422,-12 -138,0 -278,-3 -415,16 -133,18 -263,52 -396,73 -151,24 -301,45 -453,63 -266,31 -528,113 -768,230 -16,8 -2,32 14,24 254,-125 526,-200 806,-233 120,-14 239,-29 358,-49 139,-23 276,-60 417,-77 264,-33 541,-28 806,-11 135,9 268,37 401,57 139,21 276,45 406,100 16,7 31,-17 14,-24 z"
     class="fil0" /><path
     style="fill:#231f20;fill-rule:nonzero"
     inkscape:connector-curvature="0"
     id="path336"
     d="m 15091.692,1506.1356 c -118,-34 -232,-79 -354,-96 -126,-17 -253,-19 -379,-18 -119,2 -239,5 -357,24 -89,14 -203,35 -277,91 -14,11 0,35 14,24 73,-54 183,-72 270,-88 114,-21 234,-20 349,-23 117,-2 233,2 349,14 131,14 251,63 377,98 17,5 25,-22 7,-27 z"
     class="fil0" /><path
     style="fill:#231f20;fill-rule:nonzero"
     inkscape:connector-curvature="0"
     id="path338"
     d="m 13966.692,1404.1356 c -131,-50 -274,-81 -410,-113 -150,-35 -299,-54 -453,-63 -332,-18 -660,-24 -992,-5 -154,9 -308,3 -462,16 -156,13 -311,34 -465,60 -152,26 -302,61 -452,97 -73,17 -146,36 -218,59 -71,23 -143,60 -219,64 -18,1 -18,29 0,28 59,-3 112,-25 167,-45 66,-25 135,-44 204,-61 149,-38 298,-72 449,-101 160,-31 321,-53 483,-68 162,-15 324,-12 486,-20 323,-16 641,-16 964,1 306,16 622,69 910,178 17,6 24,-20 7,-27 z"
     class="fil0" /><path
     style="fill:#231f20;fill-rule:nonzero"
     inkscape:connector-curvature="0"
     id="path340"
     d="m 10480.692,1460.1356 c -88,-34 -178,-73 -272,-84 -108,-13 -215,-18 -323,-13 -177,9 -367,47 -512,153 -14,10 0,35 14,24 149,-110 343,-142 524,-151 91,-4 183,1 274,11 100,11 195,49 288,86 17,7 24,-20 7,-27 z"
     class="fil0" /><path
     style="fill:#231f20;fill-rule:nonzero"
     inkscape:connector-curvature="0"
     id="path342"
     d="m 9141.692,1430.1356 c -157,-48 -323,-73 -486,-88 -249,-22 -503,-9 -753,-4 -501,12 -1004,14 -1504,63 -226,22 -456,43 -678,92 -220,48 -543,143 -576,411 -40,319 377,459 611,533 348,110 729,136 1090,85 18,-2 10,-29 -7,-27 -427,60 -868,6 -1268,-153 -173,-69 -395,-185 -401,-398 -5,-196 198,-312 357,-366 246,-84 509,-109 766,-137 243,-26 488,-50 732,-51 399,-2 797,-24 1196,-28 168,-2 336,-3 503,16 139,16 277,41 412,80 137,40 307,104 383,232 9,15 33,1 24,-14 -82,-137 -254,-200 -400,-245 z"
     class="fil0" /><path
     style="fill:#231f20;fill-rule:nonzero"
     inkscape:connector-curvature="0"
     id="path344"
     d="m 9325.692,2901.1356 c -216,163 -472,190 -726,260 -302,83 -622,104 -934,73 -298,-30 -600,-94 -878,-204 -138,-55 -283,-87 -411,-166 -117,-72 -233,-192 -198,-340 4,-17 -23,-25 -27,-7 -59,254 239,406 434,474 153,54 306,117 463,158 168,44 338,78 510,102 324,45 652,31 971,-42 277,-63 579,-108 810,-282 14,-11 0,-35 -14,-24 z"
     class="fil0" /><path
     style="fill:#231f20;fill-rule:nonzero"
     inkscape:connector-curvature="0"
     id="path346"
     d="m 11744.692,2875.1356 c -81,63 -176,97 -273,127 -96,29 -191,64 -287,94 -212,66 -435,93 -656,95 -222,2 -445,-25 -660,-80 -107,-27 -211,-61 -314,-101 -50,-19 -98,-41 -144,-68 -44,-26 -110,-64 -139,-106 -10,-15 -34,-1 -24,14 45,66 139,114 209,149 104,52 220,86 331,119 225,65 458,96 691,101 233,4 466,-25 690,-89 112,-32 220,-74 331,-107 95,-29 185,-66 265,-128 14,-11 -6,-30 -20,-20 z"
     class="fil0" /><path
     style="fill:#231f20;fill-rule:nonzero"
     inkscape:connector-curvature="0"
     id="path348"
     d="m 12176.692,3414.1356 c 2,-4 6,-7 11,-10 4,-2 7,-4 11,-6 -160,-30 -324,-61 -478,-112 -79,-26 -155,-59 -230,-94 -66,-31 -144,-62 -198,-113 -13,-12 -33,7 -20,20 81,75 201,119 302,161 118,49 237,81 361,110 78,18 157,35 236,51 2,-2 3,-4 6,-6 z"
     class="fil0" /><path
     style="fill:#231f20;fill-rule:nonzero"
     inkscape:connector-curvature="0"
     id="path350"
     d="m 14511.692,3209.1356 v -18 c -66,27 -135,49 -202,68 -261,77 -532,120 -802,153 -48,6 -97,11 -145,17 -8,10 -16,20 -22,31 182,-19 364,-44 543,-76 211,-37 423,-85 623,-163 2,-1 4,-2 6,-2 -1,-3 -2,-7 -2,-10 z"
     class="fil0" /><path
     style="fill:#231f20;fill-rule:nonzero"
     inkscape:connector-curvature="0"
     id="path352"
     d="m 288.692,4942.1356 c 173,-114 371,-181 579,-147 186,30 352,138 505,242 152,103 286,244 302,436 1,18 29,18 28,0 -14,-174 -118,-311 -253,-414 -169,-129 -364,-250 -575,-290 -196,-38 -387,24 -556,122 -123,71 -231.000004,153 -314.0000036,259 v 44 c 19.9999996,-29 41.9999996,-56 64.9999996,-83 63.000004,-70 140.000004,-117 218.000004,-168 z"
     class="fil0" /><path
     style="fill:#231f20;fill-rule:nonzero"
     inkscape:connector-curvature="0"
     id="path354"
     d="m 2987.692,6204.1356 c -110,-50 -222,-58 -318,-139 -157,-132 -229,-339 -382,-473 -69,-61 -154,-104 -239,-138 -81,-33 -177,-65 -265,-45 -158,35 -203,249 -205,384 0,18 28,18 28,0 2,-163 73,-395 279,-358 186,34 365,131 478,283 99,134 182,286 315,390 63,49 136,72 212,93 130,36 229,110 302,224 10,15 34,1 24,-14 -56,-88 -132,-163 -228,-206 z"
     class="fil0" /><path
     style="fill:#231f20;fill-rule:nonzero"
     inkscape:connector-curvature="0"
     id="path356"
     d="m 4327.692,7529.1356 c -26,-99 -91,-186 -165,-255 -77,-73 -170,-128 -261,-182 -110,-65 -233,-125 -293,-243 -78,-152 -16,-337 -152,-465 -83,-78 -227,-125 -267,16 -5,17 22,25 27,7 29,-104 120,-76 189,-29 70,47 103,114 121,194 35,149 16,311 156,413 162,119 350,198 495,341 84,83 134,198 141,316 5,82 -4,154 40,227 9,15 33,1 24,-14 -57,-97 -26,-219 -54,-326 z"
     class="fil0" /><path
     style="fill:#231f20;fill-rule:nonzero"
     inkscape:connector-curvature="0"
     id="path358"
     d="m 4923.692,4549.1356 c -151,-74 -320,-107 -438,-236 -120,-132 -121,-332 -189,-489 -52,-120 -146,-230 -274,-270 -237,-75 -470,161 -608,321 -444,514 -591,1342 -1299,1585 -17,6 -10,33 7,27 615,-211 808,-858 1132,-1352 140,-214 334,-475 591,-552 156,-46 294,42 381,168 97,140 104,326 172,480 61,138 192,213 325,268 156,64 304,121 426,242 217,214 244,543 261,830 1,18 29,18 28,0 -16,-267 -40,-554 -205,-776 -80,-108 -191,-187 -311,-245 z"
     class="fil0" /><path
     style="fill:#231f20;fill-rule:nonzero"
     inkscape:connector-curvature="0"
     id="path360"
     d="m 7194.692,7353.1356 c -38,-83 -89,-160 -131,-241 -56,-107 -83,-222 -80,-343 2,-94 14,-188 -8,-280 -18,-76 -59,-149 -107,-210 -112,-141 -257,-251 -373,-389 -124,-149 -220,-320 -306,-493 -69,-139 -123,-291 -207,-422 -60,-93 -155,-178 -273,-147 -118,31 -188,179 -231,281 -44,104 -67,222 -76,337 3,37 7,73 9,110 7,0 14,-4 14,-13 2,-176 38,-358 121,-514 38,-71 91,-145 169,-174 90,-33 172,41 222,106 87,114 135,260 197,388 81,170 171,335 283,486 102,139 230,251 350,373 62,62 115,130 153,210 53,111 39,232 35,351 -8,195 81,352 173,517 51,92 84,182 101,286 19,119 20,240 30,359 1,18 28,18 28,0 v -42 c 0,-4 -1,-7 -4,-9 -11,-178 -13,-363 -88,-527 z"
     class="fil0" /><path
     style="fill:#231f20;fill-rule:nonzero"
     inkscape:connector-curvature="0"
     id="path362"
     d="m 7903.692,7597.1356 c -70,-58 -163,-88 -241,-133 -113,-66 -136,-176 -135,-296 1,-76 7,-159 -26,-230 -13,-28 -18,-46 -48,-49 -30,-3 -60,6 -86,21 -123,70 -108,285 -253,325 2,9 4,18 7,27 116,-32 147,-174 203,-265 17,-28 38,-51 67,-68 55,-31 79,-3 96,48 26,80 11,170 14,252 7,185 141,262 294,335 96,46 162,112 201,213 16,42 32,84 46,127 9,28 32,77 23,108 -5,17 22,25 27,7 17,-59 -32,-151 -52,-205 -31,-83 -66,-159 -136,-217 z"
     class="fil0" /><path
     style="fill:#231f20;fill-rule:nonzero"
     inkscape:connector-curvature="0"
     id="path364"
     d="m 4363.692,5697.1356 c -134,-90 -215,-247 -329,-359 -115,-112 -238,-2 -366,21 -49,9 -102,16 -141,49 -41,34 -46,95 -53,145 -12,88 -42,163 -92,236 -64,95 -150,128 -262,129 -18,0 -18,28 0,28 69,0 129,-4 188,-44 51,-34 88,-82 121,-134 34,-53 57,-113 68,-175 14,-85 12,-164 109,-192 57,-17 120,-16 175,-40 35,-16 70,-34 107,-45 63,-19 117,31 157,73 104,107 179,250 306,334 15,10 29,-14 14,-24 z"
     class="fil0" /><path
     style="fill:#231f20;fill-rule:nonzero"
     inkscape:connector-curvature="0"
     id="path366"
     d="m 5529.692,6794.1356 c -68,-38 -112,-103 -185,-131 -29,-11 -64,-14 -95,-18 -42,-6 -68,-32 -96,-61 -37,-37 -102,-34 -145,-10 -52,29 -75,97 -109,142 -11,14 13,28 24,14 33,-44 54,-99 99,-132 28,-21 85,-20 111,6 14,14 33,42 52,49 50,19 100,23 151,37 70,20 116,94 179,128 16,9 30,-15 14,-24 z"
     class="fil0" /><path
     style="fill:#231f20;fill-rule:nonzero"
     inkscape:connector-curvature="0"
     id="path368"
     d="m 6165.692,6132.1356 c -112,34 -135,175 -244,216 -61,23 -130,17 -194,27 -62,9 -111,26 -164,60 -93,60 -179,139 -223,243 -7,17 20,24 27,7 43,-103 134,-178 226,-237 94,-61 209,-45 314,-68 79,-17 122,-77 167,-139 40,-55 86,-88 155,-96 70,-8 126,56 170,100 13,13 32,-7 20,-20 -77,-76 -144,-129 -255,-95 z"
     class="fil0" /><path
     style="fill:#231f20;fill-rule:nonzero"
     inkscape:connector-curvature="0"
     id="path370"
     d="m 1363.692,6285.1356 c -57,-88 -106,-235 -235,-170 -70,35 -116,99 -145,169 -15,36 -43,170 -113,134 -34,-18 -68,-33 -107,-37 -169,-16 -266,149 -375,249 -13,12 6,32 20,20 112,-102 214,-279 389,-233 50,13 83,55 134,26 54,-31 70,-131 93,-182 29,-65 138,-179 213,-118 46,37 72,107 103,156 39,65 107,89 173,121 65,32 140,116 150,192 2,18 30,18 28,0 -6,-51 -42,-106 -73,-145 -67,-85 -194,-89 -253,-182 z"
     class="fil0" /><path
     style="fill:#231f20;fill-rule:nonzero"
     inkscape:connector-curvature="0"
     id="path372"
     d="m 161.692,7535.1356 c 0,4 0,9 0,13 0,18 28,18 28,0 0,-11 -4,-19 -11,-26 -8,-1 -17,3 -17,13 z"
     class="fil0" /><path
     style="fill:#231f20;fill-rule:nonzero"
     inkscape:connector-curvature="0"
     id="path374"
     d="m 79.691996,7530.1356 c 13,-4 82.000004,-3 82.000004,18 0,-4 0,-9 0,-13 0,-10 9,-14 17,-13 -26,-25 -92.000004,-23 -118.000004,-16 -20,5 -38,15 -54.9999996,27 v 38 c 6.9999996,-6 13.9999996,-12 21.9999996,-18 16,-11 33,-18 52,-23 z"
     class="fil0" /><path
     style="fill:#231f20;fill-rule:nonzero"
     inkscape:connector-curvature="0"
     id="path376"
     d="m 189.692,7548.1356 c 0,-4 0,-9 0,-13 0,-8 -5,-12 -11,-13 7,7 11,15 11,26 z"
     class="fil0" /><path
     style="fill:#231f20;fill-rule:nonzero"
     inkscape:connector-curvature="0"
     id="path378"
     d="m 394.692,7362.1356 c -58,-10 -123,-22 -179,6 -54,28 -110,76 -117.000004,139 -2,18 26.000004,18 28.000004,0 6,-54 69,-101 115,-120 46,-18 99,-7 145,1 18,3 25,-24 7,-27 z"
     class="fil0" /><path
     style="fill:#231f20;fill-rule:nonzero"
     inkscape:connector-curvature="0"
     id="path380"
     d="m 765.692,7112.1356 c -103,-13 -197,15 -286,66 -65,37 -147,97 -165,173 -4,17 23,25 27,7 15,-63 81,-110 132,-144 68,-46 145,-73 226,-78 76,-5 363,79 331,201 -5,17 22,25 27,7 33,-125 -200,-221 -291,-232 z"
     class="fil0" /><path
     style="fill:#231f20;fill-rule:nonzero"
     inkscape:connector-curvature="0"
     id="path382"
     d="m 1272.692,7376.1356 c 0,7 0,14 0,21 9,-1 18,-2 27,-4 -3,-11 -7,-21 -11,-30 -8,-1 -17,3 -17,13 z"
     class="fil0" /><path
     style="fill:#231f20;fill-rule:nonzero"
     inkscape:connector-curvature="0"
     id="path384"
     d="m 1289.692,7363.1356 c 4,10 8,20 11,30 -9,1 -18,2 -27,4 0,-7 0,-14 0,-21 0,-10 9,-14 17,-13 -42,-98 -144,-143 -246,-89 -16,8 -2,32 14,24 96,-51 189,2 216,103 4,15 27,12 27,-4 0,-7 0,-14 0,-21 0,-8 -5,-12 -11,-13 z"
     class="fil0" /><path
     style="fill:#231f20;fill-rule:nonzero"
     inkscape:connector-curvature="0"
     id="path386"
     d="m 1793.692,7605.1356 c 0,-5 0,-9 0,-14 0,-13 -15,-17 -23,-10 -1,7 -2,14 -4,20 9,1 18,2 27,4 z"
     class="fil0" /><path
     style="fill:#231f20;fill-rule:nonzero"
     inkscape:connector-curvature="0"
     id="path388"
     d="m 1606.692,7233.1356 c -111,-46 -311,-35 -354,104 -5,17 22,24 27,7 40,-131 238,-124 334,-77 122,60 180,184 157,313 8,-6 23,-3 23,10 0,5 0,9 0,14 -9,-1 -18,-2 -27,-4 2,-7 3,-14 4,-20 -3,2 -5,6 -5,10 0,5 0,9 0,14 0,16 24,19 27,4 38,-156 -34,-312 -187,-375 z"
     class="fil0" /><path
     style="fill:#231f20;fill-rule:nonzero"
     inkscape:connector-curvature="0"
     id="path390"
     d="m 2325.692,7965.1356 c -23,-134 -175,-204 -303,-207 -18,0 -18,27 0,28 123,3 279,74 278,215 0,-9 0,-19 0,-28 0,-14 18,-17 25,-8 z"
     class="fil0" /><path
     style="fill:#231f20;fill-rule:nonzero"
     inkscape:connector-curvature="0"
     id="path392"
     d="m 2328.692,8001.1356 c -9,0 -19,0 -28,0 0,18 28,18 28,0 z"
     class="fil0" /><path
     style="fill:#231f20;fill-rule:nonzero"
     inkscape:connector-curvature="0"
     id="path394"
     d="m 2328.692,8001.1356 c 0,-9 0,-19 0,-28 0,-4 -1,-6 -3,-8 2,12 3,24 3,36 z"
     class="fil0" /><path
     style="fill:#231f20;fill-rule:nonzero"
     inkscape:connector-curvature="0"
     id="path396"
     d="m 2300.692,7973.1356 c 0,9 0,19 0,28 9,0 19,0 28,0 0,-12 -1,-24 -3,-36 -7,-9 -25,-6 -25,8 z"
     class="fil0" /><path
     style="fill:#231f20;fill-rule:nonzero"
     inkscape:connector-curvature="0"
     id="path398"
     d="m 2078.692,7758.1356 c -9,0 -19,0 -28,0 1,18 28,18 28,0 z"
     class="fil0" /><path
     style="fill:#231f20;fill-rule:nonzero"
     inkscape:connector-curvature="0"
     id="path400"
     d="m 2077.692,7738.1356 c -7,-74 -38,-140 -100,-184 -34,-25 -78,-31 -119,-28 -24,2 -71,9 -89,28 -12,13 8,33 20,20 11,-11 42,-13 56,-17 40,-12 83,1 118,22 60,36 85,114 87,180 0,-5 0,-9 0,-14 0,-16 21,-18 27,-6 z"
     class="fil0" /><path
     style="fill:#231f20;fill-rule:nonzero"
     inkscape:connector-curvature="0"
     id="path402"
     d="m 2078.692,7758.1356 c 0,-5 0,-9 0,-14 0,-2 0,-4 -1,-6 1,7 1,13 1,20 z"
     class="fil0" /><path
     style="fill:#231f20;fill-rule:nonzero"
     inkscape:connector-curvature="0"
     id="path404"
     d="m 2050.692,7744.1356 c 0,5 0,9 0,14 9,0 19,0 28,0 0,-7 -1,-13 -1,-20 -5,-12 -27,-10 -27,6 z"
     class="fil0" /><path
     style="fill:#231f20;fill-rule:nonzero"
     inkscape:connector-curvature="0"
     id="path406"
     d="m 2846.692,7368.1356 c -17,-57 -119,-99 -165,-111 -43,-11 -88,-10 -132,-3 -61,10 -104,52 -163,66 -17,4 -10,31 7,27 27,-7 49,-18 74,-33 44,-26 88,-37 138,-39 35,-1 70,7 103,18 28,9 112,54 112,90 0,-3 0,-6 0,-9 0,-14 18,-17 25,-8 z"
     class="fil0" /><path
     style="fill:#231f20;fill-rule:nonzero"
     inkscape:connector-curvature="0"
     id="path408"
     d="m 2821.692,7376.1356 c 0,3 0,6 0,9 0,18 28,18 28,0 0,-6 -1,-11 -3,-17 -7,-9 -25,-6 -25,8 z"
     class="fil0" /><path
     style="fill:#231f20;fill-rule:nonzero"
     inkscape:connector-curvature="0"
     id="path410"
     d="m 2849.692,7384.1356 c 0,-3 0,-6 0,-9 0,-3 -1,-6 -3,-8 2,5 3,11 3,17 z"
     class="fil0" /><path
     style="fill:#231f20;fill-rule:nonzero"
     inkscape:connector-curvature="0"
     id="path412"
     d="m 2509.692,7247.1356 c 6,-5 9,-11 8,-16 -5,3 -10,8 -8,16 z"
     class="fil0" /><path
     style="fill:#231f20;fill-rule:nonzero"
     inkscape:connector-curvature="0"
     id="path414"
     d="m 2517.692,7232.1356 c 0,5 -2,10 -8,16 -1,-8 3,-13 8,-16 0,-5 -4,-10 -11,-15 -5,-6 -9,-12 -14,-18 -16,-19 -34,-35 -53,-51 -41,-33 -91,-55 -140,-76 -69,-30 -150,-28 -223,-20 -155,19 -334,99 -387,257 -6,17 21,24 27,7 48,-144 210,-211 348,-235 164,-28 352,33 439,183 3,5 10,8 16,6 3,-1 5,-1 8,-2 6,-2 10,-7 10,-13 0,-6 0,-10 -2,-16 -2,-10 -11,-12 -19,-8 z"
     class="fil0" /><path
     style="fill:#231f20;fill-rule:nonzero"
     inkscape:connector-curvature="0"
     id="path416"
     d="m 3220.692,7272.1356 c -150,-54 -303,-46 -448,23 -16,8 -2,32 14,24 128,-61 262,-71 397,-30 76,23 261,83 263,185 0,18 28,18 28,0 -2,-112 -168,-171 -253,-201 z"
     class="fil0" /><path
     style="fill:#231f20;fill-rule:nonzero"
     inkscape:connector-curvature="0"
     id="path418"
     d="m 3346.692,7533.1356 c -12,13 8,33 20,20 78,-89 252,-82 296,36 6,17 33,9 27,-7 -51,-136 -250,-154 -343,-48 z"
     class="fil0" /><path
     style="fill:#231f20;fill-rule:nonzero"
     inkscape:connector-curvature="0"
     id="path420"
     d="m 4079.692,7742.1356 c -1,-2 -2,-3 -3,-5 -4,-7 -11,-8 -17,-5 -1,4 -2,7 -4,10 8,0 16,0 24,0 z"
     class="fil0" /><path
     style="fill:#231f20;fill-rule:nonzero"
     inkscape:connector-curvature="0"
     id="path422"
     d="m 3945.692,7511.1356 c -82,-33 -239,-57 -296,31 -10,15 14,29 24,14 43,-66 165,-48 229,-32 54,14 99,48 129,94 15,22 36,79 28,113 6,-3 13,-2 17,5 1,2 2,3 3,5 -8,0 -16,0 -24,0 2,-3 3,-7 4,-10 -7,3 -12,11 -7,19 1,2 2,3 3,5 5,9 19,9 24,0 49,-90 -57,-214 -134,-245 z"
     class="fil0" /><path
     style="fill:#231f20;fill-rule:nonzero"
     inkscape:connector-curvature="0"
     id="path424"
     d="m 4196.692,7855.1356 c 3,5 0,-3 -1,-4 -4,-15 -25,-11 -27,2 1,5 2,9 2,9 9,-2 17,-5 26,-7 z"
     class="fil0" /><path
     style="fill:#231f20;fill-rule:nonzero"
     inkscape:connector-curvature="0"
     id="path426"
     d="m 4148.692,7738.1356 c -18,-16 -47,-15 -70,-15 -18,0 -18,28 0,28 22,0 43,-2 60,16 10,10 22,31 24,45 1,9 3,19 4,28 1,3 2,9 3,13 2,-13 23,-17 27,-2 0,1 3,8 1,4 -9,2 -17,5 -26,7 0,0 -1,-4 -2,-9 0,2 0,4 0,6 1,3 1,7 3,10 7,11 27,7 26,-7 -2,-23 -6,-52 -15,-74 -8,-19 -19,-37 -35,-51 z"
     class="fil0" /><path
     style="fill:#231f20;fill-rule:nonzero"
     inkscape:connector-curvature="0"
     id="path428"
     d="m 8008.692,5695.1356 c -260,11 -500,117 -755,150 -214,27 -464,-5 -591,-201 -143,-221 -36,-488 169,-620 213,-137 483,-132 726,-120 18,1 18,-27 0,-28 -260,-13 -532,-11 -758,135 -192,124 -277,356 -197,573 80,215 307,295 519,297 304,3 585,-145 888,-158 18,-1 18,-29 0,-28 z"
     class="fil0" /><path
     style="fill:#231f20;fill-rule:nonzero"
     inkscape:connector-curvature="0"
     id="path430"
     d="m 8517.692,4674.1356 c -134,-47 -280,-53 -420,-49 -261,7 -517,45 -716,228 -13,12 6,32 20,20 195,-179 442,-210 697,-220 131,-5 262,5 389,41 106,30 240,71 318,151 13,13 32,-7 20,-20 -80,-81 -202,-114 -307,-151 z"
     class="fil0" /><path
     style="fill:#231f20;fill-rule:nonzero"
     inkscape:connector-curvature="0"
     id="path432"
     d="m 8735.692,4741.1356 c -12,13 8,33 20,20 67,-73 201,-51 265,14 13,13 32,-7 20,-20 -75,-76 -227,-98 -304,-14 z"
     class="fil0" /><path
     style="fill:#231f20;fill-rule:nonzero"
     inkscape:connector-curvature="0"
     id="path434"
     d="m 9833.692,4632.1356 c -138,-29 -281,-35 -422,-34 -167,1 -329,21 -479,99 -16,8 -2,32 14,24 247,-129 572,-114 841,-69 124,21 247,58 351,130 118,82 173,232 176,372 0,18 28,18 28,0 -3,-132 -49,-268 -147,-360 -97,-92 -235,-134 -362,-161 z"
     class="fil0" /><path
     style="fill:#231f20;fill-rule:nonzero"
     inkscape:connector-curvature="0"
     id="path436"
     d="m 10307.692,5017.1356 c -16,7 -2,31 14,24 242,-111 510,63 492,329 -15,215 -216,374 -402,445 -184,71 -388,81 -583,76 -262,-7 -524,-54 -757,-180 -16,-9 -30,15 -14,24 253,137 539,181 824,185 228,3 467,-24 668,-139 180,-102 321,-300 288,-513 -38,-244 -320,-347 -529,-251 z"
     class="fil0" /><path
     style="fill:#231f20;fill-rule:nonzero"
     inkscape:connector-curvature="0"
     id="path438"
     d="m 8689.692,5711.1356 c -124,78 -263,111 -408,121 -72,5 -139,0 -206,-28 -56,-24 -108,-59 -163,-86 -16,-8 -30,16 -14,24 61,30 119,67 181,94 65,28 132,28 202,24 149,-7 296,-46 422,-125 15,-9 1,-34 -14,-24 z"
     class="fil0" /><path
     style="fill:#231f20;fill-rule:nonzero"
     inkscape:connector-curvature="0"
     id="path440"
     d="m 9147.692,5760.1356 c -149,91 -366,83 -514,-7 -15,-9 -29,15 -14,24 156,95 385,103 542,7 15,-9 1,-33 -14,-24 z"
     class="fil0" /><path
     style="fill:#231f20;fill-rule:nonzero"
     inkscape:connector-curvature="0"
     id="path442"
     d="m 1985.692,2994.1356 c -442,0 -802,-360 -802,-802 0,-442 360,-802 802,-802 442,0 802,360 802,802 0,442 -360,802 -802,802 z m 0,-1632 c -458,0 -830,372 -830,830 0,458 372,830 830,830 458,0 830,-372 830,-830 0,-458 -372,-830 -830,-830 z"
     class="fil0" /><path
     style="fill:#231f20;fill-rule:nonzero"
     inkscape:connector-curvature="0"
     id="path444"
     d="m 2113.692,3244.1356 c 0,-18 -28,-18 -28,0 1,83 7,166 28,247 5,17 31,10 27,-7 -20,-79 -27,-158 -27,-239 z"
     class="fil0" /><path
     style="fill:#231f20;fill-rule:nonzero"
     inkscape:connector-curvature="0"
     id="path446"
     d="m 1939.692,959.13557 c 2,84.00003 19,166.00003 14,250.00003 -1,18 27,18 28,0 5,-84 -12,-166 -14,-250.00003 0,-18 -28,-18 -28,0 z"
     class="fil0" /><path
     style="fill:#231f20;fill-rule:nonzero"
     inkscape:connector-curvature="0"
     id="path448"
     d="m 880.692,2182.1356 c -35,-9 -70,-4 -105,0 -60,7 -112,6 -172,-7 -17,-4 -25,23 -7,27 44,9 86,16 131,13 48,-3 99,-18 147,-6 17,4 25,-22 7,-27 z"
     class="fil0" /><path
     style="fill:#231f20;fill-rule:nonzero"
     inkscape:connector-curvature="0"
     id="path450"
     d="m 3300.692,2160.1356 c -83,6 -167,-6 -250,0 -18,1 -18,29 0,28 83,-6 167,6 250,0 18,-1 18,-29 0,-28 z"
     class="fil0" /><path
     style="fill:#231f20;fill-rule:nonzero"
     inkscape:connector-curvature="0"
     id="path452"
     d="m 2496.692,1098.1356 c -36,61 -54,130 -71,198 -4,17 22,25 27,7 16,-66 33,-133 68,-191 9,-15 -15,-29 -24,-14 z"
     class="fil0" /><path
     style="fill:#231f20;fill-rule:nonzero"
     inkscape:connector-curvature="0"
     id="path454"
     d="m 3054.692,1581.1356 c -56,47 -126,73 -185,116 -14,10 -1,35 14,24 61,-44 132,-71 190,-120 14,-12 -6,-31 -20,-20 z"
     class="fil0" /><path
     style="fill:#231f20;fill-rule:nonzero"
     inkscape:connector-curvature="0"
     id="path456"
     d="m 1354.692,1160.1356 c -10,-15 -34,-1 -24,14 42,63 86,125 118,194 7,16 31,2 24,-14 -32,-69 -76,-131 -118,-194 z"
     class="fil0" /><path
     style="fill:#231f20;fill-rule:nonzero"
     inkscape:connector-curvature="0"
     id="path458"
     d="m 1061.692,1682.1356 c -48,-10 -94,-55 -132,-84 -19,-14 -67,-62 -94,-47 -16,9 -2,33 14,24 -6,4 1,3 8,7 8,4 15,10 23,15 22,15 44,32 65,48 32,23 69,56 109,64 17,4 25,-23 7,-27 z"
     class="fil0" /><path
     style="fill:#231f20;fill-rule:nonzero"
     inkscape:connector-curvature="0"
     id="path460"
     d="m 1046.692,2716.1356 c -81,28 -132,102 -194,156 -13,12 6,31 20,20 57,-51 106,-124 181,-149 17,-6 10,-33 -7,-27 z"
     class="fil0" /><path
     style="fill:#231f20;fill-rule:nonzero"
     inkscape:connector-curvature="0"
     id="path462"
     d="m 1519.692,3130.1356 c -62,67 -99,177 -101,267 -1,18 27,18 28,0 2,-82 37,-186 93,-247 12,-13 -7,-33 -20,-20 z"
     class="fil0" /><path
     style="fill:#231f20;fill-rule:nonzero"
     inkscape:connector-curvature="0"
     id="path464"
     d="m 2684.692,3103.1356 c -11,-12 -65,-87 -88,-63 -9,10 -1,23 10,24 -1,0 0,0 1,0 1,0 3,0 4,-1 0,0 0,0 0,0 2,-1 3,-2 5,-3 -2,2 -3,3 -5,3 0,0 0,0 0,0 -2,1 -3,1 -4,1 0,0 0,0 -1,0 1,0 3,2 7,5 7,7 14,14 21,21 17,18 33,36 49,54 24,27 53,55 71,86 9,16 33,2 24,-14 -23,-41 -62,-78 -94,-113 z"
     class="fil0" /><path
     style="fill:#231f20;fill-rule:nonzero"
     inkscape:connector-curvature="0"
     id="path466"
     d="m 2605.692,3063.1356 c 0,0 0,0 1,0 -1,0 -1,0 -1,0 z"
     class="fil0" /><path
     style="fill:#231f20;fill-rule:nonzero"
     inkscape:connector-curvature="0"
     id="path468"
     d="m 2610.692,3063.1356 c 0,0 0,0 0,0 0,0 0,0 0,0 z"
     class="fil0" /><path
     style="fill:#231f20;fill-rule:nonzero"
     inkscape:connector-curvature="0"
     id="path470"
     d="m 2932.692,2628.1356 c -16,-7 -30,17 -14,24 71,32 145,66 206,116 14,11 33,-8 20,-20 -62,-51 -138,-87 -211,-120 z"
     class="fil0" /><path
     style="fill:#231f20;fill-rule:nonzero"
     inkscape:connector-curvature="0"
     id="path472"
     d="m 7904.692,7629.1356 h 816 c 4,-10 10,-19 16,-28 h -832 z"
     class="fil0" /><path
     style="fill:#231f20;fill-rule:nonzero"
     inkscape:connector-curvature="0"
     id="path474"
     d="m 9619.692,7611.1356 c 0,1 0,2 0,3 -2,6 -3,11 -5,16 h 4898 v -28 h -4890 c -1,3 -2,6 -2,9 z"
     class="fil0" /><path
     style="fill:#231f20;fill-rule:nonzero"
     inkscape:connector-curvature="0"
     id="path476"
     d="m 12811.692,9919.1356 c -194,-74 -414,27 -550,166.0004 11,3 18,19 5,25 -6,3 -13,6 -21,10 5,6 13,9 20,1 112,-123.0004 251,-193.0004 418,-195.0004 158,-2 398,166.0004 252,333.0004 -52,59 -135,84 -210,97 -101,17 -202,24 -305,20 -79,-3 -173,-12 -247,-44 -128,-56 -6,-169 71,-212 -4,-5 -5,-12 0,-18 5,-6 10,-11 16,-17 -3,-1 -6,-1 -9,1 -79,34 -165,96 -156,193 7,74 104,95 162,106 131,24 261,26 393,11 96,-11 202,-27 279,-92 153,-131 43,-322.0004 -118,-383.0004 z"
     class="fil0" /><path
     style="fill:#231f20;fill-rule:nonzero"
     inkscape:connector-curvature="0"
     id="path478"
     d="m 12245.692,10120.136 c 7,-4 14,-8 21,-10 13,-6 7,-22 -5,-25 -5,5 -11,11 -16,17 -5,6 -4,13 0,18 z"
     class="fil0" /><path
     style="fill:#231f20;fill-rule:nonzero"
     inkscape:connector-curvature="0"
     id="path480"
     d="m 10189.692,11121.136 c 10,1 20,3 29,6 -6,-9 -11,-18 -17,-27 -4,7 -8,14 -12,21 z"
     class="fil0" /><path
     style="fill:#231f20;fill-rule:nonzero"
     inkscape:connector-curvature="0"
     id="path482"
     d="m 10205.692,10795.136 c 16,20 32,39 49,58 -8,-23 -16,-46 -24,-68 -8,4 -17,7 -25,11 z"
     class="fil0" /><path
     style="fill:#231f20;fill-rule:nonzero"
     inkscape:connector-curvature="0"
     id="path484"
     d="m 10543.692,10934.136 c -5,9 -9,17 -12,26 8,-2 15,-4 24,-5 -4,-7 -8,-14 -12,-21 z"
     class="fil0" /><path
     style="fill:#231f20;fill-rule:nonzero"
     inkscape:connector-curvature="0"
     id="path486"
     d="m 10330.692,11151.136 c -7,-4 -14,-7 -22,-11 0,8 1,15 1,23 7,-4 14,-8 21,-12 z"
     class="fil0" /><path
     style="fill:#231f20;fill-rule:nonzero"
     inkscape:connector-curvature="0"
     id="path488"
     d="m 10550.692,11010.136 c 0,-8 0,-16 2,-24 -7,4 -15,8 -23,12 7,4 14,8 21,12 z"
     class="fil0" /><path
     style="fill:#231f20;fill-rule:nonzero"
     inkscape:connector-curvature="0"
     id="path490"
     d="m 10432.692,11031.136 c -3,-6 -7,-13 -10,-19 -5,6 -9,12 -14,19 8,0 16,0 24,0 z"
     class="fil0" /><path
     style="fill:#231f20;fill-rule:nonzero"
     inkscape:connector-curvature="0"
     id="path492"
     d="m 10750.692,10872.136 c -74,26 -131,77 -198,114 -1,8 -2,16 -2,24 -7,-4 -14,-8 -21,-12 8,-4 15,-8 23,-12 2,-14 7,-26 15,-39 5,-8 -1,-22 -12,-21 -58,6 -98,41 -132,85 3,6 7,12 10,19 -8,0 -16,0 -24,0 5,-6 9,-13 14,-19 -50,-90 -131,-150 -194,-231 -9,-11 -31,-5 -25,11 20,55 37,111 56,167 21,61 45,117 49,181 7,4 14,8 22,11 -7,4 -14,8 -21,12 0,-8 0,-16 -1,-23 -39,-21 -74,-42 -120,-46 -11,-1 -17,13 -12,21 41,67 90,118 91,201 0,18 28,18 28,0 -1,-78 -38,-128 -78,-189 -9,-3 -19,-5 -29,-6 4,-7 8,-14 12,-21 6,9 11,18 17,27 35,10 65,31 98,48 9,5 21,-1 21,-12 1,-59 -13,-111 -34,-166 -18,-48 -33,-96 -49,-144 -17,-18 -34,-37 -49,-58 8,-4 17,-7 25,-11 8,23 16,45 24,68 56,60 117,115 154,192 5,10 18,8 24,0 25,-36 56,-72 99,-85 3,-9 7,-17 12,-26 4,7 8,14 12,21 -8,1 -16,3 -24,5 -5,16 -8,32 -9,51 -1,11 12,16 21,12 76,-36 135,-93 214,-123 63,-24 129,-32 196,-35 34,-18 71,-29 106,-29 -106,0 -209,3 -309,38 z"
     class="fil0" /><path
     style="fill:#231f20;fill-rule:nonzero"
     inkscape:connector-curvature="0"
     id="path494"
     d="m 11449.692,10992.136 c -15,2 -31,4 -46,7 15,4 30,10 43,18 1,-8 2,-17 3,-25 z"
     class="fil0" /><path
     style="fill:#231f20;fill-rule:nonzero"
     inkscape:connector-curvature="0"
     id="path496"
     d="m 10854.692,10994.136 c 9,-17 21,-33 36,-48 -19,8 -36,19 -55,29 6,6 13,13 19,19 z"
     class="fil0" /><path
     style="fill:#231f20;fill-rule:nonzero"
     inkscape:connector-curvature="0"
     id="path498"
     d="m 11460.692,10993.136 c -89,-61 -232,-5 -333,20 -5,9 -10,17 -13,24 -6,-6 -11,-11 -17,-17 9,-2 19,-4 30,-7 12,-20 23,-43 2,-55 -38,-23 -106,5 -150,30 -1,10 -3,20 -3,27 -7,-4 -14,-8 -21,-12 7,-4 15,-9 24,-15 2,-22 1,-47 -23,-52 -24,-5 -46,0 -67,9 -15,15 -27,32 -36,48 -6,-6 -13,-13 -19,-19 18,-10 36,-21 55,-29 45,-47 111,-83 170,-84 -35,0 -71,0 -106,2 -52,27 -99,70 -123,116 -7,12 7,26 19,19 31,-17 105,-52 99,16 -1,10 13,18 21,12 18,-13 37,-23 58,-30 9,-4 85,-16 85,-16 -8,17 -18,31 -24,49 -4,11 7,19 17,17 79,-15 207,-70 299,-48 15,-3 31,-5 46,-7 -1,8 -2,17 -3,25 -13,-9 -27,-15 -43,-18 -84,14 -164,36 -228,97 -29,28 -116,107 -97,154 7,16 34,9 27,-7 -15,-36 74,-112 97,-134 68,-65 166,-77 254,-90 13,-2 12,-19 3,-25 z"
     class="fil0" /><path
     style="fill:#231f20;fill-rule:nonzero"
     inkscape:connector-curvature="0"
     id="path500"
     d="m 10976.692,11015.136 c 1,-7 2,-16 3,-27 -9,5 -17,10 -24,15 7,4 14,8 21,12 z"
     class="fil0" /><path
     style="fill:#231f20;fill-rule:nonzero"
     inkscape:connector-curvature="0"
     id="path502"
     d="m 11114.692,11037.136 c 2,-6 7,-15 13,-24 -10,3 -20,5 -30,7 6,6 11,11 17,17 z"
     class="fil0" /><path
     style="fill:#231f20;fill-rule:nonzero"
     inkscape:connector-curvature="0"
     id="path504"
     d="m 11059.692,10834.136 c 0,9 0,19 0,28 18,0 18,-28 0,-28 z"
     class="fil0" /><path
     style="fill:#231f20;fill-rule:nonzero"
     inkscape:connector-curvature="0"
     id="path506"
     d="m 11059.692,10834.136 c -35,0 -72,12 -106,29 35,-2 71,-2 106,-2 0,-9 0,-19 0,-28 z"
     class="fil0" /><path
     style="fill:#231f20;fill-rule:nonzero"
     inkscape:connector-curvature="0"
     id="path508"
     d="m 4673.692,8994.1356 c -7,-11 -16,-21 -26,-30 0,12 0,24 0,37 9,-2 17,-5 26,-7 z"
     class="fil0" /><path
     style="fill:#231f20;fill-rule:nonzero"
     inkscape:connector-curvature="0"
     id="path510"
     d="m 4744.692,9001.1356 c 8,-3 16,-7 24,-10 -8,-8 -15,-15 -23,-21 -1,10 -1,21 -1,31 z"
     class="fil0" /><path
     style="fill:#231f20;fill-rule:nonzero"
     inkscape:connector-curvature="0"
     id="path512"
     d="m 5284.692,9008.1356 c 6,-13 10,-25 13,-38 -11,6 -21,12 -32,19 6,6 13,13 19,19 z"
     class="fil0" /><path
     style="fill:#231f20;fill-rule:nonzero"
     inkscape:connector-curvature="0"
     id="path514"
     d="m 4939.692,8973.1356 c 0,-11 2,-22 3,-33 -9,7 -18,15 -27,23 8,3 16,7 24,10 z"
     class="fil0" /><path
     style="fill:#231f20;fill-rule:nonzero"
     inkscape:connector-curvature="0"
     id="path516"
     d="m 4538.692,9188.1356 c 10,14 35,1 24,-14 -33,-46 -74,-76 -120,-94 -43,0 -86,4 -128,4 91,2 169,28 224,104 z"
     class="fil0" /><path
     style="fill:#231f20;fill-rule:nonzero"
     inkscape:connector-curvature="0"
     id="path518"
     d="m 4314.692,9084.1356 c 0,-9 0,-19 0,-28 -18,0 -18,27 0,28 z"
     class="fil0" /><path
     style="fill:#231f20;fill-rule:nonzero"
     inkscape:connector-curvature="0"
     id="path520"
     d="m 4314.692,9084.1356 c 42,0 85,-4 128,-4 -39,-15 -82,-23 -128,-24 0,9 0,19 0,28 z"
     class="fil0" /><path
     style="fill:#231f20;fill-rule:nonzero"
     inkscape:connector-curvature="0"
     id="path522"
     d="m 5118.692,9008.1356 c 5,-11 9,-21 13,-32 -11,4 -21,8 -32,13 6,6 13,13 19,19 z"
     class="fil0" /><path
     style="fill:#231f20;fill-rule:nonzero"
     inkscape:connector-curvature="0"
     id="path524"
     d="m 5800.692,8862.1356 c -21,1 -43,5 -65,11 21,3 41,9 61,16 1,-9 2,-18 4,-27 z"
     class="fil0" /><path
     style="fill:#231f20;fill-rule:nonzero"
     inkscape:connector-curvature="0"
     id="path526"
     d="m 5272.692,8945.1356 c 0,6 0,12 -1,18 6,-2 13,-3 19,-5 -6,-4 -12,-9 -18,-13 z"
     class="fil0" /><path
     style="fill:#231f20;fill-rule:nonzero"
     inkscape:connector-curvature="0"
     id="path528"
     d="m 5804.692,8862.1356 c -171,-64 -356,21 -507,108 -3,13 -7,24 -13,38 -6,-6 -13,-13 -19,-19 10,-6 21,-12 32,-19 2,-8 3,-16 3,-25 0,-9 -9,-16 -18,-13 -52,13 -103,25 -152,44 -4,11 -8,21 -13,32 -6,-6 -13,-13 -19,-19 10,-5 21,-9 32,-13 9,-28 15,-56 17,-86 1,-8 -7,-13 -14,-14 -72,-9 -137,20 -191,64 -2,11 -3,22 -3,33 -8,-3 -16,-7 -24,-10 9,-8 18,-16 27,-23 12,-81 55,-151 92,-224 6,-11 -3,-24 -16,-20 -122,32 -261,140 -273,274 8,6 15,14 23,21 -8,3 -16,7 -24,10 -1,-10 0,-21 1,-31 -24,-20 -49,-34 -84,-38 -8,-1 -14,7 -14,14 0,6 0,13 0,19 10,8 19,18 26,30 -9,2 -17,5 -26,7 0,-12 0,-24 0,-37 -42,-35 -104,-46 -156,-32 -8,2 -13,13 -8,20 24,36 47,72 68,110 11,2 21,5 31,9 -5,7 -10,14 -16,20 -5,-10 -10,-20 -16,-29 -77,-17 -158,-6 -236,-6 47,1 90,8 128,24 45,0 89,3 132,18 12,4 21,-10 16,-20 -22,-42 -46,-82 -72,-122 -7,1 -13,2 -19,4 3,-7 6,-14 8,-20 4,6 7,11 11,17 49,-6 105,11 132,53 7,12 26,7 26,-7 0,-13 0,-26 0,-39 -4,-1 -9,-2 -14,-2 5,-5 9,-9 14,-14 0,5 0,11 0,16 31,7 50,26 74,49 8,8 24,3 24,-10 -7,-124 111,-228 222,-268 5,-10 10,-20 16,-30 5,7 10,14 16,20 -10,3 -21,6 -31,10 -40,77 -80,152 -83,241 -1,13 15,18 24,10 51,-48 113,-84 184,-81 0,-4 1,-8 1,-13 5,5 9,9 14,14 -5,-1 -10,-1 -15,-1 -3,33 -11,60 -25,92 -6,13 6,25 19,19 51,-23 104,-36 158,-50 1,-6 2,-12 1,-18 6,4 12,9 18,13 -6,2 -13,3 -19,5 -2,10 -5,21 -11,31 -5,12 6,27 19,19 132,-78 297,-166 456,-140 22,-6 44,-10 65,-11 -1,9 -2,18 -4,27 -20,-8 -41,-13 -61,-16 -133,37 -275,163 -296,291 -3,18 24,25 27,7 22,-136 199,-275 334,-281 16,-1 18,-22 4,-27 z"
     class="fil0" /><path
     style="fill:#231f20;fill-rule:nonzero"
     inkscape:connector-curvature="0"
     id="path530"
     d="m 5119.692,8890.1356 c 0,4 -1,8 -1,13 5,0 10,1 15,1 -5,-5 -9,-9 -14,-14 z"
     class="fil0" /><path
     style="fill:#231f20;fill-rule:nonzero"
     inkscape:connector-curvature="0"
     id="path532"
     d="m 4581.692,9071.1356 c -10,-4 -21,-6 -31,-9 5,10 11,19 16,29 5,-7 10,-14 16,-20 z"
     class="fil0" /><path
     style="fill:#231f20;fill-rule:nonzero"
     inkscape:connector-curvature="0"
     id="path534"
     d="m 4498.692,8959.1356 c 6,-2 13,-3 19,-4 -4,-6 -7,-11 -11,-17 -3,7 -6,14 -8,20 z"
     class="fil0" /><path
     style="fill:#231f20;fill-rule:nonzero"
     inkscape:connector-curvature="0"
     id="path536"
     d="m 5010.692,8702.1356 c -5,10 -10,20 -16,30 11,-4 21,-7 31,-10 -5,-7 -10,-14 -16,-20 z"
     class="fil0" /><path
     style="fill:#231f20;fill-rule:nonzero"
     inkscape:connector-curvature="0"
     id="path538"
     d="m 4661.692,8959.1356 c 5,1 10,1 14,2 0,-5 0,-11 0,-16 -5,5 -9,9 -14,14 z"
     class="fil0" /><path
     style="fill:#231f20;fill-rule:nonzero"
     inkscape:connector-curvature="0"
     id="path540"
     d="m 768.692,12783.136 c -7,-7 -15,-14 -23,-22 -1,11 -1,21 -1,31 8,-3 16,-7 24,-10 z"
     class="fil0" /><path
     style="fill:#231f20;fill-rule:nonzero"
     inkscape:connector-curvature="0"
     id="path542"
     d="m 640.692,12822.136 c -9,-5 -19,-10 -28,-14 3,10 6,20 8,30 7,-5 14,-10 20,-16 z"
     class="fil0" /><path
     style="fill:#231f20;fill-rule:nonzero"
     inkscape:connector-curvature="0"
     id="path544"
     d="m 630.692,12264.136 c 10,3 20,7 29,11 -4,-9 -9,-18 -12,-28 -6,6 -11,11 -17,17 z"
     class="fil0" /><path
     style="fill:#231f20;fill-rule:nonzero"
     inkscape:connector-curvature="0"
     id="path546"
     d="m 557.692,12666.136 c 13,6 25,12 37,18 -6,-13 -12,-25 -18,-37 -6,6 -13,13 -19,19 z"
     class="fil0" /><path
     style="fill:#231f20;fill-rule:nonzero"
     inkscape:connector-curvature="0"
     id="path548"
     d="m 1189.692,12654.136 c 0,-13 0,-25 0,-38 -9,10 -18,20 -26,31 9,2 17,5 26,7 z"
     class="fil0" /><path
     style="fill:#231f20;fill-rule:nonzero"
     inkscape:connector-curvature="0"
     id="path550"
     d="m 394.692,12778.136 c 2,-9 5,-18 7,-27 -17,-3 -25,23 -7,27 z"
     class="fil0" /><path
     style="fill:#231f20;fill-rule:nonzero"
     inkscape:connector-curvature="0"
     id="path552"
     d="m 1161.692,12529.136 c 0,6 0,13 0,19 6,-2 12,-4 18,-6 -6,-4 -12,-9 -18,-13 z"
     class="fil0" /><path
     style="fill:#231f20;fill-rule:nonzero"
     inkscape:connector-curvature="0"
     id="path554"
     d="m 536.692,12973.136 c 1,18 29,18 28,0 -4,-66 -33,-134 -83,-179 -29,-6 -58,-11 -88,-16 85,21 138,111 143,195 z"
     class="fil0" /><path
     style="fill:#231f20;fill-rule:nonzero"
     inkscape:connector-curvature="0"
     id="path556"
     d="m 394.692,12778.136 c 30,5 59,10 88,16 -23,-20 -50,-36 -80,-43 -2,9 -5,18 -7,27 z"
     class="fil0" /><path
     style="fill:#231f20;fill-rule:nonzero"
     inkscape:connector-curvature="0"
     id="path558"
     d="m 1008.692,12664.136 c -3,-7 -6,-14 -9,-21 -5,5 -10,10 -14,15 8,2 15,4 23,6 z"
     class="fil0" /><path
     style="fill:#231f20;fill-rule:nonzero"
     inkscape:connector-curvature="0"
     id="path560"
     d="m 1842.692,12556.136 c 0,4 -1,8 -2,13 5,0 11,1 16,1 -5,-5 -9,-9 -14,-14 z"
     class="fil0" /><path
     style="fill:#231f20;fill-rule:nonzero"
     inkscape:connector-curvature="0"
     id="path562"
     d="m 2137.692,12658.136 c -8,7 -17,13 -26,19 12,1 24,3 36,4 -3,-8 -7,-16 -10,-24 z"
     class="fil0" /><path
     style="fill:#231f20;fill-rule:nonzero"
     inkscape:connector-curvature="0"
     id="path564"
     d="m 2147.692,12654.136 c -100,-13 -237,-21 -332,32 -6,13 -12,27 -16,41 -8,-4 -15,-9 -23,-13 12,-11 25,-20 39,-27 21,-43 50,-81 54,-129 1,-8 -7,-13 -14,-14 -76,-8 -144,17 -209,52 -5,12 -10,23 -13,35 -7,-5 -14,-10 -20,-16 11,-7 22,-13 34,-19 40,-90 121,-183 223,-177 -38,0 -77,1 -116,4 -71,44 -124,127 -148,201 -4,12 10,22 20,16 67,-39 135,-72 213,-69 1,-4 2,-8 2,-13 5,5 9,9 14,14 -5,-1 -11,-1 -16,-1 -11,53 -53,97 -67,150 -4,14 13,23 23,13 77,-68 212,-67 316,-56 9,-7 18,-13 26,-19 3,8 7,16 10,24 -11,-2 -23,-3 -36,-4 -95,68 -234,138 -228,268 1,18 29,18 28,0 -6,-130 160,-199 246,-268 11,-9 0,-22 -10,-24 z"
     class="fil0" /><path
     style="fill:#231f20;fill-rule:nonzero"
     inkscape:connector-curvature="0"
     id="path566"
     d="m 1633.692,12629.136 c 4,-11 8,-23 13,-35 -11,6 -23,13 -34,19 7,5 14,11 20,16 z"
     class="fil0" /><path
     style="fill:#231f20;fill-rule:nonzero"
     inkscape:connector-curvature="0"
     id="path568"
     d="m 1845.692,12390.136 c 8,0 16,0 24,0 -8,-1 -16,0 -24,0 z"
     class="fil0" /><path
     style="fill:#231f20;fill-rule:nonzero"
     inkscape:connector-curvature="0"
     id="path570"
     d="m 1189.692,12616.136 c 0,13 0,25 0,38 -9,-2 -17,-5 -26,-7 8,-11 17,-21 26,-31 0,-29 0,-58 0,-87 0,-9 -9,-16 -18,-13 -72,20 -122,75 -172,128 3,7 6,14 9,21 -8,-2 -15,-4 -23,-6 5,-5 10,-10 14,-15 -69,-159 -191,-352 -362,-405 -10,-3 -21,7 -17,17 32,86 95,155 121,243 24,82 9,177 5,263 8,7 15,14 23,22 -8,3 -16,7 -24,10 0,-10 1,-21 1,-31 -52,-48 -109,-91 -175,-120 -13,-6 -26,6 -19,19 24,48 45,96 60,147 10,4 19,9 28,14 -7,5 -14,11 -20,16 -2,-10 -5,-20 -8,-30 -67,-31 -138,-44 -211,-57 31,8 58,23 80,43 50,11 99,26 145,52 11,6 23,-4 20,-16 -12,-52 -31,-99 -53,-146 -12,-7 -24,-13 -37,-18 6,-6 13,-13 19,-19 6,12 12,25 18,37 57,31 107,72 155,118 9,8 24,2 24,-10 1,-94 12,-188 0,-282 -12,-88 -75,-157 -113,-236 -10,-4 -19,-8 -29,-11 6,-6 11,-11 17,-17 4,9 8,19 12,28 153,65 262,251 322,396 4,9 15,14 23,6 47,-48 93,-105 157,-129 0,-6 0,-13 0,-19 6,4 12,9 18,13 -6,2 -12,4 -18,6 0,35 0,71 0,106 0,15 18,17 26,7 133,-173 355,-226 567,-239 28,-17 59,-29 91,-31 -234,4 -494,45 -656,226 z"
     class="fil0" /><path
     style="fill:#231f20;fill-rule:nonzero"
     inkscape:connector-curvature="0"
     id="path572"
     d="m 1869.692,12390.136 c 0,9 0,18 0,28 18,0 18,-27 0,-28 z"
     class="fil0" /><path
     style="fill:#231f20;fill-rule:nonzero"
     inkscape:connector-curvature="0"
     id="path574"
     d="m 1869.692,12390.136 c -8,0 -16,0 -24,0 -33,2 -63,14 -91,31 39,-3 78,-3 116,-4 0,-9 0,-19 0,-28 z"
     class="fil0" /><path
     style="fill:#231f20;fill-rule:nonzero"
     inkscape:connector-curvature="0"
     id="path576"
     d="m 1800.692,12727.136 c 4,-14 9,-28 16,-41 -14,8 -27,17 -39,27 8,4 15,9 23,13 z"
     class="fil0" /><path
     style="fill:#231f20;fill-rule:nonzero"
     inkscape:connector-curvature="0"
     id="path578"
     d="m 4971.692,13622.136 c 17,13 33,28 49,42 -8,-20 -17,-40 -27,-59 -7,6 -15,11 -22,17 z"
     class="fil0" /><path
     style="fill:#231f20;fill-rule:nonzero"
     inkscape:connector-curvature="0"
     id="path580"
     d="m 5060.692,13838.136 c -10,-12 -21,-24 -32,-35 3,16 6,32 8,48 8,-4 15,-9 23,-13 z"
     class="fil0" /><path
     style="fill:#231f20;fill-rule:nonzero"
     inkscape:connector-curvature="0"
     id="path582"
     d="m 5147.692,13765.136 c 7,-4 14,-8 21,-12 -8,-5 -15,-10 -22,-15 0,9 0,18 1,27 z"
     class="fil0" /><path
     style="fill:#231f20;fill-rule:nonzero"
     inkscape:connector-curvature="0"
     id="path584"
     d="m 4828.692,13751.136 c 10,-1 19,-1 28,-1 -6,-8 -12,-16 -18,-23 -3,8 -7,16 -10,24 z"
     class="fil0" /><path
     style="fill:#231f20;fill-rule:nonzero"
     inkscape:connector-curvature="0"
     id="path586"
     d="m 5540.692,13658.136 c 7,6 15,11 22,17 9,-19 14,-39 16,-56 -13,12 -26,26 -38,40 z"
     class="fil0" /><path
     style="fill:#231f20;fill-rule:nonzero"
     inkscape:connector-curvature="0"
     id="path588"
     d="m 5300.692,13695.136 c 0,-9 0,-17 0,-26 -7,5 -14,9 -21,14 7,4 14,8 21,12 z"
     class="fil0" /><path
     style="fill:#231f20;fill-rule:nonzero"
     inkscape:connector-curvature="0"
     id="path590"
     d="m 5907.692,13705.136 c 11,-12 23,-24 35,-35 -16,4 -32,7 -48,12 5,8 9,16 14,23 z"
     class="fil0" /><path
     style="fill:#231f20;fill-rule:nonzero"
     inkscape:connector-curvature="0"
     id="path592"
     d="m 5960.692,13846.136 c 15,-10 30,-19 45,-28 -17,1 -35,2 -52,3 2,9 5,17 7,26 z"
     class="fil0" /><path
     style="fill:#231f20;fill-rule:nonzero"
     inkscape:connector-curvature="0"
     id="path594"
     d="m 5346.692,13435.136 c -16,14 -28,30 -37,47 16,-9 33,-18 51,-24 -4,-8 -9,-15 -13,-23 z"
     class="fil0" /><path
     style="fill:#231f20;fill-rule:nonzero"
     inkscape:connector-curvature="0"
     id="path596"
     d="m 6498.692,13460.136 c -284,-82 -693,-58 -920,158 -2,17 -7,37 -16,56 -7,-6 -15,-11 -22,-17 12,-14 25,-27 38,-40 3,-38 -15,-64 -72,-52 -73,16 -143,61 -206,103 0,9 0,17 0,26 -7,-4 -14,-8 -21,-12 7,-5 14,-9 21,-14 0,-77 5,-159 65,-214 10,-9 0,-28 -14,-23 -131,45 -206,171 -206,306 7,5 15,10 22,15 -7,4 -14,8 -21,12 -1,-9 -1,-18 -1,-27 -56,-41 -102,-92 -156,-135 -12,-9 -30,2 -22,17 32,58 48,120 60,184 11,11 21,23 32,35 -8,4 -15,9 -23,13 -3,-16 -6,-32 -8,-48 -54,-54 -118,-88 -200,-80 -12,1 -18,14 -10,24 58,63 81,164 156,211 15,9 29,-15 14,-24 -62,-39 -88,-122 -132,-183 -9,0 -18,0 -28,1 3,-8 7,-16 10,-24 7,7 13,15 18,23 77,3 134,47 184,108 10,12 25,-1 23,-13 -10,-62 -22,-123 -44,-180 -16,-14 -32,-29 -49,-42 7,-6 15,-11 22,-17 11,19 20,39 27,59 43,39 85,81 134,113 8,5 22,-2 21,-12 -9,-112 39,-225 133,-282 10,-17 22,-33 37,-47 4,8 9,15 13,23 -18,6 -35,14 -51,24 -35,63 -36,141 -36,213 0,10 12,18 21,12 42,-28 85,-54 130,-77 29,-15 58,-28 90,-37 56,-15 40,34 25,67 -6,13 11,30 22,17 197,-230 583,-270 871,-206 20,-4 40,-8 60,-12 0,9 0,18 0,27 -19,-6 -39,-11 -60,-15 -194,35 -407,59 -544,214 -9,10 0,27 14,23 125,-33 243,-45 363,-8 21,-3 43,-5 64,-5 -2,9 -5,17 -7,26 -19,-8 -38,-15 -57,-21 -113,14 -225,59 -318,122 -11,8 -8,26 7,26 138,-3 275,-46 405,-2 25,1 48,2 67,2 -2,9 -5,17 -7,26 -20,-12 -40,-21 -60,-27 -115,-3 -272,-1 -307,109 -6,17 21,24 27,7 37,-114 255,-87 348,-87 14,0 19,-19 7,-26 -137,-80 -280,-43 -427,-32 -16,9 -31,18 -45,28 -2,-9 -5,-17 -7,-26 18,0 35,-1 52,-3 97,-56 212,-92 323,-95 13,0 20,-20 7,-26 -132,-57 -258,-57 -393,-27 -12,11 -24,22 -35,35 -4,-8 -9,-15 -14,-23 16,-4 32,-8 48,-12 148,-134 369,-145 557,-184 14,-3 13,-23 0,-27 z"
     class="fil0" /><path
     style="fill:#231f20;fill-rule:nonzero"
     inkscape:connector-curvature="0"
     id="path598"
     d="m 6425.692,13848.136 c -19,0 -42,-1 -67,-2 20,7 40,16 60,27 2,-9 5,-17 7,-26 z"
     class="fil0" /><path
     style="fill:#231f20;fill-rule:nonzero"
     inkscape:connector-curvature="0"
     id="path600"
     d="m 6328.692,13695.136 c -21,0 -43,2 -64,5 19,6 38,13 57,21 2,-9 5,-17 7,-26 z"
     class="fil0" /><path
     style="fill:#231f20;fill-rule:nonzero"
     inkscape:connector-curvature="0"
     id="path602"
     d="m 6491.692,13460.136 c -20,4 -40,8 -60,12 20,4 40,10 60,15 0,-9 0,-18 0,-27 z"
     class="fil0" /><path
     style="fill:#231f20;fill-rule:nonzero"
     inkscape:connector-curvature="0"
     id="path604"
     d="m 2548.692,10216.136 c 0,0 1,0 1,-1 1,-1 1,-1 2,-2 14,-11 -5,-30 -19,-20 -11,11 2,31 17,22 z"
     class="fil0" /><path
     style="fill:#231f20;fill-rule:nonzero"
     inkscape:connector-curvature="0"
     id="path606"
     d="m 3313.692,9986.1356 c -274,-97 -556,64.0004 -779,207.0004 -1,1 -2,1 -2,2 14,-10 33,9 19,20 -1,1 -1,1 -2,2 188,-120 385,-234.0004 615,-229.0004 115,3 222,51.0004 312,121.0004 86,68 174,175 145,290 -23,91 -155,124 -234,141 -125,27 -255,26 -382,21 -115,-4 -237,-1 -346,-38 -126,-42 -239,-204 -109,-307 0,0 -1,0 -1,1 -14,9 -27,-11 -17,-22 0,0 0,0 0,0 -87,67 -87,166 -25,251 69,95 185,124 296,133 160,13 325,20 485,4 111,-11 239,-36 323,-116 76,-72 46,-182 -3,-259 -68,-104 -178,-181 -293,-222.0004 z"
     class="fil0" /><path
     style="fill:#231f20;fill-rule:nonzero"
     inkscape:connector-curvature="0"
     id="path608"
     d="m 2397.692,9705.1356 c -158,-101 -335,-139 -521,-138 -199,0 -403,36 -593,95 -143,44 -294,120 -387,241 -96,124.0004 -119,271.0004 -49,413.0004 75,153 251,229 405,274 201,59 404,93 613,73 207,-20 406,-93 596,-172 21,-9 43,-15 64,-25 16,-7 2,-31 -14,-24 -350,161 -726,247 -1107,159 -171,-40 -350,-89 -476,-219 -135,-139 -115,-339 3,-479.0004 102,-122 259,-187 408,-230 174,-51 357,-76 538,-80 343,-6 690,175 833,497.0004 7,16 31,2 24,-14 -70,-158.0004 -193,-280.0004 -337,-372.0004 z"
     class="fil0" /><path
     style="fill:#231f20;fill-rule:nonzero"
     inkscape:connector-curvature="0"
     id="path610"
     d="m 22341.692,4066.1356 c -28,-70 -53,-150 -107,-205 -52,-53 -120,0 -155,43 -63,79 -85,178 -156,251 -77,79 -160,126 -201,234 -6,17 20,24 27,7 34,-88 99,-138 168,-197 59,-51 92,-111 126,-180 25,-50 97,-199 172,-139 53,42 76,132 100,192 6,16 33,9 27,-7 z"
     class="fil0" /><rect
     style="fill:none;fill-opacity:1;stroke:#000000;stroke-width:30.93081665;stroke-linecap:round;stroke-miterlimit:4;stroke-dasharray:none;stroke-opacity:1"
     id="rect5466"
     width="22577.863"
     height="15848.567"
     x="15.438157"
     y="15.465408" /></svg>