<?xml version="1.0" encoding="UTF-8" standalone="no"?>
<svg
   width="1024"
   height="1024"
   version="1.1"
   id="svg32"
   sodipodi:docname="dog.svg"
   inkscape:version="1.3 (0e150ed6c4, 2023-07-21)"
   xmlns:inkscape="http://www.inkscape.org/namespaces/inkscape"
   xmlns:sodipodi="http://sodipodi.sourceforge.net/DTD/sodipodi-0.dtd"
   xmlns="http://www.w3.org/2000/svg"
   xmlns:svg="http://www.w3.org/2000/svg">
  <sodipodi:namedview
     id="namedview32"
     pagecolor="#ffffff"
     bordercolor="#000000"
     borderopacity="0.25"
     inkscape:showpageshadow="2"
     inkscape:pageopacity="0.0"
     inkscape:pagecheckerboard="0"
     inkscape:deskcolor="#d1d1d1"
     inkscape:zoom="0.70710678"
     inkscape:cx="436.28488"
     inkscape:cy="429.21381"
     inkscape:window-width="2560"
     inkscape:window-height="1351"
     inkscape:window-x="1191"
     inkscape:window-y="187"
     inkscape:window-maximized="1"
     inkscape:current-layer="svg32" />
  <path
     fill="#FEFDFE"
     d="M0 0L1024 0L1024 1024L0 1024L0 0Z"
     id="path1" />
  <path
     fill="#0D0C0C"
     d="M583.913 332.995C573.867 313.695 568.617 292.26 568.606 270.502C568.669 251.706 572.447 233.426 578.08 215.57C593.702 166.05 623.228 124.044 659.867 87.7195C668.634 79.0276 695.441 52.8129 707.058 53.2324C709.46 53.3191 711.489 54.166 713.133 55.9343C717.504 60.6356 719.419 69.3476 721.318 75.3732C734.681 117.778 737.002 163.153 734.454 207.278C745.014 196.989 761.863 187.546 776.827 186.979C784.328 179.155 791.669 171.127 799.706 163.845C825.716 140.284 856.609 122.273 888.754 108.517C899.62 103.867 911.353 98.721 922.934 96.23C924.995 95.7867 926.948 95.4055 928.822 96.5959C934.247 103.503 934.659 128.297 934.587 137.265C934.176 182.728 920.329 227.054 894.788 264.666C889.638 272.134 884.377 279.45 877.893 285.835C884.155 298.291 886.394 311.866 888.298 325.515C889.504 334.162 889.898 344.187 894.118 351.982C906.797 358.929 919.003 360.43 927.459 373.417C931.694 373.449 935.887 373.868 940.1 374.259C947.857 375.57 957.105 377.854 961.946 384.666C963.924 387.448 964.95 391.311 964.287 394.697C963.777 397.294 962.565 399.721 961.933 402.298C956.496 424.437 948.158 434.929 928.893 446.97C913.208 456.774 891.309 466.143 873.101 469.34C866.461 470.506 859.785 470.691 853.062 470.801C858.925 477.757 874.861 493.39 873.858 502.695C873.381 507.113 868.66 511.021 865.277 513.527C853.28 522.416 836.263 524.606 821.827 522.401C809.417 520.504 796.2 515.39 785.563 508.766C783.019 517.181 779.45 525.367 777.033 533.765C777.109 533.939 777.183 534.113 777.261 534.286C784.062 549.347 814.184 584.106 813.709 597.79C813.182 598.779 813.046 599.393 811.806 599.594C809.341 599.995 805.815 597.816 803.718 596.705C804.216 598.435 804.806 600.182 805.203 601.936C810.502 614.108 811.604 631.717 806.634 644.124C805.919 645.908 805.361 647.166 803.649 648.17C802.408 648.068 801.849 647.982 801.023 646.975C797.859 643.114 792.796 629.469 789.754 623.723C792.655 647.905 786.44 676.926 771.19 696.306C769.507 698.444 766.651 702.473 763.709 702.615C763.486 702.626 763.264 702.59 763.041 702.593C762.753 702.597 762.466 702.621 762.178 702.635C758.363 711.015 756.004 720.502 753.431 729.344C747.88 748.423 743.183 767.558 739.869 787.174C734.935 816.38 730.302 870.812 740.716 898.666C741.94 901.941 743.55 904.91 745.309 907.923C755.429 902.583 765.257 895.538 777.23 899.059C787.656 902.124 796.689 913.23 801.538 922.523C805.054 929.263 806.701 936.211 806.503 943.809C809.439 943.888 812.369 943.926 815.286 944.295C812.974 944.348 807.435 943.814 805.681 944.984C805.624 945.22 805.574 945.457 805.51 945.691C805.28 946.543 804.976 947.162 804.548 947.923C808.093 950.085 821.645 947.142 826.782 948.176C819.004 948.677 810.954 949.686 803.172 949.546C801.979 950.387 800.793 951.169 799.733 952.177C812.5 950.723 825.285 950.498 838.05 949.385L838.038 949.367L837.2 949.709L836.779 949.187L835.988 949.161L836.234 949.895C824.01 951.615 811.661 952.245 799.433 953.861C790.91 954.988 782.592 957.494 774.06 958.661C757.61 960.912 713.828 963.308 701.219 954.418C697.264 954.386 684.713 953.389 681.91 955.353C684.132 957.49 697.7 957.141 701.309 957.223C696.386 957.374 686.496 956.668 682.252 958.005L681.904 958.785C684.551 960.967 702.824 960.3 707.56 960.637C702.843 961.031 684.613 959.837 681.757 961.699L681.461 962.97C682.599 963.797 683.532 963.859 684.932 963.884C691.069 963.995 697.417 963.38 703.587 963.251C716.08 963.006 728.576 963.016 741.069 963.284L741.377 962.474L740.604 963.381C728.153 964.004 715.736 964.123 703.275 964.354C696.63 964.477 689.366 964.144 682.846 965.2C680.323 965.609 678.603 966.277 676.442 967.642C678.843 967.573 681.597 967.221 683.942 967.732C678.517 968.453 673.179 969.005 668.038 970.987L674.384 971.273C671.605 971.768 668.783 971.937 666.016 972.454C661.743 973.251 657.561 974.588 653.306 975.494C645.421 977.173 637.171 978.064 629.131 978.629C613.532 979.726 598.55 978.629 582.999 977.789C569.088 977.145 555.17 976.664 541.247 976.345L541.245 976.323C543.493 975.954 545.761 975.487 548.038 975.38C557.793 975.643 567.551 975.806 577.309 975.872C577.854 975.903 578.4 975.947 578.945 975.939C580.09 975.921 580.447 976.071 581.23 975.238L580.822 974.37C577.871 972.709 576.609 972.776 573.328 973.405C571.833 972.849 544.668 973.957 541.786 974.444L535.52 974.331C541.544 972.845 548.332 973.616 554.51 973.406C559.441 973.239 564.416 972.605 569.358 972.325C571.654 972.194 574.911 972.54 577.053 971.852C578.022 971.541 578.058 971.444 578.469 970.502C577.496 969.569 576.866 969.594 575.567 969.319L576.757 968.686L576.799 967.77C575.958 967.048 575.288 966.637 574.154 966.547C570.909 966.289 566.892 967.183 563.592 967.503C557.739 968.043 551.878 968.494 546.012 968.856C555.356 966.975 566.22 965.575 575.745 965.953C551.772 911.094 537.307 832.399 534.428 772.456C531.757 773.07 529.177 773.999 526.585 774.88C524.428 779.182 521.628 785.103 517.362 787.587C515.909 787.681 515.96 787.705 514.812 786.811C512.978 782.934 513.676 779.254 514.016 775.106C508.647 774.103 503.213 773.676 497.842 772.52C488.759 770.566 480.215 767.26 471.528 764.053C462.691 785.991 438.817 813.484 418.441 826.221C418.437 838.28 419.248 850.05 423.439 861.466C427.595 872.787 434.131 882.067 445.335 887.246C449.721 883.541 454.439 880.193 460.03 878.607C466.749 876.702 473.153 877.688 479.173 881.143C488.476 886.483 494.804 896.375 497.536 906.589C498.665 910.813 499.664 916.345 497.156 920.244C494.96 923.659 488.761 925.262 485.004 926.241C473.441 929.254 461.286 930.595 449.361 930.876C441.581 931.059 433.597 930.89 425.863 930.031C420.177 929.399 414.558 928.267 408.862 927.692C401.432 926.942 393.926 926.696 386.468 926.33C382.826 926.152 366.752 926.086 364.485 924.761C374.832 923.722 393.816 924.228 404.373 925.088C401.689 922.705 398.981 920.349 396.249 918.021C392.122 917.251 387.956 917.513 383.798 916.747L383.881 916.591C387.864 916.916 391.788 917.204 395.786 917.138C388.53 909.8 382.729 900.684 377.164 892.029C369.871 880.686 340.751 827.127 344.149 816.175C345.917 810.473 356.328 805.498 358.856 792.618C360.827 782.573 355.544 772.075 350.054 764.007C336.309 776.963 321.558 788.809 305.939 799.432C297.291 805.282 288.227 810.895 278.899 815.593C273.417 818.354 266.814 820.322 261.869 823.937C260.475 824.956 259.406 826.694 258.524 828.151C247.578 846.235 243.69 880.562 248.919 901.245C252.133 900.441 255.645 899.878 258.932 900.498C263.419 901.345 266.861 904.439 270.581 906.871C283.067 915.034 288.081 921.094 288.403 936.518C288.436 938.134 288.343 940.002 289.397 941.338C289.889 941.96 290.537 942.049 291.305 942.077C292.831 942.133 294.886 941.472 296.422 941.215C299.883 940.636 302.867 940.839 306.316 941.284C302.776 943.311 289.655 941.061 287.409 943.31L286.053 942.722C291.7 945.917 301.329 943.031 307.726 943.325C305.129 943.727 302.423 944.325 299.807 944.49C295.405 944.769 291.014 944.561 286.685 945.619C282.294 946.692 278.093 948.91 273.761 950.272C264.58 953.161 254.202 954.632 244.625 955.301C232.467 956.149 219.851 956.083 207.717 954.922C201.658 954.343 195.754 952.879 189.725 952.218C182.801 951.46 175.608 951.394 168.638 951.259C175.064 951.175 182.309 951.712 188.553 950.198C176.193 948.124 163.508 949.773 151.048 948.506C158.272 946.517 176.387 950.064 182.091 947.395C177.574 945.342 153.314 946.607 146.092 945.931L145.263 945.849C145.909 945.956 146.296 946.006 146.945 945.844C150.946 944.844 168.875 945.225 174.247 945.201C176.725 945.191 179.834 945.547 182.212 944.966L182.183 944.036C177.827 941.534 169.656 942.703 164.562 941.786C164.364 941.75 164.166 941.709 163.968 941.671C169.808 941.573 175.649 941.547 181.49 941.594C180.593 937.624 179.997 933.512 179.541 929.469C175.895 897.192 179.533 864.793 188.626 833.729C190.797 826.314 192.979 818.05 197.42 811.652C200.355 807.425 204.293 803.873 207.87 800.196C216.333 791.495 222.403 781.512 225.479 769.707C229.997 752.365 229.129 733.393 230.478 715.604C233.302 678.344 240.356 642.427 255.368 608.063C260.908 595.381 266.931 583.553 275.606 572.662C262.15 577.958 232.419 592.283 219.127 591.323C217.026 591.171 215.662 590.675 214.297 589.068C213.994 588.126 213.832 587.523 214 586.52C214.65 582.631 219.467 579.486 222.372 577.259C209.017 581.795 184.943 590.15 171.264 587.158C169.376 586.745 167.357 585.97 166.426 584.138C165.861 583.028 165.763 581.621 166.163 580.45C166.706 578.864 185.871 567.774 188.353 566.519C165.702 567.326 143.346 563.834 123.538 552.166C113.06 545.993 97.7813 532.696 94.9227 520.206C94.5152 518.425 94.5952 516.604 95.8039 515.117C97.3936 513.162 99.993 513.415 102.271 513.316C89.313 503.977 77.1299 489.664 70.7877 474.956C68.6316 469.956 63.7956 459.456 65.9398 454.065C66.9614 453.151 67.458 452.749 68.879 452.763C74.5891 452.818 82.0647 461.187 85.9122 464.951C82.9554 460.713 79.7388 456.731 77.0508 452.296C67.0178 435.742 60.939 415.152 59.8637 395.866C59.5229 389.752 59.0466 376.164 63.5924 371.537C64.7551 370.354 66.5552 369.636 68.215 369.885C71.0773 370.315 73.3405 374.338 74.8601 376.516C73.3502 367.351 72.9475 358.037 73.6605 348.776C76.374 308.536 97.4701 272.356 127.661 246.185C134.058 240.64 162.319 217.159 169.791 218.783C170.963 219.038 171.195 219.596 171.723 220.532C172.045 227.206 163.778 237.341 160.367 243.21C193.814 210.612 239.633 187.653 285.692 179.855C293.934 178.459 312.064 175.894 319.089 181.319C320.533 182.434 321.232 183.914 321.302 185.73C321.777 198.079 284.338 227.128 274.95 236.645C276.82 236.546 279.797 236.12 281.529 236.834C282.788 237.352 283.624 238.151 284.161 239.396C285.553 242.621 283.177 247.64 281.83 250.671C276.952 261.646 270.133 271.984 263.986 282.279C254.513 298.146 245.083 314.525 237.669 331.478C240.235 329.192 243.155 326.663 246.156 324.981C247.795 324.062 250.187 323.01 252.055 323.87C254.526 325.007 254.65 328.46 254.4 330.757C253.421 339.744 244.343 359.298 241.412 369.673C231.994 403.003 232.815 441.31 245.927 473.393C257.79 502.422 278.986 525.487 308.039 537.769C315.794 532.213 323.57 526.699 331.987 522.174C370.042 501.712 410.375 501.797 451.971 507.723C471.399 510.491 489.242 513.869 509.055 513.57C524.302 513.25 539.433 510.848 554.03 506.432C555.551 505.977 559.014 505.392 560.087 504.289C558.041 504.294 556.352 504.877 554.427 505.497C557.655 501.683 561.678 499.654 565.314 496.399C570.966 491.34 574.524 482.757 577.927 476.076C575.543 477.49 573.192 478.806 570.687 480.005C567.302 481.626 561.487 484.988 557.733 483.66C557.237 483.029 556.979 482.906 556.923 482.043C556.59 476.933 565.53 468.85 568.562 464.957C569.983 463.132 573.101 459.385 572.82 457.036C571.998 456.293 570.647 455.284 570.212 454.256C566.694 445.94 574.012 429.928 577.588 422.383C573.821 426.202 568.563 430.823 563.984 433.601C562.344 434.596 561.141 434.956 559.275 434.478C558.38 433.445 558.148 432.598 558.15 431.256C558.154 427.711 559.504 423.758 560.667 420.435C565.94 405.364 574.923 394.828 586.078 383.83C581.6 386.161 573.799 391.396 568.706 390.074C568.266 389.524 567.889 389.337 567.946 388.579C568.504 381.068 587.355 363.803 593.638 358.392C588.839 355.911 584.496 352.633 580.794 348.698C576.824 344.471 571.31 336.663 571.494 330.703C572.03 329.738 572.185 329.231 573.404 329.036C576.829 328.487 581.062 331.404 583.913 332.995Z"
     id="path2" />
  <path
     fill="#FEFDFE"
     d="M577.871 503.714C592.389 504.384 607.556 516.843 617.379 526.646C649.546 558.747 672.679 613.269 672.529 658.934C672.45 682.705 664.042 702.218 649.222 720.542C645.348 725.333 641.046 729.752 637.063 734.447C633.659 738.46 630.808 742.931 627.485 747.019C623.464 751.966 618.936 756.431 614.411 760.908C621.26 756.579 627.43 750.995 632.727 744.905C628.4 767.86 625.305 791.03 623.453 814.316C621.627 838.265 618.265 893.949 624.874 915.185C625.859 918.348 627.224 920.698 629.378 923.205C617.84 927.519 604.044 936.935 597.247 947.334C600.737 944.233 604.402 941.022 609.262 940.579C612.695 940.266 615.989 941.805 618.546 943.991C626.925 951.155 629.149 963.109 630.074 973.474C615.789 974.634 599.458 974.938 585.452 971.746C578.226 959.757 573.515 945.277 569.214 932.007C554.763 886.219 545.001 839.081 540.075 791.321C538.933 780.108 537.742 768.887 537.435 757.614C542.038 750.747 548.477 745.238 554.599 739.763C537.342 749.987 526.467 765.983 516.82 783.114C518.209 767.274 522.27 754.58 534.188 743.374C536.113 741.564 540.922 738.396 542.014 736.178L541.621 735.542L541.569 736.387C533.023 741.24 524.823 743.664 515.355 746.022C526.617 733.61 543.033 722.497 548.256 705.767C552.545 692.029 545.989 675.361 539.779 663.253C542.466 674.193 546.877 685.983 546.25 697.364C545.026 719.611 511.669 736.183 510.479 746.785C510.338 748.044 510.539 748.274 511.269 749.188C515.351 750.918 521.922 748.151 525.881 746.854C519.535 753.408 516.407 760.429 514.065 769.182C479.141 765.743 428.623 735.053 400.744 713.399L395.226 709.39C403.783 695.707 410.782 681.109 416.09 665.869C418.124 660.008 425.066 637.617 423.014 633.362L422.795 633.429C422.729 633.763 422.588 634.442 422.557 634.755C421.675 643.788 416.123 657.137 412.393 665.575C389.695 716.928 338.706 771.951 291.35 802.106C274.216 813.017 256.27 821.319 237.374 828.665C243.288 827.898 249.171 826.897 254.92 825.296C240.138 848.015 240.028 878.006 244.065 903.851C239.961 903.501 236.093 903.752 232.106 904.783C217.514 908.557 203.953 919.113 196.455 932.065C201.385 926.619 205.947 922.363 212.438 918.87C213.775 919.584 215.158 920.303 216.375 921.213C225.579 928.089 227.896 940.432 229.179 951.074C215.144 951.139 201.685 949.793 187.91 947.134C186.568 940.443 185.119 933.84 184.327 927.049C180.785 896.7 184.877 865.327 193.146 836.08C195.152 828.985 196.898 820.111 200.944 813.919C203.179 810.5 207.3 807.971 210.221 805.071C220.321 795.041 227.583 783.151 231.075 769.314C235.345 752.396 234.89 734.29 236.253 716.967C239.929 670.259 249.683 622.266 275.552 582.419C288.927 561.729 306.808 544.331 327.856 531.527C363.686 509.813 401.958 506.907 442.591 511.863C460.136 514.003 477.47 517.163 495.167 517.826C513.739 518.521 531.549 516.249 549.676 512.396C539.363 519.946 530.28 528.644 523.253 539.359C537.08 525.979 557.983 505.335 577.871 503.714Z"
     id="path3" />
  <path
     fill="#fefdfe"
     d="m 598.813,343.499 c -2.044,-1.74 -4.117,-3.477 -5.973,-5.42 -14.628,-15.31 -20.54,-50.487 -20.073,-70.605 0.845,-36.406 17.364,-78.878 36.181,-109.675 14.416,-23.594 36.026,-49.394 56.002,-68.436 7.414,-7.068 32.728,-31.7735 42.374,-31.1464 1.441,0.0938 2.493,0.6184 3.42,1.7197 4.588,5.4512 8.303,22.4427 9.986,29.6452 9.061,38.7965 13.939,82.9295 10.358,122.7295 -0.998,11.102 -3.629,21.937 -4.89,32.988 4.823,-10.902 6.313,-22.813 7.985,-34.497 14.479,-10.494 25.616,-15.711 43.03,-20.019 -8.222,9.068 -23.842,18.988 -34.224,26.936 6.84,-2.613 13.941,-5.103 21.012,-7.005 16.197,-4.357 39.67,-7.698 54.931,1.149 -17.879,4.578 -36.061,7.096 -53.662,12.826 29.819,0.88 39.548,2.771 66.053,17.703 -10.518,-3.062 -21.265,-4.747 -32.213,-3.027 l -0.034,0.738 -0.502,-0.571 c -0.724,0.345 -0.345,0.078 -0.993,0.972 11.878,0.449 22.912,1.345 34.126,5.69 33.032,12.8 48.172,45.516 53,78.547 1.179,8.064 1.046,19.996 5.422,26.945 5.995,9.52 26.326,11.445 29.612,18.89 l -0.642,0.714 c -14.468,-3.177 -37.767,1.648 -52.427,4.691 l -8.775,-4.768 c 6.893,-2.169 11.665,-5.201 17.473,-9.437 l 0.18627,-0.21752 c 5.42962,-7.27293 4.26772,-26.47748 -1.18528,-38.95648 -4.162,-9.476 -11.576,-20.81 -21.781,-24.482 -3.313,-1.193 -7.281,-1.734 -10.584,-0.219 -3.246,1.488 -5.234,4.663 -6.362,7.932 -4.449,12.888 2.74,39.782 8.847,51.535 4.871,9.375 10.415,14.327 19.616,19.375 -13.291,4.37 -32.827,11.19 -44.48,18.417 l 0.512,1.144 c -0.175,-0.03 -0.985,-0.11 -1.081,-0.242 0.162,-0.019 0.326,-0.026 0.487,-0.058 3.657,-0.733 7.934,-3.665 11.428,-5.189 4.779,-2.084 9.704,-3.934 14.575,-5.794 20.88,-7.97 45.01,-10.263 67.24,-10.47 3.407,0.435 6.822,0.703 10.244,0.98 -11.703,2.249 -33.785,6.786 -40.823,17.264 -1.738,2.587 -2.303,5.613 -1.55,8.642 1.683,6.77 8.701,11.875 14.479,15.151 9.343,5.3 29.665,11.736 40.156,8.521 8.481,-2.598 15.676,-11.916 22.427,-17.33 -8.327,23.071 -27.089,34.928 -48.393,44.93 -27.6,12.958 -57.847,19.18 -87.396,8.503 -21.898,-7.913 -34.70517,-24.86062 -49.24917,-42.00362 7.418,-1.21 14.08617,-1.69338 21.57317,-0.58138 -10.195,-5.432 -22.958,-3.289 -33.57,0.002 -8.452,2.62 -16.231,6.898 -22.467,13.217 6.939,-3.339 14.089,-7.256 21.534,-9.332 0.14,0.149 0.283,0.297 0.422,0.449 7.286,7.982 12.406,19.217 17.877,28.487 11.589,19.639 24.988,37.85 45.745,48.521 6.18,3.177 12.807,5.603 19.8,6.009 5.462,0.316 12.739,-0.451 16.989,-4.169 1.651,-1.445 2.601,-3.365 2.654,-5.564 0.197,-8.255 -9.655,-19.093 -15.187,-24.372 -0.397,-0.378 0.0406,0.0427 -0.6254,-0.59181 0.0917,-0.92225 0.0282,-0.6185 0.40712,-0.82535 l 0.34604,-0.13847 0.29524,0.0206 c 5.981,2.32 17.698,19.707 20.366,25.689 0.873,1.958 1.406,3.941 1.834,6.035 -6.024,8.911 -15.796,13.19 -26.081,15.159 -29.608,5.667 -55.158,-11.875 -80.883,-23.245 -9.712,-4.293 -20.308,-7.741 -30.617,-10.255 8.951,6.133 20.718,9.674 30.591,14.273 6.427,2.994 12.601,6.872 19.152,9.506 -7.174,18.937 -14.981,36.733 -17.916,56.942 4.227,-8.78 6.341,-18.729 10.17,-27.777 1.42,4.953 5.164,10.152 7.974,14.498 8.543,13.218 22.247,30.105 27.092,44.767 -11.457,-2.072 -14.862,-13.833 -22.425,-20.69 1.617,4.631 5.588,9.092 8.067,13.367 1.825,3.148 2.933,6.98 4.115,10.409 4.998,14.496 7.083,28.92 3.227,43.896 -6.546,-15.637 -15.066,-31.723 -25.983,-44.778 4.868,8.619 9.09,15.295 9.191,25.484 0.261,26.169 -4.792,55.813 -23.795,75.106 5.061,-19.22 6.191,-46.408 4.156,-66.124 -1.166,10.094 -1.597,20.252 -3.056,30.319 -2.816,19.433 -10.036,41.67 -22.295,57.275 -3.984,5.071 -8.701,9.377 -13.562,13.58 1.93,-4.947 3.045,-10.201 4.792,-15.217 4.941,-14.188 9.303,-22.237 10.004,-37.836 -1.195,3.89 -2.047,7.875 -3.302,11.757 -3.133,9.692 -7.548,19.614 -13.865,27.674 -19.903,25.398 -65.667,46.936 -93.897,61.521 2.288,-10.324 2.471,-37.018 7.95,-44.421 2.235,-3.02 5.426,-5.584 7.986,-8.356 3.769,-4.082 7.312,-8.635 10.538,-13.145 18.627,-26.046 22.204,-52.853 17.118,-83.855 -5.749,-35.171 -20.987,-68.107 -44.072,-95.257 -7.399,-8.867 -15.443,-17.402 -24.875,-24.131 -12.801,-9.131 -22.715,-13.232 -38.401,-10.634 8.9,-13.305 17.62,-27.597 19.294,-43.863 -3.909,7.636 -3.937,10.865 -11.621,15.792 -4.667,2.172 -9.321,4.19 -14.128,6.04 5.613,-7.567 11.221,-14.107 15.577,-22.566 5.752,0.374 11.453,1.408 17.223,1.758 9.252,0.562 18.538,0.036 27.77,-0.615 -4.066,2.047 -8.31,4.511 -11.749,7.51 -1.724,1.505 -2.911,2.637 -3.062,4.99 0.281,0.46 0.468,0.838 0.911,1.196 4.527,3.646 30.923,0.963 37.496,0.276 -3.386,2.273 -12.781,7.604 -13.528,11.641 -0.147,0.796 0.266,0.977 0.719,1.567 5.754,2.408 14.375,0.47 20.585,0.487 4.729,0.012 9.499,0.29 14.213,0.659 15.547,1.215 29.932,5.277 45.109,8.42 6.52,1.35 13.178,2.196 19.766,3.155 -5.925,-2.865 -13.025,-4.138 -19.301,-6.167 -6.593,-2.132 -13.117,-4.708 -19.802,-6.517 -18.379,-4.972 -37.342,-5.479 -56.166,-3.29 5.096,-3.031 9.825,-6.375 14.499,-10.016 4.549,-2.197 9.556,-3.231 14.437,-4.423 -18.348,-0.179 -36.636,2.829 -55.026,1.785 8.24,-9.112 20.957,-15.201 33.025,-16.857 -7.965,-0.722 -16.191,0.519 -24.131,1.282 -5.617,-0.37 -11.685,0.285 -17.352,0.323 -8.641,0.02 -17.273,-0.551 -25.837,-1.708 6.395,-11.859 18.325,-18.919 29.657,-25.321 -12.495,3.598 -25.267,10.897 -32.653,21.85 0.243,-2.721 0.631,-5.481 1.19,-8.155 3.656,-17.486 15.03,-30.738 29.672,-40.369 -11.311,4.317 -32.06,20.106 -41.618,28.607 3.163,-18.721 16.178,-33.992 29.655,-46.674 7.799,-7.339 16.748,-13.963 26.958,-17.487 0.749,-0.258 2.682,-1.229 3.423,-1.208 l -1.136,0.008 -0.185,-0.709 c -15.219,3.273 -35.744,16.871 -50.446,24.077 13.012,-15.974 29.22,-28.363 44.567,-41.921 15.607,-13.787 30.33,-28.129 44.824,-43.07 23.052,-23.762 46.766,-47.905 56.319,-80.661 11.227,-38.494 4.686,-115.348 -14.599,-150.4866 -2.298,1.6846 -4.531,3.5013 -6.69,5.3595 -40.638,34.9791 -79.312,93.4201 -83.284,148.0871 -2.455,33.794 11.488,61.364 33.098,86.243 -7.971,7.898 -15.924,15.868 -24.286,23.354 -7.792,6.975 -15.917,13.488 -23.476,20.733 l -0.722,-0.257 c -11.166,-4.017 -17.192,-12.058 -22.049,-22.509 8.139,3.508 15.451,8.346 23.899,11.273 z"
     id="path4"
     sodipodi:nodetypes="ccsscscccccccccccccccccscccccccccccccccccccccscccsccccccccscccccccccccccccccccccccccccccccccccscccccccccccccccccccccccccccccccccccccscccccccccccccccccc" />
  <path
     fill="#0D0C0C"
     d="M749.955 314.676C755.127 314.136 760.703 315.188 765.402 317.416C775.916 322.398 783.881 333.891 787.533 344.648C792.654 359.735 788.729 375.95 781.866 389.846C783.849 389.845 785.831 389.988 787.811 390.098C781.346 393.401 756.443 394.001 748.119 393.858C737.773 393.166 728.964 391.348 719.981 386.002C724.15 387.276 728.296 388.614 732.577 389.465C723.726 381.61 716.399 371.97 714.677 359.957C713.135 349.6 715.79 339.056 722.054 330.665C728.877 321.574 738.808 316.215 749.955 314.676Z"
     id="path5" />
  <path
     fill="#fefdfe"
     d="m 750.16,322.117 c 5.689,-0.586 10.6,0.292 15.675,3.029 9.874,5.325 17.69354,16.4165 20.68454,27.0405 1.72292,11.60242 -1.87258,27.94608 -7.62858,38.18608 -7.499,0.633 -14.25996,1.09642 -21.78596,1.20142 -6.288,0.025 -16.83585,-0.59335 -22.29385,-4.31535 -7.366,-5.024 -13.84515,-14.09065 -15.51615,-22.79665 -1.699,-8.849 0.921,-18.284 5.915,-25.652 6.009,-8.864 14.416,-14.74 24.95,-16.693 z"
     id="path6"
     sodipodi:nodetypes="csccccccc" />
  <path
     fill="#0D0C0C"
     d="M741.681 341.074C745.587 340.821 748.548 341.217 752.05 343.063C757.176 345.765 760.725 350.764 762.258 356.278C763.989 362.509 763.323 370.186 759.891 375.751C757.348 379.875 754.208 381.73 749.634 382.938C746.607 383.274 743.878 383.181 741.031 381.98C736.028 379.87 732.311 375.448 730.378 370.446C727.978 364.236 728.115 356.252 730.992 350.198C733.296 345.35 736.808 342.882 741.681 341.074Z"
     id="path7" />
  <path
     fill="#FEFDFE"
     d="M737.509 346.56C738.499 346.436 739.482 346.345 740.482 346.374C742.811 346.453 744.997 347.521 746.489 349.312C747.408 350.403 747.9 351.725 747.728 353.17C747.442 355.568 745.935 356.824 744.133 358.189C742.857 358.465 741.634 358.654 740.322 358.604C738.426 358.533 736.627 357.504 735.444 356.034C734.346 354.669 733.97 353.109 734.229 351.388C734.595 348.955 735.659 348.009 737.509 346.56Z"
     id="path8" />
  <path
     fill="#0D0C0C"
     d="M739.356 264.059C740.304 263.96 741.271 263.902 742.216 264.068C745.621 264.666 747.777 268.804 749.511 271.415C746.815 271.323 743.977 271.211 741.314 271.692C725.521 274.544 710.62 294.995 702.083 307.541L696.689 315.748C698.461 310.817 700.193 305.907 702.471 301.179C710.269 284.998 721.934 270.204 739.356 264.059Z"
     id="path9" />
  <path
     fill="#0D0C0C"
     d="M833.129 259.348C834.787 259.699 836.412 260.185 837.99 260.802C848.36 264.771 858.523 276.068 862.9 286.016L862.644 286.482L861.15 285.008C856.533 279.548 851.484 274.069 845.215 270.487C841.213 268.2 834.592 266.314 829.955 267.667C828.999 267.946 829.508 267.927 828.545 267.756C828.417 267.311 828.306 267.036 828.336 266.539C828.497 263.891 831.272 260.994 833.129 259.348Z"
     id="path10" />
  <path
     fill="#FEFDFE"
     d="M304.271 184.21C307.771 183.909 312.971 183.555 315.951 185.616C318.165 192.482 272.324 230.925 265.121 238.313C256.363 247.418 248.135 257.019 240.479 267.069C238.15 270.161 234.006 274.729 233.175 278.423L233.952 277.261L234.04 277.484C244.444 264.507 255.65 251.953 270.429 243.923C272.528 242.783 274.992 241.154 277.349 240.726C278.75 240.471 279.254 240.692 280.413 241.45C280.87 244.511 272.199 258.245 270.034 261.876C264.56 271.06 258.276 279.744 252.886 288.968C239.528 311.827 228.058 337.339 219.881 362.55C228.912 349.554 229.48 340.457 244.437 330.711C246.187 329.571 248.061 328.128 250.214 328.572C250.742 330.189 250.01 332.028 249.501 333.63C247.808 338.958 245.04 344.064 242.831 349.2C240.004 355.775 237.677 362.739 235.629 369.598C224.067 408.31 226.716 451.966 246.274 487.775C258.183 509.579 279.927 533.651 304.284 540.828C294.724 549.162 286.5 558.611 278.147 568.118C273.357 569.354 268.703 571.444 264.084 573.208C248.888 579.013 232.339 586.48 216.039 587.766C226.059 576.088 240.283 568.16 252.881 559.674C252.003 559.079 246.031 562.264 244.908 562.809C221.228 574.286 197.606 582.607 170.897 581.987C180.17 575.208 190.681 568.29 201.488 564.261C208.585 561.615 215.981 559.847 222.983 556.926L223.811 556.576C217.618 557.659 211.521 559.21 205.3 560.181C193.604 562.006 180.937 562.078 169.178 560.701C144.106 557.767 119.046 546.612 103.129 526.561C101.598 524.142 99.1259 520.836 99.0993 517.938C100.855 516.513 103.972 518.383 105.656 519.349C125.358 530.644 148.162 539.464 170.888 541.651L170.75 541.366C168.207 540.723 165.667 540.063 163.132 539.387C126.13 529.66 94.5269 505.595 75.3093 472.513C73.4316 469.225 68.7325 460.897 69.7329 457.284L70.2465 457.749L70.73 457.544C71.6422 458.854 104.355 483.323 108.387 486.114C112.441 488.919 132.165 501.043 135.688 500.404C131.536 497.307 126.5 495.231 122.102 492.463C111.24 485.624 101.469 476.204 93.5221 466.172C78.4948 447.199 70.6399 425.428 66.5288 401.838C65.3571 395.114 64.0928 386.707 65.0177 379.89C65.276 377.986 65.8828 375.455 67.4338 374.247C69.2711 375.614 70.4747 377.122 71.6291 379.104C74.3659 383.803 76.1347 389.227 78.3888 394.182C84.0612 406.651 90.0027 418.903 97.5837 430.342C99.0807 432.6 100.838 435.883 102.936 437.536C100.723 430.454 94.265 421.18 91.0647 413.786C79.4195 386.514 76.67 356.265 83.2074 327.341C92.9913 284.341 131.148 245.386 167.507 222.426C165.136 227.509 161.672 232.225 158.623 236.929C151.349 248.15 141.693 262.159 137.038 274.509C137.026 274.441 137.537 273.295 137.569 273.218L137.72 273.745C141.145 268.669 144.873 263.804 148.886 259.178C159.457 247.097 172.748 237.148 186.098 228.332C220.86 205.376 262.253 187.056 304.271 184.21Z"
     id="path11" />
  <path
     fill="#FEFDFE"
     d="M750.88 714.91C750.84 720.608 744.082 737.984 742.185 744.611C740.548 750.327 739.422 756.193 738.251 762.019C731.034 797.909 723.107 863.832 735.477 898.744C737.215 903.649 739.832 907.752 742.695 912.05C740.257 914.606 738.656 917.559 736.886 920.591C742.436 913.554 750.631 907.868 759.738 906.808C766.164 906.061 772.407 909.036 777.339 912.936C787.781 921.193 793.846 935.416 795.338 948.361C785.997 952.314 775.397 953.843 765.353 954.667C763.967 944.617 760.273 934.123 753.278 926.559C749.222 922.172 744.541 919.871 738.532 919.778C735.441 919.73 731.429 924.27 729.238 926.328C733.099 924.324 736.651 923.17 740.865 922.245C747.577 924.189 750.604 928.052 754.118 933.741C757.722 940.689 760.041 947.442 761.605 955.112C747.308 956.896 717.237 955.966 703.894 951.079C680.068 914.558 668.108 857.715 658.484 814.947C655.737 802.74 654.146 789.405 650.039 777.625C679.596 760.313 701.44 752.004 726.6 726.713C726.048 728.093 725.509 729.479 725.12 730.916C724.542 733.047 723.802 736.022 724.94 738.063C725.822 738.494 726.084 738.596 727.098 738.382C735.624 736.584 746.335 721.704 750.88 714.91Z"
     id="path12" />
  <path
     fill="#FEFDFE"
     d="M351.332 762.437C366.377 747.311 381.063 731.022 392.808 713.161C414.835 733.069 438.867 748.214 465.355 761.468C456.549 778.163 445.983 793.601 432.34 806.729C421.104 817.541 409.082 826.949 399.579 839.482C404.003 836.497 408.993 830.648 414.003 829.066C413.256 846.507 417.927 866.526 429.906 879.754C434.265 884.555 439.678 888.28 445.72 890.637L446.211 890.369C452.617 886.815 457.728 881.246 465.726 883.362C473.089 885.311 480.255 892.838 483.824 899.38C486.167 903.674 486.995 908.092 488.842 912.472C489.109 915.038 489.39 917.604 489.685 920.167C482.356 922.413 474.517 923.882 466.907 924.761C466.294 917.577 464.823 910.433 460.752 904.344C457.897 900.073 453.777 896.555 448.568 895.749C442.588 894.825 437.876 897.575 433.265 900.955C435.618 900.041 438.033 899.245 440.529 898.821C444.961 898.07 449.252 898.503 452.929 901.277C460.115 906.699 461.696 916.79 462.724 925.112C443.965 926.335 425.62 927.174 407.291 922.036C401.916 916.337 396.462 910.678 391.653 904.483C372.178 879.398 357.188 848.256 347.584 818.083C350.643 815.298 353.597 812.526 356.11 809.223C361.686 801.891 364.595 793.29 363.277 784.052C362.145 776.11 357.787 767.315 351.332 762.437Z"
     id="path13" />
  <path
     fill="#FEFDFE"
     d="M650.571 306.165C631.192 287.97 618.313 261.456 617.493 234.77C615.917 183.517 644.745 132.93 679.019 96.6257C686.081 89.156 693.6 82.1317 701.532 75.5933C715.556 100.439 721.117 159.642 719.444 188.312C718.872 197.955 717.306 207.513 714.771 216.834C708.451 239.622 694.267 259.076 679.21 276.921C676.472 280.167 673.167 285.025 669.749 287.48C669.267 287.827 669.086 287.852 668.587 288.014L668.397 286.872C668.475 286.76 668.558 286.65 668.63 286.534C676.901 273.153 684.208 222.221 680.398 207.512C680.368 207.554 679.713 225.954 679.36 229.543C677.701 246.405 673.588 262.789 669.296 279.136C668.805 272.772 671.088 263.036 671.875 256.458C673.805 240.334 675.551 207.576 671.686 192.09C671.627 201.148 672.436 210.193 672.425 219.254C672.229 237.607 670.593 255.916 667.532 274.013C666.614 252.758 664.697 232.189 660.59 211.276L660.219 211.629L660.302 210.479L660.348 211.082C662.568 238.106 667.061 266.615 663.089 293.62C658.955 297.804 654.898 302.187 650.571 306.165Z"
     id="path14" />
  <path
     fill="#FEFDFE"
     d="M920.826 114.393C921.808 123.904 921.226 133.176 921.592 142.67C918.818 181.733 908.334 219.426 886.671 252.426C881.84 259.787 876.082 266.262 870.888 273.328C865.628 265.945 859.917 259.758 853.377 253.54C860.444 235.117 868.949 210.84 868.234 190.921C867.283 191.408 867.454 194.052 867.375 195.044C866.62 204.466 856.258 244.15 849.91 250.901L848.785 250.235C847.347 247.433 850.065 242.248 850.969 239.27C856.072 222.46 860.241 206.288 861.579 188.705C859.473 196.519 858.194 204.594 856.268 212.465C853.373 224.297 849.257 236.119 844.519 247.332C837.598 242.134 830.626 237.397 823.157 233.017C826.234 224.468 828.28 215.504 831.267 206.898C843.847 170.647 861.094 148.289 893.587 128.095C902.44 123.392 911.446 117.937 920.826 114.393Z"
     id="path15" />
  <path
     fill="#FEFDFE"
     d="M802.695 167.503C813.175 159.334 823.351 150.476 834.446 143.147C847.353 134.619 913.712 98.1375 925.575 99.9206C926.44 100.051 926.736 100.399 927.276 101.099C929.286 103.7 929.568 109.544 929.988 112.803C933.303 138.501 930.279 164.814 923.93 189.826C917.031 217.007 905.401 241.617 889.493 264.677C885.38 270.639 881.185 276.747 876.261 282.074C874.86 279.757 873.426 277.476 872.285 275.016C878.817 267.433 884.969 259.824 890.35 251.368C903.31 231.002 917.649 197.472 920.244 173.367C923.979 163.958 924.592 129.773 923.727 118.922C923.547 116.664 923.454 112.81 921.656 111.279C916.851 111.151 895.235 123.584 890.104 126.711C860.703 144.625 839.087 170.91 827.591 203.432C824.347 212.609 822.244 222.104 819.969 231.554C810.824 227.059 802.923 224.77 793.009 222.755C801.054 220.546 815.965 219.712 822.085 214.206C822.238 213.477 822.325 212.893 822.105 212.161C821.385 209.762 819.777 208.174 817.63 206.97C814.034 204.954 809.59 204.111 805.551 203.508C790.897 201.321 777.813 203.238 763.689 207.209L767.401 204.65C773.77 200.227 777.795 197.556 779.244 189.518C787.066 182.147 794.702 174.702 802.695 167.503Z"
     id="path16" />
  <path
     fill="#FEFDFE"
     d="M645.604 779.507C647.187 780.936 647.711 788.941 648.185 791.489C652.007 811.209 656.241 830.846 660.884 850.389C668.29 880.937 680.027 920.744 696.601 947.441C691.17 947.241 685.791 946.983 680.381 946.433L679.049 943.059C675.32 935.022 670.239 927.473 662.386 922.984C652.042 917.07 642.554 920.091 631.999 922.95C620.865 901.531 628.713 815.319 630.852 787.768L645.604 779.507Z"
     id="path17" />
  <defs
     id="defs18">
    <linearGradient
       id="gradient_0"
       gradientUnits="userSpaceOnUse"
       x1="913.17493"
       y1="419.80499"
       x2="928.94257"
       y2="376.0329">
      <stop
         offset="0"
         stop-color="#3F3939"
         id="stop17" />
      <stop
         offset="1"
         stop-color="#605D5E"
         id="stop18" />
    </linearGradient>
  </defs>
  <path
     fill="url(#gradient_0)"
     d="M934.828 378.994C941.108 377.672 951.036 380.255 956.386 383.762C958.037 384.845 959.344 386.052 960.283 387.802C961.215 388.676 961.619 390.337 961.763 391.569C962.34 396.499 958.477 402.165 955.39 405.782C950.856 411.094 938.894 421.781 931.761 422.254C919.055 423.097 898.571 417.798 888.956 409.08C886.134 406.521 882.948 402.838 882.92 398.81C882.907 396.821 883.452 395.028 884.871 393.602C891.416 387.028 910.342 379.314 919.907 379.614C924.883 378.871 929.809 378.798 934.828 378.994Z"
     id="path18"
     style="fill:#000000;fill-opacity:1" />
  <path
     fill="#FEFDFE"
     d="M934.828 378.994C941.108 377.672 951.036 380.255 956.386 383.762C958.037 384.845 959.344 386.052 960.283 387.802C960.111 387.764 959.939 387.729 959.768 387.688C959.157 387.538 958.646 387.336 958.075 387.082C956.759 387.436 955.636 387.737 954.467 388.477L953.361 388.171C944.48 392.23 913.237 403.329 903.994 404.208C901.747 404.421 898.867 404.672 897.069 403.029C896.425 402.441 896.592 402.262 896.545 401.47C900.052 398.412 911.712 396.956 916.63 395.436C921.325 393.984 925.896 392.308 930.309 390.138C926.995 386.518 923.329 383.145 919.907 379.614C924.883 378.871 929.809 378.798 934.828 378.994Z"
     id="path19" />
  <path
     fill="#7B7979"
     d="M934.828 378.994C941.108 377.672 951.036 380.255 956.386 383.762C958.037 384.845 959.344 386.052 960.283 387.802C960.111 387.764 959.939 387.729 959.768 387.688C959.157 387.538 958.646 387.336 958.075 387.082C956.759 387.436 955.636 387.737 954.467 388.477L953.361 388.171C947.995 381.898 942.563 380.614 934.828 378.994Z"
     id="path20"
     style="fill:#000000;fill-opacity:1" />
  <path
     fill="#FEFDFE"
     d="M632.905 926.123C634.094 926.002 635.303 925.873 636.499 925.886C642.134 925.949 647.484 929.51 651.359 933.355C660.362 942.286 664.491 955.321 664.509 967.796C657.127 969.703 649.653 971.238 642.117 972.397L635.095 973.362C633.844 964.644 631.8 955.908 626.9 948.448C622.981 942.481 618.119 939.013 611.172 937.57C617.448 931.743 624.556 927.968 632.905 926.123Z"
     id="path21" />
  <path
     fill="#FEFDFE"
     d="M237.161 907.152C242.016 906.898 246.226 908.235 249.832 911.546C259.931 920.82 261.786 935.539 262.486 948.419C254.782 949.801 247.03 950.338 239.228 950.787L233.561 951.041C232.445 943.468 231.019 935.747 227.566 928.843C224.415 922.541 220.346 919.38 213.803 917.225C220.847 912.596 228.754 908.459 237.161 907.152Z"
     id="path22" />
  <path
     fill="#fefdfe"
     d="m 843.901,303.562 c 4.247,-0.528 7.687,0.616 11.305,2.878 10.738,6.714 17.607,20.403 20.299,32.401 1.632,7.27 1.7958,15.07981 -1.631,21.665 -4.841,3.101 -10.344,5.798 -15.847,7.475 -0.383,0.032 -0.916,0.09 -1.289,0.061 -2.969,-0.238 -5.114,-4.29 -6.706,-6.505 l 0.491,-0.237 c 4.437,-2.182 7.168,-5.228 8.656,-10.012 2.158,-6.938 0.757,-15.016 -2.848,-21.258 -1.891,-3.276 -4.708,-6.306 -8.51,-7.215 -3.689,-0.883 -6.076,0.375 -9.155,2.236 -0.631,-4.277 -1.059,-8.915 -0.193,-13.188 0.765,-3.773 2.181,-6.234 5.428,-8.301 z"
     id="path23"
     sodipodi:nodetypes="ccccccccsccccc" />
  <path
     fill="#fefdfe"
     d="m 809.952,472.103 c 2.439,-0.136 4.868,-0.087 7.283,0.292 18.125,2.846 29.16925,15.33925 39.41925,29.36025 -3.38,1.285 -6.34625,1.82675 -9.91325,2.21975 -0.495,-0.04 -0.99,-0.084 -1.484,-0.131 -17.344,-1.698 -34.695,-13.7795 -45.579,-26.8845 3.541,-1.859 6.344,-4.0115 10.274,-4.8565 z"
     id="path24"
     sodipodi:nodetypes="ccccccc" />
  <defs
     id="defs25">
    <linearGradient
       id="gradient_1"
       gradientUnits="userSpaceOnUse"
       x1="802.18292"
       y1="428.82657"
       x2="791.83832"
       y2="472.02448">
      <stop
         offset="0"
         stop-color="#767272"
         id="stop24"
         style="stop-color:#ffffff;stop-opacity:1;" />
      <stop
         offset="1"
         stop-color="#8C8786"
         id="stop25" />
    </linearGradient>
  </defs>
  <path
     fill="url(#gradient_1)"
     d="M769.258 420.092C769.582 420.216 769.965 420.24 770.231 420.463C772.235 422.152 774.229 425.91 775.91 428.082C780.013 433.379 784.327 438.66 788.947 443.515C794.409 449.22 800.584 454.197 807.319 458.322C815.641 463.365 824.539 465.81 833.82 468.425C830.619 470.339 828.245 472.322 824.389 471.58C820.624 470.476 816.667 469.68 812.732 469.652C806.936 469.61 802.304 471.218 798.2 475.322C784.145 459.124 776.381 438.586 763.692 421.524L769.258 420.092Z"
     id="path25"
     style="fill:#fefdfe;fill-opacity:1" />
  <path
     fill="#FEFDFE"
     d="M254.505 903.652C259.119 903.736 262.838 905.237 266.238 908.359C276.191 917.5 278.723 931.213 279.434 944.012L272.56 946.111L266.728 947.571C266.435 943.384 265.922 939.215 265.192 935.081C262.937 922.198 257.833 913.235 247.1 905.679C249.598 904.685 251.872 904.112 254.505 903.652Z"
     id="path26" />
  <path
     fill="#FEFDFE"
     d="M642.03 923.757C643.562 923.585 645.103 923.489 646.645 923.47C653.797 923.37 659.945 925.856 665.045 930.868C671.397 937.111 677.514 948.219 677.379 957.301C677.336 960.25 676.434 962.074 674.362 964.12C672.67 965.077 670.785 965.775 669 966.542C667.868 957.957 666.53 949.455 662.208 941.809C658.137 934.608 650.442 926.712 642.243 924.51L641.272 924.26L642.03 923.757Z"
     id="path27" />
  <path
     fill="#ACA9A8"
     d="M837.268 469.462L842.645 470.126C852.079 476.858 858.21 486.813 861.009 497.895C860.061 498.912 859.179 499.82 858.037 500.632L857.214 500.267L856.409 498.115C849.661 486.677 840.835 479.263 828.961 473.67L837.268 469.462Z"
     id="path28"
     style="fill:#ffffff;fill-opacity:1" />
  <path
     fill="#FEFDFE"
     d="M767.676 902.102C768.289 902.041 768.882 901.992 769.498 901.99C776.571 901.967 782.496 905.129 787.408 910.021C794.184 916.768 802.111 929.078 801.96 938.983C801.927 941.137 801.45 943.874 799.834 945.43L799.342 944.381C798.364 937.903 796.291 931.639 793.213 925.856C789.118 918.19 781.42 908.957 773.016 905.86C769.928 904.722 766.466 904.455 763.294 903.48C764.505 902.499 766.184 902.391 767.676 902.102Z"
     id="path29" />
  <path
     fill="#FEFDFE"
     d="M492.489 914.246C492.485 914.103 492.483 913.96 492.477 913.817C492.067 904.496 486.895 894.395 480.006 888.188C476.192 884.75 471.995 883.286 467.437 881.268L467.605 881.122C477.093 883.126 483.102 886.459 488.505 894.711C493.284 902.011 495.486 909.985 494.497 918.685L493.956 919.181C493.009 918.499 492.745 915.495 492.489 914.246Z"
     id="path30" />
  <path
     fill="#FEFDFE"
     d="M841.381 327.319C843.46 327.259 845.187 327.269 846.982 328.442C848.265 329.28 849.247 330.461 849.384 332.05C849.562 334.119 848.456 335.373 847.16 336.769C845.02 336.842 843.328 336.134 841.646 334.83C840.367 333.839 839.54 332.41 839.473 330.773C839.414 329.342 840.502 328.309 841.381 327.319Z"
     id="path31" />
  <path
     fill="#FEFDFE"
     d="M681.011 950.63C686.153 950.358 691.973 950.199 697.08 951.045C699.043 951.37 699.58 951.782 700.717 953.395C695.849 953.674 686.412 955.167 682.148 953.003C681.375 952.611 681.262 951.421 681.011 950.63Z"
     id="path32" />
</svg>
