<svg width="1024" height="1024" xmlns="http://www.w3.org/2000/svg"><path fill="#FEFDFE" d="M0 0h1024v1024H0V0z"/><path fill="#0D0C0C" d="M583.913 332.995a135.497 135.497 0 01-15.307-62.493c.063-18.796 3.841-37.076 9.474-54.932 15.622-49.52 45.148-91.526 81.787-127.85 8.767-8.692 35.574-34.907 47.191-34.488 2.402.087 4.431.934 6.075 2.702 4.371 4.702 6.286 13.414 8.185 19.44 13.363 42.404 15.684 87.779 13.136 131.904 10.56-10.289 27.409-19.732 42.373-20.299 7.501-7.824 14.842-15.852 22.879-23.134 26.01-23.561 56.903-41.572 89.048-55.328 10.866-4.65 22.599-9.796 34.18-12.287 2.061-.443 4.014-.825 5.888.366 5.425 6.907 5.837 31.701 5.765 40.669a230.49 230.49 0 01-39.799 127.401c-5.15 7.468-10.411 14.784-16.895 21.169 6.262 12.456 8.501 26.031 10.405 39.68 1.206 8.647 1.6 18.672 5.82 26.467 12.679 6.947 24.885 8.448 33.341 21.435 4.235.032 8.428.451 12.641.842 7.757 1.311 17.005 3.595 21.846 10.407 1.978 2.782 3.004 6.645 2.341 10.031-.51 2.597-1.722 5.024-2.354 7.601-5.437 22.139-13.775 32.631-33.04 44.672-15.685 9.804-37.584 19.173-55.792 22.37-6.64 1.166-13.316 1.351-20.039 1.461 5.863 6.956 21.799 22.589 20.796 31.894-.477 4.418-5.198 8.326-8.581 10.832-11.997 8.889-29.014 11.079-43.45 8.874-12.41-1.897-25.627-7.011-36.264-13.635-2.544 8.415-6.113 16.601-8.53 24.999.076.174.15.348.228.521 6.801 15.061 36.923 49.82 36.448 63.504-.527.989-.663 1.603-1.903 1.804-2.465.401-5.991-1.778-8.088-2.889.498 1.73 1.088 3.477 1.485 5.231 5.299 12.172 6.401 29.781 1.431 42.188-.715 1.784-1.273 3.042-2.985 4.046-1.241-.102-1.8-.188-2.626-1.195-3.164-3.861-8.227-17.506-11.269-23.252 2.901 24.182-3.314 53.203-18.564 72.583-1.683 2.138-4.539 6.167-7.481 6.309-.223.011-.445-.025-.668-.022-.288.004-.575.028-.863.042-3.815 8.38-6.174 17.867-8.747 26.709-5.551 19.079-10.248 38.214-13.562 57.83-4.934 29.206-9.567 83.638.847 111.492 1.224 3.275 2.834 6.244 4.593 9.257 10.12-5.34 19.948-12.385 31.921-8.864 10.426 3.065 19.459 14.171 24.308 23.464 3.516 6.74 5.163 13.688 4.965 21.286 2.936.079 5.866.117 8.783.486-2.312.053-7.851-.481-9.605.689-.057.236-.107.473-.171.707-.23.852-.534 1.471-.962 2.232 3.545 2.162 17.097-.781 22.234.253-7.778.501-15.828 1.51-23.61 1.37-1.193.841-2.379 1.623-3.439 2.631 12.767-1.454 25.552-1.679 38.317-2.792l-.012-.018-.838.342-.421-.522-.791-.026.246.734c-12.224 1.72-24.573 2.35-36.801 3.966-8.523 1.127-16.841 3.633-25.373 4.8-16.45 2.251-60.232 4.647-72.841-4.243-3.955-.032-16.506-1.029-19.309.935 2.222 2.137 15.79 1.788 19.399 1.87-4.923.151-14.813-.555-19.057.782l-.348.78c2.647 2.182 20.92 1.515 25.656 1.852-4.717.394-22.947-.8-25.803 1.062l-.296 1.271c1.138.827 2.071.889 3.471.914 6.137.111 12.485-.504 18.655-.633a912.963 912.963 0 0137.482.033l.308-.81-.773.907c-12.451.623-24.868.742-37.329.973-6.645.123-13.909-.21-20.429.846-2.523.409-4.243 1.077-6.404 2.442 2.401-.069 5.155-.421 7.5.09-5.425.721-10.763 1.273-15.904 3.255l6.346.286c-2.779.495-5.601.664-8.368 1.181-4.273.797-8.455 2.134-12.71 3.04-7.885 1.679-16.135 2.57-24.175 3.135-15.599 1.097-30.581 0-46.132-.84a1788.913 1788.913 0 00-41.752-1.444l-.002-.022c2.248-.369 4.516-.836 6.793-.943 9.755.263 19.513.426 29.271.492.545.031 1.091.075 1.636.067 1.145-.018 1.502.132 2.285-.701l-.408-.868c-2.951-1.661-4.213-1.594-7.494-.965-1.495-.556-28.66.552-31.542 1.039l-6.266-.113c6.024-1.486 12.812-.715 18.99-.925 4.931-.167 9.906-.801 14.848-1.081 2.296-.131 5.553.215 7.695-.473.969-.311 1.005-.408 1.416-1.35-.973-.933-1.603-.908-2.902-1.183l1.19-.633.042-.916c-.841-.722-1.511-1.133-2.645-1.223-3.245-.258-7.262.636-10.562.956-5.853.54-11.714.991-17.58 1.353 9.344-1.881 20.208-3.281 29.733-2.903-23.973-54.859-38.438-133.554-41.317-193.497-2.671.614-5.251 1.543-7.843 2.424-2.157 4.302-4.957 10.223-9.223 12.707-1.453.094-1.402.118-2.55-.776-1.834-3.877-1.136-7.557-.796-11.705-5.369-1.003-10.803-1.43-16.174-2.586-9.083-1.954-17.627-5.26-26.314-8.467-8.837 21.938-32.711 49.431-53.087 62.168-.004 12.059.807 23.829 4.998 35.245 4.156 11.321 10.692 20.601 21.896 25.78 4.386-3.705 9.104-7.053 14.695-8.639 6.719-1.905 13.123-.919 19.143 2.536 9.303 5.34 15.631 15.232 18.363 25.446 1.129 4.224 2.128 9.756-.38 13.655-2.196 3.415-8.395 5.018-12.152 5.997-11.563 3.013-23.718 4.354-35.643 4.635-7.78.183-15.764.014-23.498-.845-5.686-.632-11.305-1.764-17.001-2.339-7.43-.75-14.936-.996-22.394-1.362-3.642-.178-19.716-.244-21.983-1.569 10.347-1.039 29.331-.533 39.888.327a529.43 529.43 0 00-8.124-7.067c-4.127-.77-8.293-.508-12.451-1.274l.083-.156c3.983.325 7.907.613 11.905.547-7.256-7.338-13.057-16.454-18.622-25.109-7.293-11.343-36.413-64.902-33.015-75.854 1.768-5.702 12.179-10.677 14.707-23.557 1.971-10.045-3.312-20.543-8.802-28.611a357.132 357.132 0 01-44.115 35.425c-8.648 5.85-17.712 11.463-27.04 16.161-5.482 2.761-12.085 4.729-17.03 8.344-1.394 1.019-2.463 2.757-3.345 4.214-10.946 18.084-14.834 52.411-9.605 73.094 3.214-.804 6.726-1.367 10.013-.747 4.487.847 7.929 3.941 11.649 6.373 12.486 8.163 17.5 14.223 17.822 29.647.033 1.616-.06 3.484.994 4.82.492.622 1.14.711 1.908.739 1.526.056 3.581-.605 5.117-.862 3.461-.579 6.445-.376 9.894.069-3.54 2.027-16.661-.223-18.907 2.026l-1.356-.588c5.647 3.195 15.276.309 21.673.603-2.597.402-5.303 1-7.919 1.165-4.402.279-8.793.071-13.122 1.129-4.391 1.073-8.592 3.291-12.924 4.653-9.181 2.889-19.559 4.36-29.136 5.029-12.158.848-24.774.782-36.908-.379-6.059-.579-11.963-2.043-17.992-2.704-6.924-.758-14.117-.824-21.087-.959 6.426-.084 13.671.453 19.915-1.061-12.36-2.074-25.045-.425-37.505-1.692 7.224-1.989 25.339 1.558 31.043-1.111-4.517-2.053-28.777-.788-35.999-1.464l-.829-.082c.646.107 1.033.157 1.682-.005 4.001-1 21.93-.619 27.302-.643 2.478-.01 5.587.346 7.965-.235l-.029-.93c-4.356-2.502-12.527-1.333-17.621-2.25-.198-.036-.396-.077-.594-.115a705.82 705.82 0 0117.522-.077c-.897-3.97-1.493-8.082-1.949-12.125-3.646-32.277-.008-64.676 9.085-95.74 2.171-7.415 4.353-15.679 8.794-22.077 2.935-4.227 6.873-7.779 10.45-11.456 8.463-8.701 14.533-18.684 17.609-30.489 4.518-17.342 3.65-36.314 4.999-54.103 2.824-37.26 9.878-73.177 24.89-107.541 5.54-12.682 11.563-24.51 20.238-35.401-13.456 5.296-43.187 19.621-56.479 18.661-2.101-.152-3.465-.648-4.83-2.255-.303-.942-.465-1.545-.297-2.548.65-3.889 5.467-7.034 8.372-9.261-13.355 4.536-37.429 12.891-51.108 9.899-1.888-.413-3.907-1.188-4.838-3.02a4.894 4.894 0 01-.263-3.688c.543-1.586 19.708-12.676 22.19-13.931-22.651.807-45.007-2.685-64.815-14.353-10.478-6.173-25.757-19.47-28.615-31.96-.408-1.781-.328-3.602.88-5.089 1.59-1.955 4.19-1.702 6.468-1.801-12.958-9.339-25.141-23.652-31.483-38.36-2.156-5-6.992-15.5-4.848-20.891 1.021-.914 1.518-1.316 2.939-1.302 5.71.055 13.186 8.424 17.033 12.188-2.957-4.238-6.173-8.22-8.861-12.655-10.033-16.554-16.112-37.144-17.187-56.43-.341-6.114-.817-19.702 3.728-24.329 1.163-1.183 2.963-1.901 4.623-1.652 2.862.43 5.126 4.453 6.645 6.631a115.916 115.916 0 01-1.2-27.74c2.714-40.24 23.81-76.42 54.001-102.591 6.397-5.545 34.658-29.026 42.13-27.402 1.172.255 1.404.813 1.932 1.749.322 6.674-7.945 16.809-11.356 22.678 33.447-32.598 79.266-55.557 125.325-63.355 8.242-1.396 26.372-3.961 33.397 1.464 1.444 1.115 2.143 2.595 2.213 4.411.475 12.349-36.964 41.398-46.352 50.915 1.87-.099 4.847-.525 6.579.189 1.259.518 2.095 1.317 2.632 2.562 1.392 3.225-.984 8.244-2.331 11.275-4.878 10.975-11.697 21.313-17.844 31.608-9.473 15.867-18.903 32.246-26.317 49.199 2.566-2.286 5.486-4.815 8.487-6.497 1.639-.919 4.031-1.971 5.899-1.111 2.471 1.137 2.595 4.59 2.345 6.887-.979 8.987-10.057 28.541-12.988 38.916-9.418 33.33-8.597 71.637 4.515 103.72 11.863 29.029 33.059 52.094 62.112 64.376 7.755-5.556 15.531-11.07 23.948-15.595 38.055-20.462 78.388-20.377 119.984-14.451 19.428 2.768 37.271 6.146 57.084 5.847a167.45 167.45 0 0044.975-7.138c1.521-.455 4.984-1.04 6.057-2.143-2.046.005-3.735.588-5.66 1.208 3.228-3.814 7.251-5.843 10.887-9.098 5.652-5.059 9.21-13.642 12.613-20.323-2.384 1.414-4.735 2.73-7.24 3.929-3.385 1.621-9.2 4.983-12.954 3.655-.496-.631-.754-.754-.81-1.617-.333-5.11 8.607-13.193 11.639-17.086 1.421-1.825 4.539-5.572 4.258-7.921-.822-.743-2.173-1.752-2.608-2.78-3.518-8.316 3.8-24.328 7.376-31.873-3.767 3.819-9.025 8.44-13.604 11.218-1.64.995-2.843 1.355-4.709.877-.895-1.033-1.127-1.88-1.125-3.222.004-3.545 1.354-7.498 2.517-10.821 5.273-15.071 14.256-25.607 25.411-36.605-4.478 2.331-12.279 7.566-17.372 6.244-.44-.55-.817-.737-.76-1.495.558-7.511 19.409-24.776 25.692-30.187a47.73 47.73 0 01-12.844-9.694c-3.97-4.227-9.484-12.035-9.3-17.995.536-.965.691-1.472 1.91-1.667 3.425-.549 7.658 2.368 10.509 3.959z"/><path fill="#FEFDFE" d="M577.871 503.714c14.518.67 29.685 13.129 39.508 22.932 32.167 32.101 55.3 86.623 55.15 132.288-.079 23.771-8.487 43.284-23.307 61.608-3.874 4.791-8.176 9.21-12.159 13.905-3.404 4.013-6.255 8.484-9.578 12.572-4.021 4.947-8.549 9.412-13.074 13.889 6.849-4.329 13.019-9.913 18.316-16.003a655.097 655.097 0 00-9.274 69.411c-1.826 23.949-5.188 79.633 1.421 100.869.985 3.163 2.35 5.513 4.504 8.02-11.538 4.314-25.334 13.73-32.131 24.129 3.49-3.101 7.155-6.312 12.015-6.755 3.433-.313 6.727 1.226 9.284 3.412 8.379 7.164 10.603 19.118 11.528 29.483-14.285 1.16-30.616 1.464-44.622-1.728-7.226-11.989-11.937-26.469-16.238-39.739a709.19 709.19 0 01-29.139-140.686c-1.142-11.213-2.333-22.434-2.64-33.707 4.603-6.867 11.042-12.376 17.164-17.851-17.257 10.224-28.132 26.22-37.779 43.351 1.389-15.84 5.45-28.534 17.368-39.74 1.925-1.81 6.734-4.978 7.826-7.196l-.393-.636-.052.845c-8.546 4.853-16.746 7.277-26.214 9.635 11.262-12.412 27.678-23.525 32.901-40.255 4.289-13.738-2.267-30.406-8.477-42.514 2.687 10.94 7.098 22.73 6.471 34.111-1.224 22.247-34.581 38.819-35.771 49.421-.141 1.259.06 1.489.79 2.403 4.082 1.73 10.653-1.037 14.612-2.334-6.346 6.554-9.474 13.575-11.816 22.328-34.924-3.439-85.442-34.129-113.321-55.783l-5.518-4.009a216.19 216.19 0 0020.864-43.521c2.034-5.861 8.976-28.252 6.924-32.507l-.219.067c-.066.334-.207 1.013-.238 1.326-.882 9.033-6.434 22.382-10.164 30.82-22.698 51.353-73.687 106.376-121.043 136.531-17.134 10.911-35.08 19.213-53.976 26.559 5.914-.767 11.797-1.768 17.546-3.369-14.782 22.719-14.892 52.71-10.855 78.555-4.104-.35-7.972-.099-11.959.932-14.592 3.774-28.153 14.33-35.651 27.282 4.93-5.446 9.492-9.702 15.983-13.195 1.337.714 2.72 1.433 3.937 2.343 9.204 6.876 11.521 19.219 12.804 29.861-14.035.065-27.494-1.281-41.269-3.94-1.342-6.691-2.791-13.294-3.583-20.085-3.542-30.349.55-61.722 8.819-90.969 2.006-7.095 3.752-15.969 7.798-22.161 2.235-3.419 6.356-5.948 9.277-8.848 10.1-10.03 17.362-21.92 20.854-35.757 4.27-16.918 3.815-35.024 5.178-52.347 3.676-46.708 13.43-94.701 39.299-134.548a163.405 163.405 0 0152.304-50.892c35.83-21.714 74.102-24.62 114.735-19.664 17.545 2.14 34.879 5.3 52.576 5.963 18.572.695 36.382-1.577 54.509-5.43-10.313 7.55-19.396 16.248-26.423 26.963 13.827-13.38 34.73-34.024 54.618-35.645z"/><path fill="#fefdfe" d="M598.813 343.499c-2.044-1.74-4.117-3.477-5.973-5.42-14.628-15.31-20.54-50.487-20.073-70.605.845-36.406 17.364-78.878 36.181-109.675 14.416-23.594 36.026-49.394 56.002-68.436 7.414-7.068 32.728-31.774 42.374-31.146 1.441.093 2.493.618 3.42 1.72 4.588 5.45 8.303 22.442 9.986 29.644 9.061 38.797 13.939 82.93 10.358 122.73-.998 11.102-3.629 21.937-4.89 32.988 4.823-10.902 6.313-22.813 7.985-34.497 14.479-10.494 25.616-15.711 43.03-20.019-8.222 9.068-23.842 18.988-34.224 26.936 6.84-2.613 13.941-5.103 21.012-7.005 16.197-4.357 39.67-7.698 54.931 1.149-17.879 4.578-36.061 7.096-53.662 12.826 29.819.88 39.548 2.771 66.053 17.703-10.518-3.062-21.265-4.747-32.213-3.027l-.034.738-.502-.571c-.724.345-.345.078-.993.972 11.878.449 22.912 1.345 34.126 5.69 33.032 12.8 48.172 45.516 53 78.547 1.179 8.064 1.046 19.996 5.422 26.945 5.995 9.52 26.326 11.445 29.612 18.89l-.642.714c-14.468-3.177-37.767 1.648-52.427 4.691l-8.775-4.768c6.893-2.169 11.665-5.201 17.473-9.437l.186-.218c5.43-7.272 4.268-26.477-1.185-38.956-4.162-9.476-11.576-20.81-21.781-24.482-3.313-1.193-7.281-1.734-10.584-.219-3.246 1.488-5.234 4.663-6.362 7.932-4.449 12.888 2.74 39.782 8.847 51.535 4.871 9.375 10.415 14.327 19.616 19.375-13.291 4.37-32.827 11.19-44.48 18.417l.512 1.144c-.175-.03-.985-.11-1.081-.242.162-.019.326-.026.487-.058 3.657-.733 7.934-3.665 11.428-5.189 4.779-2.084 9.704-3.934 14.575-5.794 20.88-7.97 45.01-10.263 67.24-10.47 3.407.435 6.822.703 10.244.98-11.703 2.249-33.785 6.786-40.823 17.264-1.738 2.587-2.303 5.613-1.55 8.642 1.683 6.77 8.701 11.875 14.479 15.151 9.343 5.3 29.665 11.736 40.156 8.521 8.481-2.598 15.676-11.916 22.427-17.33-8.327 23.071-27.089 34.928-48.393 44.93-27.6 12.958-57.847 19.18-87.396 8.503-21.898-7.913-34.705-24.86-49.25-42.004 7.419-1.21 14.087-1.693 21.574-.581-10.195-5.432-22.958-3.289-33.57.002-8.452 2.62-16.231 6.898-22.467 13.217 6.939-3.339 14.089-7.256 21.534-9.332.14.149.283.297.422.449 7.286 7.982 12.406 19.217 17.877 28.487 11.589 19.639 24.988 37.85 45.745 48.521 6.18 3.177 12.807 5.603 19.8 6.009 5.462.316 12.739-.451 16.989-4.169 1.651-1.445 2.601-3.365 2.654-5.564.197-8.255-9.655-19.093-15.187-24.372-.397-.378.04.043-.625-.592.091-.922.028-.618.407-.825l.346-.139.295.021c5.981 2.32 17.698 19.707 20.366 25.689.873 1.958 1.406 3.941 1.834 6.035-6.024 8.911-15.796 13.19-26.081 15.159-29.608 5.667-55.158-11.875-80.883-23.245-9.712-4.293-20.308-7.741-30.617-10.255 8.951 6.133 20.718 9.674 30.591 14.273 6.427 2.994 12.601 6.872 19.152 9.506-7.174 18.937-14.981 36.733-17.916 56.942 4.227-8.78 6.341-18.729 10.17-27.777 1.42 4.953 5.164 10.152 7.974 14.498 8.543 13.218 22.247 30.105 27.092 44.767-11.457-2.072-14.862-13.833-22.425-20.69 1.617 4.631 5.588 9.092 8.067 13.367 1.825 3.148 2.933 6.98 4.115 10.409 4.998 14.496 7.083 28.92 3.227 43.896-6.546-15.637-15.066-31.723-25.983-44.778 4.868 8.619 9.09 15.295 9.191 25.484.261 26.169-4.792 55.813-23.795 75.106 5.061-19.22 6.191-46.408 4.156-66.124-1.166 10.094-1.597 20.252-3.056 30.319-2.816 19.433-10.036 41.67-22.295 57.275-3.984 5.071-8.701 9.377-13.562 13.58 1.93-4.947 3.045-10.201 4.792-15.217 4.941-14.188 9.303-22.237 10.004-37.836-1.195 3.89-2.047 7.875-3.302 11.757-3.133 9.692-7.548 19.614-13.865 27.674-19.903 25.398-65.667 46.936-93.897 61.521 2.288-10.324 2.471-37.018 7.95-44.421 2.235-3.02 5.426-5.584 7.986-8.356 3.769-4.082 7.312-8.635 10.538-13.145 18.627-26.046 22.204-52.853 17.118-83.855a195.82 195.82 0 00-44.072-95.257c-7.399-8.867-15.443-17.402-24.875-24.131-12.801-9.131-22.715-13.232-38.401-10.634 8.9-13.305 17.62-27.597 19.294-43.863-3.909 7.636-3.937 10.865-11.621 15.792-4.667 2.172-9.321 4.19-14.128 6.04 5.613-7.567 11.221-14.107 15.577-22.566 5.752.374 11.453 1.408 17.223 1.758 9.252.562 18.538.036 27.77-.615-4.066 2.047-8.31 4.511-11.749 7.51-1.724 1.505-2.911 2.637-3.062 4.99.281.46.468.838.911 1.196 4.527 3.646 30.923.963 37.496.276-3.386 2.273-12.781 7.604-13.528 11.641-.147.796.266.977.719 1.567 5.754 2.408 14.375.47 20.585.487 4.729.012 9.499.29 14.213.659 15.547 1.215 29.932 5.277 45.109 8.42 6.52 1.35 13.178 2.196 19.766 3.155-5.925-2.865-13.025-4.138-19.301-6.167-6.593-2.132-13.117-4.708-19.802-6.517-18.379-4.972-37.342-5.479-56.166-3.29 5.096-3.031 9.825-6.375 14.499-10.016 4.549-2.197 9.556-3.231 14.437-4.423-18.348-.179-36.636 2.829-55.026 1.785 8.24-9.112 20.957-15.201 33.025-16.857-7.965-.722-16.191.519-24.131 1.282-5.617-.37-11.685.285-17.352.323-8.641.02-17.273-.551-25.837-1.708 6.395-11.859 18.325-18.919 29.657-25.321-12.495 3.598-25.267 10.897-32.653 21.85a70.926 70.926 0 011.19-8.155c3.656-17.486 15.03-30.738 29.672-40.369-11.311 4.317-32.06 20.106-41.618 28.607 3.163-18.721 16.178-33.992 29.655-46.674 7.799-7.339 16.748-13.963 26.958-17.487.749-.258 2.682-1.229 3.423-1.208l-1.136.008-.185-.709c-15.219 3.273-35.744 16.871-50.446 24.077 13.012-15.974 29.22-28.363 44.567-41.921 15.607-13.787 30.33-28.129 44.824-43.07 23.052-23.762 46.766-47.905 56.319-80.661 11.227-38.494 4.686-115.348-14.599-150.487-2.298 1.685-4.531 3.502-6.69 5.36-40.638 34.979-79.312 93.42-83.284 148.087-2.455 33.794 11.488 61.364 33.098 86.243-7.971 7.898-15.924 15.868-24.286 23.354-7.792 6.975-15.917 13.488-23.476 20.733l-.722-.257c-11.166-4.017-17.192-12.058-22.049-22.509 8.139 3.508 15.451 8.346 23.899 11.273z"/><path fill="#0D0C0C" d="M749.955 314.676c5.172-.54 10.748.512 15.447 2.74 10.514 4.982 18.479 16.475 22.131 27.232 5.121 15.087 1.196 31.302-5.667 45.198 1.983-.001 3.965.142 5.945.252-6.465 3.303-31.368 3.903-39.692 3.76-10.346-.692-19.155-2.51-28.138-7.856 4.169 1.274 8.315 2.612 12.596 3.463-8.851-7.855-16.178-17.495-17.9-29.508a39.293 39.293 0 017.377-29.292c6.823-9.091 16.754-14.45 27.901-15.989z"/><path fill="#fefdfe" d="M750.16 322.117c5.689-.586 10.6.292 15.675 3.029 9.874 5.325 17.694 16.416 20.685 27.04 1.722 11.603-1.873 27.947-7.629 38.187-7.499.633-14.26 1.096-21.786 1.201-6.288.025-16.836-.593-22.294-4.315-7.366-5.024-13.845-14.091-15.516-22.797-1.699-8.849.921-18.284 5.915-25.652 6.009-8.864 14.416-14.74 24.95-16.693z"/><path fill="#0D0C0C" d="M741.681 341.074c3.906-.253 6.867.143 10.369 1.989 5.126 2.702 8.675 7.701 10.208 13.215 1.731 6.231 1.065 13.908-2.367 19.473-2.543 4.124-5.683 5.979-10.257 7.187-3.027.336-5.756.243-8.603-.958-5.003-2.11-8.72-6.532-10.653-11.534-2.4-6.21-2.263-14.194.614-20.248 2.304-4.848 5.816-7.316 10.689-9.124z"/><path fill="#FEFDFE" d="M737.509 346.56c.99-.124 1.973-.215 2.973-.186a8.179 8.179 0 016.007 2.938c.919 1.091 1.411 2.413 1.239 3.858-.286 2.398-1.793 3.654-3.595 5.019-1.276.276-2.499.465-3.811.415-1.896-.071-3.695-1.1-4.878-2.57-1.098-1.365-1.474-2.925-1.215-4.646.366-2.433 1.43-3.379 3.28-4.828z"/><path fill="#0D0C0C" d="M739.356 264.059c.948-.099 1.915-.157 2.86.009 3.405.598 5.561 4.736 7.295 7.347-2.696-.092-5.534-.204-8.197.277-15.793 2.852-30.694 23.303-39.231 35.849l-5.394 8.207c1.772-4.931 3.504-9.841 5.782-14.569 7.798-16.181 19.463-30.975 36.885-37.12zM833.129 259.348c1.658.351 3.283.837 4.861 1.454 10.37 3.969 20.533 15.266 24.91 25.214l-.256.466-1.494-1.474c-4.617-5.46-9.666-10.939-15.935-14.521-4.002-2.287-10.623-4.173-15.26-2.82-.956.279-.447.26-1.41.089-.128-.445-.239-.72-.209-1.217.161-2.648 2.936-5.545 4.793-7.191z"/><path fill="#FEFDFE" d="M304.271 184.21c3.5-.301 8.7-.655 11.68 1.406 2.214 6.866-43.627 45.309-50.83 52.697a329.573 329.573 0 00-24.642 28.756c-2.329 3.092-6.473 7.66-7.304 11.354l.777-1.162.088.223c10.404-12.977 21.61-25.531 36.389-33.561 2.099-1.14 4.563-2.769 6.92-3.197 1.401-.255 1.905-.034 3.064.724.457 3.061-8.214 16.795-10.379 20.426-5.474 9.184-11.758 17.868-17.148 27.092-13.358 22.859-24.828 48.371-33.005 73.582 9.031-12.996 9.599-22.093 24.556-31.839 1.75-1.14 3.624-2.583 5.777-2.139.528 1.617-.204 3.456-.713 5.058-1.693 5.328-4.461 10.434-6.67 15.57-2.827 6.575-5.154 13.539-7.202 20.398-11.562 38.712-8.913 82.368 10.645 118.177 11.909 21.804 33.653 45.876 58.01 53.053-9.56 8.334-17.784 17.783-26.137 27.29-4.79 1.236-9.444 3.326-14.063 5.09-15.196 5.805-31.745 13.272-48.045 14.558 10.02-11.678 24.244-19.606 36.842-28.092-.878-.595-6.85 2.59-7.973 3.135-23.68 11.477-47.302 19.798-74.011 19.178 9.273-6.779 19.784-13.697 30.591-17.726 7.097-2.646 14.493-4.414 21.495-7.335l.828-.35c-6.193 1.083-12.29 2.634-18.511 3.605-11.696 1.825-24.363 1.897-36.122.52-25.072-2.934-50.132-14.089-66.049-34.14-1.531-2.419-4.003-5.725-4.03-8.623 1.756-1.425 4.873.445 6.557 1.411 19.702 11.295 42.506 20.115 65.232 22.302l-.138-.285a608.234 608.234 0 01-7.618-1.979 143.865 143.865 0 01-87.823-66.874c-1.877-3.288-6.576-11.616-5.576-15.229l.513.465.484-.205c.912 1.31 33.625 25.779 37.657 28.57 4.054 2.805 23.778 14.929 27.301 14.29-4.152-3.097-9.188-5.173-13.586-7.941-10.862-6.839-20.633-16.259-28.58-26.291-15.027-18.973-22.882-40.744-26.993-64.334-1.172-6.724-2.436-15.131-1.511-21.948.258-1.904.865-4.435 2.416-5.643 1.837 1.367 3.04 2.875 4.195 4.857 2.737 4.699 4.506 10.123 6.76 15.078 5.672 12.469 11.614 24.721 19.195 36.16 1.497 2.258 3.254 5.541 5.352 7.194-2.213-7.082-8.671-16.356-11.871-23.75a140.983 140.983 0 01-7.858-86.445c9.784-43 47.941-81.955 84.3-104.915-2.371 5.083-5.835 9.799-8.884 14.503-7.274 11.221-16.93 25.23-21.585 37.58-.012-.068.499-1.214.531-1.291l.151.527a151.796 151.796 0 0111.166-14.567c10.571-12.081 23.862-22.03 37.212-30.846 34.762-22.956 76.155-41.276 118.173-44.122zM750.88 714.91c-.04 5.698-6.798 23.074-8.695 29.701-1.637 5.716-2.763 11.582-3.934 17.408-7.217 35.89-15.144 101.813-2.774 136.725 1.738 4.905 4.355 9.008 7.218 13.306-2.438 2.556-4.039 5.509-5.809 8.541 5.55-7.037 13.745-12.723 22.852-13.783 6.426-.747 12.669 2.228 17.601 6.128 10.442 8.257 16.507 22.48 17.999 35.425-9.341 3.953-19.941 5.482-29.985 6.306-1.386-10.05-5.08-20.544-12.075-28.108-4.056-4.387-8.737-6.688-14.746-6.781-3.091-.048-7.103 4.492-9.294 6.55 3.861-2.004 7.413-3.158 11.627-4.083 6.712 1.944 9.739 5.807 13.253 11.496 3.604 6.948 5.923 13.701 7.487 21.371-14.297 1.784-44.368.854-57.711-4.033-23.826-36.521-35.786-93.364-45.41-136.132-2.747-12.207-4.338-25.542-8.445-37.322 29.557-17.312 51.401-25.621 76.561-50.912-.552 1.38-1.091 2.766-1.48 4.203-.578 2.131-1.318 5.106-.18 7.147.882.431 1.144.533 2.158.319 8.526-1.798 19.237-16.678 23.782-23.472zM351.332 762.437c15.045-15.126 29.731-31.415 41.476-49.276 22.027 19.908 46.059 35.053 72.547 48.307-8.806 16.695-19.372 32.133-33.015 45.261-11.236 10.812-23.258 20.22-32.761 32.753 4.424-2.985 9.414-8.834 14.424-10.416-.747 17.441 3.924 37.46 15.903 50.688a41.953 41.953 0 0015.814 10.883l.491-.268c6.406-3.554 11.517-9.123 19.515-7.007 7.363 1.949 14.529 9.476 18.098 16.018 2.343 4.294 3.171 8.712 5.018 13.092.267 2.566.548 5.132.843 7.695-7.329 2.246-15.168 3.715-22.778 4.594-.613-7.184-2.084-14.328-6.155-20.417-2.855-4.271-6.975-7.789-12.184-8.595-5.98-.924-10.692 1.826-15.303 5.206 2.353-.914 4.768-1.71 7.264-2.134 4.432-.751 8.723-.318 12.4 2.456 7.186 5.422 8.767 15.513 9.795 23.835-18.759 1.223-37.104 2.062-55.433-3.076-5.375-5.699-10.829-11.358-15.638-17.553-19.475-25.085-34.465-56.227-44.069-86.4 3.059-2.785 6.013-5.557 8.526-8.86 5.576-7.332 8.485-15.933 7.167-25.171-1.132-7.942-5.49-16.737-11.945-21.615zM650.571 306.165c-19.379-18.195-32.258-44.709-33.078-71.395-1.576-51.253 27.252-101.84 61.526-138.144a248.502 248.502 0 0122.513-21.033c14.024 24.846 19.585 84.049 17.912 112.719a140.35 140.35 0 01-4.673 28.522c-6.32 22.788-20.504 42.242-35.561 60.087-2.738 3.246-6.043 8.104-9.461 10.559-.482.347-.663.372-1.162.534l-.19-1.142c.078-.112.161-.222.233-.338 8.271-13.381 15.578-64.313 11.768-79.022-.03.042-.685 18.442-1.038 22.031-1.659 16.862-5.772 33.246-10.064 49.593-.491-6.364 1.792-16.1 2.579-22.678 1.93-16.124 3.676-48.882-.189-64.368-.059 9.058.75 18.103.739 27.164a350.8 350.8 0 01-4.893 54.759c-.918-21.255-2.835-41.824-6.942-62.737l-.371.353.083-1.15.046.603c2.22 27.024 6.713 55.533 2.741 82.538-4.134 4.184-8.191 8.567-12.518 12.545zM920.826 114.393c.982 9.511.4 18.783.766 28.277-2.774 39.063-13.258 76.756-34.921 109.756-4.831 7.361-10.589 13.836-15.783 20.902-5.26-7.383-10.971-13.57-17.511-19.788 7.067-18.423 15.572-42.7 14.857-62.619-.951.487-.78 3.131-.859 4.123-.755 9.422-11.117 49.106-17.465 55.857l-1.125-.666c-1.438-2.802 1.28-7.987 2.184-10.965 5.103-16.81 9.272-32.982 10.61-50.565-2.106 7.814-3.385 15.889-5.311 23.76-2.895 11.832-7.011 23.654-11.749 34.867-6.921-5.198-13.893-9.935-21.362-14.315 3.077-8.549 5.123-17.513 8.11-26.119 12.58-36.251 29.827-58.609 62.32-78.803 8.853-4.703 17.859-10.158 27.239-13.702z"/><path fill="#FEFDFE" d="M802.695 167.503c10.48-8.169 20.656-17.027 31.751-24.356 12.907-8.528 79.266-45.01 91.129-43.226.865.13 1.161.478 1.701 1.178 2.01 2.601 2.292 8.445 2.712 11.704 3.315 25.698.291 52.011-6.058 77.023-6.899 27.181-18.529 51.791-34.437 74.851-4.113 5.962-8.308 12.07-13.232 17.397-1.401-2.317-2.835-4.598-3.976-7.058 6.532-7.583 12.684-15.192 18.065-23.648 12.96-20.366 27.299-53.896 29.894-78.001 3.735-9.409 4.348-43.594 3.483-54.445-.18-2.258-.273-6.112-2.071-7.643-4.805-.128-26.421 12.305-31.552 15.432-29.401 17.914-51.017 44.199-62.513 76.721-3.244 9.177-5.347 18.672-7.622 28.122-9.145-4.495-17.046-6.784-26.96-8.799 8.045-2.209 22.956-3.043 29.076-8.549.153-.729.24-1.313.02-2.045-.72-2.399-2.328-3.987-4.475-5.191-3.596-2.016-8.04-2.859-12.079-3.462-14.654-2.187-27.738-.27-41.862 3.701l3.712-2.559c6.369-4.423 10.394-7.094 11.843-15.132 7.822-7.371 15.458-14.816 23.451-22.015zM645.604 779.507c1.583 1.429 2.107 9.434 2.581 11.982a1441.057 1441.057 0 0012.699 58.9c7.406 30.548 19.143 70.355 35.717 97.052-5.431-.2-10.81-.458-16.22-1.008l-1.332-3.374c-3.729-8.037-8.81-15.586-16.663-20.075-10.344-5.914-19.832-2.893-30.387-.034-11.134-21.419-3.286-107.631-1.147-135.182l14.752-8.261z"/><path d="M934.828 378.994c6.28-1.322 16.208 1.261 21.558 4.768 1.651 1.083 2.958 2.29 3.897 4.04.932.874 1.336 2.535 1.48 3.767.577 4.93-3.286 10.596-6.373 14.213-4.534 5.312-16.496 15.999-23.629 16.472-12.706.843-33.19-4.456-42.805-13.174-2.822-2.559-6.008-6.242-6.036-10.27-.013-1.989.532-3.782 1.951-5.208 6.545-6.574 25.471-14.288 35.036-13.988 4.976-.743 9.902-.816 14.921-.62z"/><path fill="#FEFDFE" d="M934.828 378.994c6.28-1.322 16.208 1.261 21.558 4.768 1.651 1.083 2.958 2.29 3.897 4.04-.172-.038-.344-.073-.515-.114-.611-.15-1.122-.352-1.693-.606-1.316.354-2.439.655-3.608 1.395l-1.106-.306c-8.881 4.059-40.124 15.158-49.367 16.037-2.247.213-5.127.464-6.925-1.179-.644-.588-.477-.767-.524-1.559 3.507-3.058 15.167-4.514 20.085-6.034 4.695-1.452 9.266-3.128 13.679-5.298-3.314-3.62-6.98-6.993-10.402-10.524 4.976-.743 9.902-.816 14.921-.62z"/><path d="M934.828 378.994c6.28-1.322 16.208 1.261 21.558 4.768 1.651 1.083 2.958 2.29 3.897 4.04-.172-.038-.344-.073-.515-.114-.611-.15-1.122-.352-1.693-.606-1.316.354-2.439.655-3.608 1.395l-1.106-.306c-5.366-6.273-10.798-7.557-18.533-9.177z"/><path fill="#FEFDFE" d="M632.905 926.123c1.189-.121 2.398-.25 3.594-.237 5.635.063 10.985 3.624 14.86 7.469 9.003 8.931 13.132 21.966 13.15 34.441a228.234 228.234 0 01-22.392 4.601l-7.022.965c-1.251-8.718-3.295-17.454-8.195-24.914-3.919-5.967-8.781-9.435-15.728-10.878 6.276-5.827 13.384-9.602 21.733-11.447zM237.161 907.152c4.855-.254 9.065 1.083 12.671 4.394 10.099 9.274 11.954 23.993 12.654 36.873-7.704 1.382-15.456 1.919-23.258 2.368l-5.667.254c-1.116-7.573-2.542-15.294-5.995-22.198-3.151-6.302-7.22-9.463-13.763-11.618 7.044-4.629 14.951-8.766 23.358-10.073z"/><path fill="#fefdfe" d="M843.901 303.562c4.247-.528 7.687.616 11.305 2.878 10.738 6.714 17.607 20.403 20.299 32.401 1.632 7.27 1.796 15.08-1.631 21.665-4.841 3.101-10.344 5.798-15.847 7.475-.383.032-.916.09-1.289.061-2.969-.238-5.114-4.29-6.706-6.505l.491-.237c4.437-2.182 7.168-5.228 8.656-10.012 2.158-6.938.757-15.016-2.848-21.258-1.891-3.276-4.708-6.306-8.51-7.215-3.689-.883-6.076.375-9.155 2.236-.631-4.277-1.059-8.915-.193-13.188.765-3.773 2.181-6.234 5.428-8.301zM809.952 472.103c2.439-.136 4.868-.087 7.283.292 18.125 2.846 29.17 15.34 39.42 29.36-3.38 1.285-6.347 1.827-9.914 2.22-.495-.04-.99-.084-1.484-.131-17.344-1.698-34.695-13.78-45.579-26.884 3.541-1.86 6.344-4.012 10.274-4.857z"/><path fill="#fefdfe" d="M769.258 420.092c.324.124.707.148.973.371 2.004 1.689 3.998 5.447 5.679 7.619 4.103 5.297 8.417 10.578 13.037 15.433a91.85 91.85 0 0018.372 14.807c8.322 5.043 17.22 7.488 26.501 10.103-3.201 1.914-5.575 3.897-9.431 3.155-3.765-1.104-7.722-1.9-11.657-1.928-5.796-.042-10.428 1.566-14.532 5.67-14.055-16.198-21.819-36.736-34.508-53.798l5.566-1.432z"/><path fill="#FEFDFE" d="M254.505 903.652c4.614.084 8.333 1.585 11.733 4.707 9.953 9.141 12.485 22.854 13.196 35.653l-6.874 2.099-5.832 1.46a119.997 119.997 0 00-1.536-12.49c-2.255-12.883-7.359-21.846-18.092-29.402 2.498-.994 4.772-1.567 7.405-2.027zM642.03 923.757a46.51 46.51 0 014.615-.287c7.152-.1 13.3 2.386 18.4 7.398 6.352 6.243 12.469 17.351 12.334 26.433-.043 2.949-.945 4.773-3.017 6.819-1.692.957-3.577 1.655-5.362 2.422-1.132-8.585-2.47-17.087-6.792-24.733-4.071-7.201-11.766-15.097-19.965-17.299l-.971-.25.758-.503z"/><path fill="#fff" d="M837.268 469.462l5.377.664c9.434 6.732 15.565 16.687 18.364 27.769-.948 1.017-1.83 1.925-2.972 2.737l-.823-.365-.805-2.152c-6.748-11.438-15.574-18.852-27.448-24.445l8.307-4.208z"/><path fill="#FEFDFE" d="M767.676 902.102c.613-.061 1.206-.11 1.822-.112 7.073-.023 12.998 3.139 17.91 8.031 6.776 6.747 14.703 19.057 14.552 28.962-.033 2.154-.51 4.891-2.126 6.447l-.492-1.049a57.79 57.79 0 00-6.129-18.525c-4.095-7.666-11.793-16.899-20.197-19.996-3.088-1.138-6.55-1.405-9.722-2.38 1.211-.981 2.89-1.089 4.382-1.378zM492.489 914.246c-.004-.143-.006-.286-.012-.429-.41-9.321-5.582-19.422-12.471-25.629-3.814-3.438-8.011-4.902-12.569-6.92l.168-.146c9.488 2.004 15.497 5.337 20.9 13.589 4.779 7.3 6.981 15.274 5.992 23.974l-.541.496c-.947-.682-1.211-3.686-1.467-4.935zM841.381 327.319c2.079-.06 3.806-.05 5.601 1.123 1.283.838 2.265 2.019 2.402 3.608.178 2.069-.928 3.323-2.224 4.719-2.14.073-3.832-.635-5.514-1.939-1.279-.991-2.106-2.42-2.173-4.057-.059-1.431 1.029-2.464 1.908-3.454zM681.011 950.63c5.142-.272 10.962-.431 16.069.415 1.963.325 2.5.737 3.637 2.35-4.868.279-14.305 1.772-18.569-.392-.773-.392-.886-1.582-1.137-2.373z"/></svg>