<svg width="452.597" height="517.4" xmlns="http://www.w3.org/2000/svg"><g transform="translate(-31.857 8.71)"><path d="M295.88 61.85c-12.31-.37-24.68 4.56-33.37 13.28-8.69 8.72-13.56 21.12-13.15 33.43M291.57 61.3c5.21-3.83 11.9-5.6 18.33-4.85 6.43.75 12.53 4 16.73 8.92M320.13 63.39c8.03 2.02 15.5 6.22 21.38 12.04" fill="none" stroke="#000" stroke-width="2" stroke-linecap="round" stroke-linejoin="round" stroke-miterlimit="10"/><path d="M295.02 58.5c8.37-15.4 17.41-31.52 32.41-40.59 1.66-1 4.06-1.79 5.29-.3.93 1.13.48 2.8.01 4.18-4.5 13.25-6.94 27.19-7.21 41.17M339.49 73.36c3.28-6.91 6.56-13.83 9.84-20.74.19-.4.38-.84.26-1.26-.25-.88-1.49-.9-2.38-.69-8.18 1.92-15.67 6.66-20.92 13.22M339.85 77.12c17.82-8.29 35.471-11.59 55.031-9.66-18.12.96-33.471 7.59-47.851 19.5.98 3.22 1.56 5.81 1.99 10.27 14.33-3.18 27.161-3.52 41.381.13-14.31.14-27.011.67-40.051 6.69.4 3.75.48 7.54.26 11.89 8.42 3.04 14.871 5.38 23.821 5.86-8.72 2.01-15.551 1.09-24.081-1.61M394.95 67.82c-4.07 9.04-5.57 19.21-4.29 29.04M374.72 121.56c1.79-9.61 7.55-18.42 15.64-23.91M271.51 109.68c-9.63-3.96-21.39-2.16-29.4 4.49-8.02 6.65-11.95 17.87-9.36 29.13a93.125 93.125 0 0133.17.14c6.43 1.2 12.83 3.09 19.36 2.81a29.57 29.57 0 0015.32-5.09c2.51-1.71 4.85-3.86 7.79-4.61 3.54-.91 7.49.34 10.83-1.16 3.1-1.39 4.74-4.72 6.5-7.63 1.75-2.91 4.39-5.9 7.79-5.78" fill="none" stroke="#000" stroke-width="2" stroke-linecap="round" stroke-linejoin="round" stroke-miterlimit="10"/><path d="M276.13 145.7c2.37 4.13 1.334 1.677 3.923 4.819 1.44 1.58 3.165 1.988 5.096.786 1.814-1.191 1.846-.969 3.951-5.375M233.22 143.14c1.35 4.36 1.57 3.613 4.67 6.973 3.187.024 2.641-.196 4.27-1.395 1.755-2.608 2.18-2.115 3-6.228M289.26 148.57c4.889 3.771 6.573 1.453 7.255-.202 1.07-2.59 1.835-3.038 1.965-5.848M299.81 142.1c.78.31 1.39.94 1.94 1.57.56.63 1.1 1.3 1.82 1.73.72.43 1.68.59 2.39.15.68-.41.98-1.23 1.16-2.01.45-1.91.47-3.88.49-5.84M309.1 136.75c.96.87 1.38 2.16 2.02 3.28.64 1.12 1.77 2.18 3.05 1.98 1.1-.17 1.86-1.23 2.19-2.29.33-1.06.38-2.21.75-3.26M268.07 144.59c.58 2 1.43 3.93 2.51 5.71 3.397 2.537 5.203-.072 6.842-2.175M257.97 142.71c.84 2.19 1.068 3.322 2.428 5.242 3.938 5.688 6.95-1.087 7.472-2.382M256.9 142.9c-.72 2.12-1.078 3.839-2.298 5.72-1.065 1.827-3.22 1.886-4.782.77a9.857 9.857 0 01-3.39-7.02" fill="none" stroke="#000" stroke-width="1.1" stroke-linecap="round" stroke-linejoin="round" stroke-miterlimit="10"/><path d="M326.56 126.46c-2.97 14.28-7.95 22.81-15.55 33.47-7.6 10.66-19.14 19.44-32.21 20.02-4.03.18-8.44-.61-11.11-3.63-2.95-3.33-2.9-8.3-2.44-12.72.46-4.43 1.12-9.18-1.01-13.09" fill="none" stroke="#000" stroke-width="2" stroke-linecap="round" stroke-linejoin="round" stroke-miterlimit="10"/><path d="M304.54 166.73c-2.578-3.528-7.22-4.026-8.917.052.25 3.29.607 3.198.857 6.498M303.5 165.14c.18-1.27-.25-2.54-.38-3.82-.13-1.28.19-2.78 1.33-3.37.62-.32 1.36-.3 2.05-.23 1.54.16 3.05.51 4.5 1.06M309.73 157.89c.03-.97-.23-1.92-.33-2.88s-.05-2.01.54-2.78c.61-.8 1.69-1.13 2.7-1.08 1.01.04 1.97.41 2.91.76M319.87 144.26c-.84-.32-1.7-.65-2.6-.65-.9-.01-1.86.37-2.29 1.16-.42.77-.26 1.72-.01 2.56.38 1.27.93 2.49 1.64 3.6M296.14 173.07c-.97-.54-1.74-1.36-2.62-2.04-.88-.68-1.95-1.23-3.05-1.09-.4.05-.8.2-1.13.43-1.02.71-1.37 2.07-1.4 3.31-.03 1.25.18 2.51-.4 4.11-1.46-1.5-2.93-2.99-4.39-4.49-.35-.36-.75-.75-1.26-.79-.69-.07-1.26.51-1.64 1.08a8.746 8.746 0 00-1.44 5.75M278.64 177.25c-.75-1.47-1.76-2.82-2.95-3.96-.34-.32-.71-.64-1.16-.75-.7-.17-1.43.19-2 .63-1.22.94-2.11 2.3-2.47 3.8M271.69 173.78c2.256-3.78-1.724-10.203-6.42-7.12" fill="none" stroke="#000" stroke-width="1.1" stroke-linecap="round" stroke-linejoin="round" stroke-miterlimit="10"/><path d="M254.273 149.922c3.48 5.46 3.757 11.598 4.617 18.018.86 6.42 2.42 13.26 7.24 17.58 2.98 2.67 6.94 4.08 10.92 4.5 7.8.83 15.6-1.9 22.46-5.7 6.87-3.8 13.08-8.68 19.83-12.68 5.76-3.42 11.95-6.22 17.06-10.55 5.11-4.33 12.463-11.924 11.913-18.604M266.52 71.62c-7.07-7.36-15.08-11.97-25-14.35 7.85 5.97 13.08 13.12 17.45 21.97M254.22 86.65c-7.18-2.05-12.222-2.38-19.522-.73 6.69 1.76 10.352 4.53 16.232 7.97M241 57.39a66.597 66.597 0 01-6.74 28.26M248.54 105.03c-3.73.68-5.521 1.28-9.051 2.67 3.23.69 4.601 1.82 7.831 2.52M191.13 298.08c-.12.26-.25.53-.36.78-2.75 6.18-4.85 12.61-6.32 19.2-.36 1.6-1.7 2.21-1.93 1.8-5.295-6.452-9.965-12.413-9.79-24.11 7.988-.794 12.45.55 18.4 2.33z" fill="none" stroke="#000" stroke-width="2" stroke-linecap="round" stroke-linejoin="round" stroke-miterlimit="10"/><path d="M276.84 418.91c-.68-2.71-1.37-5.48-1.11-8.26.26-2.78 1.64-5.62 4.14-6.87 3.31-1.65 7.35-.05 10.24 2.25 5.43 4.31 8.76 11.15 8.81 18.08-6.6-3.25-14.05-4.77-22.08-5.2z" fill="#fff" stroke="#000" stroke-width="2" stroke-linecap="round" stroke-linejoin="round" stroke-miterlimit="10"/><path d="M239.27 107.69c.9-7.4-.9-15.09-4.97-21.33M294.75 114.22c-1.91-7.83 1.78-16.69 8.69-20.84 6.91-4.15 16.47-3.25 22.48 2.11" fill="none" stroke="#000" stroke-width="2" stroke-linecap="round" stroke-linejoin="round" stroke-miterlimit="10"/><ellipse cx="312.19" cy="106.11" rx="9.55" ry="12.23" fill="none" stroke="#000" stroke-width="1.5" stroke-linecap="round" stroke-linejoin="round" stroke-miterlimit="10"/><path d="M311.78 101.15c-2.976.032-3.739 2.955-3.773 4.332-.04 1.65.502 3.507 3.843 4.8 3.862-.596 4.53-3.323 4.456-5.124-.057-1.405-1.796-3.935-4.525-4.007z"/><path d="M337.15 263.14c7.79-3.74 21.54-12.68 28.49-16.02 6.43-3.09 14.17-.2 16.94 6.37 3.89 9.22 6.68 18.94 9.44 28.59 1.19 4.17 1.623 8.538 1.213 12.848-5.588 16.05-6.412 8.935-8.063-1.048" fill="none" stroke="#000" stroke-width="2" stroke-linecap="round" stroke-linejoin="round" stroke-miterlimit="10"/><path d="M358.58 269c1.2 9.15 2.41 18.29 3.61 27.44.32 2.46.64 4.97.14 7.39-6.84 9.252.555 8.091 6.94 3.67 3.14-2.43 4.96-6.46 4.73-10.42 3.308 33.557 14.25-5.95 9.64-13.65" fill="none" stroke="#000" stroke-width="2" stroke-linecap="round" stroke-linejoin="round" stroke-miterlimit="10"/><path d="M358.01 403.72c-.63-2.72-1.27-5.5-.96-8.28.31-2.78 1.75-5.59 4.27-6.79 3.34-1.59 7.35.09 10.2 2.44 5.35 4.41 8.55 11.31 8.47 18.24-6.53-3.38-13.95-5.03-21.98-5.61z" fill="#fff" stroke="#000" stroke-width="2" stroke-linecap="round" stroke-linejoin="round" stroke-miterlimit="10"/><path d="M338.36 297.77c8.08-4.01 15.31-10.2 21.14-17.15" fill="none" stroke="#000" stroke-width="2" stroke-linecap="round" stroke-linejoin="round" stroke-miterlimit="10"/><path d="M260.66 422.67c-.58-2.73-1.17-5.53-.81-8.3.36-2.77 1.84-5.56 4.39-6.71 3.36-1.53 7.35.22 10.16 2.62 5.27 4.51 8.35 11.46 8.15 18.39-6.49-3.5-13.88-5.28-21.89-6z" fill="#fff" stroke="#000" stroke-width="2" stroke-linecap="round" stroke-linejoin="round" stroke-miterlimit="10"/><path d="M294.674 114.866c2.037 3.014 12.226 5.222 16.226 4.764 3.579-.41 7.29-1.15 10-3.53 2.27-2 4.654-4.282 5.53-7.176.976-3.22 1.048-9.31-.025-12.75" fill="none" stroke="#000" stroke-width="1.6" stroke-linecap="round" stroke-linejoin="round" stroke-miterlimit="10"/><path d="M347.59 405.23c-.63-2.72-1.27-5.5-.96-8.28.31-2.78 1.75-5.59 4.27-6.79 3.34-1.59 7.35.09 10.2 2.44 5.35 4.41 8.55 11.31 8.47 18.24-6.53-3.38-13.95-5.03-21.98-5.61z" fill="#fff" stroke="#000" stroke-width="2" stroke-linecap="round" stroke-linejoin="round" stroke-miterlimit="10"/><path d="M260.6 129.7c1.23-2.29 2.7-4.79 5.19-5.55.95-.29 2.04-.27 2.85.3.81.57 1.19 1.78.65 2.6-.49.76-1.5.95-2.39 1.08-2.01.3-4.02.6-6.3 1.57zM243.59 130.31c.17-1.33.35-2.69.04-3.99-.31-1.3-1.2-2.56-2.49-2.9-1.29-.34-2.89.58-2.92 1.91-.04 1.36 1.33 2.29 2.58 2.84 1.25.55 2.67 1.15 2.79 2.14z"/><path d="M355.88 122.12c.74 26.61-2.97 53.34-10.2 78.99 3.9 21.92.27 45.1-10.4 65.86 1.3 13.97 2.27 27.97 2.85 42.66.65 16.46-3.9 32.7-12.95 46.47l-21.2 32.27c-3.26 4.96-7.36 10.43-13.27 10.83M244.21 423.73c-13.78-1.19-23.79-4.48-33.04-9.25-2.52-1.3-5.08-2.78-6.7-5.1s-2.03-5.73-.24-7.92l-.07-.03c-3.99-1.53-7.2-4.56-9.24-8.31-11.71-21.48-15.57-46.62-11.43-70.23.28-1.61.6-3.21.96-4.81 1.47-6.59 3.57-13.02 6.32-19.2.11-.26.24-.53.36-.78 18.89-41.62 62.25-67.58 83.97-107.85" fill="none" stroke="#000" stroke-width="2" stroke-linecap="round" stroke-linejoin="round" stroke-miterlimit="10"/><path d="M243.64 423.64c-.43-2.76-.87-5.58-.36-8.33s2.15-5.45 4.75-6.46c3.44-1.34 7.32.62 10 3.17 5.01 4.79 7.71 11.9 7.13 18.81-6.28-3.84-13.56-6.03-21.52-7.19z" fill="#fff" stroke="#000" stroke-width="2" stroke-linecap="round" stroke-linejoin="round" stroke-miterlimit="10"/><path d="M170.56 327.64c-6.87 3.33-14.41 5.5-21.9 7.11-.19-7.81-8.016-15.522-2.51-23.28 12.03-2.58 18.31 8.34 24.41 16.17z" fill="none" stroke="#000" stroke-width="2" stroke-linecap="round" stroke-linejoin="round" stroke-miterlimit="10"/><path d="M340.05 407.79c-.63-2.72-1.27-5.5-.96-8.28.31-2.78 1.75-5.59 4.27-6.79 3.34-1.59 7.35.09 10.2 2.44 5.35 4.41 8.55 11.31 8.47 18.24-6.53-3.38-13.95-5.03-21.98-5.61z" fill="#fff" stroke="#000" stroke-width="2" stroke-linecap="round" stroke-linejoin="round" stroke-miterlimit="10"/><path d="M136.94 336.15c-.33.35-.66.69-1.01 1-5.94 1.04-11.88 2.09-17.7 3.53-1.164-6.577-3.825-13.29.23-20.41 9.507-.837 14.95 8.29 18.48 15.88zM248.56 310.73c17.18 3.54 32.12 16.5 38.03 33.02 5.91 16.52 2.61 36.01-9.25 50.99-6.86-.33-28.61-.91-40.25 1.6" fill="none" stroke="#000" stroke-width="2" stroke-linecap="round" stroke-linejoin="round" stroke-miterlimit="10"/><path d="M292.72 408.4c.39-3.8-.75-7.74-4.08-11.37-.82-.89-1.99-1.37-3.2-1.39-2.42-.03-6.15-.36-8.74-.91M275 409.77c-.11-1.74-.46-3.46-1.01-5.11-.55-1.64-1.93-2.85-3.61-3.27-2.26-.56-4.45-1.37-6.54-2.4M259.71 413.41c.05-.53.08-1.06.08-1.6-.01-3.24-2.05-6.17-5.12-7.19-2.15-.71-4.22-1.66-6.17-2.81" fill="none" stroke="#000" stroke-width="2" stroke-linecap="round" stroke-linejoin="round" stroke-miterlimit="10"/><g fill="none" stroke="#000" stroke-width="2" stroke-linecap="round" stroke-linejoin="round" stroke-miterlimit="10"><path d="M275.93 271.59c5.48-4.65 11.49-8.67 18.44-12 6.43-3.09 14.17-.2 16.94 6.37 3.89 9.22 6.68 18.94 9.44 28.59 1.19 4.17 2.4 8.46 1.99 12.77-3.007 15.203-8.29 10.803-8.84-.97"/><path d="M287.3 281.46c1.2 9.15 2.41 18.29 3.61 27.44.32 2.46.64 4.97.14 7.39-3.086 7.587 1.564 7.73 6.94 3.67 3.14-2.42 4.96-6.46 4.73-10.42 4.305 31.525 13.744-7.197 9.64-13.65"/><path d="M246.56 272.82c.4 10.1 2.38 20.1 5.85 29.27 2.96 7.84 11.17 10.97 17.56 6.76 6.52-4.29 13.23-9.29 18.25-15.77"/></g><path d="M338.87 306.11c.46.06.92.14 1.38.22 12.75 2.37 21.78 13.86 21.8 26.83.03 16.41-3.8 29.59-11.53 45.24-11.12-1.26-22.29 10.18-34.1 10.57M292.8 404.39c4.59 2.27 42.01 4.71 47.25 3.4" fill="none" stroke="#000" stroke-width="2" stroke-linecap="round" stroke-linejoin="round" stroke-miterlimit="10"/><path d="M368.34 388.97c-.03-.21-.06-.43-.1-.64-.54-3.01-3.26-5.19-6.31-5.1-3.88.11-8.32-1.66-11.92-4.87M358.97 391.03c0-.02-.01-.04-.01-.05-.62-2.63-2.9-4.57-5.59-4.86-2.79-.3-5.54-1.01-8.14-2.09M348.9 392.25c-.33-.51-.65-1.01-1-1.54-.86-1.33-2.38-2.13-3.96-2.02-2.93.21-5.91-.26-8.62-1.38M184.44 318.06c-.63.62-1.27 1.22-1.93 1.8-3.59 3.14-7.64 5.69-11.95 7.79-6.87 3.33-14.41 5.5-21.9 7.11-.17.04-.34.08-.51.11-4.05.86-8.14 1.57-12.23 2.29-5.94 1.04-11.88 2.09-17.7 3.53-3.24.81-6.46 1.75-9.62 2.87-16.86 6.03-31.97 18.1-39.45 34.38-7.48 16.28-6.38 36.76 4.64 50.88 9.19 11.78 23.73 17.97 38 22.4 22.55 6.99 46.1 10.78 69.72 11.2 15.8.29 31.7-.91 47.33 1.43 14.51 2.17 29.15 7.87 38.85 18.71 1.08 1.2 3.06.67 3.48-.89 2.55-9.37-1.53-20.08-8.47-27.17-7.82-8-18.54-12.38-29.02-16.28a654.845 654.845 0 00-58.64-18.69c-7.95-2.13-16.12-4.19-22.96-8.79-6.83-4.6-12.17-12.36-11.43-20.56M148.28 407.16c15.52-6.03 32.03-9.48 48.67-10.16" fill="none" stroke="#000" stroke-width="2" stroke-linecap="round" stroke-linejoin="round" stroke-miterlimit="10"/><path d="M227.56 440.34c.37-4.895-2.12-10.455-7.99-13.05-4.3 3.13-4.905 7.33-4.11 11.6 3.22 1.76 7.03 2.44 12.1 1.45zM194.09 433.18c-1.578-6.024.297-11.026-9.48-16.56-2.984 3.405-3.21 7.58-4.82 11.36-.25.6-.51 1.24-.39 1.88.2 1 1.24 1.57 2.19 1.93 3.55 1.38 7.47 1.8 12.5 1.39zM152.14 422.14c-.23-5.69.111-12.2 6.22-15.36 5.463 5.595 5.814 11.29 6.99 16.94-4.1 1.83-9.11 1.44-13.21-1.58zM122.2 410.38c0-7.46.681-16.719 8.9-19.81 5.308 7.55 5.879 14.14 5.98 21.01-2.53.54-5.08 1.09-7.67 1.02-2.6-.05-5.25-.78-7.21-2.22zM97.9 382.57c3.86 4.1 9.78 6.15 15.35 5.32.557-7.295 4.015-14.21-.899-20.818-1.555-1.122-1.999-1.465-4.121-1.172-7.66 3.445-8.18 9.56-10.33 16.67zM91.19 352.88c5.67 1.37 11.82.68 17.05-1.92-1.307-7.66-.828-16.254-9.44-20.61-10.37 4.966-8.647 13.979-7.61 22.53z" fill="#fff" stroke="#000" stroke-width="2" stroke-linecap="round" stroke-linejoin="round" stroke-miterlimit="10"/><path d="M263.34 207.27c-14.16 8.32-30.27 13.28-48.66 13.96-24.33-51.11-29.72-110.99-14.92-165.63 1.11-4.11 2.04-9.27-1.24-11.98-3.39-2.8-8.5-.67-12.09 1.87-7.78 5.51-14.36 12.69-19.81 21.55-35.68 35.48-72.42 72.59-89.52 119.92-16.46 45.56-14.869 91.543 2.931 136.603-13.08-45.04-9.511-88.663 6.039-132.903 15.55-44.24 45.22-83.41 82.65-108.25-37.07 64.46-45.77 142.371-21.8 212.761-6.04-71.71-.72-144.241 32.94-207.851 2.41 51.4 5.33 104.74 30.34 150.37 11.11.61 22.34-1.15 32.73-5.14" fill="none" stroke="#000" stroke-width="2" stroke-linecap="round" stroke-linejoin="round" stroke-miterlimit="10"/><path d="M81.06 322.58c18.73-14.88 41.9-24.09 66.59-26.65 14.46-15.19 36.16-23.16 57.02-20.95M346.96 203.63c34.45-35.97 55.22-84.74 57.28-134.51.23-5.46.97-12.1 5.98-14.29 5.82-2.54 11.99 3.56 13.7 9.68 1.71 6.12 1.23 12.93 5.35 20.6 9.27 38.95 18.57 78.1 21.65 118.02 3.08 39.92.302 77.725-15.048 114.715 20.11-74.78 12.688-153.225-19.502-223.655 5.32 60.94 8.799 127.222-16.971 182.692 11.76-52.26 15.351-108.702 8.021-161.762-11.62 62.85-60.21 102.63-60.21 102.63" fill="none" stroke="#000" stroke-width="2" stroke-linecap="round" stroke-linejoin="round" stroke-miterlimit="10"/><path d="M390.24 274.49c3-.75 6.38.38 8.94 3.07 10.34-.29 20.72 4.1 27.71 11.72 6.99 7.62 10.47 18.34 9.28 28.61" fill="none" stroke="#000" stroke-width="2" stroke-linecap="round" stroke-linejoin="round" stroke-miterlimit="10"/><path d="M333.98 121.99c4.89-.23 9.84 2.12 12.75 6.06 2.91 3.94 3.71 9.35 2.46 15.18 2.34 14.99 2.15 30.38-.58 45.3M288.25 189.42c.33 6.74 2.02 13.41 4.96 20.65a260.85 260.85 0 00-12.25 56.94M271.34 308.02a17.59 17.59 0 01-5.85 9.68" fill="none" stroke="#000" stroke-linecap="round" stroke-linejoin="round" stroke-miterlimit="10"/><path d="M140.43 390.396c2.1-5.5 6.8-7.726 12.28-9.876 5.47-2.15 11.36-3.07 16.94-4.93 5.58-1.86 11.11-4.92 14.06-10.01" fill="none" stroke="#000" stroke-width="1.4" stroke-linecap="round" stroke-linejoin="round" stroke-miterlimit="10"/></g><path d="M316.655 198.96s-21.306 14.026-59.252 7.097M251.021 260.896s37.509 6.618 58.089 1.57M236.558 323.262s30.368 31.546 66.905 15.924" fill="none" stroke="#000" stroke-linecap="round" stroke-linejoin="round" stroke-miterlimit="10"/><path d="M134.023 385.425s-6.667 16.385 6.85 22.486" fill="none" stroke="#000" stroke-linecap="round" stroke-linejoin="round" stroke-miterlimit="10" stroke-width="1.3"/></svg>