<?xml version="1.0" encoding="UTF-8" standalone="no"?>
<!-- Generator: Adobe Illustrator 27.5.0, SVG Export Plug-In . SVG Version: 6.00 Build 0)  -->

<svg
   version="1.1"
   x="0px"
   y="0px"
   viewBox="0 0 510.89801 490.79801"
   xml:space="preserve"
   id="svg20"
   sodipodi:docname="dragon2.svg"
   width="510.89801"
   height="490.798"
   inkscape:version="1.3 (0e150ed6c4, 2023-07-21)"
   xmlns:inkscape="http://www.inkscape.org/namespaces/inkscape"
   xmlns:sodipodi="http://sodipodi.sourceforge.net/DTD/sodipodi-0.dtd"
   xmlns="http://www.w3.org/2000/svg"
   xmlns:svg="http://www.w3.org/2000/svg"><defs
   id="defs20" /><sodipodi:namedview
   id="namedview20"
   pagecolor="#ffffff"
   bordercolor="#000000"
   borderopacity="0.25"
   inkscape:showpageshadow="2"
   inkscape:pageopacity="0.0"
   inkscape:pagecheckerboard="0"
   inkscape:deskcolor="#d1d1d1"
   inkscape:zoom="1.137"
   inkscape:cx="208.00352"
   inkscape:cy="340.80915"
   inkscape:window-width="2560"
   inkscape:window-height="1351"
   inkscape:window-x="1191"
   inkscape:window-y="187"
   inkscape:window-maximized="1"
   inkscape:current-layer="g1" />&#10;&#10;<g
   id="g1"
   transform="translate(33.500005,37.500196)"><g
     id="OBJECTS"
     style="fill:#000000;fill-opacity:1;stroke:none;stroke-opacity:1"
     transform="translate(-28.052,-40.562)">&#10;	<g
   id="g3"
   style="fill:#000000;fill-opacity:1;stroke:none;stroke-opacity:1">&#10;		<path
   style="fill:#000000;fill-opacity:1;stroke:none;stroke-opacity:1"
   d="m 185.615,407.955 c 0.126,-0.812 0.19,-1.635 0.19,-2.466 0,-8.87 -7.216,-16.086 -16.086,-16.086 -2.506,0 -4.929,0.574 -7.137,1.677 -3.904,-4.066 -9.347,-6.428 -15.043,-6.428 -11.49,0 -20.837,9.347 -20.837,20.837 0,0.832 0.05,1.663 0.149,2.488 -4.332,1.54 -7.453,5.691 -7.453,10.523 0,6.156 5.009,11.165 11.165,11.165 h 51.379 c 6.157,0 11.165,-5.009 11.165,-11.165 0.001,-4.871 -3.134,-9.023 -7.492,-10.545 z m -3.672,18.635 h -51.379 c -4.468,0 -8.09,-3.622 -8.09,-8.09 0,-4.438 3.574,-8.037 8.001,-8.085 -0.451,-1.565 -0.697,-3.216 -0.697,-4.925 0,-9.809 7.952,-17.761 17.761,-17.761 5.922,0 11.164,2.901 14.391,7.358 2.173,-1.63 4.863,-2.607 7.788,-2.607 7.185,0 13.01,5.825 13.01,13.01 0,1.743 -0.349,3.402 -0.97,4.921 h 0.184 c 4.468,0 8.09,3.622 8.09,8.089 10e-4,4.468 -3.621,8.09 -8.089,8.09 z"
   id="path1" />&#10;		<path
   style="fill:#000000;fill-opacity:1;stroke:none;stroke-opacity:1"
   d="m 452.53,332.24 c 0,5.86 -4.77,10.63 -10.63,10.63 h -45.27 c 0.59,-0.99 1.1,-2.01 1.51,-3.08 h 43.76 c 4.17,0 7.55,-3.38 7.55,-7.55 0,-4.16 -3.38,-7.54 -7.55,-7.54 h -0.17 c 0.58,-1.42 0.91,-2.97 0.91,-4.6 0,-6.7 -5.44,-12.14 -12.14,-12.14 -2.73,0 -5.24,0.91 -7.27,2.43 -3.01,-4.15 -7.9,-6.86 -13.43,-6.86 -8.09,0 -14.83,5.8 -16.28,13.46 -0.81,-0.86 -1.68,-1.64 -2.6,-2.33 2.36,-8.19 9.93,-14.21 18.88,-14.21 5.32,0 10.41,2.19 14.08,5.96 2.05,-1 4.3,-1.52 6.62,-1.52 8.39,0 15.21,6.82 15.21,15.21 0,0.73 -0.05,1.45 -0.15,2.17 4.06,1.49 6.97,5.4 6.97,9.97 z"
   id="path2" />&#10;		<path
   style="fill:#000000;fill-opacity:1;stroke:none;stroke-opacity:1"
   d="m 356.291,79.579 c 0.052,-0.472 0.078,-0.947 0.078,-1.425 0,-7.198 -5.856,-13.054 -13.054,-13.054 -1.858,0 -3.659,0.388 -5.322,1.137 -3.098,-3.031 -7.299,-4.781 -11.689,-4.781 -9.207,0 -16.698,7.491 -16.698,16.698 0,0.481 0.021,0.961 0.062,1.44 -3.322,1.418 -5.664,4.723 -5.664,8.539 0,5.117 4.163,9.28 9.28,9.28 h 39.405 c 5.117,0 9.28,-4.163 9.28,-9.28 0.001,-3.842 -2.344,-7.145 -5.678,-8.554 z m -3.601,14.757 h -39.405 c -3.426,0 -6.204,-2.778 -6.204,-6.204 0,-3.403 2.741,-6.164 6.136,-6.201 -0.346,-1.2 -0.535,-2.466 -0.535,-3.777 0,-7.523 6.099,-13.622 13.622,-13.622 4.542,0 8.562,2.225 11.037,5.643 1.667,-1.25 3.73,-1.999 5.973,-1.999 5.511,0 9.978,4.467 9.978,9.978 0,1.336 -0.267,2.609 -0.744,3.774 h 0.141 c 3.426,0 6.204,2.778 6.204,6.204 0.001,3.426 -2.776,6.204 -6.203,6.204 z"
   id="path3" />&#10;	</g>&#10;	<g
   id="g16"
   style="fill:#000000;fill-opacity:1;stroke:none;stroke-opacity:1">&#10;		<path
   style="fill:#000000;fill-opacity:1;stroke:none;stroke-opacity:1"
   d="m 444.628,393.897 c -4.218,-3.132 -10.819,-4.316 -16.368,-0.158 0.025,-2.045 -0.373,-4.065 -1.192,-6.047 -2.351,-5.683 -7.896,-9.725 -14.473,-10.549 -2.708,-0.341 -5.204,-0.151 -7.366,0.276 3.994,-5.69 3.832,-12.663 1.359,-18.059 -2.46,-5.367 -7.779,-10.281 -14.694,-10.977 6.938,-5.751 9.418,-14.771 6.303,-23.594 -3.072,-8.702 -10.547,-14.103 -19.423,-14.254 2.648,-2.54 4.539,-5.563 5.645,-9.033 2.537,-7.98 -0.062,-16.549 -6.618,-21.83 -5.698,-4.589 -12.927,-5.677 -19.453,-3.082 3.044,-7.279 0.586,-13.24 -2.469,-17.29 4.135,0.32 8.727,1.229 13.832,2.936 1.832,0.612 3.785,0.468 5.501,-0.406 1.701,-0.865 2.954,-2.341 3.53,-4.154 7.721,-24.357 24.376,-28.813 37.018,-28.269 2.333,0.102 4.595,-0.962 6.016,-2.848 1.413,-1.877 1.814,-4.32 1.071,-6.535 -7.484,-22.323 6.476,-43.039 7.12,-43.973 3.18,-3.685 4.202,-8.904 2.245,-13.427 -0.873,-2.019 -2.251,-3.781 -4.095,-5.238 -4.416,-3.488 -10.605,-3.641 -15.405,-0.381 -13.004,8.83 -30.654,14.833 -52.46,17.839 -0.964,0.133 -1.918,0.256 -2.862,0.373 0.692,-1.55 0.945,-3.283 0.644,-5.006 -2.922,-16.728 1.135,-33.123 3.049,-39.49 2.193,-4.329 1.677,-9.676 -1.532,-13.264 -2.413,-2.697 -5.776,-4.005 -9.713,-3.79 -3.815,0.21 -7.351,2.406 -9.46,5.876 -19.133,31.463 -60.154,47.741 -68.184,50.685 -1.748,0.641 -3.374,1.521 -4.836,2.617 l -0.36,0.274 c -4.22,3.257 -6.832,8.299 -7.167,13.833 -1.154,19.021 -7.146,34.48 -13.274,45.626 -1.647,-0.483 -3.382,-0.759 -5.17,-0.791 -0.519,-0.009 -1.04,-0.001 -1.56,0.027 4.028,-4.6 5.478,-10.875 3.787,-17.105 -1.367,-5.034 -4.489,-9.077 -8.67,-11.518 7.554,-1.966 11.158,-7.697 12.761,-11.514 1.867,-4.417 2.036,-9.249 0.476,-13.606 -0.727,-2.038 -1.71,-3.742 -2.835,-5.175 2.478,0.737 4.923,1.115 7.32,1.115 5.03,0 8.789,-1.643 11.057,-3.021 2.618,-1.59 4.423,-3.955 5.084,-6.657 0.435,-1.778 0.382,-3.436 0.038,-4.939 0.653,0.065 1.314,0.097 1.981,0.097 2.178,0 4.415,-0.351 6.649,-1.043 3.428,-1.061 6.084,-3.628 7.287,-7.042 1.192,-3.382 0.739,-7.007 -1.242,-9.946 -1.334,-1.979 -2.969,-3.604 -4.546,-4.888 5.516,-2.458 9.682,-6.181 12.427,-11.119 3.23,-5.811 3.753,-12.154 3.622,-16.452 -0.125,-4.102 -3.422,-7.315 -7.507,-7.315 -1.183,0 -2.327,0.276 -3.399,0.819 -17.48,8.861 -37.915,17.469 -50.864,22.71 l 19.653,-28.133 c 2.233,-3.197 1.664,-7.561 -1.299,-9.936 l -0.111,-0.087 c -2.184,-1.702 -5.243,-1.973 -7.794,-0.692 l -34.255,17.21 c -4.806,-3.204 -10.013,-5.877 -15.543,-7.916 -8.283,-3.054 -16.894,-4.602 -25.593,-4.603 -2.728,0 -5.44,0.162 -8.125,0.467 L 143.811,60.433 c -1.64,-3.152 -5.224,-4.659 -8.515,-3.585 l -0.152,0.051 c -3.104,1.057 -5.087,4.251 -4.715,7.596 l 3.678,35.271 c -2.795,1.533 -5.487,3.247 -8.039,5.156 -8.978,-5.909 -20.879,-14.164 -29.98,-22.005 -2.7,-2.326 -6.06,-3.624 -9.461,-3.653 h -0.113 -0.072 c -4.549,0.021 -8.271,3.671 -8.467,8.309 -0.281,6.638 2.603,11.225 6.218,14.349 -0.188,0.066 -0.376,0.137 -0.563,0.211 -3.54,1.404 -5.91,4.5 -6.338,8.281 -0.427,3.773 1.257,7.458 4.396,9.619 3.275,2.254 6.974,3.547 11.021,3.853 -1.036,1.915 -1.4,4.154 -0.979,6.358 0.608,3.19 2.755,5.851 5.745,7.119 1.584,0.672 3.264,1.175 5.024,1.506 -0.218,0.758 -0.424,1.528 -0.618,2.307 -13.497,0.9 -23.993,5.448 -31.219,13.538 -6.96,7.792 -10.133,18.684 -8.704,29.882 1.902,14.907 11.805,39.933 56.503,41.995 1.17,3.725 4.286,10.856 11.909,16.063 5.103,3.486 11.128,5.328 17.424,5.328 0.653,0 1.303,-0.025 1.953,-0.065 -0.071,2.623 -0.086,5.346 -0.036,8.149 -8.279,6.959 -12.169,19.924 -13.342,24.573 -5.863,-2.088 -12.425,-5.639 -13.557,-6.26 -5.391,-5.139 -11.655,-6.066 -17.663,-2.607 -3.407,1.961 -6.143,5.11 -7.912,9.105 l -0.135,0.312 c -2.455,5.768 0.17,11.016 3.861,13.655 3.649,2.612 9.399,3.394 14.016,-0.746 0.551,-0.494 1.016,-0.979 1.388,-1.402 6.063,5.212 11.534,8.282 11.804,8.433 7.856,4.169 15.501,6.263 22.824,6.263 2.496,0 4.954,-0.249 7.37,-0.737 l 0.477,1.379 c 0.407,1.149 0.824,2.309 1.274,3.48 0.191,0.506 0.382,1.01 0.576,1.496 0.212,0.554 0.434,1.109 0.663,1.668 0.266,0.658 0.548,1.326 0.831,1.997 -7.381,-2.294 -14.654,-5.474 -15.939,-6.042 -10.119,-8.142 -18.754,-5.336 -24.232,-1.528 -4.391,3.052 -7.744,7.659 -9.686,13.292 l -0.147,0.442 c -2.637,8.026 1.495,14.776 6.757,17.898 5.204,3.088 13.014,3.488 18.74,-2.609 0.814,-0.873 1.475,-1.704 1.958,-2.397 9.09,6.608 17.154,10.268 17.545,10.442 8.322,3.546 16.346,5.552 24.022,6.013 0.784,0.047 1.563,0.077 2.34,0.092 0.618,0.77 1.248,1.539 1.891,2.307 0.214,0.256 0.432,0.51 0.648,0.765 0.634,0.746 1.278,1.49 1.934,2.232 0.255,0.289 0.509,0.579 0.768,0.868 0.793,0.884 1.598,1.764 2.418,2.638 0.078,0.083 0.151,0.168 0.23,0.251 0.092,0.098 0.188,0.192 0.281,0.29 0.742,0.782 1.491,1.555 2.247,2.318 0.236,0.238 0.476,0.472 0.714,0.708 0.699,0.695 1.404,1.382 2.115,2.06 0.145,0.138 0.29,0.277 0.436,0.414 5.098,4.821 10.502,9.214 16.164,13.154 0.031,0.512 0.058,1.022 0.107,1.543 0.838,8.905 5.124,17.132 11.758,22.571 4.892,4.009 10.52,6.799 16.758,8.313 -2.595,3.272 -8.034,9.991 -12.384,14.439 -1.007,1.029 -1.724,2.244 -2.075,3.514 -0.064,0.233 -0.123,0.481 -0.174,0.744 -0.494,2.564 0.27,5.141 2.097,7.07 1.616,1.705 3.861,2.657 6.173,2.657 0.379,0 0.761,-0.025 1.141,-0.077 l 38.827,-5.324 c 2.638,-0.362 4.975,-1.857 6.412,-4.1 1.414,-2.207 1.792,-4.901 1.035,-7.393 -0.58,-1.912 -1.647,-3.843 -3.176,-5.744 -0.514,-1.366 -3.191,-8.479 -5.623,-15.123 0.941,0.105 1.884,0.198 2.828,0.283 4.661,7.17 11.495,12.66 19.333,15.388 7.085,2.47 14.501,3.247 22.081,2.32 -1.472,4.48 -4.847,14.455 -7.933,21.302 -0.671,1.502 -0.967,3.088 -0.837,4.578 0.014,0.271 0.056,0.564 0.098,0.868 0.485,2.934 2.311,5.388 5.025,6.734 1.177,0.592 2.449,0.919 3.737,0.996 1.747,0.105 3.522,-0.259 5.106,-1.105 l 40.566,-21.533 c 2.691,-1.431 4.606,-3.951 5.265,-6.926 0.646,-2.917 -0.002,-5.961 -1.793,-8.333 -1.402,-1.848 -3.344,-3.527 -5.78,-4.996 -1.452,-1.68 -12.306,-14.265 -18.178,-21.39 0.103,-0.464 0.251,-1.137 0.427,-1.972 v 0 c 0.016,-0.058 0.025,-0.113 0.041,-0.171 1.227,-0.806 2.433,-1.637 3.601,-2.51 9.476,18.423 25.544,30.252 47.79,35.175 8.346,1.847 16.431,2.439 23.367,2.439 9.427,0 16.732,-1.094 19.683,-1.617 3.03,-0.538 5.608,-2.398 7.071,-5.105 0.583,-1.078 0.939,-2.231 1.089,-3.402 0.987,-1.307 1.791,-2.65 2.372,-4.003 2.944,-6.848 -0.187,-13.221 -4.597,-16.496 z m -48.324,25.189 c -21.951,-4.857 -37.605,-16.699 -46.527,-35.196 -0.202,-0.42 -0.585,-0.725 -1.039,-0.83 -0.114,-0.026 -0.23,-0.039 -0.345,-0.039 -0.342,0 -0.679,0.114 -0.952,0.33 -0.761,0.6 -1.555,1.165 -2.345,1.735 1.125,-9.275 -2.626,-15.13 -2.626,-15.13 0.273,10.98 -1.257,18.942 -1.716,21.065 -0.079,0.356 -0.127,0.562 -0.131,0.583 -0.109,0.474 0.002,0.962 0.311,1.331 6.141,7.492 18.738,22.075 18.87,22.223 0.103,0.127 0.236,0.235 0.382,0.314 2.186,1.294 3.902,2.749 5.099,4.334 1.253,1.648 1.707,3.769 1.253,5.816 -0.467,2.096 -1.816,3.868 -3.709,4.876 l -40.566,21.533 c -1.873,0.989 -4.128,1.014 -6.035,0.068 -1.819,-0.901 -3.044,-2.527 -3.358,-4.47 -0.037,-0.223 -0.054,-0.434 -0.072,-0.635 -0.082,-0.977 0.122,-2.036 0.575,-3.061 4.14,-9.208 8.777,-23.836 8.826,-23.983 0.16,-0.501 0.044,-1.059 -0.312,-1.471 -0.272,-0.307 -0.651,-0.5 -1.06,-0.525 -0.12,-0.007 -0.241,0.005 -0.352,0.019 -7.926,1.357 -15.673,0.74 -23.042,-1.827 -8.655,-3.005 -15.996,-9.708 -20.134,-18.362 -6.86,-14.368 -4.436,-25.853 1.434,-34.666 0,0 10.071,-16.253 28.986,-23.237 0,0 -20,2.012 -32.467,22.982 -21.555,-1.722 -40.108,-10.399 -55.188,-25.796 9.228,-10.569 8.426,-21.454 8.426,-21.454 -3.191,10.575 -10.806,18.997 -10.806,18.997 -5.029,5.658 -11.591,9.992 -19.09,12.246 -12.1,3.64 -25.587,2.348 -40.043,-3.811 -0.088,-0.035 -8.981,-4.077 -18.334,-11.141 -0.279,-0.197 -0.602,-0.317 -0.932,-0.337 -0.15,-0.009 -0.311,10e-4 -0.473,0.032 -0.488,0.111 -0.907,0.426 -1.144,0.873 -0.001,0.01 -0.856,1.581 -2.484,3.317 -4.731,5.035 -10.773,4.231 -14.507,2.013 -3.782,-2.251 -7.429,-7.239 -5.245,-13.89 l 0.134,-0.393 c 1.7,-4.947 4.606,-8.96 8.401,-11.596 6.608,-4.602 13.44,-4.09 20.296,1.511 0.114,0.097 0.24,0.175 0.377,0.233 0.517,0.231 12.739,5.735 22.674,7.946 0.474,0.109 0.961,0.008 1.359,-0.279 0.397,-0.277 0.654,-0.712 0.713,-1.189 0.027,-0.279 3.393,-27.596 17.692,-38.137 0,0 12.793,-8.689 25.895,-2.401 0,0 -11.635,-10.472 -26.921,-1.043 -4.893,-6.557 -16.098,-17.872 -32.876,-13.597 -0.096,-1.369 -0.179,-2.718 -0.24,-4.03 -0.217,-4.679 -0.232,-9.152 -0.108,-13.369 3.898,-0.624 7.664,-1.952 11.085,-3.959 6.431,-3.775 11.919,-9.445 16.332,-16.871 12.346,-1.284 24.026,-5.701 33.871,-12.827 3.66,-2.649 6.997,-5.639 9.993,-8.912 -3.758,23.218 5.348,37.5 14.444,45.687 3.005,2.704 6.354,4.998 9.941,6.857 -2.368,4.278 -2.359,9.609 0.451,13.829 0.227,0.342 0.461,0.666 0.703,0.979 1.288,1.663 2.911,2.93 4.711,3.781 1.09,0.895 2.31,1.672 3.638,2.3 2.513,1.188 5.255,1.777 8.037,1.777 3.575,0 7.217,-0.972 10.525,-2.89 16.545,-9.593 32.886,-5.817 41.153,-2.715 2.951,1.107 6.352,0.077 8.266,-2.511 0.736,-0.995 1.615,-2.059 2.638,-3.132 26.755,9.68 43.961,34.161 43.862,62.486 0,0.04 10e-4,0.081 0.004,0.121 0.383,5.032 2.318,22.778 11.158,39.834 11.525,22.234 29.623,34.096 53.796,35.254 2.565,0.123 4.858,1.623 5.842,3.822 l 0.063,0.143 c 10e-4,0.001 0.002,0.003 0.002,0.004 0.788,1.842 0.685,3.926 -0.284,5.717 -1.015,1.877 -2.803,3.168 -4.905,3.541 -4.982,0.882 -22.716,3.435 -41.85,-0.797 z m -118.954,1.167 c 1.357,1.651 2.289,3.295 2.773,4.886 0.494,1.629 0.245,3.395 -0.683,4.843 -0.951,1.484 -2.498,2.473 -4.243,2.712 l -38.826,5.324 c -1.717,0.233 -3.464,-0.38 -4.665,-1.648 -1.138,-1.201 -1.615,-2.796 -1.311,-4.372 0.036,-0.182 0.076,-0.354 0.12,-0.513 0.212,-0.769 0.664,-1.523 1.309,-2.182 6.032,-6.168 13.805,-16.213 14.132,-16.637 0.328,-0.424 0.411,-0.988 0.219,-1.488 -0.191,-0.5 -0.629,-0.864 -1.156,-0.962 -6.705,-1.239 -12.7,-3.995 -17.819,-8.19 -5.767,-4.727 -9.567,-11.803 -10.533,-19.526 16.452,10.757 34.908,17.77 54.168,20.447 2.817,7.735 6.22,16.755 6.265,16.874 0.058,0.156 0.142,0.302 0.25,0.432 z m -83.686,-61.02 c -2.175,-2.307 -4.256,-4.66 -6.22,-7.022 4.163,-0.215 8.212,-0.897 12.133,-2.07 7.017,-2.106 13.265,-5.896 18.344,-10.842 1.97,2.008 3.999,3.901 6.083,5.687 -7.934,7.823 -16.761,14.333 -25.693,18.944 -1.58,-1.525 -3.131,-3.088 -4.647,-4.697 z m 63.564,3.576 c -5.223,7.67 -12.831,17.942 -21.443,26.739 -12.964,-5.918 -25.061,-14.001 -35.792,-24.015 9.052,-4.76 17.689,-11.186 25.715,-19.137 9.425,7.696 19.958,13.185 31.52,16.413 z m -19.314,27.685 c 8.732,-9.029 16.387,-19.455 21.558,-27.099 4.561,1.146 9.268,1.968 14.134,2.425 -0.132,0.266 -0.245,0.536 -0.369,0.804 -0.113,0.243 -0.228,0.486 -0.335,0.73 -0.188,0.429 -0.362,0.861 -0.532,1.294 -0.103,0.261 -0.21,0.521 -0.306,0.784 -0.155,0.425 -0.294,0.854 -0.431,1.282 -0.086,0.269 -0.18,0.537 -0.26,0.807 -0.131,0.447 -0.242,0.898 -0.354,1.348 -0.063,0.252 -0.136,0.501 -0.193,0.754 -0.154,0.686 -0.286,1.375 -0.396,2.069 -0.041,0.257 -0.064,0.518 -0.098,0.776 -0.06,0.453 -0.123,0.905 -0.165,1.361 -0.028,0.308 -0.04,0.619 -0.059,0.928 -0.026,0.412 -0.055,0.823 -0.066,1.238 -0.008,0.317 -0.003,0.636 -0.003,0.954 0.001,0.414 0.002,0.828 0.017,1.244 0.012,0.313 0.034,0.628 0.054,0.943 0.028,0.429 0.059,0.859 0.103,1.29 0.031,0.303 0.068,0.607 0.106,0.911 0.057,0.453 0.122,0.906 0.196,1.362 0.047,0.285 0.096,0.571 0.149,0.858 0.091,0.487 0.193,0.975 0.303,1.465 0.058,0.258 0.116,0.516 0.179,0.775 0.132,0.536 0.279,1.075 0.434,1.615 0.062,0.216 0.121,0.432 0.187,0.649 0.188,0.617 0.395,1.237 0.613,1.859 0.05,0.143 0.095,0.284 0.147,0.427 0.57,1.575 1.229,3.163 1.994,4.764 0.211,0.436 0.426,0.864 0.646,1.282 -12.865,-1.38 -25.404,-4.744 -37.253,-9.899 z M 116.156,288.94 c -0.067,0 -0.134,0.004 -0.201,0.013 -0.444,0.059 -0.842,0.31 -1.088,0.685 -0.007,0.011 -0.698,1.059 -1.945,2.178 -3.577,3.209 -7.718,2.294 -10.177,0.534 -2.495,-1.785 -4.731,-5.463 -2.82,-9.956 l 0.116,-0.266 c 1.503,-3.397 3.798,-6.056 6.636,-7.689 4.905,-2.824 9.662,-2.051 14.141,2.294 0.096,0.093 0.204,0.174 0.32,0.238 0.358,0.2 8.843,4.921 15.877,7.132 0.413,0.128 0.864,0.077 1.24,-0.142 0.374,-0.221 0.638,-0.59 0.726,-1.016 0.035,-0.168 3.076,-14.552 10.848,-22.762 0.011,0.262 0.018,0.52 0.03,0.783 0.089,1.957 0.221,3.986 0.39,6.066 0.001,0.018 -0.006,0.034 -0.005,0.052 0.029,0.362 0.069,0.722 0.101,1.084 0.042,0.479 0.087,0.961 0.134,1.445 0.994,10.443 2.923,20.648 5.766,30.364 0.191,0.655 0.391,1.318 0.59,1.983 l 0.268,0.855 c 0.095,0.301 0.191,0.6 0.287,0.897 -8.687,1.654 -18.028,-0.119 -27.756,-5.28 -0.061,-0.034 -6.186,-3.477 -12.452,-9.102 -0.283,-0.254 -0.649,-0.39 -1.026,-0.39 z m 67.44,-8.534 c -4.28,3.612 -7.568,8.494 -10.074,13.594 -4.614,1.497 -9.512,2.879 -14.605,4.122 -2.744,-9.619 -4.6,-19.71 -5.506,-30.041 7.145,-1.933 19.449,-2.271 30.185,12.325 z m -11.319,16.291 c -3.763,8.642 -5.434,17.365 -6.03,21.144 -0.081,-0.021 -0.164,-0.045 -0.245,-0.066 -0.65,-1.47 -1.246,-2.871 -1.805,-4.253 -0.222,-0.542 -0.436,-1.076 -0.647,-1.627 -0.194,-0.488 -0.379,-0.977 -0.574,-1.49 -0.437,-1.136 -0.844,-2.27 -1.236,-3.377 l -0.643,-1.859 -1.451,0.504 v 0 l 1.407,-0.638 c -0.219,-0.657 -0.437,-1.315 -0.65,-1.989 -0.127,-0.387 -0.247,-0.77 -0.368,-1.151 l -0.257,-0.818 c -0.085,-0.283 -0.167,-0.562 -0.251,-0.844 4.413,-1.08 8.68,-2.265 12.75,-3.536 z M 132.098,240.12 c -5.693,-3.889 -8.59,-8.985 -10.004,-12.481 1.126,-0.087 2.23,-0.184 3.305,-0.295 1.58,2.477 5.045,6.469 11.64,8.067 6.439,1.56 13.349,-0.384 17.747,-5.339 2.701,-3.043 4.985,-7.444 4.898,-13.577 7.523,-5.142 9.569,-10.051 9.569,-10.051 -15.793,14.95 -41.523,16.938 -48.391,17.202 -0.004,-0.024 -0.007,-0.039 -0.007,-0.039 -43.706,-1.211 -53.912,-24.182 -55.853,-39.398 -1.261,-9.883 1.311,-20.016 7.948,-27.447 7.725,-8.648 18.777,-11.963 30.048,-12.566 l -0.006,0.012 c 0,0 52.678,-2.267 74.335,32.178 0,0 -8.197,-22.474 -41.656,-31.287 0.178,0.03 0.353,0.069 0.535,0.089 5.675,0.617 10.834,-4.024 11.523,-10.365 0.689,-6.341 -3.353,-11.981 -9.028,-12.598 -5.675,-0.617 -10.834,4.024 -11.523,10.365 -0.599,5.517 2.384,10.499 6.906,12.108 -8.181,-2.001 -17.819,-3.19 -29.146,-3.075 0.456,-1.8 0.988,-3.594 1.622,-5.376 0,0 2.826,-9.296 10.434,-17.651 0,0 -7.499,2.743 -13.628,17.285 -1.799,-0.316 -3.382,-0.788 -4.697,-1.346 -4.303,-1.825 -5.438,-7.443 -2.107,-10.722 3.009,-2.963 6.909,-4.499 6.909,-4.499 -3.308,1.12 -6.255,1.572 -8.859,1.572 -4.932,0 -8.627,-1.62 -11.187,-3.382 -4.707,-3.241 -3.98,-10.406 1.332,-12.512 2.32,-0.92 4.867,-1.129 6.702,-1.129 1.527,0 2.561,0.145 2.561,0.145 C 82.486,99.844 80.845,92.295 81.039,87.706 81.163,84.77 83.516,82.353 86.455,82.34 h 0.053 0.087 c 2.752,0.023 5.397,1.112 7.482,2.908 10.095,8.698 23.617,17.896 32.134,23.448 11.641,-9.338 26.524,-14.563 42.093,-14.562 8.111,0 16.409,1.419 24.53,4.413 4.822,1.778 9.321,4.03 13.481,6.659 l 0.026,0.922 c 0.605,21.204 22.484,23.7 22.706,23.723 l 0.899,0.092 0.084,-0.121 c 13.145,-5.242 36.028,-14.719 55.47,-24.574 0.659,-0.334 1.343,-0.487 2.01,-0.487 2.286,0 4.359,1.805 4.436,4.335 0.257,8.446 -2.202,22.323 -20.057,26.623 0,0 5.711,2.465 9.077,7.46 3.03,4.496 0.774,10.732 -4.406,12.336 -1.708,0.529 -3.655,0.905 -5.741,0.905 -3.048,0 -6.391,-0.805 -9.704,-3.112 0,0 6.139,4.418 4.701,10.297 -0.495,2.022 -1.916,3.68 -3.695,4.761 -1.967,1.195 -5.169,2.574 -9.462,2.574 -3.311,0 -7.272,-0.825 -11.812,-3.184 0.672,-17.239 -6.269,-25.665 -6.269,-25.665 3.947,9.755 3.28,23.938 3.28,23.938 -0.431,5.549 -1.606,11.112 -3.616,16.563 -8.448,22.913 -29.199,37.899 -52.748,40.898 4.018,-10.648 2.035,-19.223 2.035,-19.223 0.022,9.422 -5.157,19.558 -5.157,19.558 v 0 0 c -4.927,8.805 -10.752,14.042 -16.02,17.133 -4.479,2.629 -9.531,3.954 -14.566,3.954 -5.507,0 -10.996,-1.587 -15.688,-4.792 z m 11.358,-12.298 c 0,0 2.77,-6.93 11.376,-3.978 -0.673,1.839 -1.659,3.341 -2.738,4.556 -3.247,3.66 -8.35,5.092 -13.105,3.94 -2.553,-0.62 -4.477,-1.727 -5.893,-2.907 1.305,-1.283 4.658,-3.634 10.36,-1.611 z m -8.872,-93.275 c -2.449,-0.266 -4.219,-2.467 -3.953,-4.916 0.266,-2.449 2.467,-4.219 4.916,-3.953 2.449,0.266 4.219,2.467 3.953,4.916 -0.265,2.45 -2.467,4.219 -4.916,3.953 z m 1.655,-74.774 c 0.383,-0.125 0.777,-0.185 1.169,-0.185 1.483,0 2.939,0.854 3.673,2.265 l 4.475,8.599 c -3.703,3.064 -8.763,3.285 -11.023,3.207 l -1.055,-9.501 c -0.213,-1.924 0.902,-3.753 2.658,-4.351 z m -1.362,16.978 c 0.135,0.002 0.273,0.004 0.419,0.004 2.844,0 7.729,-0.511 11.708,-3.522 l 5.319,10.222 c -4.123,4.136 -12.97,4.269 -16.24,4.163 z m 2.583,13.968 c 4.148,0 11.75,-0.587 16.327,-4.451 l 3.158,5.693 c -6.956,1.111 -13.674,3.244 -19.918,6.292 l -0.601,-7.548 c 0.314,0.009 0.658,0.014 1.034,0.014 z m 112.144,-1.234 0.079,0.062 c 1.703,1.365 2.011,3.903 0.701,5.778 l -3.61,5.168 c -4.549,-2.485 -6.686,-6.498 -7.499,-8.463 l 5.803,-2.916 c 1.496,-0.75 3.272,-0.605 4.526,0.371 z m -11.698,23.702 C 227.648,110.661 225.485,102.104 225.044,99.18 l 11.474,-5.764 c 1.018,2.411 3.446,6.755 8.486,9.612 z m -1.866,2.671 -7.553,10.812 c -3.76,-0.623 -18.017,-4.013 -19.026,-19.662 l 12.749,-6.405 c 0.86,4.008 3.831,12.262 13.83,15.255 z m 9.245,63.249 c 1.3,3.631 1.153,7.67 -0.414,11.378 -2.102,5.003 -6.736,10.77 -16.82,10.277 0.056,-0.242 0.114,-0.485 0.172,-0.727 3.725,-4.98 6.73,-10.48 8.905,-16.381 1.378,-3.736 2.387,-7.599 3.054,-11.53 2.053,1.56 3.961,3.782 5.103,6.983 z m -9.976,52.758 c -0.637,0.494 -1.335,0.957 -2.072,1.375 l 1.286,2.779 c 1.523,-0.558 3.933,-1.217 6.805,-1.157 7.865,0.139 14.523,5.791 15.486,13.146 0.065,0.499 0.096,1.002 0.11,1.507 -1.761,1.438 -3.339,2.669 -4.674,3.68 -0.726,0.549 -1.382,1.157 -1.968,1.811 -3.499,-1.771 -6.761,-3.98 -9.675,-6.604 -12.288,-11.06 -16.703,-26.024 -13.198,-44.569 l 0.028,0.003 c 6.419,0.837 11.481,5.313 13.21,11.68 1.688,6.22 -0.357,12.485 -5.338,16.349 z m 33.893,-56.564 c 1.219,-0.914 2.58,-1.65 4.048,-2.188 8.197,-3.005 50.086,-19.636 69.75,-51.974 1.583,-2.604 4.201,-4.25 7.004,-4.404 3.021,-0.168 5.461,0.765 7.254,2.771 2.397,2.679 2.739,6.716 1.019,9.963 -0.279,0.512 -0.598,0.999 -0.943,1.438 -1.333,1.672 -3.115,3.776 -5.367,6.197 -9.36,10.062 -26.999,25.722 -55.802,39.82 -6.002,2.937 -12.472,5.809 -19.471,8.545 -0.555,0.217 -0.934,0.735 -0.974,1.33 -0.024,0.359 -2.154,29.443 -17.926,54.61 -1.858,-3.314 -4.769,-6.007 -8.277,-7.693 6.361,-11.619 12.205,-27.251 13.378,-46.576 0.282,-4.649 2.461,-8.873 5.978,-11.588 z M 426.21,159.798 c 1.441,1.139 2.511,2.5 3.18,4.048 1.974,4.56 -0.086,10.078 -4.689,12.561 -13.94,7.52 -51.816,24.528 -102.353,20.045 -0.664,-0.062 -1.297,0.321 -1.554,0.94 -0.206,0.493 -20.918,49.611 -54.22,74.788 -4.583,3.463 -11.087,2.695 -14.498,-1.712 -0.197,-0.254 -0.389,-0.52 -0.575,-0.799 -2.993,-4.494 -1.849,-10.654 2.604,-14.026 10.869,-8.231 37.454,-30.708 49.526,-61.572 3.111,-7.955 10.192,-13.393 18.482,-14.192 l 0.354,-0.032 c 0.396,-0.034 0.82,-0.05 1.293,-0.05 0.3,0 0.619,0.007 0.965,0.02 4.034,0.156 18.553,0.471 35.944,-1.928 22.277,-3.072 40.367,-9.243 53.767,-18.341 3.629,-2.463 8.471,-2.36 11.774,0.25 z M 381.49,300.57 c -1.42,4.457 -4.38,8.071 -8.792,10.744 -3.297,-11.195 -9.351,-21.241 -17.6,-29.334 l 0.109,-0.091 c 0.007,-0.006 0.733,-0.613 1.999,-1.34 6.036,-3.475 13.188,-2.896 18.666,1.518 4.427,3.564 8.227,10.297 5.618,18.503 z M 356.314,136.887 c -1.844,8.363 -3.557,20.994 -1.311,33.854 0.184,1.051 0.051,2.11 -0.343,3.07 -1.526,0.462 -4.74,1.395 -9.351,2.548 -10.093,0.671 -17.73,0.491 -20.467,0.388 -1.023,-0.04 -1.858,-0.027 -2.637,0.039 l -0.39,0.036 c -5.546,0.534 -10.606,2.896 -14.562,6.576 -6.955,0.875 -14.462,1.601 -22.4,2.059 39.345,-16.677 61.434,-37.231 71.461,-48.57 z m -56.654,58.778 c -7.496,-3.117 -13.965,-6.037 -17.895,-7.854 8.181,-0.39 15.94,-1.074 23.149,-1.925 -1.707,2.08 -3.121,4.448 -4.145,7.066 -0.355,0.912 -0.727,1.816 -1.109,2.713 z m -0.885,1.999 c -2.754,6.098 -6.057,11.829 -9.647,17.144 -3.841,-7.523 -7.63,-16.394 -10.221,-25.915 3.484,1.632 10.931,5.055 19.868,8.771 z m -20.783,-4.116 c 2.674,8.567 6.202,16.509 9.731,23.302 -9.166,13.041 -19.888,23.416 -27.948,30.285 -0.126,-0.787 -0.304,-1.556 -0.534,-2.306 12.513,-19.062 17.142,-40.691 18.751,-51.281 z m 141.921,30.048 c -7.68,-2.609 -46.241,-15.496 -81.069,-23.345 40.652,0.039 71.318,-12.861 85.145,-19.998 -4.126,8.222 -9.722,23.848 -4.057,40.749 0.29,0.865 0.273,1.765 -0.019,2.594 z m -99.512,48.366 c -0.536,0.029 -1.082,-0.038 -1.61,-0.236 -7.066,-2.652 -25.476,-7.676 -43.774,2.934 -3.583,2.078 -7.604,2.851 -11.371,2.293 1.682,-0.445 3.31,-1.209 4.782,-2.321 27.276,-20.622 46.199,-56.828 52.71,-70.564 0.019,24.93 -0.602,60.515 -0.737,67.894 z m 32.574,7.847 -0.075,0.103 c -6.222,-5.588 -13.559,-10.118 -21.794,-13.294 4.556,-3.852 11.234,-7.265 20.643,-7.443 4.362,4.552 7.791,11.657 1.226,20.634 z m -29.469,-9.543 c -0.261,0.353 -0.568,0.651 -0.902,0.899 l 0.714,-70.521 c 7.291,7.378 34.106,35.041 50.118,58.597 -0.881,0.343 -1.841,0.386 -2.751,0.082 -9.422,-3.151 -32.883,-8.392 -47.179,10.943 z m 51.68,-12.338 c -15.675,-23.03 -41.502,-49.87 -49.655,-58.155 0.186,0.013 0.372,0.027 0.557,0.039 36.49,7.002 82.495,22.259 92.505,25.646 -0.76,0.607 -1.71,0.92 -2.702,0.881 -11.204,-0.485 -31.332,2.813 -40.08,30.409 -0.137,0.435 -0.358,0.826 -0.625,1.18 z m 71.213,151.256 c -0.052,0.122 -0.127,0.243 -0.184,0.364 -0.017,-0.042 -0.028,-0.085 -0.046,-0.127 l -10e-4,-10e-4 c -0.001,-0.001 -0.001,-0.002 -0.001,-0.003 l -0.086,-0.196 c -1.453,-3.245 -4.789,-5.456 -8.5,-5.634 -22.999,-1.103 -40.23,-12.406 -51.214,-33.6 -8.539,-16.474 -10.436,-33.628 -10.818,-38.593 0.016,-5.902 -0.697,-11.64 -2.053,-17.132 l 0.361,-0.109 c 0.011,-0.004 1.074,-0.32 2.776,-0.471 10.301,-0.912 16.49,5.969 18.666,12.13 2.202,6.238 1.69,15.592 -7.001,21.425 -0.992,0.666 -2.105,1.292 -3.31,1.862 l 1.076,2.867 c 8.411,-2.38 14.965,2.644 17.729,8.674 2.531,5.522 2.6,13.88 -5.537,19.26 l -0.385,0.236 1.583,2.632 c 1.808,-1.029 6.672,-3.338 12.756,-2.577 5.483,0.686 10.087,4.011 12.016,8.675 1.296,3.131 1.27,6.402 -0.08,9.724 l 2.816,1.227 c 0.008,-0.017 0.807,-1.683 2.615,-3.203 4.691,-3.944 10.052,-2.601 13.217,-0.25 3.189,2.366 6.045,7.145 3.605,12.82 z"
   id="path4"
   sodipodi:nodetypes="ccccccccccccccccccccccccccccccccccccccccccscscscccccssccccccccccccccccccccccccccccccccccsccccccccsccsccccccccccccccccccccccsccccccccccccsccscccccccccccccccccssccssccccccccsccccccccccccccccccccccccccccccccccccccccccccccccccccccccccccsccccccccccccccccscccccccccccccccccccccccccccccccccccccccccccccscccscsccccccscccccccccccccccccccccccsscccccccccccccccccccccccccscccccccccccsscccccccccsccsccccccccccccccssscccscccsccccccccscscccccccssscscscccccccsccccsccccsccccccccccccccccccccccccccccccccccccccccccccccsccccccccccccccccccsccccccccccccccccccccccccccccccccccccccscccccccccccccsccccsccccccccccsccccccccccccccccccccccc" />&#10;		<path
   style="fill:#000000;fill-opacity:1;stroke:none;stroke-opacity:1"
   d="m 136.395,172.574 c -3.036,-0.33 -5.806,2.233 -6.185,5.726 -0.379,3.492 1.775,6.59 4.811,6.92 3.036,0.33 5.806,-2.234 6.185,-5.726 0.379,-3.492 -1.775,-6.59 -4.811,-6.92 z"
   id="path5" />&#10;		<path
   style="fill:#000000;fill-opacity:1;stroke:none;stroke-opacity:1"
   d="m 88.914,170.712 c -2.549,-0.277 -4.874,1.875 -5.193,4.807 -0.319,2.932 1.49,5.533 4.039,5.81 2.549,0.277 4.874,-1.875 5.193,-4.807 0.319,-2.932 -1.489,-5.533 -4.039,-5.81 z"
   id="path6" />&#10;		<path
   style="fill:#000000;fill-opacity:1;stroke:none;stroke-opacity:1"
   d="m 197.126,145.458 c 0.98,-9.022 -4.771,-17.047 -12.846,-17.925 -8.075,-0.877 -15.415,5.725 -16.396,14.747 -0.98,9.022 4.771,17.047 12.846,17.925 8.075,0.878 15.416,-5.725 16.396,-14.747 z m -18.704,-0.395 c -3.485,-0.379 -6.003,-3.51 -5.624,-6.995 0.379,-3.485 3.51,-6.003 6.995,-5.624 3.485,0.379 6.003,3.51 5.624,6.995 -0.378,3.485 -3.51,6.003 -6.995,5.624 z"
   id="path7" />&#10;		<path
   style="fill:#000000;fill-opacity:1;stroke:none;stroke-opacity:1"
   d="m 190.257,122.77 c 0.232,0.025 5.692,0.672 7.766,5.328 0.451,1.013 1.394,1.653 2.422,1.764 0.51,0.055 1.041,-0.02 1.543,-0.243 1.515,-0.675 2.196,-2.45 1.522,-3.965 -3.516,-7.895 -12.264,-8.818 -12.659,-8.861 -1.643,-0.158 -3.097,1.041 -3.265,2.684 -0.169,1.642 1.03,3.114 2.671,3.293 z"
   id="path8" />&#10;		<path
   style="fill:#000000;fill-opacity:1;stroke:none;stroke-opacity:1"
   d="m 142.679,110.104 c -0.307,-0.113 -7.082,-2.635 -12.559,1.889 -1.051,0.868 -1.199,2.424 -0.331,3.475 0.288,0.348 0.652,0.598 1.047,0.743 0.797,0.294 1.725,0.168 2.428,-0.412 3.23,-2.668 7.486,-1.145 7.665,-1.079 1.273,0.469 2.694,-0.175 3.171,-1.446 0.477,-1.27 -0.154,-2.685 -1.421,-3.17 z"
   id="path9" />&#10;		&#10;			<line
   style="fill:#000000;fill-opacity:1;stroke:none;stroke-width:0;stroke-linecap:round;stroke-linejoin:round;stroke-opacity:1"
   x1="238.858"
   y1="90.877998"
   x2="238.858"
   y2="90.877998"
   id="line9" />&#10;		<path
   style="fill:#000000;fill-opacity:1;stroke:none;stroke-opacity:1"
   d="m 212.974,244.208 c 0,0 -1.088,4.25 -6.754,3.709 -5.666,-0.541 -5.93,-4.921 -5.93,-4.921 0,0 -1.045,4.573 -6.711,4.032 -5.666,-0.541 -5.973,-5.244 -5.973,-5.244 0,0 -1.429,4.363 2.665,6.999 1.74,1.12 5.892,1.566 9.539,-0.614 0,0 3.132,3.225 8.134,2.57 1.709,-0.224 3.315,-1.073 4.249,-2.521 0.624,-0.967 1.061,-2.29 0.781,-4.01 z"
   id="path10" />&#10;		<path
   style="fill:#000000;fill-opacity:1;stroke:none;stroke-opacity:1"
   d="m 242.554,323.823 c 0,0 -1.43,4.363 2.665,6.999 1.74,1.12 5.892,1.566 9.539,-0.614 0,0 3.132,3.225 8.134,2.571 1.709,-0.224 3.315,-1.073 4.249,-2.521 0.625,-0.968 1.061,-2.291 0.781,-4.01 0,0 -1.088,4.25 -6.754,3.709 -5.666,-0.541 -5.93,-4.921 -5.93,-4.921 0,0 -1.045,4.573 -6.711,4.032 -5.666,-0.542 -5.973,-5.245 -5.973,-5.245 z"
   id="path11" />&#10;		<path
   style="fill:#000000;fill-opacity:1;stroke:none;stroke-opacity:1"
   d="m 319.047,299.76 c 1.74,1.12 5.892,1.566 9.539,-0.614 0,0 3.132,3.225 8.134,2.57 1.709,-0.224 3.315,-1.073 4.249,-2.521 0.625,-0.968 1.062,-2.291 0.781,-4.01 0,0 -1.088,4.25 -6.754,3.709 -5.667,-0.541 -5.93,-4.921 -5.93,-4.921 0,0 -1.045,4.573 -6.711,4.032 -5.666,-0.541 -5.973,-5.244 -5.973,-5.244 0,0 -1.43,4.364 2.665,6.999 z"
   id="path12" />&#10;		<path
   style="fill:#000000;fill-opacity:1;stroke:none;stroke-opacity:1"
   d="m 390.079,388.372 c 0,0 -1.088,4.25 -6.754,3.709 -5.666,-0.541 -5.93,-4.921 -5.93,-4.921 0,0 -1.045,4.573 -6.711,4.032 -5.666,-0.541 -5.973,-5.244 -5.973,-5.244 0,0 -1.43,4.363 2.665,6.999 1.74,1.12 5.892,1.566 9.539,-0.614 0,0 3.132,3.225 8.134,2.57 1.709,-0.224 3.315,-1.073 4.249,-2.521 0.624,-0.968 1.061,-2.29 0.781,-4.01 z"
   id="path13" />&#10;		<g
   id="g15"
   style="fill:#000000;fill-opacity:1;stroke:none;stroke-opacity:1">&#10;			<path
   style="fill:none;fill-opacity:1;stroke:none;stroke-opacity:1"
   d="m 77.179,242.731 c 3.13,-3.893 9.378,-9.868 17.332,-8.261 6.444,1.301 10.202,7.895 8.345,14.201 -1.117,3.793 -3.417,8.206 -8.046,12.047 -4.226,3.506 -9.469,5.534 -14.917,6.221 -6.03,0.76 -15.229,1.127 -21.749,-2.238 0,0 10.746,-2.595 16.273,-7.499 0,0 -12.524,1.917 -17.336,-8.146 0,0 2.056,0.616 5.065,0.691 5.81,0.146 11.391,-2.486 15.033,-7.016 z"
   id="path14" />&#10;			<path
   style="fill:#000000;fill-opacity:1;stroke:none;stroke-opacity:1"
   d="m 72.101,268.991 c -5.014,0 -10.352,-0.7 -14.662,-2.925 l -3.661,-1.89 4.004,-0.969 c 0.081,-0.02 6.43,-1.58 11.665,-4.457 -0.7,-0.074 -1.442,-0.185 -2.208,-0.345 -5.37,-1.12 -9.363,-4.124 -11.545,-8.687 l -1.497,-3.13 3.324,0.996 c 0.016,0.004 1.922,0.558 4.663,0.627 5.305,0.126 10.447,-2.277 13.797,-6.443 v 0 c 3.256,-4.051 10.031,-10.581 18.834,-8.805 3.465,0.7 6.38,2.754 8.208,5.787 1.86,3.084 2.336,6.858 1.306,10.355 -1.476,5.013 -4.349,9.318 -8.539,12.796 -4.261,3.535 -9.692,5.805 -15.705,6.563 -2.391,0.301 -5.136,0.527 -7.984,0.527 z m -9.163,-4.113 c 5.467,1.448 11.883,1.151 16.763,0.537 5.432,-0.685 10.317,-2.717 14.127,-5.879 3.712,-3.08 6.253,-6.882 7.554,-11.299 0.787,-2.672 0.426,-5.552 -0.99,-7.9 -1.378,-2.285 -3.574,-3.834 -6.185,-4.361 -7.202,-1.456 -13.011,4.211 -15.831,7.718 v 0 c -3.946,4.909 -10.031,7.731 -16.269,7.589 -0.655,-0.017 -1.268,-0.057 -1.83,-0.111 5.018,5.785 13.807,4.528 13.908,4.512 l 5.147,-0.788 -3.895,3.456 c -3.47,3.078 -8.754,5.257 -12.499,6.526 z"
   id="path15" />&#10;		</g>&#10;	</g>&#10;	<g
   id="g20"
   style="fill:#000000;fill-opacity:1;stroke:none;stroke-opacity:1">&#10;		<path
   style="fill:#000000;fill-opacity:1;stroke:none;stroke-opacity:1"
   d="m 446.666,259.455 -9.092,-2.834 -2.834,-9.092 c -0.4,-1.284 -1.589,-2.158 -2.933,-2.158 -1.345,0 -2.533,0.874 -2.934,2.158 l -2.834,9.092 -9.092,2.834 c -1.284,0.4 -2.158,1.589 -2.158,2.934 0,1.345 0.874,2.533 2.158,2.933 l 9.092,2.834 2.834,9.092 c 0.4,1.284 1.589,2.158 2.934,2.158 1.345,0 2.533,-0.874 2.933,-2.158 l 2.834,-9.092 9.092,-2.834 c 1.284,-0.4 2.158,-1.589 2.158,-2.933 0,-1.344 -0.874,-2.534 -2.158,-2.934 z m -0.914,2.933 -10.631,3.314 -3.314,10.631 -3.314,-10.631 -10.631,-3.314 10.631,-3.314 3.314,-10.631 3.314,10.631 z"
   id="path16" />&#10;		<path
   style="fill:#000000;fill-opacity:1;stroke:none;stroke-opacity:1"
   d="m 229.29,55.608 -9.444,-2.944 -2.944,-9.444 c -0.4,-1.284 -1.589,-2.158 -2.933,-2.158 -1.345,0 -2.533,0.874 -2.933,2.158 l -2.944,9.444 -9.444,2.944 c -1.284,0.4 -2.158,1.589 -2.158,2.933 0,1.344 0.874,2.533 2.158,2.933 l 9.444,2.944 2.944,9.444 c 0.4,1.284 1.589,2.158 2.933,2.158 1.345,0 2.533,-0.874 2.933,-2.158 l 2.944,-9.444 9.444,-2.944 c 1.284,-0.4 2.158,-1.589 2.158,-2.933 0,-1.344 -0.874,-2.533 -2.158,-2.933 z m -0.915,2.934 -10.983,3.424 -3.424,10.983 -3.424,-10.983 -10.983,-3.424 10.983,-3.424 3.424,-10.983 3.424,10.983 z"
   id="path17" />&#10;		<path
   style="fill:#000000;fill-opacity:1;stroke:none;stroke-opacity:1"
   d="m 110.207,369.195 -11.867,-3.7 -3.7,-11.867 c -0.4,-1.284 -1.589,-2.158 -2.933,-2.158 -1.345,0 -2.533,0.874 -2.933,2.158 l -3.7,11.867 -11.867,3.7 c -1.284,0.4 -2.158,1.589 -2.158,2.933 0,1.344 0.874,2.533 2.158,2.934 l 11.867,3.7 3.7,11.867 c 0.4,1.284 1.589,2.158 2.933,2.158 1.345,0 2.533,-0.874 2.933,-2.158 l 3.7,-11.867 11.867,-3.7 c 1.284,-0.4 2.158,-1.589 2.158,-2.934 0,-1.345 -0.874,-2.533 -2.158,-2.933 z m -0.914,2.933 -13.407,4.179 -4.179,13.406 -4.179,-13.406 -13.406,-4.179 13.406,-4.179 4.179,-13.406 4.179,13.406 z"
   id="path18" />&#10;		<path
   style="fill:#000000;fill-opacity:1;stroke:none;stroke-opacity:1"
   d="m 469.292,272.943 -4.514,-1.407 -1.407,-4.514 c -0.4,-1.284 -1.589,-2.158 -2.933,-2.158 -1.344,0 -2.533,0.874 -2.934,2.158 l -1.407,4.514 -4.514,1.407 c -1.284,0.4 -2.158,1.589 -2.158,2.933 0,1.344 0.874,2.533 2.158,2.933 l 4.514,1.407 1.407,4.514 c 0.4,1.284 1.589,2.158 2.934,2.158 1.345,0 2.533,-0.874 2.933,-2.158 l 1.407,-4.514 4.514,-1.407 c 1.284,-0.4 2.158,-1.589 2.158,-2.933 0,-1.344 -0.875,-2.533 -2.158,-2.933 z m -0.915,2.933 -6.053,1.887 -1.887,6.053 -1.887,-6.053 -6.053,-1.887 6.053,-1.887 1.887,-6.053 1.887,6.053 z"
   id="path19" />&#10;		<path
   style="fill:#000000;fill-opacity:1;stroke:none;stroke-opacity:1"
   d="m 53.354,218.08 -6.395,-1.994 -1.994,-6.395 c -0.4,-1.284 -1.589,-2.158 -2.933,-2.158 -1.345,0 -2.533,0.874 -2.933,2.158 l -1.994,6.395 -6.395,1.994 c -1.284,0.4 -2.158,1.589 -2.158,2.933 0,1.345 0.874,2.533 2.158,2.934 l 6.395,1.994 1.994,6.395 c 0.4,1.284 1.589,2.158 2.933,2.158 1.345,0 2.533,-0.874 2.933,-2.158 l 1.994,-6.395 6.395,-1.994 c 1.284,-0.4 2.158,-1.589 2.158,-2.934 0,-1.344 -0.875,-2.533 -2.158,-2.933 z m -0.915,2.934 -7.934,2.474 -2.474,7.935 -2.474,-7.935 -7.934,-2.474 7.934,-2.474 2.474,-7.935 2.474,7.935 z"
   id="path20" />&#10;	</g>&#10;</g></g>&#10;</svg>
