<?xml version="1.0" encoding="UTF-8" standalone="no"?>
<!-- Generator: Adobe Illustrator 27.5.0, SVG Export Plug-In . SVG Version: 6.00 Build 0)  -->

<svg
   version="1.1"
   x="0px"
   y="0px"
   viewBox="0 0 452.59698 517.40002"
   xml:space="preserve"
   id="svg82"
   sodipodi:docname="dragon.svg"
   width="452.59698"
   height="517.40002"
   inkscape:version="1.3 (0e150ed6c4, 2023-07-21)"
   xmlns:inkscape="http://www.inkscape.org/namespaces/inkscape"
   xmlns:sodipodi="http://sodipodi.sourceforge.net/DTD/sodipodi-0.dtd"
   xmlns="http://www.w3.org/2000/svg"
   xmlns:svg="http://www.w3.org/2000/svg"><defs
   id="defs82" /><sodipodi:namedview
   id="namedview82"
   pagecolor="#ffffff"
   bordercolor="#000000"
   borderopacity="0.25"
   inkscape:showpageshadow="2"
   inkscape:pageopacity="0.0"
   inkscape:pagecheckerboard="0"
   inkscape:deskcolor="#d1d1d1"
   inkscape:zoom="1.137"
   inkscape:cx="268.68954"
   inkscape:cy="127.08883"
   inkscape:window-width="2560"
   inkscape:window-height="1351"
   inkscape:window-x="1191"
   inkscape:window-y="187"
   inkscape:window-maximized="1"
   inkscape:current-layer="g1" />&#10;&#10;<g
   id="OBJECTS"
   transform="translate(-63.356721,-15.789057)">&#10;	<g
   id="g82">&#10;		&#10;		&#10;		&#10;		&#10;		<g
   id="g1"
   transform="translate(31.499756,24.499859)"><g
     id="g78">&#10;			<path
   style="fill:none;stroke:#000000;stroke-width:2;stroke-linecap:round;stroke-linejoin:round;stroke-miterlimit:10"
   d="m 295.88,61.85 c -12.31,-0.37 -24.68,4.56 -33.37,13.28 -8.69,8.72 -13.56,21.12 -13.15,33.43"
   id="path1" />&#10;			<path
   style="fill:none;stroke:#000000;stroke-width:2;stroke-linecap:round;stroke-linejoin:round;stroke-miterlimit:10"
   d="m 291.57,61.3 c 5.21,-3.83 11.9,-5.6 18.33,-4.85 6.43,0.75 12.53,4 16.73,8.92"
   id="path2" />&#10;			<path
   style="fill:none;stroke:#000000;stroke-width:2;stroke-linecap:round;stroke-linejoin:round;stroke-miterlimit:10"
   d="m 320.13,63.39 c 8.03,2.02 15.5,6.22 21.38,12.04"
   id="path3" />&#10;			<path
   style="fill:none;stroke:#000000;stroke-width:2;stroke-linecap:round;stroke-linejoin:round;stroke-miterlimit:10"
   d="m 295.02,58.5 c 8.37,-15.4 17.41,-31.52 32.41,-40.59 1.66,-1 4.06,-1.79 5.29,-0.3 0.93,1.13 0.48,2.8 0.01,4.18 -4.5,13.25 -6.94,27.19 -7.21,41.17"
   id="path4" />&#10;			<path
   style="fill:none;stroke:#000000;stroke-width:2;stroke-linecap:round;stroke-linejoin:round;stroke-miterlimit:10"
   d="m 339.49,73.36 c 3.28,-6.91 6.56,-13.83 9.84,-20.74 0.19,-0.4 0.38,-0.84 0.26,-1.26 -0.25,-0.88 -1.49,-0.9 -2.38,-0.69 -8.18,1.92 -15.67,6.66 -20.92,13.22"
   id="path5" />&#10;			<path
   style="fill:none;stroke:#000000;stroke-width:2;stroke-linecap:round;stroke-linejoin:round;stroke-miterlimit:10"
   d="M 339.85,77.12 C 357.67,68.83 375.32135,65.529938 394.88135,67.459938 376.76135,68.419938 361.41,75.05 347.03,86.96 c 0.98,3.22 1.56,5.81 1.99,10.27 14.33,-3.18 27.16111,-3.519815 41.38111,0.130185 -14.31,0.14 -27.01111,0.669815 -40.05111,6.689815 0.4,3.75 0.48,7.54 0.26,11.89 8.42,3.04 14.87135,5.37969 23.82135,5.85969 -8.72,2.01 -15.55135,1.09031 -24.08135,-1.60969"
   id="path6"
   sodipodi:nodetypes="ccccccccc" />&#10;			<path
   style="fill:none;stroke:#000000;stroke-width:2;stroke-linecap:round;stroke-linejoin:round;stroke-miterlimit:10"
   d="m 394.95,67.82 c -4.07,9.04 -5.57,19.21 -4.29,29.04"
   id="path7" />&#10;			<path
   style="fill:none;stroke:#000000;stroke-width:2;stroke-linecap:round;stroke-linejoin:round;stroke-miterlimit:10"
   d="m 374.72,121.56 c 1.79,-9.61 7.55,-18.42 15.64,-23.91"
   id="path8" />&#10;			<path
   style="fill:none;stroke:#000000;stroke-width:2;stroke-linecap:round;stroke-linejoin:round;stroke-miterlimit:10"
   d="m 271.51,109.68 c -9.63,-3.96 -21.39,-2.16 -29.4,4.49 -8.02,6.65 -11.95,17.87 -9.36,29.13 10.95,-1.94 22.24,-1.89 33.17,0.14 6.43,1.2 12.83,3.09 19.36,2.81 5.45,-0.23 10.82,-2.02 15.32,-5.09 2.51,-1.71 4.85,-3.86 7.79,-4.61 3.54,-0.91 7.49,0.34 10.83,-1.16 3.1,-1.39 4.74,-4.72 6.5,-7.63 1.75,-2.91 4.39,-5.9 7.79,-5.78"
   id="path9" />&#10;			<path
   style="fill:none;stroke:#000000;stroke-width:1.1;stroke-linecap:round;stroke-linejoin:round;stroke-miterlimit:10;stroke-dasharray:none"
   d="m 276.13,145.7 c 2.37,4.13 1.33364,1.67689 3.92273,4.8188 1.44011,1.57971 3.16569,1.98842 5.09602,0.78622 1.81392,-1.19142 1.84606,-0.96862 3.95125,-5.37502"
   id="path10"
   sodipodi:nodetypes="cccc" />&#10;			<path
   style="fill:none;stroke:#000000;stroke-width:1.1;stroke-linecap:round;stroke-linejoin:round;stroke-miterlimit:10;stroke-dasharray:none"
   d="m 233.22,143.14 c 1.35,4.36 1.57068,3.61296 4.67068,6.97296 3.18642,0.024 2.64055,-0.19549 4.26963,-1.39485 1.75447,-2.60851 2.17969,-2.11492 2.99969,-6.22811"
   id="path11"
   sodipodi:nodetypes="cccc" />&#10;			<path
   style="fill:none;stroke:#000000;stroke-width:1.1;stroke-linecap:round;stroke-linejoin:round;stroke-miterlimit:10;stroke-dasharray:none"
   d="m 289.26,148.57 c 4.88854,3.77112 6.57306,1.45283 7.25452,-0.20214 1.07,-2.59 1.83548,-3.03786 1.96548,-5.84786"
   id="path12"
   sodipodi:nodetypes="ccc" />&#10;			<path
   style="fill:none;stroke:#000000;stroke-width:1.1;stroke-linecap:round;stroke-linejoin:round;stroke-miterlimit:10;stroke-dasharray:none"
   d="m 299.81,142.1 c 0.78,0.31 1.39,0.94 1.94,1.57 0.56,0.63 1.1,1.3 1.82,1.73 0.72,0.43 1.68,0.59 2.39,0.15 0.68,-0.41 0.98,-1.23 1.16,-2.01 0.45,-1.91 0.47,-3.88 0.49,-5.84"
   id="path13" />&#10;			<path
   style="fill:none;stroke:#000000;stroke-width:1.1;stroke-linecap:round;stroke-linejoin:round;stroke-miterlimit:10;stroke-dasharray:none"
   d="m 309.1,136.75 c 0.96,0.87 1.38,2.16 2.02,3.28 0.64,1.12 1.77,2.18 3.05,1.98 1.1,-0.17 1.86,-1.23 2.19,-2.29 0.33,-1.06 0.38,-2.21 0.75,-3.26"
   id="path14" />&#10;			<path
   style="fill:none;stroke:#000000;stroke-width:1.1;stroke-linecap:round;stroke-linejoin:round;stroke-miterlimit:10;stroke-dasharray:none"
   d="m 268.07,144.59 c 0.58,2 1.43,3.93 2.51,5.71 3.39724,2.53679 5.20342,-0.0716 6.84191,-2.17548"
   id="path15"
   sodipodi:nodetypes="ccc" />&#10;			<path
   style="fill:none;stroke:#000000;stroke-width:1.1;stroke-linecap:round;stroke-linejoin:round;stroke-miterlimit:10;stroke-dasharray:none"
   d="m 257.97,142.71 c 0.84,2.19 1.06809,3.32167 2.42809,5.24167 3.93763,5.68798 6.95001,-1.0864 7.47191,-2.38167"
   id="path16"
   sodipodi:nodetypes="ccc" />&#10;			<path
   style="fill:none;stroke:#000000;stroke-width:1.1;stroke-linecap:round;stroke-linejoin:round;stroke-miterlimit:10;stroke-dasharray:none"
   d="m 256.9,142.9 c -0.72,2.12 -1.07809,3.83905 -2.29809,5.71905 -1.06511,1.82753 -3.21954,1.88716 -4.78191,0.77095 -2.03,-1.74 -3.29,-4.35 -3.39,-7.02"
   id="path17"
   sodipodi:nodetypes="cccc" />&#10;			<path
   style="fill:none;stroke:#000000;stroke-width:2;stroke-linecap:round;stroke-linejoin:round;stroke-miterlimit:10"
   d="m 326.56,126.46 c -2.97,14.28 -7.95,22.81 -15.55,33.47 -7.6,10.66 -19.14,19.44 -32.21,20.02 -4.03,0.18 -8.44,-0.61 -11.11,-3.63 -2.95,-3.33 -2.9,-8.3 -2.44,-12.72 0.46,-4.43 1.12,-9.18 -1.01,-13.09"
   id="path18" />&#10;			<path
   style="fill:none;stroke:#000000;stroke-width:1.1;stroke-linecap:round;stroke-linejoin:round;stroke-miterlimit:10;stroke-dasharray:none"
   d="m 304.54,166.73 c -2.57813,-3.52797 -7.21955,-4.02628 -8.91661,0.0516 0.25,3.29 0.60661,3.19839 0.85661,6.49839"
   id="path19"
   sodipodi:nodetypes="ccc" />&#10;			<path
   style="fill:none;stroke:#000000;stroke-width:1.1;stroke-linecap:round;stroke-linejoin:round;stroke-miterlimit:10;stroke-dasharray:none"
   d="m 303.5,165.14 c 0.18,-1.27 -0.25,-2.54 -0.38,-3.82 -0.13,-1.28 0.19,-2.78 1.33,-3.37 0.62,-0.32 1.36,-0.3 2.05,-0.23 1.54,0.16 3.05,0.51 4.5,1.06"
   id="path20" />&#10;			<path
   style="fill:none;stroke:#000000;stroke-width:1.1;stroke-linecap:round;stroke-linejoin:round;stroke-miterlimit:10;stroke-dasharray:none"
   d="m 309.73,157.89 c 0.03,-0.97 -0.23,-1.92 -0.33,-2.88 -0.1,-0.96 -0.05,-2.01 0.54,-2.78 0.61,-0.8 1.69,-1.13 2.7,-1.08 1.01,0.04 1.97,0.41 2.91,0.76"
   id="path21" />&#10;			<path
   style="fill:none;stroke:#000000;stroke-width:1.1;stroke-linecap:round;stroke-linejoin:round;stroke-miterlimit:10;stroke-dasharray:none"
   d="m 319.87,144.26 c -0.84,-0.32 -1.7,-0.65 -2.6,-0.65 -0.9,-0.01 -1.86,0.37 -2.29,1.16 -0.42,0.77 -0.26,1.72 -0.01,2.56 0.38,1.27 0.93,2.49 1.64,3.6"
   id="path22" />&#10;			<path
   style="fill:none;stroke:#000000;stroke-width:1.1;stroke-linecap:round;stroke-linejoin:round;stroke-miterlimit:10;stroke-dasharray:none"
   d="m 296.14,173.07 c -0.97,-0.54 -1.74,-1.36 -2.62,-2.04 -0.88,-0.68 -1.95,-1.23 -3.05,-1.09 -0.4,0.05 -0.8,0.2 -1.13,0.43 -1.02,0.71 -1.37,2.07 -1.4,3.31 -0.03,1.25 0.18,2.51 -0.4,4.11 -1.46,-1.5 -2.93,-2.99 -4.39,-4.49 -0.35,-0.36 -0.75,-0.75 -1.26,-0.79 -0.69,-0.07 -1.26,0.51 -1.64,1.08 -1.13,1.67 -1.65,3.75 -1.44,5.75"
   id="path23" />&#10;			<path
   style="fill:none;stroke:#000000;stroke-width:1.1;stroke-linecap:round;stroke-linejoin:round;stroke-miterlimit:10;stroke-dasharray:none"
   d="m 278.64,177.25 c -0.75,-1.47 -1.76,-2.82 -2.95,-3.96 -0.34,-0.32 -0.71,-0.64 -1.16,-0.75 -0.7,-0.17 -1.43,0.19 -2,0.63 -1.22,0.94 -2.11,2.3 -2.47,3.8"
   id="path24" />&#10;			<path
   style="fill:none;stroke:#000000;stroke-width:1.1;stroke-linecap:round;stroke-linejoin:round;stroke-miterlimit:10;stroke-dasharray:none"
   d="m 271.69,173.78 c 2.25551,-3.77964 -1.72368,-10.20337 -6.42012,-7.12031"
   id="path25"
   sodipodi:nodetypes="cc" />&#10;			<path
   style="fill:none;stroke:#000000;stroke-width:2;stroke-linecap:round;stroke-linejoin:round;stroke-miterlimit:10"
   d="m 254.27321,149.92191 c 3.48,5.46 3.75679,11.59809 4.61679,18.01809 0.86,6.42 2.42,13.26 7.24,17.58 2.98,2.67 6.94,4.08 10.92,4.5 7.8,0.83 15.6,-1.9 22.46,-5.7 6.87,-3.8 13.08,-8.68 19.83,-12.68 5.76,-3.42 11.95,-6.22 17.06,-10.55 5.11,-4.33 12.46313,-11.92429 11.91313,-18.60429"
   id="path26"
   sodipodi:nodetypes="csccccsc" />&#10;			<path
   style="fill:none;stroke:#000000;stroke-width:2;stroke-linecap:round;stroke-linejoin:round;stroke-miterlimit:10"
   d="M 266.52,71.62 C 259.45,64.26 251.43932,59.649631 241.51932,57.269631 249.36932,63.239631 254.6,70.39 258.97,79.24"
   id="path27"
   sodipodi:nodetypes="ccc" />&#10;			<path
   style="fill:none;stroke:#000000;stroke-width:2;stroke-linecap:round;stroke-linejoin:round;stroke-miterlimit:10"
   d="M 254.22,86.65 C 247.04,84.6 241.99846,84.270062 234.69846,85.920062 241.38846,87.680062 245.05,90.45 250.93,93.89"
   id="path28"
   sodipodi:nodetypes="ccc" />&#10;			<path
   style="fill:none;stroke:#000000;stroke-width:2;stroke-linecap:round;stroke-linejoin:round;stroke-miterlimit:10"
   d="m 241,57.39 c -0.13,9.76 -2.45,19.49 -6.74,28.26"
   id="path29" />&#10;			<path
   style="fill:none;stroke:#000000;stroke-width:2;stroke-linecap:round;stroke-linejoin:round;stroke-miterlimit:10"
   d="m 248.54,105.03 c -3.73,0.68 -5.52105,1.28025 -9.05105,2.67025 3.23,0.69 4.60105,1.81975 7.83105,2.51975"
   id="path30"
   sodipodi:nodetypes="ccc" />&#10;			<path
   style="fill:none;stroke:#000000;stroke-width:2;stroke-linecap:round;stroke-linejoin:round;stroke-miterlimit:10"
   d="m 191.13,298.08 c -0.12,0.26 -0.25,0.53 -0.36,0.78 -2.75,6.18 -4.85,12.61 -6.32,19.2 -0.36,1.6 -1.7,2.21 -1.93,1.8 -5.29536,-6.45202 -9.96465,-12.41309 -9.79,-24.11 7.98798,-0.79417 12.45,0.55 18.4,2.33 z"
   id="path31"
   sodipodi:nodetypes="cccccc" />&#10;			<path
   style="fill:#ffffff;stroke:#000000;stroke-width:2;stroke-linecap:round;stroke-linejoin:round;stroke-miterlimit:10"
   d="m 276.84,418.91 c -0.68,-2.71 -1.37,-5.48 -1.11,-8.26 0.26,-2.78 1.64,-5.62 4.14,-6.87 3.31,-1.65 7.35,-0.05 10.24,2.25 5.43,4.31 8.76,11.15 8.81,18.08 -6.6,-3.25 -14.05,-4.77 -22.08,-5.2 z"
   id="path32" />&#10;			<path
   style="fill:none;stroke:#000000;stroke-width:2;stroke-linecap:round;stroke-linejoin:round;stroke-miterlimit:10"
   d="m 239.27,107.69 c 0.9,-7.4 -0.9,-15.09 -4.97,-21.33"
   id="path33" />&#10;			<path
   style="fill:none;stroke:#000000;stroke-width:2;stroke-linecap:round;stroke-linejoin:round;stroke-miterlimit:10"
   d="m 294.75,114.22 c -1.91,-7.83 1.78,-16.69 8.69,-20.84 6.91,-4.15 16.47,-3.25 22.48,2.11"
   id="path34" />&#10;			&#10;				<ellipse
   style="fill:none;stroke:#000000;stroke-width:1.5;stroke-linecap:round;stroke-linejoin:round;stroke-miterlimit:10;stroke-dasharray:none"
   cx="312.19"
   cy="106.11"
   rx="9.5500002"
   ry="12.23"
   id="ellipse34" />&#10;			<path
   d="m 311.78081,101.15094 c -2.9764,0.0308 -3.73974,2.9538 -3.77358,4.3314 -0.0405,1.64925 0.50205,3.50693 3.84277,4.80049 3.86224,-0.59707 4.52943,-3.32387 4.45617,-5.12519 -0.0571,-1.40468 -1.79626,-3.93435 -4.52536,-4.0067 z"
   id="path35"
   sodipodi:nodetypes="cscsc" />&#10;			<path
   style="fill:none;stroke:#000000;stroke-width:2;stroke-linecap:round;stroke-linejoin:round;stroke-miterlimit:10"
   d="m 337.15,263.14 c 7.79,-3.74 21.54,-12.68 28.49,-16.02 6.43,-3.09 14.17,-0.2 16.94,6.37 3.89,9.22 6.68,18.94 9.44,28.59 1.19,4.17 1.62262,8.53774 1.21262,12.84774 -5.58761,16.05017 -6.41142,8.93497 -8.06262,-1.04774"
   id="path36"
   sodipodi:nodetypes="cccccc" />&#10;			<path
   style="fill:none;stroke:#000000;stroke-width:2;stroke-linecap:round;stroke-linejoin:round;stroke-miterlimit:10"
   d="m 358.58,269 c 1.2,9.15 2.41,18.29 3.61,27.44 0.32,2.46 0.64,4.97 0.14,7.39 -6.84022,9.25197 0.55502,8.09108 6.94,3.67 3.14,-2.43 4.96,-6.46 4.73,-10.42 3.3079,33.5568 14.24951,-5.94935 9.64,-13.65"
   id="path37"
   sodipodi:nodetypes="cccccc" />&#10;			<path
   style="fill:#ffffff;stroke:#000000;stroke-width:2;stroke-linecap:round;stroke-linejoin:round;stroke-miterlimit:10"
   d="m 358.01,403.72 c -0.63,-2.72 -1.27,-5.5 -0.96,-8.28 0.31,-2.78 1.75,-5.59 4.27,-6.79 3.34,-1.59 7.35,0.09 10.2,2.44 5.35,4.41 8.55,11.31 8.47,18.24 -6.53,-3.38 -13.95,-5.03 -21.98,-5.61 z"
   id="path38" />&#10;			<path
   style="fill:none;stroke:#000000;stroke-width:2;stroke-linecap:round;stroke-linejoin:round;stroke-miterlimit:10"
   d="m 338.36,297.77 c 8.08,-4.01 15.31,-10.2 21.14,-17.15"
   id="path39" />&#10;			<path
   style="fill:#ffffff;stroke:#000000;stroke-width:2;stroke-linecap:round;stroke-linejoin:round;stroke-miterlimit:10"
   d="m 260.66,422.67 c -0.58,-2.73 -1.17,-5.53 -0.81,-8.3 0.36,-2.77 1.84,-5.56 4.39,-6.71 3.36,-1.53 7.35,0.22 10.16,2.62 5.27,4.51 8.35,11.46 8.15,18.39 -6.49,-3.5 -13.88,-5.28 -21.89,-6 z"
   id="path40" />&#10;			<path
   style="fill:none;stroke:#000000;stroke-width:1.6;stroke-linecap:round;stroke-linejoin:round;stroke-miterlimit:10;stroke-dasharray:none"
   d="m 294.67392,114.86626 c 2.0366,3.01345 12.22656,5.22142 16.22608,4.76374 3.57899,-0.40956 7.29,-1.15 10,-3.53 2.27,-2 4.65428,-4.28229 5.5306,-7.17583 0.97547,-3.22096 1.04723,-9.309991 -0.0259,-12.750313"
   id="path41"
   sodipodi:nodetypes="cscsc" />&#10;			<path
   style="fill:#ffffff;stroke:#000000;stroke-width:2;stroke-linecap:round;stroke-linejoin:round;stroke-miterlimit:10"
   d="m 347.59,405.23 c -0.63,-2.72 -1.27,-5.5 -0.96,-8.28 0.31,-2.78 1.75,-5.59 4.27,-6.79 3.34,-1.59 7.35,0.09 10.2,2.44 5.35,4.41 8.55,11.31 8.47,18.24 -6.53,-3.38 -13.95,-5.03 -21.98,-5.61 z"
   id="path42" />&#10;			<path
   d="m 260.6,129.7 c 1.23,-2.29 2.7,-4.79 5.19,-5.55 0.95,-0.29 2.04,-0.27 2.85,0.3 0.81,0.57 1.19,1.78 0.65,2.6 -0.49,0.76 -1.5,0.95 -2.39,1.08 -2.01,0.3 -4.02,0.6 -6.3,1.57 z"
   id="path43" />&#10;			<path
   d="m 243.59,130.31 c 0.17,-1.33 0.35,-2.69 0.04,-3.99 -0.31,-1.3 -1.2,-2.56 -2.49,-2.9 -1.29,-0.34 -2.89,0.58 -2.92,1.91 -0.04,1.36 1.33,2.29 2.58,2.84 1.25,0.55 2.67,1.15 2.79,2.14 z"
   id="path44" />&#10;			<path
   style="fill:none;stroke:#000000;stroke-width:2;stroke-linecap:round;stroke-linejoin:round;stroke-miterlimit:10"
   d="m 355.88,122.12 c 0.74,26.61 -2.97,53.34 -10.2,78.99 3.9,21.92 0.27,45.1 -10.4,65.86 1.3,13.97 2.27,27.97 2.85,42.66 0.65,16.46 -3.9,32.7 -12.95,46.47 l -21.2,32.27 c -3.26,4.96 -7.36,10.43 -13.27,10.83"
   id="path45" />&#10;			<path
   style="fill:none;stroke:#000000;stroke-width:2;stroke-linecap:round;stroke-linejoin:round;stroke-miterlimit:10"
   d="m 244.21,423.73 c -13.78,-1.19 -23.79,-4.48 -33.04,-9.25 -2.52,-1.3 -5.08,-2.78 -6.7,-5.1 -1.62,-2.32 -2.03,-5.73 -0.24,-7.92 l -0.07,-0.03 c -3.99,-1.53 -7.2,-4.56 -9.24,-8.31 -11.71,-21.48 -15.57,-46.62 -11.43,-70.23 0.28,-1.61 0.6,-3.21 0.96,-4.81 1.47,-6.59 3.57,-13.02 6.32,-19.2 0.11,-0.26 0.24,-0.53 0.36,-0.78 18.89,-41.62 62.25,-67.58 83.97,-107.85"
   id="path46" />&#10;			<path
   style="fill:#ffffff;stroke:#000000;stroke-width:2;stroke-linecap:round;stroke-linejoin:round;stroke-miterlimit:10"
   d="m 243.64,423.64 c -0.43,-2.76 -0.87,-5.58 -0.36,-8.33 0.51,-2.75 2.15,-5.45 4.75,-6.46 3.44,-1.34 7.32,0.62 10,3.17 5.01,4.79 7.71,11.9 7.13,18.81 -6.28,-3.84 -13.56,-6.03 -21.52,-7.19 z"
   id="path47" />&#10;			<path
   style="fill:none;stroke:#000000;stroke-width:2;stroke-linecap:round;stroke-linejoin:round;stroke-miterlimit:10"
   d="m 170.56,327.64 c -6.87,3.33 -14.41,5.5 -21.9,7.11 -0.19,-7.81 -8.01644,-15.52226 -2.51,-23.28 12.02988,-2.58072 18.31,8.34 24.41,16.17 z"
   id="path48"
   sodipodi:nodetypes="cccc" />&#10;			<path
   style="fill:#ffffff;stroke:#000000;stroke-width:2;stroke-linecap:round;stroke-linejoin:round;stroke-miterlimit:10"
   d="m 340.05,407.79 c -0.63,-2.72 -1.27,-5.5 -0.96,-8.28 0.31,-2.78 1.75,-5.59 4.27,-6.79 3.34,-1.59 7.35,0.09 10.2,2.44 5.35,4.41 8.55,11.31 8.47,18.24 -6.53,-3.38 -13.95,-5.03 -21.98,-5.61 z"
   id="path49" />&#10;			<path
   style="fill:none;stroke:#000000;stroke-width:2;stroke-linecap:round;stroke-linejoin:round;stroke-miterlimit:10"
   d="m 136.94,336.15 c -0.33,0.35 -0.66,0.69 -1.01,1 -5.94,1.04 -11.88,2.09 -17.7,3.53 -1.16381,-6.57679 -3.82465,-13.28905 0.23,-20.41 9.50703,-0.83727 14.95,8.29 18.48,15.88 z"
   id="path50"
   sodipodi:nodetypes="ccccc" />&#10;			<path
   style="fill:none;stroke:#000000;stroke-width:2;stroke-linecap:round;stroke-linejoin:round;stroke-miterlimit:10"
   d="m 248.56,310.73 c 17.18,3.54 32.12,16.5 38.03,33.02 5.91,16.52 2.61,36.01 -9.25,50.99 -6.86,-0.33 -28.61,-0.91 -40.25,1.6"
   id="path51" />&#10;			<path
   style="fill:none;stroke:#000000;stroke-width:2;stroke-linecap:round;stroke-linejoin:round;stroke-miterlimit:10"
   d="m 292.72,408.4 c 0.39,-3.8 -0.75,-7.74 -4.08,-11.37 -0.82,-0.89 -1.99,-1.37 -3.2,-1.39 -2.42,-0.03 -6.15,-0.36 -8.74,-0.91"
   id="path52" />&#10;			<path
   style="fill:none;stroke:#000000;stroke-width:2;stroke-linecap:round;stroke-linejoin:round;stroke-miterlimit:10"
   d="m 275,409.77 c -0.11,-1.74 -0.46,-3.46 -1.01,-5.11 -0.55,-1.64 -1.93,-2.85 -3.61,-3.27 -2.26,-0.56 -4.45,-1.37 -6.54,-2.4"
   id="path53" />&#10;			<path
   style="fill:none;stroke:#000000;stroke-width:2;stroke-linecap:round;stroke-linejoin:round;stroke-miterlimit:10"
   d="m 259.71,413.41 c 0.05,-0.53 0.08,-1.06 0.08,-1.6 -0.01,-3.24 -2.05,-6.17 -5.12,-7.19 -2.15,-0.71 -4.22,-1.66 -6.17,-2.81"
   id="path54" />&#10;			<g
   id="g57">&#10;				<path
   style="fill:none;stroke:#000000;stroke-width:2;stroke-linecap:round;stroke-linejoin:round;stroke-miterlimit:10"
   d="m 275.93,271.59 c 5.48,-4.65 11.49,-8.67 18.44,-12 6.43,-3.09 14.17,-0.2 16.94,6.37 3.89,9.22 6.68,18.94 9.44,28.59 1.19,4.17 2.4,8.46 1.99,12.77 -3.00662,15.20316 -8.29067,10.8034 -8.84,-0.97"
   id="path55"
   sodipodi:nodetypes="cccccc" />&#10;				<path
   style="fill:none;stroke:#000000;stroke-width:2;stroke-linecap:round;stroke-linejoin:round;stroke-miterlimit:10"
   d="m 287.3,281.46 c 1.2,9.15 2.41,18.29 3.61,27.44 0.32,2.46 0.64,4.97 0.14,7.39 -3.08554,7.58662 1.5639,7.7294 6.94,3.67 3.14,-2.42 4.96,-6.46 4.73,-10.42 4.3046,31.52455 13.74401,-7.19679 9.64,-13.65"
   id="path56"
   sodipodi:nodetypes="ccsscc" />&#10;				<path
   style="fill:none;stroke:#000000;stroke-width:2;stroke-linecap:round;stroke-linejoin:round;stroke-miterlimit:10"
   d="m 246.56,272.82 c 0.4,10.1 2.38,20.1 5.85,29.27 2.96,7.84 11.17,10.97 17.56,6.76 6.52,-4.29 13.23,-9.29 18.25,-15.77"
   id="path57" />&#10;			</g>&#10;			<path
   style="fill:none;stroke:#000000;stroke-width:2;stroke-linecap:round;stroke-linejoin:round;stroke-miterlimit:10"
   d="m 338.87,306.11 c 0.46,0.06 0.92,0.14 1.38,0.22 12.75,2.37 21.78,13.86 21.8,26.83 0.03,16.41 -3.8,29.59 -11.53,45.24 -11.12,-1.26 -22.29,10.18 -34.1,10.57"
   id="path58" />&#10;			<path
   style="fill:none;stroke:#000000;stroke-width:2;stroke-linecap:round;stroke-linejoin:round;stroke-miterlimit:10"
   d="m 292.8,404.39 c 4.59,2.27 42.01,4.71 47.25,3.4"
   id="path59" />&#10;			<path
   style="fill:none;stroke:#000000;stroke-width:2;stroke-linecap:round;stroke-linejoin:round;stroke-miterlimit:10"
   d="m 368.34,388.97 c -0.03,-0.21 -0.06,-0.43 -0.1,-0.64 -0.54,-3.01 -3.26,-5.19 -6.31,-5.1 -3.88,0.11 -8.32,-1.66 -11.92,-4.87"
   id="path60" />&#10;			<path
   style="fill:none;stroke:#000000;stroke-width:2;stroke-linecap:round;stroke-linejoin:round;stroke-miterlimit:10"
   d="m 358.97,391.03 c 0,-0.02 -0.01,-0.04 -0.01,-0.05 -0.62,-2.63 -2.9,-4.57 -5.59,-4.86 -2.79,-0.3 -5.54,-1.01 -8.14,-2.09"
   id="path61" />&#10;			<path
   style="fill:none;stroke:#000000;stroke-width:2;stroke-linecap:round;stroke-linejoin:round;stroke-miterlimit:10"
   d="m 348.9,392.25 c -0.33,-0.51 -0.65,-1.01 -1,-1.54 -0.86,-1.33 -2.38,-2.13 -3.96,-2.02 -2.93,0.21 -5.91,-0.26 -8.62,-1.38"
   id="path62" />&#10;			<path
   style="fill:none;stroke:#000000;stroke-width:2;stroke-linecap:round;stroke-linejoin:round;stroke-miterlimit:10"
   d="m 184.44,318.06 c -0.63,0.62 -1.27,1.22 -1.93,1.8 -3.59,3.14 -7.64,5.69 -11.95,7.79 -6.87,3.33 -14.41,5.5 -21.9,7.11 -0.17,0.04 -0.34,0.08 -0.51,0.11 -4.05,0.86 -8.14,1.57 -12.23,2.29 -5.94,1.04 -11.88,2.09 -17.7,3.53 -3.24,0.81 -6.46,1.75 -9.62,2.87 -16.86,6.03 -31.97,18.1 -39.45,34.38 -7.48,16.28 -6.38,36.76 4.64,50.88 9.19,11.78 23.73,17.97 38,22.4 22.55,6.99 46.1,10.78 69.72,11.2 15.8,0.29 31.7,-0.91 47.33,1.43 14.51,2.17 29.15,7.87 38.85,18.71 1.08,1.2 3.06,0.67 3.48,-0.89 2.55,-9.37 -1.53,-20.08 -8.47,-27.17 -7.82,-8 -18.54,-12.38 -29.02,-16.28 -19.24,-7.15 -38.82,-13.38 -58.64,-18.69 -7.95,-2.13 -16.12,-4.19 -22.96,-8.79 -6.83,-4.6 -12.17,-12.36 -11.43,-20.56"
   id="path63" />&#10;			<path
   style="fill:none;stroke:#000000;stroke-width:2;stroke-linecap:round;stroke-linejoin:round;stroke-miterlimit:10"
   d="m 148.28,407.16 c 15.52,-6.03 32.03,-9.48 48.67,-10.16"
   id="path64" />&#10;			<path
   style="fill:#ffffff;stroke:#000000;stroke-width:2;stroke-linecap:round;stroke-linejoin:round;stroke-miterlimit:10"
   d="m 227.56,440.34 c 0.36932,-4.89515 -2.12092,-10.45472 -7.99,-13.05 -4.29943,3.12958 -4.90506,7.32928 -4.11,11.6 3.22,1.76 7.03,2.44 12.1,1.45 z"
   id="path65"
   sodipodi:nodetypes="cccc" />&#10;			<path
   style="fill:#ffffff;stroke:#000000;stroke-width:2;stroke-linecap:round;stroke-linejoin:round;stroke-miterlimit:10"
   d="m 194.09,433.18 c -1.57837,-6.0237 0.29707,-11.02647 -9.48,-16.56 -2.98423,3.40522 -3.21,7.58 -4.82,11.36 -0.25,0.6 -0.51,1.24 -0.39,1.88 0.2,1 1.24,1.57 2.19,1.93 3.55,1.38 7.47,1.8 12.5,1.39 z"
   id="path66"
   sodipodi:nodetypes="cccccc" />&#10;			<path
   style="fill:#ffffff;stroke:#000000;stroke-width:2;stroke-linecap:round;stroke-linejoin:round;stroke-miterlimit:10"
   d="m 152.14,422.14 c -0.23,-5.69 0.11111,-12.19957 6.22,-15.36 5.46325,5.59503 5.81435,11.29 6.99,16.94 -4.1,1.83 -9.11,1.44 -13.21,-1.58 z"
   id="path67"
   sodipodi:nodetypes="cccc" />&#10;			<path
   style="fill:#ffffff;stroke:#000000;stroke-width:2;stroke-linecap:round;stroke-linejoin:round;stroke-miterlimit:10"
   d="m 122.2,410.38 c 0,-7.46 0.68148,-16.71895 8.9,-19.81 5.30791,7.54975 5.87871,14.14 5.98,21.01 -2.53,0.54 -5.08,1.09 -7.67,1.02 -2.6,-0.05 -5.25,-0.78 -7.21,-2.22 z"
   id="path68"
   sodipodi:nodetypes="ccccc" />&#10;			<path
   style="fill:#ffffff;stroke:#000000;stroke-width:2;stroke-linecap:round;stroke-linejoin:round;stroke-miterlimit:10"
   d="m 97.9,382.57 c 3.86,4.1 9.78,6.15 15.35,5.32 0.55714,-7.29486 4.01467,-14.21025 -0.89865,-20.81785 -1.55583,-1.12191 -1.99932,-1.46468 -4.12135,-1.17215 -7.66085,3.44534 -8.18,9.56 -10.33,16.67 z"
   id="path69"
   sodipodi:nodetypes="ccccc" />&#10;			<path
   style="fill:#ffffff;stroke:#000000;stroke-width:2;stroke-linecap:round;stroke-linejoin:round;stroke-miterlimit:10"
   d="m 91.19,352.88 c 5.67,1.37 11.82,0.68 17.05,-1.92 -1.30712,-7.65922 -0.82833,-16.25385 -9.44,-20.61 -10.369182,4.96578 -8.647437,13.97905 -7.61,22.53 z"
   id="path70"
   sodipodi:nodetypes="cccc" />&#10;			<path
   style="fill:none;stroke:#000000;stroke-width:2;stroke-linecap:round;stroke-linejoin:round;stroke-miterlimit:10"
   d="m 263.34,207.27 c -14.16,8.32 -30.27,13.28 -48.66,13.96 -24.33,-51.11 -29.72,-110.99 -14.92,-165.63 1.11,-4.11 2.04,-9.27 -1.24,-11.98 -3.39,-2.8 -8.5,-0.67 -12.09,1.87 C 178.65,51 172.07,58.18 166.62,67.04 130.94,102.52 94.2,139.63 77.1,186.96 60.64,232.52 62.231231,278.50308 80.031231,323.56308 66.951231,278.52308 70.52,234.9 86.07,190.66 101.62,146.42 131.29,107.25 168.72,82.41 131.65,146.87 122.95049,224.78148 146.92049,295.17148 140.88049,223.46148 146.2,150.93 179.86,87.32 c 2.41,51.4 5.33,104.74 30.34,150.37 11.11,0.61 22.34,-1.15 32.73,-5.14"
   id="path71"
   sodipodi:nodetypes="ccccccccsccccc" />&#10;			<path
   style="fill:none;stroke:#000000;stroke-width:2;stroke-linecap:round;stroke-linejoin:round;stroke-miterlimit:10"
   d="m 81.06,322.58 c 18.73,-14.88 41.9,-24.09 66.59,-26.65 14.46,-15.19 36.16,-23.16 57.02,-20.95"
   id="path72" />&#10;			<path
   style="fill:none;stroke:#000000;stroke-width:2;stroke-linecap:round;stroke-linejoin:round;stroke-miterlimit:10"
   d="m 346.96,203.63 c 34.45,-35.97 55.22,-84.74 57.28,-134.51 0.23,-5.46 0.97,-12.1 5.98,-14.29 5.82,-2.54 11.99,3.56 13.7,9.68 1.71,6.12 1.23,12.93 5.35,20.6 9.27,38.95 18.57,78.1 21.65,118.02 3.08,39.92 0.30191,77.725 -15.04809,114.715 C 455.98191,243.065 448.56,164.62 416.37,94.19 c 5.32,60.94 8.79883,127.22209 -16.97117,182.69209 C 411.15883,224.62209 414.75,168.18 407.42,115.12 395.8,177.97 347.21,217.75 347.21,217.75"
   id="path73"
   sodipodi:nodetypes="cccscsccccc" />&#10;			<path
   style="fill:none;stroke:#000000;stroke-width:2;stroke-linecap:round;stroke-linejoin:round;stroke-miterlimit:10"
   d="m 390.24,274.49 c 3,-0.75 6.38,0.38 8.94,3.07 10.34,-0.29 20.72,4.1 27.71,11.72 6.99,7.62 10.47,18.34 9.28,28.61"
   id="path74" />&#10;			<path
   style="fill:none;stroke:#000000;stroke-linecap:round;stroke-linejoin:round;stroke-miterlimit:10"
   d="m 333.98,121.99 c 4.89,-0.23 9.84,2.12 12.75,6.06 2.91,3.94 3.71,9.35 2.46,15.18 2.34,14.99 2.15,30.38 -0.58,45.3"
   id="path75" />&#10;			<path
   style="fill:none;stroke:#000000;stroke-linecap:round;stroke-linejoin:round;stroke-miterlimit:10"
   d="m 288.25,189.42 c 0.33,6.74 2.02,13.41 4.96,20.65 -6.19,18.44 -10.31,37.58 -12.25,56.94"
   id="path76" />&#10;			<path
   style="fill:none;stroke:#000000;stroke-linecap:round;stroke-linejoin:round;stroke-miterlimit:10"
   d="m 271.34,308.02 c -0.81,3.75 -2.91,7.22 -5.85,9.68"
   id="path77" />&#10;			<path
   style="fill:none;stroke:#000000;stroke-width:1.4;stroke-linecap:round;stroke-linejoin:round;stroke-miterlimit:10;stroke-dasharray:none"
   d="m 140.42969,390.39583 c 2.1,-5.5 6.80031,-7.72583 12.28031,-9.87583 5.47,-2.15 11.36,-3.07 16.94,-4.93 5.58,-1.86 11.11,-4.92 14.06,-10.01"
   id="path78"
   sodipodi:nodetypes="ccsc" />&#10;		</g><path
     style="fill:none;stroke:#000000;stroke-linecap:round;stroke-linejoin:round;stroke-miterlimit:10"
     d="m 348.512,190.25 c 0,0 -21.306,14.025 -59.252,7.096"
     id="path79" /><path
     style="fill:none;stroke:#000000;stroke-linecap:round;stroke-linejoin:round;stroke-miterlimit:10"
     d="m 282.878,252.185 c 0,0 37.5088,6.61788 58.0888,1.56988"
     id="path80"
     sodipodi:nodetypes="cc" /><path
     style="fill:none;stroke:#000000;stroke-linecap:round;stroke-linejoin:round;stroke-miterlimit:10"
     d="m 268.415,314.551 c 0,0 30.368,31.546 66.905,15.924"
     id="path81" /><path
     style="fill:none;stroke:#000000;stroke-linecap:round;stroke-linejoin:round;stroke-miterlimit:10;stroke-width:1.3;stroke-dasharray:none"
     d="m 165.88,376.714 c 0,0 -6.667,16.385 6.85,22.486"
     id="path82" /></g>&#10;	</g>&#10;</g>&#10;</svg>
