<?xml version="1.0" encoding="UTF-8" standalone="no"?>
<!-- Created with Inkscape (http://www.inkscape.org/) -->

<svg
   xmlns:dc="http://purl.org/dc/elements/1.1/"
   xmlns:cc="http://creativecommons.org/ns#"
   xmlns:rdf="http://www.w3.org/1999/02/22-rdf-syntax-ns#"
   xmlns:svg="http://www.w3.org/2000/svg"
   xmlns="http://www.w3.org/2000/svg"
   xmlns:sodipodi="http://sodipodi.sourceforge.net/DTD/sodipodi-0.dtd"
   xmlns:inkscape="http://www.inkscape.org/namespaces/inkscape"
   width="443.11426"
   height="270.24649"
   viewBox="0 0 117.24066 71.502716"
   version="1.1"
   id="svg5227"
   inkscape:version="0.92.1 r15371"
   sodipodi:docname="elephant.svg">
  <defs
     id="defs5221" />
  <sodipodi:namedview
     id="base"
     pagecolor="#ffffff"
     bordercolor="#666666"
     borderopacity="1.0"
     inkscape:pageopacity="0.0"
     inkscape:pageshadow="2"
     inkscape:zoom="1.4"
     inkscape:cx="-115.40368"
     inkscape:cy="101.52162"
     inkscape:document-units="px"
     inkscape:current-layer="layer1"
     showgrid="false"
     fit-margin-top="3"
     fit-margin-left="3"
     fit-margin-right="3"
     fit-margin-bottom="3"
     inkscape:window-width="1920"
     inkscape:window-height="1003"
     inkscape:window-x="-9"
     inkscape:window-y="-9"
     inkscape:window-maximized="1"
     units="px" />
  <metadata
     id="metadata5224">
    <rdf:RDF>
      <cc:Work
         rdf:about="">
        <dc:format>image/svg+xml</dc:format>
        <dc:type
           rdf:resource="http://purl.org/dc/dcmitype/StillImage" />
        <dc:title></dc:title>
      </cc:Work>
    </rdf:RDF>
  </metadata>
  <g
     inkscape:label="Layer 1"
     inkscape:groupmode="layer"
     id="layer1"
     transform="translate(-4.1237025,-3.8468637)">
    <path
       inkscape:connector-curvature="0"
       d="m 117.83507,58.460699 c -0.29246,0 -0.52917,-0.23671 -0.52917,-0.52916 0,-3.64596 -1.93075,-6.06319 -3.61315,-7.76147 -0.20567,-0.20778 -0.2039,-0.54292 0.004,-0.74859 0.20743,-0.20567 0.54222,-0.20391 0.74824,0.004 1.07209,1.08197 3.91937,3.95711 3.91937,8.50618 0,0.29245 -0.23672,0.52916 -0.52917,0.52916"
       style="fill:#000000;fill-opacity:1;fill-rule:nonzero;stroke:none;stroke-width:0.03527778"
       id="path372" />
    <path
       inkscape:connector-curvature="0"
       d="M 25.405521,39.101319 38.94372,12.206949 c -1.064329,-2.94005 -8.694207,-4.84399 -11.788421,-2.54811 -3.807883,2.81411 -9.030053,9.18422 -6.929967,22.86247 1.637947,10.69622 5.180189,6.58001 5.180189,6.58001 v 0"
       style="fill:#ffffff;fill-opacity:1;fill-rule:evenodd;stroke:none;stroke-width:0.03527778"
       id="path374" />
    <path
       inkscape:connector-curvature="0"
       d="m 25.405521,39.101319 h 0.0032 z m 5.570714,-29.9332 c -1.350434,0 -2.627136,0.26353 -3.505553,0.91546 -4.161014,3.07517 -8.704086,9.44951 -6.722533,22.35729 0.844903,5.51674 2.130425,6.67315 2.821517,6.87141 0.645583,0.18521 1.244247,-0.3616 1.397352,-0.51647 l 13.39356,-26.6072 c -0.484716,-0.96944 -1.927928,-1.90818 -3.847393,-2.48638 -1.08585,-0.32703 -2.340328,-0.53411 -3.53695,-0.53411 z m -7.130697,31.24165 c -0.181681,0 -0.371475,-0.024 -0.567972,-0.0804 -1.683456,-0.4826 -2.852914,-3.0106 -3.575403,-7.72795 -2.061986,-13.4299 2.743905,-20.12068 7.138811,-23.36835 2.084564,-1.54693 5.600347,-1.26012 7.977363,-0.54398 2.399948,0.72284 4.128206,1.97061 4.6228,3.33798 0.04939,0.13652 0.04057,0.28787 -0.02469,0.41769 l -13.538204,26.89471 c -0.01976,0.0385 -0.04339,0.0744 -0.07197,0.10725 -0.03881,0.0452 -0.843845,0.96308 -1.960739,0.96308"
       style="fill:#000000;fill-opacity:1;fill-rule:nonzero;stroke:none;stroke-width:0.03527778"
       id="path376" />
    <path
       inkscape:connector-curvature="0"
       d="m 25.727254,38.457499 12.810421,-25.45256 c -2.002015,-2.07222 -7.728304,-3.14996 -10.248196,-1.3582 -3.500261,2.50613 -8.288161,8.16222 -6.370108,20.34258 0.993775,6.23005 2.730147,6.80402 3.807883,6.46818 v 0"
       style="fill:#ffffff;fill-opacity:1;fill-rule:evenodd;stroke:none;stroke-width:0.03527778"
       id="path378" />
    <path
       inkscape:connector-curvature="0"
       d="m 31.833485,11.269969 c -1.271411,0 -2.44475,0.24448 -3.237442,0.80822 -3.802239,2.72238 -7.957961,8.37318 -6.153855,19.82858 0.69603,4.36492 1.726847,5.59153 2.279297,5.93407 0.208844,0.12947 0.420864,0.17992 0.645583,0.15523 L 37.8868,13.120649 c -1.302457,-1.10067 -3.82764,-1.85068 -6.053315,-1.85068 z m -6.106231,27.18753 h 0.0035 z m -0.472722,0.6036 c -0.377825,0 -0.747536,-0.10795 -1.090789,-0.32103 -1.272116,-0.78881 -2.176991,-2.96968 -2.767189,-6.6675 -1.888066,-11.9895 2.538942,-17.95921 6.58495,-20.85587 2.737556,-1.94698 8.760531,-0.83149 10.936464,1.42029 0.156633,0.16192 0.193323,0.40499 0.09243,0.60572 l -12.810421,25.45256 c -0.06421,0.12806 -0.178153,0.22472 -0.315031,0.26741 -0.210961,0.0656 -0.421922,0.0984 -0.630414,0.0984"
       style="fill:#000000;fill-opacity:1;fill-rule:nonzero;stroke:none;stroke-width:0.03527778"
       id="path380" />
    <path
       inkscape:connector-curvature="0"
       d="m 7.6530381,64.077979 c 3.7521439,-1.59631 9.1281249,-4.52225 13.6503829,-12.43224 4.186061,-7.33636 4.592108,-16.92627 5.893858,-24.47254 0.196145,-1.12007 -0.279752,-8.55416 8.274404,-13.10429 8.554154,-4.53601 19.124081,-6.35599 25.410224,-6.35599 2.88396,0 18.84434,-0.72814 31.55668,3.82199 3.93418,1.41393 23.898583,6.07589 21.924443,36.76474 -1.96003,30.45036 -9.31016,22.55449 -8.5404,22.7083 0,0 -0.0557,-5.31989 -2.29588,-5.72593 -2.57598,-0.46214 -1.20403,5.7538 -3.878093,6.13198 -3.75214,0.51788 -1.79211,-4.95618 -3.57011,-6.17397 -3.87808,-2.67405 -20.31435,-3.05223 -24.65423,-0.3503 -2.82821,1.76424 -0.98001,6.93031 -4.8581,6.93031 -2.77212,0 -0.8262,-7.05626 -3.94829,-7.07037 -4.55012,-0.0138 0.23813,6.67844 -6.00604,5.90832 -3.486148,-0.42015 1.98791,-14.19612 -4.29789,-16.46448 -4.18606,-1.52577 -3.472037,-1.87573 -18.718387,6.14609 -15.24635,8.02217 -23.002522,10.69622 -24.3324949,8.28851 -1.344083,-2.40806 -1.610077,-4.55013 -1.610077,-4.55013 v 0"
       style="fill:#ffffff;fill-opacity:1;fill-rule:evenodd;stroke:none;stroke-width:0.03527778"
       id="path382" />
    <path
       inkscape:connector-curvature="0"
       d="m 62.603817,64.220509 c 0.005,0 0.0102,0 0.0155,0 2.06587,0.01 2.38972,2.30681 2.65007,4.15219 0.24871,1.76283 0.47307,2.91818 1.29681,2.91818 1.66687,0 1.99707,-1.06151 2.43734,-2.93758 0.33197,-1.41499 0.70803,-3.01872 2.14066,-3.91231 4.36844,-2.72027 21.11304,-2.47897 25.23489,0.36336 0.90805,0.62195 1.04035,1.93711 1.16805,3.20887 0.10901,1.08832 0.22225,2.21403 0.7941,2.66382 0.2787,0.21979 0.68228,0.28893 1.23508,0.21273 0.887243,-0.12524 1.190983,-1.29364 1.522943,-2.93017 0.31856,-1.56951 0.71614,-3.52143 2.52095,-3.19864 2.52801,0.45826 2.71674,5.38268 2.73086,6.18561 0.20637,0.17251 0.69638,0.46178 1.34161,0.29033 1.42699,-0.3817 4.88139,-3.38419 6.14222,-22.97147 1.83374,-28.51009 -15.148283,-34.10726 -20.728873,-35.94665 -0.33126,-0.10936 -0.61595,-0.2032 -0.84632,-0.2861 -11.47657,-4.10774 -25.63248,-3.87879 -30.28421,-3.804 -0.46319,0.007 -0.83185,0.0134 -1.09361,0.0134 -6.616345,0 -16.96261,1.94628 -25.162576,6.29426 -7.377643,3.9243 -7.80274,10.0831 -7.94244,12.10698 -0.0187,0.27517 -0.03246,0.47378 -0.05821,0.62125 -0.289278,1.6764 -0.531636,3.43605 -0.788106,5.29942 -0.874889,6.35529 -1.8669,13.55867 -5.167488,19.34387 -4.374445,7.65175 -9.473848,10.72021 -13.5177389,12.4908 0.140405,0.70308 0.5334,2.27577 1.47955,3.97157 0.7683489,1.3903 5.4885159,1.04352 23.6241159,-8.49877 l 0.310446,-0.16333 c 14.489289,-7.62388 14.489641,-7.62388 18.323983,-6.20042 l 0.511527,0.18873 c 3.980747,1.43616 3.694997,6.80508 3.465687,11.11885 -0.13617,2.55552 -0.27657,5.19783 0.71473,5.31742 1.12854,0.13899 1.92722,0.0251 2.37596,-0.33902 0.55351,-0.44909 0.62759,-1.31762 0.70591,-2.23696 0.12029,-1.40829 0.28469,-3.33622 2.84656,-3.33622 z m 44.686023,8.12906 c -0.88054,0 -1.57375,-0.46109 -1.87643,-0.85514 -0.23566,-0.30727 -0.18557,-0.55774 -0.12489,-0.69215 -0.0497,-1.42099 -0.45685,-4.74592 -1.85631,-4.99956 -0.66923,-0.1203 -0.92005,0.51646 -1.29576,2.36713 -0.33549,1.65383 -0.71578,3.52813 -2.413703,3.76802 -0.84208,0.11677 -1.52683,-0.0282 -2.03624,-0.42898 -0.92533,-0.72848 -1.06115,-2.08138 -1.19274,-3.38984 -0.10336,-1.03117 -0.21025,-2.09761 -0.71402,-2.44263 -3.82199,-2.63525 -20.0219,-2.86138 -24.07603,-0.33725 -1.0615,0.66216 -1.35713,1.92193 -1.66969,3.25578 -0.41311,1.75966 -0.88089,3.75426 -3.46781,3.75426 -1.80481,0 -2.09162,-2.03412 -2.34456,-3.82869 -0.27587,-1.9551 -0.53657,-3.23674 -1.6062,-3.24168 -0.004,0 -0.009,0 -0.0138,0 -1.52047,0 -1.65346,0.77011 -1.78999,2.36749 -0.0893,1.04846 -0.19085,2.23661 -1.09396,2.96933 -0.68968,0.55986 -1.72685,0.74577 -3.17042,0.56762 -1.972731,-0.23777 -1.82033,-3.1048 -1.64359,-6.42408 0.21096,-3.96417 0.47343,-8.89776 -2.769658,-10.06757 l -0.518934,-0.19156 c -3.392662,-1.25977 -3.392662,-1.25871 -17.462852,6.14468 l -0.310443,0.16334 c -20.143965,10.5992 -23.9624319,10.03018 -25.0419319,8.07579 -1.377597,-2.46804 -1.660525,-4.64926 -1.672166,-4.74099 -0.02893,-0.23424 0.100894,-0.45966 0.318205,-0.55209 3.9486419,-1.67958 9.0402829,-4.58541 13.3981469,-12.20788 3.199342,-5.60705 4.176184,-12.70282 5.03802,-18.96357 0.25788,-1.87219 0.501297,-3.64066 0.79375,-5.33611 0.01658,-0.0942 0.02999,-0.28822 0.04551,-0.51294 0.149578,-2.16888 0.605014,-8.76829 8.501593,-12.96846 8.361185,-4.43372 18.91171,-6.41809 25.65894,-6.41809 0.25788,0 0.62053,-0.006 1.07667,-0.0134 4.69794,-0.0765 18.99991,-0.30656 30.65815,3.86645 0.22402,0.0804 0.49989,0.1711 0.82057,0.27693 2.77036,0.91299 8.534753,2.8127 13.466933,8.20102 6.10095,6.66503 8.78806,16.36113 7.9869,28.81877 -0.93733,14.56091 -3.30094,22.82543 -6.83543,23.89999 -0.26634,0.0811 -0.52316,0.11607 -0.76587,0.11607"
       style="fill:#000000;fill-opacity:1;fill-rule:nonzero;stroke:none;stroke-width:0.03527778"
       id="path384" />
    <path
       inkscape:connector-curvature="0"
       d="m 59.005837,43.217529 c 5.60035,-8.59614 5.57213,-23.8566 -1.61008,-26.74056 -0.57396,-5.74004 16.61831,-15.610412 23.00253,-2.94005 8.02216,15.9184 -4.14408,29.41461 -11.49421,31.55668 -5.78203,1.67993 -9.36625,-0.53199 -9.89824,-1.87607 v 0"
       style="fill:#ffffff;fill-opacity:1;fill-rule:evenodd;stroke:none;stroke-width:0.03527778"
       id="path386" />
    <path
       inkscape:connector-curvature="0"
       d="m 59.617557,43.243279 c 0.75459,1.11513 4.04565,2.82187 9.13906,1.34197 3.84598,-1.12078 9.17963,-5.56683 11.932,-11.89602 1.85314,-4.2612 3.22474,-11.00138 -0.7627,-18.91418 -3.60751,-7.15963 -10.35121,-6.08295 -13.08277,-5.28779 -4.67254,1.35961 -8.86565,4.98687 -8.93163,7.63623 2.14454,0.9899 3.7719,3.08575 4.71911,6.08648 1.96004,6.20924 0.66182,15.18637 -3.01307,21.03331 z m 5.30719,2.98203 c -3.65901,0 -5.93902,-1.62136 -6.41068,-2.81305 -0.0632,-0.1598 -0.0452,-0.33972 0.0483,-0.48365 3.64772,-5.59894 4.96253,-14.369 3.05894,-20.40009 -0.895,-2.83527 -2.42429,-4.75791 -4.42278,-5.56048 -0.18274,-0.0734 -0.30974,-0.24236 -0.32914,-0.4385 -0.32314,-3.23109 4.19947,-7.46443 9.67775,-9.05863 2.98627,-0.86889 10.35932,-2.04047 14.32349,5.82789 4.17265,8.27899 2.73191,15.34372 0.78846,19.81235 -2.8822,6.62799 -8.52382,11.30053 -12.60687,12.49045 -1.52012,0.44168 -2.90125,0.62371 -4.1275,0.62371"
       style="fill:#000000;fill-opacity:1;fill-rule:nonzero;stroke:none;stroke-width:0.03527778"
       id="path388" />
    <path
       inkscape:connector-curvature="0"
       d="m 59.622147,42.195529 c 4.7879,-8.4141 4.68982,-21.89656 -1.48414,-25.35449 1.87607,-5.02602 14.86817,-11.32628 19.99227,-1.17616 7.04215,13.97247 -3.63996,25.8445 -10.10814,27.72057 -4.45206,1.28799 -7.41998,-0.042 -8.39999,-1.18992 v 0"
       style="fill:#ffffff;fill-opacity:1;fill-rule:evenodd;stroke:none;stroke-width:0.03527778"
       id="path390" />
    <path
       inkscape:connector-curvature="0"
       d="m 60.277247,42.105929 c 1.11407,0.97649 3.82023,1.86372 7.59778,0.77117 3.36197,-0.97508 8.02887,-4.86198 10.44328,-10.40448 1.62666,-3.7338 2.8321,-9.6393 -0.6604,-16.56926 -2.26836,-4.49333 -5.92984,-5.25921 -8.60249,-5.11352 -4.5018,0.24836 -8.95209,3.20146 -10.24925,5.83777 1.82527,1.19451 3.19828,3.30341 3.98568,6.13339 1.61008,5.7845 0.57327,13.67473 -2.5146,19.34493 z m 4.24674,2.33115 c -2.50931,0 -4.40196,-0.84067 -5.30437,-1.89794 -0.14499,-0.16969 -0.16792,-0.41169 -0.0575,-0.60537 3.1108,-5.46629 4.1843,-13.2341 2.61021,-18.88878 -0.76835,-2.76049 -2.11455,-4.74627 -3.89291,-5.74252 -0.22789,-0.12735 -0.32843,-0.40181 -0.23706,-0.64664 1.13488,-3.04059 6.0773,-6.63151 11.3545,-6.92291 4.22346,-0.23213 7.63482,1.78894 9.60579,5.69348 3.67771,7.29721 2.40312,13.52727 0.6858,17.46885 -2.54423,5.8413 -7.51946,9.95433 -11.11885,10.9982 -1.31374,0.3803 -2.53965,0.54363 -3.64561,0.54363"
       style="fill:#000000;fill-opacity:1;fill-rule:nonzero;stroke:none;stroke-width:0.03527778"
       id="path392" />
    <path
       inkscape:connector-curvature="0"
       d="m 35.78001,59.720829 c -0.171098,0 -0.339019,-0.0825 -0.440973,-0.23566 -0.161925,-0.24306 -0.09631,-0.5715 0.146756,-0.73378 1.968852,-1.31233 11.78701,-8.31638 11.721042,-17.3362 -0.0021,-0.2921 0.232833,-0.53058 0.525285,-0.53305 0.0011,0 0.0024,0 0.0039,0 0.290336,0 0.52705,0.2346 0.529167,0.52529 0.06809,9.32356 -9.314744,16.30644 -12.192352,18.2245 -0.08996,0.0603 -0.191913,0.0889 -0.292806,0.0889"
       style="fill:#000000;fill-opacity:1;fill-rule:nonzero;stroke:none;stroke-width:0.03527778"
       id="path394" />
    <path
       inkscape:connector-curvature="0"
       d="m 49.905937,43.480699 c -0.194734,0 -0.382411,-0.10795 -0.474486,-0.29492 -0.954616,-1.93146 -2.549173,-1.91982 -4.572706,-1.90571 -0.164745,0.001 -0.330904,0.002 -0.497062,0.002 -0.292455,0 -0.529167,-0.23671 -0.529167,-0.52916 0,-0.29246 0.236712,-0.52917 0.529167,-0.52917 l 0.489654,-0.002 c 2.105025,-0.0148 4.280958,-0.0303 5.528733,2.49485 0.129471,0.26211 0.02222,0.57961 -0.239887,0.70908 -0.0755,0.037 -0.155223,0.0547 -0.234246,0.0547"
       style="fill:#000000;fill-opacity:1;fill-rule:nonzero;stroke:none;stroke-width:0.03527778"
       id="path396" />
    <path
       inkscape:connector-curvature="0"
       d="m 40.483595,32.409119 c 0,2.10009 -0.980017,3.80824 -2.198158,3.80824 -1.217787,0 -2.211917,-1.70815 -2.211917,-3.80824 0,-2.09973 0.99413,-3.80788 2.211917,-3.80788 1.218141,0 2.198158,1.70815 2.198158,3.80788 v 0"
       style="fill:#ffffff;fill-opacity:1;fill-rule:evenodd;stroke:none;stroke-width:0.03527778"
       id="path398" />
    <path
       inkscape:connector-curvature="0"
       d="m 38.285437,29.130409 c -0.795867,0 -1.68275,1.34655 -1.68275,3.27907 0,1.93216 0.886883,3.27871 1.68275,3.27871 0.789516,0 1.668991,-1.34655 1.668991,-3.27871 0,-1.93252 -0.879475,-3.27907 -1.668991,-3.27907 z m 0,7.61612 c -1.537052,0 -2.741084,-1.905 -2.741084,-4.33705 0,-2.43241 1.204032,-4.33741 2.741084,-4.33741 1.529291,0 2.727325,1.905 2.727325,4.33741 0,2.43205 -1.198034,4.33705 -2.727325,4.33705"
       style="fill:#000000;fill-opacity:1;fill-rule:nonzero;stroke:none;stroke-width:0.03527778"
       id="path400" />
    <path
       inkscape:connector-curvature="0"
       d="m 32.265637,31.695099 c 0,2.1142 -0.994127,3.82235 -2.212269,3.82235 -1.217789,0 -2.197805,-1.70815 -2.197805,-3.82235 0,-2.09973 0.980016,-3.80788 2.197805,-3.80788 1.218142,0 2.212269,1.70815 2.212269,3.80788 v 0"
       style="fill:#ffffff;fill-opacity:1;fill-rule:evenodd;stroke:none;stroke-width:0.03527778"
       id="path402" />
    <path
       inkscape:connector-curvature="0"
       d="m 30.053368,28.416389 c -0.789164,0 -1.668639,1.34655 -1.668639,3.27871 0,1.94063 0.879475,3.29318 1.668639,3.29318 0.795867,0 1.683103,-1.35255 1.683103,-3.29318 0,-1.93216 -0.887236,-3.27871 -1.683103,-3.27871 z m 0,7.63023 c -1.529292,0 -2.726972,-1.91135 -2.726972,-4.35152 0,-2.43205 1.19768,-4.33705 2.726972,-4.33705 1.537053,0 2.741436,1.905 2.741436,4.33705 0,2.44017 -1.204383,4.35152 -2.741436,4.35152"
       style="fill:#000000;fill-opacity:1;fill-rule:nonzero;stroke:none;stroke-width:0.03527778"
       id="path404" />
    <path
       inkscape:connector-curvature="0"
       d="m 31.033385,30.687219 c 0.167922,0.12594 0.307975,0.2801 0.420158,0.44802 -0.196144,0 -0.406047,0.084 -0.51823,0.266 -0.209903,0.2801 -0.1397,0.68615 0.154163,0.88194 0.167923,0.12594 0.391936,0.15417 0.57397,0.084 -0.04198,0.18204 -0.125942,0.37818 -0.238125,0.5461 -0.517878,0.72813 -1.512006,0.89606 -2.226028,0.39194 -0.72778,-0.50377 -0.896055,-1.51201 -0.391936,-2.22603 0.504119,-0.71402 1.498247,-0.89605 2.226028,-0.39194 v 0"
       style="fill:#000000;fill-opacity:1;fill-rule:evenodd;stroke:none;stroke-width:0.03527778"
       id="path406" />
    <path
       inkscape:connector-curvature="0"
       d="m 39.223475,31.289409 c 0.182033,0.12594 0.322085,0.26599 0.420158,0.43391 -0.196146,0 -0.391938,0.0981 -0.51788,0.266 -0.196143,0.29386 -0.140052,0.6858 0.153813,0.89605 0.182034,0.12595 0.391935,0.14006 0.588079,0.0699 -0.05609,0.19615 -0.125942,0.37818 -0.252235,0.56021 -0.503767,0.71403 -1.497894,0.88195 -2.226027,0.37783 -0.713671,-0.50412 -0.895705,-1.49789 -0.377825,-2.21192 0.504118,-0.72813 1.497893,-0.89605 2.211917,-0.39193 v 0"
       style="fill:#000000;fill-opacity:1;fill-rule:evenodd;stroke:none;stroke-width:0.03527778"
       id="path408" />
  </g>
</svg>
