<?xml version="1.0" encoding="UTF-8" standalone="no"?>
<!-- Created with Inkscape (http://www.inkscape.org/) -->

<svg
   xmlns:dc="http://purl.org/dc/elements/1.1/"
   xmlns:cc="http://creativecommons.org/ns#"
   xmlns:rdf="http://www.w3.org/1999/02/22-rdf-syntax-ns#"
   xmlns:svg="http://www.w3.org/2000/svg"
   xmlns="http://www.w3.org/2000/svg"
   xmlns:sodipodi="http://sodipodi.sourceforge.net/DTD/sodipodi-0.dtd"
   xmlns:inkscape="http://www.inkscape.org/namespaces/inkscape"
   width="443.11426"
   height="270.24649"
   version="1.1"
   style="clip-rule:evenodd;fill-rule:evenodd;image-rendering:optimizeQuality;shape-rendering:geometricPrecision;text-rendering:geometricPrecision"
   viewBox="0 0 2623.46725 1600"
   id="svg5227"
   inkscape:version="0.92.1 r15371"
   sodipodi:docname="elephant.svg">
  <defs
     id="defs5221" />
  <sodipodi:namedview
     id="base"
     pagecolor="#ffffff"
     bordercolor="#666666"
     borderopacity="1.0"
     inkscape:pageopacity="0.0"
     inkscape:pageshadow="2"
     inkscape:zoom="1.979899"
     inkscape:cx="168.86519"
     inkscape:cy="145.43077"
     inkscape:document-units="px"
     inkscape:current-layer="layer1"
     showgrid="false"
     fit-margin-top="3"
     fit-margin-left="3"
     fit-margin-right="3"
     fit-margin-bottom="3"
     inkscape:window-width="1920"
     inkscape:window-height="1003"
     inkscape:window-x="-9"
     inkscape:window-y="-9"
     inkscape:window-maximized="1"
     units="px" />
  <metadata
     id="metadata5224">
    <rdf:RDF>
      <cc:Work
         rdf:about="">
        <dc:format>image/svg+xml</dc:format>
        <dc:type
           rdf:resource="http://purl.org/dc/dcmitype/StillImage" />
        <dc:title />
      </cc:Work>
    </rdf:RDF>
  </metadata>
  <g
     inkscape:label="Layer 1"
     inkscape:groupmode="layer"
     id="layer1"
     transform="translate(-4.1237025,-3.8468637)">
    <path
       inkscape:connector-curvature="0"
       d="m 2428.6164,1184.8414 c -5.9073,0 -10.6885,-4.7813 -10.6885,-10.6882 0,-73.6431 -38.9983,-122.4677 -72.9804,-156.7705 -4.1543,-4.1968 -4.1185,-10.9661 0.08,-15.1204 4.1898,-4.1542 10.9521,-4.11865 15.1133,0.081 21.6547,21.8542 79.1655,79.9279 79.1655,171.8125 0,5.907 -4.7813,10.6881 -10.6883,10.6881"
       style="fill:#000000;fill-opacity:1;fill-rule:nonzero;stroke:none;stroke-width:0.71255964"
       id="path372" />
    <path
       inkscape:connector-curvature="0"
       d="M 561.67436,793.81016 835.12622,250.58314 C 813.62834,191.19842 659.51593,152.74161 597.01732,199.11503 520.10364,255.95595 414.62343,384.62287 457.04211,660.90357 490.12624,876.9516 561.67436,793.81016 561.67436,793.81016 v 0"
       style="fill:#ffffff;fill-opacity:1;fill-rule:evenodd;stroke:none;stroke-width:0.71255964"
       id="path374" />
    <path
       inkscape:connector-curvature="0"
       d="m 561.67436,793.81016 h 0.0646 z M 674.19465,189.20321 c -27.27679,0 -53.06431,5.32292 -70.80705,18.49095 -84.04641,62.11396 -175.80984,190.86632 -135.78536,451.58464 17.06581,111.43009 43.03149,134.78789 56.99053,138.79245 13.03983,3.74097 25.13197,-7.3038 28.22447,-10.43194 L 823.34761,250.2127 c -9.79056,-19.58128 -38.94133,-38.54245 -77.71172,-50.22125 -21.93259,-6.60553 -47.27121,-10.78824 -71.44124,-10.78824 z M 530.16498,820.23895 c -3.66969,0 -7.50325,-0.48476 -11.47221,-1.62397 -34.00334,-9.74781 -57.62469,-60.80972 -72.21792,-156.09331 -41.64911,-271.26437 55.42288,-406.40838 144.19356,-472.00657 42.10516,-31.24573 113.11883,-25.45258 161.13109,-10.9876 48.47546,14.60031 83.38375,39.80345 93.37383,67.42233 0.9976,2.75749 0.81945,5.81455 -0.49871,8.43673 L 571.22265,798.62044 c -0.39911,0.77765 -0.87641,1.50278 -1.45369,2.1663 -0.78391,0.91297 -17.04444,19.45281 -39.60406,19.45281"
       style="fill:#000000;fill-opacity:1;fill-rule:nonzero;stroke:none;stroke-width:0.71255964"
       id="path376" />
    <path
       inkscape:connector-curvature="0"
       d="M 568.1729,780.80594 826.92471,266.70138 C 786.48692,224.84555 670.82424,203.07678 619.9261,239.26772 549.22594,289.88788 452.51735,404.13264 491.25921,650.15814 c 20.07281,125.83793 55.145,137.43128 76.91369,130.6478 v 0"
       style="fill:#ffffff;fill-opacity:1;fill-rule:evenodd;stroke:none;stroke-width:0.71255964"
       id="path378" />
    <path
       inkscape:connector-curvature="0"
       d="m 691.50985,231.65751 c -25.68065,0 -49.38039,4.93814 -65.3916,16.32487 -76.79968,54.9881 -160.7392,169.12601 -124.29889,400.50838 14.05879,88.16501 34.87979,112.94074 46.03847,119.85954 4.21835,2.61511 8.50084,3.63413 13.03983,3.13543 L 813.77798,269.03854 C 787.47025,246.80661 736.46524,231.65751 691.50985,231.65751 Z M 568.1729,780.80594 h 0.0708 z m -9.54829,12.19184 c -7.63152,0 -15.09914,-2.18044 -22.03235,-6.48434 C 510.89737,770.58063 492.62022,726.53024 480.69908,651.83967 442.5629,409.66928 531.982,289.08984 613.70545,230.58153 c 55.29465,-39.32615 176.94995,-16.79488 220.90062,28.68778 3.16376,3.27056 3.90484,8.18022 1.86695,12.23467 L 577.72121,785.60855 c -1.29695,2.58663 -3.59843,4.53901 -6.36316,5.40129 -4.2611,1.32503 -8.52221,1.98754 -12.73344,1.98754"
       style="fill:#000000;fill-opacity:1;fill-rule:nonzero;stroke:none;stroke-width:0.71255964"
       id="path380" />
    <path
       inkscape:connector-curvature="0"
       d="m 203.10011,1298.3022 c 75.78784,-32.2432 184.3748,-91.3429 275.71782,-251.1131 C 563.37024,899.00537 571.57181,705.30319 597.86526,552.87954 601.8271,530.25576 592.21467,380.098 764.99614,288.19201 937.77758,196.57123 1151.2746,159.81029 1278.2456,159.81029 c 58.2518,0 380.6282,-14.70736 637.3989,77.19862 79.4647,28.55933 482.7165,122.72411 442.8417,742.5941 -39.5898,615.05279 -188.0516,455.56779 -172.5036,458.67459 0,0 -1.125,-107.4541 -46.3734,-115.6554 -52.0311,-9.3347 -24.3197,116.2183 -78.3318,123.8569 -75.7878,10.4604 -36.1981,-100.1076 -72.111,-124.7051 -78.3317,-54.012 -410.3203,-61.6506 -497.9795,-7.0756 -57.1257,35.6351 -19.7947,139.9821 -98.1265,139.9821 -55.9929,0 -16.688,-142.5261 -79.7498,-142.8111 -91.9057,-0.2788 4.8099,134.8948 -121.3132,119.3394 -70.4151,-8.4864 40.1529,-286.7409 -86.8111,-332.5584 -84.5523,-30.8184 -70.1301,-37.8871 -378.0841,124.142 -307.95401,162.0362 -464.61737,216.0481 -491.48088,167.4158 -27.14852,-48.6393 -32.52121,-91.906 -32.52121,-91.906 v 0"
       style="fill:#ffffff;fill-opacity:1;fill-rule:evenodd;stroke:none;stroke-width:0.71255964"
       id="path382" />
    <path
       inkscape:connector-curvature="0"
       d="m 1313.0257,1301.1811 c 0.1006,0 0.2059,0 0.3131,0 41.7275,0.2021 48.2688,46.5942 53.5275,83.8682 5.0236,35.6066 9.5554,58.9429 26.1936,58.9429 33.6684,0 40.3379,-21.4408 49.2307,-59.3347 6.7053,-28.5807 14.3012,-60.9737 43.2382,-79.023 88.2362,-54.9455 426.4526,-50.0716 509.708,7.3394 18.3413,12.5624 21.0136,39.1267 23.5928,64.8145 2.2019,21.9823 4.4893,44.7202 16.0398,53.8052 5.6294,4.4395 13.781,5.836 24.9469,4.2969 17.9209,-2.5297 24.056,-26.1297 30.7612,-59.1852 6.4344,-31.7018 14.4649,-71.1277 50.9194,-64.6078 51.0621,9.2561 54.8742,108.7222 55.1594,124.9403 4.1685,3.4844 14.0659,9.3273 27.0986,5.8642 28.8231,-7.7098 98.5969,-68.3557 124.0639,-463.99019 37.0388,-575.86221 -305.9733,-688.91687 -418.693,-726.06987 -6.6909,-2.20891 -12.4413,-4.10434 -17.0945,-5.7788 -231.8099,-82.97035 -517.7386,-78.3459 -611.6968,-76.83525 -9.3557,0.14139 -16.8021,0.27066 -22.0893,0.27066 -133.6405,0 -342.61999,39.31202 -508.24733,127.13487 -149.01763,79.26514 -157.60397,203.6639 -160.4257,244.54333 -0.37772,5.55803 -0.65564,9.56966 -1.17576,12.54834 -5.84299,33.86083 -10.73826,69.40319 -15.91859,107.04054 -17.67148,128.3676 -37.70865,273.86535 -104.37572,390.71797 -88.3574,154.5542 -191.3579,216.5326 -273.03859,252.2959 2.83597,14.2012 10.7739,45.9673 29.88475,80.2199 15.51952,28.0821 110.86001,21.0776 477.17267,-171.6627 l 6.27054,-3.299 C 1021.054,1056.0464 1021.0611,1056.0464 1098.5092,1084.7982 l 10.3321,3.8121 c 80.4053,29.0083 74.6335,137.4527 70.0019,224.5846 -2.7505,51.6177 -5.5864,104.9885 14.4365,107.4041 22.7948,2.8073 38.9269,0.5069 47.9908,-6.8478 11.1801,-9.0709 12.6764,-26.6139 14.2583,-45.1833 2.4297,-28.4454 5.7504,-67.3868 57.4965,-67.3868 z m 902.5924,164.1951 c -17.7856,0 -31.7874,-9.3132 -37.9012,-17.2725 -4.76,-6.2064 -3.7483,-11.2655 -2.5226,-13.9804 -1.0037,-28.7019 -9.2277,-95.8607 -37.4947,-100.9838 -13.5174,-2.4299 -18.5836,10.4317 -26.1724,47.8126 -6.7764,33.4049 -14.4578,71.2631 -48.7533,76.1085 -17.0088,2.3585 -30.8397,-0.5696 -41.1291,-8.6648 -18.6903,-14.7143 -21.4337,-42.0408 -24.0916,-68.4699 -2.0878,-20.828 -4.2467,-42.3686 -14.4222,-49.3375 -77.1986,-53.2282 -404.4131,-57.7957 -486.3006,-6.812 -21.4408,13.3748 -27.4121,38.8202 -33.7253,65.7621 -8.3443,35.5425 -17.7928,75.8305 -70.0447,75.8305 -36.4545,0 -42.2478,-41.0862 -47.3568,-77.3339 -5.5721,-39.4902 -10.8379,-65.3774 -32.4429,-65.4772 -0.08,0 -0.1817,0 -0.2787,0 -30.7113,0 -33.3974,15.5551 -36.1551,47.8198 -1.8038,21.1774 -3.855,45.1763 -22.0964,59.9761 -13.9306,11.3084 -34.8799,15.0635 -64.0379,11.4652 -39.8463,-4.8027 -36.7681,-62.7125 -33.1982,-129.7571 4.2611,-80.0705 9.5627,-179.7218 -55.943,-203.3502 l -10.4817,-3.8693 c -68.5268,-25.4455 -68.5268,-25.4241 -352.72411,124.1136 l -6.2705,3.2992 c -406.87869,214.0884 -484.00616,202.595 -505.81048,163.1192 -27.82545,-49.8508 -33.54018,-93.9082 -33.77532,-95.7611 -0.58434,-4.7313 2.03792,-9.2844 6.42728,-11.1514 79.75681,-33.9251 182.60052,-92.6186 270.62301,-246.5813 64.62204,-113.25427 84.35283,-256.57846 101.76066,-383.03648 5.2088,-37.8155 10.12546,-73.53602 16.03259,-107.78163 0.33489,-1.9027 0.60575,-5.82163 0.91924,-10.36065 3.02125,-43.8082 12.22039,-177.10665 171.71976,-261.94396 168.88374,-89.55467 381.98897,-129.63605 518.27317,-129.63605 5.2089,0 12.5337,-0.12119 21.7471,-0.27066 94.8916,-1.54519 383.7705,-6.19207 619.25,78.09665 4.5248,1.62396 10.097,3.45596 16.5743,5.59358 55.9571,18.44106 172.3895,56.81243 272.0123,165.64863 123.2304,134.62389 177.5061,330.47095 161.3238,582.0971 -18.9328,294.10917 -66.6742,461.04037 -138.0658,482.74497 -5.3797,1.6381 -10.567,2.3444 -15.4695,2.3444"
       style="fill:#000000;fill-opacity:1;fill-rule:nonzero;stroke:none;stroke-width:0.71255964"
       id="path384" />
    <path
       inkscape:connector-curvature="0"
       d="M 1240.3517,876.9516 C 1353.4706,703.32212 1352.9006,395.08309 1207.8305,336.83132 1196.2373,220.89088 1543.496,21.523766 1672.448,277.4466 c 162.0359,321.52844 -83.7044,594.13219 -232.1663,637.39888 -116.7886,33.93213 -189.1845,-10.74543 -199.93,-37.89388 v 0"
       style="fill:#ffffff;fill-opacity:1;fill-rule:evenodd;stroke:none;stroke-width:0.71255964"
       id="path386" />
    <path
       inkscape:connector-curvature="0"
       d="m 1252.7076,877.47171 c 15.2415,22.52401 81.7162,56.99766 184.5956,27.10584 77.6832,-22.63813 185.4152,-112.44185 241.009,-240.28225 37.4308,-86.07002 65.1351,-222.21182 -15.4054,-382.03883 -72.8664,-144.61408 -209.0793,-122.86671 -264.2529,-106.80564 -94.3785,27.46214 -179.0731,100.72749 -180.4058,154.24071 43.3165,19.99453 76.1868,62.32763 95.319,122.938 39.5901,125.4176 13.3679,306.74251 -60.8595,424.84217 z m 107.1974,60.23265 c -73.9066,0 -119.9595,-32.7491 -129.4864,-56.8195 -1.2765,-3.22772 -0.9128,-6.86185 0.9757,-9.76903 73.6786,-113.09041 100.2359,-290.23282 61.7861,-412.05205 -18.0777,-57.26831 -48.9671,-96.10283 -89.3337,-112.31357 -3.6911,-1.48258 -6.2563,-4.89532 -6.6481,-8.85706 -6.527,-65.26331 84.8231,-150.77059 195.4764,-182.97111 60.3183,-17.55031 209.2431,-41.21451 289.3136,117.71487 84.2814,167.22353 55.1805,309.92076 15.9257,400.18056 -58.2162,133.87573 -172.1687,228.25422 -254.6404,252.28886 -30.7042,8.9213 -58.601,12.59803 -83.3694,12.59803"
       style="fill:#000000;fill-opacity:1;fill-rule:nonzero;stroke:none;stroke-width:0.71255964"
       id="path388" />
    <path
       inkscape:connector-curvature="0"
       d="m 1252.8003,856.3087 c 96.7086,-169.95255 94.7275,-442.27856 -29.9775,-512.12371 37.8938,-101.51826 300.3153,-228.77432 403.8147,-23.75671 142.2411,282.2235 -73.5219,522.02119 -204.1697,559.91506 -89.9251,26.01551 -149.8727,-0.84834 -169.6675,-24.03464 v 0"
       style="fill:#ffffff;fill-opacity:1;fill-rule:evenodd;stroke:none;stroke-width:0.71255964"
       id="path390" />
    <path
       inkscape:connector-curvature="0"
       d="m 1266.0324,854.49889 c 22.5025,19.72368 77.1629,37.64443 153.464,15.57652 67.9069,-19.69519 162.1715,-98.2049 210.939,-210.15532 32.8562,-75.41729 57.2043,-194.69979 -13.3391,-334.67486 -45.8176,-90.75871 -119.7742,-106.22837 -173.7578,-103.28565 -90.9297,5.01652 -180.819,64.66482 -207.0199,117.91443 36.8679,24.12736 64.6007,66.72407 80.505,123.88554 32.5213,116.83846 11.5793,276.20958 -50.7912,390.73934 z m 85.7779,47.08583 c -50.6845,0 -88.9131,-16.9803 -107.1406,-38.33561 -2.9285,-3.42749 -3.3917,-8.31554 -1.1614,-12.22758 62.8337,-110.41109 84.5168,-267.30952 52.7225,-381.5258 -15.5196,-55.75787 -42.7108,-95.86773 -78.6311,-115.99052 -4.6031,-2.57229 -6.6338,-8.11598 -4.7884,-13.06118 22.923,-61.41548 122.7527,-133.94683 229.3444,-139.83269 85.3077,-4.68868 154.2123,36.13398 194.023,114.99999 74.2844,147.39299 48.5396,273.23111 13.8521,352.84528 -51.3898,117.98573 -151.8821,201.06294 -224.5846,222.14759 -26.5356,7.68151 -51.2972,10.98052 -73.6359,10.98052"
       style="fill:#000000;fill-opacity:1;fill-rule:nonzero;stroke:none;stroke-width:0.71255964"
       id="path392" />
    <path
       inkscape:connector-curvature="0"
       d="m 771.22389,1210.2942 c -3.45593,0 -6.84768,-1.6664 -8.907,-4.7601 -3.27065,-4.9094 -1.94532,-11.5434 2.96426,-14.8212 39.76793,-26.5072 238.08035,-167.9787 236.74795,-350.16594 -0.042,-5.89999 4.7029,-10.71695 10.61,-10.76684 0.022,0 0.048,0 0.079,0 5.8644,0 10.6457,4.73858 10.6884,10.61011 1.3754,188.32227 -188.1442,329.36637 -246.26768,368.10827 -1.81706,1.2179 -3.87637,1.7957 -5.91426,1.7957"
       style="fill:#000000;fill-opacity:1;fill-rule:nonzero;stroke:none;stroke-width:0.71255964"
       id="path394" />
    <path
       inkscape:connector-curvature="0"
       d="m 1056.547,882.26725 c -3.9333,0 -7.7241,-2.18043 -9.5839,-5.95696 -19.2819,-39.01267 -51.48959,-38.77755 -92.362,-38.49256 -3.32761,0.0203 -6.68378,0.0404 -10.03993,0.0404 -5.90716,0 -10.6884,-4.78119 -10.6884,-10.68826 0,-5.90726 4.78124,-10.68845 10.6884,-10.68845 l 9.89029,-0.0403 c 42.51844,-0.29895 86.46914,-0.61202 111.67234,50.39233 2.6152,5.29423 0.4488,11.70727 -4.8453,14.32238 -1.525,0.74734 -3.1354,1.10486 -4.7315,1.10486"
       style="fill:#000000;fill-opacity:1;fill-rule:nonzero;stroke:none;stroke-width:0.71255964"
       id="path396" />
    <path
       inkscape:connector-curvature="0"
       d="m 866.22945,658.63749 c 0,42.41875 -19.79491,76.92089 -44.39958,76.92089 -24.59752,0 -44.6775,-34.50214 -44.6775,-76.92089 0,-42.41148 20.07998,-76.91362 44.6775,-76.91362 24.60467,0 44.39958,34.50214 44.39958,76.91362 v 0"
       style="fill:#ffffff;fill-opacity:1;fill-rule:evenodd;stroke:none;stroke-width:0.71255964"
       id="path398" />
    <path
       inkscape:connector-curvature="0"
       d="m 821.82987,592.41234 c -16.07536,0 -33.9891,27.19834 -33.9891,66.23242 0,39.02682 17.91374,66.22516 33.9891,66.22516 15.94707,0 33.71118,-27.19834 33.71118,-66.22516 0,-39.03408 -17.76411,-66.23242 -33.71118,-66.23242 z m 0,153.8345 c -31.04621,0 -55.3659,-38.47822 -55.3659,-87.60208 0,-49.13113 24.31969,-87.60935 55.3659,-87.60935 30.88944,0 55.08798,38.47822 55.08798,87.60935 0,49.12386 -24.19854,87.60208 -55.08798,87.60208"
       style="fill:#000000;fill-opacity:1;fill-rule:nonzero;stroke:none;stroke-width:0.71255964"
       id="path400" />
    <path
       inkscape:connector-curvature="0"
       d="m 700.23869,644.21533 c 0,42.70375 -20.07991,77.20589 -44.68461,77.20589 -24.59755,0 -44.39245,-34.50214 -44.39245,-77.20589 0,-42.41149 19.7949,-76.91362 44.39245,-76.91362 24.6047,0 44.68461,34.50213 44.68461,76.91362 v 0"
       style="fill:#ffffff;fill-opacity:1;fill-rule:evenodd;stroke:none;stroke-width:0.71255964"
       id="path402" />
    <path
       inkscape:connector-curvature="0"
       d="m 655.55408,577.99017 c -15.93995,0 -33.70406,27.19835 -33.70406,66.22516 0,39.1979 17.76411,66.51743 33.70406,66.51743 16.07536,0 33.99623,-27.31953 33.99623,-66.51743 0,-39.02681 -17.92087,-66.22516 -33.99623,-66.22516 z m 0,154.11951 c -30.88946,0 -55.08085,-38.60647 -55.08085,-87.89435 0,-49.12386 24.19139,-87.60208 55.08085,-87.60208 31.04623,0 55.37301,38.47822 55.37301,87.60208 0,49.28788 -24.32678,87.89435 -55.37301,87.89435"
       style="fill:#000000;fill-opacity:1;fill-rule:nonzero;stroke:none;stroke-width:0.71255964"
       id="path404" />
    <path
       inkscape:connector-curvature="0"
       d="m 670.59599,630.46635 c 2.54524,1.90893 4.66808,4.24558 6.36848,6.79081 -2.97303,0 -6.15461,1.27322 -7.85501,4.03186 -3.18157,4.24557 -2.11748,10.40023 2.33671,13.36789 2.54527,1.90892 5.94072,2.33682 8.69988,1.27322 -0.63631,2.75924 -1.90895,5.73221 -3.60936,8.27743 -7.84966,11.03655 -22.91803,13.58192 -33.74072,5.94079 -11.03122,-7.63583 -13.58184,-22.91809 -5.94071,-33.74076 7.64111,-10.82266 22.70948,-13.58176 33.74073,-5.94077 v 0"
       style="fill:#000000;fill-opacity:1;fill-rule:evenodd;stroke:none;stroke-width:0.53471828"
       id="path406" />
    <path
       inkscape:connector-curvature="0"
       d="m 836.08794,642.57234 c 2.76113,1.91029 4.88548,4.03461 6.37307,6.58166 -2.97519,0 -5.94503,1.48801 -7.85534,4.03476 -2.97515,4.45736 -2.12434,10.40242 2.33307,13.59154 2.76115,1.91044 5.94499,2.12447 8.92015,1.06026 -0.85078,2.97526 -1.91033,5.73634 -3.82597,8.49742 -7.64128,10.83061 -22.72047,13.37766 -33.76499,5.73104 -10.82516,-7.64663 -13.5863,-22.72042 -5.73096,-33.55103 7.64661,-11.04447 22.72046,-13.59152 33.55097,-5.94489 v 0"
       style="fill:#000000;fill-opacity:1;fill-rule:evenodd;stroke:none;stroke-width:0.53510308"
       id="path408" />
  </g>
</svg>
