<svg height="575.451" width="672.282" xmlns="http://www.w3.org/2000/svg"><path d="M93.138 327.156a3.955 3.955 0 01-3.95 3.954 3.95 3.95 0 01-3.945-3.954 3.938 3.938 0 013.945-3.936c2.18 0 3.95 1.759 3.95 3.936" fill="#fff"/><path d="M89.188 324.22a2.944 2.944 0 00-2.945 2.936 2.952 2.952 0 002.945 2.954 2.955 2.955 0 002.95-2.954 2.947 2.947 0 00-2.95-2.936zm0 7.89a4.955 4.955 0 01-4.945-4.954c0-2.721 2.218-4.936 4.945-4.936 2.73 0 4.95 2.215 4.95 4.936a4.957 4.957 0 01-4.95 4.954" fill="#231f20"/><path d="M461.587 461.874c0 4.366-3.542 7.909-7.902 7.909-4.356 0-7.888-3.543-7.888-7.91 0-4.354 3.532-7.869 7.888-7.869 4.36 0 7.902 3.515 7.902 7.87" fill="#fff"/><path d="M453.685 455.004c-3.797 0-6.888 3.082-6.888 6.87 0 3.81 3.09 6.909 6.888 6.909 3.806 0 6.902-3.099 6.902-6.91 0-3.787-3.096-6.869-6.902-6.869zm0 15.779c-4.901 0-8.888-3.996-8.888-8.91 0-4.89 3.987-8.869 8.888-8.869 4.908 0 8.902 3.979 8.902 8.87 0 4.913-3.994 8.909-8.902 8.909" fill="#231f20"/><path d="M66.567 94.279c0 4.367-3.543 7.91-7.9 7.91-4.358 0-7.89-3.543-7.89-7.91 0-4.352 3.532-7.87 7.89-7.87 4.357 0 7.9 3.518 7.9 7.87" fill="#fff"/><path d="M58.666 87.41c-3.799 0-6.89 3.08-6.89 6.869 0 3.81 3.091 6.91 6.89 6.91 3.805 0 6.901-3.1 6.901-6.91 0-3.788-3.096-6.87-6.9-6.87zm0 15.78c-4.902 0-8.89-3.998-8.89-8.911 0-4.89 3.988-8.87 8.89-8.87 4.908 0 8.901 3.98 8.901 8.87 0 4.913-3.993 8.91-8.9 8.91" fill="#231f20"/><path d="M226.852 369.419c0 3.277-2.659 5.91-5.921 5.91a5.907 5.907 0 01-5.92-5.91 5.91 5.91 0 015.92-5.921 5.915 5.915 0 015.92 5.92" fill="#fff"/><path d="M220.93 364.498a4.926 4.926 0 00-4.918 4.92 4.919 4.919 0 004.919 4.91c2.713 0 4.92-2.201 4.92-4.91a4.927 4.927 0 00-4.92-4.92zm0 11.83c-3.814 0-6.918-3.098-6.918-6.91 0-3.815 3.104-6.92 6.919-6.92a6.929 6.929 0 016.92 6.92c0 3.812-3.103 6.91-6.92 6.91" fill="#231f20"/><path d="M570.235 325.282a5.924 5.924 0 01-5.927 5.924 5.92 5.92 0 01-5.925-5.924c0-3.264 2.652-5.91 5.925-5.91 3.268 0 5.927 2.646 5.927 5.91" fill="#fff"/><path d="M564.308 320.372c-2.716 0-4.925 2.203-4.925 4.91a4.93 4.93 0 004.925 4.924 4.93 4.93 0 004.927-4.924c0-2.707-2.21-4.91-4.927-4.91zm0 11.834c-3.819 0-6.925-3.107-6.925-6.924 0-3.811 3.106-6.91 6.925-6.91s6.927 3.099 6.927 6.91c0 3.817-3.108 6.924-6.927 6.924" fill="#231f20"/><path d="M50.987 248.98a5.925 5.925 0 01-5.925 5.927 5.921 5.921 0 01-5.925-5.927c0-3.264 2.651-5.908 5.925-5.908 3.27 0 5.925 2.644 5.925 5.908" fill="#fff"/><path d="M45.062 244.072c-2.716 0-4.925 2.202-4.925 4.908a4.931 4.931 0 004.925 4.927 4.932 4.932 0 004.925-4.927c0-2.706-2.209-4.908-4.925-4.908zm0 11.835c-3.819 0-6.925-3.108-6.925-6.927 0-3.81 3.106-6.908 6.925-6.908s6.925 3.099 6.925 6.908c0 3.819-3.106 6.927-6.925 6.927" fill="#231f20"/><path d="M445.35 404.166a5.913 5.913 0 01-5.918 5.91c-3.268 0-5.93-2.632-5.93-5.91a5.92 5.92 0 015.93-5.922 5.917 5.917 0 015.917 5.922" fill="#fff"/><path d="M439.432 399.244a4.932 4.932 0 00-4.93 4.922c0 2.708 2.213 4.91 4.93 4.91a4.919 4.919 0 004.917-4.91 4.925 4.925 0 00-4.917-4.922zm0 11.832c-3.821 0-6.93-3.1-6.93-6.91 0-3.816 3.109-6.922 6.93-6.922 3.815 0 6.917 3.106 6.917 6.922 0 3.81-3.102 6.91-6.917 6.91" fill="#231f20"/><path d="M529.041 416.307c0 5.612-4.545 10.165-10.165 10.165-5.623 0-10.175-4.553-10.175-10.165 0-5.624 4.552-10.192 10.175-10.192 5.62 0 10.165 4.568 10.165 10.192" fill="#fff"/><path d="M518.876 407.115c-5.059 0-9.175 4.124-9.175 9.192 0 5.053 4.116 9.165 9.175 9.165 5.053 0 9.165-4.112 9.165-9.165 0-5.068-4.112-9.192-9.165-9.192zm0 20.357c-6.161 0-11.175-5.008-11.175-11.165 0-6.172 5.014-11.192 11.175-11.192 6.156 0 11.165 5.02 11.165 11.192 0 6.157-5.01 11.165-11.165 11.165" fill="#231f20"/><path d="M583.759 245.655c0 7.341-5.944 13.29-13.292 13.29-7.352 0-13.302-5.949-13.302-13.29 0-7.355 5.95-13.325 13.302-13.325 7.348 0 13.292 5.97 13.292 13.325" fill="#fff"/><path d="M570.467 233.33c-6.784 0-12.302 5.529-12.302 12.325 0 6.777 5.518 12.29 12.302 12.29 6.777 0 12.292-5.513 12.292-12.29 0-6.796-5.515-12.325-12.292-12.325zm0 26.616c-7.887 0-14.302-6.411-14.302-14.291 0-7.899 6.415-14.325 14.302-14.325 7.88 0 14.292 6.426 14.292 14.325 0 7.88-6.412 14.29-14.292 14.29" fill="#231f20"/><path d="M621.65 184.548c0 11.439-9.262 20.71-20.711 20.71-11.456 0-20.728-9.271-20.728-20.71 0-11.46 9.272-20.766 20.728-20.766 11.449 0 20.712 9.306 20.712 20.766" fill="#fff"/><path d="M600.939 164.782c-10.88 0-19.728 8.866-19.728 19.766 0 10.868 8.849 19.71 19.728 19.71 10.869 0 19.712-8.842 19.712-19.71 0-10.9-8.843-19.766-19.712-19.766zm0 41.476c-11.982 0-21.728-9.74-21.728-21.71 0-12.002 9.746-21.766 21.728-21.766 11.972 0 21.712 9.764 21.712 21.766 0 11.97-9.74 21.71-21.712 21.71" fill="#231f20"/><path d="M616.95 95.352c0 14.548-11.78 26.338-26.34 26.338-14.567 0-26.358-11.79-26.358-26.338 0-14.57 11.79-26.405 26.359-26.405 14.558 0 26.338 11.836 26.338 26.405" fill="#fff"/><path d="M590.61 69.947c-13.982 0-25.358 11.396-25.358 25.405 0 13.972 11.376 25.338 25.359 25.338 13.972 0 25.338-11.366 25.338-25.338 0-14.01-11.366-25.405-25.338-25.405zm0 52.743c-15.085 0-27.358-12.264-27.358-27.338 0-15.112 12.273-27.405 27.359-27.405 15.074 0 27.338 12.293 27.338 27.405 0 15.074-12.264 27.338-27.338 27.338" fill="#231f20"/><path d="M332.597 485.755c0 5.617-4.552 10.196-10.174 10.196-5.612 0-10.18-4.579-10.18-10.196 0-5.612 4.568-10.179 10.18-10.179 5.622 0 10.174 4.567 10.174 10.18" fill="#fff"/><path d="M322.423 476.576c-5.062 0-9.18 4.118-9.18 9.18 0 5.07 4.118 9.195 9.18 9.195 5.058 0 9.174-4.126 9.174-9.196 0-5.061-4.116-9.179-9.174-9.179zm0 20.375c-6.164 0-11.18-5.023-11.18-11.196 0-6.164 5.016-11.179 11.18-11.179 6.16 0 11.174 5.015 11.174 11.18 0 6.172-5.013 11.195-11.174 11.195" fill="#231f20"/><path d="M163 424.576a7.846 7.846 0 01-7.85 7.858 7.848 7.848 0 01-7.849-7.858c0-4.325 3.519-7.842 7.85-7.842 4.333 0 7.849 3.517 7.849 7.842" fill="#fff"/><path d="M155.15 417.734c-3.777 0-6.849 3.069-6.849 6.842 0 3.782 3.072 6.858 6.85 6.858 3.777 0 6.849-3.076 6.849-6.858 0-3.773-3.072-6.842-6.85-6.842zm0 15.7c-4.88 0-8.849-3.972-8.849-8.858 0-4.876 3.97-8.842 8.85-8.842 4.88 0 8.849 3.966 8.849 8.842 0 4.886-3.97 8.858-8.85 8.858" fill="#231f20"/><path d="M67.93 229.506c0 4.35-3.52 7.856-7.851 7.856a7.846 7.846 0 01-7.848-7.856c0-4.324 3.517-7.843 7.848-7.843 4.332 0 7.851 3.519 7.851 7.843" fill="#fff"/><path d="M60.079 222.663c-3.776 0-6.848 3.07-6.848 6.843 0 3.78 3.072 6.856 6.848 6.856 3.778 0 6.851-3.076 6.851-6.856 0-3.774-3.073-6.843-6.851-6.843zm0 15.699c-4.88 0-8.848-3.974-8.848-8.856 0-4.876 3.969-8.843 8.848-8.843 4.88 0 8.851 3.967 8.851 8.843 0 4.882-3.97 8.856-8.851 8.856" fill="#231f20"/><path d="M205.96 54.856a7.85 7.85 0 01-7.85 7.858 7.848 7.848 0 01-7.85-7.858c0-4.324 3.517-7.841 7.85-7.841 4.331 0 7.85 3.517 7.85 7.841" fill="#fff"/><path d="M198.11 48.015c-3.778 0-6.85 3.07-6.85 6.841 0 3.782 3.072 6.858 6.85 6.858 3.777 0 6.85-3.076 6.85-6.858 0-3.772-3.073-6.841-6.85-6.841zm0 15.699c-4.88 0-8.85-3.974-8.85-8.858 0-4.874 3.97-8.841 8.85-8.841 4.88 0 8.85 3.967 8.85 8.841 0 4.884-3.97 8.858-8.85 8.858" fill="#231f20"/><path d="M397.51 26.687a7.85 7.85 0 01-7.85 7.857 7.848 7.848 0 01-7.85-7.857c0-4.324 3.518-7.841 7.85-7.841 4.33 0 7.85 3.517 7.85 7.84" fill="#fff"/><path d="M389.66 19.846c-3.776 0-6.85 3.069-6.85 6.84 0 3.782 3.074 6.858 6.85 6.858 3.777 0 6.85-3.076 6.85-6.857 0-3.772-3.073-6.841-6.85-6.841zm0 15.698c-4.88 0-8.85-3.973-8.85-8.857 0-4.875 3.97-8.841 8.85-8.841 4.88 0 8.85 3.966 8.85 8.84 0 4.885-3.97 8.858-8.85 8.858" fill="#231f20"/><path d="M666.527 237.956a7.85 7.85 0 01-7.852 7.856 7.846 7.846 0 01-7.848-7.856c0-4.324 3.516-7.842 7.848-7.842s7.852 3.518 7.852 7.842" fill="#fff"/><path d="M658.675 231.114c-3.776 0-6.848 3.069-6.848 6.842 0 3.782 3.072 6.856 6.848 6.856 3.777 0 6.852-3.074 6.852-6.856 0-3.773-3.075-6.842-6.852-6.842zm0 15.698c-4.88 0-8.848-3.972-8.848-8.856 0-4.876 3.969-8.842 8.848-8.842 4.88 0 8.852 3.966 8.852 8.842 0 4.884-3.971 8.856-8.852 8.856" fill="#231f20"/><path d="M669.761 371.272a7.848 7.848 0 01-7.85 7.859 7.85 7.85 0 110-15.701c4.332 0 7.85 3.52 7.85 7.842" fill="#fff"/><path d="M661.912 364.43c-3.777 0-6.85 3.069-6.85 6.842 0 3.782 3.073 6.859 6.85 6.859 3.776 0 6.85-3.077 6.85-6.859 0-3.773-3.074-6.842-6.85-6.842zm0 15.7c-4.88 0-8.85-3.974-8.85-8.858 0-4.876 3.97-8.842 8.85-8.842 4.879 0 8.85 3.966 8.85 8.842 0 4.884-3.971 8.859-8.85 8.859" fill="#231f20"/><path d="M75.326 371.056a10.12 10.12 0 01-10.128 10.127c-5.606 0-10.138-4.525-10.138-10.127s4.532-10.145 10.138-10.145c5.596 0 10.128 4.543 10.128 10.145" fill="#fff"/><path d="M65.198 361.91c-5.038 0-9.138 4.105-9.138 9.146 0 5.032 4.1 9.127 9.138 9.127 5.034 0 9.128-4.095 9.128-9.127 0-5.041-4.094-9.145-9.128-9.145zm0 20.273c-6.14 0-11.138-4.992-11.138-11.127 0-6.145 4.997-11.145 11.138-11.145 6.137 0 11.128 5 11.128 11.145 0 6.135-4.991 11.127-11.128 11.127" fill="#231f20"/><path d="M233.597 66.142c0 5.6-4.537 10.125-10.128 10.125-5.606 0-10.141-4.525-10.141-10.125 0-5.603 4.535-10.146 10.141-10.146 5.59 0 10.128 4.543 10.128 10.146" fill="#fff"/><path d="M223.47 56.996c-5.042 0-9.142 4.103-9.142 9.146 0 5.032 4.1 9.125 9.141 9.125 5.034 0 9.128-4.093 9.128-9.125 0-5.043-4.094-9.146-9.128-9.146zm0 20.27c-6.145 0-11.142-4.99-11.142-11.124 0-6.146 4.997-11.146 11.141-11.146 6.136 0 11.128 5 11.128 11.146 0 6.134-4.992 11.125-11.128 11.125" fill="#231f20"/><path d="M182.892 342.2c0 5.599-4.535 10.126-10.128 10.126-5.608 0-10.141-4.527-10.141-10.126a10.137 10.137 0 0110.14-10.144c5.594 0 10.129 4.54 10.129 10.144" fill="#fff"/><path d="M172.764 333.056c-5.041 0-9.141 4.103-9.141 9.144 0 5.032 4.1 9.126 9.14 9.126 5.034 0 9.129-4.094 9.129-9.126 0-5.041-4.095-9.144-9.128-9.144zm0 20.27c-6.144 0-11.141-4.991-11.141-11.126 0-6.144 4.997-11.144 11.14-11.144 6.137 0 11.129 5 11.129 11.144 0 6.135-4.992 11.126-11.128 11.126" fill="#231f20"/><path d="M226.388 554.589c12.517.705 31.064-4.354 34.333-17.625.872-3.545 4.336-11.928 1.643-15.193-4.444-5.363-9.016 11.46-11.667-1.275-1.077-5.201 2.604-10.492 2.05-16.1-.556-5.73-7.58-14.162-10.876-4.797-1.082 3.061 5.566 17.97-5.188 11.504-5.152-3.106-3.98-12.464-4.362-17.161-1.166-14.24-1.562-34.623-13.262-43.96-16.027-12.792-26.598 7.584-16.486 20.845 3.807 4.988 11.187 8.46 13.143 14.84 3.145 10.244-6.096 8.373-10.704 2.934-7.632-8.998-11.524-19.193-25.295-17.627-7.457.84-13.218 6.178-13.968 13.994-2.276 23.675 31.786 14.363 40.547 28.717 7.59 12.431-8.616 8.902-14.345 6.518-5.82-2.414-15.356-5.587-17.564 2.925-5.106 19.667 40.093 3.6 48.782 11.19-3.374 4.798-24.236-3.92-19.538 9.521 2.633 7.533 16.336 10.386 22.757 10.75" fill="#fff"/><path d="M211.17 536.83c-2.551 0-5.62.198-6.72 1.75-.711 1-.669 2.66.125 4.93 2.297 6.572 14.633 9.672 21.869 10.08.736.04 1.496.062 2.27.062 10.8 0 27.977-4.508 31.037-16.928.172-.704.444-1.593.752-2.596 1.092-3.555 2.917-9.505 1.089-11.72-.603-.728-1.03-.728-1.17-.728-.911 0-2.109 1.192-3.166 2.245-1.267 1.262-2.464 2.454-3.839 2.455-2.23 0-3.148-3.034-3.698-5.68-.612-2.954.177-5.89.94-8.728.658-2.45 1.34-4.983 1.092-7.477-.36-3.706-3.535-8.09-5.86-8.09-1.516 0-2.511 1.917-3.078 3.526-.228.646.146 2.715.446 4.378.598 3.318 1.217 6.746-.2 8.44-.366.44-1.043.963-2.194.963-1.2 0-2.737-.573-4.698-1.752-4.594-2.77-4.678-9.663-4.74-14.697-.015-1.197-.028-2.33-.103-3.241-.107-1.309-.208-2.67-.312-4.071-1.021-13.803-2.292-30.98-12.576-39.187-3.192-2.546-6.26-3.838-9.119-3.838-3.47 0-6.458 2.02-8.204 5.544-2.21 4.465-2.37 11.685 2.255 17.75 1.373 1.799 3.236 3.395 5.208 5.083 3.34 2.863 6.792 5.821 8.096 10.07.976 3.183.907 5.562-.21 7.073-.762 1.03-1.955 1.576-3.45 1.576-2.777 0-6.38-1.963-8.763-4.775-1.538-1.813-2.92-3.667-4.257-5.457-4.792-6.427-8.93-11.976-17.555-11.976-.832 0-1.71.052-2.608.153-7.265.821-12.401 5.961-13.084 13.097-1.245 12.95 9.138 15.372 20.13 17.937 8.068 1.883 16.409 3.83 20.274 10.163 2.134 3.494 2.664 6.095 1.622 7.954-.91 1.62-2.907 2.44-5.938 2.44-3.724 0-8.45-1.26-11.266-2.43-2.647-1.1-6.55-2.56-9.867-2.56-3.477 0-5.495 1.528-6.345 4.811-.65 2.5-.45 4.382.612 5.753 1.724 2.228 5.717 3.267 12.57 3.267 3.888 0 8.258-.333 12.482-.657 4.252-.324 8.268-.631 11.876-.631 5.618 0 8.99.756 10.933 2.455a.999.999 0 01.16 1.328c-1.273 1.81-4.084 2.06-6.932 2.06-.936 0-1.917-.032-2.91-.062a94.178 94.178 0 00-2.977-.062zm17.546 18.822h-.001c-.814 0-1.611-.021-2.383-.065-5.579-.316-20.696-2.981-23.645-11.419-1.034-2.958-.991-5.165.132-6.746 1.62-2.285 5.13-2.592 8.35-2.592.999 0 2.026.031 3.039.064.972.029 1.932.06 2.848.06 1.43 0 3.263-.072 4.413-.563-1.733-.86-4.558-1.28-8.574-1.28-3.532 0-7.511.302-11.724.626-4.262.326-8.67.662-12.634.662-7.625 0-11.99-1.247-14.152-4.043-1.445-1.866-1.77-4.384-.968-7.48 1.072-4.128 3.936-6.308 8.283-6.308 3.675 0 7.83 1.547 10.635 2.712 2.72 1.132 7.2 2.279 10.498 2.279 1.55 0 3.535-.247 4.194-1.42.638-1.138.09-3.19-1.584-5.933-3.43-5.617-11.356-7.467-19.022-9.257-11.346-2.648-23.08-5.385-21.668-20.076.767-7.991 6.735-13.977 14.852-14.893.972-.11 1.926-.166 2.832-.166 9.627 0 14.258 6.206 19.158 12.778 1.318 1.768 2.682 3.597 4.18 5.363 1.997 2.357 5.04 4.067 7.237 4.067.847 0 1.467-.258 1.841-.766.699-.944.666-2.825-.093-5.296-1.133-3.696-4.363-6.461-7.485-9.137-1.966-1.684-3.996-3.423-5.496-5.39-5.146-6.747-4.942-14.831-2.458-19.85 2.095-4.23 5.738-6.657 9.996-6.657 3.324 0 6.812 1.438 10.366 4.276 10.966 8.75 12.273 26.41 13.324 40.601.104 1.394.204 2.752.31 4.056.08.98.095 2.147.11 3.38.056 4.562.132 10.813 3.772 13.007 3.465 2.086 4.1 1.494 4.326 1.221.816-.977.21-4.343-.234-6.803-.476-2.637-.748-4.309-.363-5.398 1.415-4.02 3.481-4.862 4.964-4.862 3.997 0 7.464 5.91 7.85 9.895.283 2.856-.446 5.57-1.151 8.193-.735 2.733-1.43 5.314-.915 7.802.841 4.04 1.704 4.086 1.741 4.086.55 0 1.59-1.037 2.427-1.872 1.397-1.39 2.841-2.828 4.577-2.828 1 0 1.914.488 2.714 1.452 2.513 3.048.644 9.136-.72 13.581-.295.962-.558 1.815-.723 2.49-3.123 12.676-19.281 18.449-32.976 18.449" fill="#231f20"/><path d="M367.759 536.361c7.478 7.533 22.018 14.849 31.59 8.343 2.555-1.736 9.484-5.049 9.636-8.63.239-5.892-12.162 2.108-6.622-7.408 2.266-3.884 7.578-5.132 10.406-8.975 2.894-3.921 3.248-13.204-4.13-9.176-2.415 1.315-6.672 14.461-9.78 4.303-1.484-4.872 4.553-10.1 6.972-13.272 7.329-9.624 18.62-22.68 16.542-35.18-2.846-17.124-21.037-10.286-22.18 3.788-.428 5.293 2.25 11.658-.13 16.783-3.82 8.229-8.575 1.815-8.396-4.213.288-9.986 3.61-18.61-5.944-25.421-5.168-3.693-11.822-3.595-16.716.901-14.838 13.615 11.876 27.04 9.265 41.035-2.261 12.119-10.468.725-12.721-4.02-2.295-4.816-6.506-12.21-12.712-8.104-14.348 9.488 23.198 24.965 24.37 34.664-4.841 1.108-13.034-16.188-17.688-5.07-2.612 6.234 4.402 15.788 8.238 19.652" fill="#fff"/><path d="M363.481 513.966c-.426 0-1.726 0-3.037 3.13-2.25 5.368 3.728 14.234 8.024 18.562 5.22 5.255 14.116 10.56 22.221 10.56h.002c3.086 0 5.809-.787 8.096-2.34.509-.347 1.188-.754 1.952-1.212 2.673-1.605 7.149-4.288 7.248-6.635.017-.456-.063-.783-.24-.967-.271-.281-.887-.42-1.883-.42-.428 0-.87.024-1.307.046-.453.023-.9.046-1.318.046h-.008c-.694 0-2.3-.004-2.998-1.217-.645-1.123-.268-2.724 1.266-5.356 1.305-2.239 3.48-3.65 5.584-5.016 1.789-1.162 3.64-2.362 4.88-4.048 1.554-2.107 2.209-5.896 1.322-7.65-.642-1.273-2.068-1.203-4.168-.057-.473.257-1.437 1.816-2.141 2.955-1.61 2.602-3.276 5.295-5.355 5.295h-.001c-2.088 0-3.12-2.586-3.716-4.531-1.35-4.426 2.532-8.85 5.365-12.079.668-.761 1.299-1.481 1.766-2.092.673-.885 1.38-1.798 2.108-2.737 7.154-9.244 16.06-20.748 14.244-31.673-.983-5.91-3.998-9.3-8.274-9.3-5.246 0-11.29 5.226-11.924 13.005-.152 1.892.116 3.943.4 6.115.484 3.714.987 7.556-.617 11.008-1.381 2.977-3.03 4.485-4.904 4.485-.995.001-1.967-.459-2.81-1.327-1.64-1.688-2.68-4.83-2.591-7.822.057-2.018.237-3.97.41-5.858.699-7.596 1.25-13.596-5.936-18.718-2.24-1.6-4.778-2.447-7.342-2.447-2.98 0-5.787 1.13-8.115 3.27-8.017 7.357-3.127 14.37 2.539 22.491 4.028 5.778 8.196 11.753 7.032 17.99-.77 4.125-2.343 6.217-4.675 6.217-3.919 0-8.384-6.73-9.933-9.99-1.028-2.16-4.16-8.731-8.258-8.731-.956 0-1.964.346-2.998 1.03-1.84 1.218-2.76 2.523-2.812 3.995-.162 4.46 7.489 10.353 14.24 15.55 6.618 5.098 12.869 9.914 13.382 14.166a.998.998 0 01-.77 1.095 3.1 3.1 0 01-.687.076h-.001c-2.148 0-4.396-2.15-6.776-4.429-2.172-2.08-4.634-4.435-6.486-4.435zm27.21 34.253h-.002c-8.68 0-18.128-5.601-23.64-11.152-3.353-3.378-11.406-13.69-8.45-20.744 1.21-2.89 2.853-4.357 4.882-4.357 2.654 0 5.304 2.537 7.868 4.992 1.506 1.44 3.17 3.033 4.468 3.629-1.528-3.274-6.952-7.452-12.218-11.51-7.483-5.76-15.216-11.718-15.02-17.206.078-2.132 1.325-4.015 3.708-5.59 1.368-.904 2.748-1.363 4.102-1.363 4.806 0 8.046 5.633 10.063 9.872 1.757 3.695 5.699 8.85 8.128 8.85 1.53 0 2.317-2.494 2.708-4.585 1.01-5.413-2.912-11.037-6.707-16.479-5.681-8.146-11.556-16.57-2.25-25.11 2.704-2.482 5.978-3.795 9.468-3.795 2.984 0 5.924.975 8.505 2.819 8.12 5.789 7.463 12.949 6.765 20.529-.17 1.857-.346 3.779-.402 5.733-.074 2.447.76 5.067 2.026 6.37.319.33.816.722 1.375.72.983 0 2.108-1.211 3.09-3.324 1.36-2.93.897-6.478.449-9.91-.286-2.178-.58-4.432-.411-6.534.721-8.88 7.78-14.843 13.917-14.843 5.275 0 9.106 4.101 10.247 10.97 1.959 11.787-7.243 23.674-14.637 33.226-.723.934-1.427 1.844-2.098 2.724-.508.667-1.161 1.412-1.853 2.201-2.524 2.876-5.98 6.815-4.955 10.173.926 3.03 1.716 3.117 1.803 3.117.965 0 2.65-2.722 3.656-4.347 1.207-1.95 1.992-3.172 2.885-3.659 3.228-1.765 5.776-1.339 6.91.91 1.362 2.697.304 7.298-1.498 9.74-1.456 1.978-3.462 3.281-5.402 4.54-1.995 1.294-3.88 2.518-4.946 4.344-1.584 2.722-1.273 3.327-1.258 3.352 0 0 .137.214 1.272.214.385 0 .798-.023 1.217-.044.47-.022.947-.048 1.408-.048 1.085 0 2.447.119 3.325 1.035.57.592.836 1.41.795 2.434-.145 3.426-4.81 6.224-8.216 8.267-.727.436-1.373.823-1.856 1.15-2.625 1.785-5.727 2.689-9.221 2.689" fill="#231f20"/><path d="M226.923 529.894c4.36 2.607 10.08 5.642 11.513 10.986 1.352 5.07-2.363 7.85 3.47 10.567 10.983 5.126 21.683-7.462 28.207-13.627 6.723-6.35 17.215-5.807 24.296-13.013 5.714-5.816 6.382-19.947-5.582-17.076-7.328 1.75-6.814 10.893-11.44 15.339-5.558 5.338-10.328 3.165-9.887-4.516.659-11.369 17.57-19.369 5.764-30.027-4.09-3.688-7.056-2.899-6.541-10.877.357-5.524 3.52-11.307 2.478-17.031-1.161-6.397-5.637-9.29-10.906-5.29-5.048 3.83-5.736 11.274-5.371 17.029.905 14.129 12.099 24.76 11.09 39.226-.967 13.867-16.335 19.539-19.986 3.913-1.444-6.165-.38-12.04-8.47-12.007-7.665.035-7.989 6.62-4.289 12.095 2.183 3.235 6.23 4.694 8.279 7.94-6.395 4.706-9.964-7.74-17.581-4.565-9.738 4.037 1.053 8.607 4.956 10.934" fill="#fff"/><path d="M224.459 519.434c-.694 0-1.383.146-2.107.449-2.112.876-3.3 1.823-3.345 2.668-.098 1.793 4.3 4.2 6.664 5.493.66.363 1.268.695 1.764.99l.962.573c4.264 2.524 9.572 5.664 11.004 11.015.532 1.994.35 3.677.204 5.029-.248 2.295-.373 3.447 2.724 4.889a11.522 11.522 0 004.9 1.106c7.396 0 14.566-7.063 19.799-12.22.85-.837 1.652-1.627 2.399-2.332 3.372-3.186 7.662-4.72 11.813-6.203 4.388-1.57 8.927-3.194 12.456-6.784 3.136-3.194 4.577-9.113 3.084-12.672-1.144-2.73-3.823-3.67-7.721-2.732-3.946.943-5.371 4.393-6.88 8.046-1.044 2.53-2.126 5.145-4.1 7.042-2.194 2.106-4.395 3.221-6.366 3.221-1.31 0-2.472-.497-3.361-1.437-1.392-1.474-2.032-3.923-1.852-7.079.265-4.568 2.901-8.48 5.45-12.266 4.105-6.095 7.347-10.91.643-16.96-.973-.878-1.898-1.502-2.717-2.052-2.921-1.97-4.555-3.387-4.15-9.634.146-2.278.751-4.597 1.335-6.84.859-3.294 1.747-6.702 1.156-9.946-.705-3.888-2.722-6.303-5.265-6.303-1.263 0-2.627.548-4.052 1.632-4.733 3.59-5.32 10.775-4.979 16.168.406 6.317 2.998 12.073 5.504 17.641 3.023 6.712 6.148 13.654 5.586 21.718-.622 8.907-6.628 14.231-12.078 14.231-4.698 0-8.392-3.798-9.878-10.16-.292-1.247-.482-2.46-.664-3.631-.74-4.742-1.184-7.604-6.763-7.604-1.833.007-4.152.416-5.152 2.307-1.05 1.987-.413 5.218 1.621 8.228.982 1.454 2.392 2.53 3.886 3.667 1.609 1.227 3.272 2.493 4.41 4.3a1 1 0 01-.253 1.339c-1.145.842-2.328 1.27-3.513 1.27-2.303 0-4.26-1.576-6.152-3.097-1.875-1.51-3.815-3.07-6.016-3.07zm22.772 34.212h-.002c-1.974 0-3.906-.435-5.745-1.294-4.395-2.046-4.139-4.412-3.868-6.916.143-1.309.29-2.664-.147-4.299-1.221-4.562-5.933-7.348-10.09-9.81l-.97-.576a56.495 56.495 0 00-1.698-.952c-3.504-1.919-7.866-4.305-7.702-7.355.094-1.729 1.59-3.17 4.575-4.408.957-.4 1.925-.602 2.875-.602 2.906 0 5.225 1.865 7.27 3.512 2.215 1.784 4.236 3.334 6.379 2.293-.91-1.105-2.095-2.008-3.337-2.955-1.556-1.188-3.167-2.414-4.331-4.138-2.479-3.671-3.143-7.611-1.732-10.283.808-1.528 2.65-3.354 6.845-3.373 7.366 0 8.102 4.726 8.814 9.297.177 1.135.36 2.308.634 3.483 1.28 5.476 4.17 8.615 7.932 8.615 4.434 0 9.55-4.73 10.083-12.369.528-7.562-2.359-13.973-5.413-20.758-2.58-5.73-5.25-11.656-5.678-18.336-.372-5.884.326-13.763 5.766-17.89 1.78-1.35 3.552-2.037 5.26-2.037 3.573 0 6.345 3.044 7.234 7.945.67 3.679-.274 7.303-1.188 10.808-.586 2.252-1.141 4.378-1.276 6.466-.35 5.405.862 6.22 3.274 7.845.872.587 1.86 1.253 2.938 2.226 7.992 7.214 3.764 13.491-.324 19.562-2.398 3.561-4.878 7.244-5.112 11.264-.146 2.556.319 4.541 1.31 5.59 1.464 1.553 4.148.775 6.886-1.853 1.672-1.606 2.627-3.917 3.638-6.363 1.634-3.957 3.325-8.048 8.262-9.227 4.87-1.171 8.514.285 10.032 3.903 1.798 4.286.194 11.085-3.502 14.847-3.851 3.92-8.61 5.62-13.21 7.265-4.137 1.479-8.046 2.876-11.112 5.774a153.75 153.75 0 00-2.37 2.305c-5.48 5.397-12.987 12.794-21.2 12.794" fill="#231f20"/><path d="M632.51 294.096a2.105 2.105 0 00-2.774 1.035c-.063.14-1.613 3.467-4.097 9.432a455.377 455.377 0 00-9.586 25.253c-4.276 12.342-7.946 24.676-10.908 36.668-3.878 15.772-6.35 29.979-7.556 43.44-.361 4.204-.597 7.91-.716 11.292a60.987 60.987 0 00-.084 2.876l-.053 4.17.005 1.44c.014.92.022 1.84.027 2.77.097 7.272.575 14.63 1.423 21.88.777 6.44 1.97 13.246 3.538 20.224.395 1.786.795 3.53 1.186 5.238.974 4.269 1.9 8.305 2.534 12.06.859 4.889 1.314 9.645 1.35 14.14.056 4.571-.264 8.462-.511 10.973-.161 1.524-.305 2.884-.487 4.093a72.176 72.176 0 01-.432 3.007l-.42 2.633c-.09.56.05 1.132.387 1.588.34.455.845.758 1.41.834l8.71 1.214a2.12 2.12 0 001.583-.417c.45-.348.74-.862.805-1.426l.315-2.609c.114-.87.226-2.005.349-3.33.139-1.307.243-2.77.36-4.58.163-2.851.35-7.233.08-12.364-.239-5.105-.963-10.478-2.148-15.958-.865-4.09-1.981-8.208-3.161-12.565-.454-1.672-.914-3.365-1.364-5.085-1.784-6.703-3.131-12.94-4.118-19.063a202.097 202.097 0 01-2.174-20.797l-.155-3.084a25.232 25.232 0 01-.036-.888l-.095-4.155a51.219 51.219 0 01-.014-2.636c.012-.656.014-1.31.017-1.963.007-1.141.012-2.285.061-3.436l.07-1.897c.042-1.19.084-2.377.157-3.577.703-13.075 2.623-26.98 5.863-42.511 2.502-11.935 5.686-24.208 9.464-36.479 3.356-10.906 6.524-19.773 8.59-25.29 2.232-5.944 3.679-9.363 3.692-9.395a2.113 2.113 0 00-1.088-2.755" fill="#fff"/><path d="M631.648 294.908c-.427 0-.821.255-1.007.647-.7 1.528-2.102 4.644-4.08 9.392A454.255 454.255 0 00617 330.144c-4.272 12.324-7.934 24.632-10.883 36.58-3.867 15.723-6.33 29.883-7.53 43.29-.363 4.228-.597 7.904-.713 11.237a60.498 60.498 0 00-.084 2.847l-.053 4.178.005 1.423c.014.91.022 1.835.027 2.768.097 7.236.573 14.563 1.416 21.77.77 6.386 1.956 13.157 3.521 20.12.382 1.726.767 3.411 1.144 5.06l.076.327c.966 4.23 1.878 8.224 2.51 11.964.868 4.936 1.328 9.75 1.365 14.298.056 4.64-.268 8.546-.517 11.078-.16 1.498-.307 2.907-.492 4.146a73.117 73.117 0 01-.436 3.026l-.418 2.622c-.048.293.027.595.206.838.177.24.44.395.738.435l8.714 1.215c.334.054.6-.039.834-.22.235-.182.388-.454.422-.745l.314-2.617c.115-.872.224-1.993.347-3.302.136-1.276.237-2.686.359-4.554.16-2.827.345-7.182.078-12.246-.236-5.052-.952-10.367-2.126-15.8-.856-4.04-1.96-8.12-3.128-12.436l-.096-.356c-.431-1.583-.866-3.186-1.292-4.814-1.791-6.726-3.143-12.994-4.138-19.158a203.46 203.46 0 01-2.185-20.904l-.155-3.084c-.016-.32-.033-.648-.037-.926l-.095-4.145a52.951 52.951 0 01-.014-2.681c.012-.647.014-1.298.017-1.946a90.81 90.81 0 01.063-3.474l.073-2.04c.041-1.147.083-2.294.153-3.454.706-13.11 2.63-27.062 5.883-42.654 2.51-11.97 5.701-24.272 9.487-36.568 3.365-10.936 6.54-19.82 8.61-25.344 2.03-5.411 3.434-8.786 3.695-9.407.247-.585-.01-1.236-.56-1.48a1.096 1.096 0 00-.456-.103zm-15.9 236.47c-.145 0-.29-.01-.436-.031l-8.704-1.215a3.1 3.1 0 01-2.072-1.224 3.142 3.142 0 01-.573-2.35l.42-2.628c.148-.871.282-1.843.426-2.975.183-1.219.326-2.565.484-4.073.244-2.478.562-6.309.507-10.858-.037-4.441-.487-9.141-1.335-13.976-.625-3.69-1.53-7.657-2.49-11.858l-.075-.327a677.77 677.77 0 01-1.147-5.07c-1.58-7.026-2.776-13.865-3.554-20.322a214.355 214.355 0 01-1.431-21.985c-.005-.934-.013-1.854-.027-2.768l-.005-1.451.053-4.188c.006-.939.032-1.92.086-2.916.117-3.35.352-7.059.718-11.324 1.21-13.512 3.69-27.77 7.58-43.593 2.966-12.007 6.644-24.374 10.935-36.756a455.357 455.357 0 019.608-25.31c1.99-4.777 3.4-7.92 4.065-9.368.77-1.638 2.636-2.305 4.142-1.626 1.533.68 2.252 2.5 1.594 4.054-.268.64-1.658 3.984-3.676 9.359-2.06 5.5-5.22 14.343-8.57 25.232-3.768 12.237-6.943 24.479-9.44 36.39-3.234 15.487-5.146 29.345-5.844 42.358-.071 1.15-.111 2.28-.152 3.412l-.075 2.045a91.797 91.797 0 00-.06 3.308c-.003.755-.005 1.412-.017 2.072-.018.859-.014 1.715.014 2.588l.095 4.163c.004.263.019.567.035.86l.154 3.084c.36 6.897 1.088 13.86 2.164 20.692.982 6.093 2.322 12.297 4.095 18.961.427 1.627.861 3.224 1.288 4.804l.076.278c1.197 4.42 2.308 8.525 3.173 12.618 1.198 5.537 1.928 10.96 2.17 16.118.272 5.158.084 9.586-.08 12.469-.124 1.898-.227 3.332-.364 4.63a93.157 93.157 0 01-.354 3.353l-.312 2.598a3.113 3.113 0 01-1.188 2.099 3.132 3.132 0 01-1.901.647" fill="#231f20"/><path d="M55.284 299.79a2.82 2.82 0 00-3.7 1.38c-.064.14-1.621 3.482-4.11 9.46-3.343 8.054-6.572 16.564-9.601 25.293-4.282 12.364-7.96 24.72-10.925 36.732-3.888 15.807-6.364 30.047-7.575 43.548-.362 4.215-.597 7.932-.717 11.316-.054.99-.08 1.964-.085 2.903l-.053 4.184.007 1.444c.01.916.021 1.837.027 2.773.094 7.293.573 14.676 1.425 21.952.783 6.463 1.977 13.293 3.552 20.293.393 1.784.793 3.533 1.185 5.243.974 4.26 1.895 8.284 2.53 12.024.85 4.85 1.298 9.568 1.337 14.026.055 4.538-.263 8.4-.508 10.888-.159 1.514-.302 2.864-.482 4.08a75.139 75.139 0 01-.432 2.986l-.419 2.63a2.83 2.83 0 00.52 2.122 2.81 2.81 0 001.873 1.112l8.711 1.213a2.82 2.82 0 003.187-2.457l.31-2.6c.118-.877.23-2.023.355-3.348.138-1.319.244-2.792.36-4.614.166-2.867.353-7.276.084-12.438-.242-5.143-.973-10.555-2.167-16.071-.868-4.109-1.987-8.233-3.169-12.602a650.58 650.58 0 01-1.362-5.083c-1.78-6.68-3.122-12.895-4.104-18.993a201.531 201.531 0 01-2.167-20.723l-.153-3.081c-.016-.3-.033-.606-.036-.868l-.094-4.162a48.268 48.268 0 01-.015-2.604c.012-.657.014-1.313.018-1.97.005-1.132.01-2.268.059-3.411l.071-1.901c.04-1.183.085-2.367.155-3.562.704-13.041 2.616-26.914 5.85-42.408 2.5-11.912 5.678-24.164 9.448-36.416a451.516 451.516 0 018.575-25.246c2.227-5.931 3.67-9.338 3.683-9.371a2.822 2.822 0 00-1.448-3.673" fill="#fff"/><path d="M54.138 300.546c-.703 0-1.35.412-1.648 1.049-.546 1.183-1.985 4.359-4.092 9.42-3.327 8.012-6.55 16.504-9.58 25.236-4.28 12.355-7.946 24.683-10.899 36.644-3.873 15.748-6.344 29.944-7.55 43.399-.359 4.174-.593 7.86-.714 11.26-.053.992-.08 1.95-.084 2.873l-.053 4.192.007 1.425c.01.914.021 1.835.027 2.774.094 7.253.572 14.604 1.419 21.84.78 6.444 1.97 13.237 3.534 20.19.393 1.786.792 3.532 1.183 5.239.98 4.283 1.903 8.316 2.542 12.08.856 4.89 1.312 9.664 1.351 14.185.055 4.616-.265 8.487-.512 10.996-.149 1.408-.3 2.858-.49 4.128a75.721 75.721 0 01-.434 3.008l-.417 2.62a1.81 1.81 0 00.336 1.368c.291.394.72.648 1.207.715l8.711 1.214c.098.015.175.02.252.02.399 0 .793-.134 1.11-.38.385-.295.637-.742.695-1.225l.31-2.6c.117-.881.227-2.013.351-3.322.139-1.327.243-2.79.357-4.585.164-2.826.352-7.186.084-12.322-.24-5.09-.961-10.441-2.145-15.91-.856-4.053-1.96-8.128-3.127-12.443a659.601 659.601 0 01-1.395-5.202c-1.786-6.704-3.136-12.95-4.123-19.086a202.566 202.566 0 01-2.179-20.831l-.153-3.084a22.725 22.725 0 01-.037-.908l-.094-4.15a49.753 49.753 0 01-.015-2.645c.01-.568.013-1.138.017-1.71l.001-.246c.005-1.144.012-2.293.06-3.446l.07-1.898c.041-1.186.086-2.38.158-3.582.705-13.096 2.625-27.016 5.868-42.554 2.507-11.948 5.694-24.23 9.472-36.505a453.537 453.537 0 018.593-25.304c2.208-5.879 3.64-9.27 3.7-9.41a1.833 1.833 0 00-.935-2.371 1.835 1.835 0 00-.739-.156zM38.234 538.42c-.181 0-.364-.012-.548-.04l-8.69-1.21a3.844 3.844 0 01-2.54-1.509 3.85 3.85 0 01-.703-2.871l.419-2.632c.15-.873.282-1.836.427-2.957.182-1.222.323-2.558.48-4.055.241-2.456.557-6.251.502-10.773-.038-4.415-.484-9.08-1.322-13.865-.63-3.713-1.547-7.72-2.517-11.962a673.744 673.744 0 01-1.19-5.263c-1.578-7.015-2.779-13.875-3.568-20.388a214.692 214.692 0 01-1.432-22.059c-.006-.941-.016-1.861-.027-2.774l-.007-1.451.053-4.203c.005-.945.032-1.938.086-2.944.122-3.414.358-7.132.72-11.346 1.216-13.56 3.702-27.854 7.6-43.702 2.968-12.02 6.652-24.408 10.952-36.82a457.517 457.517 0 019.622-25.35c2.12-5.094 3.572-8.295 4.098-9.436.894-1.91 3.187-2.756 5.04-1.935 1.887.841 2.767 3.073 1.965 4.976-.06.141-1.475 3.496-3.67 9.335a450.827 450.827 0 00-8.554 25.189c-3.76 12.217-6.93 24.439-9.425 36.327-3.222 15.436-5.13 29.258-5.83 42.256a144.49 144.49 0 00-.154 3.542l-.072 1.906c-.048 1.132-.053 2.256-.058 3.376v.249c-.005.579-.008 1.156-.018 1.736a46.86 46.86 0 00.015 2.552l.094 4.172c.002.247.017.517.031.783l.157 3.138a200.608 200.608 0 002.155 20.618c.978 6.068 2.313 12.249 4.083 18.89.452 1.722.91 3.412 1.36 5.08 1.206 4.455 2.317 8.556 3.184 12.658 1.206 5.573 1.943 11.034 2.186 16.23.274 5.23.083 9.664-.085 12.544-.116 1.822-.221 3.31-.362 4.66a95.553 95.553 0 01-.358 3.375l-.308 2.587a3.834 3.834 0 01-1.46 2.571 3.838 3.838 0 01-2.331.795" fill="#231f20"/><path d="M565.044 422.404c-.733-13.052-3.717-26.586-8.868-40.226-4.01-10.651-9.324-21.384-15.795-31.896-4.45-7.232-9.298-14.144-14.402-20.54-3.752-4.698-6.104-7.195-6.202-7.298a1.945 1.945 0 00-2.878 2.614c.02.024 2.253 2.59 5.702 7.272a202.763 202.763 0 0113.276 20.6c5.875 10.444 10.61 21.026 14.079 31.45 2.09 6.294 3.727 12.579 4.865 18.672 1.25 6.663 1.94 13.27 2.052 19.64.059 3.199-.038 6.436-.16 10.03-.114 3.28-.298 6.645-.537 10.013-.419 6.113-1.079 12.448-2.019 19.363-1.406 10.222-3.302 19.94-4.978 28.515-.386 1.97-.76 3.893-1.12 5.762-1.06 5.559-1.86 10.144-2.442 14.024-.594 3.965-1.04 7.693-1.322 11.065-.123 1.33-.2 2.537-.271 3.62l-.09 1.644c-.043.779-.077 1.47-.089 2.024l-.072 2.456c-.018.523.178 1.03.54 1.404.362.38.858.592 1.38.6l8.095.092h.021a1.94 1.94 0 001.374-.567c.37-.369.577-.869.572-1.39l-.014-2.465c-.002-.512.006-1.073.018-1.703l.038-1.764c.03-.936.062-1.984.126-3.137.158-3.22.457-6.718.882-10.403.436-3.816 1.055-8.283 1.895-13.652.292-1.86.597-3.779.912-5.755 1.397-8.745 2.983-18.661 4.061-29.23.728-7.216 1.182-13.77 1.39-20.034.129-3.518.196-6.99.196-10.325 0-3.193 0-6.816-.215-10.475" fill="#fff"/><path d="M518.363 322.835a.943.943 0 00-.71 1.567c.252.29 2.472 2.884 5.752 7.334a203.617 203.617 0 0113.343 20.704c5.903 10.492 10.665 21.132 14.157 31.626 2.104 6.34 3.754 12.668 4.899 18.802 1.259 6.715 1.956 13.379 2.07 19.808.058 3.226-.04 6.474-.16 10.079a280.857 280.857 0 01-.54 10.05c-.42 6.142-1.083 12.497-2.026 19.427-1.42 10.316-3.315 20.015-4.987 28.572-.385 1.97-.76 3.89-1.118 5.76-1.063 5.56-1.86 10.133-2.435 13.983-.593 3.943-1.036 7.643-1.317 11.001-.114 1.228-.186 2.347-.252 3.359l-.106 1.876a59.274 59.274 0 00-.088 1.99l-.072 2.466a.928.928 0 00.26.679.94.94 0 00.675.294l8.092.092.01 1v-1c.251 0 .489-.097.666-.274a.928.928 0 00.279-.674l-.014-2.47c-.002-.519.006-1.087.018-1.726l.038-1.766c.03-.952.063-2.009.127-3.171.159-3.216.459-6.738.888-10.463.441-3.859 1.063-8.338 1.9-13.692.29-1.861.597-3.78.913-5.757 1.399-8.756 2.979-18.645 4.054-29.175.724-7.172 1.176-13.704 1.384-19.965.13-3.53.196-6.99.196-10.292 0-3.181 0-6.787-.214-10.416-.726-12.95-3.69-26.385-8.804-39.933-3.996-10.607-9.282-21.28-15.712-31.724-4.424-7.19-9.246-14.067-14.332-20.442-3.566-4.464-5.89-6.96-6.142-7.23a.947.947 0 00-.692-.3zm35.446 211.47h-.021l-8.107-.093a2.921 2.921 0 01-2.09-.91 2.927 2.927 0 01-.818-2.129l.072-2.45c.012-.553.047-1.259.09-2.05l.108-1.898c.068-1.028.142-2.163.256-3.402.285-3.393.732-7.137 1.33-11.124.58-3.874 1.38-8.474 2.45-14.062.36-1.872.733-3.795 1.118-5.765 1.668-8.532 3.558-18.202 4.97-28.46.936-6.886 1.594-13.196 2.012-19.296.244-3.447.424-6.804.534-9.98.122-3.576.219-6.796.16-9.975-.11-6.316-.796-12.868-2.036-19.473-1.128-6.05-2.753-12.287-4.83-18.543-3.451-10.37-8.162-20.895-14.002-31.273a201.65 201.65 0 00-13.21-20.5c-3.235-4.391-5.408-6.928-5.646-7.203-1.052-1.208-.944-3.056.239-4.123 1.137-1.03 3.057-.957 4.115.16.433.46 2.717 2.93 6.257 7.362 5.136 6.437 10.007 13.38 14.472 20.638 6.497 10.554 11.84 21.343 15.88 32.068 5.187 13.739 8.19 27.372 8.93 40.524.217 3.684.217 7.323.217 10.53 0 3.326-.067 6.812-.198 10.364-.21 6.302-.665 12.878-1.393 20.097-1.08 10.585-2.665 20.505-4.063 29.256-.32 2.006-.625 3.924-.917 5.783-.833 5.325-1.452 9.777-1.89 13.61-.425 3.684-.72 7.161-.877 10.34-.064 1.148-.096 2.19-.124 3.118l-.038 1.755c-.012.62-.02 1.171-.018 1.676l.014 2.465a2.951 2.951 0 01-.866 2.104 2.926 2.926 0 01-2.08.858" fill="#231f20"/><path d="M30.836 527.116c9.026 1.454 9.982-5.338 2.036-8.415-8.09-3.134-14.916-2.654-22.584-8.174-5.43-3.915-15.465-16.255-4.075-20.267 10.147-3.577 28.047 31.532 33.238 24.568 2.44-3.264-14.156-16.63-1.668-16.073 4.11.177 6.946 5.204 8.9 10.07 7.51-17.607 20.952 9.376 29.25 7.19 12.573-3.314-7.149-13.156-9.524-15.651-.948-.99-1.816-2.427-2.433-4.001-8.362-1.362-18.489-1.486-21.956-9.074-3.286-7.186.686-10.093 6.004-6.953 4.28 2.534 6.815 12.06 13.04 8.415-.708-2.6-16.392-24.233-4.087-21.93 3.693.691 9.159 14.885 10.354 19.404.572-.102 1.2-.15 1.91-.124 7.023.223 5.278 11.836 10.223 14.012 7.611 3.34 7.044-8.395 6.016-12.998-1.365-6.104-3.84-12.277-4.232-18.496-2.143-.95-4.344-1.699-6.271-2.31-9.09-2.903-24.643-9.809-26.45-20.614-1.23-7.361 3.212-12.752 10.328-7.51 5.804 4.266 8.668 15.474 15.257 19.011 5.102-7.15-2.1-20.093-3.63-27.524-5.993-14.26 4.604-28.722 11.847-19.425 5.908 7.601 1.488 20.436-.47 28.17-1.687 6.649.28 11.32 3.522 16.669 1.506-1.766-.13.238 0 0 4.458-8.472 9.535-7.383 13.942 1.16 8.723 16.929-8.596 32.184-6.889 48.606.961 9.257 9.314 10 11.448.837 1.408-6.04-3.476-16.07 6.236-17.026 3.52-.35 5.736.338 6.984 1.724.007-7.613-5.117-18.155-3.082-26.383 3.813-15.404 12.582-12.106 13.534-2.232.555 5.803-7.093 10.906-8.075 16.402-.555 3.097-.656 8.016 3.351 8.132 3.874.116 4.006-4.962 5.784-6.98 3.652-4.14 10.538-9.264 13.693-.922 4.242 11.215-19.919 20.002-26.833 27.274-1.063 2.554-2.289 5.11-3.424 7.462l-.162 1.532a4.484 4.484 0 01-.29-.605 233.46 233.46 0 00-1.174 2.452c3.17-.934 7.524.157 10.87.06 6.959-.2 11.997-4.364 17.147-8.555 2.655-2.163 12.666-10.694 13.45-2.48.629 6.53-12.031 7.234-15.478 9.102-5.644 3.06-10.847 12.33-.305 10.126 3.545-.741 16.684-12.278 13.795 1.272-3.152 14.78-39.225 19.853-48.809 12.367a13.043 13.043 0 01-1.5-1.37c-7.4 1.558-16.248 2.825-23.661 2.351-5.025-.321-11.012-1.848-16.375-4.47-6.82 19.765-56.73 5.958-48.578-11.94 4.996-10.966 13.849 3.162 19.856 4.134" fill="#fff"/><path d="M15.876 519.834c-.584 0-2.362 0-3.986 3.563-1.281 2.814-1.035 5.634.734 8.383 4.266 6.63 16.771 11.823 28.47 11.823 9.159 0 15.543-3.283 17.518-9.007a1.003 1.003 0 011.384-.572c5.007 2.447 10.839 4.04 16 4.37 1.025.066 2.116.098 3.24.098 7.113 0 14.884-1.32 20.151-2.43.343-.07.696.041.934.294.44.468.895.883 1.387 1.267 2.617 2.044 7.755 3.214 14.097 3.214 14.39 0 31.143-5.736 33.12-15 .723-3.39.282-4.574-.044-4.978-.13-.158-.372-.37-.986-.37-1.814 0-4.826 1.74-7.246 3.14-1.842 1.063-3.297 1.905-4.337 2.122-1.13.236-2.144.357-3.01.357-3.088 0-3.94-1.542-4.174-2.462-.777-3.064 3.022-7.827 6.81-9.879 1.06-.576 2.76-1.015 4.729-1.521 5.8-1.497 10.574-3.024 10.23-6.607-.25-2.595-1.436-2.595-1.942-2.595-2.856 0-7.731 3.993-9.566 5.496l-.497.407c-5.09 4.142-10.351 8.424-17.569 8.632-1.269.034-2.693-.09-4.065-.215-1.228-.112-2.498-.227-3.68-.227-1.156 0-2.096.112-2.872.34a1.002 1.002 0 01-1.187-1.385c.365-.776.76-1.593 1.171-2.445.079-.163.198-.298.343-.398l.022-.214a1.02 1.02 0 01.094-.33c1.21-2.508 2.382-4.963 3.403-7.411a.97.97 0 01.198-.305c2.264-2.382 6.23-4.871 10.43-7.509 8.816-5.533 18.808-11.805 16.19-18.722-.973-2.575-2.307-3.827-4.078-3.827-2.17 0-5.134 1.89-7.928 5.056-.476.539-.848 1.453-1.242 2.421-.888 2.183-1.995 4.9-5.163 4.9l-.16-.002c-1.391-.04-2.502-.56-3.297-1.538-1.71-2.104-1.366-5.772-1.008-7.77.477-2.67 2.332-5.176 4.127-7.6 2.165-2.923 4.21-5.684 3.937-8.531-.416-4.324-2.466-7.461-4.874-7.461-2.059 0-4.898 2.584-6.693 9.838-1.16 4.688.144 10.266 1.405 15.66.879 3.757 1.709 7.308 1.706 10.485a1 1 0 01-1.743.667c-1.097-1.217-3.146-1.696-6.143-1.398-5.543.545-5.589 4.073-5.206 9.781.15 2.22.304 4.515-.154 6.476-1.25 5.365-4.342 7.276-6.82 7.276-2.857 0-6.006-2.547-6.596-8.235-.746-7.172 2.013-14.125 4.68-20.848 3.676-9.268 7.149-18.021 2.315-27.402-2.177-4.22-4.436-6.448-6.534-6.448-1.61 0-3.284 1.368-4.886 3.973a.9.9 0 01.007.12c0 .336-.405.97-.875 1.379-.002 0-.004.004-.006.005a.988.988 0 01-.5.317c-.093.034-.237.039-.266.054a1.005 1.005 0 01-.933-.64c-3.452-5.727-5.242-10.636-3.551-17.295.215-.85.458-1.76.716-2.716 2.063-7.688 4.89-18.216-.068-24.595-1.302-1.67-2.777-2.554-4.267-2.554-1.751 0-3.568 1.224-4.986 3.357-2.343 3.524-3.979 10.255-.883 17.621.026.06.044.123.057.186.399 1.932 1.213 4.31 2.076 6.828 2.416 7.053 5.422 15.829 1.39 21.48a1.005 1.005 0 01-1.286.3c-3.801-2.04-6.366-6.342-8.847-10.503-2.068-3.465-4.022-6.741-6.53-8.585-3.086-2.274-5.85-2.504-7.471-.587-1.292 1.524-1.77 4.19-1.279 7.128 1.9 11.365 20.204 18.047 25.768 19.824 1.765.561 4.086 1.335 6.373 2.35.34.15.569.48.592.851.25 3.982 1.41 8.055 2.532 11.994.592 2.08 1.204 4.23 1.678 6.346.568 2.543 1.462 9.868-1.19 13.177-1.396 1.743-3.581 2.109-6.204.955-2.584-1.136-3.56-4.204-4.503-7.17-1.317-4.14-2.335-6.663-5.35-6.757l-.344-.007c-.479 0-.922.037-1.357.116a1.005 1.005 0 01-1.144-.73c-1.588-6.002-6.905-18.178-9.571-18.677a8.083 8.083 0 00-1.468-.155c-1.384 0-1.692.538-1.793.714-1.528 2.669 3.756 11.677 6.296 16.006 1.36 2.319 2.022 3.464 2.201 4.12.119.436-.07.897-.46 1.127-1.085.634-2.158.957-3.19.957-3.113 0-5.18-2.754-7.18-5.42-1.18-1.57-2.4-3.194-3.684-3.956-2.331-1.378-4.467-1.481-5.272-.23-.748 1.165-.497 3.318.687 5.906 2.718 5.95 10.145 6.963 17.327 7.941 1.314.18 2.617.358 3.88.564a1 1 0 01.77.622c.57 1.455 1.38 2.793 2.224 3.674.445.466 1.862 1.409 3.363 2.406 6.114 4.065 11.128 7.712 10.554 11.168-.286 1.725-1.876 2.948-4.86 3.735-.404.105-.828.16-1.26.16-3.38 0-7.03-3.212-10.895-6.614-3.745-3.293-7.617-6.7-10.822-6.7-2.227 0-4.062 1.762-5.608 5.388-.16.374-.571.602-.93.608a.997.997 0 01-.918-.628c-2.468-6.14-5.164-9.318-8.015-9.442-1.97-.084-3.254.205-3.56.78-.636 1.2 1.6 4.489 3.231 6.89 2.255 3.318 4.201 6.182 2.841 8.003-.643.863-1.51 1.317-2.51 1.317-3.146 0-6.992-4.308-13.004-11.336-5.776-6.752-12.322-14.404-16.99-14.404-.421 0-.826.067-1.202.2-2.73.962-4.2 2.416-4.491 4.445-.648 4.498 4.803 11.173 8.818 14.067 4.72 3.397 9.134 4.45 13.807 5.566 2.728.649 5.549 1.322 8.553 2.486 4.124 1.596 6.47 4.344 5.973 7-.32 1.715-2.071 3.55-6.025 3.55-.78 0-1.622-.074-2.503-.215-2.241-.361-4.61-2.18-7.118-4.102-2.67-2.049-5.43-4.167-7.684-4.167zm25.218 25.77c-12.31 0-25.555-5.597-30.151-12.743-2.13-3.31-2.433-6.869-.873-10.291 1.431-3.145 3.385-4.736 5.806-4.736 2.931 0 5.966 2.327 8.902 4.578 2.2 1.69 4.476 3.435 6.218 3.718 3.408.55 5.958-.2 6.245-1.73.246-1.32-1.13-3.373-4.73-4.768-2.879-1.113-5.632-1.772-8.295-2.405-4.87-1.163-9.472-2.26-14.512-5.888-3.386-2.44-10.51-9.852-9.63-15.975.404-2.797 2.357-4.832 5.807-6.046a5.597 5.597 0 011.867-.314c5.589 0 12.158 7.679 18.51 15.104 4.473 5.23 9.1 10.636 11.484 10.636.258 0 .57-.06.907-.513.508-.68-1.704-3.934-2.892-5.683-2.337-3.437-4.543-6.687-3.344-8.95.728-1.376 2.426-1.973 5.415-1.842 3.376.147 6.304 2.987 8.914 8.67 1.736-3.09 3.865-4.599 6.469-4.599 3.96 0 8.12 3.66 12.144 7.2 3.76 3.31 7.708 6.715 10.324 6.02 2.052-.54 3.258-1.298 3.396-2.128.41-2.46-6.16-6.828-9.689-9.175-1.801-1.197-3.104-2.062-3.701-2.689-.921-.963-1.77-2.295-2.42-3.792a176.224 176.224 0 00-3.278-.467c-7.36-1.004-15.7-2.14-18.877-9.093-1.493-3.266-1.689-6.041-.55-7.816 1.396-2.17 4.64-2.38 7.972-.412 1.627.963 2.968 2.75 4.265 4.477 1.784 2.376 3.47 4.62 5.583 4.62.443 0 .9-.096 1.383-.288-.383-.726-1.03-1.828-1.66-2.904-4.433-7.556-8.25-14.618-6.306-18.012.45-.785 1.426-1.72 3.528-1.72.55 0 1.168.064 1.836.19 4.425.828 9.601 15.18 10.887 19.287.395-.031.798-.04 1.228-.024 4.644.147 5.996 4.4 7.188 8.151.847 2.66 1.646 5.172 3.403 5.945 1.755.77 2.988.688 3.839-.374 1.815-2.265 1.559-8.083.798-11.49-.461-2.062-1.065-4.183-1.65-6.237-1.094-3.842-2.224-7.81-2.56-11.801-2.019-.86-4.044-1.533-5.62-2.033-5.838-1.864-25.046-8.92-27.133-21.402-.596-3.564.033-6.753 1.724-8.75 2.299-2.714 6.17-2.69 10.183.269 2.834 2.084 4.984 5.688 7.062 9.173 2.15 3.603 4.366 7.319 7.277 9.282 2.653-4.888.006-12.615-2.142-18.887-.871-2.54-1.694-4.941-2.124-6.977-3.35-8.062-1.507-15.492 1.099-19.414 1.794-2.701 4.22-4.25 6.652-4.25 1.485 0 3.704.577 5.846 3.326 5.569 7.166 2.593 18.248.42 26.34-.254.948-.496 1.85-.708 2.69-1.4 5.51-.187 9.613 2.539 14.429 1.995-3.21 4.187-4.833 6.532-4.833 2.937 0 5.733 2.534 8.311 7.532 5.252 10.189 1.446 19.78-2.233 29.056-2.698 6.797-5.245 13.22-4.55 19.903.462 4.45 2.647 6.442 4.607 6.442 2.15 0 4.061-2.248 4.872-5.728.39-1.673.246-3.817.107-5.89-.333-4.964-.749-11.142 7.005-11.905 2.46-.25 4.457-.013 5.974.698-.247-2.454-.882-5.17-1.546-8.008-1.314-5.623-2.674-11.44-1.399-16.594 2.538-10.252 6.884-11.358 8.635-11.358 3.516 0 6.34 3.812 6.865 9.27.346 3.61-2.027 6.815-4.32 9.912-1.734 2.342-3.37 4.552-3.766 6.762-.5 2.785-.278 5.087.59 6.157.419.515 1.01.777 1.806.799h.003c1.798 0 2.483-1.38 3.408-3.652.44-1.08.894-2.195 1.594-2.99 1.521-1.724 5.485-5.733 9.428-5.733 1.83 0 4.35.888 5.95 5.119 3.197 8.449-7.533 15.184-16.999 21.125-4.01 2.516-7.8 4.897-9.918 7.061-1 2.387-2.131 4.761-3.299 7.182l-.143 1.36a1.017 1.017 0 01-.12.378c1.44-.064 3.12.076 4.675.216 1.216.11 2.364.213 3.419.213l.41-.006c6.537-.187 11.31-4.07 16.362-8.183l.492-.402c3.592-2.942 7.687-5.95 10.834-5.95 1.312 0 3.566.572 3.933 4.405.536 5.574-6.55 7.4-11.723 8.734-1.764.453-3.43.884-4.276 1.341-3.512 1.906-6.258 5.913-5.823 7.63.25.98 2.028 1.225 4.837.64.726-.152 2.26-1.04 3.745-1.897 2.764-1.598 5.896-3.408 8.247-3.408 1.356 0 2.129.605 2.54 1.112 1.006 1.245 1.149 3.358.446 6.651-2.44 11.44-21.98 16.585-35.076 16.585-6.88 0-12.323-1.291-15.326-3.638-.427-.332-.83-.684-1.218-1.067-5.342 1.104-12.98 2.36-20.025 2.36-1.167 0-2.3-.033-3.367-.102-5.08-.324-10.768-1.81-15.773-4.106-2.632 5.94-9.477 9.32-19.002 9.32" fill="#231f20"/><path d="M515.477 511.891c-11.045-22.39-30.07-22.875-41.798-21.333-11.73 1.533 4.722 10.913 22.392 13.681-31.784.833-36.77 5.983-35.151 10.421 1.615 4.431 27.208-3.552 40.659-2.133-32.558 5.395-64.344 29.017-52.127 35.108 12.223 6.099 45.417-32.915 58.519-32.86-29.863 21.676-35.674 44.488-19.251 48.055 16.42 3.569 18.6-41.098 26.783-45.127-5.003 25.996-4.107 46.616 11.04 45.176 15.142-1.442 6.77-38.087-3.3-47.15 23.284 9.568 19.826 24.514 32.617 30.943 12.79 6.434 14.535-9.523 6.396-20.54-8.144-11.008-28.108-17.065-39.033-14.276 16.01-11.355 34.669 6.672 45.697 2.4 11.03-4.27-22.024-31.221-43.8-10.159 14.61-18.753 8.959-33.313 1.568-29.967-7.387 3.338-8.28 32.166-8.28 32.166s-7.293-24.806-12.753-23.41c-5.462 1.392 9.822 29.005 9.822 29.005" fill="#fff"/><path d="M507.944 513.775c.433 0 .83.279.964.69a.994.994 0 01-.35 1.12c-21.47 15.583-29.337 30.857-27.61 39.082.785 3.737 3.547 6.221 7.984 7.185.55.119 1.092.18 1.616.18 8.072 0 12.475-14.86 16.01-26.801 2.76-9.315 4.94-16.67 8.503-18.425a1 1 0 011.424 1.086c-4.002 20.795-3.544 34.903 1.324 40.798 2.07 2.506 4.894 3.557 8.638 3.193 3.049-.29 5.189-2.24 6.364-5.794 3.662-11.093-2.976-33.08-10.236-39.617a1 1 0 011.05-1.668c13.892 5.711 18.446 13.247 22.462 19.895 2.765 4.579 5.154 8.533 10.222 11.08 4.286 2.155 7.483 1.76 8.982-1.21 1.864-3.692.937-11.377-3.84-17.842-6.734-9.104-21.676-14.545-32.231-14.545-2.14 0-4.073.215-5.75.643a1 1 0 01-.825-1.784c3.795-2.69 7.968-4 12.762-4 5.916 0 11.906 2.051 17.192 3.86 4.542 1.557 8.833 3.024 12.428 3.024 1.332 0 2.486-.195 3.532-.6 1.246-.483 1.724-1.264 1.5-2.455-.876-4.7-12.276-13.726-25.564-13.726-7.131 0-13.416 2.581-18.68 7.672a.999.999 0 01-1.484-1.333c8.789-11.282 10.289-21.315 7.878-26.252-1.125-2.303-3.032-3.133-5.108-2.19-5.594 2.529-7.45 23.44-7.693 31.286-.016.49-.385.898-.872.962-.481.053-.95-.24-1.088-.711-2.777-9.447-8.132-22.748-11.34-22.748-.07 0-.139.01-.207.025-.092.024-.18.061-.27.258-1.023 2.3 2.448 11.57 9.06 24.193.57.978 1.142 2.046 1.684 3.142a1 1 0 01-1.772.927s-.671-1.211-1.682-3.14c-7.006-12.064-17.672-18.201-31.68-18.201-2.365 0-4.797.167-7.432.514-2.253.296-3.077.874-3.081 1.191-.027 2.17 10.977 8.237 25.497 10.51a1 1 0 01-.128 1.99c-24.841.65-32.185 3.917-33.973 6.543-.528.777-.612 1.582-.264 2.536.027.072.339.697 3.273.697 3.22 0 8.147-.76 13.366-1.563 6.38-.982 13.612-2.097 19.474-2.097 1.348 0 2.596.06 3.71.177a1.002 1.002 0 01.06 1.983c-27.504 4.557-52.683 21.51-53.92 29.741-.232 1.555.426 2.662 2.076 3.486.72.359 1.57.54 2.526.54 6.862 0 18.06-8.842 28.887-17.392 10.495-8.289 20.407-16.115 26.632-16.115zm-17.396 50.257a9.593 9.593 0 01-2.041-.226c-5.267-1.143-8.558-4.162-9.515-8.73-2.11-10.05 7.38-24.71 24.415-38.108-5.68 2.507-13.366 8.576-20.855 14.49-11.096 8.764-22.57 17.825-30.127 17.825-1.268 0-2.42-.253-3.42-.753-3.072-1.531-3.413-3.875-3.158-5.57 1.312-8.728 22.432-22.906 45.737-29.256-4.196.403-8.668 1.092-12.783 1.726-5.294.814-10.294 1.585-13.668 1.585-1.897 0-4.496-.21-5.153-2.012-.563-1.544-.393-3.047.49-4.347 2.615-3.84 11.669-6.176 27.589-7.09-10.134-2.676-19.376-7.162-19.331-10.853.023-1.673 1.644-2.731 4.821-3.147 2.722-.358 5.238-.532 7.692-.532 10.982 0 20.014 3.575 26.97 10.653-3.236-7.09-5.574-13.768-4.406-16.388.32-.719.875-1.196 1.602-1.381.228-.06.464-.088.7-.088 4.445 0 9.1 11.61 11.604 18.969.657-8.805 2.66-24.91 8.566-27.581 3.047-1.376 6.144-.107 7.728 3.134 2.127 4.352 1.978 12.642-4.324 22.938 4.454-2.729 9.48-4.146 14.814-4.146 13.614 0 26.398 9.293 27.532 15.36.4 2.145-.6 3.854-2.747 4.685-1.279.496-2.67.736-4.253.736-3.927 0-8.371-1.52-13.078-3.131-5.388-1.845-10.96-3.752-16.542-3.752-2.463 0-4.743.377-6.884 1.145 11.074-.228 27.276 5.535 34.536 15.35 4.769 6.454 6.496 15.023 4.018 19.933-1.972 3.91-6.333 4.778-11.666 2.096-5.583-2.807-8.232-7.191-11.036-11.832-3.432-5.685-7.275-12.044-17.451-17.223 6.44 9.308 11.203 27.852 7.785 38.204-1.426 4.316-4.216 6.793-8.072 7.16-4.44.422-7.888-.904-10.37-3.911-5.063-6.13-5.851-19.301-2.351-39.17-1.944 3.21-3.713 9.182-5.439 15.005-3.921 13.233-8.364 28.233-17.93 28.233" fill="#231f20"/><path d="M609.996 545.966c-.75-5.342-.535-14.05-.535-14.05s-24.128-1.792-26.438-11.382c-2.308-9.58 26.284-6.018 26.284-6.018l1.264-9.693s-26.323-3.395-25.808-10.204c.51-6.81 12.514-7.999 27.136-5.33 1.164-5.042 2.282-7.458 2.282-7.458s-25.644-8.66-23.92-14.908c1.72-6.248 11.716-6.901 28.203 2.504 2.035-3.752 4.552-7.283 4.552-7.283s-23.91-10.5-22.41-16.265c1.497-5.764 14.445-3.29 28.369 4.047 2.592-4.962 3.622-6.546 3.622-6.546s-20.43-13.577-17.048-20.234c3.378-6.655 25.736 7.822 25.736 7.822s6.054-13.05 10.92-17.841c4.86-4.795 13.728.788-1.845 22.344 20.907 13.804 22.803 17.324 19.8 20.632-3.003 3.307-26.576-7.917-26.576-7.917s-3.995 6.078-4.908 7.41c13.423 6.522 20.235 15.26 18.317 18.768-1.922 3.516-24.662-7.612-24.662-7.612l-3.73 6.784s23.778 10.15 24.454 16.924c.678 6.774-24.311-3.932-28.886-5.468-1.553 3.979-1.69 7.444-1.69 7.444s23.029 4.798 24.057 11.447c1.035 6.641-22.519 4.24-27.335 2.593-.16 6.68-.424 9.785-.424 9.785s26.356 4.585 26.788 11.252c.436 6.66-20.628 7.76-27.23 6.167.062 10.009.106 15.612.106 15.612l-8.445-3.326" fill="#fff"/><path d="M610.91 545.25l6.52 2.569c-.017-2.279-.05-7.127-.094-14.134a1 1 0 011.235-.978c1.628.394 4.256.618 7.208.618 6.892 0 15.494-1.262 18.09-4.034.51-.545.739-1.106.699-1.713-.279-4.284-16.072-8.61-25.963-10.331a1 1 0 01-.825-1.07c.003-.031.264-3.164.421-9.723a1.002 1.002 0 011.323-.924c2.103.718 8.767 1.759 15.316 1.759 5.452 0 9.239-.771 10.39-2.117.29-.337.387-.688.318-1.136-.67-4.344-14.63-8.82-23.272-10.62a.998.998 0 01-.795-1.019c.006-.149.162-3.68 1.758-7.767a1.002 1.002 0 011.25-.586c.703.236 1.883.687 3.376 1.257 5.848 2.23 16.73 6.384 21.976 6.384 1.478 0 1.946-.34 2.079-.489.05-.054.183-.201.139-.636-.448-4.506-14.868-12.27-23.851-16.104a.994.994 0 01-.552-.593.995.995 0 01.068-.808l3.73-6.784a1.001 1.001 0 011.317-.417c.166.082 16.817 8.197 22.384 8.197.78 0 .964-.172.965-.175.336-.614.17-1.486-.028-2.11-1.203-3.76-7.3-10.143-17.853-15.27a.998.998 0 01-.528-.644.997.997 0 01.14-.821c.912-1.33 4.897-7.396 4.897-7.396a1 1 0 011.265-.352c.178.083 17.78 8.43 24.066 8.43.8 0 1.222-.151 1.34-.282.678-.747.93-1.35.848-2.017-.352-2.788-6.278-7.746-20.458-17.108a.992.992 0 01-.432-.655.997.997 0 01.172-.765c8.155-11.288 9.54-18.286 8.116-21.071-.43-.841-1.122-1.287-2.001-1.287-.908 0-1.913.478-2.757 1.31-4.682 4.61-10.654 17.422-10.714 17.552a1.002 1.002 0 01-1.45.418c-.146-.094-14.622-9.41-21.582-9.41-2.11 0-2.57.902-2.72 1.2-2.17 4.273 9.098 13.89 16.71 18.949.456.304.582.917.285 1.377-.01.016-1.05 1.63-3.575 6.466a1 1 0 01-1.353.42c-8.46-4.458-16.62-7.12-21.83-7.12-2.966 0-4.685.822-5.106 2.44-.887 3.409 12.241 10.882 21.847 15.1a1 1 0 01.412 1.496c-.026.034-2.508 3.525-4.488 7.178a1 1 0 01-1.375.392c-10.157-5.794-16.47-7.012-19.977-7.012-2.598 0-5.878.679-6.767 3.904-1.015 3.682 13 10.224 23.277 13.695a1 1 0 01.588 1.367c-.01.024-1.094 2.41-2.216 7.265-.12.519-.628.848-1.153.758-4.736-.865-9.056-1.303-12.84-1.303-4.74 0-12.747.743-13.12 5.722-.307 4.045 14.4 7.779 24.939 9.139a1 1 0 01.864 1.121l-1.264 9.692c-.072.547-.576.93-1.116.864-.051-.007-5.211-.64-10.863-.64-7.4 0-12.335 1.09-13.893 3.07-.524.663-.66 1.414-.431 2.36 1.753 7.286 19.03 10.138 25.54 10.62.53.04.939.49.925 1.024-.002.082-.19 8.077.45 13.309zm7.531 5.042a1.03 1.03 0 01-.366-.07l-8.446-3.325a1.005 1.005 0 01-.625-.791c-.615-4.386-.592-10.863-.56-13.275-4.621-.452-24.185-2.897-26.393-12.063-.374-1.548-.103-2.916.804-4.067 2.004-2.543 7.205-3.834 15.465-3.834 4.3 0 8.323.36 10.123.546l1.008-7.731c-6.17-.86-26.211-4.195-25.686-11.139.366-4.883 5.735-7.573 15.115-7.573 3.652 0 7.775.393 12.265 1.17.676-2.763 1.314-4.649 1.714-5.706-6.038-2.106-25.327-9.38-23.562-15.776.954-3.466 4.04-5.374 8.694-5.374 5.185 0 12.116 2.342 20.086 6.778a82.06 82.06 0 013.43-5.495c-5.803-2.624-23.387-11.11-21.87-16.939.467-1.796 2.067-3.937 7.042-3.937 5.413 0 13.344 2.503 21.874 6.887 1.336-2.536 2.204-4.066 2.696-4.902-4.186-2.874-19.982-14.306-16.592-20.984.532-1.046 1.744-2.294 4.504-2.294 6.527 0 18.25 6.976 21.706 9.122 1.55-3.214 6.452-12.985 10.636-17.106 1.233-1.216 2.71-1.886 4.16-1.886 1.632 0 3.01.867 3.782 2.378 2.166 4.233-.628 12.332-7.67 22.304 16.596 11.01 20.097 14.94 20.476 17.954.209 1.67-.671 2.86-1.351 3.61-.572.633-1.496.938-2.821.938-6.008.002-20.542-6.581-24.135-8.253-.87 1.32-2.721 4.132-3.8 5.75 10.504 5.32 16.524 11.79 17.853 15.949.462 1.448.419 2.688-.126 3.686-.438.8-1.352 1.207-2.716 1.207-5.32 0-18.824-6.276-22.406-7.985l-2.744 4.992c4.996 2.204 23.39 10.748 24.044 17.302.11 1.09-.29 1.786-.646 2.18-.698.77-1.862 1.145-3.56 1.145-5.616 0-16.724-4.238-22.691-6.515a232.99 232.99 0 00-2.384-.903 25.62 25.62 0 00-1.217 5.377c4.69 1.041 22.956 5.5 23.973 12.087a3.315 3.315 0 01-.775 2.741c-1.598 1.87-5.605 2.817-11.91 2.817-5.35 0-11.448-.735-14.672-1.505-.108 3.92-.247 6.42-.328 7.652 6.03 1.101 26.289 5.304 26.724 12.012.077 1.174-.34 2.253-1.234 3.21-3.226 3.445-12.55 4.667-19.55 4.667-2.494 0-4.722-.149-6.435-.428.057 9.24.097 14.387.097 14.387a1.002 1.002 0 01-1 1.008" fill="#231f20"/><path d="M231.128 195c1.617-38.953-57.447-145.668-110.789-112.84-31.316 19.27-4.104 82.064 34.88 108.74-54.24 22.16-65.509 69.692-45.14 92.322 36.932 41.033 119-38.98 121.049-88.222" fill="#fff"/><path d="M141.323 76.976c-7.07 0-13.953 2.03-20.46 6.036-8.328 5.124-12.877 13.927-13.157 25.458-.641 26.418 20.926 63.025 48.077 81.605a.998.998 0 01-.187 1.75c-28.285 11.557-47.5 31.255-52.716 54.046-3.231 14.115-.336 27.484 7.942 36.681 6.563 7.292 14.892 10.99 24.757 10.992h.008c41.06.002 92.96-60.546 94.542-98.585.899-21.663-18.006-66.648-44.654-94.425-14.786-15.411-30.052-23.558-44.152-23.558zm-5.736 218.568h-.01c-10.454-.001-19.283-3.922-26.242-11.653-8.72-9.688-11.783-23.708-8.405-38.467 5.26-22.974 24.25-42.85 52.223-54.746-26.935-19.223-48.09-55.73-47.447-82.256.297-12.24 5.176-21.616 14.109-27.114 6.827-4.201 14.064-6.332 21.508-6.332 14.657 0 30.424 8.359 45.594 24.174 27.787 28.964 46.128 73.782 45.21 95.892-1.612 38.776-54.608 100.502-96.54 100.502" fill="#231f20"/><path d="M208.087 153.175s-25.172-52.039-50.82-39.213c-25.644 12.82 2.298 63.229 17.226 78.16-27.698 17.953-47.488 50.582-26.46 64.946 21.036 14.355 51.296-23.6 51.296-23.6l8.758-80.293" fill="#fff"/><path d="M165.657 112.928c-2.713 0-5.385.648-7.944 1.927-5.286 2.644-8.482 7.163-9.5 13.433-3.266 20.114 16.115 52.252 26.987 63.127.213.215.319.512.288.812-.032.3-.199.57-.452.735-20.312 13.165-34.621 32.656-34.8 47.397-.081 6.695 2.732 12.039 8.361 15.883 2.983 2.036 6.352 3.068 10.014 3.069 17.705.003 37.654-23.685 39.756-26.244l8.693-79.71c-1.723-3.447-20.713-40.429-41.403-40.429zm-7.044 148.383h-.002c-4.071-.001-7.82-1.15-11.142-3.417-6.13-4.187-9.322-10.26-9.233-17.558.183-15.122 14.396-34.886 34.696-48.385-11.244-11.89-29.98-43.737-26.693-63.984 1.126-6.94 4.686-11.953 10.58-14.9 2.838-1.42 5.812-2.139 8.838-2.139 22.842 0 42.504 40.104 43.33 41.81.08.17.114.358.094.545l-8.758 80.295c-.02.188-.095.366-.212.514-.887 1.112-21.923 27.219-41.498 27.219" fill="#231f20"/><path d="M388.179 335.832s-23.574 54.818-74.892 57.448c-40.007 2.052-37.954-54.37-2.052-66.677 27.698 6.153 76.944 9.23 76.944 9.23" fill="#fff"/><path d="M311.296 327.64c-19.679 6.902-28.697 27.406-26.043 43.33 2.23 13.38 11.924 21.365 25.935 21.365.67 0 1.352-.019 2.048-.053 45.727-2.344 69.441-47.282 73.423-55.548-8.356-.567-50.54-3.624-75.363-9.094zm-.108 66.695c-15.072 0-25.504-8.61-27.908-23.035-2.803-16.818 6.767-38.49 27.63-45.642a.997.997 0 01.542-.031c27.304 6.065 76.297 9.176 76.79 9.207a1 1 0 01.857 1.393c-.24.555-24.415 55.42-75.76 58.052-.731.037-1.448.056-2.151.056" fill="#231f20"/><path d="M388.52 74.11s-37.437-63.167-100.484-58.256c-49.144 3.829-34.172 70.488 8.044 81.698 32.83-11.892 92.44-23.441 92.44-23.441" fill="#fff"/><path d="M295.005 16.582c-2.28 0-4.598.09-6.892.269-17.44 1.359-28.262 11.143-29.694 26.845-1.834 20.11 12.838 46.05 37.617 52.808 29.752-10.721 81.603-21.252 90.863-23.093-5.39-8.34-39.018-56.83-91.894-56.83zm1.075 81.97a.985.985 0 01-.256-.033c-25.937-6.888-41.312-34.001-39.397-55.004 1.529-16.77 13.02-27.216 31.532-28.657a91.089 91.089 0 017.046-.276c58.712 0 94.026 58.429 94.376 59.02.166.278.184.622.052.918-.134.298-.404.51-.722.572-.596.116-59.911 11.672-92.291 23.4a.993.993 0 01-.34.06" fill="#231f20"/><path d="M342.112 80.279c2.492 1.801 8.41 3.95 11.123 1.263 1.198-1.194 1.278-3.08 1.27-4.774-.018-3.146-4.028-7.657-5.762-10.317a114.894 114.894 0 00-7.516-10.207 113.429 113.429 0 00-18.163-17.618c-2.725-2.1-5.625-4.124-8.97-4.936-5.926-1.458-10.162 2.954-7.171 8.477 3.82 7.06 9.462 13.13 14.892 18.964 6.346 6.823 12.745 13.69 20.297 19.148" fill="#fff"/><path d="M311.861 34.408c-1.966 0-3.56.782-4.37 2.144-.835 1.402-.724 3.227.312 5.138 3.77 6.968 9.349 12.962 14.744 18.76 6.214 6.68 12.642 13.59 20.152 19.018 1.569 1.135 4.526 2.34 6.92 2.342 1.277 0 2.257-.33 2.913-.98.912-.908.981-2.503.973-4.058-.012-2.081-2.346-5.265-4.052-7.59-.588-.804-1.132-1.547-1.548-2.186a114.63 114.63 0 00-7.45-10.116 112.553 112.553 0 00-18.002-17.464c-2.45-1.885-5.337-3.964-8.594-4.754a8.394 8.394 0 00-1.998-.254zM349.62 83.81c-2.977-.002-6.284-1.411-8.093-2.722-7.668-5.541-14.164-12.524-20.444-19.277-5.48-5.888-11.147-11.977-15.04-19.168-1.364-2.519-1.463-5.112-.271-7.115 1.516-2.545 4.961-3.693 8.561-2.81 3.635.884 6.728 3.104 9.342 5.114A114.716 114.716 0 01342 55.608a117.149 117.149 0 017.58 10.296c.4.612.921 1.324 1.487 2.095 1.97 2.687 4.422 6.032 4.438 8.763.01 1.893-.104 4.033-1.564 5.488-1.046 1.036-2.498 1.56-4.321 1.56" fill="#231f20"/><path d="M359.37 331.47c1.818-1.708 6.366-4.062 8.83-2.172 1.093.833 1.356 2.342 1.519 3.704.32 2.545-2.438 6.597-3.564 8.917a91.27 91.27 0 01-4.988 9.017 92.197 92.197 0 01-12.796 16.09c-1.98 1.976-4.107 3.913-6.714 4.92-4.622 1.79-8.498-1.318-6.666-6.086 2.344-6.088 6.257-11.57 10.022-16.837 4.4-6.157 8.842-12.361 14.356-17.553" fill="#fff"/><path d="M365.919 329.599c-2.136 0-4.715 1.52-5.864 2.6-5.468 5.148-9.922 11.379-14.227 17.405-3.735 5.222-7.596 10.622-9.905 16.616-.575 1.499-.523 2.863.149 3.842.947 1.377 3.079 1.782 5.224.952 2.507-.97 4.601-2.931 6.368-4.695a91.206 91.206 0 0012.657-15.913 91.091 91.091 0 004.932-8.92c.268-.552.623-1.194 1.007-1.89 1.128-2.04 2.672-4.834 2.465-6.47-.137-1.16-.35-2.438-1.132-3.034-.426-.328-.99-.493-1.674-.493zm-26.85 43.86c-1.962 0-3.657-.827-4.645-2.265-1.057-1.538-1.187-3.56-.368-5.692 2.401-6.234 6.337-11.738 10.144-17.06 4.361-6.104 8.873-12.42 14.484-17.7 1.623-1.524 4.71-3.143 7.235-3.143 1.134 0 2.106.304 2.889.904 1.4 1.07 1.716 2.821 1.904 4.38.287 2.276-1.37 5.272-2.701 7.681-.366.662-.704 1.27-.956 1.792a92.641 92.641 0 01-5.042 9.11 93.169 93.169 0 01-12.934 16.268c-1.912 1.908-4.192 4.037-7.062 5.144-.993.385-1.985.58-2.948.58" fill="#231f20"/><path d="M330.703 328.026c1.86-1.682 6.442-3.93 8.878-1.998 1.068.856 1.295 2.378 1.44 3.74.267 2.55-2.577 6.539-3.746 8.84a93.838 93.838 0 01-5.17 8.908 92.246 92.246 0 01-13.13 15.83c-2.014 1.938-4.186 3.82-6.808 4.777-4.667 1.69-8.47-1.497-6.544-6.219 2.469-6.045 6.489-11.434 10.365-16.625 4.53-6.075 9.093-12.183 14.715-17.253" fill="#fff"/><path d="M337.199 326.284c-2.123 0-4.686 1.454-5.826 2.484-5.576 5.03-10.154 11.17-14.584 17.108-3.844 5.15-7.817 10.475-10.24 16.406-.612 1.498-.581 2.872.087 3.865.927 1.379 3.035 1.816 5.19 1.036 2.298-.837 4.243-2.428 6.455-4.556a91.254 91.254 0 0012.988-15.661 93.037 93.037 0 005.114-8.812 43.76 43.76 0 011.06-1.9c1.164-2.004 2.754-4.752 2.584-6.382-.131-1.22-.32-2.462-1.071-3.064-.439-.345-1.03-.524-1.757-.524zm-27.503 43.296c-2.01 0-3.73-.844-4.72-2.318-1.05-1.563-1.15-3.6-.279-5.736 2.52-6.168 6.57-11.596 10.49-16.844 4.485-6.018 9.125-12.238 14.845-17.398 1.333-1.206 4.343-3 7.167-3 1.19 0 2.2.324 3.004.96 1.465 1.175 1.684 3.206 1.813 4.418.239 2.28-1.47 5.228-2.843 7.596-.385.665-.741 1.28-1.006 1.804a95.61 95.61 0 01-5.226 9.004c-3.854 5.858-8.32 11.242-13.274 16.002-2.071 1.994-4.372 3.979-7.158 4.995a8.271 8.271 0 01-2.813.517" fill="#231f20"/><path d="M307.681 89.022c2.526 1.76 8.478 3.774 11.152 1.03 1.167-1.22 1.199-3.106 1.159-4.792-.084-3.152-4.177-7.574-5.97-10.194a116.44 116.44 0 00-7.71-10.054 114.454 114.454 0 00-18.533-17.242c-2.771-2.04-5.716-4.002-9.068-4.755-5.966-1.328-10.106 3.17-7.002 8.63 3.966 6.982 9.728 12.926 15.287 18.651 6.477 6.69 13.023 13.418 20.685 18.726" fill="#fff"/><path d="M276.652 43.78c-1.997 0-3.67.824-4.472 2.206-.828 1.422-.687 3.256.399 5.165 3.916 6.893 9.618 12.768 15.134 18.448 6.323 6.53 12.862 13.283 20.538 18.601 1.57 1.094 4.408 2.199 6.8 2.199 1.358.001 2.39-.352 3.066-1.045.875-.915.912-2.512.875-4.07-.055-2.09-2.46-5.23-4.215-7.524-.6-.784-1.153-1.506-1.58-2.13a115.726 115.726 0 00-7.644-9.967 113.576 113.576 0 00-18.37-17.09c-2.486-1.83-5.416-3.846-8.692-4.582a8.451 8.451 0 00-1.84-.21zm38.4 48.619c-2.936 0-6.175-1.324-7.941-2.556-7.836-5.43-14.444-12.252-20.834-18.852-5.602-5.77-11.396-11.737-15.438-18.852-1.43-2.516-1.571-5.125-.388-7.16 1.482-2.548 4.873-3.744 8.477-2.94 3.655.821 6.79 2.973 9.444 4.925a115.614 115.614 0 0118.697 17.395 117.762 117.762 0 017.779 10.141c.41.599.941 1.292 1.516 2.044 2.03 2.65 4.555 5.948 4.627 8.69.045 1.893-.024 4.033-1.434 5.509-1.074 1.101-2.588 1.656-4.505 1.656" fill="#231f20"/><path d="M520.752 225.088s31.521-104.973-74.303-145.492c-39.84-14.876-204.99-22.06-264.493 113.352 14.363 71.812 95.753 176.722 250.103 136.154 63.569-16.706 84.589-54.095 88.693-104.014" fill="#fff"/><path d="M183 193.062c11.75 58.037 70.056 144.082 182.925 144.084 20.964 0 43.13-3.031 65.88-9.012 56.175-14.763 83.3-46.567 87.95-103.127.006-.07.02-.139.038-.205.079-.262 7.762-26.44 2.492-57.17-4.846-28.282-22.002-66.353-76.193-87.102-9.912-3.702-30.225-7.66-57.487-7.66-45.898 0-157.75 11.729-205.605 120.192zm182.93 146.084h-.005c-114.272-.002-173.212-87.315-184.95-146.002-.04-.201-.016-.41.066-.598 19.319-43.963 51.302-76.803 95.063-97.606 41.848-19.893 84.277-24.07 112.501-24.07 27.527 0 48.11 4.025 58.195 7.789 55.112 21.103 72.547 59.888 77.47 88.71 5.157 30.183-1.995 56.042-2.53 57.902-4.755 57.47-32.34 89.796-89.427 104.799-22.916 6.02-45.252 9.076-66.384 9.076" fill="#231f20"/><path d="M520.752 225.088s.017-.07.041-.158l.024-.091a.97.97 0 00.046-.147c.004-.014.004-.028.013-.048.015-.068.035-.132.067-.228a.583.583 0 01.034-.136.417.417 0 01.014-.058c.009-.043.025-.091.038-.14a.676.676 0 01.026-.103c.037-.147.084-.32.125-.492.015-.04.03-.08.032-.12l.032-.115c.005-.004.005-.01.005-.01.067-.267.138-.566.21-.882.01-.03.026-.062.03-.096.022-.104.048-.216.079-.328.04-.178.087-.368.13-.57.043-.178.085-.366.127-.555l.008-.016c.032-.16.072-.325.108-.49.034-.14.066-.29.094-.44.016-.065.028-.131.044-.2.01-.062.026-.118.04-.185.074-.346.149-.713.224-1.094.024-.122.052-.244.077-.37.015-.098.04-.202.063-.305.016-.09.033-.18.046-.27.064-.31.124-.617.186-.943.02-.127.045-.256.069-.38.023-.12.044-.238.06-.36.06-.3.115-.6.163-.908.036-.2.072-.411.11-.618.016-.102.036-.208.048-.312.06-.358.122-.728.179-1.102.045-.263.083-.52.127-.787.074-.481.14-.981.216-1.48.03-.22.064-.433.096-.656.024-.22.056-.452.086-.676.064-.444.116-.892.176-1.353.036-.288.068-.586.107-.88.052-.467.104-.938.152-1.422.036-.333.075-.67.11-1.012.045-.478.095-.97.134-1.464.036-.336.063-.676.092-1.017.048-.605.093-1.217.136-1.833.013-.195.032-.38.048-.572.01-.156.019-.315.027-.472v-.02c.042-.712.089-1.436.122-2.168 0-.042 0-.088.003-.131.01-.167.015-.337.02-.504.012-.153.016-.303.02-.453.021-.546.05-1.092.063-1.644 0-.118 0-.235.008-.35.008-.32.018-.636.022-.958.014-.518.016-1.036.027-1.564 0-.311.003-.622.003-.936 0-.118.005-.236.005-.354 0-.71-.008-1.424-.021-2.145v-.325c-.011-.238-.011-.472-.014-.715-.018-.86-.044-1.737-.085-2.623-.012-.438-.039-.888-.059-1.333a99.202 99.202 0 00-.11-1.847c-.02-.421-.052-.84-.082-1.261-.05-.663-.108-1.321-.162-1.988a43.49 43.49 0 00-.071-.75 3.764 3.764 0 00-.023-.253 98.625 98.625 0 00-.285-2.667c-.004-.051-.01-.098-.01-.153-.023-.16-.043-.318-.06-.478-.007-.063-.01-.128-.015-.194a120.353 120.353 0 00-.444-3.19c-.048-.356-.111-.723-.166-1.08-.118-.72-.236-1.448-.362-2.174-.071-.425-.156-.857-.238-1.288-.008-.04-.012-.078-.02-.124-.138-.72-.281-1.444-.434-2.17-.08-.402-.158-.804-.25-1.21a119.74 119.74 0 00-.63-2.732v-.004c-.058-.246-.114-.496-.18-.748a100.91 100.91 0 00-.895-3.352c-.084-.318-.187-.644-.277-.968-.238-.812-.487-1.622-.743-2.441-.14-.452-.29-.897-.436-1.35a89.48 89.48 0 00-.8-2.333l-.399-1.126c-.35-.95-.714-1.904-1.096-2.854-.07-.178-.136-.358-.21-.54-.166-.398-.335-.806-.506-1.213-.206-.487-.412-.968-.622-1.457-.207-.463-.412-.924-.626-1.387a59.08 59.08 0 00-.614-1.33c-.208-.447-.42-.894-.64-1.345-.324-.665-.666-1.33-1.004-1.997a77.715 77.715 0 00-.843-1.588c-.048-.085-.092-.17-.14-.255-.224-.412-.447-.834-.677-1.25-.236-.42-.478-.844-.724-1.264a37.063 37.063 0 00-.551-.932l-.321-.546c-.24-.394-.475-.8-.72-1.197-.102-.16-.206-.319-.304-.479-.42-.661-.831-1.317-1.26-1.973-.204-.315-.428-.633-.642-.95a84.256 84.256 0 00-1.161-1.682c-.253-.367-.517-.735-.777-1.099-.402-.548-.808-1.093-1.218-1.64-.257-.338-.504-.67-.766-1.008a82.885 82.885 0 00-1.944-2.442c-.194-.238-.396-.471-.591-.706a81.936 81.936 0 00-1.627-1.89c-.27-.312-.546-.616-.821-.926-.523-.578-1.05-1.157-1.595-1.732-.264-.278-.533-.564-.798-.842-.382-.4-.79-.8-1.18-1.198-.402-.402-.792-.81-1.2-1.212-.174-.172-.358-.338-.534-.51a.406.406 0 01-.07-.064c-.66-.632-1.331-1.26-2.008-1.887-.306-.28-.616-.56-.934-.836a99.352 99.352 0 00-1.913-1.676c-.29-.253-.59-.508-.887-.761a125.847 125.847 0 00-2.877-2.34c-.132-.103-.273-.203-.41-.31-.29-.23-.597-.452-.889-.674-.582-.442-1.161-.888-1.756-1.327-.322-.237-.661-.475-.99-.71a141.167 141.167 0 00-2.327-1.64l-.987-.67a150.629 150.629 0 00-3.338-2.176c-.071-.045-.147-.088-.22-.136a178.126 178.126 0 00-3.335-2.01 56.03 56.03 0 00-1.084-.617c-.268-.156-.557-.313-.839-.468-.625-.356-1.248-.712-1.886-1.057-.363-.199-.723-.395-1.086-.59-.277-.147-.57-.289-.846-.434-1.003-.527-1.991-1.05-3.02-1.56a3.321 3.321 0 01-.14-.068c-.828-.405-1.68-.797-2.527-1.196-.455-.215-.897-.435-1.356-.644-.408-.19-.823-.373-1.23-.555-.254-.116-.517-.225-.774-.34-.776-.342-1.545-.686-2.339-1.02-.42-.178-.833-.358-1.252-.53a168.313 168.313 0 00-4.392-1.754c-.85-.32-1.77-.622-2.693-.928-3.667-1.181-8.132-2.29-13.281-3.258-.012 0-.012-.003-.024-.003-74.322 56.725-71.776 189.525 1.608 253.695 63.569-16.706 84.589-54.095 88.693-104.014" fill="#fff"/><path d="M430.705 76.47c-32.57 25.053-52.152 66.836-53.748 114.718-1.784 53.596 18.902 104.692 55.362 136.81 55.826-14.82 82.8-46.604 87.437-102.991a1.16 1.16 0 01.023-.152l.052-.195c.01-.041.049-.172.065-.212l.005-.028c.018-.078.04-.153.07-.253.012-.053.026-.105.042-.159a2.33 2.33 0 01.015-.061c.027-.101.044-.183.075-.273l.106-.423c.004-.064.019-.079.036-.141a.973.973 0 01.03-.095l.004-.017.194-.811c.008-.03.034-.123.05-.172.029-.141.053-.245.082-.348l.243-1.07c.008-.034.016-.066.027-.098l.088-.403c.036-.15.064-.281.089-.41.001-.01.028-.135.03-.143l.047-.221c.086-.392.158-.755.234-1.131l.076-.368a2.65 2.65 0 01.05-.25l.05-.275a91.284 91.284 0 00.265-1.378c.016-.088.035-.192.05-.298.067-.347.12-.632.165-.927 0-.007.022-.128.024-.135l.128-.75c.068-.411.128-.774.185-1.143l.437-2.917a16.3 16.3 0 01.07-.548c.058-.414.094-.706.132-1l.165-1.344c.05-.447.101-.912.15-1.394l.14-1.345c.037-.365.071-.735.1-1.107.03-.273.051-.518.071-.765l.023-.264c.047-.592.092-1.2.133-1.813l.094-1.347c.037-.615.074-1.236.104-1.864l.002-.144.019-.46c.013-.201.017-.333.02-.463l.024-.556c.016-.36.03-.722.039-1.086 0-.116 0-.256.01-.394l.055-3.744a114 114 0 00-.021-2.126v-.344c-.007-.142-.01-.323-.012-.51l-.002-.19c-.018-.846-.042-1.714-.084-2.59-.01-.305-.024-.593-.037-.882l-.021-.455c-.032-.597-.066-1.204-.11-1.82a37.892 37.892 0 00-.066-1.043l-.015-.217c-.033-.44-.07-.879-.108-1.32l-.055-.657c-.02-.243-.042-.49-.068-.728l-.044-.488a103.67 103.67 0 00-.261-2.415 3.372 3.372 0 01-.017-.188c-.02-.153-.04-.307-.056-.461 0-.012-.012-.155-.014-.167-.133-1.05-.273-2.107-.438-3.165-.035-.254-.072-.491-.11-.726l-.125-.774c-.093-.578-.19-1.16-.29-1.738-.06-.348-.126-.694-.19-1.041l-.045-.232a4.796 4.796 0 01-.022-.136c-.134-.7-.276-1.417-.43-2.137-.078-.41-.156-.803-.244-1.198a130.8 130.8 0 00-.628-2.714c-.006-.02-.008-.036-.012-.054a97.57 97.57 0 00-1.215-4.584l-.116-.401a150.55 150.55 0 00-.733-2.415l-.435-1.34a89.053 89.053 0 00-.79-2.304l-.4-1.128c-.342-.93-.705-1.874-1.08-2.817l-1.33-3.184a90.97 90.97 0 00-.615-1.364 54.718 54.718 0 00-.61-1.319c-.21-.452-.418-.893-.634-1.341-.282-.576-.581-1.159-.878-1.741l-.12-.236.825-.586-.888.459a75.697 75.697 0 00-.767-1.437l-.068-.126a6.353 6.353 0 00-.072-.13l-.673-1.243c-.23-.41-.468-.83-.712-1.244-.179-.313-.36-.617-.543-.92l-1.585-2.597c-.332-.526-.663-1.047-1.003-1.57-.13-.202-.273-.408-.413-.614l-.219-.32a95.154 95.154 0 00-1.15-1.664c-.252-.367-.508-.726-.762-1.078-.405-.554-.808-1.096-1.216-1.64l-.756-.994a87.407 87.407 0 00-1.925-2.42l-.59-.704a88.96 88.96 0 00-1.605-1.864c-.196-.227-.386-.44-.578-.654l-.242-.27a91.845 91.845 0 00-1.574-1.711l-.796-.84c-.224-.235-.458-.468-.69-.703l-1.008-1.018a44.214 44.214 0 00-.66-.664l-.526-.503c-.027-.027-.123-.12-.147-.15a381.956 381.956 0 00-1.917-1.787c-.295-.271-.6-.546-.91-.816a96.66 96.66 0 00-1.908-1.672l-.884-.758c-.924-.773-1.876-1.55-2.848-2.314l-.408-.31a18.597 18.597 0 00-.546-.417l-.866-.656c-.4-.304-.801-.61-1.21-.912l-.98-.703c-.76-.55-1.532-1.09-2.311-1.63l-.98-.664c-1.08-.72-2.176-1.443-3.31-2.156l-.238-.148a172.94 172.94 0 00-3.29-1.983 50.98 50.98 0 00-1.062-.604c-.241-.14-.479-.27-.712-.399l-.125-.07c-.683-.387-1.275-.724-1.88-1.052l-2.122-1.123a130.87 130.87 0 00-2.798-1.444l-.143-.07c-.595-.29-1.21-.578-1.827-.867l-1.186-.562c-.278-.133-.555-.266-.84-.396-.34-.157-.682-.31-1.02-.461l-1.363-.601c-.639-.283-1.276-.566-1.93-.84l-1.247-.53a170.959 170.959 0 00-4.364-1.741 68.34 68.34 0 00-2.511-.867l-.141-.046c-3.62-1.167-7.907-2.226-12.738-3.147zm1.354 253.632a.997.997 0 01-.66-.248c-37.151-32.487-58.25-84.35-56.44-138.732 1.62-48.658 21.625-91.124 54.885-116.511.221-.168.497-.237.788-.188l.028.004c5.083.955 9.592 2.063 13.401 3.29l.15.049c.89.294 1.773.586 2.592.894 1.509.576 2.972 1.166 4.42 1.764l1.262.536c.662.279 1.31.564 1.959.852l1.372.604c.347.156.695.31 1.04.47.29.133.581.273.87.413l1.166.552c.628.293 1.253.585 1.868.887l.128.06c.984.49 1.915.98 2.857 1.476l2.144 1.134c.616.335 1.222.679 1.827 1.023l.187.105c.249.136.5.275.737.412.353.196.725.406 1.085.619 1.136.665 2.254 1.34 3.356 2.021l-.406.926.52-.854a151.078 151.078 0 013.473 2.26l.995.674c.796.549 1.578 1.098 2.349 1.654l.996.716c.42.31.828.62 1.236.93l.853.648c.196.146.395.294.586.448l.41.309c.984.776 1.954 1.565 2.899 2.356l.9.773a98.642 98.642 0 011.928 1.69c.31.268.625.554.937.84.687.633 1.36 1.265 2.026 1.9l.616.589c.229.224.456.455.68.685l1 1.01c.244.244.485.489.72.733l.8.844c.55.583 1.084 1.167 1.613 1.752l.24.27c.201.223.4.446.596.673.552.624 1.1 1.26 1.635 1.9l.597.714c.675.816 1.33 1.64 1.965 2.468l.768 1.012c.416.554.824 1.103 1.228 1.654.278.386.54.754.794 1.12.396.557.78 1.122 1.166 1.692l.212.309c.148.219.299.436.44.653.346.53.68 1.059 1.018 1.59l1.612 2.645a95.985 95.985 0 011.284 2.212l.76 1.404c.332.607.596 1.099.849 1.59.02.03.06.113.095.19l.093.181c.303.592.604 1.184.895 1.775.222.461.436.913.646 1.365.21.443.422.895.622 1.346.21.453.417.918.625 1.386l1.356 3.25c.383.953.75 1.916 1.104 2.873l.403 1.14c.28.784.552 1.572.808 2.356l.153.472c.099.296.195.592.287.89.258.825.509 1.642.748 2.458l.113.39c.059.202.119.403.17.603.32 1.114.62 2.246.898 3.367.057.213.108.437.161.66.004.024.01.059.019.099l.001-.002c.226.924.436 1.838.638 2.755.092.41.173.82.253 1.232.15.717.296 1.447.435 2.173l.064.355c.069.361.138.723.198 1.079.102.58.198 1.168.292 1.752l.127.784c.04.25.08.504.113.752.166 1.056.308 2.13.446 3.196l.018.213c.015.15.034.299.055.448a.95.95 0 01.01.137c.1.83.186 1.63.263 2.422l.03.32c.008.068.018.177.024.284.02.193.046.457.068.714l.056.654c.037.449.074.896.108 1.345l.014.217c.027.356.05.712.068 1.07.043.604.079 1.22.11 1.84l.022.453c.015.304.03.608.039.907.04.874.067 1.758.085 2.628l.002.204c0 .162.004.325.01.489l.002.368c.013.71.02 1.43.02 2.145l-.056 3.836c-.01.136-.008.23-.008.326-.01.4-.024.774-.042 1.149l-.022.533c-.004.158-.008.326-.023.5l-.017.474c-.031.758-.071 1.39-.108 2.013l-.094 1.368a195 195 0 01-.136 1.839l-.024.266c-.021.262-.044.522-.07.78-.028.354-.064.738-.102 1.116l-.144 1.36c-.046.479-.098.954-.152 1.424l-.166 1.355c-.038.307-.078.61-.12.91-.038.286-.063.466-.082.64l-.446 2.983c-.055.366-.118.739-.18 1.104l-.14.819c-.067.419-.123.732-.186 1.047-.01.078-.033.209-.057.344l-.067.362c-.066.355-.128.666-.193.982l-.024.152-.043.217-.116.564a76.04 76.04 0 01-.228 1.115l-1.017-.032.984.174-.057.268a7.55 7.55 0 01-.094.439l-.097.448c-.01.044-.021.087-.035.128l-.236 1.036c-.04.145-.06.236-.078.321-.01.046-.04.158-.056.2l-.191.812c-.003.01-.005.02-.01.032a1.94 1.94 0 01-.087.306l-.1.406-.051.195a.91.91 0 01-.063.219l-.06.228a3.013 3.013 0 01-.077.275.743.743 0 00-.016.06c-4.739 57.5-32.32 89.853-89.443 104.865-.084.02-.17.032-.254.032" fill="#231f20"/><path d="M526.287 193.135c-19.495 10.26-33.344 54.884-16.416 77.967 29.748 15.38 42.869-26.076 15.166-32.243 46.166-18.455 23.3-52.393 1.25-45.724" fill="#fff"/><path d="M510.539 270.32c4.142 2.11 8.129 3.18 11.854 3.18h.003c9.9.002 15.925-7.69 16.761-15.288.752-6.837-2.55-15.752-14.337-18.376a1 1 0 01-.153-1.905c18.397-7.356 28.077-18.528 25.889-29.887-1.619-8.417-9.579-14.764-18.515-14.764-1.812 0-3.618.264-5.373.786-9.392 4.997-17.844 18.57-21.55 34.62-3.794 16.45-1.818 31.608 5.42 41.634zm11.857 5.18h-.003c-4.11 0-8.478-1.181-12.982-3.51a1.004 1.004 0 01-.347-.298c-7.696-10.494-9.844-26.334-5.895-43.456 3.842-16.64 12.732-30.765 22.652-35.985a.884.884 0 01.178-.072 20.804 20.804 0 016.042-.899c9.878 0 18.682 7.044 20.48 16.386 2.27 11.792-6.826 23.252-24.441 31 10.783 3.634 13.844 12.689 13.065 19.765-.933 8.483-7.673 17.07-18.75 17.07" fill="#231f20"/><path d="M375.89 199.427s-65.647-14.353-86.167 16.417c-15.268 22.903 8.388 80.452 38.98 67.704 49.24-20.52 47.186-84.121 47.186-84.121" fill="#fff"/><path d="M342.465 197.083c-17.805 0-41.265 3.352-51.91 19.316-8.16 12.239-4.591 33.288 3.15 47.756 6.876 12.845 16.443 20.213 26.25 20.215h.004c2.769 0 5.582-.587 8.36-1.744 45.089-18.79 46.58-75.055 46.577-82.382-3.33-.662-16.913-3.161-32.43-3.161zM319.96 286.37h-.003c-10.57-.002-20.78-7.755-28.013-21.272-8.023-14.991-11.648-36.914-3.054-49.808 11.139-16.702 35.283-20.207 53.576-20.207 18.028 0 33.483 3.333 33.638 3.367.448.098.77.486.786.945.02.643 1.507 64.53-47.801 85.076-3.023 1.26-6.095 1.899-9.13 1.899" fill="#231f20"/><path d="M277.78 109.375c-5.46.835-8.976 6.25-8.224 11.177.753 4.934 7 7.079 12.47 6.243 5.467-.83 9.466-4.341 8.718-9.27-.753-4.926-7.492-8.983-12.964-8.15zm8.72 32.832c-8.255 1.257-13.557 9.437-12.423 16.883 1.13 7.449 10.57 10.686 18.828 9.426 8.258-1.254 14.299-6.552 13.163-14-1.137-7.441-11.31-13.566-19.568-12.31zm80.437-22.13c0 13.031-11.71 20.518-26.156 20.518-14.45 0-29.757-7.993-29.757-21.025 0-13.034 11.203-25.654 25.65-25.654 14.442 0 30.263 13.132 30.263 26.16" fill="#fff"/><path d="M279.256 110.266a8.96 8.96 0 00-1.325.097c-5.135.785-8.015 5.921-7.387 10.039.584 3.825 5.15 5.569 9.141 5.569h.002c.736 0 1.473-.056 2.189-.165 4.433-.674 8.59-3.448 7.879-8.131-.583-3.808-5.684-7.41-10.5-7.41zm.43 17.705c-4.982-.001-10.353-2.248-11.12-7.268-.882-5.79 3.267-11.43 9.063-12.316.526-.08 1.074-.121 1.627-.121 5.904 0 11.735 4.256 12.476 9.108.783 5.157-3.147 9.437-9.556 10.409-.815.125-1.652.188-2.49.188zm56.987-33.055c-13.13 0-24.65 11.52-24.65 24.654 0 12.369 14.929 20.025 28.758 20.025 12.522 0 25.156-6.035 25.156-19.519 0-12.226-15.042-25.16-29.264-25.16zm4.108 46.679c-14.792 0-30.757-8.421-30.757-22.025 0-14.2 12.453-26.654 26.65-26.654 15.193 0 31.263 13.962 31.263 27.16 0 12.67-11.166 21.519-27.156 21.519zm-52.054 1.448c-.711 0-1.41.05-2.078.152-3.633.553-6.853 2.581-9.065 5.71-2.116 2.993-3.033 6.65-2.519 10.034.922 6.076 8.064 8.843 14.31 8.843a22.39 22.39 0 003.38-.255c3.929-.596 7.32-2.157 9.545-4.395 2.31-2.32 3.27-5.248 2.78-8.466-.93-6.083-8.725-11.623-16.353-11.623zm.649 26.739h-.001c-7.312 0-15.183-3.26-16.287-10.542-.592-3.89.45-8.078 2.863-11.49 2.529-3.576 6.222-5.896 10.398-6.531a15.772 15.772 0 012.378-.176c8.526 0 17.264 6.35 18.329 13.321.59 3.872-.564 7.392-3.337 10.18-2.527 2.538-6.314 4.3-10.663 4.96a24.444 24.444 0 01-3.68.278" fill="#231f20"/><path d="M373.327 204.044s-52.32-5.384-53.087 25.387c-.776 30.775 38.47 20.777 53.087-25.387" fill="#fff"/><path d="M364.588 204.683c-15.959 0-42.81 3.219-43.348 24.773-.15 5.924 1.241 10.564 4.023 13.416 2.064 2.118 4.913 3.236 8.237 3.236 12.163 0 29.643-14.42 38.487-41.172a104.393 104.393 0 00-7.4-.253zM333.5 248.108s.001 0 0 0c-3.876 0-7.22-1.326-9.668-3.838-3.167-3.248-4.755-8.388-4.592-14.864.581-23.251 28.661-26.723 45.348-26.723 5.213 0 8.695.352 8.841.367a.997.997 0 01.85 1.297c-9 28.423-27.726 43.761-40.78 43.761" fill="#231f20"/><path d="M416.01 49.268c10.995-5.91 20.793.302 18.76 7.99-2.038 7.68-27.123 9.266-34.938 25.586-2.117-17.788 7.77-29.054 16.179-33.576" fill="#fff"/><path d="M424.664 47.922c-2.64 0-5.468.769-8.179 2.228-8.3 4.46-16.51 14.422-15.916 29.376 5.21-7.851 14.436-11.878 22.006-15.18 5.632-2.46 10.494-4.582 11.228-7.344.533-2.02.14-4.024-1.107-5.644-1.656-2.152-4.659-3.436-8.032-3.436zm-24.832 35.922a.999.999 0 01-.995-.881c-2.113-17.757 7.676-29.724 16.7-34.576 3.003-1.613 6.159-2.465 9.127-2.465 4.05 0 7.555 1.536 9.616 4.216 1.636 2.122 2.152 4.742 1.455 7.376-.98 3.697-6.003 5.889-12.36 8.664-8.142 3.553-18.272 7.976-22.642 17.097a1 1 0 01-.901.57" fill="#231f20"/><path d="M486.816 44.068c-7.817-4.208-14.795.214-13.347 5.68 1.45 5.468 19.303 6.594 24.859 18.207 1.508-12.656-5.528-20.67-11.512-23.887" fill="#fff"/><path d="M480.66 43.396c-2.312 0-4.364.874-5.488 2.335-.843 1.095-1.097 2.396-.736 3.761.485 1.832 3.888 3.316 7.827 5.035 5.184 2.263 11.456 5 15.273 10.18.075-10.021-5.53-16.715-11.195-19.759-1.886-1.014-3.85-1.552-5.681-1.552zm17.668 25.559a1 1 0 01-.903-.57c-3.058-6.394-10.213-9.515-15.962-12.025-4.596-2.005-8.227-3.59-8.96-6.354-.52-1.962-.134-3.912 1.084-5.495 1.524-1.98 4.1-3.115 7.073-3.115 2.161 0 4.452.62 6.63 1.79 6.5 3.496 13.554 12.11 12.031 24.888a1 1 0 01-.993.88" fill="#231f20"/><path d="M489.68 74.006c-14.807 5.506-22.15 35.96-4.973 61.288 16.369 24.129 43.194 8.82 44.228-11.852 1.176-23.508-15.236-58.367-39.255-49.436" fill="#fff"/><path d="M497.284 73.575c-2.372 0-4.813.46-7.255 1.368-5.321 1.979-9.781 7.519-12.237 15.197-3.484 10.902-3.28 28.34 7.743 44.592 6.658 9.816 14.217 11.878 19.385 11.878 11.847 0 22.387-10.631 23.016-23.22.736-14.714-5.372-32.38-14.524-42-4.932-5.186-10.357-7.815-16.128-7.815zm7.637 75.035h-.002c-5.651 0-13.888-2.214-21.04-12.756-11.426-16.844-11.62-34.974-7.991-46.322 2.643-8.27 7.544-14.27 13.444-16.464 2.665-.992 5.34-1.493 7.952-1.493 6.25 0 12.327 2.916 17.577 8.436 9.495 9.981 15.834 28.268 15.072 43.48-.68 13.616-12.134 25.119-25.012 25.119" fill="#231f20"/><path d="M503.939 105.284c1.124 7.292-2.702 13.934-8.538 14.828-5.83.896-11.473-4.285-12.596-11.578-1.122-7.294 2.707-13.935 8.539-14.831 5.835-.895 11.477 4.285 12.595 11.581" fill="#231f20"/><path d="M489.79 101.494c.34 2.276-.853 4.35-2.666 4.625-1.813.277-3.577-1.337-3.921-3.61-.358-2.275.834-4.342 2.649-4.627 1.83-.276 3.587 1.34 3.937 3.612M501.325 113.68c.178 1.163-.424 2.215-1.362 2.36-.924.14-1.826-.685-2.004-1.842-.18-1.162.429-2.212 1.357-2.356.937-.14 1.823.68 2.01 1.838" fill="#fff"/><path d="M432.3 87.864c-19.968 6.892-38.844 56.438-12.18 94.044 25.41 35.835 70.608 10.679 73.65-20.996 3.466-36.024-20.897-87.056-61.47-73.048" fill="#fff"/><path d="M445.743 86.49c-4.246 0-8.66.78-13.116 2.32-8.292 2.862-16.546 13.725-21.027 27.674-7.155 22.268-3.664 46.51 9.336 64.847 10.037 14.155 22.001 17.127 30.27 17.127 20.22 0 39.643-17.59 41.57-37.64 2.045-21.271-5.73-46.26-18.91-60.768-8.058-8.871-17.783-13.56-28.123-13.56zm5.464 113.968c-.002 0 0 0 0 0-8.742 0-21.372-3.12-31.903-17.971-13.361-18.847-16.955-43.75-9.608-66.615 4.739-14.752 13.275-25.845 22.277-28.953 4.67-1.61 9.302-2.428 13.77-2.428 10.92 0 21.156 4.915 29.604 14.215 13.53 14.894 21.516 40.514 19.418 62.302-2.017 21.014-22.374 39.45-43.558 39.45" fill="#231f20"/><path d="M445.08 131.28c1.621 10.575-3.928 20.2-12.38 21.499-8.452 1.296-16.639-6.212-18.259-16.792-1.63-10.575 3.926-20.199 12.376-21.497 8.459-1.296 16.635 6.216 18.263 16.79" fill="#231f20"/><path d="M424.565 125.784c.494 3.299-1.24 6.304-3.866 6.71-2.636.398-5.186-1.943-5.69-5.238-.513-3.296 1.215-6.293 3.85-6.706 2.649-.403 5.193 1.942 5.706 5.234M441.285 143.452c.258 1.682-.62 3.212-1.972 3.42-1.344.206-2.644-.988-2.904-2.668-.256-1.684.624-3.21 1.967-3.414 1.348-.208 2.645.99 2.91 2.662" fill="#fff"/></svg>