<?xml version="1.0" encoding="UTF-8" standalone="no"?>
<!-- Generator: Adobe Illustrator 27.5.0, SVG Export Plug-In . SVG Version: 6.00 Build 0)  -->

<svg
   version="1.1"
   x="0px"
   y="0px"
   viewBox="0 0 510.41531 535.36102"
   xml:space="preserve"
   id="svg194"
   sodipodi:docname="fruits.svg"
   width="510.41531"
   height="535.36102"
   inkscape:version="1.3 (0e150ed6c4, 2023-07-21)"
   xmlns:inkscape="http://www.inkscape.org/namespaces/inkscape"
   xmlns:sodipodi="http://sodipodi.sourceforge.net/DTD/sodipodi-0.dtd"
   xmlns="http://www.w3.org/2000/svg"
   xmlns:svg="http://www.w3.org/2000/svg"><defs
   id="defs194" /><sodipodi:namedview
   id="namedview194"
   pagecolor="#ffffff"
   bordercolor="#000000"
   borderopacity="0.25"
   inkscape:showpageshadow="2"
   inkscape:pageopacity="0.0"
   inkscape:pagecheckerboard="0"
   inkscape:deskcolor="#d1d1d1"
   inkscape:zoom="1.6079608"
   inkscape:cx="269.59612"
   inkscape:cy="284.52186"
   inkscape:window-width="2560"
   inkscape:window-height="1351"
   inkscape:window-x="1191"
   inkscape:window-y="187"
   inkscape:window-maximized="1"
   inkscape:current-layer="OBJECTS" />&#10;&#10;<g
   id="OBJECTS"
   transform="translate(5.6841201,27.694525)">&#10;	&#10;	&#10;	&#10;	&#10;	&#10;	&#10;	&#10;	&#10;	&#10;	&#10;	&#10;	&#10;	&#10;	&#10;	&#10;	&#10;	&#10;	<g
   id="g1"
   transform="translate(-13.575744,-9.5556364)"><g
     id="g6">&#10;		<path
   style="fill:none;stroke:#000000;stroke-width:1.4;stroke-linecap:round;stroke-linejoin:round;stroke-miterlimit:10"
   d="m 101.781,19.853 c 0,0 -17.667,30.64 -4.333,61.32 13.333,30.68 49,32.949 59.333,29.648 10.333,-3.301 16.667,-37.968 2,-61.635 -14.666,-23.666 -41.333,-27.999 -57,-29.333 z"
   id="path1" />&#10;		<g
   id="g5">&#10;			<path
   style="fill:none;stroke:#000000;stroke-width:1.4;stroke-linecap:round;stroke-linejoin:round;stroke-miterlimit:10"
   d="m 101.781,19.853 c 0,0 34,43.936 55,90.968"
   id="path2" />&#10;			<path
   style="fill:none;stroke:#000000;stroke-width:1.4;stroke-linecap:round;stroke-linejoin:round;stroke-miterlimit:10"
   d="m 94.134,41.145 c 0,0 10.347,5.055 25.83,4.382 0,0 3.368,-14.606 1.926,-22.306"
   id="path3" />&#10;			<path
   style="fill:none;stroke:#000000;stroke-width:1.4;stroke-linecap:round;stroke-linejoin:round;stroke-miterlimit:10"
   d="m 93.469,65.903 c 0,0 16.774,5.232 39.21,-0.409 0,0 8.189,-16.284 10.313,-32.796"
   id="path4" />&#10;			<path
   style="fill:none;stroke:#000000;stroke-width:1.4;stroke-linecap:round;stroke-linejoin:round;stroke-miterlimit:10"
   d="m 101.781,89.121 c 0,0 22.326,7.521 45.83,2.793 0,0 11.587,-22.434 13.879,-37.747"
   id="path5" />&#10;		</g>&#10;	</g><g
     id="g11">&#10;		<path
   style="fill:none;stroke:#000000;stroke-width:1.4;stroke-linecap:round;stroke-linejoin:round;stroke-miterlimit:10"
   d="m 366.862,114.665 c 2.303,-1.346 24.252,-12.876 45.586,-3.844 21.333,9.032 28,35.365 26,38.699 -2,3.333 -23.333,11.749 -46.667,6.375 -23.333,-5.375 -29.525,-38.538 -24.919,-41.23 z"
   id="path6" />&#10;		<g
   id="g10">&#10;			<path
   style="fill:none;stroke:#000000;stroke-width:1.4;stroke-linecap:round;stroke-linejoin:round;stroke-miterlimit:10"
   d="m 365.445,117.64 c 0,0 43.641,12.547 73.003,31.88"
   id="path7" />&#10;			<path
   style="fill:none;stroke:#000000;stroke-width:1.4;stroke-linecap:round;stroke-linejoin:round;stroke-miterlimit:10"
   d="m 420.121,156.553 c 0,0 -4.124,-11.146 -3.565,-19.257 0,0 11.21,-4.17 19.384,-1.14"
   id="path8" />&#10;			<path
   style="fill:none;stroke:#000000;stroke-width:1.4;stroke-linecap:round;stroke-linejoin:round;stroke-miterlimit:10"
   d="m 402.115,157.445 c 0,0 -5.074,-12.215 -3.037,-27.904 0,0 12.37,-10.679 25.87,-10.184"
   id="path9" />&#10;			<path
   style="fill:none;stroke:#000000;stroke-width:1.4;stroke-linecap:round;stroke-linejoin:round;stroke-miterlimit:10"
   d="m 381.864,151.411 c 0,0 -4.933,-18.166 -0.341,-28.528 0,0 7.014,-11.505 22.636,-14.601"
   id="path10" />&#10;		</g>&#10;	</g><g
     id="g16">&#10;		<path
   style="fill:none;stroke:#000000;stroke-width:1.4;stroke-linecap:round;stroke-linejoin:round;stroke-miterlimit:10"
   d="m 387.534,296.4 c -0.285,-3.919 -1.285,-40.425 24.503,-62.772 25.788,-22.347 64.935,-14.072 68.045,-9.264 3.11,4.808 0.392,38.479 -21.858,65.844 -22.25,27.365 -70.12,14.03 -70.69,6.192 z"
   id="path11" />&#10;		<g
   id="g15">&#10;			<path
   style="fill:none;stroke:#000000;stroke-width:1.4;stroke-linecap:round;stroke-linejoin:round;stroke-miterlimit:10"
   d="m 390.548,300.205 c 0,0 44.914,-49.564 89.534,-75.841"
   id="path12" />&#10;			<path
   style="fill:none;stroke:#000000;stroke-width:1.4;stroke-linecap:round;stroke-linejoin:round;stroke-miterlimit:10"
   d="m 477.488,253.163 c 0,0 -17.415,-1.781 -27.777,-7.784 0,0 1.761,-17.529 11.073,-26.372"
   id="path13" />&#10;			<path
   style="fill:none;stroke:#000000;stroke-width:1.4;stroke-linecap:round;stroke-linejoin:round;stroke-miterlimit:10"
   d="m 466.981,277.55 c 0,0 -19.445,-1.218 -38.868,-14.093 0,0 -6.093,-23.288 3.324,-40.817"
   id="path14" />&#10;			<path
   style="fill:none;stroke:#000000;stroke-width:1.4;stroke-linecap:round;stroke-linejoin:round;stroke-miterlimit:10"
   d="m 445.86,300.412 c 0,0 -27.222,-5.266 -37.944,-18.064 0,0 -10.661,-16.741 -4.615,-39.407"
   id="path15" />&#10;		</g>&#10;	</g><g
     id="g21">&#10;		<path
   style="fill:none;stroke:#000000;stroke-width:1.4;stroke-linecap:round;stroke-linejoin:round;stroke-miterlimit:10"
   d="m 272.434,114.665 c 4.394,-2.188 34.119,8.196 46.772,30.317 18.802,32.871 6.908,62.538 -8.425,72.204 -15.333,9.667 -48.01,-8.109 -56.333,-32.333 -10.88,-31.667 4.306,-63.377 17.986,-70.188 z"
   id="path16" />&#10;		<g
   id="g20">&#10;			<path
   style="fill:none;stroke:#000000;stroke-width:1.4;stroke-linecap:round;stroke-linejoin:round;stroke-miterlimit:10"
   d="m 272.434,114.665 c 0,0 22.419,50.776 34.383,104.315"
   id="path17" />&#10;			<path
   style="fill:none;stroke:#000000;stroke-width:1.4;stroke-linecap:round;stroke-linejoin:round;stroke-miterlimit:10"
   d="m 255.741,136.269 c 0,0 10.793,6.176 28.75,8.713 0,0 10.273,-9.558 13.282,-21.343"
   id="path18" />&#10;			<path
   style="fill:none;stroke:#000000;stroke-width:1.4;stroke-linecap:round;stroke-linejoin:round;stroke-miterlimit:10"
   d="m 250.854,158.457 c 0,0 19.785,9.449 42.356,11.589 0,0 16.716,-17.78 21.477,-31.653"
   id="path19" />&#10;			<path
   style="fill:none;stroke:#000000;stroke-width:1.4;stroke-linecap:round;stroke-linejoin:round;stroke-miterlimit:10"
   d="m 256.115,188.949 c 0,0 13.362,7.654 45.181,7.946 0,0 19.037,-15.393 25.595,-33.217"
   id="path20" />&#10;		</g>&#10;	</g><g
     id="g26">&#10;		<path
   style="fill:none;stroke:#000000;stroke-width:1.4;stroke-linecap:round;stroke-linejoin:round;stroke-miterlimit:10"
   d="m 63.62,344.853 c 0,0 10.859,-28.738 40.495,-35.132 29.636,-6.394 50.753,15.161 51.667,21.658 2.035,14.474 -12.898,33.808 -41.297,38.474 -34.182,5.617 -50.865,-25 -50.865,-25 z"
   id="path21" />&#10;		<g
   id="g25">&#10;			<path
   style="fill:none;stroke:#000000;stroke-width:1.4;stroke-linecap:round;stroke-linejoin:round;stroke-miterlimit:10"
   d="m 63.62,344.853 c 0,0 57.899,-16.949 94.197,-13.474"
   id="path22" />&#10;			<path
   style="fill:none;stroke:#000000;stroke-width:1.4;stroke-linecap:round;stroke-linejoin:round;stroke-miterlimit:10"
   d="m 75.03,327.009 c 0,0 10.048,5.234 16.9,10.872 0,0 -5.128,14.859 -14.639,22.415"
   id="path23" />&#10;			<path
   style="fill:none;stroke:#000000;stroke-width:1.4;stroke-linecap:round;stroke-linejoin:round;stroke-miterlimit:10"
   d="m 96.68,311.913 c 0,0 15.904,12.597 22.836,21.102 0,0 -6.057,23.78 -21.396,36.809"
   id="path24" />&#10;			<path
   style="fill:none;stroke:#000000;stroke-width:1.4;stroke-linecap:round;stroke-linejoin:round;stroke-miterlimit:10"
   d="m 125.593,309.721 c 0,0 13.059,13.517 17.291,21.658 0,0 -3.48,18.265 -17.291,35.703"
   id="path25" />&#10;		</g>&#10;	</g><g
     id="g31">&#10;		<path
   style="fill:none;stroke:#000000;stroke-width:1.4;stroke-linecap:round;stroke-linejoin:round;stroke-miterlimit:10"
   d="m 310.115,305.34 c 0,0 9.446,-16.784 38.848,-14.713 29.402,2.071 42.231,25.533 42.737,32.916 0.507,7.383 -23.04,15.885 -47.036,11.634 -23.995,-4.251 -34.549,-29.837 -34.549,-29.837 z"
   id="path26" />&#10;		<g
   id="g30">&#10;			<path
   style="fill:none;stroke:#000000;stroke-width:1.4;stroke-linecap:round;stroke-linejoin:round;stroke-miterlimit:10"
   d="m 310.115,305.34 c 0,0 54.526,8.009 81.586,18.203"
   id="path27" />&#10;			<path
   style="fill:none;stroke:#000000;stroke-width:1.4;stroke-linecap:round;stroke-linejoin:round;stroke-miterlimit:10"
   d="m 325.684,293.854 c 0,0 6.93,8.407 10.329,15.867 0,0 -5.651,8.018 -13.465,13.518"
   id="path28" />&#10;			<path
   style="fill:none;stroke:#000000;stroke-width:1.4;stroke-linecap:round;stroke-linejoin:round;stroke-miterlimit:10"
   d="m 344.665,290.455 c 0,0 10.179,13.01 12.148,23.46 0,0 -6.614,12.81 -17.942,19.752"
   id="path29" />&#10;			<path
   style="fill:none;stroke:#000000;stroke-width:1.4;stroke-linecap:round;stroke-linejoin:round;stroke-miterlimit:10"
   d="m 369.493,296.389 c 0,0 6.538,14.632 5.723,22.242 0,0 -4.562,9.909 -15.809,17.662"
   id="path30" />&#10;		</g>&#10;	</g><g
     id="g36">&#10;		<path
   style="fill:none;stroke:#000000;stroke-width:1.4;stroke-linecap:round;stroke-linejoin:round;stroke-miterlimit:10"
   d="m 383.406,481.811 c 0,0 6.37,-30.302 -8.19,-53.732 -14.56,-23.429 -43.916,-27.178 -52.668,-20.618 -8.752,6.56 -6.491,43.423 13.465,59.979 19.957,16.558 47.393,14.371 47.393,14.371 z"
   id="path31" />&#10;		<g
   id="g35">&#10;			<path
   style="fill:none;stroke:#000000;stroke-width:1.4;stroke-linecap:round;stroke-linejoin:round;stroke-miterlimit:10"
   d="m 322.548,407.462 c 0,0 38.936,41.236 60.858,74.349"
   id="path32" />&#10;			<path
   style="fill:none;stroke:#000000;stroke-width:1.4;stroke-linecap:round;stroke-linejoin:round;stroke-miterlimit:10"
   d="m 359.407,479.164 c 0,0 -0.039,-15.626 4.041,-24.452 0,0 11.335,-2.732 20.672,0"
   id="path33" />&#10;			<path
   style="fill:none;stroke:#000000;stroke-width:1.4;stroke-linecap:round;stroke-linejoin:round;stroke-miterlimit:10"
   d="m 341.025,471.114 c 0,0 -0.374,-18.82 6.817,-35.301 0,0 17.052,-5.732 29.772,-3.453"
   id="path34" />&#10;			<path
   style="fill:none;stroke:#000000;stroke-width:1.4;stroke-linecap:round;stroke-linejoin:round;stroke-miterlimit:10"
   d="m 324.384,452.251 c 0,0 1.81,-18.537 9.125,-32.811 0,0 12.778,-7.036 25.898,-7.164"
   id="path35" />&#10;		</g>&#10;	</g><g
     id="g41">&#10;		<path
   style="fill:none;stroke:#000000;stroke-width:1.4;stroke-linecap:round;stroke-linejoin:round;stroke-miterlimit:10"
   d="m 41.592,202.215 c -0.092,-4.908 22.035,-27.308 47.445,-29.253 37.758,-2.89 59.458,20.576 61.616,38.574 2.158,17.997 -27.913,39.895 -53.367,37.026 -33.272,-3.751 -55.407,-31.067 -55.694,-46.347 z"
   id="path36" />&#10;		<g
   id="g40">&#10;			<path
   style="fill:none;stroke:#000000;stroke-width:1.4;stroke-linecap:round;stroke-linejoin:round;stroke-miterlimit:10"
   d="m 41.592,202.215 c 0,0 55.484,1.521 108.982,13.671"
   id="path37" />&#10;			<path
   style="fill:none;stroke:#000000;stroke-width:1.4;stroke-linecap:round;stroke-linejoin:round;stroke-miterlimit:10"
   d="m 53.95,226.559 c 0,0 10.208,-7.102 20.2,-22.236 0,0 -4.229,-13.379 -13.586,-21.151"
   id="path38" />&#10;			<path
   style="fill:none;stroke:#000000;stroke-width:1.4;stroke-linecap:round;stroke-linejoin:round;stroke-miterlimit:10"
   d="m 71.9,240.489 c 0,0 17.021,-13.821 28.633,-33.294 0,0 -8.894,-22.725 -19.386,-32.976"
   id="path39" />&#10;			<path
   style="fill:none;stroke:#000000;stroke-width:1.4;stroke-linecap:round;stroke-linejoin:round;stroke-miterlimit:10"
   d="m 101.702,248.813 c 0,0 12.644,-8.788 26.552,-37.409 0,0 -5.742,-23.799 -19.033,-37.367"
   id="path40" />&#10;		</g>&#10;	</g><g
     id="g53">&#10;		<g
   id="g46">&#10;			&#10;				<path
   style="fill:#ffffff;stroke:#000000;stroke-width:1.4;stroke-linecap:round;stroke-linejoin:round;stroke-miterlimit:10"
   d="m 273.114,205.085 c -9.35,20.21 -5.308,45.882 9.816,62.225 15.125,16.344 40.424,22.357 61.276,14.544 20.852,-7.813 35.977,-28.985 36.581,-51.245 1.58,-58.162 -82.57,-79.784 -107.673,-25.524 z"
   id="path41" />&#10;			<path
   style="fill:none;stroke:#000000;stroke-width:1.4;stroke-linecap:round;stroke-linejoin:round;stroke-miterlimit:10"
   d="m 362.605,204.16 c 0,0 -7.4,2.67 -15.09,-3.77 -0.22,-0.18 -0.44,-0.37 -0.66,-0.57 -0.85,-0.76 -1.57,-1.55 -2.19,-2.34 -5.16,-6.64 -2.85,-13.82 -2.85,-13.82"
   id="path42" />&#10;			&#10;				<path
   style="fill:#ffffff;stroke:#000000;stroke-width:1.4;stroke-linecap:round;stroke-linejoin:round;stroke-miterlimit:10"
   d="m 375.755,185.36 c -3.13,0.31 -17.41,2.42 -28.24,15.03 -0.22,-0.18 -0.44,-0.37 -0.66,-0.57 -0.85,-0.76 -1.57,-1.55 -2.19,-2.34 1.31,-2.81 5.53,-10.89 13.52,-17.91 9.85,-8.66 17.06,-9.06 19.48,-5.96 2.42,3.1 1.3,11.44 -1.91,11.75 z"
   id="path43" />&#10;			<path
   style="fill:none;stroke:#000000;stroke-width:1.4;stroke-linecap:round;stroke-linejoin:round;stroke-miterlimit:10"
   d="m 374.616,173.99 c 0,0 -2.266,-1.18 -2.356,3.468 -0.09,4.648 1.136,7.068 3.19,5.913"
   id="path44" />&#10;			&#10;				<path
   style="fill:#ffffff;stroke:#000000;stroke-width:1.4;stroke-linecap:round;stroke-linejoin:round;stroke-miterlimit:10"
   d="m 350.615,193.353 c 0,0 14.889,-15.167 30.195,6.167 0,0 -9.028,8.167 -19.861,6.5 -10.834,-1.667 -10.334,-12.667 -10.334,-12.667 z"
   id="path45" />&#10;			<path
   style="fill:none;stroke:#000000;stroke-width:1.4;stroke-linecap:round;stroke-linejoin:round;stroke-miterlimit:10"
   d="m 350.615,193.353 c 0,0 11.281,-1 21.64,5.333"
   id="path46" />&#10;		</g>&#10;		<g
   id="g52">&#10;			<path
   style="fill:none;stroke:#000000;stroke-width:2;stroke-linecap:round;stroke-linejoin:round;stroke-miterlimit:10"
   d="m 296.948,208.52 c 0,0 6.333,8.5 7,17.667 0,0 -5.962,-7.644 -15.167,-10.167"
   id="path47" />&#10;			<path
   style="fill:none;stroke:#000000;stroke-width:2;stroke-linecap:round;stroke-linejoin:round;stroke-miterlimit:10"
   d="m 344.665,237.984 c 0,0 -10.358,-2.255 -18.98,0.926 0,0 9.424,2.271 15.525,9.61"
   id="path48" />&#10;			<path
   style="fill:none;stroke:#000000;stroke-width:1.4;stroke-linecap:round;stroke-linejoin:round;stroke-miterlimit:10"
   d="m 314.27463,234.26428 c 10.23018,10.03693 -6.44404,22.42382 -13.19569,16.29541 -5.87314,-5.02903 2.31926,-22.81981 13.19569,-16.29541 z"
   id="path49"
   sodipodi:nodetypes="ccc" />&#10;			<g
   id="g51">&#10;				<path
   style="fill:#000000;fill-opacity:1;stroke:#000000;stroke-width:1.4;stroke-linecap:round;stroke-linejoin:round;stroke-miterlimit:10"
   d="m 274.948,217.353 c 3.258,-4.667 15.333,1.761 13,6.797 -2.333,5.036 -16.258,-2.13 -13,-6.797 z"
   id="path50" />&#10;				<path
   style="fill:#000000;fill-opacity:1;stroke:#000000;stroke-width:1.4;stroke-linecap:round;stroke-linejoin:round;stroke-miterlimit:10"
   d="m 335.666,255.542 c 3.258,-4.667 15.333,1.761 13,6.797 -2.333,5.036 -16.258,-2.131 -13,-6.797 z"
   id="path51" />&#10;			</g>&#10;		</g>&#10;	</g><g
     id="g75">&#10;		<g
   id="g67">&#10;			&#10;				<path
   style="fill:#ffffff;stroke:#000000;stroke-width:1.4;stroke-linecap:round;stroke-linejoin:round;stroke-miterlimit:10"
   d="m 276.115,352.19 c -2,3.66 -57.33,33.33 -108.33,12.33 -51,-21 -70,-90.67 -65.67,-96.67 0.36,-0.5 7.14,-3.45 17.46,-7.7 35.51,-14.63 112.96,-44.76 115.54,-44.41 2.62,0.35 27.79,82.53 37.38,119.21 2.59,9.88 4.04,16.46 3.62,17.24 z"
   id="path53" />&#10;			<path
   style="fill:none;stroke:#000000;stroke-width:1.4;stroke-linecap:round;stroke-linejoin:round;stroke-miterlimit:10"
   d="m 276.115,352.19 c -2,3.66 -57.33,33.33 -108.33,12.33 -51,-21 -70,-90.67 -65.67,-96.67 0.3,-0.41 4.96,-2.49 12.37,-5.58 0,-0.01 0,-0.01 0,-0.01 1.57,-0.65 3.28,-1.36 5.09,-2.11 0,0.01 0,0.01 0,0.01 0,0 10.47,55.68 50.54,80.36 30.88,19.02 74.71,6.94 102.38,-5.57 0.58,2.23 1.11,4.29 1.57,6.15 1.58,6.4 2.38,10.49 2.05,11.09 z"
   id="path54" />&#10;			<path
   style="fill:none;stroke:#000000;stroke-width:1.4;stroke-linecap:round;stroke-linejoin:round;stroke-miterlimit:10"
   d="m 274.065,341.1 c -22.6,9.78 -63.09,22.77 -96.62,9.09 -49.11,-20.04 -62.76,-86.94 -62.96,-87.92 0,-0.01 0,-0.01 0,-0.01 1.57,-0.65 3.28,-1.36 5.09,-2.11 0,0.01 0,0.01 0,0.01 0,0 10.47,55.68 50.54,80.36 30.88,19.02 74.71,6.94 102.38,-5.57 0.58,2.23 1.11,4.29 1.57,6.15 z"
   id="path55" />&#10;			<g
   id="g66">&#10;				<path
   style="fill:#818181;fill-opacity:1;stroke:#808080;stroke-width:1.4;stroke-linecap:round;stroke-linejoin:round;stroke-miterlimit:10;stroke-opacity:1"
   d="m 226.739,232.305 c 2.333,0.5 0.667,7.5 -1.667,6.833 -2.333,-0.666 -0.667,-7.333 1.667,-6.833 z"
   id="path56" />&#10;				<path
   style="fill:#818181;fill-opacity:1;stroke:#808080;stroke-width:1.4;stroke-linecap:round;stroke-linejoin:round;stroke-miterlimit:10;stroke-opacity:1"
   d="m 244.402,298.462 c 2.333,0.5 0.667,7.5 -1.667,6.833 -2.334,-0.667 -0.667,-7.333 1.667,-6.833 z"
   id="path57" />&#10;				<path
   style="fill:#818181;fill-opacity:1;stroke:#808080;stroke-width:1.4;stroke-linecap:round;stroke-linejoin:round;stroke-miterlimit:10;stroke-opacity:1"
   d="m 222.901,260.547 c 2.386,0.045 2.088,7.234 -0.33,7.026 -2.418,-0.209 -2.056,-7.071 0.33,-7.026 z"
   id="path58" />&#10;				<path
   style="fill:#818181;fill-opacity:1;stroke:#808080;stroke-width:1.4;stroke-linecap:round;stroke-linejoin:round;stroke-miterlimit:10;stroke-opacity:1"
   d="m 199.75306,256.49371 c 2,1.301 -2.058,7.243 -3.999,5.786 -1.941,-1.456 1.998,-7.087 3.999,-5.786 z"
   id="path59" />&#10;				<path
   style="fill:#818181;fill-opacity:1;stroke:#808080;stroke-width:1.4;stroke-linecap:round;stroke-linejoin:round;stroke-miterlimit:10;stroke-opacity:1"
   d="m 195.932,238.437 c 1.555,1.81 -4.006,6.375 -5.461,4.433 -1.455,-1.942 3.905,-6.242 5.461,-4.433 z"
   id="path60" />&#10;				<path
   style="fill:#818181;fill-opacity:1;stroke:#808080;stroke-width:1.4;stroke-linecap:round;stroke-linejoin:round;stroke-miterlimit:10;stroke-opacity:1"
   d="m 166.992,308.095 c 1.866,1.488 -2.747,7.01 -4.539,5.373 -1.791,-1.636 2.673,-6.861 4.539,-5.373 z"
   id="path61" />&#10;				<path
   style="fill:#818181;fill-opacity:1;stroke:#808080;stroke-width:1.4;stroke-linecap:round;stroke-linejoin:round;stroke-miterlimit:10;stroke-opacity:1"
   d="m 199.63,323.564 c 2.345,0.44 0.859,7.48 -1.49,6.874 -2.35,-0.607 -0.856,-7.314 1.49,-6.874 z"
   id="path62" />&#10;				<path
   style="fill:#818181;fill-opacity:1;stroke:#808080;stroke-width:1.4;stroke-linecap:round;stroke-linejoin:round;stroke-miterlimit:10;stroke-opacity:1"
   d="m 237.919,327.887 c 2.364,-0.327 3.189,6.821 0.768,6.991 -2.42,0.171 -3.131,-6.664 -0.768,-6.991 z"
   id="path63" />&#10;				<path
   style="fill:#818181;fill-opacity:1;stroke:#808080;stroke-width:1.4;stroke-linecap:round;stroke-linejoin:round;stroke-miterlimit:10;stroke-opacity:1"
   d="m 245.659,276.417 c 2.364,-0.327 3.189,6.821 0.768,6.992 -2.421,0.171 -3.132,-6.664 -0.768,-6.992 z"
   id="path64" />&#10;				<path
   style="fill:#818181;fill-opacity:1;stroke:#808080;stroke-width:1.4;stroke-linecap:round;stroke-linejoin:round;stroke-miterlimit:10;stroke-opacity:1"
   d="m 145.602,280.344 c 1.555,1.81 -4.006,6.375 -5.461,4.433 -1.455,-1.942 3.905,-6.243 5.461,-4.433 z"
   id="path65" />&#10;				<path
   style="fill:#818181;fill-opacity:1;stroke:#808080;stroke-width:1.4;stroke-linecap:round;stroke-linejoin:round;stroke-miterlimit:10;stroke-opacity:1"
   d="m 163.525,251.691 c 1.555,1.81 -4.006,6.375 -5.461,4.433 -1.454,-1.942 3.906,-6.243 5.461,-4.433 z"
   id="path66" />&#10;			</g>&#10;		</g>&#10;		<g
   id="g74">&#10;			<g
   id="g68">&#10;				<path
   d="m 179.001,267.898 c 3.652,2.172 -1.092,11.763 -5.239,10.537 -4.146,-1.226 1.587,-12.709 5.239,-10.537 z"
   id="path67" />&#10;				<path
   d="m 223.062,287.385 c 3.849,1.8 0.077,11.813 -4.17,11.004 -4.248,-0.809 0.32,-12.803 4.17,-11.004 z"
   id="path68" />&#10;			</g>&#10;			<path
   style="fill:none;stroke:#000000;stroke-width:1.4;stroke-linecap:round;stroke-linejoin:round;stroke-miterlimit:10"
   d="m 207.445,288.69 c 0,0 -5.63,11.42 -14.23,8.63 -8.6,-2.8 -2.41,-17.41 -2.41,-17.41 0,0 0.75,0.12 1.99,0.46 1.18,0.31 2.79,0.82 4.61,1.58 1.22,0.52 2.53,1.15 3.86,1.92 1.33,0.77 2.68,1.68 3.97,2.75 v 0.01 c 0.76,0.63 1.5,1.31 2.21,2.06 z"
   id="path69" />&#10;			<path
   style="fill:none;stroke:#000000;stroke-width:1.4;stroke-linecap:round;stroke-linejoin:round;stroke-miterlimit:10"
   d="m 197.405,281.95 c -0.87,2.52 -1.85,3.3 -4.04,2.37 -1.6,-0.67 -1.13,-2.61 -0.57,-3.95 1.18,0.31 2.79,0.82 4.61,1.58 z"
   id="path70" />&#10;			<path
   style="fill:none;stroke:#000000;stroke-width:1.4;stroke-linecap:round;stroke-linejoin:round;stroke-miterlimit:10"
   d="m 205.235,286.62 v 0.01 c -1.72,2.5 -2.9,3.1 -4.84,1.49 -1.46,-1.21 -0.1,-3.17 0.87,-4.25 1.33,0.77 2.68,1.68 3.97,2.75 z"
   id="path71" />&#10;			<g
   id="g73">&#10;				<path
   style="fill:#000000;fill-opacity:1;stroke:#000000;stroke-width:1.4;stroke-linecap:round;stroke-linejoin:round;stroke-miterlimit:10"
   d="m 160.611,275.367 c 2.667,-3.553 10.833,3.118 8.313,6.173 -3.195,3.874 -10.979,-2.619 -8.313,-6.173 z"
   id="path72" />&#10;				<path
   style="fill:#000000;fill-opacity:1;stroke:#000000;stroke-width:1.4;stroke-linecap:round;stroke-linejoin:round;stroke-miterlimit:10"
   d="m 219.386,303.263 c 2.096,-3.917 11.181,1.435 9.155,4.837 -2.57,4.315 -11.251,-0.92 -9.155,-4.837 z"
   id="path73" />&#10;			</g>&#10;		</g>&#10;	</g><g
     id="g84">&#10;		<g
   id="g77">&#10;			&#10;				<path
   style="fill:#ffffff;stroke:#000000;stroke-width:1.4;stroke-linecap:round;stroke-linejoin:round;stroke-miterlimit:10"
   d="m 143.115,71.317 c 16.607,-6.323 32.667,3.87 41.333,17.203 8.667,13.333 12.333,13 33,27 20.667,14 35.333,43.333 19.333,75.333 -16,32 -69,46 -97.333,19 -28.333,-27 -14.667,-62 -11.333,-73.667 3.333,-11.667 -1.371,-20.128 -3.333,-31.667 -2.891,-16.999 4.666,-27.999 18.333,-33.202 z"
   id="path75" />&#10;			&#10;				<path
   style="fill:#ffffff;stroke:#000000;stroke-width:1.4;stroke-linecap:round;stroke-linejoin:round;stroke-miterlimit:10"
   d="m 142.781,80.02 c 1.096,1.422 6.667,1.167 7.5,-1.833 0.833,-3 -8,-17.5 -14.833,-19.833 -6.833,-2.333 -10,12.333 -6.667,13.667 3.334,1.332 7.834,-0.001 14,7.999 z"
   id="path76" />&#10;			<path
   style="fill:none;stroke:#000000;stroke-width:1.4;stroke-linecap:round;stroke-linejoin:round;stroke-miterlimit:10"
   d="m 129.615,70.687 c 1,0.5 3.833,0.167 5.333,-3.833 1.5,-4 0.748,-5.872 -1.167,-7"
   id="path77" />&#10;		</g>&#10;		<g
   id="g83">&#10;			<g
   id="g79">&#10;				<path
   style="fill:none;stroke:#000000;stroke-width:2;stroke-linecap:round;stroke-linejoin:round;stroke-miterlimit:10"
   d="m 151.615,161.02 c 0.5,0 10.833,-10.833 25.833,-1"
   id="path78" />&#10;				<path
   style="fill:none;stroke:#000000;stroke-width:2;stroke-linecap:round;stroke-linejoin:round;stroke-miterlimit:10"
   d="m 196.781,148.52 c 0,0 1.833,-17.833 15.5,-17"
   id="path79" />&#10;			</g>&#10;			<path
   style="fill:none;stroke:#000000;stroke-width:1.4;stroke-linecap:round;stroke-linejoin:round;stroke-miterlimit:10"
   d="m 182.73,155.894 c 0,0 -2.385,2.459 0,3.959 2.385,1.5 4.885,-0.751 4.885,-3.959 0,0 3.667,1.625 5.333,-1.708 1.667,-3.333 -1,-4.5 -3,-4.667"
   id="path80" />&#10;			<g
   id="g82">&#10;				<path
   style="fill:#000000;fill-opacity:1;stroke:#000000;stroke-width:1.4;stroke-linecap:round;stroke-linejoin:round;stroke-miterlimit:10"
   d="m 142.115,174.686 c -3.324,-4.617 10.667,-11.333 12.5,-6.167 1.833,5.167 -9.5,10.334 -12.5,6.167 z"
   id="path81" />&#10;				<path
   style="fill:#000000;fill-opacity:1;stroke:#000000;stroke-width:1.4;stroke-linecap:round;stroke-linejoin:round;stroke-miterlimit:10"
   d="m 215.31,139.524 c -3.324,-4.617 10.667,-11.333 12.5,-6.167 1.833,5.166 -9.5,10.334 -12.5,6.167 z"
   id="path82" />&#10;			</g>&#10;		</g>&#10;	</g><g
     id="g111">&#10;		<g
   id="g104">&#10;			<g
   id="g92">&#10;				&#10;					<path
   style="fill:#ffffff;stroke:#000000;stroke-width:1.4;stroke-linecap:round;stroke-linejoin:round;stroke-miterlimit:10"
   d="m 313.115,140.006 c -9.862,-13.072 -2.143,-65.714 25.333,-76.167 28,-10.652 58.54,17.406 56.333,44.014 -2.666,32.153 -66.333,52.475 -81.666,32.153 z"
   id="path84" />&#10;				&#10;					<path
   style="fill:#ffffff;stroke:#000000;stroke-width:1.4;stroke-linecap:round;stroke-linejoin:round;stroke-miterlimit:10"
   d="m 375.115,74.52 c 1.406,2.813 0.333,9.833 -10.167,11.333 -10.5,1.5 -16.5,-3.667 -16.667,-5.667 -0.167,-2 4.333,0.167 9.167,-2.5 4.833,-2.666 14.833,-8.833 17.667,-3.166 z"
   id="path85" />&#10;				&#10;					<path
   style="fill:#ffffff;stroke:#000000;stroke-width:1.4;stroke-linecap:round;stroke-linejoin:round;stroke-miterlimit:10"
   d="m 375.115,74.52 c 4.403,-2.733 8.667,4 10.333,9 1.667,5 -1,13.667 -2.167,14 -1.167,0.333 -1.833,-4.167 -5.5,-8.333 -3.666,-4.167 -7.5,-11.667 -2.666,-14.667 z"
   id="path86" />&#10;				&#10;					<path
   style="fill:#ffffff;stroke:#000000;stroke-width:1.4;stroke-linecap:round;stroke-linejoin:round;stroke-miterlimit:10"
   d="m 374.212,72.201 c 1.391,-3.021 -4.329,-7.181 -8.63,-7.764 -4.301,-0.583 -8.634,-6.917 -10.967,-6.083 -2.333,0.833 -2,12.239 2.333,15.536 4.333,3.297 15.435,2.28 17.264,-1.689 z"
   id="path87" />&#10;				&#10;					<path
   style="fill:#ffffff;stroke:#000000;stroke-width:1.4;stroke-linecap:round;stroke-linejoin:round;stroke-miterlimit:10"
   d="m 377.115,72.201 c 1.485,-2.523 10.5,-1.775 14.333,1.689 3.833,3.464 4.833,10.336 7.833,12.233 3,1.897 -0.135,2.751 -4.387,2.231 -4.251,-0.521 -21.613,-9.639 -17.779,-16.153 z"
   id="path88" />&#10;				&#10;					<path
   style="fill:#ffffff;stroke:#000000;stroke-width:1.4;stroke-linecap:round;stroke-linejoin:round;stroke-miterlimit:10"
   d="m 374.424,69.215 c -3.845,1.013 -7.81,-4.695 -5.476,-9.862 2.333,-5.167 0.1,-7.333 2.383,-7.833 2.284,-0.5 13.736,14.89 3.093,17.695 z"
   id="path89" />&#10;				&#10;					<path
   style="fill:#ffffff;stroke:#000000;stroke-width:1.4;stroke-linecap:round;stroke-linejoin:round;stroke-miterlimit:10"
   d="m 380.667,70.707 c -1.377,-4.895 3.086,-6.62 7.85,-4.987 4.764,1.633 9.264,0.297 9.764,2.215 0.5,1.918 -15.102,11.701 -17.614,2.772 z"
   id="path90" />&#10;				&#10;					<path
   style="fill:#ffffff;stroke:#000000;stroke-width:1.4;stroke-linecap:round;stroke-linejoin:round;stroke-miterlimit:10"
   d="m 374.448,75.353 c -2.306,-2.018 2.667,-7.333 3.5,-12.333 0.833,-5 1.167,-7.833 5.167,-7.5 4,0.333 7,5 5.833,7.667 -1.167,2.666 -10.5,15.666 -14.5,12.166 z"
   id="path91" />&#10;				<path
   style="fill:none;stroke:#000000;stroke-width:1.4;stroke-linecap:round;stroke-linejoin:round;stroke-miterlimit:10"
   d="m 381.523,57.353 c 0,0 -1.925,1.333 0,3.167 1.925,1.833 4.988,3.393 5.925,1.003"
   id="path92" />&#10;			</g>&#10;			<g
   id="g103">&#10;				<path
   style="fill:#7f7f7f;fill-opacity:1;stroke:#808080;stroke-width:1.4;stroke-linecap:round;stroke-linejoin:round;stroke-miterlimit:10;stroke-opacity:1"
   d="m 341.781,76.687 c 1.5,1.167 -1.667,5.333 -3.333,4.333 -1.667,-1 1.833,-5.5 3.333,-4.333 z"
   id="path93" />&#10;				<path
   style="fill:#7f7f7f;fill-opacity:1;stroke:#808080;stroke-width:1.4;stroke-linecap:round;stroke-linejoin:round;stroke-miterlimit:10;stroke-opacity:1"
   d="m 314.749,112.029 c 1.837,0.488 0.55,5.561 -1.375,5.291 -1.925,-0.269 -0.462,-5.779 1.375,-5.291 z"
   id="path94" />&#10;				<path
   style="fill:#7f7f7f;fill-opacity:1;stroke:#808080;stroke-width:1.4;stroke-linecap:round;stroke-linejoin:round;stroke-miterlimit:10;stroke-opacity:1"
   d="m 328.418,85.593 c 1.715,0.819 -0.488,5.566 -2.33,4.946 -1.842,-0.621 0.616,-5.765 2.33,-4.946 z"
   id="path95" />&#10;				<path
   style="fill:#7f7f7f;fill-opacity:1;stroke:#808080;stroke-width:1.4;stroke-linecap:round;stroke-linejoin:round;stroke-miterlimit:10;stroke-opacity:1"
   d="m 344.587,95.39 c 1.5,1.167 -1.667,5.333 -3.333,4.333 -1.667,-1 1.833,-5.5 3.333,-4.333 z"
   id="path96" />&#10;				<path
   style="fill:#7f7f7f;fill-opacity:1;stroke:#808080;stroke-width:1.4;stroke-linecap:round;stroke-linejoin:round;stroke-miterlimit:10;stroke-opacity:1"
   d="m 363.814,111.067 c 1.393,1.293 -2.125,5.168 -3.698,4.027 -1.573,-1.141 2.305,-5.32 3.698,-4.027 z"
   id="path97" />&#10;				<path
   style="fill:#7f7f7f;fill-opacity:1;stroke:#808080;stroke-width:1.4;stroke-linecap:round;stroke-linejoin:round;stroke-miterlimit:10;stroke-opacity:1"
   d="m 325.115,134.162 c 1.393,1.293 -2.125,5.168 -3.698,4.027 -1.573,-1.141 2.305,-5.32 3.698,-4.027 z"
   id="path98" />&#10;				<path
   style="fill:#7f7f7f;fill-opacity:1;stroke:#808080;stroke-width:1.4;stroke-linecap:round;stroke-linejoin:round;stroke-miterlimit:10;stroke-opacity:1"
   d="m 356.106,129.817 c 1.335,1.352 -2.348,5.07 -3.87,3.862 -1.522,-1.209 2.534,-5.215 3.87,-3.862 z"
   id="path99" />&#10;				<path
   style="fill:#7f7f7f;fill-opacity:1;stroke:#808080;stroke-width:1.4;stroke-linecap:round;stroke-linejoin:round;stroke-miterlimit:10;stroke-opacity:1"
   d="m 344.565,141.774 c 0.941,1.651 -3.576,4.294 -4.735,2.733 -1.159,-1.56 3.793,-4.384 4.735,-2.733 z"
   id="path100" />&#10;				<path
   style="fill:#7f7f7f;fill-opacity:1;stroke:#808080;stroke-width:1.4;stroke-linecap:round;stroke-linejoin:round;stroke-miterlimit:10;stroke-opacity:1"
   d="m 375.905,123.955 c 1.258,1.424 -2.625,4.933 -4.078,3.641 -1.453,-1.291 2.82,-5.065 4.078,-3.641 z"
   id="path101" />&#10;				<path
   style="fill:#7f7f7f;fill-opacity:1;stroke:#808080;stroke-width:1.4;stroke-linecap:round;stroke-linejoin:round;stroke-miterlimit:10;stroke-opacity:1"
   d="m 385.932,107.842 c 1.393,1.293 -2.125,5.168 -3.698,4.027 -1.574,-1.141 2.305,-5.32 3.698,-4.027 z"
   id="path102" />&#10;				<path
   style="fill:#7f7f7f;fill-opacity:1;stroke:#808080;stroke-width:1.4;stroke-linecap:round;stroke-linejoin:round;stroke-miterlimit:10;stroke-opacity:1"
   d="m 370.636,92.106 c 1.5,1.167 -1.667,5.333 -3.333,4.333 -1.667,-1 1.833,-5.5 3.333,-4.333 z"
   id="path103" />&#10;			</g>&#10;		</g>&#10;		<g
   id="g110">&#10;			<g
   id="g105">&#10;				<path
   d="m 331.74,109.837 c 2.25,2.24 -2.884,6.808 -4.504,4.808 -1.62,-2 2.906,-6.399 4.504,-4.808 z"
   id="path104" />&#10;				<path
   d="m 345.663,126.098 c 2.25,2.24 -2.884,6.808 -4.504,4.808 -1.62,-2 2.906,-6.399 4.504,-4.808 z"
   id="path105" />&#10;			</g>&#10;			<path
   style="fill:none;stroke:#000000;stroke-width:1.4;stroke-linecap:round;stroke-linejoin:round;stroke-miterlimit:10"
   d="m 339.365,122.52 c 0,0 -1.86,1.9 -3.87,3 -1.41,0.78 -2.9,1.16 -3.88,0.24 -1.11,-1.04 -0.4,-2.87 0.66,-4.53 1.24,-1.91 2.96,-3.59 2.96,-3.59 0,0 2.63,2.26 4.13,4.88 z"
   id="path106" />&#10;			<path
   style="fill:none;stroke:#000000;stroke-width:1.4;stroke-linecap:round;stroke-linejoin:round;stroke-miterlimit:10"
   d="m 335.495,125.52 c -1.41,0.78 -2.9,1.16 -3.88,0.24 -1.11,-1.04 -0.4,-2.87 0.66,-4.53 1.42,0.71 2.94,2 3.22,4.29 z"
   id="path107" />&#10;			<g
   id="g109">&#10;				<path
   style="fill:#000000;fill-opacity:1;stroke:#000000;stroke-width:1.4;stroke-linecap:round;stroke-linejoin:round;stroke-miterlimit:10;stroke-opacity:1"
   d="m 321.047,112.318 c 2.312,-1.619 6.331,2.577 4.387,4.577 -1.944,2 -6.954,-2.779 -4.387,-4.577 z"
   id="path108" />&#10;				<path
   style="fill:#000000;fill-opacity:1;stroke:#000000;stroke-width:1.4;stroke-linecap:round;stroke-linejoin:round;stroke-miterlimit:10;stroke-opacity:1"
   d="m 340.804,133.81 c 2.312,-1.619 6.331,2.577 4.387,4.577 -1.945,2 -6.955,-2.779 -4.387,-4.577 z"
   id="path109" />&#10;			</g>&#10;		</g>&#10;	</g><g
     id="g115">&#10;		&#10;			<path
   style="fill:#ffffff;stroke:#000000;stroke-width:1.4;stroke-linecap:round;stroke-linejoin:round;stroke-miterlimit:10"
   d="m 263.471,88.545 c 25.18,11.75 43.603,-26.707 19.068,-37.953 -28.84,-13.219 -44.272,26.191 -19.068,37.953 z"
   id="path111" />&#10;		&#10;			<path
   style="fill:#ffffff;stroke:#000000;stroke-width:1.4;stroke-linecap:round;stroke-linejoin:round;stroke-miterlimit:10"
   d="m 229.157,96.893 c 25.18,11.75 43.603,-26.707 19.068,-37.953 -28.84,-13.219 -44.273,26.191 -19.068,37.953 z"
   id="path112" />&#10;		&#10;			<path
   style="fill:#ffffff;stroke:#000000;stroke-width:1.4;stroke-linecap:round;stroke-linejoin:round;stroke-miterlimit:10"
   d="m 233.948,61.523 c -0.152,0.957 4.333,0.632 5.167,-1.102 0.833,-1.734 -0.167,-17.567 -6.5,-23.901 0,0 12,1.5 20.167,6.333 8.167,4.833 9.167,10.167 11.5,10 2.333,-0.167 3.867,-2 1.433,-5.833 -2.433,-3.833 -21.933,-14 -34.933,-14.167 0,0 -4.167,-4.167 -6.167,-3.833 -2,0.334 -4.753,3.833 -3.21,4.5 1.543,0.667 4.831,0.667 6.604,1.667 1.772,1 8.106,12.672 5.939,26.336 z"
   id="path113" />&#10;		&#10;			<path
   style="fill:#ffffff;stroke:#000000;stroke-width:1.4;stroke-linecap:round;stroke-linejoin:round;stroke-miterlimit:10"
   d="m 228.009,35.187 c 0,0 -8.374,0.667 -11.551,8.5 -3.177,7.833 2.156,15.333 2.156,15.333 0,0 10.007,-2.882 12.167,-8.333 2.16,-5.451 -1.544,-13.667 -2.772,-15.5 z"
   id="path114" />&#10;		&#10;			<path
   style="fill:none;stroke:#000000;stroke-width:1.4751;stroke-linecap:round;stroke-linejoin:round;stroke-miterlimit:10"
   d="m 222.115,47.103 c 0,0 1.288,-7.917 5.894,-11.917"
   id="path115" />&#10;	</g><g
     id="g133">&#10;		<g
   id="g125">&#10;			&#10;				<path
   style="fill:#ffffff;stroke:#000000;stroke-width:1.4;stroke-linecap:round;stroke-linejoin:round;stroke-miterlimit:10"
   d="m 234.318,367.311 c -12.63,33.885 -0.203,69.209 30.141,83.128 28.108,12.894 63.802,3.781 80.992,-23.201 10.139,-15.914 13.706,-36.811 8.133,-55.132 -17.121,-56.272 -98.721,-59.916 -119.266,-4.795 z"
   id="path116" />&#10;			&#10;				<path
   style="fill:#ffffff;stroke:#000000;stroke-width:1.4;stroke-linecap:round;stroke-linejoin:round;stroke-miterlimit:10"
   d="m 267.715,337.686 c 1.933,0.753 2.326,1.285 2.613,-1.774 0.287,-3.06 -12.547,-20.06 -16.38,-21.726 -3.833,-1.667 -9.167,4.833 -7.167,6.5 2,1.667 5.167,3.145 10.167,6.323 5,3.177 8.2,9.677 10.767,10.677 z"
   id="path117" />&#10;			<path
   style="fill:none;stroke:#000000;stroke-width:1.4;stroke-linecap:round;stroke-linejoin:round;stroke-miterlimit:10"
   d="m 247.948,320.02 c 0,0 0.677,1.983 4,-1 2.446,-2.196 1.5,-3.667 1.5,-3.667"
   id="path118" />&#10;			&#10;				<path
   style="fill:#ffffff;stroke:#000000;stroke-width:1.4;stroke-linecap:round;stroke-linejoin:round;stroke-miterlimit:10"
   d="m 261.754,324.059 c 0,0 -1.167,-13.857 12,-19.857 13.167,-6 27,0.641 28.167,1.654 1.167,1.013 0.167,16.725 -14.833,22.536 -15.001,5.81 -25.326,-2.666 -25.334,-4.333 z"
   id="path119" />&#10;			<path
   style="fill:none;stroke:#000000;stroke-width:1.4;stroke-linecap:round;stroke-linejoin:round;stroke-miterlimit:10"
   d="m 261.754,324.059 c 0,0 7.833,-10.357 21.667,-10.857"
   id="path120" />&#10;			&#10;			&#10;			&#10;			&#10;			&#10;		</g>&#10;		<g
   id="g132">&#10;			<g
   id="g127">&#10;				<path
   d="m 276.353,384.853 c 4.233,-0.833 6.262,9.167 2.262,10.5 -4,1.333 -7.268,-9.514 -2.262,-10.5 z"
   id="path126" />&#10;				<path
   d="m 315.349,374.19 c 4.233,-0.833 6.262,9.167 2.262,10.5 -4.001,1.334 -7.268,-9.514 -2.262,-10.5 z"
   id="path127" />&#10;			</g>&#10;			<path
   style="fill:none;stroke:#000000;stroke-width:1.4;stroke-linecap:round;stroke-linejoin:round;stroke-miterlimit:10"
   d="m 310.115,382.52 c -4.31,2.73 -10.47,4.6 -15.67,5.81 -3.28,0.76 -6.17,1.25 -7.99,1.53 -1.26,0.19 -2.01,0.28 -2.01,0.28"
   id="path128" />&#10;			&#10;			&#10;				&#10;			<g
   id="g131">&#10;				<path
   style="fill:#000000;fill-opacity:1;stroke:#000000;stroke-width:1.4;stroke-linecap:round;stroke-linejoin:round;stroke-miterlimit:10"
   d="m 322.781,388.33 c 1.709,4.109 11.592,0.702 10.667,-3.526 -1.167,-5.331 -12.667,-1.284 -10.667,3.526 z"
   id="path130" />&#10;				<path
   style="fill:#000000;fill-opacity:1;stroke:#000000;stroke-width:1.4;stroke-linecap:round;stroke-linejoin:round;stroke-miterlimit:10"
   d="m 268.564,403.686 c 1.709,4.109 11.592,0.702 10.667,-3.526 -1.167,-5.332 -12.667,-1.284 -10.667,3.526 z"
   id="path131" />&#10;			</g>&#10;		</g>&#10;	</g><g
     id="g149">&#10;		<g
   id="g142">&#10;			<g
   id="g136">&#10;				&#10;					<path
   style="fill:#ffffff;stroke:#000000;stroke-width:1.4;stroke-linecap:round;stroke-linejoin:round;stroke-miterlimit:10"
   d="m 96.68,382.28 c 0,0 -6.935,-9.01 0,-17.51 6.935,-8.5 17.805,-4.473 17.805,-4.473 0,0 32.88,-12.653 55.63,6.785 22.75,19.438 15.25,53.938 15.25,53.938 0,0 4.25,8.061 -0.5,15.155 -4.75,7.094 -15.5,5.845 -15.5,5.845 0,0 -30.189,21.25 -56.5,2.5 C 88.641,427.257 87.495,394.024 96.68,382.28 Z"
   id="path133" />&#10;				<path
   style="fill:none;stroke:#000000;stroke-width:1.4;stroke-linecap:round;stroke-linejoin:round;stroke-miterlimit:10"
   d="m 100.365,376.27 c 0,0 4.499,-7.32 10.354,-12"
   id="path134" />&#10;				<path
   style="fill:none;stroke:#000000;stroke-width:1.4;stroke-linecap:round;stroke-linejoin:round;stroke-miterlimit:10"
   d="m 170.615,439.314 c 0,0 9.5,-9.294 11.75,-16.294"
   id="path135" />&#10;				&#10;					<path
   style="fill:#ffffff;stroke:#000000;stroke-width:1.4;stroke-linecap:round;stroke-linejoin:round;stroke-miterlimit:10"
   d="m 99.115,365.853 c 1.984,-1.357 -4.167,-5.833 -6,-12.5 -1.833,-6.667 0.413,-10.401 -3.627,-9.7 -4.04,0.7 -4.04,2.7 -2.707,7.367 1.334,4.666 9.167,17 12.334,14.833 z"
   id="path136" />&#10;			</g>&#10;			&#10;		</g>&#10;		<g
   id="g148">&#10;			<g
   id="g143">&#10;				<path
   style="fill:none;stroke:#000000;stroke-width:2;stroke-linecap:round;stroke-linejoin:round;stroke-miterlimit:10"
   d="m 119.516,419.353 c 0,0 -0.217,-9.574 9.774,-9.454"
   id="path142" />&#10;				<path
   style="fill:none;stroke:#000000;stroke-width:2;stroke-linecap:round;stroke-linejoin:round;stroke-miterlimit:10"
   d="m 153.448,382.52 c 0,0 -2.833,-8.29 5.667,-11.979"
   id="path143" />&#10;			</g>&#10;			<path
   style="fill:none;stroke:#000000;stroke-width:1.4;stroke-linecap:round;stroke-linejoin:round;stroke-miterlimit:10"
   d="m 142.14,396.296 c 4.163,-2.819 3.015,-8.341 5.35,-10.573 2.336,-2.232 6.055,-0.213 5.435,5.286 -0.62,5.499 -5.951,12.052 -11.901,15.16 -5.951,3.108 -9.298,-0.521 -8.182,-3.728 1.116,-3.204 5.951,-3.878 9.298,-6.145 z"
   id="path144" />&#10;			<g
   id="g146">&#10;				&#10;					<line
   style="fill:none;stroke:#000000;stroke-width:1.4;stroke-linecap:round;stroke-linejoin:round;stroke-miterlimit:10"
   x1="137.30099"
   y1="398.715"
   x2="141.02499"
   y2="406.17001"
   id="line144" />&#10;				&#10;					<line
   style="fill:none;stroke:#000000;stroke-width:1.4;stroke-linecap:round;stroke-linejoin:round;stroke-miterlimit:10"
   x1="142.812"
   y1="395.77899"
   x2="147.491"
   y2="401.194"
   id="line145" />&#10;				&#10;					<line
   style="fill:none;stroke:#000000;stroke-width:1.4;stroke-linecap:round;stroke-linejoin:round;stroke-miterlimit:10"
   x1="145.565"
   y1="390.53299"
   x2="152.58"
   y2="392.76199"
   id="line146" />&#10;			</g>&#10;			<g
   id="g147">&#10;				<path
   style="fill:#000000;fill-opacity:1;stroke:#000000;stroke-width:1.4;stroke-linecap:round;stroke-linejoin:round;stroke-miterlimit:10"
   d="m 166.948,369.824 c 2.833,0.863 -0.167,7.529 -3.667,6.446 -3.5,-1.084 0.834,-7.309 3.667,-6.446 z"
   id="path146" />&#10;				<path
   style="fill:#000000;fill-opacity:1;stroke:#000000;stroke-width:1.4;stroke-linecap:round;stroke-linejoin:round;stroke-miterlimit:10"
   d="m 124.489,422.115 c 2.833,0.863 -0.167,7.529 -3.667,6.446 -3.5,-1.083 0.833,-7.309 3.667,-6.446 z"
   id="path147" />&#10;			</g>&#10;		</g>&#10;	</g><g
     id="g158">&#10;		<g
   id="g151">&#10;			&#10;				<path
   style="fill:#ffffff;stroke:#000000;stroke-width:1.4;stroke-linecap:round;stroke-linejoin:round;stroke-miterlimit:10"
   d="m 342.069,398.853 c -7.978,-16.686 0.743,-35.667 6.894,-49.333 6.152,-13.667 4.847,-42.484 35.152,-60.667 28.333,-17 70.667,-0.041 78.333,31.813 7.667,31.854 -11,61.658 -41.333,80.922 -30.334,19.265 -70.759,14.598 -79.046,-2.735 z"
   id="path149" />&#10;			&#10;				<path
   style="fill:#ffffff;stroke:#000000;stroke-width:1.4;stroke-linecap:round;stroke-linejoin:round;stroke-miterlimit:10"
   d="m 434.619,300.013 c 2.459,2.245 8.591,-3.671 10.621,-10.465 2.031,-6.794 3.436,-16.635 2.343,-18.431 -1.093,-1.796 -8.591,-2.811 -8.903,-1.328 -0.312,1.484 0.859,4.608 0.625,10.777 -0.234,6.17 -6.482,17.807 -4.686,19.447 z"
   id="path150" />&#10;			<path
   style="fill:none;stroke:#000000;stroke-width:1.4;stroke-linecap:round;stroke-linejoin:round;stroke-miterlimit:10"
   d="m 440.086,271.117 c 0,0 -0.547,1.406 2.811,2.187 3.358,0.781 3.749,-1.406 3.749,-1.406"
   id="path151" />&#10;		</g>&#10;		<g
   id="g157">&#10;			<g
   id="g153">&#10;				<path
   d="m 386.815,328.505 c 3.159,3.357 -3.986,11.167 -6.867,8 -3.064,-3.367 4.2,-10.834 6.867,-8 z"
   id="path152" />&#10;				<path
   d="m 418.482,356.186 c 3.159,3.357 -3.986,11.167 -6.867,8 -3.064,-3.367 4.2,-10.833 6.867,-8 z"
   id="path153" />&#10;			</g>&#10;			<path
   style="fill:none;stroke:#000000;stroke-width:1.4;stroke-linecap:round;stroke-linejoin:round;stroke-miterlimit:10"
   d="m 392.925,338.358 c 0,0 -3.333,4.941 1,9.608 4.333,4.667 9.572,0 9.572,0"
   id="path154" />&#10;			<g
   id="g156">&#10;				<path
   style="fill:#000000;fill-opacity:1;stroke:#000000;stroke-width:1.4;stroke-linecap:round;stroke-linejoin:round;stroke-miterlimit:10"
   d="m 366.42,331.853 c 2.5,-3.333 10.833,2.678 8.333,6.505 -2.499,3.828 -10.833,-3.172 -8.333,-6.505 z"
   id="path155" />&#10;				<path
   style="fill:#000000;fill-opacity:1;stroke:#000000;stroke-width:1.4;stroke-linecap:round;stroke-linejoin:round;stroke-miterlimit:10"
   d="m 412.305,370.817 c 2.5,-3.333 10.833,2.677 8.333,6.505 -2.5,3.828 -10.833,-3.171 -8.333,-6.505 z"
   id="path156" />&#10;			</g>&#10;		</g>&#10;	</g><g
     id="g174">&#10;		&#10;			<path
   style="fill:#ffffff;stroke:#000000;stroke-width:1.4;stroke-linecap:round;stroke-linejoin:round;stroke-miterlimit:10"
   d="m 375.251,258.869 10.719,-18.759 -9.377,-19.465 c -1.329,-2.758 1.082,-5.843 4.08,-5.22 l 21.153,4.397 15.614,-14.932 c 2.213,-2.116 5.892,-0.777 6.225,2.267 l 2.355,21.477 19.027,10.236 c 2.696,1.451 2.559,5.364 -0.232,6.621 l -19.698,8.876 -3.855,21.259 c -0.546,3.013 -4.31,4.091 -6.369,1.825 l -14.529,-15.991 -21.409,2.903 c -3.034,0.411 -5.223,-2.836 -3.704,-5.494 z"
   id="path158" />&#10;		&#10;			<path
   style="fill:#ffffff;stroke:#000000;stroke-width:1.4;stroke-linecap:round;stroke-linejoin:round;stroke-miterlimit:10"
   d="m 299.654,75.412 1.001,-18.06 -14.31,-11.063 c -2.028,-1.568 -1.378,-4.781 1.1,-5.437 l 17.486,-4.629 6.1,-17.028 c 0.865,-2.413 4.121,-2.788 5.51,-0.634 l 9.805,15.199 18.08,0.539 c 2.562,0.076 3.925,3.058 2.305,5.045 l -11.425,14.022 5.074,17.361 c 0.719,2.461 -1.695,4.677 -4.086,3.752 l -16.867,-6.533 -14.944,10.191 c -2.116,1.446 -4.971,-0.165 -4.829,-2.725 z"
   id="path159" />&#10;		&#10;			<path
   style="fill:#ffffff;stroke:#000000;stroke-width:1.4;stroke-linecap:round;stroke-linejoin:round;stroke-miterlimit:10"
   d="m 166.957,51.911 6.335,-11.298 -5.715,-11.624 c -0.81,-1.647 0.621,-3.509 2.421,-3.149 l 12.703,2.534 9.289,-9.028 c 1.316,-1.279 3.528,-0.494 3.743,1.329 l 1.515,12.864 11.456,6.045 c 1.624,0.857 1.56,3.203 -0.107,3.971 l -11.766,5.417 -2.209,12.764 c -0.313,1.809 -2.564,2.474 -3.81,1.125 l -8.787,-9.517 -12.821,1.844 c -1.817,0.259 -3.145,-1.676 -2.247,-3.277 z"
   id="path160" />&#10;		&#10;			<path
   style="fill:#ffffff;stroke:#000000;stroke-width:1.4;stroke-linecap:round;stroke-linejoin:round;stroke-miterlimit:10"
   d="M 95.601,176.798 91.7,167.913 82.169,166.09 c -1.351,-0.258 -1.819,-1.953 -0.792,-2.868 l 7.244,-6.456 -1.211,-9.628 c -0.172,-1.364 1.296,-2.333 2.483,-1.64 l 8.378,4.895 8.782,-4.127 c 1.245,-0.585 2.62,0.511 2.327,1.855 l -2.066,9.481 6.639,7.077 c 0.941,1.003 0.323,2.649 -1.045,2.786 l -9.655,0.965 -4.679,8.501 c -0.664,1.204 -2.42,1.126 -2.973,-0.133 z"
   id="path161" />&#10;		&#10;			<path
   style="fill:#ffffff;stroke:#000000;stroke-width:1.4;stroke-linecap:round;stroke-linejoin:round;stroke-miterlimit:10"
   d="m 68.09,318.299 -2.828,-6.44 -6.909,-1.322 c -0.979,-0.187 -1.318,-1.416 -0.574,-2.079 l 5.251,-4.68 -0.878,-6.979 c -0.124,-0.989 0.939,-1.691 1.8,-1.189 l 6.074,3.548 6.366,-2.992 c 0.902,-0.424 1.899,0.371 1.687,1.345 l -1.498,6.873 4.813,5.13 c 0.682,0.727 0.234,1.921 -0.758,2.02 l -6.999,0.699 -3.392,6.162 c -0.481,0.874 -1.754,0.817 -2.155,-0.096 z"
   id="path162" />&#10;		&#10;			<path
   style="fill:#ffffff;stroke:#000000;stroke-width:1.4;stroke-linecap:round;stroke-linejoin:round;stroke-miterlimit:10"
   d="m 343.88,166.699 2.622,-5.158 -2.763,-5.084 c -0.392,-0.721 0.213,-1.577 1.023,-1.45 l 5.716,0.899 3.981,-4.199 c 0.564,-0.595 1.566,-0.285 1.695,0.525 l 0.911,5.714 5.224,2.489 c 0.74,0.353 0.755,1.401 0.024,1.774 l -5.153,2.632 -0.753,5.737 c -0.107,0.813 -1.099,1.151 -1.68,0.572 l -4.096,-4.088 -5.689,1.057 c -0.806,0.151 -1.434,-0.689 -1.062,-1.42 z"
   id="path163" />&#10;		&#10;			<path
   style="fill:#ffffff;stroke:#000000;stroke-width:1.4;stroke-linecap:round;stroke-linejoin:round;stroke-miterlimit:10"
   d="m 241.437,124.71 0.176,-5.34 -4.299,-3.173 c -0.609,-0.45 -0.438,-1.403 0.289,-1.613 l 5.133,-1.482 1.689,-5.069 c 0.239,-0.718 1.198,-0.85 1.623,-0.224 l 2.996,4.424 5.343,0.04 c 0.757,0.006 1.179,0.877 0.714,1.475 l -3.282,4.216 1.613,5.094 c 0.229,0.722 -0.47,1.392 -1.182,1.135 l -5.024,-1.818 -4.346,3.108 c -0.614,0.441 -1.468,-0.016 -1.443,-0.773 z"
   id="path164" />&#10;		&#10;			<path
   style="fill:#ffffff;stroke:#000000;stroke-width:1.4;stroke-linecap:round;stroke-linejoin:round;stroke-miterlimit:10"
   d="m 276.878,295.915 -3.223,-4.261 -5.338,0.24 c -0.756,0.034 -1.223,-0.814 -0.79,-1.435 l 3.056,-4.382 -1.877,-5.002 c -0.266,-0.709 0.396,-1.415 1.121,-1.195 l 5.112,1.553 4.177,-3.331 c 0.592,-0.472 1.468,-0.06 1.483,0.697 l 0.103,5.342 4.459,2.943 c 0.632,0.417 0.511,1.378 -0.204,1.626 l -5.049,1.749 -1.421,5.15 c -0.201,0.728 -1.152,0.91 -1.609,0.306 z"
   id="path165" />&#10;		&#10;			<path
   style="fill:#ffffff;stroke:#000000;stroke-width:1.4;stroke-linecap:round;stroke-linejoin:round;stroke-miterlimit:10"
   d="m 389.79,49.977 6.023,-5.357 -0.998,-7.998 c -0.141,-1.133 1.078,-1.937 2.064,-1.36 l 6.956,4.073 7.298,-3.421 c 1.034,-0.485 2.176,0.427 1.931,1.543 l -1.724,7.874 5.509,5.884 c 0.781,0.834 0.266,2.201 -0.871,2.313 l -8.021,0.793 -3.894,7.057 c -0.552,1 -2.011,0.933 -2.469,-0.113 l -3.233,-7.384 -7.915,-1.522 c -1.123,-0.215 -1.51,-1.623 -0.656,-2.382 z"
   id="path166" />&#10;		&#10;			<path
   style="fill:#ffffff;stroke:#000000;stroke-width:1.4;stroke-linecap:round;stroke-linejoin:round;stroke-miterlimit:10"
   d="m 202.699,404.05 -0.52,-5.795 -5.068,-2.857 c -0.718,-0.405 -0.661,-1.458 0.098,-1.781 l 5.35,-2.285 1.151,-5.703 c 0.163,-0.808 1.182,-1.079 1.724,-0.458 l 3.827,4.382 5.78,-0.668 c 0.819,-0.095 1.391,0.791 0.968,1.499 l -2.985,4.994 2.421,5.29 c 0.343,0.75 -0.322,1.568 -1.126,1.384 l -5.672,-1.296 -4.283,3.938 c -0.607,0.558 -1.591,0.177 -1.665,-0.644 z"
   id="path167" />&#10;		&#10;			<path
   style="fill:#ffffff;stroke:#000000;stroke-width:1.4;stroke-linecap:round;stroke-linejoin:round;stroke-miterlimit:10"
   d="m 200.735,446.406 7.128,-7.884 -2.454,-10.342 c -0.348,-1.466 1.136,-2.694 2.511,-2.078 l 9.701,4.343 9.077,-5.529 c 1.286,-0.784 2.913,0.248 2.753,1.746 l -1.133,10.568 8.064,6.924 c 1.143,0.981 0.664,2.847 -0.81,3.157 l -10.401,2.189 -4.093,9.809 c -0.58,1.39 -2.503,1.512 -3.253,0.206 l -5.296,-9.215 -10.594,-0.862 c -1.501,-0.124 -2.211,-1.915 -1.2,-3.032 z"
   id="path168" />&#10;		&#10;			<path
   style="fill:#ffffff;stroke:#000000;stroke-width:1.4;stroke-linecap:round;stroke-linejoin:round;stroke-miterlimit:10"
   d="m 386.254,187.043 7.128,-7.884 -2.454,-10.342 c -0.348,-1.466 1.136,-2.694 2.511,-2.078 l 9.701,4.343 9.077,-5.529 c 1.286,-0.784 2.913,0.248 2.753,1.746 l -1.133,10.568 8.064,6.924 c 1.143,0.981 0.664,2.847 -0.81,3.157 l -10.401,2.189 -4.093,9.809 c -0.58,1.39 -2.502,1.512 -3.253,0.205 l -5.296,-9.215 -10.594,-0.862 c -1.501,-0.123 -2.21,-1.914 -1.2,-3.031 z"
   id="path169" />&#10;		&#10;			<path
   style="fill:#ffffff;stroke:#000000;stroke-width:1.4;stroke-linecap:round;stroke-linejoin:round;stroke-miterlimit:10"
   d="m 50.389,95.621 13.654,-1.174 6.774,-11.913 c 0.96,-1.688 3.439,-1.543 4.195,0.246 l 5.335,12.623 13.423,2.761 c 1.902,0.391 2.53,2.794 1.063,4.066 l -10.356,8.975 1.522,13.619 c 0.216,1.93 -1.875,3.27 -3.539,2.267 l -11.736,-7.076 -12.482,5.656 c -1.769,0.802 -3.689,-0.773 -3.25,-2.665 l 3.103,-13.348 -9.237,-10.123 c -1.309,-1.434 -0.404,-3.747 1.531,-3.914 z"
   id="path170" />&#10;		&#10;			<path
   style="fill:#ffffff;stroke:#000000;stroke-width:1.4;stroke-linecap:round;stroke-linejoin:round;stroke-miterlimit:10"
   d="m 238.777,204.788 6.127,-6.777 -2.109,-8.89 c -0.299,-1.26 0.977,-2.316 2.158,-1.787 l 8.339,3.733 7.803,-4.753 c 1.106,-0.674 2.504,0.213 2.366,1.501 l -0.973,9.085 6.932,5.952 c 0.982,0.844 0.571,2.447 -0.696,2.714 l -8.941,1.881 -3.519,8.432 c -0.499,1.195 -2.151,1.299 -2.796,0.177 l -4.552,-7.922 -9.106,-0.741 c -1.291,-0.105 -1.901,-1.644 -1.033,-2.605 z"
   id="path171" />&#10;		&#10;			<path
   style="fill:#ffffff;stroke:#000000;stroke-width:1.4;stroke-linecap:round;stroke-linejoin:round;stroke-miterlimit:10"
   d="m 47.295,253.74 16.511,-16.053 -3.864,-22.702 c -0.548,-3.217 2.832,-5.666 5.719,-4.144 l 20.37,10.742 20.397,-10.69 c 2.891,-1.515 6.264,0.942 5.708,4.158 l -3.922,22.692 16.47,16.095 c 2.334,2.281 1.04,6.248 -2.191,6.714 l -22.794,3.283 -10.218,20.638 c -1.448,2.925 -5.621,2.919 -7.062,-0.009 L 72.254,263.8 49.469,260.46 c -3.229,-0.474 -4.514,-4.445 -2.174,-6.72 z"
   id="path172" />&#10;		&#10;			<path
   style="fill:#ffffff;stroke:#000000;stroke-width:1.4;stroke-linecap:round;stroke-linejoin:round;stroke-miterlimit:10"
   d="m 48.173,406.14 18.847,3.956 13.943,-13.283 c 1.976,-1.883 5.253,-0.682 5.545,2.031 l 2.062,19.147 16.941,9.156 c 2.401,1.298 2.272,4.785 -0.218,5.901 l -17.572,7.878 -3.473,18.942 c -0.492,2.684 -3.849,3.639 -5.68,1.616 l -12.922,-14.278 -19.088,2.551 c -2.705,0.362 -4.65,-2.536 -3.292,-4.903 l 9.586,-16.702 -8.324,-17.365 c -1.18,-2.462 0.974,-5.208 3.645,-4.647 z"
   id="path173" />&#10;		&#10;			<path
   style="fill:#ffffff;stroke:#000000;stroke-width:1.4;stroke-linecap:round;stroke-linejoin:round;stroke-miterlimit:10"
   d="m 386.301,412.64 18.467,7.96 17.026,-10.7 c 2.413,-1.516 5.517,0.392 5.253,3.23 l -1.864,20.023 15.438,12.887 c 2.188,1.826 1.332,5.368 -1.449,5.994 l -19.618,4.415 -7.485,18.664 c -1.061,2.645 -4.694,2.926 -6.148,0.475 l -10.261,-17.294 -20.064,-1.351 c -2.843,-0.191 -4.233,-3.56 -2.351,-5.701 l 13.277,-15.103 -4.915,-19.499 c -0.698,-2.766 2.076,-5.128 4.694,-4 z"
   id="path174" />&#10;	</g><g
     id="g194">&#10;		&#10;			<path
   style="fill:#ffffff;stroke:#000000;stroke-width:1.4;stroke-linecap:round;stroke-linejoin:round;stroke-miterlimit:10"
   d="m 93.723,123.827 c -1.112,6.905 4.324,14.118 11.243,15.136 6.92,1.018 14.115,-4.154 15.541,-11.001 4.015,-19.264 -24.053,-21.091 -26.784,-4.135 z"
   id="path175" />&#10;		&#10;			<path
   style="fill:#ffffff;stroke:#000000;stroke-width:1.4;stroke-linecap:round;stroke-linejoin:round;stroke-miterlimit:10"
   d="m 422.424,79.934 c -1.112,6.905 4.324,14.118 11.243,15.136 6.919,1.018 14.115,-4.154 15.541,-11.001 4.015,-19.264 -24.053,-21.092 -26.784,-4.135 z"
   id="path176" />&#10;		&#10;			<path
   style="fill:#ffffff;stroke:#000000;stroke-width:1.4;stroke-linecap:round;stroke-linejoin:round;stroke-miterlimit:10"
   d="m 160.666,462.377 c -1.112,6.905 4.324,14.118 11.243,15.136 6.919,1.018 14.115,-4.154 15.541,-11.001 4.015,-19.264 -24.053,-21.092 -26.784,-4.135 z"
   id="path177" />&#10;		&#10;			<path
   style="fill:#ffffff;stroke:#000000;stroke-width:1.4;stroke-linecap:round;stroke-linejoin:round;stroke-miterlimit:10"
   d="m 197.072,88.168 c -0.614,3.811 2.386,7.792 6.205,8.354 3.819,0.562 7.79,-2.293 8.577,-6.071 2.216,-10.633 -13.275,-11.641 -14.782,-2.283 z"
   id="path178" />&#10;		&#10;			<path
   style="fill:#ffffff;stroke:#000000;stroke-width:1.4;stroke-linecap:round;stroke-linejoin:round;stroke-miterlimit:10"
   d="m 62.089,51.166 c -0.614,3.811 2.386,7.792 6.205,8.354 3.819,0.562 7.79,-2.293 8.577,-6.072 2.216,-10.631 -13.275,-11.64 -14.782,-2.282 z"
   id="path179" />&#10;		&#10;			<path
   style="fill:#ffffff;stroke:#000000;stroke-width:1.4;stroke-linecap:round;stroke-linejoin:round;stroke-miterlimit:10"
   d="m 469.612,299.488 c -0.614,3.811 2.386,7.792 6.205,8.354 3.819,0.562 7.79,-2.293 8.577,-6.072 2.216,-10.632 -13.275,-11.641 -14.782,-2.282 z"
   id="path180" />&#10;		&#10;			<path
   style="fill:#ffffff;stroke:#000000;stroke-width:1.4;stroke-linecap:round;stroke-linejoin:round;stroke-miterlimit:10"
   d="m 358.498,27.37 c -0.614,3.811 2.386,7.792 6.205,8.354 3.819,0.562 7.79,-2.293 8.577,-6.071 2.216,-10.632 -13.275,-11.641 -14.782,-2.283 z"
   id="path181" />&#10;		&#10;			<path
   style="fill:#ffffff;stroke:#000000;stroke-width:1.4;stroke-linecap:round;stroke-linejoin:round;stroke-miterlimit:10"
   d="m 435.89,197.677 c -0.614,3.811 2.386,7.792 6.205,8.354 3.819,0.562 7.79,-2.293 8.577,-6.072 2.216,-10.631 -13.275,-11.64 -14.782,-2.282 z"
   id="path182" />&#10;		&#10;			<path
   style="fill:#ffffff;stroke:#000000;stroke-width:1.4;stroke-linecap:round;stroke-linejoin:round;stroke-miterlimit:10"
   d="m 56.591,381.51 c -0.614,3.811 2.386,7.792 6.205,8.354 3.819,0.562 7.79,-2.293 8.577,-6.072 2.216,-10.631 -13.275,-11.64 -14.782,-2.282 z"
   id="path183" />&#10;		&#10;			<path
   style="fill:#ffffff;stroke:#000000;stroke-width:1.4;stroke-linecap:round;stroke-linejoin:round;stroke-miterlimit:10"
   d="m 103.943,465.322 c -0.614,3.811 2.386,7.792 6.205,8.354 3.819,0.562 7.79,-2.293 8.577,-6.072 2.215,-10.632 -13.275,-11.64 -14.782,-2.282 z"
   id="path184" />&#10;		&#10;			<path
   style="fill:#ffffff;stroke:#000000;stroke-width:1.4;stroke-linecap:round;stroke-linejoin:round;stroke-miterlimit:10"
   d="m 450.969,408.89 c -0.614,3.811 2.386,7.792 6.205,8.354 3.819,0.562 7.79,-2.293 8.577,-6.072 2.216,-10.632 -13.275,-11.64 -14.782,-2.282 z"
   id="path185" />&#10;		&#10;			&#10;		&#10;			&#10;		&#10;			&#10;		&#10;			&#10;		&#10;			&#10;		&#10;			&#10;		&#10;			&#10;		&#10;			&#10;		&#10;			&#10;	</g></g>&#10;</g>&#10;</svg>
