<svg width="510.415" height="535.361" xmlns="http://www.w3.org/2000/svg"><g fill="none" stroke="#000" stroke-width="1.4" stroke-linecap="round" stroke-linejoin="round" stroke-miterlimit="10"><path d="M93.89 37.992s-17.668 30.64-4.334 61.32c13.333 30.68 49 32.949 59.333 29.648 10.333-3.301 16.667-37.968 2-61.635-14.666-23.666-41.333-28-57-29.333zM93.89 37.992s34 43.936 55 90.968"/><path d="M86.242 59.284s10.347 5.055 25.83 4.382c0 0 3.368-14.606 1.926-22.306M85.577 84.042s16.774 5.232 39.21-.41c0 0 8.19-16.283 10.313-32.795M93.89 107.26s22.325 7.52 45.83 2.793c0 0 11.586-22.434 13.878-37.747"/></g><g fill="none" stroke="#000" stroke-width="1.4" stroke-linecap="round" stroke-linejoin="round" stroke-miterlimit="10"><path d="M358.97 132.804c2.303-1.346 24.252-12.876 45.586-3.844 21.333 9.032 28 35.365 26 38.699-2 3.333-23.333 11.749-46.667 6.375-23.333-5.375-29.525-38.538-24.919-41.23zM357.553 135.779s43.641 12.547 73.003 31.88"/><path d="M412.23 174.692s-4.125-11.146-3.566-19.257c0 0 11.21-4.17 19.384-1.14M394.223 175.584s-5.074-12.215-3.037-27.904c0 0 12.37-10.68 25.87-10.184M373.972 169.55s-4.933-18.166-.34-28.528c0 0 7.013-11.505 22.635-14.601"/></g><g fill="none" stroke="#000" stroke-width="1.4" stroke-linecap="round" stroke-linejoin="round" stroke-miterlimit="10"><path d="M379.642 314.539c-.285-3.92-1.285-40.425 24.503-62.772s64.935-14.072 68.045-9.264c3.11 4.808.392 38.479-21.858 65.844-22.25 27.365-70.12 14.03-70.69 6.192zM382.656 318.344s44.914-49.564 89.534-75.841"/><path d="M469.596 271.302s-17.415-1.781-27.777-7.784c0 0 1.761-17.53 11.073-26.372M459.09 295.689s-19.446-1.218-38.869-14.093c0 0-6.093-23.288 3.324-40.817M437.968 318.55s-27.222-5.265-37.944-18.063c0 0-10.66-16.741-4.615-39.407"/></g><g fill="none" stroke="#000" stroke-width="1.4" stroke-linecap="round" stroke-linejoin="round" stroke-miterlimit="10"><path d="M264.542 132.804c4.394-2.188 34.12 8.196 46.772 30.317 18.802 32.87 6.908 62.538-8.425 72.204-15.333 9.667-48.01-8.11-56.333-32.333-10.88-31.667 4.306-63.377 17.986-70.188zM264.542 132.804s22.42 50.776 34.383 104.315"/><path d="M247.85 154.408s10.792 6.176 28.75 8.713c0 0 10.272-9.558 13.281-21.343M242.962 176.596s19.785 9.449 42.356 11.589c0 0 16.716-17.78 21.477-31.653M248.223 207.088s13.362 7.654 45.181 7.946c0 0 19.037-15.393 25.595-33.217"/></g><g fill="none" stroke="#000" stroke-width="1.4" stroke-linecap="round" stroke-linejoin="round" stroke-miterlimit="10"><path d="M55.728 362.992s10.86-28.738 40.495-35.132c29.636-6.394 50.753 15.16 51.667 21.658 2.035 14.474-12.898 33.808-41.297 38.474-34.182 5.617-50.865-25-50.865-25zM55.728 362.992s57.9-16.95 94.197-13.474"/><path d="M67.138 345.148s10.048 5.234 16.9 10.872c0 0-5.128 14.859-14.639 22.415M88.788 330.052s15.904 12.597 22.836 21.102c0 0-6.057 23.78-21.396 36.809M117.701 327.86s13.06 13.517 17.291 21.658c0 0-3.48 18.265-17.29 35.703"/></g><g fill="none" stroke="#000" stroke-width="1.4" stroke-linecap="round" stroke-linejoin="round" stroke-miterlimit="10"><path d="M302.223 323.479s9.446-16.784 38.848-14.713c29.402 2.07 42.231 25.533 42.737 32.916.507 7.383-23.04 15.885-47.036 11.634-23.995-4.251-34.549-29.837-34.549-29.837zM302.223 323.479s54.526 8.009 81.586 18.203"/><path d="M317.792 311.993s6.93 8.407 10.33 15.867c0 0-5.652 8.018-13.466 13.518M336.773 308.594s10.18 13.01 12.148 23.46c0 0-6.614 12.81-17.942 19.752M361.601 314.528s6.538 14.632 5.723 22.242c0 0-4.562 9.909-15.809 17.662"/></g><g fill="none" stroke="#000" stroke-width="1.4" stroke-linecap="round" stroke-linejoin="round" stroke-miterlimit="10"><path d="M375.514 499.95s6.37-30.302-8.19-53.732c-14.56-23.43-43.916-27.178-52.668-20.618-8.752 6.56-6.49 43.423 13.465 59.979 19.957 16.558 47.393 14.37 47.393 14.37zM314.656 425.6s38.936 41.237 60.858 74.35"/><path d="M351.515 497.303s-.039-15.626 4.041-24.452c0 0 11.335-2.732 20.672 0M333.133 489.253s-.374-18.82 6.817-35.301c0 0 17.052-5.732 29.772-3.453M316.492 470.39s1.81-18.537 9.125-32.811c0 0 12.778-7.036 25.898-7.164"/></g><g fill="none" stroke="#000" stroke-width="1.4" stroke-linecap="round" stroke-linejoin="round" stroke-miterlimit="10"><path d="M33.7 220.354c-.092-4.908 22.035-27.308 47.445-29.253 37.758-2.89 59.458 20.576 61.616 38.574 2.158 17.997-27.913 39.895-53.367 37.026-33.272-3.751-55.407-31.067-55.694-46.347zM33.7 220.354s55.484 1.52 108.982 13.67"/><path d="M46.058 244.698s10.208-7.102 20.2-22.236c0 0-4.229-13.38-13.586-21.151M64.008 258.628s17.021-13.821 28.633-33.294c0 0-8.894-22.725-19.386-32.976M93.81 266.952s12.644-8.788 26.552-37.41c0 0-5.742-23.798-19.033-37.366"/></g><g stroke="#000" stroke-linecap="round" stroke-linejoin="round" stroke-miterlimit="10"><g stroke-width="1.4"><path d="M265.222 223.224c-9.35 20.21-5.308 45.882 9.816 62.225 15.125 16.344 40.424 22.357 61.276 14.544 20.852-7.813 35.977-28.985 36.581-51.245 1.58-58.162-82.57-79.784-107.673-25.524z" fill="#fff"/><path d="M354.713 222.299s-7.4 2.67-15.09-3.77c-.22-.18-.44-.37-.66-.57-.85-.76-1.57-1.55-2.19-2.34-5.16-6.64-2.85-13.82-2.85-13.82" fill="none"/><path d="M367.863 203.499c-3.13.31-17.41 2.42-28.24 15.03-.22-.18-.44-.37-.66-.57-.85-.76-1.57-1.55-2.19-2.34 1.31-2.81 5.53-10.89 13.52-17.91 9.85-8.66 17.06-9.06 19.48-5.96 2.42 3.1 1.3 11.44-1.91 11.75z" fill="#fff"/><path d="M366.724 192.129s-2.266-1.18-2.356 3.468c-.09 4.648 1.136 7.068 3.19 5.913" fill="none"/><path d="M342.723 211.492s14.89-15.167 30.195 6.167c0 0-9.028 8.167-19.86 6.5-10.835-1.667-10.335-12.667-10.335-12.667z" fill="#fff"/><path d="M342.723 211.492s11.281-1 21.64 5.333" fill="none"/></g><path d="M289.056 226.659s6.333 8.5 7 17.667c0 0-5.962-7.644-15.167-10.167M336.773 256.123s-10.358-2.255-18.98.926c0 0 9.424 2.27 15.525 9.61" fill="none" stroke-width="2"/><path d="M306.383 252.403c10.23 10.037-6.444 22.424-13.196 16.296-5.873-5.03 2.32-22.82 13.196-16.296z" fill="none" stroke-width="1.4"/><g stroke-width="1.4"><path d="M267.056 235.492c3.258-4.667 15.333 1.76 13 6.797-2.333 5.036-16.258-2.13-13-6.797zM327.774 273.68c3.258-4.666 15.333 1.762 13 6.798s-16.258-2.131-13-6.797z"/></g></g><g stroke-width="1.4" stroke-linecap="round" stroke-linejoin="round" stroke-miterlimit="10"><path d="M268.223 370.329c-2 3.66-57.33 33.33-108.33 12.33s-70-90.67-65.67-96.67c.36-.5 7.14-3.45 17.46-7.7 35.51-14.63 112.96-44.76 115.54-44.41 2.62.35 27.79 82.53 37.38 119.21 2.59 9.88 4.04 16.46 3.62 17.24z" fill="#fff" stroke="#000"/><path d="M268.223 370.329c-2 3.66-57.33 33.33-108.33 12.33s-70-90.67-65.67-96.67c.3-.41 4.96-2.49 12.37-5.58v-.01l5.09-2.11v.01s10.47 55.68 50.54 80.36c30.88 19.02 74.71 6.94 102.38-5.57.58 2.23 1.11 4.29 1.57 6.15 1.58 6.4 2.38 10.49 2.05 11.09z" fill="none" stroke="#000"/><path d="M266.173 359.239c-22.6 9.78-63.09 22.77-96.62 9.09-49.11-20.04-62.76-86.94-62.96-87.92v-.01l5.09-2.11v.01s10.47 55.68 50.54 80.36c30.88 19.02 74.71 6.94 102.38-5.57.58 2.23 1.11 4.29 1.57 6.15z" fill="none" stroke="#000"/><g fill="#818181" stroke="gray"><path d="M218.847 250.444c2.333.5.667 7.5-1.667 6.833-2.333-.666-.667-7.333 1.667-6.833zM236.51 316.6c2.333.5.667 7.5-1.667 6.834-2.334-.667-.667-7.333 1.667-6.833zM215.01 278.686c2.385.045 2.087 7.234-.33 7.026-2.419-.21-2.057-7.071.33-7.026zM191.861 274.633c2 1.3-2.058 7.243-3.999 5.786-1.94-1.456 1.998-7.087 4-5.786zM188.04 256.576c1.555 1.81-4.006 6.375-5.46 4.433-1.456-1.942 3.904-6.242 5.46-4.433zM159.1 326.234c1.866 1.488-2.747 7.01-4.539 5.373-1.79-1.636 2.673-6.861 4.54-5.373zM191.738 341.703c2.345.44.86 7.48-1.49 6.874-2.35-.607-.856-7.314 1.49-6.874zM230.027 346.026c2.364-.327 3.19 6.82.768 6.99-2.42.172-3.13-6.663-.768-6.99zM237.767 294.556c2.364-.327 3.19 6.82.768 6.992-2.42.17-3.132-6.664-.768-6.992zM137.71 298.483c1.555 1.81-4.006 6.375-5.46 4.433-1.456-1.942 3.904-6.243 5.46-4.433zM155.633 269.83c1.555 1.81-4.006 6.375-5.46 4.433-1.455-1.942 3.905-6.243 5.46-4.433z"/></g></g><path d="M171.11 286.037c3.651 2.172-1.093 11.763-5.24 10.537-4.146-1.226 1.587-12.71 5.24-10.537zM215.17 305.524c3.85 1.8.077 11.813-4.17 11.004-4.248-.81.32-12.803 4.17-11.004z"/><path d="M199.553 306.829s-5.63 11.42-14.23 8.63c-8.6-2.8-2.41-17.41-2.41-17.41s.75.12 1.99.46c1.18.31 2.79.82 4.61 1.58 1.22.52 2.53 1.15 3.86 1.92s2.68 1.68 3.97 2.75v.01c.76.63 1.5 1.31 2.21 2.06z" fill="none" stroke="#000" stroke-width="1.4" stroke-linecap="round" stroke-linejoin="round" stroke-miterlimit="10"/><path d="M189.513 300.089c-.87 2.52-1.85 3.3-4.04 2.37-1.6-.67-1.13-2.61-.57-3.95 1.18.31 2.79.82 4.61 1.58zM197.343 304.759v.01c-1.72 2.5-2.9 3.1-4.84 1.49-1.46-1.21-.1-3.17.87-4.25 1.33.77 2.68 1.68 3.97 2.75z" fill="none" stroke="#000" stroke-width="1.4" stroke-linecap="round" stroke-linejoin="round" stroke-miterlimit="10"/><g stroke="#000" stroke-width="1.4" stroke-linecap="round" stroke-linejoin="round" stroke-miterlimit="10"><path d="M152.72 293.506c2.666-3.553 10.832 3.118 8.312 6.173-3.195 3.874-10.979-2.62-8.313-6.173zM211.494 321.402c2.096-3.917 11.181 1.435 9.155 4.837-2.57 4.315-11.25-.92-9.155-4.837z"/></g><g stroke="#000" stroke-linecap="round" stroke-linejoin="round" stroke-miterlimit="10"><g stroke-width="1.4"><path d="M135.223 89.456c16.607-6.323 32.667 3.87 41.333 17.203 8.667 13.333 12.333 13 33 27s35.333 43.333 19.333 75.333-69 46-97.333 19-14.667-62-11.333-73.667c3.333-11.667-1.37-20.128-3.333-31.667-2.89-17 4.666-28 18.333-33.202z" fill="#fff"/><path d="M134.89 98.159c1.095 1.422 6.666 1.167 7.5-1.833.832-3-8-17.5-14.834-19.833-6.833-2.333-10 12.333-6.667 13.667 3.334 1.332 7.834-.001 14 7.999z" fill="#fff"/><path d="M121.723 88.826c1 .5 3.833.167 5.333-3.833s.748-5.872-1.167-7" fill="none"/></g><g fill="none" stroke-width="2"><path d="M143.723 179.159c.5 0 10.833-10.833 25.833-1M188.89 166.659s1.832-17.833 15.5-17"/></g><path d="M174.838 174.033s-2.385 2.459 0 3.959 4.885-.751 4.885-3.96c0 0 3.667 1.626 5.333-1.707 1.667-3.333-1-4.5-3-4.667" fill="none" stroke-width="1.4"/><g stroke-width="1.4"><path d="M134.223 192.825c-3.324-4.617 10.667-11.333 12.5-6.167 1.833 5.167-9.5 10.334-12.5 6.167zM207.418 157.663c-3.324-4.617 10.667-11.333 12.5-6.167 1.833 5.166-9.5 10.334-12.5 6.167z"/></g></g><g stroke-width="1.4" stroke-linecap="round" stroke-linejoin="round" stroke-miterlimit="10"><g stroke="#000"><path d="M305.223 158.145c-9.862-13.072-2.143-65.714 25.333-76.167 28-10.652 58.54 17.406 56.333 44.014-2.666 32.153-66.333 52.475-81.666 32.153z" fill="#fff"/><path d="M367.223 92.659c1.406 2.813.333 9.833-10.167 11.333s-16.5-3.667-16.667-5.667c-.167-2 4.333.167 9.167-2.5 4.833-2.666 14.833-8.833 17.667-3.166z" fill="#fff"/><path d="M367.223 92.659c4.403-2.733 8.667 4 10.333 9 1.667 5-1 13.667-2.167 14-1.167.333-1.833-4.167-5.5-8.333-3.666-4.167-7.5-11.667-2.666-14.667zM366.32 90.34c1.391-3.021-4.329-7.181-8.63-7.764-4.3-.583-8.634-6.917-10.967-6.083-2.333.833-2 12.239 2.333 15.536 4.333 3.297 15.435 2.28 17.264-1.69z" fill="#fff"/><path d="M369.223 90.34c1.485-2.523 10.5-1.775 14.333 1.689s4.833 10.336 7.833 12.233c3 1.897-.135 2.75-4.387 2.23-4.25-.52-21.613-9.638-17.779-16.152zM366.532 87.354c-3.845 1.013-7.81-4.695-5.476-9.862 2.333-5.167.1-7.333 2.383-7.833 2.284-.5 13.736 14.89 3.093 17.695z" fill="#fff"/><path d="M372.775 88.846c-1.377-4.895 3.086-6.62 7.85-4.987 4.764 1.633 9.264.297 9.764 2.215s-15.102 11.7-17.614 2.772z" fill="#fff"/><path d="M366.556 93.492c-2.306-2.018 2.667-7.333 3.5-12.333.833-5 1.167-7.833 5.167-7.5 4 .333 7 5 5.833 7.667-1.167 2.666-10.5 15.666-14.5 12.166z" fill="#fff"/><path d="M373.631 75.492s-1.925 1.333 0 3.167c1.925 1.833 4.988 3.393 5.925 1.003" fill="none"/></g><g fill="#7f7f7f" stroke="gray"><path d="M333.89 94.826c1.5 1.167-1.668 5.333-3.334 4.333-1.667-1 1.833-5.5 3.333-4.333zM306.857 130.168c1.837.488.55 5.56-1.375 5.29-1.925-.268-.462-5.778 1.375-5.29zM320.526 103.732c1.715.819-.488 5.566-2.33 4.946-1.842-.621.616-5.765 2.33-4.946zM336.695 113.529c1.5 1.167-1.667 5.333-3.333 4.333-1.667-1 1.833-5.5 3.333-4.333zM355.922 129.206c1.393 1.293-2.125 5.168-3.698 4.027s2.305-5.32 3.698-4.027zM317.223 152.3c1.393 1.294-2.125 5.169-3.698 4.028s2.305-5.32 3.698-4.027zM348.214 147.956c1.335 1.352-2.348 5.07-3.87 3.862-1.522-1.21 2.534-5.215 3.87-3.862zM336.673 159.913c.941 1.65-3.576 4.294-4.735 2.733-1.159-1.56 3.793-4.384 4.735-2.733zM368.013 142.094c1.258 1.424-2.625 4.933-4.078 3.64-1.453-1.29 2.82-5.064 4.078-3.64zM378.04 125.98c1.393 1.294-2.125 5.169-3.698 4.028-1.574-1.141 2.305-5.32 3.698-4.027zM362.744 110.245c1.5 1.167-1.667 5.333-3.333 4.333-1.667-1 1.833-5.5 3.333-4.333z"/></g></g><path d="M323.848 127.976c2.25 2.24-2.884 6.808-4.504 4.808-1.62-2 2.906-6.4 4.504-4.808zM337.771 144.237c2.25 2.24-2.884 6.808-4.504 4.808-1.62-2 2.906-6.4 4.504-4.808z"/><path d="M331.473 140.659s-1.86 1.9-3.87 3c-1.41.78-2.9 1.16-3.88.24-1.11-1.04-.4-2.87.66-4.53 1.24-1.91 2.96-3.59 2.96-3.59s2.63 2.26 4.13 4.88z" fill="none" stroke="#000" stroke-width="1.4" stroke-linecap="round" stroke-linejoin="round" stroke-miterlimit="10"/><path d="M327.603 143.659c-1.41.78-2.9 1.16-3.88.24-1.11-1.04-.4-2.87.66-4.53 1.42.71 2.94 2 3.22 4.29z" fill="none" stroke="#000" stroke-width="1.4" stroke-linecap="round" stroke-linejoin="round" stroke-miterlimit="10"/><g stroke="#000" stroke-width="1.4" stroke-linecap="round" stroke-linejoin="round" stroke-miterlimit="10"><path d="M313.155 130.457c2.312-1.62 6.331 2.577 4.387 4.577-1.944 2-6.954-2.78-4.387-4.577zM332.912 151.949c2.312-1.62 6.331 2.577 4.387 4.577-1.945 2-6.955-2.78-4.387-4.577z"/></g><g stroke="#000" stroke-linecap="round" stroke-linejoin="round" stroke-miterlimit="10"><path d="M255.58 106.684c25.18 11.75 43.602-26.707 19.067-37.953-28.84-13.22-44.272 26.19-19.068 37.953z" fill="#fff" stroke-width="1.4"/><path d="M221.265 115.032c25.18 11.75 43.603-26.707 19.068-37.953-28.84-13.22-44.273 26.19-19.068 37.953z" fill="#fff" stroke-width="1.4"/><path d="M226.056 79.662c-.152.957 4.333.632 5.167-1.102.833-1.734-.167-17.567-6.5-23.901 0 0 12 1.5 20.167 6.333 8.167 4.833 9.167 10.167 11.5 10 2.333-.167 3.867-2 1.433-5.833-2.433-3.833-21.933-14-34.933-14.167 0 0-4.167-4.167-6.167-3.833-2 .334-4.753 3.833-3.21 4.5 1.543.667 4.831.667 6.604 1.667 1.772 1 8.106 12.672 5.94 26.336z" fill="#fff" stroke-width="1.4"/><path d="M220.117 53.326s-8.374.667-11.55 8.5c-3.178 7.833 2.155 15.333 2.155 15.333s10.007-2.882 12.167-8.333c2.16-5.451-1.544-13.667-2.772-15.5z" fill="#fff" stroke-width="1.4"/><path d="M214.223 65.242s1.288-7.917 5.894-11.917" fill="none" stroke-width="1.475"/></g><g><g stroke="#000" stroke-width="1.4" stroke-linecap="round" stroke-linejoin="round" stroke-miterlimit="10"><path d="M226.426 385.45c-12.63 33.885-.203 69.209 30.141 83.128 28.108 12.894 63.802 3.78 80.992-23.201 10.14-15.914 13.706-36.811 8.133-55.132-17.12-56.272-98.72-59.916-119.266-4.795z" fill="#fff"/><path d="M259.823 355.825c1.933.753 2.326 1.285 2.613-1.774.287-3.06-12.547-20.06-16.38-21.726-3.833-1.667-9.167 4.833-7.167 6.5 2 1.667 5.167 3.145 10.167 6.323 5 3.177 8.2 9.677 10.767 10.677z" fill="#fff"/><path d="M240.056 338.159s.677 1.983 4-1c2.446-2.196 1.5-3.667 1.5-3.667" fill="none"/><path d="M253.862 342.198s-1.167-13.857 12-19.857 27 .64 28.167 1.654c1.167 1.013.167 16.725-14.833 22.536-15 5.81-25.326-2.666-25.334-4.333z" fill="#fff"/><path d="M253.862 342.198s7.833-10.357 21.667-10.857" fill="none"/></g><path d="M268.461 402.992c4.233-.833 6.262 9.167 2.262 10.5-4 1.333-7.268-9.514-2.262-10.5zM307.457 392.329c4.233-.833 6.262 9.167 2.262 10.5-4 1.334-7.268-9.514-2.262-10.5z"/><path d="M302.223 400.659c-4.31 2.73-10.47 4.6-15.67 5.81-3.28.76-6.17 1.25-7.99 1.53-1.26.19-2.01.28-2.01.28" fill="none" stroke="#000" stroke-width="1.4" stroke-linecap="round" stroke-linejoin="round" stroke-miterlimit="10"/><g stroke="#000" stroke-width="1.4" stroke-linecap="round" stroke-linejoin="round" stroke-miterlimit="10"><path d="M314.89 406.469c1.708 4.109 11.591.702 10.666-3.526-1.167-5.331-12.667-1.284-10.667 3.526zM260.672 421.825c1.71 4.109 11.592.702 10.667-3.526-1.167-5.332-12.667-1.284-10.667 3.526z"/></g></g><g><g stroke="#000" stroke-width="1.4" stroke-linecap="round" stroke-linejoin="round" stroke-miterlimit="10"><path d="M88.788 400.419s-6.935-9.01 0-17.51c6.935-8.5 17.805-4.473 17.805-4.473s32.88-12.653 55.63 6.785c22.75 19.438 15.25 53.938 15.25 53.938s4.25 8.06-.5 15.155c-4.75 7.094-15.5 5.845-15.5 5.845s-30.189 21.25-56.5 2.5c-24.224-17.263-25.37-50.496-16.185-62.24z" fill="#fff"/><path d="M92.473 394.409s4.5-7.32 10.354-12M162.723 457.453s9.5-9.294 11.75-16.294" fill="none"/><path d="M91.223 383.992c1.984-1.357-4.167-5.833-6-12.5-1.833-6.667.413-10.401-3.627-9.7-4.04.7-4.04 2.7-2.707 7.367 1.334 4.666 9.167 17 12.334 14.833z" fill="#fff"/></g><g stroke="#000" stroke-linecap="round" stroke-linejoin="round" stroke-miterlimit="10"><g fill="none" stroke-width="2"><path d="M111.624 437.492s-.217-9.574 9.774-9.454M145.556 400.659s-2.833-8.29 5.667-11.98"/></g><path d="M134.248 414.435c4.163-2.82 3.015-8.341 5.35-10.573 2.336-2.232 6.055-.213 5.435 5.286-.62 5.499-5.95 12.052-11.9 15.16-5.952 3.108-9.299-.521-8.183-3.728 1.116-3.204 5.951-3.878 9.298-6.145z" fill="none" stroke-width="1.4"/><g fill="none" stroke-width="1.4"><path d="M129.41 416.854l3.723 7.455M134.92 413.918l4.68 5.415M137.673 408.672l7.015 2.229"/></g><g stroke-width="1.4"><path d="M159.056 387.963c2.833.863-.167 7.529-3.667 6.446-3.5-1.084.834-7.31 3.667-6.446zM116.597 440.254c2.833.863-.167 7.529-3.667 6.446-3.5-1.083.833-7.31 3.667-6.446z"/></g></g></g><g><g stroke="#000" stroke-width="1.4" stroke-linecap="round" stroke-linejoin="round" stroke-miterlimit="10"><path d="M334.177 416.992c-7.978-16.686.743-35.667 6.894-49.333 6.152-13.667 4.847-42.484 35.152-60.667 28.333-17 70.667-.041 78.333 31.813 7.667 31.854-11 61.658-41.333 80.922-30.334 19.265-70.759 14.598-79.046-2.735z" fill="#fff"/><path d="M426.727 318.152c2.46 2.245 8.591-3.671 10.621-10.465 2.031-6.794 3.436-16.635 2.343-18.431-1.093-1.796-8.59-2.811-8.903-1.328-.312 1.484.86 4.608.625 10.777-.234 6.17-6.482 17.807-4.686 19.447z" fill="#fff"/><path d="M432.194 289.256s-.547 1.406 2.811 2.187c3.358.78 3.75-1.406 3.75-1.406" fill="none"/></g><path d="M378.923 346.644c3.16 3.357-3.986 11.167-6.867 8-3.064-3.367 4.2-10.834 6.867-8zM410.59 374.325c3.16 3.357-3.986 11.167-6.867 8-3.064-3.367 4.2-10.833 6.867-8z"/><path d="M385.033 356.497s-3.333 4.94 1 9.608c4.333 4.667 9.572 0 9.572 0" fill="none" stroke="#000" stroke-width="1.4" stroke-linecap="round" stroke-linejoin="round" stroke-miterlimit="10"/><g stroke="#000" stroke-width="1.4" stroke-linecap="round" stroke-linejoin="round" stroke-miterlimit="10"><path d="M358.528 349.992c2.5-3.333 10.833 2.678 8.333 6.505-2.499 3.828-10.833-3.172-8.333-6.505zM404.413 388.956c2.5-3.333 10.833 2.677 8.333 6.505s-10.833-3.171-8.333-6.505z"/></g></g><g fill="#fff" stroke="#000" stroke-width="1.4" stroke-linecap="round" stroke-linejoin="round" stroke-miterlimit="10"><path d="M367.36 277.008l10.718-18.76-9.377-19.464c-1.329-2.758 1.082-5.843 4.08-5.22l21.153 4.397 15.614-14.932c2.213-2.116 5.892-.777 6.225 2.267l2.355 21.477 19.027 10.236c2.696 1.45 2.56 5.364-.232 6.62l-19.698 8.877-3.855 21.259c-.546 3.013-4.31 4.09-6.369 1.825l-14.529-15.991-21.409 2.903c-3.034.41-5.223-2.836-3.704-5.494zM291.762 93.55l1.001-18.06-14.31-11.062c-2.028-1.568-1.378-4.781 1.1-5.437l17.486-4.63 6.1-17.027c.865-2.413 4.121-2.788 5.51-.634l9.805 15.199 18.08.539c2.562.076 3.925 3.058 2.305 5.045l-11.425 14.022 5.074 17.36c.72 2.462-1.695 4.678-4.086 3.753l-16.867-6.533-14.944 10.19c-2.116 1.447-4.97-.164-4.829-2.724zM159.065 70.05l6.335-11.298-5.715-11.624c-.81-1.647.621-3.51 2.421-3.15l12.703 2.535 9.29-9.028c1.315-1.28 3.527-.494 3.742 1.329l1.515 12.864 11.456 6.045c1.624.857 1.56 3.203-.107 3.97l-11.766 5.418-2.209 12.764c-.313 1.809-2.564 2.474-3.81 1.125l-8.787-9.517-12.82 1.844c-1.818.259-3.146-1.676-2.248-3.277zM87.71 194.937l-3.902-8.885-9.53-1.823c-1.352-.258-1.82-1.953-.793-2.868l7.244-6.456-1.21-9.628c-.173-1.364 1.295-2.333 2.482-1.64l8.378 4.895 8.782-4.127c1.245-.585 2.62.51 2.327 1.855l-2.066 9.48 6.64 7.078c.94 1.003.322 2.649-1.046 2.786l-9.655.965-4.679 8.5c-.664 1.205-2.42 1.127-2.973-.132zM60.198 336.438l-2.828-6.44-6.909-1.322c-.979-.187-1.318-1.416-.574-2.08l5.251-4.68-.878-6.978c-.124-.99.94-1.691 1.8-1.19l6.074 3.549 6.366-2.992c.902-.424 1.9.37 1.687 1.345l-1.498 6.873 4.813 5.13c.682.727.234 1.92-.758 2.02l-6.999.699-3.392 6.162a1.203 1.203 0 01-2.155-.096zM335.988 184.838l2.622-5.158-2.763-5.084a.99.99 0 011.023-1.45l5.716.899 3.981-4.2a.99.99 0 011.695.526l.911 5.714 5.224 2.489a.989.989 0 01.024 1.774l-5.153 2.632-.753 5.737a.99.99 0 01-1.68.572l-4.096-4.088-5.689 1.057a.988.988 0 01-1.062-1.42zM233.545 142.849l.176-5.34-4.299-3.173a.914.914 0 01.29-1.613l5.132-1.482 1.69-5.07a.914.914 0 011.622-.223l2.996 4.424 5.343.04a.914.914 0 01.714 1.475l-3.282 4.216 1.613 5.094a.914.914 0 01-1.182 1.135l-5.024-1.818-4.346 3.108a.912.912 0 01-1.443-.773zM268.986 314.054l-3.223-4.261-5.338.24a.913.913 0 01-.79-1.435l3.056-4.382-1.877-5.002a.913.913 0 011.121-1.195l5.112 1.553 4.177-3.331a.914.914 0 011.483.697l.103 5.342 4.46 2.943a.914.914 0 01-.205 1.626l-5.049 1.749-1.42 5.15a.914.914 0 01-1.61.306zM381.898 68.116l6.023-5.357-.998-7.998c-.14-1.133 1.078-1.937 2.064-1.36l6.956 4.073 7.298-3.421c1.034-.485 2.176.427 1.931 1.543l-1.724 7.874 5.51 5.884c.78.834.265 2.2-.872 2.313l-8.02.793-3.895 7.057c-.552 1-2.01.933-2.469-.113l-3.233-7.384-7.915-1.522c-1.123-.215-1.51-1.623-.656-2.382zM194.807 422.189l-.52-5.795-5.068-2.857a.994.994 0 01.098-1.781l5.35-2.285 1.151-5.703a.995.995 0 011.724-.458l3.827 4.382 5.78-.668a.995.995 0 01.968 1.499l-2.985 4.994 2.421 5.29a.995.995 0 01-1.126 1.384l-5.672-1.296-4.283 3.938a.996.996 0 01-1.665-.644zM192.843 464.545l7.128-7.884-2.454-10.342c-.348-1.466 1.136-2.694 2.511-2.078l9.701 4.343 9.077-5.53c1.286-.783 2.913.249 2.753 1.747l-1.133 10.568 8.064 6.924c1.143.98.664 2.847-.81 3.157l-10.4 2.189-4.094 9.809c-.58 1.39-2.503 1.512-3.253.206l-5.296-9.215-10.594-.862c-1.5-.124-2.21-1.915-1.2-3.032zM378.362 205.182l7.128-7.884-2.454-10.342c-.348-1.466 1.136-2.694 2.511-2.078l9.701 4.343 9.077-5.53c1.286-.783 2.913.249 2.753 1.747l-1.133 10.568 8.064 6.924c1.143.98.664 2.847-.81 3.157l-10.4 2.189-4.094 9.809c-.58 1.39-2.502 1.512-3.253.205l-5.296-9.215-10.594-.862c-1.5-.123-2.21-1.914-1.2-3.031zM42.497 113.76l13.654-1.174 6.774-11.913c.96-1.688 3.44-1.543 4.195.246l5.335 12.623 13.423 2.76c1.902.392 2.53 2.795 1.063 4.067l-10.356 8.975 1.522 13.619c.216 1.93-1.875 3.27-3.539 2.267l-11.736-7.076-12.482 5.656c-1.769.802-3.689-.773-3.25-2.665l3.103-13.348-9.237-10.123c-1.309-1.434-.404-3.747 1.531-3.914zM230.885 222.927l6.127-6.777-2.109-8.89c-.299-1.26.977-2.316 2.158-1.787l8.34 3.733 7.802-4.753c1.106-.674 2.504.213 2.366 1.5l-.973 9.086 6.932 5.952c.982.844.571 2.447-.696 2.714l-8.94 1.88-3.52 8.433c-.499 1.195-2.15 1.299-2.796.177l-4.552-7.922-9.106-.741c-1.29-.105-1.9-1.644-1.033-2.605zM39.403 271.879l16.511-16.053-3.864-22.702c-.548-3.217 2.832-5.666 5.72-4.144l20.37 10.742 20.396-10.69c2.891-1.515 6.264.942 5.708 4.158l-3.922 22.692 16.47 16.095c2.334 2.28 1.04 6.248-2.19 6.714l-22.795 3.283-10.218 20.638c-1.448 2.925-5.62 2.919-7.062-.01L64.362 281.94l-22.785-3.34c-3.229-.474-4.514-4.445-2.174-6.72zM40.281 424.279l18.847 3.956 13.943-13.283c1.976-1.883 5.253-.682 5.545 2.03l2.062 19.148 16.941 9.156c2.401 1.298 2.272 4.785-.218 5.9l-17.572 7.879-3.473 18.942c-.492 2.684-3.849 3.639-5.68 1.616l-12.922-14.278-19.088 2.55c-2.705.363-4.65-2.535-3.292-4.902l9.586-16.702-8.324-17.365c-1.18-2.462.974-5.208 3.645-4.647zM378.41 430.779l18.466 7.96 17.026-10.7c2.413-1.516 5.517.392 5.253 3.23l-1.864 20.023 15.438 12.887c2.188 1.826 1.332 5.368-1.449 5.994l-19.618 4.415-7.485 18.664c-1.06 2.645-4.694 2.926-6.148.475l-10.26-17.294-20.065-1.351c-2.843-.191-4.233-3.56-2.35-5.701l13.276-15.103-4.915-19.5c-.698-2.765 2.076-5.127 4.694-4z"/></g><g fill="#fff" stroke="#000" stroke-width="1.4" stroke-linecap="round" stroke-linejoin="round" stroke-miterlimit="10"><path d="M85.831 141.966c-1.112 6.905 4.324 14.118 11.243 15.136 6.92 1.018 14.115-4.154 15.541-11.001 4.015-19.264-24.053-21.091-26.784-4.135zM414.532 98.073c-1.112 6.905 4.324 14.118 11.243 15.136 6.92 1.018 14.115-4.154 15.541-11.001 4.015-19.264-24.053-21.092-26.784-4.135zM152.774 480.516c-1.112 6.905 4.324 14.118 11.243 15.136 6.92 1.018 14.115-4.154 15.541-11.001 4.015-19.264-24.053-21.092-26.784-4.135zM189.18 106.307c-.614 3.81 2.386 7.792 6.205 8.354 3.82.562 7.79-2.293 8.577-6.071 2.216-10.633-13.275-11.641-14.782-2.283zM54.197 69.305c-.614 3.81 2.386 7.792 6.205 8.354 3.82.562 7.79-2.293 8.577-6.072 2.216-10.631-13.275-11.64-14.782-2.282zM461.72 317.627c-.614 3.81 2.386 7.792 6.205 8.354 3.82.562 7.79-2.293 8.577-6.072 2.216-10.632-13.275-11.641-14.782-2.282zM350.606 45.509c-.614 3.81 2.386 7.792 6.205 8.354 3.82.562 7.79-2.293 8.577-6.071 2.216-10.632-13.275-11.641-14.782-2.283zM427.998 215.816c-.614 3.81 2.386 7.792 6.205 8.354 3.82.562 7.79-2.293 8.577-6.072 2.216-10.631-13.275-11.64-14.782-2.282zM48.7 399.649c-.615 3.81 2.385 7.792 6.204 8.354 3.82.562 7.79-2.293 8.577-6.072 2.216-10.631-13.275-11.64-14.782-2.282zM96.051 483.46c-.614 3.812 2.386 7.793 6.205 8.355 3.82.562 7.79-2.293 8.577-6.072 2.215-10.632-13.275-11.64-14.782-2.282zM443.077 427.029c-.614 3.81 2.386 7.792 6.205 8.354 3.82.562 7.79-2.293 8.577-6.072 2.216-10.632-13.275-11.64-14.782-2.282z"/></g></svg>