<?xml version="1.0" encoding="UTF-8" standalone="no"?>
<!-- Created with Inkscape (http://www.inkscape.org/) -->

<svg
   xmlns:dc="http://purl.org/dc/elements/1.1/"
   xmlns:cc="http://creativecommons.org/ns#"
   xmlns:rdf="http://www.w3.org/1999/02/22-rdf-syntax-ns#"
   xmlns:svg="http://www.w3.org/2000/svg"
   xmlns="http://www.w3.org/2000/svg"
   xmlns:sodipodi="http://sodipodi.sourceforge.net/DTD/sodipodi-0.dtd"
   xmlns:inkscape="http://www.inkscape.org/namespaces/inkscape"
   width="254.51207"
   height="644.65546"
   viewBox="0 0 1184.41 3000"
   version="1.1"
   id="svg7153"
   inkscape:version="0.92.1 r15371"
   sodipodi:docname="giraffe.svg">
  <defs
     id="defs7147" />
  <sodipodi:namedview
     id="base"
     pagecolor="#ffffff"
     bordercolor="#666666"
     borderopacity="1.0"
     inkscape:pageopacity="0.0"
     inkscape:pageshadow="2"
     inkscape:zoom="0.7"
     inkscape:cx="-94.537047"
     inkscape:cy="504.51846"
     inkscape:document-units="px"
     inkscape:current-layer="layer1"
     showgrid="false"
     units="px"
     fit-margin-top="0"
     fit-margin-left="0"
     fit-margin-right="0"
     fit-margin-bottom="0"
     viewbox-width="1184.41"
     inkscape:window-width="1920"
     inkscape:window-height="1003"
     inkscape:window-x="-9"
     inkscape:window-y="-9"
     inkscape:window-maximized="1" />
  <metadata
     id="metadata7150">
    <rdf:RDF>
      <cc:Work
         rdf:about="">
        <dc:format>image/svg+xml</dc:format>
        <dc:type
           rdf:resource="http://purl.org/dc/dcmitype/StillImage" />
        <dc:title></dc:title>
      </cc:Work>
    </rdf:RDF>
  </metadata>
  <g
     inkscape:label="Layer 1"
     inkscape:groupmode="layer"
     id="layer1"
     transform="translate(-60.069385,-57.243767)">
    <g
       id="g7974">
      <path
         id="path16"
         style="fill:#ffffff;fill-opacity:1;fill-rule:evenodd;stroke:none;stroke-width:0.55301809"
         d="m 746.3047,398.79634 46.08852,31.38377 c 10.97735,-31.82619 30.06755,-65.6211 43.45604,-89.10779 22.60744,-1.31617 42.36121,-13.38303 49.60028,-32.92116 10.53497,-28.52468 -8.77642,-61.88825 -43.235,-74.61872 -34.23739,-12.72495 -70.67022,0.22119 -81.20519,28.7514 -6.80202,18.65331 -0.87316,39.50762 14.04673,55.30734 -10.31378,12.95167 -21.50683,52.45376 -28.75138,81.20516 v 0"
         inkscape:connector-curvature="0" />
      <path
         id="path18"
         style="fill:#000000;fill-opacity:1;fill-rule:nonzero;stroke:none;stroke-width:0.55301809"
         d="m 755.77792,395.21278 32.50628,22.13179 c 11.79047,-30.26669 29.39849,-61.14721 40.35938,-80.38118 1.3936,-2.43881 3.92075,-4.00938 6.72458,-4.16975 20.24051,-1.1779 36.44396,-11.72398 42.30588,-27.5237 8.92017,-24.15583 -8.27307,-52.85193 -38.33513,-63.95101 -16.3914,-6.09425 -33.96635,-5.83986 -48.22314,0.71342 -10.70646,4.91633 -18.6312,13.12864 -22.31979,23.12169 -5.55231,15.22458 -0.96251,32.71101 12.29352,46.74109 2.83706,3.00288 3.0305,7.63717 0.45931,10.8668 -3.97625,4.98269 -12.50922,21.02021 -25.77057,72.45088 z m 36.6153,43.26261 c -1.64254,0 -3.27395,-0.49223 -4.66756,-1.43782 l -46.08852,-31.3893 c -2.87563,-1.95768 -4.22503,-5.50254 -3.37334,-8.88147 9.83267,-39.03201 18.51504,-64.86901 26.40655,-78.51197 -14.00237,-17.69661 -18.42099,-39.70672 -11.45296,-58.81349 5.24256,-14.19045 16.23652,-25.71535 30.97456,-32.48982 18.23303,-8.36717 40.43667,-8.80958 60.91483,-1.18903 38.62278,14.26787 60.21818,52.52011 48.12375,85.26432 -7.71468,20.81559 -27.53476,35.05581 -52.32667,37.9315 -12.0336,21.15294 -30.31633,53.9082 -40.66883,83.92602 -0.84024,2.44433 -2.77623,4.35225 -5.2261,5.17072 -0.85121,0.27652 -1.73644,0.42027 -2.61571,0.42027"
         inkscape:connector-curvature="0" />
      <path
         id="path20"
         style="fill:#ffffff;fill-opacity:1;fill-rule:evenodd;stroke:none;stroke-width:0.55301809"
         d="m 495.89261,398.79634 -46.08963,31.16257 c -10.97186,-31.82066 -30.06598,-65.62112 -43.235,-88.88659 -22.82472,-1.09498 -42.3573,-13.38303 -49.59856,-32.92116 -10.53544,-28.52468 8.77925,-61.88825 43.01428,-74.61872 34.2374,-12.72495 70.6696,0.22119 81.20519,28.7514 6.80108,18.65331 0.8763,39.50762 -14.04547,55.30734 10.31487,12.95167 21.72582,52.45376 28.74919,81.20516 v 0"
         inkscape:connector-curvature="0" />
      <path
         id="path22"
         style="fill:#000000;fill-opacity:1;fill-rule:nonzero;stroke:none;stroke-width:0.55301809"
         d="m 426.81618,236.92244 c -7.92365,0 -16.0702,1.45992 -23.93961,4.38543 -29.93649,11.13225 -47.04131,39.82836 -38.12616,63.97312 5.93231,15.99882 22.10801,26.53934 42.21512,27.50712 2.84317,0.13325 5.42017,1.71989 6.81989,4.1974 11.64828,20.57228 28.63412,50.58457 40.14806,80.17104 l 32.51349,-21.98801 c -9.14638,-36.28351 -18.91478,-63.77404 -25.7955,-72.40665 -2.5726,-3.22962 -2.3779,-7.86391 0.45931,-10.86679 13.25305,-14.0356 17.84599,-31.51651 12.28317,-46.76875 -3.68091,-9.96537 -11.60455,-18.17769 -22.31039,-23.09403 -7.40554,-3.40105 -15.70745,-5.10988 -24.26817,-5.10988 z m 22.989,201.33174 c -0.88413,0 -1.76921,-0.13795 -2.62465,-0.42576 -2.44986,-0.81296 -4.37661,-2.72637 -5.21716,-5.16518 -10.18336,-29.53124 -27.83449,-61.35743 -40.44168,-83.66617 -24.71714,-2.67108 -44.52844,-16.91681 -52.32934,-37.95916 -12.08392,-32.71654 9.40801,-70.96327 47.90131,-85.27538 20.48098,-7.62059 42.68587,-7.17818 60.91608,1.18904 14.73679,6.77447 25.73248,18.29937 30.95904,32.45663 6.97916,19.13995 2.56603,41.1556 -11.44574,58.84664 10.79315,18.67543 20.97979,56.28066 26.42692,78.57281 0.82457,3.36787 -0.53612,6.89612 -3.40657,8.83722 l -46.09181,31.1681 c -1.38577,0.9401 -3.00888,1.4212 -4.6464,1.4212"
         inkscape:connector-curvature="0" />
      <path
         id="path24"
         style="fill:#ffffff;fill-opacity:1;fill-rule:evenodd;stroke:none;stroke-width:0.55301809"
         d="m 1029.6435,512.25905 -93.27767,-0.65808 -66.27918,29.4095 9.2188,65.39991 75.71933,12.07238 79.22532,-36.21162 -4.6066,-70.01209"
         inkscape:connector-curvature="0" />
      <path
         id="path26"
         style="fill:#000000;fill-opacity:1;fill-rule:nonzero;stroke:none;stroke-width:0.55301809"
         d="m 886.66616,599.18796 67.18621,10.70643 71.74293,-32.78845 -3.7218,-56.60692 -83.77671,-0.59177 -58.91847,26.14115 z m 68.35862,27.59007 c -0.43736,0 -0.87316,-0.0329 -1.31052,-0.0988 L 878.00057,614.6061 c -3.59469,-0.57516 -6.39851,-3.42871 -6.9072,-7.03439 l -9.21881,-65.40545 c -0.51417,-3.66649 1.46572,-7.23347 4.84988,-8.73768 l 66.27918,-29.4095 c 1.07225,-0.4811 2.04072,-0.60823 3.42335,-0.71342 l 93.27753,0.65809 c 4.3466,0.0329 7.9302,3.41212 8.2122,7.74778 l 4.6122,70.01209 c 0.2273,3.43978 -1.6977,6.65833 -4.8279,8.09066 l -79.23077,36.21161 c -1.08321,0.49771 -2.2619,0.75214 -3.44529,0.75214"
         inkscape:connector-curvature="0" />
      <path
         id="path28"
         style="fill:#ffffff;fill-opacity:1;fill-rule:evenodd;stroke:none;stroke-width:0.55301809"
         d="m 221.11734,512.25905 93.27422,-0.65808 66.50038,29.4095 -9.43843,65.39991 -75.49736,12.07238 -79.44883,-36.21162 4.61002,-70.01209"
         inkscape:connector-curvature="0" />
      <path
         id="path30"
         style="fill:#000000;fill-opacity:1;fill-rule:nonzero;stroke:none;stroke-width:0.55301809"
         d="m 225.16319,577.10043 71.95707,32.79396 66.99527,-10.71196 7.66655,-53.13398 -59.11661,-26.14115 -83.77607,0.59177 z m 70.79296,49.6776 c -1.18198,0 -2.35486,-0.25443 -3.43934,-0.74666 l -79.44867,-36.21154 c -3.13679,-1.43233 -5.06135,-4.6564 -4.83451,-8.09618 l 4.60767,-70.01209 c 0.28374,-4.33566 3.87122,-7.7146 8.21741,-7.74778 l 93.27203,-0.65809 c 1.35441,0.0219 2.34201,0.23232 3.41316,0.70794 l 66.50037,29.40951 c 3.40281,1.50428 5.38756,5.08776 4.85834,8.77086 l -9.4378,65.40544 c -0.52044,3.59463 -3.31596,6.43159 -6.90172,7.00122 l -75.49579,12.07237 c -0.4358,0.0721 -0.87316,0.10503 -1.31052,0.10503"
         inkscape:connector-curvature="0" />
      <path
         id="path32"
         style="fill:#ffffff;fill-opacity:1;fill-rule:evenodd;stroke:none;stroke-width:0.55301809"
         d="M 932.19615,959.53999 H 310.22234 c -12.73056,-47.18897 -19.5332,-98.10534 -19.5332,-151.21718 0,-58.15541 8.3389,-113.90515 23.4817,-165.03719 4.83059,-16.90023 10.5356,-33.57926 17.11972,-49.38452 5.4871,-12.94614 11.19258,-25.45542 17.33823,-37.5278 7.68208,-15.36283 16.2406,-29.84638 25.23806,-43.67184 21.94764,-33.36357 47.6265,-62.33066 75.93613,-85.59612 14.70466,-11.85118 30.06802,-22.38618 46.08963,-31.16257 38.62826,-21.29119 80.7628,-33.14237 125.09811,-33.14237 44.32998,0 86.6912,11.85118 125.31398,33.14237 16.02646,8.77639 31.3892,19.31139 45.87282,31.38377 h 0.21633 c 28.75138,23.48114 54.43354,52.66945 76.37726,86.4699 9.2188,13.60977 17.55833,28.09331 25.23978,43.23495 5.92274,11.85118 11.62994,24.14478 16.90025,36.86971 6.36528,15.80526 12.28802,32.26308 17.11595,49.38452 15.36273,50.91637 23.48656,106.66059 23.48656,165.03719 0,53.11184 -6.80766,104.02821 -19.31688,151.21718 v 0"
         inkscape:connector-curvature="0" />
      <path
         id="path34"
         style="fill:#000000;fill-opacity:1;fill-rule:nonzero;stroke:none;stroke-width:0.55301809"
         d="m 316.61631,951.24476 h 609.15938 c 11.5746,-45.80096 17.44217,-93.8527 17.44217,-142.92195 0,-57.04935 -7.78099,-111.77049 -23.13276,-162.64264 -4.31359,-15.29094 -9.8217,-31.16808 -16.87266,-48.67663 -4.861,-11.75163 -10.30829,-23.63599 -16.61823,-36.26139 -7.94684,-15.66148 -16.03195,-29.50904 -24.69221,-42.29483 -21.47375,-33.06494 -46.271,-61.24674 -73.80576,-83.92048 -0.44206,-0.2378 -0.85121,-0.51433 -1.23371,-0.82958 -14.11303,-11.76264 -29.09986,-22.02113 -44.54003,-30.4823 -38.67812,-21.31332 -79.49634,-32.11928 -121.33225,-32.11928 -41.69749,0 -82.43278,10.80596 -121.09428,32.10821 -14.97021,8.2068 -30.06818,18.4155 -44.88523,30.36069 -27.63759,22.70693 -52.62514,50.8832 -74.21443,83.69375 -9.68673,14.88172 -17.78955,28.90627 -24.74755,42.82572 -5.69669,11.18756 -11.2871,23.29312 -17.11971,37.05774 -6.21495,14.90937 -11.86618,31.21234 -16.7808,48.42224 -15.37841,51.93395 -23.16645,106.66616 -23.16645,162.75878 0,49.34026 5.92995,97.38643 17.63404,142.92195 z m 615.57984,16.59055 H 310.22234 c -3.74846,0 -7.03167,-2.51617 -8.01048,-6.13296 -13.14912,-48.75407 -19.82024,-100.35618 -19.82024,-153.37954 0,-57.68532 8.0188,-114.00469 23.82564,-167.39304 5.07184,-17.75189 10.93925,-34.66871 17.41568,-50.21405 6.00755,-14.17385 11.7577,-26.62229 17.60144,-38.10293 7.21743,-14.43377 15.62719,-28.98922 25.68059,-44.44054 22.52938,-34.23735 48.63793,-63.65791 77.62382,-87.4764 15.64209,-12.60327 31.55631,-23.36501 47.36644,-32.03079 41.12249,-22.66268 84.55658,-34.15994 129.08549,-34.15994 44.66733,0 88.17886,11.49725 129.3233,34.17099 15.99887,8.77087 31.53859,19.35011 46.18806,31.4612 0.40915,0.22119 0.79165,0.47561 1.13966,0.76311 29.24909,23.89038 55.52302,53.62616 78.08611,88.37782 8.96453,13.23372 17.39796,27.66749 25.68216,44.00365 6.51467,13.01805 12.12217,25.25633 17.1658,37.45038 7.30538,18.14452 13.00144,34.57468 17.43668,50.29699 15.77753,52.28231 23.79633,108.61827 23.79633,167.2935 0,52.71367 -6.59196,104.31025 -19.59341,153.34087 -0.96251,3.63874 -4.25825,6.17168 -8.01879,6.17168"
         inkscape:connector-curvature="0" />
      <path
         id="path36"
         style="fill:#000000;fill-opacity:1;fill-rule:nonzero;stroke:none;stroke-width:0.55301809"
         d="m 426.15919,1176.2734 c -2.05827,0 -4.11059,-0.7791 -5.70265,-2.3724 l -0.22104,-0.2211 c -3.23805,-3.2352 -3.23805,-8.4889 0,-11.7296 3.24292,-3.2406 8.49206,-3.2406 11.72996,0 3.24072,3.2407 3.35077,8.5996 0.10973,11.8401 -1.64787,1.6481 -3.7864,2.4831 -5.91882,2.4831"
         inkscape:connector-curvature="0" />
      <path
         id="path38"
         style="fill:#ffffff;fill-opacity:1;fill-rule:evenodd;stroke:none;stroke-width:0.55301809"
         d="m 935.70775,2582.0785 -14.70465,-41.9189 c 51.79556,-12.9516 250.6333,-86.691 198.843,-289.4827 0,0 -132.56382,-43.4562 -12.9516,-155.1658 0,0 110.8304,101.3958 42.577,140.9034 0,0 124.0031,216.396 -213.76375,345.664 v 0"
         inkscape:connector-curvature="0" />
      <path
         id="path40"
         style="fill:#000000;fill-opacity:1;fill-rule:nonzero;stroke:none;stroke-width:0.55301809"
         d="m 931.77587,2545.7949 8.92017,25.4388 c 114.48026,-45.2534 185.74226,-105.3056 211.86126,-178.5751 29.1496,-81.7692 -9.8825,-151.4273 -10.2807,-152.1241 -2.2729,-3.9597 -0.9123,-9.0143 3.0416,-11.3038 10.8778,-6.2933 16.7233,-14.4447 17.8625,-24.9079 3.4011,-31.2399 -35.3545,-76.6649 -56.2752,-97.3367 -32.2242,31.6659 -45.8838,59.8476 -40.6246,83.8432 7.8031,35.5921 55.6779,51.8122 56.159,51.9671 2.682,0.8904 4.7449,3.0913 5.4417,5.8288 16.4522,64.3988 9.7939,122.1893 -19.7816,171.7673 -48.9696,82.0844 -145.20581,116.2168 -176.32413,125.4024 z m 3.93188,44.5787 c -1.18982,0 -2.38339,-0.2602 -3.48401,-0.7744 -2.03508,-0.9405 -3.60018,-2.6654 -4.34119,-4.778 l -14.70465,-41.9187 c -0.7744,-2.2011 -0.58002,-4.6289 0.52515,-6.6806 1.10673,-2.0571 3.02486,-3.5503 5.29225,-4.1143 12.40434,-3.1025 122.7204,-32.8272 174.8589,-120.2152 26.589,-44.5787 32.9764,-96.6895 18.9962,-154.9556 -13.6707,-5.4085 -54.3729,-24.4821 -62.7566,-62.4689 -6.9515,-31.4999 10.2529,-66.8323 51.1376,-105.0182 3.1578,-2.9585 8.063,-2.9862 11.265,-0.063 2.9642,2.7155 72.5725,67.0259 67.1751,116.7201 -1.4595,13.4604 -7.9912,24.5817 -19.4387,33.1424 9.8106,20.7326 34.4586,84.6338 7.9525,158.976 -28.4252,79.7287 -105.6375,144.1885 -229.50803,191.5932 -0.95624,0.37 -1.96327,0.5534 -2.96968,0.5534"
         inkscape:connector-curvature="0" />
      <path
         id="path42"
         style="fill:#ffffff;fill-opacity:1;fill-rule:evenodd;stroke:none;stroke-width:0.55301809"
         d="m 566.78401,729.09742 c 0,30.94135 -15.36289,55.96545 -34.45858,55.96545 -19.09568,0 -34.45858,-25.0241 -34.45858,-55.96545 0,-30.94689 15.3629,-55.96541 34.45858,-55.96541 19.09569,0 34.45858,25.01852 34.45858,55.96541 v 0"
         inkscape:connector-curvature="0" />
      <path
         id="path46"
         style="fill:#ffffff;fill-opacity:1;fill-rule:evenodd;stroke:none;stroke-width:0.55301809"
         d="m 750.92094,727.47594 c 0,30.94135 -15.58393,55.96545 -34.45858,55.96545 -19.09569,0 -34.67413,-25.0241 -34.67413,-55.96545 0,-30.94689 15.57844,-55.96541 34.67413,-55.96541 18.87465,0 34.45858,25.01852 34.45858,55.96541 v 0"
         inkscape:connector-curvature="0" />
      <path
         inkscape:connector-curvature="0"
         id="path48"
         d="m 743.2142,586.95469 c -21.4917,0.32643 -39.36443,17.06867 -48.86895,35.32875 -20.91579,41.57542 -20.21232,93.73107 3.48028,134.07946 11.44295,18.45457 32.43151,33.47001 54.91797,28.46289 22.19163,-4.97554 37.47463,-24.58609 45.2551,-44.77375 14.41378,-35.54778 13.33522,-76.52154 -1.82193,-111.98909 -9.48534,-21.06493 -28.2984,-41.46446 -52.96247,-41.10826 z m 0.91211,15.20508 c 18.76601,0.95164 31.68931,17.80845 38.63476,33.70508 15.25238,35.83884 13.77658,79.29484 -6.41406,112.92187 -7.95876,12.78369 -22.67087,24.65261 -38.62305,20.95508 -18.72635,-4.64976 -29.46494,-23.20111 -35.58593,-40.13086 -12.64916,-35.04759 -9.56103,-76.31728 10.64704,-107.93177 7.14471,-10.34233 18.19208,-19.45551 31.34124,-19.5194 z"
         style="fill:#000000;fill-opacity:1;fill-rule:nonzero;stroke:none;stroke-width:0.90701926" />
      <path
         id="path50"
         style="fill:#ffffff;fill-opacity:1;fill-rule:evenodd;stroke:none;stroke-width:0.55301809"
         d="m 521.35357,1194.5893 h 199.27446 c -1.75306,183.2592 -1.53783,1054.3345 47.18898,1105.6877 227.5891,240.7564 260.06779,576.1065 219.90765,578.5233 -52.89054,3.0692 -105.56553,5.7072 -150.99597,7.0233 -23.70243,0.6584 -43.89309,-15.584 -49.1634,-38.8496 -18.6533,-82.3001 -86.02747,-143.5302 -166.57457,-143.5302 -80.32576,0 -147.70384,61.2301 -166.35715,143.5302 -5.2692,23.2656 -25.46096,39.5077 -49.16276,38.8496 -45.42934,-1.3168 -98.10214,-3.9541 -150.99331,-7.0233 -40.16296,-2.4168 -7.68192,-337.7669 219.90655,-578.5233 48.72258,-51.3532 48.72258,-922.6497 46.96952,-1105.6877 v 0"
         inkscape:connector-curvature="0" />
      <path
         id="path52"
         style="fill:#000000;fill-opacity:1;fill-rule:nonzero;stroke:none;stroke-width:0.55301809"
         d="m 529.70956,1202.8845 c 0.68505,99.5378 5.61879,1045.2098 -49.30479,1103.0997 -190.69617,201.7355 -241.75966,469.092 -230.92152,546.5975 2.15343,15.4126 5.89735,18.0283 5.93387,18.0505 60.60523,3.4342 109.91895,5.7292 150.29589,6.8961 19.43303,0.5314 36.3847,-12.7691 40.83044,-32.3848 20.0165,-88.3169 91.74894,-149.995 174.44727,-149.995 82.82563,0 154.65149,61.6781 174.66532,149.995 4.44622,19.61 21.14738,33.054 40.84581,32.3848 40.35922,-1.1663 89.66088,-3.4619 150.71412,-7.0067 -0.19438,-0.063 3.40658,-2.9421 5.50247,-17.9399 10.83906,-77.5055 -40.2266,-344.862 -230.92936,-546.6086 -8.26209,-8.7045 -33.42991,-35.2328 -44.78882,-508.8761 -5.9229,-246.9558 -5.48052,-504.3967 -4.73935,-594.2125 z M 406.88824,2894.1354 c -0.54866,0 -1.09576,0 -1.64646,-0.016 -40.54937,-1.1772 -90.0186,-3.4785 -151.24366,-7.0345 -5.08125,-0.3041 -12.09285,-3.1466 -16.75932,-14.9369 -23.12491,-58.4485 22.0174,-356.3649 231.12061,-577.5609 40.92168,-43.141 47.82889,-773.4014 44.69884,-1099.9087 -0.0157,-2.2122 0.84024,-4.3468 2.40017,-5.9174 1.55977,-1.5706 3.67746,-2.4609 5.89515,-2.4609 h 199.27446 c 2.21754,0 4.34118,0.8904 5.89515,2.4609 1.55977,1.5706 2.42227,3.7052 2.40017,5.9174 -3.47853,363.355 6.12183,1059.0129 44.91046,1099.8975 209.10729,221.2072 254.25569,519.1236 231.12849,577.5721 -4.6676,11.7903 -11.67983,14.6328 -16.73992,14.9369 -61.24669,3.556 -110.7142,5.8566 -151.25589,7.0345 -27.6122,0.7525 -51.27041,-17.8626 -57.49179,-45.3033 -18.28837,-80.7074 -83.46145,-137.071 -158.48398,-137.071 -74.89508,0 -139.97427,56.3636 -158.26765,137.071 -6.09142,26.8933 -28.92068,45.3254 -55.83483,45.3254"
         inkscape:connector-curvature="0" />
      <path
         id="path54"
         style="fill:#ffffff;fill-opacity:1;fill-rule:evenodd;stroke:none;stroke-width:0.55301809"
         d="m 519.81606,1632.4302 c 0.43736,-34.016 0.87943,-67.3741 1.09576,-99.8585 v 0 c 6.58647,-1.0957 13.16746,-1.753 20.19082,-1.753 44.11428,0 79.88886,23.2655 79.88886,51.7957 0,28.5302 -35.77458,51.7957 -79.88886,51.7957 -7.46026,0 -14.48362,-0.6584 -21.2858,-1.9799 z m -14.92584,464.397 c 2.41663,-36.4273 4.39087,-76.3717 6.14393,-118.2906 23.70243,-1.1004 44.99355,8.7764 54.21235,27.6509 14.04673,27.8722 -3.95398,65.1843 -40.16562,83.4007 -6.58098,3.2905 -13.38865,5.7072 -20.19066,7.239 z m -157.1385,377.927 c 24.36097,-44.1142 53.76824,-88.4442 88.44645,-130.7998 h 0.21789 c 36.4322,10.5295 62.10888,37.5278 62.10888,69.3484 0,41.2608 -43.23501,74.6187 -96.56464,74.6187 -20.19129,0 -38.84741,-4.8277 -54.20858,-12.9461 z m -105.78406,316.918 c 3.29213,-34.0215 11.41047,-75.9404 24.79959,-122.4658 v 0 c 22.60463,3.7329 42.79591,23.4812 50.25711,51.1376 9.43843,35.5536 -6.36355,70.6646 -35.55293,78.3515 -13.60701,3.7274 -27.43459,0.6584 -39.50377,-7.0233 z M 971.0456,2654.5016 c 11.40876,37.5278 19.53274,72.2076 24.57621,102.7122 v 0 c -12.50921,2.1954 -26.55046,2.1954 -40.81837,-0.4374 -43.45604,-8.1238 -74.18183,-37.5335 -69.13271,-65.6211 5.26482,-27.4352 43.235,-43.6774 85.37487,-36.6542 z M 743.45666,2176.7163 c 6.35964,67.3796 14.26228,113.0258 24.36035,123.5607 18.8745,19.975 36.43283,40.8239 52.66951,61.8883 v 0 c -6.58099,13.1728 -16.23668,22.8285 -28.53019,28.0933 -38.18589,15.5841 -88.66545,-19.3114 -112.58906,-78.1304 -24.13916,-58.819 -12.72492,-119.1699 25.46097,-134.7539 12.07248,-4.8279 25.23978,-4.8279 38.62842,-0.6584 z m -19.75377,-456.7156 c 0.87943,49.1632 1.97425,98.3211 3.51161,146.1682 -7.90264,4.1697 -16.90025,6.581 -26.11905,6.581 -35.77475,0 -64.74184,-35.3324 -64.74184,-79.0097 0,-43.4508 28.96709,-78.7886 64.74184,-78.7886 7.90263,0 15.36289,1.5378 22.60744,5.0491 z m -3.51176,-404.9198 c 0,33.7948 0,71.9864 0.22104,113.0258 v 0 c -4.83342,0.6584 -9.87689,1.0957 -15.1472,0.6584 -37.09091,-1.9743 -66.05799,-29.1883 -64.52064,-60.572 1.53156,-31.8263 33.13693,-56.1866 70.22784,-54.2124 3.07487,0.2211 6.36528,0.4421 9.21881,1.1005 v 0"
         inkscape:connector-curvature="0" />
      <path
         id="path56"
         style="fill:#000000;fill-opacity:1;fill-rule:nonzero;stroke:none;stroke-width:0.55301809"
         d="m 706.85234,1322.1706 c -16.19781,0 -31.48326,5.5632 -42.50497,15.5176 -9.32383,8.4226 -14.76563,19.3999 -15.31853,30.9027 -1.31679,26.8822 24.10608,50.1587 56.67883,51.8897 2.20092,0.1818 4.33554,0.1881 6.36512,0.094 -0.16616,-35.2936 -0.17714,-68.3586 -0.17714,-98.2159 -0.42012,-0.031 -0.84024,-0.063 -1.25565,-0.094 -1.26663,-0.063 -2.53279,-0.1097 -3.78813,-0.1097 z m 2.77608,115.0665 c -1.6369,0 -3.32349,-0.063 -5.04896,-0.2038 -41.42112,-2.2066 -73.88319,-33.2752 -72.11916,-69.2491 0.76813,-15.9378 8.14044,-31.0021 20.76597,-42.4054 15.13058,-13.6705 36.33329,-20.8155 58.18844,-19.6818 3.60566,0.2602 7.23358,0.5142 10.63451,1.2996 3.76618,0.8621 6.43724,4.2195 6.43724,8.0851 0,33.7838 0,71.9586 0.21633,112.9815 0.0157,4.1642 -3.04164,7.6981 -7.17261,8.2621 -3.29057,0.4484 -7.38846,0.9124 -11.90098,0.9124 z m -181.42847,188.1201 c 4.16969,0.5095 8.43892,0.7571 12.90191,0.7571 38.81073,0 71.59369,-19.9197 71.59369,-43.5004 0,-23.5807 -32.78296,-43.5004 -71.59369,-43.5004 -3.95414,0 -7.85843,0.2164 -11.94519,0.6741 -0.21633,27.9384 -0.58002,56.5073 -0.95625,85.5685 z m 12.90191,17.3481 c -7.99121,0 -15.47357,-0.696 -22.86187,-2.1291 -3.94301,-0.7635 -6.76895,-4.236 -6.7191,-8.251 l 0.0627,-5.1541 c 0.41542,-32.2188 0.82456,-63.8294 1.02835,-94.6545 0.0313,-4.0371 2.95307,-7.4658 6.9348,-8.124 7.54318,-1.2604 14.59962,-1.8691 21.55119,-1.8691 48.6268,0 88.18418,26.954 88.18418,60.0909 0,33.1313 -39.55738,60.0909 -88.18418,60.0909 z m 159.99359,80.5416 c -31.12381,0 -56.44651,31.6215 -56.44651,70.4933 0,38.9933 25.3227,70.7144 56.44651,70.7144 5.95049,0 11.96729,-1.1945 17.65238,-3.4895 -1.24468,-39.7842 -2.30611,-84.1917 -3.24072,-135.3956 -4.50719,-1.5598 -9.26316,-2.3226 -14.41166,-2.3226 z m 0,157.7982 c -40.27081,0 -73.03716,-39.1647 -73.03716,-87.3049 0,-48.0186 32.76635,-87.0839 73.03716,-87.0839 9.48419,0 18.06153,1.9245 26.22408,5.8787 2.8148,1.3606 4.62319,4.1918 4.67853,7.3163 0.99543,55.7996 2.14026,103.5748 3.50612,146.0522 0.094,3.1688 -1.6148,6.1218 -4.41863,7.604 -9.35142,4.933 -19.72053,7.5376 -29.9901,7.5376 z m -182.10881,105.8477 c -1.62044,37.7822 -3.27944,70.2222 -5.04912,98.5478 2.51069,-0.9625 4.99378,-2.0517 7.43251,-3.274 15.87723,-7.9855 28.36983,-20.1574 35.16652,-34.2593 6.4482,-13.372 6.9072,-26.8602 1.29955,-37.9813 -6.54776,-13.4108 -21.05348,-21.8442 -38.84946,-23.0332 z m -14.09642,118.2298 c -1.95779,0 -3.87122,-0.6914 -5.38647,-1.9854 -1.99086,-1.7034 -3.06374,-4.2473 -2.88675,-6.8575 2.17333,-32.8382 4.18081,-71.4664 6.13296,-118.0914 0.17714,-4.297 3.6113,-7.7423 7.90264,-7.9414 27.90534,-1.2446 51.68504,11.0881 62.04319,32.3018 7.93571,15.7389 7.52092,34.4364 -1.21177,52.5588 -8.37825,17.387 -23.53092,32.2576 -42.67646,41.8911 -7.10629,3.5559 -14.53331,6.216 -22.08747,7.9249 -0.60823,0.1254 -1.22274,0.1991 -1.8305,0.1991 z m 219.4706,76.8307 c -5.75125,0 -11.24839,1.0394 -16.45223,3.1189 -11.265,4.5957 -20.27359,14.268 -26.00837,27.9552 -10.8336,25.8426 -8.9092,61.7112 5.14301,95.9486 13.88072,34.1378 37.56652,60.9868 63.37033,71.8481 13.7481,5.7956 27.03704,6.3984 38.41272,1.7586 8.86484,-3.8048 16.1978,-10.4079 21.76674,-19.6322 -15.87159,-20.3344 -32.27412,-39.4854 -48.80943,-56.9774 -7.29424,-7.615 -16.8504,-28.591 -26.03596,-122.7314 -3.89332,-0.8574 -7.69258,-1.2885 -11.38681,-1.2885 z m 48.2896,220.3113 c -9.30721,0 -18.95742,-2.0573 -28.67394,-6.1495 -29.77456,-12.537 -56.79499,-42.7649 -72.2905,-80.8624 -15.68363,-38.1968 -17.58608,-78.8216 -5.08784,-108.6459 7.47688,-17.8293 19.61002,-30.593 35.09456,-36.9139 13.70923,-5.486 28.5744,-5.779 44.23044,-0.8967 3.19087,0.9955 5.47488,3.8103 5.78448,7.1394 9.04182,95.6667 18.46535,114.8121 22.0986,118.6004 18.1059,19.162 36.00707,40.1933 53.25015,62.5683 1.94102,2.5163 2.27288,5.9284 0.85122,8.7709 -7.49349,14.9869 -18.79706,26.0583 -32.68342,32.0088 -7.16163,2.9254 -14.74353,4.3799 -22.57422,4.3799 z m -413.43461,68.978 c 13.04126,5.5025 27.65311,8.3892 42.74277,8.3892 48.67163,0 88.27103,-29.7524 88.27103,-66.329 0,-25.6434 -20.32563,-49.1744 -51.11099,-59.7977 -29.56042,36.6098 -56.4012,76.156 -79.90281,117.7375 z m 42.74277,24.9797 c -20.784,0 -40.86964,-4.8111 -58.08686,-13.9139 -2.71525,-1.4328 -4.41517,-4.2583 -4.41517,-7.333 0,-1.3983 0.35428,-3.0029 1.03306,-4.2305 25.87732,-46.8518 55.91728,-91.2812 89.28856,-132.0497 2.06721,-2.5273 5.80439,-3.6168 8.94338,-2.7097 41.3708,11.9616 68.09918,42.3113 68.09918,77.3173 0,45.7236 -47.04132,82.9195 -104.86152,82.9195 z M 951.47995,2661.16 c -29.70825,0 -54.01342,12.5258 -57.66329,31.5552 -4.15871,23.1494 24.46005,48.7928 62.50767,55.9046 9.95433,1.836 20.06353,2.3392 29.6584,1.4924 -4.96054,-27.6288 -12.12766,-57.2208 -21.35759,-88.1566 -4.46283,-0.5361 -8.85935,-0.7964 -13.14519,-0.7964 z m 25.3448,105.9416 c -7.78663,0 -15.70573,-0.7242 -23.52544,-2.1733 -48.46658,-9.053 -81.75259,-42.1013 -75.79113,-75.2436 6.17717,-32.2023 47.8582,-51.2039 94.89795,-43.3621 3.10795,0.5142 5.65735,2.7485 6.57534,5.7678 11.14336,36.6486 19.49935,71.5607 24.82503,103.7685 0.7461,4.4904 -2.2674,8.7375 -6.74688,9.5229 -6.52016,1.1443 -13.32217,1.7198 -20.23487,1.7198 z m -726.05418,20.0581 c 7.37953,3.7715 17.3616,6.5919 28.50872,3.5337 10.19605,-2.6877 18.62948,-9.3958 24.46882,-19.4276 7.94528,-13.6595 9.86356,-31.4445 5.25761,-48.7983 -5.7072,-21.1474 -19.60845,-37.3839 -36.44944,-43.2514 -10.82043,38.8881 -18.29715,75.9403 -21.78571,107.9436 z m 19.05321,21.3963 c -10.91763,0 -22.0428,-3.3514 -32.31064,-9.888 -2.63516,-1.6757 -4.10448,-4.6897 -3.80428,-7.7977 3.50847,-36.2558 12.18362,-79.1202 25.08725,-123.9589 1.16003,-4.0482 5.21653,-6.5865 9.32101,-5.8897 26.38068,4.3524 48.72211,26.7938 56.91554,57.16 5.73541,21.612 3.19917,43.9871 -6.9475,61.4293 -7.98399,13.7258 -20.23878,23.3483 -34.50059,27.1033 -4.4934,1.2338 -9.10766,1.8417 -13.76079,1.8417"
         inkscape:connector-curvature="0" />
      <path
         id="path58"
         style="fill:#ffffff;fill-opacity:1;fill-rule:evenodd;stroke:none;stroke-width:0.55301809"
         d="m 891.15674,556.59452 c -7.68145,-15.14718 -16.02098,-29.63072 -25.23978,-43.45616 20.41185,-20.4119 50.4794,-37.74901 86.03296,-47.40471 74.83988,-19.97502 145.51008,1.97427 158.01938,49.15776 12.5093,46.75216 -37.749,101.39587 -112.36775,121.37089 -25.46097,6.58089 -50.25821,8.77639 -72.42877,6.58089 -4.82777,-17.1159 -10.75067,-33.57924 -17.11579,-49.37897 12.50921,0.22119 27.65076,-1.75307 43.45603,-6.14403 38.40708,-10.0981 66.49488,-29.84638 62.76758,-44.11424 -3.7329,-14.04666 -38.19137,-17.33713 -76.37726,-7.02333 -18.87449,5.04905 -35.33236,12.50926 -46.7466,20.4119 v 0"
         inkscape:connector-curvature="0" />
      <path
         id="path60"
         style="fill:#000000;fill-opacity:1;fill-rule:nonzero;stroke:none;stroke-width:0.55301809"
         d="m 935.70423,634.2091 c 19.86978,1.24986 41.84124,-1.08384 63.97308,-6.81317 68.85609,-18.42656 117.62689,-69.354 106.42829,-111.18981 -3.7053,-13.99136 -13.7094,-26.04715 -28.9283,-34.86779 -29.7083,-17.22652 -74.1709,-20.36765 -118.93209,-8.42246 -30.25566,8.21784 -57.49179,22.54101 -77.45029,40.63023 6.1883,9.65016 12.05038,19.69298 17.72983,30.3994 11.6798,-6.71917 26.03613,-12.4982 41.38789,-16.60712 31.33951,-8.46671 61.19696,-8.38929 76.06196,0.18795 6.9295,4.00385 9.5231,9.12481 10.4798,12.71942 5.8177,22.25345 -30.14495,44.13638 -68.67931,54.26766 -11.46409,3.17986 -22.87285,5.23155 -33.55156,6.03896 4.48493,11.77376 8.27306,22.89495 11.4807,33.65667 z m 10.56805,16.91129 c -6.07214,0 -12.00053,-0.28201 -17.75742,-0.85168 -3.40109,-0.33187 -6.24348,-2.72086 -7.1726,-6.00027 -4.27487,-15.16374 -9.77734,-31.04089 -16.8283,-48.53837 -1.03462,-2.5826 -0.71326,-5.50806 0.86219,-7.80309 1.57607,-2.28949 4.22502,-3.68863 6.979,-3.58909 12.14428,0.18796 26.74954,-1.86367 41.09474,-5.83986 40.69109,-10.7009 58.35461,-28.69611 56.96101,-34.02721 -0.1944,-0.72439 -1.2165,-1.69775 -2.7321,-2.57706 -9.19648,-5.30898 -33.94419,-6.50903 -63.45868,1.46556 -17.26519,4.62323 -32.94882,11.44194 -44.18607,19.22292 -1.97441,1.36601 -4.43524,1.80283 -6.75797,1.2221 -2.32273,-0.59177 -4.27487,-2.15123 -5.36421,-4.29141 -7.83084,-15.44027 -15.92143,-29.37632 -24.74206,-42.60451 -2.18995,-3.29046 -1.75854,-7.67036 1.03933,-10.46862 22.28656,-22.28664 54.15152,-39.88367 89.7217,-49.5449 48.95866,-13.06781 98.13296,-9.2907 131.56286,10.09258 19.1178,11.07696 31.7876,26.62229 36.6429,44.94931 13.7536,51.37537 -39.2863,110.37133 -118.235,131.5077 -19.66541,5.08223 -39.26446,7.67587 -57.63011,7.67587"
         inkscape:connector-curvature="0" />
      <path
         id="path62"
         style="fill:#ffffff;fill-opacity:1;fill-rule:evenodd;stroke:none;stroke-width:0.55301809"
         d="m 670.15411,391.33061 c -11.19321,-6.14405 -31.38935,-111.70413 -34.45858,-84.71131 -3.29041,26.99281 -7.90264,55.30733 -20.84874,63.86253 -12.95176,8.78191 -17.77953,-36.86972 -103.15456,-30.50449 -29.18764,2.19549 59.26147,48.49968 46.30972,50.69517 -12.94611,2.19548 -82.95872,2.19548 -103.36838,52.89617 -15.58408,38.1859 79.8873,-43.24048 88.22683,-19.5326 8.56072,23.70236 -14.04673,68.03228 -3.07487,74.39753 10.75632,6.58644 67.8167,-59.91399 78.78856,-42.57686 10.75616,17.11591 23.48672,54.42802 38.62827,54.42802 21.50698,0 22.82315,-49.60017 12.95175,-68.91156 -9.66118,-19.53261 49.15775,48.49968 44.98806,5.48593 -4.39103,-43.23496 34.89532,-96.12559 24.14465,-90.63965 -10.97735,5.26473 -57.28158,41.47635 -69.13271,35.11112 v 0"
         inkscape:connector-curvature="0" />
      <path
         id="path64"
         style="fill:#000000;fill-opacity:1;fill-rule:nonzero;stroke:none;stroke-width:0.55301809"
         d="m 743.05285,363.60781 c -0.0314,0.0173 -0.0784,0.0329 -0.10974,0.0549 0.0314,-0.022 0.0784,-0.0392 0.10974,-0.0549 z m -207.99554,63.24314 c 0,0.005 0,0.005 0.005,0.0112 0,-0.005 -0.005,-0.005 -0.005,-0.0112 z m 77.94785,17.8127 c 0.91862,0 1.81952,0.0721 2.70977,0.21571 4.11999,0.6747 7.62611,2.99735 9.8714,6.5422 3.21861,5.12648 6.43723,11.60232 9.84929,18.4542 5.18174,10.42439 15.97113,32.11377 21.76674,32.11377 0.87316,0 2.9145,0 5.33662,-3.97068 7.5101,-12.27147 6.47579,-40.64682 0.2273,-52.86852 -2.99179,-6.05555 -2.54941,-10.64007 1.26036,-13.73696 6.02244,-4.90528 11.31485,-0.73553 20.91521,6.80764 4.70612,3.70522 16.44109,12.93509 22.02116,14.62181 0.10973,-1.03964 0.16617,-2.6932 -0.0784,-5.18732 -2.55505,-25.17337 8.36712,-52.94042 16.92784,-71.74303 -27.23064,17.98968 -46.12725,28.88413 -57.58569,22.72905 -0.0157,-0.0112 -0.047,-0.0282 -0.0784,-0.0392 -7.26666,-3.98727 -12.01715,-17.13803 -23.54755,-57.30373 -0.75245,-2.62683 -1.55977,-5.45276 -2.39468,-8.31186 -3.66648,19.82018 -9.42337,36.89736 -20.79341,44.41841 -9.57825,6.5035 -17.65787,-0.77424 -23.54754,-6.08872 -10.70082,-9.65017 -28.30336,-25.47754 -76.30531,-23.49221 6.39287,5.41957 16.43561,12.49821 22.75104,16.95552 19.54371,13.78122 26.86022,18.93534 25.05183,26.88221 -0.6631,2.93653 -3.10795,6.36524 -7.98008,7.18924 -1.70885,0.29314 -4.34667,0.55854 -7.68693,0.87927 -21.31888,2.06829 -70.43414,6.81871 -87.91942,43.61099 6.58866,-2.91439 15.88428,-8.01875 22.79039,-11.81799 26.90442,-14.78769 44.07006,-23.45902 55.58949,-19.057 4.03691,1.543 7.06193,4.673 8.522,8.80958 5.17625,14.33976 1.14436,32.94328 -2.40565,49.35686 -1.22274,5.64632 -2.91435,13.44386 -3.25734,18.26066 5.74043,-3.44531 15.25786,-11.18757 22.05439,-16.71774 20.74372,-16.88364 34.67977,-27.51265 45.92816,-27.51265 z m 44.1972,73.9164 c -16.07616,0 -26.52271,-21.00363 -36.62079,-41.31598 -2.98081,-5.98365 -5.80125,-11.65761 -8.39486,-15.96563 -6.66391,0.98431 -24.71996,15.67806 -34.64105,23.7466 -20.21277,16.44676 -32.41238,26.40108 -42.09018,20.46166 -10.3967,-6.02789 -7.30538,-20.30683 -3.38996,-38.38498 2.83142,-13.07888 6.33205,-29.26018 3.31801,-39.27534 -6.99013,-0.42028 -28.85093,11.64102 -40.81822,18.21641 -23.50553,12.92404 -37.69805,20.73265 -46.14057,13.2116 -6.71799,-5.98364 -2.7695,-15.66146 -1.47042,-18.84132 17.53012,-43.55018 67.08886,-53.11185 94.00974,-56.25852 -2.75397,-1.99087 -5.64622,-4.03151 -8.20675,-5.83434 -24.95212,-17.59703 -37.84305,-27.27485 -34.91193,-37.86515 1.00013,-3.62226 4.10337,-8.08512 13.22812,-8.77086 60.63297,-4.53475 83.58309,16.17578 95.90984,27.29697 1.44847,1.30519 3.15231,2.84252 4.34683,3.74392 10.25844,-8.94229 14.3452,-42.50496 16.13149,-57.13229 0.82926,-7.28324 3.90978,-11.23178 9.15249,-11.66868 9.4621,-0.78521 11.84565,7.58741 21.94372,42.78148 4.42976,15.43474 11.6798,40.69107 15.81076,47.07842 8.37825,-0.47561 34.61346,-17.9399 44.74477,-24.68119 7.57626,-5.04352 13.04565,-8.68238 16.57936,-10.38568 5.88418,-3.00842 9.93222,0.22668 11.0272,1.28857 5.23723,5.08778 2.66007,10.535 -3.57243,23.6913 -7.79761,16.46335 -22.30882,47.11161 -19.75377,72.30712 0.40915,4.18081 1.63141,16.80069 -7.75889,21.93821 -9.2188,5.04352 -20.91505,-1.61481 -32.21878,-9.97091 2.37243,16.69008 0.70229,36.55449 -6.71924,48.6877 -4.70064,7.6759 -11.61882,11.90096 -19.49386,11.90096"
         inkscape:connector-curvature="0" />
      <path
         id="path66"
         style="fill:#ffffff;fill-opacity:1;fill-rule:evenodd;stroke:none;stroke-width:0.55301809"
         d="m 951.51302,1021.2126 c 0,100.5166 -147.92675,181.9375 -330.5223,181.9375 -182.37969,0 -330.30158,-81.4209 -330.30158,-181.9375 0,-100.30086 147.92189,-181.72172 330.30158,-181.72172 182.59555,0 330.5223,81.42086 330.5223,181.72172 v 0"
         inkscape:connector-curvature="0" />
      <path
         id="path68"
         style="fill:#000000;fill-opacity:1;fill-rule:nonzero;stroke:none;stroke-width:0.55301809"
         d="m 620.99072,847.78614 c -177.55584,0 -322.00845,77.79305 -322.00845,173.42096 0,95.7495 144.45261,173.6476 322.00845,173.6476 177.67372,0 322.22714,-77.8981 322.22714,-173.6476 0,-95.62791 -144.55342,-173.42096 -322.22714,-173.42096 z m 0,363.65906 c -186.70441,0 -338.5991,-85.3416 -338.5991,-190.2381 0,-104.77481 151.89469,-190.0115 338.5991,-190.0115 186.82622,0 338.81763,85.23669 338.81763,190.0115 0,104.8965 -151.99141,190.2381 -338.81763,190.2381"
         inkscape:connector-curvature="0" />
      <path
         id="path70"
         style="fill:#000000;fill-opacity:1;fill-rule:evenodd;stroke:none;stroke-width:0.55301809"
         d="m 532.39072,1079.3825 c 86.9069,34.4585 104.46508,31.168 198.61653,0 -54.86495,70.6702 -172.72415,57.2815 -198.61653,0 v 0"
         inkscape:connector-curvature="0" />
      <path
         id="path72"
         style="fill:#ffffff;fill-opacity:1;fill-rule:evenodd;stroke:none;stroke-width:0.55301809"
         d="m 353.45672,556.59452 c 7.68192,-15.14718 16.02035,-29.63072 25.23805,-43.45616 -20.40965,-20.4119 -50.47563,-37.74901 -85.81066,-47.40471 -74.83881,-19.97502 -145.72865,1.97427 -158.23897,49.15776 -12.50984,46.75216 37.75009,101.39587 112.36881,121.37089 25.4583,6.58089 50.25993,8.77639 72.4261,6.58089 4.82777,-17.1159 10.75334,-33.57924 17.11752,-49.37897 -12.50984,0.22119 -27.65312,-1.75307 -43.4551,-6.14403 -38.40707,-10.0981 -66.49818,-29.84638 -62.76742,-44.11424 3.7306,-14.04666 38.18808,-17.33713 76.37444,-7.02333 19.09412,5.04905 35.33519,12.50926 46.74723,20.4119 v 0"
         inkscape:connector-curvature="0" />
      <path
         id="path74"
         style="fill:#000000;fill-opacity:1;fill-rule:nonzero;stroke:none;stroke-width:0.55301809"
         d="m 232.91585,466.57977 c -25.32882,0 -48.47317,5.28684 -66.32292,15.63381 -15.21899,8.82618 -25.21423,20.85984 -28.91504,34.80696 -11.20026,41.8524 37.57311,92.77984 106.49528,111.22298 22.07305,5.71269 44.0533,8.0464 63.90552,6.79659 3.19933,-10.75067 6.99514,-21.87186 11.47961,-33.65666 -10.68217,-0.81297 -22.11193,-2.86464 -33.66051,-6.07214 -38.42433,-10.09811 -74.38985,-31.98104 -68.57433,-54.20683 0.96095,-3.62227 3.55597,-8.74323 10.4859,-12.74707 14.86236,-8.58284 44.72972,-8.65473 76.07644,-0.18247 15.2494,4.0315 29.61686,9.81052 41.37519,16.59607 5.68556,-10.71197 11.542,-20.75477 17.72638,-30.39388 -19.93248,-18.07265 -47.09948,-32.39028 -77.2777,-40.64131 -17.94475,-4.78913 -35.85767,-7.15605 -52.79382,-7.15605 z m 64.58868,185.37163 c -18.36409,0 -37.94652,-2.58812 -57.55262,-7.65928 -79.01915,-21.15296 -132.05689,-80.14892 -118.30487,-131.54089 4.84767,-18.27723 17.51067,-33.80598 36.6247,-44.88847 33.50736,-19.42751 82.76245,-23.22123 131.76485,-10.14234 35.49493,9.69993 67.27854,27.29144 89.5375,49.55042 2.79709,2.79826 3.22897,7.17816 1.0362,10.46862 -8.80747,13.2116 -16.89978,27.14766 -24.7416,42.60451 -1.08635,2.14018 -3.04147,3.69969 -5.36373,4.29142 -2.31771,0.58064 -4.78466,0.14422 -6.75954,-1.22211 -11.35624,-7.86392 -27.03249,-14.68817 -44.14406,-19.21185 -29.55384,-7.98559 -54.30358,-6.78554 -63.49526,-1.47653 -1.51588,0.87927 -2.53844,1.8526 -2.74128,2.61024 -1.3842,5.29791 16.27477,23.29312 56.8591,33.96083 14.45634,4.01492 29.0312,6.1164 41.20197,5.87306 2.73908,-0.1113 5.40292,1.29954 6.97963,3.58909 1.57717,2.29502 1.89916,5.22048 0.86218,7.80309 -7.05534,17.51408 -12.55953,33.39123 -16.83268,48.53837 -0.92489,3.27941 -3.77167,5.66845 -7.16774,6.00026 -5.7569,0.56967 -11.69516,0.85168 -17.76354,0.85168"
         inkscape:connector-curvature="0" />
      <path
         id="path76"
         style="fill:#000000;fill-opacity:1;fill-rule:evenodd;stroke:none;stroke-width:0.68874043"
         d="m 744.27425,659.66297 c 3.82951,0 7.65882,0.81958 10.93717,2.19018 -3.00972,2.18334 -4.91754,5.73723 -4.91754,9.56661 0,6.55685 5.19302,11.74992 11.74994,11.74992 3.82931,0 7.38334,-1.91465 9.56663,-4.91759 1.36468,3.27842 2.19013,7.1078 2.19013,10.9303 0,16.39893 -13.39595,29.51943 -29.52633,29.51943 -16.39884,0 -29.51931,-13.1205 -29.51931,-29.51943 0,-16.1234 13.12047,-29.51942 29.51931,-29.51942 v 0"
         inkscape:connector-curvature="0" />
      <path
         id="path80"
         style="fill:#000000;fill-opacity:1;fill-rule:evenodd;stroke:none;stroke-width:0.55301809"
         d="m 589.00873,976.01237 c 7.68144,0 13.83102,6.80202 13.83102,14.92583 0,8.3395 -6.14958,14.9205 -13.83102,14.9205 -7.89715,0 -14.04109,-6.581 -14.04109,-14.9205 0,-8.12381 6.14394,-14.92583 14.04109,-14.92583 v 0"
         inkscape:connector-curvature="0" />
      <path
         id="path82"
         style="fill:#000000;fill-opacity:1;fill-rule:evenodd;stroke:none;stroke-width:0.55301809"
         d="m 657.92589,976.01237 c 7.89699,0 14.04657,6.80202 14.04657,14.92583 0,8.3395 -6.14958,14.9205 -14.04657,14.9205 -7.68145,0 -13.82554,-6.581 -13.82554,-14.9205 0,-8.12381 6.14409,-14.92583 13.82554,-14.92583 v 0"
         inkscape:connector-curvature="0" />
      <path
         id="path46-8"
         style="fill:#ffffff;fill-opacity:1;fill-rule:evenodd;stroke:none;stroke-width:0.55301809"
         d="m 509.32508,727.47687 c 0,30.94135 -15.58393,55.96545 -34.45858,55.96545 -19.09569,0 -34.67413,-25.0241 -34.67413,-55.96545 0,-30.94688 15.57844,-55.9654 34.67413,-55.9654 18.87465,0 34.45858,25.01852 34.45858,55.9654 v 0"
         inkscape:connector-curvature="0" />
      <path
         inkscape:connector-curvature="0"
         id="path48-8"
         d="m 501.61834,586.95562 c -21.4917,0.32643 -39.36443,17.06867 -48.86895,35.32875 -20.91579,41.57542 -20.21232,93.73107 3.48028,134.07946 11.44295,18.45458 32.43151,33.47002 54.91797,28.46289 22.19162,-4.97554 37.47463,-24.58608 45.2551,-44.77374 14.41378,-35.54778 13.33521,-76.52154 -1.82194,-111.9891 -9.48533,-21.06493 -28.29839,-41.46446 -52.96246,-41.10826 z m 0.91211,15.20508 c 18.766,0.95164 31.6893,17.80845 38.63475,33.70508 15.25239,35.83885 13.77658,79.29484 -6.41406,112.92188 -7.95875,12.78369 -22.67087,24.6526 -38.62304,20.95508 -18.72635,-4.64976 -29.46494,-23.20112 -35.58593,-40.13086 -12.64916,-35.04759 -9.56103,-76.31729 10.64704,-107.93178 7.14471,-10.34233 18.19208,-19.45551 31.34124,-19.5194 z"
         style="fill:#000000;fill-opacity:1;fill-rule:nonzero;stroke:none;stroke-width:0.90701926" />
      <path
         id="path76-9"
         style="fill:#000000;fill-opacity:1;fill-rule:evenodd;stroke:none;stroke-width:0.68874043"
         d="m 502.67839,659.6639 c 3.82951,0 7.65881,0.81959 10.93716,2.19018 -3.00972,2.18335 -4.91753,5.73724 -4.91753,9.56661 0,6.55685 5.19302,11.74993 11.74993,11.74993 3.82931,0 7.38334,-1.91465 9.56664,-4.91759 1.36467,3.27841 2.19012,7.10779 2.19012,10.9303 0,16.39893 -13.39594,29.51942 -29.52632,29.51942 -16.39885,0 -29.51931,-13.12049 -29.51931,-29.51942 0,-16.1234 13.12046,-29.51943 29.51931,-29.51943 v 0"
         inkscape:connector-curvature="0" />
    </g>
  </g>
</svg>
