<?xml version="1.0" encoding="UTF-8" standalone="no"?>
<svg
   viewBox="0 0 550 440.00001"
   height="440"
   width="550"
   xml:space="preserve"
   id="svg2"
   version="1.1"
   sodipodi:docname="lion.svg"
   inkscape:version="1.3 (0e150ed6c4, 2023-07-21)"
   xmlns:inkscape="http://www.inkscape.org/namespaces/inkscape"
   xmlns:sodipodi="http://sodipodi.sourceforge.net/DTD/sodipodi-0.dtd"
   xmlns="http://www.w3.org/2000/svg"
   xmlns:svg="http://www.w3.org/2000/svg"
   xmlns:rdf="http://www.w3.org/1999/02/22-rdf-syntax-ns#"
   xmlns:cc="http://creativecommons.org/ns#"
   xmlns:dc="http://purl.org/dc/elements/1.1/"><sodipodi:namedview
     id="namedview1"
     pagecolor="#ffffff"
     bordercolor="#000000"
     borderopacity="0.25"
     inkscape:showpageshadow="2"
     inkscape:pageopacity="0.0"
     inkscape:pagecheckerboard="0"
     inkscape:deskcolor="#d1d1d1"
     showgrid="false"
     inkscape:zoom="0.83879974"
     inkscape:cx="271.22088"
     inkscape:cy="268.83652"
     inkscape:window-width="2560"
     inkscape:window-height="1369"
     inkscape:window-x="1072"
     inkscape:window-y="259"
     inkscape:window-maximized="1"
     inkscape:current-layer="svg2" /><metadata
     id="metadata8"><rdf:RDF><cc:Work
         rdf:about=""><dc:format>image/svg+xml</dc:format><dc:type
           rdf:resource="http://purl.org/dc/dcmitype/StillImage" /></cc:Work></rdf:RDF></metadata><defs
     id="defs6" /><g
     id="g1"
     transform="translate(-1189.7136,25.709049)"><path
       id="path566"
       style="fill:#ffffff;fill-opacity:1;fill-rule:evenodd;stroke:none;stroke-width:0.133333"
       d="m 1674.1978,175.68815 c 2.0533,10.05334 -1.3867,16.72 -9.32,18.36134 -7.9867,1.64 -14.12,-3.016 -15.92,-13.12267 -1.3867,-7.93733 5.1333,-17.46267 8.2533,-23.548 4.8133,3.81067 15.5467,11.112 16.9867,18.30933 v 0" /><path
       id="path568"
       style="fill:#000000;fill-opacity:1;fill-rule:nonzero;stroke:none;stroke-width:0.133333"
       d="m 1657.8511,160.40815 c -0.2533,0.45734 -0.5067,0.92667 -0.7733,1.40934 -3.2,5.75066 -7.1734,12.908 -6.16,18.76666 0.8533,4.79467 2.7733,8.32667 5.5466,10.208 2.2134,1.5 4.9067,1.936 8.0134,1.29867 9.2133,-1.90533 8.8133,-10.84267 7.76,-16 0,-0.005 0,-0.009 0,-0.0133 -1.1067,-5.53067 -9.2534,-11.75467 -14.12,-15.47334 -0.093,-0.0667 -0.1734,-0.132 -0.2667,-0.196 z m 3.9867,35.96134 c -2.8134,0 -5.4,-0.76534 -7.6134,-2.268 -3.6933,-2.5 -6.1866,-6.93467 -7.24,-12.82534 -1.2533,-7.25866 3.0934,-15.1 6.6,-21.4 0.6667,-1.22266 1.3067,-2.36666 1.84,-3.40933 0.28,-0.53333 0.7734,-0.91467 1.36,-1.04133 0.5867,-0.128 1.2,0.0147 1.6667,0.38533 0.6133,0.484 1.32,1.024 2.0933,1.61467 5.6534,4.32266 14.2134,10.856 15.6134,17.86533 2.2666,11.096 -1.7867,18.84 -10.8667,20.71733 -1.1867,0.24134 -2.3333,0.36134 -3.4533,0.36134" /><path
       id="path570"
       style="fill:#97632f;fill-opacity:1;fill-rule:nonzero;stroke:none;stroke-width:0.133333"
       d="m 1632.9178,270.45748 c -1.0534,0.15867 -2.12,-0.58266 -2.32,-1.69333 -0.16,-1.11067 0.5733,-2.116 1.6933,-2.328 3.2267,-0.52933 11.3733,-2.328 19.6267,-6.77333 6.1866,-3.28 12.3866,-7.99067 16.56,-14.65734 4.1866,-6.61466 6.3466,-15.292 4.44,-26.50933 -1.16,-7.144 -4.0134,-15.39866 -9.04,-24.81733 -0.5334,-1.00533 -0.16,-2.22267 0.84,-2.752 1.0133,-0.52933 2.2266,-0.15867 2.76,0.84667 5.24,9.84266 8.2,18.468 9.4666,26.08666 2.0667,12.32933 -0.3733,21.90667 -5.0266,29.31467 -4.6,7.356 -11.3734,12.54133 -18.0934,16.08666 -8.7333,4.656 -17.4666,6.61334 -20.9066,7.196 v 0" /><path
       id="path572"
       style="fill:#000000;fill-opacity:1;fill-rule:nonzero;stroke:none;stroke-width:0.133333"
       d="m 1665.7044,192.71349 c 4.8134,9.17466 7.9334,17.732 9.1867,25.45999 1.8133,10.676 0.2267,20.06667 -4.72,27.9 -3.8533,6.14 -9.68,11.308 -17.32,15.356 -9.0667,4.884 -17.7867,6.57734 -20.24,6.98 l 0.013,0.0707 c 1.84,-0.31333 11.0267,-2.05867 20.2534,-6.984 7.6533,-4.03333 13.48,-9.20667 17.3466,-15.38267 4.9334,-7.85733 6.5334,-17.25066 4.7467,-27.92266 -1.2933,-7.79867 -4.4133,-16.36933 -9.2667,-25.47733 z m -32.7866,77.74399 h 0.013 z m -0.28,2.02134 c -1.9067,0 -3.64,-1.39867 -4.0134,-3.34 -0.32,-2.24667 1.1334,-4.25734 3.28,-4.668 2.36,-0.38534 10.5334,-1.97467 19.0667,-6.56934 7.0267,-3.72133 12.3333,-8.41466 15.8133,-13.95866 4.4134,-6.98 5.8134,-15.42667 4.16,-25.11334 -1.1866,-7.30533 -4.16,-15.44666 -8.84,-24.20933 -1.04,-1.98133 -0.28,-4.428 1.68,-5.46266 0.96,-0.504 2.0534,-0.60934 3.08,-0.29467 1.0267,0.316 1.8667,1.01867 2.3734,1.98 5.0533,9.48133 8.3066,18.464 9.68,26.68933 1.9466,11.66667 0.1733,21.99733 -5.3067,30.70667 -4.24,6.77733 -10.5867,12.428 -18.8533,16.79066 -9.5867,5.112 -18.88,6.95734 -21.5067,7.4 -0.013,0.003 -0.027,0.004 -0.04,0.005 -0.1867,0.0293 -0.3867,0.044 -0.5733,0.044" /><path
       id="path574"
       style="fill:#ffffff;fill-opacity:1;fill-rule:evenodd;stroke:none;stroke-width:0.133333"
       d="m 1550.7978,222.41082 -187.6934,91.48933 c 0,0 -3.6933,51.27466 4.1334,52.91466 6.1866,1.26934 37.7333,0 47.1466,0 3.28,0 2.5867,-30.47866 7.9867,-31.16666 8.8933,-1.05867 146.0933,-5.02667 145.2533,1.58667 -0.8,6.61466 -1.4266,29.57999 2.6934,29.57999 4.1333,0 41.12,0 46.88,0 5.7733,0 22.12,-99.16133 12.92,-110.37999 -9.48,-11.53467 -29.7467,-27.14534 -79.32,-34.024 v 0" /><path
       id="path576"
       style="fill:#000000;fill-opacity:1;fill-rule:nonzero;stroke:none;stroke-width:0.133333"
       d="m 1565.6378,336.99748 c 0,0.009 0,0.0173 0,0.0267 0,-0.009 0,-0.0187 0,-0.0267 z m -200.6134,-21.80533 c -1.7466,25.34933 -0.5466,48.412 2.64,49.668 4.2,0.864 22.48,0.44666 34.56,0.17066 4.6134,-0.10533 8.6534,-0.19733 11.36,-0.21333 0.6534,-1.732 1.2534,-6.912 1.6934,-10.79467 1.4,-12.25999 2.48,-19.80399 6.84,-20.35866 4.7866,-0.57067 40.4933,-1.74933 73.8,-2.07467 68.5466,-0.668 71.6133,2.428 72.92,3.752 0.6,0.59867 0.8666,1.36134 0.7733,2.148 -0.9867,8.20534 -0.7867,24.684 1.0933,27.32533 h 45.9067 c 2.1733,-3.112 7.2267,-23.46266 11.0267,-51.80666 3.9733,-29.45467 4.3333,-51.16267 0.9333,-55.304 -13.7467,-16.74667 -39.8133,-27.92533 -77.4533,-33.228 z m 15.16,54.188 c -6.12,0 -11.1333,-0.152 -13.3466,-0.60667 -3.2134,-0.67333 -6.5067,-4.64533 -6.6,-29.02266 -0.053,-12.95067 0.8666,-25.86534 0.88,-25.99467 0.053,-0.712 0.48,-1.34133 1.12,-1.65333 l 187.68,-91.48934 c 0.36,-0.17466 0.76,-0.236 1.16,-0.18266 38.9866,5.40933 66.1066,17.096 80.5866,34.736 5.52,6.72533 2.6667,36.87733 0.48,54.25333 -3.1333,24.86267 -8.0666,49.03866 -11.4666,56.23466 -0.44,0.94534 -1.4934,3.16 -3.48,3.16 h -46.88 c -0.6534,0 -1.6134,-0.20533 -2.48,-1.18266 -3.8534,-4.34267 -2.7734,-24.36133 -2.2934,-29.68 -11.2,-4.43867 -129.9066,-1.792 -142.8133,-0.33333 -1.7067,1.328 -2.8533,11.41466 -3.48,16.85999 -1.12,9.84267 -1.64,14.336 -4.8667,14.336 -2.6266,0 -7,0.0987 -12.0666,0.21467 -7.2134,0.16533 -15.3467,0.35067 -22.1334,0.35067" /><path
       id="path578"
       style="fill:#ffffff;fill-opacity:1;fill-rule:evenodd;stroke:none;stroke-width:0.133333"
       d="m 1562.0644,164.46949 c 0,84.82266 -68.7333,153.55733 -153.56,153.55733 -84.8133,0 -153.6053,-68.73467 -153.6053,-153.55733 0,-84.821336 68.792,-153.605329 153.6053,-153.605329 84.8267,0 153.56,68.783993 153.56,153.605329 v 0" /><path
       id="path580"
       style="fill:#000000;fill-opacity:1;fill-rule:nonzero;stroke:none;stroke-width:0.133333"
       d="m 1408.5044,12.860161 c -83.5866,0 -151.6053,68.011993 -151.6053,151.609329 0,83.56933 68.0187,151.55733 151.6053,151.55733 83.5734,0 151.56,-67.988 151.56,-151.55733 0,-83.597336 -67.9866,-151.609329 -151.56,-151.609329 z m 0,307.166659 c -85.8,0 -155.6053,-69.78267 -155.6053,-155.55733 0,-85.802666 69.8053,-155.6053287 155.6053,-155.6053287 85.7867,0 155.56,69.8026627 155.56,155.6053287 0,85.77466 -69.7733,155.55733 -155.56,155.55733" /><path
       id="path582"
       style="fill:#ffffff;fill-opacity:1;fill-rule:evenodd;stroke:none;stroke-width:0.133333"
       d="m 1343.9578,117.00549 38.5733,-2.96267 c 1.6933,-3.80933 2.3733,-8.14933 1.64,-12.59333 -1.96,-12.011996 -13.6,-22.013336 -25.6133,-20.107996 -12.0134,1.95733 -19.84,15.18666 -17.9334,27.145326 0.52,3.17467 1.6934,6.032 3.3334,8.51867 v 0" /><path
       id="path584"
       style="fill:#000000;fill-opacity:1;fill-rule:nonzero;stroke:none;stroke-width:0.133333"
       d="m 1361.5311,83.108154 c -0.8933,0 -1.7733,0.0693 -2.6533,0.20934 -10.32,1.68133 -18.08,13.52933 -16.28,24.854656 0.4,2.4 1.2133,4.66667 2.4133,6.74667 l 36.1333,-2.776 c 1.2667,-3.336 1.6267,-6.896 1.0534,-10.36533 -1.72,-10.545336 -11.0134,-18.669336 -20.6667,-18.669336 z m -17.5733,35.897336 c -0.6667,0 -1.3067,-0.33467 -1.68,-0.89867 -1.8534,-2.812 -3.0667,-5.93733 -3.6267,-9.29067 -2.1733,-13.639996 6.9733,-27.393326 19.5867,-29.447996 12.64,-2.00666 25.6933,8.16 27.9066,21.758666 0.7734,4.61733 0.1467,9.36667 -1.7866,13.728 -0.2934,0.672 -0.9467,1.12533 -1.68,1.18267 l -38.5734,2.96266 c -0.053,0.004 -0.093,0.005 -0.1466,0.005" /><path
       id="path586"
       style="fill:#ffffff;fill-opacity:1;fill-rule:evenodd;stroke:none;stroke-width:0.133333"
       d="m 1353.2644,114.57215 20.5867,-1.376 c 0.2667,-1.21733 0.2667,-2.48666 0.1067,-3.75733 -0.9467,-5.768 -6.7734,-11.587996 -12.6,-10.635996 -5.76,0.9 -9.4134,8.254666 -8.4667,14.075996 0.1067,0.58133 0.2133,1.164 0.3733,1.69333 v 0" /><path
       id="path588"
       style="fill:#000000;fill-opacity:1;fill-rule:nonzero;stroke:none;stroke-width:0.133333"
       d="m 1362.6244,100.70149 c -0.32,0 -0.6266,0.024 -0.9333,0.076 -2.2267,0.34666 -3.76,1.90133 -4.6667,3.14666 -1.7466,2.41334 -2.5866,5.75334 -2.1733,8.536 l 17.2133,-1.14933 c 0.013,-0.50667 -0.013,-1.04533 -0.093,-1.624 -0.7067,-4.28933 -5.0267,-8.98533 -9.3467,-8.98533 z m -9.36,15.87066 c -0.88,0 -1.6533,-0.57466 -1.9066,-1.42533 -0.2,-0.63067 -0.3067,-1.27067 -0.4267,-1.892 -0.64,-3.912 0.4533,-8.36667 2.8533,-11.67867 1.9067,-2.627996 4.4934,-4.314656 7.2667,-4.749326 7.0533,-1.14533 13.7867,5.658666 14.88,12.286666 0.2133,1.70266 0.1733,3.152 -0.12,4.50666 -0.2,0.87067 -0.9333,1.512 -1.8267,1.57067 l -20.5866,1.376 c -0.04,0.004 -0.08,0.005 -0.1334,0.005" /><path
       id="path590"
       style="fill:#ffffff;fill-opacity:1;fill-rule:evenodd;stroke:none;stroke-width:0.133333"
       d="m 1460.4778,165.95215 12.48,35.82267 c 2.7066,0.58133 5.6133,0.58133 8.5733,0 11.96,-2.328 21.5333,-14.28667 19.16,-26.24533 -2.3333,-11.95867 -15.7733,-19.36667 -27.7333,-16.98534 -5.08,1.00534 -9.4134,3.704 -12.48,7.408 v 0" /><path
       id="path592"
       style="fill:#000000;fill-opacity:1;fill-rule:nonzero;stroke:none;stroke-width:0.133333"
       d="m 1474.4644,200.01615 c 2.1334,0.31867 4.3734,0.25067 6.68,-0.204 5.7067,-1.10933 11.1067,-4.752 14.4534,-9.744 2.96,-4.40933 4.0666,-9.43333 3.1333,-14.148 -0.92,-4.704 -3.84,-8.91333 -8.24,-11.86266 -5.0133,-3.36267 -11.4133,-4.68934 -17.1467,-3.552 -4.08,0.808 -7.8,2.884 -10.6,5.88933 z m 2.68,4.19734 c -1.5733,0 -3.1066,-0.16134 -4.6133,-0.484 -0.68,-0.14667 -1.2267,-0.63867 -1.4667,-1.296 l -12.48,-35.824 c -0.2266,-0.66134 -0.093,-1.39467 0.3467,-1.93334 3.4533,-4.16133 8.2933,-7.036 13.64,-8.09466 6.84,-1.36134 14.1867,0.15333 20.1467,4.15466 5.2933,3.54667 8.8133,8.66534 9.9333,14.41067 1.1467,5.75867 -0.1733,11.852 -3.7333,17.15067 -3.9867,5.94266 -10.1867,10.11333 -17,11.44 -1.6134,0.31733 -3.2134,0.476 -4.7734,0.476" /><path
       id="path594"
       style="fill:#ffffff;fill-opacity:1;fill-rule:evenodd;stroke:none;stroke-width:0.133333"
       d="m 1464.3844,173.09482 6.88,18.944 c 0.64,0 1.2667,-0.0533 1.96,-0.15867 5.7734,-1.164 11.3734,-7.144 10.2134,-12.964 -1.16,-5.71466 -8.6267,-9.15466 -14.4,-7.99066 -1.7334,0.31733 -3.3334,1.11066 -4.6534,2.16933 v 0" /><path
       id="path596"
       style="fill:#000000;fill-opacity:1;fill-rule:nonzero;stroke:none;stroke-width:0.133333"
       d="m 1466.7978,173.86549 5.84,16.07866 c 0.093,-0.012 0.1866,-0.0267 0.28,-0.0413 4.6,-0.93067 9.5066,-5.87467 8.56,-10.59467 -0.9334,-4.576 -7.4,-7.35866 -12.04,-6.42266 -0.92,0.168 -1.8134,0.5 -2.64,0.98 z m 4.4666,20.17333 c -0.84,0 -1.5866,-0.52667 -1.88,-1.31733 l -6.88,-18.944 c -0.2933,-0.80667 -0.04,-1.70934 0.64,-2.244 1.6534,-1.32667 3.5734,-2.216 5.5467,-2.57467 6.5333,-1.32267 15.28,2.56267 16.7067,9.55733 1.4266,7.12534 -5.04,13.96534 -11.7734,15.324 -0.8933,0.13867 -1.6266,0.19867 -2.36,0.19867" /><path
       id="path598"
       style="fill:#ffffff;fill-opacity:1;fill-rule:evenodd;stroke:none;stroke-width:0.133333"
       d="m 1305.7444,197.54149 108.64,73.23333 c 19.84,-1.852 37.36,-10.688 48.2534,-26.24534 22.92,-32.75466 7.9466,-82.70533 -33.3867,-111.64933 -41.32,-28.944 -93.44,-25.87466 -116.3067,6.82534 -11.5866,16.50933 -13.4906,37.464 -7.2,57.836 v 0" /><path
       id="path600"
       style="fill:#000000;fill-opacity:1;fill-rule:nonzero;stroke:none;stroke-width:0.133333"
       d="m 1307.4511,196.28015 107.4533,72.43333 c 19.6934,-2.01066 36.0534,-10.98933 46.0934,-25.332 22.2266,-31.76133 7.4666,-80.59733 -32.8934,-108.86399 -19.6133,-13.74 -42.28,-20.616 -63.8133,-19.344 -21.36,1.25466 -39.0133,10.37333 -49.7067,25.67866 -10.7466,15.31067 -13.2666,34.96934 -7.1333,55.428 z m 106.9333,76.49467 c -0.4,0 -0.7866,-0.11867 -1.12,-0.34134 l -108.6266,-73.23333 c -0.3867,-0.256 -0.6667,-0.632 -0.8,-1.068 -6.7694,-21.908 -4.116,-43.06533 7.4666,-59.57466 11.4134,-16.32534 30.1467,-26.04934 52.7467,-27.37734 22.4267,-1.324 46,5.80667 66.3467,20.06134 42.16,29.53066 57.36,80.86533 33.88,114.43466 -10.8534,15.49067 -28.5067,25.112 -49.7067,27.09067 -0.067,0.005 -0.12,0.008 -0.1867,0.008" /><path
       id="path602"
       style="fill:#ffffff;fill-opacity:1;fill-rule:evenodd;stroke:none;stroke-width:0.133333"
       d="m 1360.8378,197.64682 36.7733,26.828 c 16.6133,18.36133 22.96,38.94533 14.1333,51.592 -11.7066,16.72 -45.4133,13.28133 -75.36,-7.67334 -29.84,-20.95333 -44.656,-51.432 -32.96,-68.15333 9.4134,-13.388 32.96,-13.81066 57.4134,-2.59333 v 0" /><path
       id="path604"
       style="fill:#000000;fill-opacity:1;fill-rule:nonzero;stroke:none;stroke-width:0.133333"
       d="m 1328.3711,191.62815 c -10.4267,0 -18.7467,3.27334 -23.3067,9.76267 -11.0133,15.73733 3.56,45.06266 32.4667,65.36666 14.2133,9.94134 29.6933,16.196 43.5867,17.612 13.4666,1.37067 23.76,-1.984 28.9866,-9.44933 7.9067,-11.32933 2.3467,-30.984 -13.84,-48.95067 l -36.44,-26.58799 c -11.36,-5.18267 -22.2266,-7.75334 -31.4533,-7.75334 z m 58.44,97.04133 c -1.96,0 -4,-0.10666 -6.1067,-0.32133 -14.56,-1.48267 -30.7066,-7.988 -45.4666,-18.316 -30.72,-21.57067 -45.7267,-53.392 -33.4534,-70.93866 9.7734,-13.90267 33.84,-15.212 59.88,-3.264 0.12,0.0547 0.24,0.12266 0.3467,0.20133 l 36.7733,26.828 c 0.12,0.0813 0.2134,0.17333 0.3067,0.27466 17.8533,19.72534 23.4533,40.952 14.28,54.07867 -5.2267,7.484 -14.5333,11.45733 -26.56,11.45733" /><path
       id="path606"
       style="fill:#ffffff;fill-opacity:1;fill-rule:evenodd;stroke:none;stroke-width:0.133333"
       d="m 1370.6778,235.42815 c -5.1334,2.01067 -11.3734,-2.328 -11.2134,-7.884 l 0.36,-13.652 0.4267,-13.70533 c 0.16,-5.50267 6.56,-8.04267 11.5333,-4.55067 l 12.3334,8.62534 12.3333,8.62533 c 4.9733,3.492 4.8133,10.37066 -0.3733,12.43466 l -12.7067,5.02667 -12.6933,5.08" /><path
       id="path608"
       style="fill:#000000;fill-opacity:1;fill-rule:nonzero;stroke:none;stroke-width:0.133333"
       d="m 1366.8911,196.03482 c -0.8133,0 -1.6133,0.176 -2.3333,0.53733 -0.8267,0.41867 -2.24,1.45334 -2.3067,3.67334 l -0.8,27.35333 c -0.053,1.92533 0.9867,3.82266 2.76,5.07733 1.8,1.25867 3.9333,1.592 5.7333,0.892 l 25.4,-10.10667 c 2.0934,-0.83333 2.5867,-2.52133 2.6934,-3.45333 0.24,-2.028 -0.8134,-4.12933 -2.7467,-5.48533 l -24.6533,-17.248 c -1.16,-0.81867 -2.48,-1.24 -3.7467,-1.24 z m 3.7867,39.39333 h 0.013 z m -2.6934,2.5 c -2.08,0 -4.2133,-0.67467 -6.0666,-1.98 -2.88,-2.02933 -4.5467,-5.192 -4.4534,-8.46 l 0.7867,-27.36266 c 0.093,-3.08934 1.7733,-5.756 4.52,-7.12934 3.1467,-1.57733 7.04,-1.192 10.16,1.004 l 24.6667,17.248 c 3.1333,2.20267 4.8266,5.73733 4.4133,9.22667 -0.36,3.044 -2.2933,5.552 -5.2,6.70533 l -25.3867,10.10533 c -0.013,0.001 -0.013,0.004 -0.013,0.005 -1.0933,0.42666 -2.2533,0.63733 -3.4267,0.63733" /><path
       id="path610"
       style="fill:#221d1d;fill-opacity:1;fill-rule:evenodd;stroke:none;stroke-width:0.133333"
       d="m 1363.4778,236.48682 c -1.64,0.476 -3.1734,1.48133 -4.3867,2.64533 0.68,-1.428 1.2133,-3.12133 1.2667,-4.868 1.3733,0.476 2.3866,1.164 3.12,2.22267 v 0" /><path
       id="path612"
       style="fill:#000000;fill-opacity:1;fill-rule:nonzero;stroke:none;stroke-width:0.133333"
       d="m 1359.0911,241.13215 c -0.4133,0 -0.8267,-0.12533 -1.1733,-0.38267 -0.7867,-0.568 -1.0534,-1.61466 -0.6267,-2.48533 0.4533,-0.96 1.0133,-2.444 1.0667,-4.06 0.027,-0.636 0.3466,-1.22533 0.8666,-1.58667 0.52,-0.36 1.1867,-0.45066 1.7867,-0.24266 1.8,0.62266 3.1467,1.59333 4.1067,2.96533 0.3733,0.528 0.4666,1.20267 0.2533,1.81067 -0.2133,0.608 -0.72,1.076 -1.3333,1.256 -1.2,0.34933 -2.4667,1.12 -3.5734,2.17066 -0.3733,0.36667 -0.88,0.55467 -1.3733,0.55467" /><path
       id="path614"
       style="fill:#000000;fill-opacity:1;fill-rule:nonzero;stroke:none;stroke-width:0.133333"
       d="m 1328.2378,210.17749 c -0.84,0 -1.6267,-0.53734 -1.9067,-1.38267 -1.92,-5.94533 -19.9067,-39.71733 -53.136,-46.224 -1.084,-0.21333 -1.792,-1.264 -1.5787,-2.348 0.212,-1.084 1.2587,-1.79333 2.3467,-1.57867 39.168,7.67067 56.048,48.51067 56.1813,48.916 0.3334,1.05067 -0.24,2.17867 -1.2933,2.51867 -0.2,0.0667 -0.4133,0.0987 -0.6133,0.0987 z m -8.5734,6.13866 c -0.72,0 -1.4133,-0.392 -1.7733,-1.076 l -0.24,-0.46267 c -8.6933,-17.05733 -25.476,-28.01733 -47.2427,-30.86266 -1.0946,-0.144 -1.8666,-1.148 -1.724,-2.24267 0.144,-1.09466 1.1467,-1.87066 2.2427,-1.724 23.1133,3.02134 40.9773,14.744 50.2973,33.012 l 0.2134,0.42933 c 0.5066,0.98 0.1333,2.188 -0.84,2.69867 -0.3067,0.15333 -0.6134,0.228 -0.9334,0.228 z m -8.3066,6.61333 c -0.5467,0 -1.08,-0.21866 -1.48,-0.65066 -0.2267,-0.26 -0.5334,-0.62267 -0.9067,-1.068 -3.9067,-4.69867 -15.7947,-19 -40.4787,-12.32 -1.0666,0.28933 -2.1653,-0.34133 -2.4533,-1.408 -0.2893,-1.06667 0.3413,-2.164 1.408,-2.45333 18.0267,-4.88134 33.032,-0.29467 44.604,13.62533 0.32,0.38533 0.5733,0.7 0.7867,0.92533 0.7466,0.816 0.68,2.08 -0.1334,2.82533 -0.3733,0.35067 -0.8666,0.524 -1.3466,0.524 z m 147.9466,67.88934 c -0.6666,10e-4 -1.3333,-0.34534 -1.7066,-0.96934 -19.1334,-31.76533 -60.92,-34.11466 -61.6,-34.11466 -0.04,0.005 -0.053,10e-4 -0.08,10e-4 -1.0667,0 -1.96,-0.84533 -2,-1.92267 -0.04,-1.104 0.8133,-2.03333 1.92,-2.076 6.6133,-0.24 46.68,5.31867 65.1866,36.05067 0.56,0.94533 0.2667,2.17467 -0.68,2.744 -0.3333,0.19467 -0.68,0.28667 -1.04,0.28667 z m -19.04,10.05466 c -0.7333,0 -1.4266,-0.39466 -1.7866,-1.08133 -10.12,-19.54533 -26.1734,-31.568 -45.2,-33.85333 l -0.4667,-0.0587 c -1.1067,-0.14 -1.88,-1.14133 -1.7333,-2.23733 0.1333,-1.09734 1.1333,-1.87067 2.24,-1.73067 l 0.44,0.0547 c 20.3733,2.448 37.52,15.228 48.28,35.98533 0.5066,0.98133 0.12,2.188 -0.8534,2.696 -0.3066,0.152 -0.6133,0.22533 -0.92,0.22533 z m -22.6,11.05867 c -1.0266,0 -1.9066,-0.78933 -1.9866,-1.83333 -2.1334,-25.43334 -19.6267,-31.73067 -25.3867,-33.80134 -0.5467,-0.2 -1,-0.364 -1.3333,-0.50133 -1.0267,-0.42533 -1.5067,-1.596 -1.08,-2.61467 0.4266,-1.02 1.6,-1.50266 2.6133,-1.07866 0.2933,0.11866 0.68,0.25866 1.16,0.432 6.3467,2.28533 25.6667,9.23733 28,37.23066 0.093,1.1 -0.72,2.06667 -1.8267,2.15867 -0.053,0.005 -0.1066,0.008 -0.16,0.008" /><path
       id="path616"
       style="fill:#ffffff;fill-opacity:1;fill-rule:evenodd;stroke:none;stroke-width:0.133333"
       d="m 1378.1844,169.02015 c -3.5333,5.08 -8.6666,7.67334 -11.3733,5.768 -2.7467,-1.90533 -2.0667,-7.56666 1.5333,-12.7 3.5467,-5.07866 8.6267,-7.672 11.3867,-5.76666 2.6933,1.95733 2,7.61866 -1.5467,12.69866 v 0" /><path
       id="path618"
       style="fill:#000000;fill-opacity:1;fill-rule:nonzero;stroke:none;stroke-width:0.133333"
       d="m 1377.5978,157.69349 c -1.7734,0 -4.96,1.748 -7.6134,5.54 -2.08,2.97333 -3.1733,6.30666 -2.7866,8.496 0.12,0.67866 0.3733,1.15333 0.76,1.41466 0.4533,0.32667 1.1066,0.296 1.5733,0.21467 2.2133,-0.388 4.96,-2.53867 7.0133,-5.48267 v 0 c 3.28,-4.684 3.3734,-8.94266 2,-9.936 -0.2266,-0.16266 -0.5466,-0.24666 -0.9466,-0.24666 z m -8.6667,19.72 c -1.2267,0 -2.3467,-0.33467 -3.2667,-0.99067 -1.2533,-0.86667 -2.0933,-2.24933 -2.4,-3.98933 -0.5866,-3.28134 0.7067,-7.57867 3.44,-11.49334 4.32,-6.172 10.4,-8.86533 14.16,-6.26266 3.72,2.69466 3.2534,9.34266 -1.04,15.488 -2.6666,3.82933 -6.3466,6.56266 -9.6133,7.13333 -0.4267,0.0773 -0.8533,0.11467 -1.28,0.11467" /><path
       id="path620"
       style="fill:#ffffff;fill-opacity:1;fill-rule:evenodd;stroke:none;stroke-width:0.133333"
       d="m 1428.6111,205.32015 c -3.5333,5.08 -8.6667,7.672 -11.3733,5.768 -2.7467,-1.90533 -2.0667,-7.568 1.5333,-12.64666 3.5467,-5.08 8.6267,-7.67334 11.3867,-5.768 2.6933,1.90533 2,7.56666 -1.5467,12.64666 v 0" /><path
       id="path622"
       style="fill:#000000;fill-opacity:1;fill-rule:nonzero;stroke:none;stroke-width:0.133333"
       d="m 1428.6111,205.32015 h 0.013 z m -0.5867,-11.26533 c -1.7866,0 -4.9733,1.748 -7.6133,5.53067 -2.08,2.94 -3.1733,6.24533 -2.7867,8.43333 0.12,0.684 0.3734,1.16267 0.76,1.424 0.4534,0.32667 1.1067,0.29733 1.5734,0.21467 2.2133,-0.38667 4.96,-2.53867 7.0266,-5.48267 3.2134,-4.61867 3.3467,-8.92933 2.0134,-9.868 -0.24,-0.16667 -0.5734,-0.252 -0.9734,-0.252 z m -8.6666,19.65866 c -1.2267,0 -2.3467,-0.336 -3.2667,-0.992 -1.2533,-0.86933 -2.0933,-2.25866 -2.4,-4.00799 -0.5867,-3.28534 0.7067,-7.55734 3.4533,-11.428 4.3067,-6.16267 10.3867,-8.85734 14.1467,-6.25734 3.72,2.63067 3.28,9.26267 -1.04,15.436 v 0 c -2.6667,3.83067 -6.3467,6.564 -9.6,7.13467 -0.44,0.076 -0.8667,0.11466 -1.2933,0.11466" /><path
       id="path624"
       style="fill:#000000;fill-opacity:1;fill-rule:evenodd;stroke:none;stroke-width:0.133333"
       d="m 1376.7578,165.42282 c 0.16,0.52933 0.2133,1.05733 0.16,1.58667 -0.4267,-0.31734 -0.9467,-0.42267 -1.5334,-0.21067 -0.8933,0.264 -1.3733,1.216 -1.0533,2.116 0.16,0.52933 0.5733,0.952 1.1067,1.11067 -0.4267,0.31733 -0.8934,0.58266 -1.4267,0.79466 -2.2267,0.688 -4.6,-0.47733 -5.3467,-2.69866 -0.7333,-2.276 0.48,-4.65734 2.6934,-5.39734 2.2266,-0.74133 4.6666,0.476 5.4,2.69867 v 0" /><path
       id="path626"
       style="fill:#000000;fill-opacity:1;fill-rule:evenodd;stroke:none;stroke-width:0.133333"
       d="m 1427.3444,201.35082 c 0.16,0.52933 0.2134,1.05867 0.2134,1.588 -0.4267,-0.31733 -1,-0.424 -1.5334,-0.212 -0.8933,0.26533 -1.3733,1.21733 -1.1066,2.11733 0.2133,0.528 0.6266,0.952 1.1066,1.11067 -0.3733,0.31733 -0.84,0.58267 -1.3733,0.79333 -2.2267,0.688 -4.6533,-0.476 -5.4,-2.75066 -0.6933,-2.22267 0.48,-4.604 2.6933,-5.34534 2.28,-0.74 4.6667,0.47734 5.4,2.69867 v 0" /><path
       id="path628"
       style="fill:#000000;fill-opacity:1;fill-rule:nonzero;stroke:none;stroke-width:0.133333"
       d="m 1367.8111,257.80948 c -0.1867,0 -0.36,-0.004 -0.5467,-0.0107 -4.0133,-0.11867 -7.7733,-2.20934 -10.0533,-5.59067 -1.52,-2.08933 -2.3067,-4.79467 -2.1867,-7.556 0.013,-0.22533 0.027,-0.452 0.04,-0.67867 -1.32,0.40934 -2.72,0.59867 -4.1466,0.544 -1.5067,-0.0653 -2.8534,-0.33333 -4.1334,-0.81733 -5.0666,-1.924 -8.3466,-6.87067 -8.16,-12.308 0.12,-2.80267 0.32,-3.92533 0.8667,-4.824 0.56,-0.948 1.8,-1.25467 2.7467,-0.68667 0.9333,0.56667 1.24,1.78534 0.6933,2.73067 -0.08,0.17067 -0.2133,0.78133 -0.3067,2.936 -0.1333,3.70667 2.12,7.096 5.5867,8.41333 0.8667,0.33067 1.8,0.51334 2.8667,0.55867 2.2266,0.08 4.3733,-0.708 6.0266,-2.22533 0.72,-0.672 1.84,-0.70667 2.6134,-0.0827 0.76,0.62533 0.96,1.72133 0.4533,2.57333 -0.6933,1.18267 -1.1067,2.608 -1.1467,4.01334 -0.08,1.89066 0.44,3.69733 1.4667,5.116 1.6267,2.408 4.1333,3.80266 6.9067,3.88533 2.9066,0.10933 4.6133,-1.04267 5.9733,-1.97333 0.2267,-0.14667 0.4267,-0.284 0.6133,-0.408 0.9334,-0.59734 2.1734,-0.328 2.76,0.60133 0.6,0.92933 0.3334,2.16667 -0.6,2.764 -0.16,0.10533 -0.3333,0.22533 -0.52,0.352 -1.4933,1.01067 -3.9333,2.67333 -7.8133,2.67333" /><path
       id="path630"
       style="fill:#ffffff;fill-opacity:1;fill-rule:evenodd;stroke:none;stroke-width:0.133333"
       d="m 1359.4111,252.30815 0.1067,-0.37067 c -0.2667,-0.26533 -0.4267,-0.52933 -0.64,-0.84666 -1.2667,-1.74667 -1.96,-3.968 -1.8534,-6.34934 0.053,-1.8 0.5867,-3.54533 1.4267,-4.97466 -1.96,1.8 -4.6,2.85733 -7.4533,2.752 -1.2267,-0.0533 -2.3867,-0.26534 -3.4934,-0.688 -0.2133,-0.10534 -0.48,-0.212 -0.7466,-0.31734 l -0.1067,0.0533 c -0.2667,7.14266 5.24,12.54 12.76,10.74133 v 0" /><path
       id="path632"
       style="fill:#000000;fill-opacity:1;fill-rule:nonzero;stroke:none;stroke-width:0.133333"
       d="m 1348.8778,244.28815 c 0.4133,1.9 1.3733,3.53733 2.7733,4.68267 1.28,1.052 2.8667,1.62 4.6267,1.67733 -0.9067,-1.796 -1.3467,-3.87867 -1.2534,-5.996 0.013,-0.22533 0.027,-0.452 0.04,-0.67867 -1.32,0.40934 -2.72,0.59867 -4.1466,0.544 -0.7067,-0.0307 -1.3867,-0.10666 -2.04,-0.22933 z m 10.5333,8.02 h 0.013 z m -2.8667,2.34933 c -2.7866,0 -5.3466,-0.88133 -7.4266,-2.592 -3,-2.45066 -4.6267,-6.304 -4.4667,-10.57333 0.027,-0.732 0.4533,-1.39067 1.1067,-1.71733 0.52,-0.25334 1.2133,-0.33067 1.7466,-0.11867 0.2667,0.11067 0.5467,0.22267 0.7867,0.33333 0.84,0.31334 1.76,0.48667 2.7867,0.53067 2.2266,0.08 4.3733,-0.708 6.0266,-2.22533 0.72,-0.672 1.84,-0.70667 2.6134,-0.0827 0.76,0.62533 0.96,1.72133 0.4533,2.57333 -0.6933,1.18267 -1.1067,2.608 -1.1467,4.01334 -0.08,1.89066 0.44,3.69733 1.4667,5.116 l 0.1467,0.21333 c 0.1333,0.21067 0.2133,0.316 0.28,0.39333 0.52,0.51467 0.72,1.26667 0.52,1.96667 l -0.1067,0.37067 c -0.2,0.69333 -0.76,1.22666 -1.4667,1.39466 -1.12,0.27067 -2.24,0.404 -3.32,0.404" /></g></svg>
