<?xml version="1.0" encoding="UTF-8" standalone="no"?>
<!-- Generator: Adobe Illustrator 27.5.0, SVG Export Plug-In . SVG Version: 6.00 Build 0)  -->

<svg
   version="1.1"
   x="0px"
   y="0px"
   viewBox="0 0 500 499.999"
   style="enable-background:new 0 0 500 499.999;"
   xml:space="preserve"
   id="svg15"
   sodipodi:docname="lion3.svg"
   inkscape:version="1.3 (0e150ed6c4, 2023-07-21)"
   xmlns:inkscape="http://www.inkscape.org/namespaces/inkscape"
   xmlns:sodipodi="http://sodipodi.sourceforge.net/DTD/sodipodi-0.dtd"
   xmlns="http://www.w3.org/2000/svg"
   xmlns:svg="http://www.w3.org/2000/svg"><defs
   id="defs15" /><sodipodi:namedview
   id="namedview15"
   pagecolor="#ffffff"
   bordercolor="#000000"
   borderopacity="0.25"
   inkscape:showpageshadow="2"
   inkscape:pageopacity="0.0"
   inkscape:pagecheckerboard="0"
   inkscape:deskcolor="#d1d1d1"
   inkscape:zoom="0.80398203"
   inkscape:cx="150.50088"
   inkscape:cy="229.48274"
   inkscape:window-width="2560"
   inkscape:window-height="1351"
   inkscape:window-x="1191"
   inkscape:window-y="187"
   inkscape:window-maximized="1"
   inkscape:current-layer="svg15" />&#10;<g
   id="BACKGROUND">&#10;	<g
   id="g1">&#10;		<rect
   x="0"
   y="-0.001"
   style="fill-rule:evenodd;clip-rule:evenodd;fill:#FFFFFF;"
   width="500"
   height="499.999"
   id="rect1" />&#10;	</g>&#10;</g>&#10;<g
   id="OBJECTS">&#10;	<g
   id="g15">&#10;		<path
   d="M202.967,230.915c0.525,2.226,2.949,9.295,13.241,15.112c7.862,4.443,12.526,5.376,15.054,5.376    c0.292,0,0.548-0.013,0.772-0.033c3.454,3.022,19.671,16.487,35.886,17.877c3.097,0.266,6.108,0.4,8.947,0.4    c14.891,0,22.189-3.58,25.211-5.714c7.1-5.011,11.15-10.656,12.503-12.741c4.683-0.365,24.949-2.78,31.583-17.469    c6.987-15.472,10.383-24.098,4.998-35.944c-4.121-9.066-7.297-12.604-8.541-13.752c-0.897-3.381-5.925-22.127-10.897-36.593    c-2.927-8.514-13.922-36.394-32.534-37.677c-0.716-0.049-1.434-0.074-2.131-0.074c-10.628,0-16.297,5.614-18.47,8.425    c-3.829-2.405-14.311-8.502-22.139-8.502c-0.76,0-1.489,0.057-2.168,0.17c-11.311,1.885-24.175,6.869-33.823,29.541    c-9.108,21.404-13.323,39.34-14.003,42.374c-1.955,2.288-12.157,14.801-12.635,27.244    C193.354,221.074,200.943,229.02,202.967,230.915z M300.06,261.074c-2.161,1.525-8.747,5.073-23.192,5.073    c-2.74,0-5.65-0.13-8.648-0.387c-15.072-1.292-30.883-14.425-33.937-17.079c-0.034-0.18-0.088-0.359-0.182-0.528    c-6.922-12.46-1.702-22.906-1.476-23.345c0.444-0.856,0.111-1.91-0.744-2.357c-0.859-0.448-1.914-0.114-2.361,0.742    c-0.052,0.099-0.328,0.645-0.678,1.557c0.462-7.942,5.442-13.48,5.514-13.559c0.655-0.708,0.614-1.814-0.094-2.471    c-0.709-0.658-1.816-0.617-2.473,0.091c-0.142,0.152-1.854,2.033-3.484,5.173c0.058-1.211,0.877-6.302,9.915-14.161    c8.633-7.509,16.179-3.919,18.52-2.46c-1.227,1.726-1.53,4.08-0.877,7.019c2.228,10.026,6.334,15.215,13.315,16.826    c2.401,0.554,5.267,0.913,8.098,1.031c-0.021,0.18-0.045,0.392-0.068,0.656c-0.258,1.944-0.99,6.356-2.769,10.98    c-1.87,4.862-13.255,5.986-24.857,2.454c-2.655-0.808-4.418-2.183-5.241-4.086c-1.666-3.853,0.746-8.853,0.797-8.958    c0.431-0.864,0.08-1.914-0.784-2.346c-0.866-0.431-1.916-0.081-2.348,0.783c-0.131,0.264-3.198,6.512-0.887,11.891    c1.247,2.901,3.751,4.942,7.442,6.066c11.89,3.618,26.143,3.255,29.143-4.546c0.225-0.583,0.433-1.162,0.627-1.731    c0.451,1.233,1.056,2.427,1.86,3.501c1.84,2.456,4.415,3.915,7.653,4.337c3.175,0.414,6.488,0.658,9.693,0.658    c8.586,0,16.391-1.751,18.626-6.669c2.859-6.291-0.953-12.406-1.116-12.664c-0.52-0.816-1.604-1.056-2.416-0.537    c-0.815,0.519-1.056,1.601-0.537,2.416c0.03,0.047,2.967,4.753,0.883,9.336c-1.792,3.943-12.171,5.623-24.68,3.989    c-2.296-0.299-4.029-1.267-5.3-2.958c-2.674-3.561-2.503-9.27-2.307-11.55c0.064-0.492,0.099-0.836,0.114-1.004    c4.76-0.164,10.479-1.152,13.566-4.582c3.773-4.193,6.389-11.814,5.71-16.642c-0.109-0.78-0.302-1.429-0.535-1.988    c4.488-0.984,14.12-2.299,19.866,2.771c3.438,3.034,5.079,5.818,5.854,7.972c-0.822-0.795-1.718-1.539-2.697-2.221    c-0.793-0.552-1.884-0.357-2.436,0.437c-0.552,0.793-0.356,1.884,0.437,2.436c5.335,3.712,7.835,9.364,7.361,16.476    c-0.401-0.502-1.059-0.769-1.729-0.623c-0.944,0.202-1.547,1.132-1.344,2.078c2.668,12.453-11.433,19.266-12.034,19.55    c-0.036,0.017-0.066,0.042-0.102,0.061c-0.038,0.021-0.074,0.042-0.109,0.066c-0.089,0.058-0.169,0.122-0.243,0.192    c-0.022,0.021-0.046,0.039-0.066,0.061c-0.095,0.1-0.178,0.207-0.246,0.324c-0.002,0.003-0.005,0.006-0.007,0.009    C312.013,248.701,308.108,255.393,300.06,261.074z M279.257,218.786h-0.001c-3.188,0-6.575-0.36-9.293-0.987    c-5.567-1.285-8.763-5.524-10.685-14.174c-0.447-2.011-0.316-3.476,0.388-4.354c1.102-1.373,3.714-1.55,5.866-1.55    c0.484,0,0.953,0.009,1.393,0.018c0.409,0.008,0.794,0.015,1.146,0.015c0.688,0,1.81-0.042,3.225-0.095    c2.353-0.088,5.573-0.209,8.934-0.209c7.315,0,11.353,0.588,13.586,1.267c0.348,0.358,0.842,0.559,1.373,0.524    c0.169,0.083,0.324,0.165,0.454,0.247c0.622,0.389,0.872,1.32,0.973,2.033c0.536,3.815-1.773,10.399-4.846,13.813    C289.793,217.528,285.233,218.786,279.257,218.786z M280.228,193.95c-3.426,0-6.685,0.123-9.064,0.212    c-1.359,0.051-2.436,0.092-3.095,0.092c-0.331,0-0.692-0.007-1.077-0.015c-1.797-0.035-4.065-0.07-6.124,0.471    c0.911-4.335,1.679-12.274,2.542-21.201c0.751-7.761,1.527-15.786,2.383-20.706c1.534-8.821,5.445-8.72,10.858-8.582    c0.641,0.017,1.282,0.033,1.918,0.033c6.155,0,8.534,10.855,9.271,15.523c1.2,7.602,4.04,27.646,5.093,35.113    C289.872,194.255,285.702,193.95,280.228,193.95z M209.378,183.666c0.202-0.227,0.341-0.504,0.404-0.802    c0.039-0.188,4.079-19.1,13.898-42.175c8.961-21.059,20.28-25.643,31.177-27.459c0.489-0.082,1.025-0.123,1.593-0.123    c8.47,0,21.507,8.757,21.638,8.846c0.407,0.275,0.912,0.366,1.391,0.252c0.479-0.115,0.887-0.427,1.124-0.858    c0.045-0.082,4.626-8.164,16.456-8.164c0.618,0,1.254,0.022,1.89,0.066c13.083,0.902,23.799,18.838,29.466,35.323    c5.415,15.752,10.907,36.665,10.962,36.874c0.099,0.377,0.343,0.727,0.653,0.964c0.032,0.025,3.303,2.601,7.946,12.817    c4.551,10.01,2.242,17.016-5.001,33.056c-4.129,9.143-14.899,12.91-22.214,14.444c3.493-3.015,7.216-7.56,7.837-13.542    c0.128,0.036,0.26,0.061,0.398,0.067c0.024,0.001,0.05,0.002,0.074,0.002c0.904,0,1.66-0.692,1.741-1.591    c0.013-0.074,0.035-0.184,0.064-0.328c1.213-6.171,0.602-11.69-1.689-16.227c0.027-0.072,0.071-0.134,0.089-0.211    c0.07-0.307,1.629-7.609-7.548-15.706c-8.152-7.194-21.653-4.001-24.96-3.072c-0.043-0.021-0.089-0.042-0.134-0.064    c-0.775-5.509-4.024-28.528-5.335-36.826c-1.882-11.915-6.402-18.477-12.728-18.477c-0.607,0-1.218-0.016-1.828-0.032    c-5.5-0.141-12.345-0.316-14.396,11.482c-0.878,5.05-1.661,13.143-2.418,20.968c-0.752,7.772-1.586,16.4-2.439,20.635    c-3.858-1.969-12.361-4.628-21.566,3.376c-11.896,10.344-11.197,16.895-11.078,17.608c0.143,0.859,0.892,1.487,1.736,1.487    c0.093,0,0.187-0.008,0.282-0.023c0.164-0.027,0.315-0.083,0.458-0.149c-1.244,2.972-2.212,6.707-1.998,10.986    c0.047,0.936,0.82,1.663,1.747,1.663c0.029,0,0.059-0.001,0.089-0.002c0.191-0.01,0.37-0.057,0.538-0.122    c-0.983,4.521-1.337,11.441,2.3,19.172c-2.033-0.284-5.872-1.321-12.065-4.821c-10.483-5.925-11.585-12.913-11.625-13.194    c-0.054-0.435-0.273-0.835-0.607-1.119c-0.088-0.075-8.841-7.65-8.381-19.596C197.788,196.862,209.262,183.796,209.378,183.666z"
   id="path1" />&#10;		<path
   d="M290.778,245.871c-0.841-0.474-1.909-0.176-2.384,0.666c-1.728,3.069-3.855,4.097-5.617,4.331    c0.095-0.085,0.191-0.154,0.286-0.242c0.706-0.66,0.744-1.767,0.084-2.473c-0.658-0.706-1.766-0.745-2.473-0.084    c-5.775,5.392-12.418,1.75-12.714,1.584c-0.837-0.477-1.903-0.189-2.385,0.646c-0.482,0.838-0.193,1.908,0.644,2.39    c1.548,0.891,4.175,1.803,7.181,1.803c1.501,0,3.097-0.233,4.699-0.805c0.966,0.411,2.283,0.736,3.777,0.736    c3.085,0,6.867-1.373,9.567-6.168C291.919,247.412,291.62,246.345,290.778,245.871z"
   id="path2" />&#10;		<path
   d="M377.567,365.754c0.099,0,0.198-0.009,0.299-0.026c0.158-0.027,15.821-2.899,17.443-18.038    c0.102-0.961-0.593-1.824-1.554-1.927c-0.969-0.104-1.824,0.593-1.927,1.554c-1.335,12.463-13.981,14.86-14.559,14.962    c-0.952,0.165-1.59,1.07-1.426,2.022C375.991,365.153,376.731,365.754,377.567,365.754z"
   id="path3" />&#10;		<path
   d="M366.988,379.645c0.003,0,0.006,0,0.009,0c0.408-0.002,10.091-0.148,17.963-8.807c0.65-0.715,0.598-1.822-0.117-2.472    c-0.716-0.65-1.821-0.598-2.473,0.118c-6.783,7.462-15.271,7.659-15.395,7.661c-0.965,0.008-1.742,0.794-1.737,1.759    C365.243,378.867,366.025,379.645,366.988,379.645z"
   id="path4" />&#10;		<path
   d="M241.576,165.683c2.069,0.609,3.974,0.917,5.661,0.917h0c3.11,0,5.397-1.095,6.275-3.004    c0.748-1.626,0.342-3.533-1.114-5.231c-0.123-0.143-0.267-0.265-0.428-0.362c-0.483-0.29-11.905-7.099-18.289-7.099    c-2.722,0-4.01,1.196-4.612,2.199c-1.088,1.814-1.32,3.553-0.689,5.169C229.681,161.607,234.204,163.515,241.576,165.683z     M232.07,154.904c0.248-0.414,1.013-0.5,1.611-0.5c4.373,0,12.944,4.509,16.226,6.444c0.394,0.521,0.556,1.001,0.425,1.285    c-0.214,0.465-1.274,0.966-3.095,0.966c-1.353,0-2.925-0.261-4.674-0.775c-3.243-0.954-9.992-2.939-10.923-5.326    C231.5,156.641,231.392,156.034,232.07,154.904z"
   id="path5" />&#10;		<path
   d="M306.696,167.6c1.736,0,3.699-0.307,5.834-0.913c7.674-2.177,12.372-4.097,13.675-7.469    c0.624-1.612,0.373-3.341-0.745-5.139c-0.617-0.993-1.936-2.175-4.712-2.175c-6.585,0-18.401,6.796-18.901,7.085    c-0.162,0.094-0.308,0.212-0.432,0.352c-1.488,1.676-1.924,3.569-1.193,5.195C301.097,166.483,303.456,167.6,306.696,167.6z     M303.863,161.867c3.4-1.937,12.315-6.463,16.885-6.463c0.528,0,1.456,0.068,1.74,0.524c0.684,1.1,0.586,1.684,0.453,2.028    c-0.93,2.402-8.243,4.478-11.366,5.364c-1.824,0.518-3.465,0.78-4.879,0.78c-2.241,0-3.127-0.652-3.281-0.998    C303.296,162.838,303.471,162.368,303.863,161.867z"
   id="path6" />&#10;		<path
   d="M152.753,386.264c-8.309-0.875-12.021-9.325-12.072-9.441c-0.376-0.889-1.399-1.307-2.29-0.932    c-0.891,0.375-1.309,1.402-0.934,2.293c0.18,0.426,4.521,10.465,14.93,11.561c0.062,0.007,0.124,0.01,0.185,0.01    c0.884,0,1.644-0.668,1.738-1.566C154.411,387.227,153.714,386.365,152.753,386.264z"
   id="path7" />&#10;		<path
   d="m 141.33951,407.41572 c 0.119,-0.748 -0.257,-1.489 -0.933,-1.834 -0.676,-0.344 -1.5922,-0.25623 -2.1282,0.27977 2.33358,-0.75421 -2.80088,-1.09137 -7.87588,12.10363 -5.166,13.432 -0.239,28.545 -0.027,29.182 0.245,0.733 0.927,1.196 1.66,1.196 0.183,0 0.37,-0.028 0.553,-0.09 0.917,-0.306 1.413,-1.297 1.107,-2.214 -0.048,-0.144 -4.747,-14.546 -0.027,-26.818 2.024,-5.263 3.14146,-6.62239 4.70746,-9.29439 -0.389,8.731 0.14008,16.85402 8.71008,28.28002 0.58,0.773 1.677,0.93 2.45,0.351 0.773,-0.58 0.93,-1.677 0.35,-2.45 -11.403,-15.205 -8.58446,-28.44903 -8.54646,-28.69203 z"
   id="path8"
   sodipodi:nodetypes="cccccscscccccc" />&#10;		<path
   d="m 435.73409,442.99781 c 1.04908,-2.31337 0.53876,-1.24041 1.3491,-3.02634 0.48445,-1.63236 0.30112,-3.2778 0.0901,-3.8648 -0.211,-0.588 -0.719,-1.02 -1.333,-1.131 -7.794,-1.421 -13.4642,0.4883 -17.9752,3.6053 4.203,-10.743 18.7412,-16.7183 18.9312,-16.8113 0.663,-0.325 1.051,-1.031 0.97,-1.766 -0.082,-0.734 -0.615,-1.338 -1.334,-1.509 -0.178,-0.042 -1.955,-0.451 -4.675,-0.678 3.18,-2.154 7.684,-5.633 11.146,-10.039 3.003,-3.821 5.265,-9.237 6.747,-13.571 0.843,7.498 1.026,20.981 -3.819,40.059 -0.11526,0.4552 -0.94417,10.48337 -4.74712,13.20854 -3.20847,2.29917 -7.94022,0.8221 -11.83977,0.21051 -2.8605,-0.44863 -5.4336,-0.92661 -8.64023,-1.52215 -2.48253,-0.46106 -7.26821,-1.53106 -7.26821,-1.53106 l -17.46056,-3.64291 -22.36635,-4.1905 c 0.24404,0.12825 -11.75052,-1.26218 -15.84067,-2.02736 -4.45245,-0.83296 1.03277,2.36041 -0.59696,2.87789 -0.96761,0.30724 4.83161,0.303 16.22177,2.19214 l 20.14651,3.68806 19.18168,3.56726 18.83,3.25137 c 1.02383,0.35974 8.5411,1.32954 11.71791,-0.96569 4.18441,-3.02322 5.854,-13.4621 6.055,-14.2541 8.026,-31.629 2.687,-48.285 2.455,-48.979 -0.248,-0.745 -0.97,-1.244 -1.743,-1.195 -0.783,0.037 -1.446,0.591 -1.622,1.354 -0.029,0.126 -2.973,12.696 -8.171,19.313 -2.671,3.4 -6.108,6.255 -8.904,8.277 -0.003,-0.016 -0.002,-0.031 -0.005,-0.047 -4.259,-20.817 15.834,-41.718 16.038,-41.927 0.472,-0.484 0.623,-1.198 0.387,-1.833 -0.236,-0.634 -0.816,-1.076 -1.49,-1.133 -13.614,-1.156 -29.927,11.345 -37.564,18.016 6.064,-18.624 25.836,-35.756 26.055,-35.944 0.567,-0.488 0.763,-1.283 0.485,-1.978 -0.277,-0.695 -0.971,-1.129 -1.715,-1.098 -12.579,0.645 -24.929,8.696 -32.549,14.77 3.277,-5.56 5.671,-10.901 7.752,-15.843 4.109,-9.76 0.437,-25.794 -14.532,-37.555 -13.431,-10.552 -29.547,-4.769 -32.754,-3.453 0.823,-6.231 0.798,-12.668 -0.095,-18.919 -1.186,-8.298 -2.975,-13.525 -3.754,-15.536 3.36,-2.968 8.289,-8.782 13.602,-19.966 6.773,-14.26 6.892,-29.059 6.308,-36.908 l 1.129,1.581 c 0.983,-0.702 4.267,-4.642 5.231,-25.844 0.398,-8.758 -0.734,-16.916 -2.272,-23.639 0.328,-0.223 0.589,-0.548 0.707,-0.959 0.087,-0.304 2.093,-7.592 -0.985,-19.905 -3.082,-12.329 -12.559,-21.911 -12.96,-22.313 -0.107,-0.106 -0.226,-0.19 -0.35,-0.264 0.215,-0.681 0.41,-1.379 0.563,-2.117 1.291,-6.259 0.348,-11.658 -2.806,-16.045 -1.624,-2.26 -3.72,-4.042 -5.954,-5.415 0.123,-0.496 0.037,-1.04 -0.297,-1.479 -6.967,-9.184 -13.795,-14.917 -19.929,-18.456 0.432,-0.411 0.794,-0.949 0.966,-1.664 0.671,-2.794 -2.088,-6.116 -8.948,-10.771 -10.003,-6.788 -23.679,-8.641 -31.309,-9.134 1.463,-1.172 2.753,-2.53 3.127,-3.872 0.242,-0.87 0.138,-1.715 -0.301,-2.446 -0.897,-1.496 -6.466,-8.556 -28.095,-0.746 -12.254,4.425 -16.871,10.32 -18.608,14.03 -10.607,-11.354 -31.001,-12.49 -51.08,-2.449 -5.326,2.663 -8.075,5.784 -8.17,9.275 -0.074,2.73 1.535,5.035 3.182,6.669 -7.543,0.822 -18.23,3.647 -26.967,12.383 -12.682,12.682 -18.033,30.15 -16.111,34.789 0.219,0.528 0.546,0.95 0.945,1.241 -1.861,2.216 -3.752,4.795 -5.589,7.792 -8.304,13.549 -9.957,25.273 -7.912,30.883 0.782,2.146 1.99,3.112 2.98,3.546 -3.034,9.002 -5.817,20.716 -5.324,32.558 0.996,23.903 6.902,27.554 8.076,28.042 l 0.676,-1.622 c 2.383,7.702 6.503,16.795 13.637,25.608 0.346,0.427 0.852,0.649 1.361,0.649 0.162,0 0.322,-0.036 0.48,-0.081 1.073,2.508 2.343,5.159 3.819,7.775 -1.328,2.349 -8.307,15.784 -7.172,36.524 -3.294,-0.55 -10.782,-1.501 -19.133,-0.629 1.051,-13.278 -3.021,-23.161 -15.947,-39.39 -11.348,-14.247 -13.885,-26.956 -14.309,-29.608 0.279,-0.132 0.475,-0.236 0.575,-0.292 1.453,-0.712 22.557,-11.5 15.337,-32.128 -4.424,-12.64 -7.574,-16.046 -9.658,-18.301 -1.209,-1.308 -1.816,-1.964 -2.289,-4.015 -1.282,-5.556 1.561,-9.379 1.676,-9.532 0.477,-0.613 0.493,-1.467 0.038,-2.098 -0.453,-0.629 -1.269,-0.885 -2.002,-0.627 -0.3,0.106 -5.936,2.154 -9.65,7.534 -0.131,-1.432 -0.176,-3.057 -0.025,-4.726 0.37,-4.071 4.546,-10.09 6.124,-12.065 0.474,-0.593 0.512,-1.424 0.093,-2.057 -0.418,-0.634 -1.196,-0.925 -1.928,-0.722 -0.39,0.108 -9.616,2.745 -16.390001,11.083 -2.459,3.027 -3.598,6.528 -4.067,9.693 -1.19,-2.025 -2.68,-4.015 -4.481,-5.456 -0.587,-0.469 -1.407,-0.511 -2.039,-0.106 -0.632,0.405 -0.935,1.169 -0.752,1.897 0.019,0.074 1.8,7.495 -2.384,16.327 -1.343,2.835 -12.627,28.066 4.547,40.66 5.922,4.343 11.946,6.59 17.915001,6.721 0.474,4.284 2.665,16.758 12.676,31.358 11.657,17 14.631,26.643 12.228,39.662 -6.271,2.872 -11.901,7.568 -15.374,15.117 -3.96,8.609 -6.315,17.1 -7.005,24.929 -0.825,-3.079 -1.611,-6.364 -2.183,-9.51 -0.124,-0.683 -0.64,-1.228 -1.315,-1.389 -0.678,-0.161 -1.382,0.092 -1.801,0.646 -0.469,0.619 -9.960001,13.593 -1.637001,35.177 -1.856,-1.665 -3.734,-3.082 -5.605,-4.143 -15.632,-8.858 -29.08,-2.325 -29.646,-2.043 -0.565,0.283 -0.933,0.848 -0.965,1.478 -0.031,0.631 0.28,1.23 0.814,1.567 0.355,0.225 33.862,21.642 41.268001,46.064 -16.598001,-11.523 -28.174001,-8.411 -28.825001,-8.223 -0.71,0.208 -1.213,0.84 -1.255,1.578 -0.043,0.739 0.384,1.425 1.065,1.713 8.405,3.557 15.634,12.81 19.392,18.355 -5.284,-1.721 -13.983,-3.662 -22.604,-1.672 -13.302,3.069 -27.211,15.879 -27.797,16.423 -0.552,0.512 -0.714,1.32 -0.403,2.006 0.312,0.685 1.025,1.103 1.775,1.017 0.475,-0.047 63.292701,-3.84722 83.311481,6.99556 0.26028,0.14028 0.54784,0.20684 0.83684,0.20684 0.614,0 12.89876,-3.04968 18.3739,-3.92833 4.92409,-0.79022 14.08538,1.68504 16.72192,2.3542 2.63655,0.66916 -3.52911,-3.09555 -3.39846,-3.31995 0.14896,-0.25583 -9.3911,-1.29635 -10.3501,-1.31042 -6.98643,-0.10247 -19.02494,3.61379 -20.06626,3.37999 -17.607,-9.826 -66.931321,-9.24789 -80.289321,-8.31689 5.017,-3.981 13.832,-10.194 22.073,-12.096 12.224,-2.82 25.218,3.31 25.349,3.372 0.688001,0.33 1.509001,0.177 2.031001,-0.378 0.523,-0.555 0.627,-1.383 0.256,-2.049 -0.362,-0.651 -7.838001,-13.952 -18.458001,-21.261 7.541,0.578 17.623471,-0.0452 34.664471,21.25678 0.604,0.756 1.705,0.879 2.46,0.273 0.755,-0.603 0.877,-1.705 0.273,-2.459 -5.302,-6.628 -5.98347,-6.72778 -10.73347,-10.59378 -0.004,-0.063 -0.003,-0.123 -0.015,-0.184 -4.316,-23.309 -31.762001,-43.941 -40.890001,-50.233 4.482,-1.288 13.373,-2.555 23.307,3.073 14.352001,8.133 30.130001,40.416 30.288001,40.741 0.422,0.868 1.467,1.232 2.338,0.81 0.87,-0.422 1.232,-1.469 0.811,-2.338 -0.458,-0.945 -8.125,-16.629 -17.868,-29.088 -0.038,-0.186 -0.1,-0.369 -0.201,-0.541 -10.836001,-18.287 -8.260001,-31.347 -5.742,-37.533 2.151,9.367 5.323,18.273 5.574,18.973 2.008,8.12 8.924,15.095 14.452,17.553 0.01,0.004 0.02,0.005 0.029,0.009 1.996,3.456 4.863,6.751 8.965,9.218 0.045,0.236 0.136,0.467 0.283,0.678 0.101,0.145 9.889,14.058 21.273,24.901 -2.349,2.501 -2.884,6.681 -1.544,12.488 4.829,20.925 13.255,25.301 20.862,26.822 1.151,0.23 2.19,0.332 3.127,0.332 2.813,0 4.692,-0.922 5.866,-2.047 1.779,1.826 3.59,3.126 5.329,3.669 2.064,0.645 3.802,0.898 5.257,0.898 2.973,0 4.764,-1.053 5.763,-1.969 1.057,2.647 2.374,4.942 3.911,6.712 2.122,2.443 4.62,3.81 7.225,3.949 0.848,0.046 1.688,0.069 2.498,0.069 h 0.002 c 5.783,0 10.113,-1.15 12.952,-3.395 1.888,1.436 4.802,2.293 7.959,2.292 2.455,0 5.044,-0.525 7.395,-1.678 2.154,0.816 5.092,1.523 8.114,1.523 4.323,0 8.797,-1.445 11.318,-6.079 1.33,-2.445 2.399,-4.834 3.119,-7.368 3.833,-0.499 8.293,-0.298 9.054,0.845 0.065,0.097 0.143,0.177 0.222,0.256 1.583,7.53 4.786,14.523 11.234,14.523 4.97,0 11.39,-0.764 15.255,-4.145 1.813,1.236 4.386,1.951 7.148,1.951 2.716,0 5.605,-0.685 8.107,-2.224 1.093,0.322 2.459,0.559 3.983,0.559 3.933,0 8.799,-1.537 12.014,-7.003 1.305,-2.218 2.429,-4.406 3.305,-6.619 0.86,0.246 2.941,0.765 5.173,0.765 1.929,0 3.961,-0.393 5.394,-1.686 1.118,0.583 2.564,1.039 4.208,1.039 1.975,-0.001 4.23,-0.656 6.522,-2.531 1.055,-0.863 2.091,-1.971 2.979,-3.378 0.342,0.207 0.752,0.306 1.177,0.242 0.946,-0.146 1.17144,-1.23035 1.03744,-2.17935 0,0 -0.27544,-5.42365 6.15456,-15.06865 3.784,-5.677 9.455,-10.961 13.714,-14.515 -3.116,7.106 -7.07,18.304 -5.384,26.401 0.151,0.725 0.743,1.277 1.478,1.378 0.736,0.102 1.453,-0.273 1.792,-0.933 0.083,-0.161 8.41,-16.141 20.345,-23.301 7.259,-4.354 15.299,-6.641 20.551,-7.771 -5.523,5.236 -14.766,14.543 -18.971,21.902 -4.62087,9.67962 -2.63391,10.60503 -2.33205,11.14628 0.24606,0.4412 0.57246,0.5535 1.29546,0.7865 0.83294,-0.20975 1.32161,-0.13694 1.958,-0.645 0.15008,-0.11982 8.85748,-9.74302 18.26448,-13.50602 5.189,-2.076 9.06711,-0.57976 12.85811,-0.35776 -6.887,4.206 -15.28652,8.19723 -15.67252,19.01623 -0.025,0.704 0.375,1.354 1.014,1.649 0.64,0.298 1.394,0.181 1.914,-0.294 0.099,-0.089 4.28511,-3.79237 13.34111,-4.05737 5.94119,-0.69321 3.03859,2.77097 1.36203,5.67664 -0.48328,0.83758 1.06623,2.43377 1.75,1.75 m -72.01362,-135.7015 c 0.165,-0.075 16.724,-7.407 29.693,2.784 13.591,10.679 17.063,24.908 13.468,33.445 -4.158,9.875 -9.563,21.38 -21.124,32.942 -7.025,7.024 -15.39,13.146 -22.771,18.545 -5.13,3.753 -9.56,6.995 -12.686,9.913 -0.194,0.182 -0.333,0.398 -0.426,0.63 -3.252,0.386 -6.293,2.737 -7.943,4.251 -5.605,-4.131 -13.78,0.041 -15.133,0.781 -1.769,-1.501 -3.718,-2.442 -5.846,-2.776 -0.346,-0.055 -0.688,-0.084 -1.027,-0.105 2.388,-7.851 10.011,-32.424 16.178,-46.813 1.975,-4.61 3.501,-7.368 5.612,-11.184 1.497,-2.706 3.193,-5.773 5.522,-10.33 1.206,-2.359 2.159,-4.603 2.929,-6.697 0.292,-0.092 0.566,-0.253 0.782,-0.499 0.313,-0.353 7.686,-8.805 10.751,-22.085 0.214,-0.927 0.402,-1.865 0.577,-2.807 0.444,0.2 0.965,0.223 1.444,0.005 z m 0.577,-202.213 c 2.559,3.561 3.306,8.034 2.22,13.296 -2.811,13.625 -19.251,15.672 -22.368,15.938 -0.464,-0.321 -1.339,-1.028 -2.335,-2.238 1.982,-1.065 5.769,-3.207 9.44,-5.886 3.275,-2.39 4.908,-6.958 3.97,-11.107 -0.816,-3.614 -3.461,-6.176 -7.074,-6.855 -7.114,-1.335 -11.929,8.53 -13.679,12.856 -0.98,-1.009 -1.885,-1.794 -2.544,-2.327 0.773,-2.232 2.655,-7.233 5.093,-10.759 3.28,-4.744 8.301,-11.131 13.718,-10.472 3.309,0.402 9.888,2.446 13.559,7.554 z m -25.082,22.766 c -0.62,-1.355 -1.378,-2.578 -2.175,-3.687 0.02,-0.044 0.044,-0.085 0.06,-0.132 1.19,-3.491 5.66,-13.256 10.401,-12.361 3.055,0.574 4.011,2.87 4.309,4.188 0.629,2.784 -0.473,5.942 -2.62,7.509 -3.657,2.669 -7.536,4.831 -9.325,5.785 -0.219,-0.409 -0.438,-0.837 -0.65,-1.302 z m -186.471,78.891 c 0.02,-0.966 -0.748,-1.765 -1.713,-1.786 -0.954,0.026 -1.765,0.745 -1.786,1.711 -0.011,0.488 -0.087,6.604 2.066,15.278 -1.547,-3.075 -3.532,-9.452 -4.067,-22.313 -0.968,-23.221 11.663,-46.858 11.79,-47.094 0.46,-0.85 0.144,-1.912 -0.706,-2.372 -0.851,-0.46 -1.913,-0.145 -2.372,0.705 -0.242,0.446 -2.915,5.449 -5.705,13.002 -0.326,-0.257 -0.633,-0.741 -0.873,-1.398 -1.419,-3.892 -0.563,-14.522 7.608,-27.855 6.617,-10.797 14.018,-15.83 17.535,-17.763 4.712,15.625 25.145,17.753 26.068,17.841 0.055,0.005 0.11,0.008 0.165,0.008 0.227,0 0.452,-0.044 0.662,-0.13 0.179,-0.073 4.413,-1.86 7.937,-8.205 2.88,-5.185 8.269,-8.355 8.321,-8.385 0.677,-0.39 1.013,-1.182 0.823,-1.94 -0.083,-0.334 -2.081,-8.229 -5.511,-13.711 -3.708,-5.927 -9.589,-13.853 -17.366,-13.401 -5.314,0.318 -13.201,2.756 -17.942,8.582 -3.43,4.216 -4.734,9.524 -3.906,15.769 -2.306,1.146 -6.789,3.804 -11.763,9.015 -0.072,-0.052 -0.14,-0.112 -0.22,-0.153 -0.72,-3.07 2.972,-18.234 15.441,-30.704 13.7,-13.699 33.356,-11.525 33.553,-11.5 0.959,0.116 1.83,-0.568 1.946,-1.527 0.116,-0.959 -0.566,-1.83 -1.524,-1.947 -0.226,-0.027 -1.782,-0.201 -4.212,-0.188 -0.044,-0.031 -0.085,-0.067 -0.133,-0.095 -1.275,-0.726 -4.896,-3.42 -4.82,-6.174 0.071,-2.616 3.431,-4.837 6.236,-6.24 19.944,-9.973 40.009,-8.347 48.793,3.952 0.433,0.605 1.201,0.87 1.914,0.663 0.714,-0.208 1.218,-0.845 1.257,-1.588 0.005,-0.083 0.899,-8.506 17.347,-14.446 15.439,-5.574 22.219,-3.118 23.794,-0.915 -0.414,0.982 -3.263,3.161 -6.207,4.722 -0.717,0.38 -1.079,1.203 -0.874,1.988 0.205,0.785 0.92,1.338 1.732,1.308 0.216,-0.003 21.596,-0.382 34.978,8.699 7.497,5.087 7.51,7 7.534,7 h 0.001 c -0.093,0.114 -0.489,0.274 -0.771,0.316 -0.246,0.031 -0.473,0.112 -0.673,0.231 -11.692,-5.332 -20.087,-2.838 -20.639,-2.663 -0.918,0.291 -1.425,1.269 -1.138,2.188 0.287,0.92 1.267,1.433 2.188,1.15 0.761,-0.233 18.162,-5.2 38.013,18.665 -1.554,-0.498 -3.047,-0.825 -4.368,-0.986 -0.396,-0.048 -0.8,-0.072 -1.198,-0.072 -6.652,0 -11.949,6.428 -15.821,12.029 -3.512,5.08 -5.844,12.553 -5.941,12.869 -0.227,0.733 0.051,1.528 0.684,1.961 0.048,0.033 4.797,3.322 7.148,8.465 2.887,6.315 6.738,8.284 6.9,8.365 0.242,0.12 0.509,0.183 0.778,0.183 0.023,0 0.046,-0.001 0.068,-0.001 0.198,-0.008 17.56,-0.851 24.157,-13.184 2.156,2.364 8.969,10.393 11.36,19.962 1.277,5.109 1.608,9.27 1.589,12.315 -1.867,-5.944 -3.652,-9.667 -3.817,-10.005 -0.422,-0.869 -1.468,-1.23 -2.338,-0.808 -0.869,0.422 -1.231,1.469 -0.81,2.338 0.088,0.182 8.793,18.386 7.826,39.656 -0.614,13.509 -2.154,19.353 -3.111,21.749 -0.195,-1.737 -0.386,-2.804 -0.42,-2.989 -0.177,-0.949 -1.085,-1.574 -2.041,-1.4 -0.95,0.177 -1.577,1.091 -1.4,2.041 0.039,0.209 3.79,21.165 -5.36,40.429 -4.295,9.042 -8.242,14.294 -11.139,17.297 1.148,-2.405 1.99,-4.824 2.44,-7.224 0.178,-0.95 -0.447,-1.864 -1.397,-2.043 -0.95,-0.174 -1.864,0.448 -2.043,1.398 -2.679,14.289 -20.269,29.475 -36.828,37.083 1.089,-1.129 2.205,-2.324 3.347,-3.587 0.648,-0.717 0.593,-1.824 -0.125,-2.472 -0.716,-0.648 -1.822,-0.591 -2.472,0.125 -15.037,16.637 -24.911,20.606 -29.723,21.434 0.716,-0.746 1.362,-1.483 1.908,-2.194 0.59,-0.766 0.446,-1.865 -0.32,-2.454 -0.765,-0.589 -1.864,-0.445 -2.454,0.32 -4.968,6.458 -16.891,13.605 -22.746,12.356 -5.306,-1.137 -14.505,-9.77 -17.603,-13 -0.669,-0.698 -1.776,-0.721 -2.474,-0.052 -0.698,0.669 -0.721,1.776 -0.053,2.474 0.184,0.191 1.94,2.014 4.455,4.291 -8.659,-1.543 -16.534,-8.775 -20.904,-12.793 -2.407,-2.213 -3.217,-2.958 -4.287,-2.958 -0.966,0 -1.75,0.784 -1.75,1.75 0,0.802 0.54,1.478 1.275,1.685 0.417,0.283 1.462,1.245 2.393,2.1 1.205,1.108 2.666,2.448 4.329,3.852 -5.627,-1.22 -15.533,-4.709 -29.749,-14.574 -23.224,-16.115 -22.269,-33.197 -22.253,-33.423 0.077,-0.961 -0.638,-1.803 -1.599,-1.883 -0.97,-0.078 -1.809,0.635 -1.89,1.599 -0.024,0.287 -0.204,2.993 0.841,7.162 -8.119,-10.931 -11.852,-26.245 -11.895,-26.422 -0.224,-0.94 -1.17,-1.52 -2.108,-1.296 -0.94,0.224 -1.52,1.167 -1.297,2.107 0.065,0.271 0.592,2.441 1.634,5.637 -12.386,-18.631 -12.183,-37.307 -12.179,-37.512 z m 27.65,-107.017 c 4.304,-5.29 11.727,-7.076 15.436,-7.297 0.148,-0.009 0.295,-0.013 0.441,-0.013 5.721,0 10.587,6.721 13.749,11.776 2.386,3.814 4.075,9.144 4.753,11.502 -0.785,0.536 -1.901,1.368 -3.113,2.449 -1.522,-4.477 -6.016,-15.255 -13.755,-14.314 -3.958,0.485 -6.959,3.03 -8.027,6.808 -1.183,4.184 0.277,8.928 3.551,11.539 3.797,3.027 7.754,5.495 9.797,6.708 -1.22,1.269 -2.265,1.973 -2.788,2.271 -3.059,-0.419 -19.63,-3.292 -22.824,-16.304 0.153,-0.385 0.178,-0.823 0.025,-1.243 -0.085,-0.235 -0.218,-0.439 -0.38,-0.61 -0.743,-5.329 0.308,-9.797 3.135,-13.272 z m 25.901,24.947 c -0.288,0.518 -0.579,0.997 -0.872,1.443 -1.785,-1.049 -5.937,-3.586 -9.813,-6.677 -2.203,-1.756 -3.175,-4.984 -2.365,-7.85 0.4,-1.417 1.594,-3.858 5.085,-4.287 5.285,-0.642 9.378,9.544 10.506,13.526 0.015,0.052 0.04,0.098 0.059,0.148 -0.936,1.102 -1.839,2.326 -2.6,3.697 z m -32.36,139 c 1.851,2.828 3.959,5.512 6.35,7.799 0.339,0.324 0.774,0.485 1.21,0.485 0.001,0 0.003,-10e-4 0.005,-10e-4 3.214,6.409 9.129,14.147 19.998,21.689 21.074,14.622 33.217,15.846 36.688,15.846 0.189,0 0.343,-0.004 0.481,-0.009 4.421,3 9.627,5.558 15.2,5.971 0.044,0.003 0.088,0.005 0.131,0.005 0.64,0 1.204,-0.352 1.509,-0.88 3.723,3.055 8.119,6.09 11.622,6.841 0.71,0.152 1.457,0.224 2.232,0.224 5.641,0 12.804,-3.794 18.204,-8.126 0.402,0.073 0.986,0.143 1.76,0.143 3.9,0 12.512,-1.793 25.772,-13.964 0.271,0.163 0.577,0.263 0.898,0.263 0.201,0 0.405,-0.035 0.604,-0.108 13.418,-4.943 28.604,-15.551 37.316,-27.404 0.027,0.001 0.052,0.012 0.078,0.012 0.182,0 0.366,-0.028 0.548,-0.088 0.082,-0.027 0.617,-0.217 1.507,-0.754 0.818,2.319 2.236,6.997 3.214,13.839 1.134,7.938 0.797,16.188 -0.973,23.859 -1.331,5.766 -3.565,10.585 -5.584,14.116 0.495,-2.806 0.536,-4.537 0.539,-4.697 0.014,-0.966 -0.758,-1.761 -1.725,-1.776 -0.991,-0.034 -1.762,0.758 -1.775,1.724 -0.001,0.083 -0.186,8.473 -5.623,19.108 -2.303,4.505 -3.985,7.546 -5.47,10.229 -2.16,3.905 -3.721,6.728 -5.766,11.499 -6.654,15.525 -14.949,42.656 -16.722,48.532 -4.164,1.003 -7.182,3.71 -7.351,3.865 -0.007,0.008 -0.013,0.016 -0.02,0.023 -1.393,-0.904 -2.861,-1.506 -4.408,-1.779 -7.897,-1.403 -14.443,6.087 -14.718,6.406 -0.121,0.14 -0.207,0.296 -0.275,0.457 -0.184,-0.126 -0.366,-0.243 -0.549,-0.345 -0.11,-0.061 -0.227,-0.11 -0.347,-0.146 -0.101,-0.03 -2.48,-0.734 -5.418,-0.734 -1.021,0 -1.976,0.091 -2.875,0.254 -0.136,-3.735 -0.628,-16.416 -1.464,-28.96 -0.906,-13.588 0.278,-24.389 0.465,-25.957 4.349,-2.327 8.4,-5.718 11.526,-8.725 0.322,0.337 0.77,0.548 1.261,0.548 0.061,0 0.123,-0.003 0.185,-0.01 17.48,-1.84 26.739,-18.122 28.923,-22.491 2.364,-0.366 6.907,-2.727 14.301,-12.707 10.147,-13.698 11.762,-24.347 11.826,-24.794 0.137,-0.956 -0.526,-1.839 -1.482,-1.978 -0.95,-0.14 -1.842,0.524 -1.983,1.479 -0.015,0.102 -1.599,10.283 -11.174,23.21 -8.14,10.988 -11.835,11.335 -12.182,11.341 -0.811,-0.196 -1.668,0.212 -2.014,0.996 -0.083,0.188 -8.145,18.029 -24.451,21.14 1.703,-1.836 2.766,-3.149 2.919,-3.341 0.604,-0.754 0.481,-1.855 -0.273,-2.46 -0.754,-0.604 -1.854,-0.482 -2.459,0.272 -0.135,0.168 -13.618,16.844 -24.634,16.844 -3.302,0 -6.518,-1.243 -9.404,-2.978 -0.269,-0.61 -0.866,-1.034 -1.582,-1.019 -5.87,-4.037 -10.033,-9.692 -10.097,-9.78 -0.403,-0.556 -1.056,-0.943 -1.731,-0.807 -0.672,0.138 -1.166,0.536 -1.318,1.206 -0.011,0.024 -0.276,0.588 -1.288,0.955 -1.452,0.525 -5.048,0.849 -12.819,-2.902 -13.669,-6.599 -24.001,-36.682 -24.104,-36.985 -0.31,-0.916 -1.303,-1.407 -2.219,-1.096 -0.915,0.31 -1.406,1.303 -1.096,2.219 0.104,0.307 0.778,2.267 1.937,5.157 -0.041,0.25 -0.035,0.511 0.041,0.77 0.703,2.425 0.76,5.02 0.337,5.428 -0.008,0.003 -0.784,0.229 -3.186,-1.373 -8.07,-5.38 -14.002,-28.122 -14.221,-30.59 -0.024,-0.945 -0.798,-1.704 -1.749,-1.704 -0.966,0 -1.75,0.784 -1.75,1.75 0,2.009 6.055,26.974 15.779,33.456 0.848,0.565 2.961,1.975 5.012,1.974 0.753,0 1.498,-0.19 2.169,-0.682 0.429,-0.315 0.751,-0.719 1.003,-1.17 4.573,9.637 11.777,21.775 20.525,25.999 7.046,3.401 12.392,4.377 15.886,2.902 0.513,-0.216 0.944,-0.47 1.305,-0.736 1.817,2.191 5.339,6.034 9.841,9.064 0.075,5.167 0.268,24.733 -0.995,31.889 -1.134,6.428 -2.277,16.057 -2.768,20.378 -4.965,-1.328 -10.097,1.025 -12.335,2.279 -1.899,-1.975 -4.032,-3.268 -6.397,-3.85 -6.009,-1.479 -11.664,2.057 -14.417,4.205 -0.518,-0.709 -1.053,-1.375 -1.622,-1.945 -1.585,-1.584 -3.697,-2.422 -6.108,-2.422 -1.296,0 -2.641,0.246 -3.975,0.707 0.093,-0.277 0.124,-0.582 0.062,-0.891 -0.509,-2.545 -14.473,-42.666 -16.08,-47.277 -0.055,-0.145 -5.582,-14.702 -12.015,-30.538 -6.235,-15.35 -4.405,-29.965 -4.386,-30.111 0.126,-0.957 -0.547,-1.837 -1.505,-1.964 -0.96,-0.127 -1.837,0.545 -1.965,1.503 -0.056,0.424 -0.928,7.331 0.498,16.736 -1.46,-3.311 -3.09,-8.269 -4.029,-15.238 -2.676,-19.9 2.804,-34.2 5.209,-39.304 z m 22.316,162.882 c -0.182,2.098 -0.224,4.205 -0.142,6.281 -3.56,-9.213 -6.474,-23.986 -5.026,-26.254 1.995,-1.373 6.541,-2.371 9.759,-1.666 1.085,0.238 1.843,0.649 2.134,1.159 0.148,0.259 0.356,0.459 0.592,0.606 0.696,2.111 1.135,3.503 1.211,3.87 0.117,0.586 0.521,1.031 1.032,1.252 -4.792,2.611 -8.97,7.958 -9.56,14.752 z M 85.101309,184.95067 c 2.371,-5.006 3.041,-9.612 3.11,-12.998 2.365,3.787 3.606,8.158 3.622,8.218 0.255,0.914 1.192,1.456 2.112,1.228 0.92,-0.232 1.489,-1.153 1.282,-2.079 -0.021,-0.095 -2.069,-9.592 3.15,-16.015 2.942001,-3.621 6.461001,-6.061 9.308001,-7.614 -1.575,2.661 -3.146,5.958 -3.409,8.853 -0.525,5.77 1.001,10.944 1.066,11.161 0.222,0.74 0.904,1.247 1.676,1.247 h 0.005 c 0.774,0 1.456,-0.513 1.674,-1.256 1.082,-3.679 3.466,-6.23 5.624,-7.879 -0.475,1.991 -0.657,4.469 -0.008,7.278 0.682,2.956 1.816,4.183 3.129,5.604 1.888,2.041 4.74,5.127 8.924,17.081 6.385,18.242 -12.769,27.453 -13.586,27.835 -0.047,0.021 -0.1,0.05 -0.145,0.076 -0.029,0.017 -2.948,1.668 -7.688,1.668 -5.388001,0 -10.904001,-2.042 -16.396001,-6.068 -14.905,-10.933 -4.666,-33.772 -3.45,-36.34 z m 34.862001,75.261 c -9.332,-13.609 -11.542,-25.446 -12.048,-29.542 0.917,-0.118 1.746,-0.28 2.485,-0.463 0.701,3.988 3.678,16.497 14.931,30.626 12.514,15.711 16.29,25.054 15.118,37.695 -2.449,0.413 -4.925,0.999 -7.355,1.82 1.901,-13.026 -1.487,-23.153 -13.131,-40.136 z m 16.602,124.877 c 0.243,-0.182 0.448,-0.42 0.572,-0.721 0.368,-0.893 -0.058,-1.916 -0.952,-2.284 -15.63,-6.436 -14.955,-25.011 -14.919,-25.799 0.046,-0.964 -0.698,-1.784 -1.663,-1.831 -0.973,-0.049 -1.786,0.697 -1.834,1.663 -0.005,0.112 -0.225,5.903 2.01,12.5 -3.755,-3.017 -7.35,-7.777 -8.561,-12.822 -2.498,-10.408 -0.407,-23.676 5.888,-37.36 9.933,-21.594 41.202,-17.056 46.316,-16.156 0.102,1.039 0.216,2.087 0.36,3.158 2.116,15.717 7.688,22.161 7.924,22.427 0.346,0.39 0.827,0.589 1.311,0.589 0.009,0 0.018,-0.005 0.026,-0.005 0.629,2.253 1.4,4.57 2.352,6.914 6.417,15.796 11.93,30.317 11.968,30.417 4.134,11.867 9.67,27.881 13.014,37.784 -0.09,-0.022 -0.174,-0.049 -0.266,-0.068 -3.905,-0.857 -9.681,0.19 -12.613,2.285 -0.22,0.157 -0.417,0.346 -0.594,0.564 -2.34,-1.84 -6.317,-2.721 -9.652,-2.381 -3.964,0.402 -6.838,2.33 -8.21,5.398 -0.177,-0.322 -0.45,-0.594 -0.812,-0.756 -0.844,-0.377 -7.374,-3.152 -12.339,-1.443 -8.277,-7.761 -15.8,-17.359 -19.326,-22.073 z m 36.298,59.897 c -6.838,-1.368 -13.769,-5.243 -18.138,-24.178 -0.78,-3.38 -1.24,-7.795 0.998,-9.639 2.778,-2.291 8.943,-0.321 11.084,0.631 0.508,0.227 1.063,0.184 1.521,-0.057 -0.011,0.063 -0.027,0.123 -0.037,0.186 -1.403,8.887 4.032,23.61 10.588,32.112 -0.663,0.761 -2.262,1.696 -6.016,0.945 z m 22.591,1.433 c -0.013,0.026 -1.617,2.578 -7.913,0.612 -1.494,-0.467 -3.154,-1.803 -4.824,-3.719 -0.122,-0.51 -0.471,-0.945 -0.966,-1.172 -5.796,-7.405 -11.338,-21.214 -10.003,-29.665 0.588,-3.727 3.512,-4.793 5.861,-5.032 3.893,-0.4 7.37,1.303 7.771,2.372 0.093,0.247 0.238,0.456 0.414,0.63 -0.295,8.493 5.074,27.708 9.38,32.876 0.181,0.217 0.404,0.376 0.646,0.482 0.143,0.617 0.298,1.224 0.465,1.818 -0.346,0.162 -0.647,0.429 -0.831,0.798 z m 15.699,10.112 h -0.002 c -0.788,0 -1.563,-0.023 -2.309,-0.064 -1.659,-0.09 -3.264,-1.015 -4.771,-2.75 -4.266,-4.912 -6.654,-15.137 -5.808,-24.865 0.662,-7.619 7.085,-13.311 12.386,-13.311 1.483,0 2.706,0.469 3.633,1.396 0.651,0.651 1.266,1.439 1.847,2.335 0.029,0.403 0.188,0.799 0.496,1.108 0.095,0.096 0.2,0.175 0.309,0.244 3.639,6.588 5.848,17.507 7.267,25.792 0.483,2.821 0.066,4.965 -1.275,6.556 -2.482,2.942 -7.772,3.559 -11.773,3.559 z m 15.296,-2.508 c 1.341,-2.217 1.754,-4.961 1.2,-8.194 -1.538,-8.983 -3.723,-19.45 -7.418,-26.424 2.129,-1.72 6.95,-4.978 11.729,-3.802 4.37,1.074 7.866,5.66 10.391,13.627 3.717,11.728 2.605,20.302 -3.128,24.143 -4.379,2.932 -10.236,2.353 -12.774,0.65 z m 29.367,-2.999 c -2.817,5.176 -8.994,4.601 -12.705,3.685 3.752,-3.634 7.429,-11.226 2.577,-26.535 -1.191,-3.759 -2.623,-6.868 -4.279,-9.338 2.08,-1.092 6.12,-2.761 9.667,-1.564 2.584,0.873 4.529,3.223 5.783,6.984 4.318,12.952 2.964,19.4 -1.043,26.768 z m 6.952,-9.309 c 0.68,-4.962 0.023,-10.73 -2.589,-18.567 -1.195,-3.584 -2.975,-6.201 -5.303,-7.828 0.381,-3.424 1.632,-14.318 2.866,-21.313 1.192,-6.755 1.155,-23.236 1.076,-30.423 2.846,1.42 5.957,2.368 9.201,2.368 1.99,0 4.014,-0.429 6.015,-1.153 -0.388,4.119 -1.009,13.302 -0.261,24.519 0.969,14.542 1.474,29.265 1.496,29.911 -3.55,1.913 -5.5,5.681 -5.5,10.973 0,2.526 0.114,7.055 0.77,11.872 -2.488,-0.684 -5.583,-0.578 -7.771,-0.359 z m 19.751,15.736 c -6.39,0 -9.25,-13.686 -9.25,-27.25 0,-5.995 2.727,-8.91 8.335,-8.91 1.98,0 3.683,0.396 4.228,0.537 3.651,2.277 8.97,13.715 11.48,24.761 0.65,2.862 0.316,5.068 -1.022,6.744 -2.118,2.655 -7.01,4.118 -13.771,4.118 z m 17.446,-3.391 c 1.221,-2.284 1.489,-5.044 0.761,-8.246 -2.051,-9.024 -6.194,-19.43 -10.439,-24.54 0.207,-0.101 0.398,-0.244 0.56,-0.431 0.054,-0.063 5.501,-6.297 11.456,-5.244 4.331,0.766 8.059,5.214 11.08,13.221 4.389,11.63 3.89,20.226 -1.407,24.202 -3.889,2.92 -9.465,2.566 -12.011,1.038 z m 26.046,-5.746 c -2.775,4.721 -6.884,5.404 -9.603,5.246 3.185,-3.953 5.668,-11.619 0.249,-25.976 -1.879,-4.981 -4.092,-8.774 -6.61,-11.379 0.805,-0.645 2.97,-2.211 5.638,-2.801 0.112,0.021 0.226,0.049 0.336,0.049 0.296,0 0.572,-0.094 0.825,-0.23 0.68,-0.066 1.379,-0.066 2.09,0.045 2.89,0.455 5.435,2.574 7.565,6.303 6.736,11.789 4.806,19.739 -0.49,28.743 z m 7.431,-8.167 c 1.775,-6.575 1.09,-13.575 -3.903,-22.313 -0.544,-0.951 -1.123,-1.798 -1.724,-2.584 2.272,-1.076 8.214,-3.385 11.409,0.131 4.359,4.795 3.567,20.362 1.73,24.039 -0.944,1.886 -5.223,1.351 -7.512,0.727 z m 17.969,-1.8 c -2.967,2.427 -5.453,1.818 -6.764,1.164 1.714,-5.607 2.13,-18.821 -1.816,-25.125 1.753,-1.584 4.841,-3.823 7.146,-3.332 1.416,0.303 2.554,1.716 3.383,4.201 2.568,7.705 4.315,17.967 -1.949,23.092 z m 63.458,-18.271 c -6.383,2.554 -11.99416,6.20737 -16.38016,11.34337 0.853,-2.486 0.99416,-2.25237 3.05016,-5.85037 5.786,-10.125 22.471,-24.907 22.639,-25.055 0.57,-0.504 0.75,-1.318 0.444,-2.016 -0.305,-0.697 -1.031,-1.112 -1.782,-1.037 -0.608,0.063 -15.033,1.627 -27.721,9.24 -8.457,5.073 -15.047,13.943 -18.643,19.565 0.879,-11.086 8.485,-25.057 8.576,-25.221 0.391,-0.713 0.241,-1.6 -0.361,-2.143 -0.603,-0.544 -1.501,-0.604 -2.168,-0.141 -0.542,0.376 -13.357,9.314 -20.46,19.968 -1.27,1.906 -2.276,3.669 -3.094,5.297 -0.328,-2.872 -1.042,-6.136 -2.29,-9.878 -0.953,-2.86 -2.352,-4.807 -4.168,-5.831 2.881,-2.494 6.716,-5.301 11.067,-8.484 7.482,-5.475 15.962,-11.68 23.178,-18.895 2.852,-2.852 5.331,-5.694 7.526,-8.509 0.53,0.072 1.086,-0.094 1.488,-0.506 0.173,-0.176 15.772,-15.985 32.487,-19.725 -7.265,7.114 -21.762,23.104 -24.467,39.721 -0.122,0.75 0.254,1.492 0.93,1.838 0.677,0.348 1.499,0.217 2.035,-0.318 0.207,-0.208 19.4,-19.211 35.324,-20.935 -5.671,6.815 -17.952,24.076 -14.276,42.046 0.103,0.5 -0.18466,0.61015 0.22034,0.85415 -1.454,0.936 -1.81034,1.74085 -1.83834,1.75585 -0.268,0.146 -0.476,0.354 -0.63,0.594 -3.289,0.211 -7.005,0.85 -10.686,2.322 z"
   id="path9"
   sodipodi:nodetypes="ccccccccccccasscccssccccacccsscccccccccccccccccccccscccccccccccccccccccccccccccscccccccccccccccccccccscsccccccccccccccccccccccccsszssccccccccccccccscccccccccscccsccscccsscccsccccscscsccsccscccccscccccscsccscccscscccccccccccscccscsccccsccccccccccccscccccccccccccccsccccccccccccscccccccccccsccscccsccccscccccscccccccccccscccccccccccccccscccsscccccccccccccccsccccccccccccccccccccccsccsccsccscscsccssccccccccccccccccccsccccscccccsccsccccscccccccccccccccssccccccccccccccsccccccccccccccccccccccccccccsscccccccsccccccccccccccccccccssccccccccccccsccccccssccccccccccssscccsscccccsccccsccccccccccccccscccsccssscccscccccccccccccscccccccccccccccccccccccccsccccccccccscccccccc" />&#10;		<g
   id="g11">&#10;			<g
   id="g9">&#10;				<circle
   cx="311.569"
   cy="178.504"
   r="6"
   id="circle9" />&#10;			</g>&#10;			<g
   id="g10">&#10;				<circle
   style="fill:#FFFFFF;"
   cx="313.069"
   cy="177.004"
   r="2.188"
   id="circle10" />&#10;			</g>&#10;		</g>&#10;		<g
   id="g14">&#10;			<g
   id="g12">&#10;				<circle
   cx="243.069"
   cy="178.504"
   r="6"
   id="circle11" />&#10;			</g>&#10;			<g
   id="g13">&#10;				<circle
   style="fill:#FFFFFF;"
   cx="244.569"
   cy="177.004"
   r="2.188"
   id="circle12" />&#10;			</g>&#10;		</g>&#10;	</g>&#10;</g>&#10;</svg>
