<?xml version="1.0" encoding="UTF-8" standalone="no"?>
<!-- Generator: Adobe Illustrator 27.5.0, SVG Export Plug-In . SVG Version: 6.00 Build 0)  -->

<svg
   version="1.1"
   x="0px"
   y="0px"
   viewBox="0 0 555.322 500"
   style="enable-background:new 0 0 555.322 500;"
   xml:space="preserve"
   id="svg95"
   sodipodi:docname="lion2.svg"
   inkscape:version="1.3 (0e150ed6c4, 2023-07-21)"
   xmlns:inkscape="http://www.inkscape.org/namespaces/inkscape"
   xmlns:sodipodi="http://sodipodi.sourceforge.net/DTD/sodipodi-0.dtd"
   xmlns="http://www.w3.org/2000/svg"
   xmlns:svg="http://www.w3.org/2000/svg"><defs
   id="defs95" /><sodipodi:namedview
   id="namedview95"
   pagecolor="#ffffff"
   bordercolor="#000000"
   borderopacity="0.25"
   inkscape:showpageshadow="2"
   inkscape:pageopacity="0.0"
   inkscape:pagecheckerboard="0"
   inkscape:deskcolor="#d1d1d1"
   inkscape:zoom="1"
   inkscape:cx="205"
   inkscape:cy="221.5"
   inkscape:window-width="2560"
   inkscape:window-height="1351"
   inkscape:window-x="1191"
   inkscape:window-y="187"
   inkscape:window-maximized="1"
   inkscape:current-layer="svg95" />&#10;<g
   id="BACKGROUND">&#10;	<rect
   style="fill:#FFFFFF;"
   width="555.582"
   height="500"
   id="rect1" />&#10;</g>&#10;<g
   id="OBJECTS">&#10;	<g
   id="g10">&#10;		<g
   id="g2">&#10;			<g
   id="g1">&#10;				<path
   style="fill:#1d1d1b"
   d="m 426.004,412.895 c 10.821,-4.655 25.5145,-9.463 31.4485,-19.592 l 0.293,1.154 c -4.82651,-0.36885 -2.64756,1.31882 -1.078,-3.315 l 15.216,-18.914 c 5.785,-6.36 7.5311,-14.96667 9.8905,-23.171 l 0.761,1.425 -5.769,-0.692 c -0.547,-0.066 -0.938,-0.563 -0.871,-1.109 0.032,-0.263 0.167,-0.493 0.355,-0.65 5.611,-4.67 9.678,-11.108 11.801,-18.093 2.129,-6.984 2.336,-14.588 0.283,-21.574 l 1.083,0.78 c -9.091,0.385 -18.153,1.805 -26.868,4.379 -8.694,2.596 -17.11,6.28 -24.513,11.491 l -0.023,-1.832 6.057,4.068 c 0.504,0.336 0.641,1.017 0.305,1.521 -0.091,0.137 -0.217,0.252 -0.349,0.332 -14.908,8.94 -21.16891,23.36249 -31.85191,37.09249 l -0.88466,-1.08421 -1.38043,-0.0453 0.01,0.006 c 0.465,0.282 0.613,0.888 0.331,1.353 -0.032,0.052 -0.071,0.104 -0.11,0.148 -2.963,3.287 -5.365,7.075 -7.239,11.109 -1.877,4.037 -3.231,8.319 -4.162,12.69 -1.866,8.767 -2.031,17.84 -1.717,26.855 l -0.809,-0.798 c 5.073,0.146 10.142,0.189 15.162,-0.262 5.008,-0.453 9.996,-1.4 14.607,-3.329 z m 0.536,1.265 c -4.785,2.042 -9.914,3.047 -15.021,3.548 -5.12,0.499 -10.251,0.49 -15.348,0.382 -0.438,-0.009 -0.789,-0.358 -0.809,-0.789 v -0.009 c -0.381,-9.071 -0.293,-18.283 1.554,-27.3 0.925,-4.5 2.312,-8.92 4.24,-13.116 1.928,-4.19 4.416,-8.156 7.514,-11.62 l 0.231,1.507 2.79963,0.61497 c -0.475,-0.283 -1.17969,-0.56619 -0.89769,-1.04019 1.4492,-1.18735 -0.61463,-0.014 -0.59163,-0.045 C 415.92179,356.12939 427.783,336.362 442.891,327.222 l -0.044,1.853 -6.072,-4.045 c -0.51,-0.34 -0.648,-1.03 -0.309,-1.54 0.078,-0.116 0.178,-0.216 0.285,-0.293 7.634,-5.392 16.242,-9.267 25.156,-11.856 8.923,-2.599 18.159,-4.008 27.424,-4.365 0.507,-0.021 0.947,0.314 1.083,0.78 2.154,7.439 1.892,15.454 -0.374,22.791 -2.262,7.338 -6.561,14.098 -12.517,19.02 l -0.517,-1.759 5.766,0.714 c 0.54,0.065 0.926,0.556 0.861,1.097 -0.014,0.115 -0.051,0.23 -0.1,0.329 -2.86915,8.17655 -4.3445,17.083 -10.2685,23.544 l -14.8435,19.14 0.1945,0.379 c 0.396,0.24 0.525,0.753 0.286,1.15 -6.231,10.381 -21.2535,15.288 -32.3865,19.941 z"
   id="path1"
   sodipodi:nodetypes="ccccccccccccccccccccccsccccccccccccccccccccccccccccccccccccccccc" />&#10;			</g>&#10;		</g>&#10;		<g
   id="g9">&#10;			<g
   id="g3">&#10;				<path
   style="fill:#1D1D1B;"
   d="M483.981,314.916l-9.919,12.143l-10.057,12.029c-6.73,7.999-13.575,15.898-20.425,23.794      c-6.896,7.855-13.829,15.678-20.844,23.428l-10.579,11.572l-10.717,11.444c-0.271,0.289-0.725,0.304-1.014,0.033      c-0.284-0.266-0.3-0.712-0.045-1.002l20.769-23.467c6.921-7.823,13.838-15.649,20.704-23.52      c6.912-7.83,13.741-15.733,20.599-23.612l20.52-23.686c0.236-0.275,0.651-0.307,0.926-0.071      C484.17,314.234,484.203,314.641,483.981,314.916z"
   id="path2" />&#10;			</g>&#10;			<g
   id="g4">&#10;				<path
   style="fill:#1D1D1B;"
   d="M465.563,365.298c-3.614,0.206-7.237-0.042-10.818-0.539c-3.577-0.517-7.126-1.298-10.532-2.53      c-0.374-0.135-0.568-0.548-0.433-0.923c0.119-0.327,0.451-0.516,0.783-0.468c3.534,0.514,7.013,1.127,10.515,1.648      c3.499,0.541,7.008,0.974,10.543,1.499c0.36,0.053,0.61,0.388,0.557,0.749C466.132,365.05,465.869,365.28,465.563,365.298z"
   id="path3" />&#10;			</g>&#10;			<g
   id="g5">&#10;				<path
   style="fill:#1D1D1B;"
   d="M463.233,335.997c-1.692-2.423-2.959-5.122-3.936-7.909c-0.958-2.793-1.621-5.704-1.761-8.659      c-0.019-0.398,0.289-0.737,0.687-0.756c0.337-0.016,0.631,0.204,0.726,0.513c0.843,2.753,1.616,5.472,2.523,8.162      c0.888,2.696,1.916,5.336,2.923,8.037c0.129,0.342-0.043,0.724-0.386,0.853C463.72,336.346,463.402,336.237,463.233,335.997z"
   id="path4" />&#10;			</g>&#10;			<g
   id="g6">&#10;				<path
   style="fill:#1D1D1B;"
   d="M432.417,371.55c-1.799-3.439-3.11-7.12-4.089-10.876c-0.959-3.761-1.579-7.622-1.637-11.505      c-0.006-0.398,0.312-0.725,0.709-0.731c0.352-0.005,0.648,0.244,0.716,0.575c0.773,3.734,1.518,7.431,2.438,11.098      c0.901,3.671,1.985,7.288,3.078,10.944c0.105,0.349-0.093,0.717-0.441,0.822C432.884,371.969,432.561,371.824,432.417,371.55z"
   id="path5" />&#10;			</g>&#10;			<g
   id="g7">&#10;				<path
   style="fill:#1D1D1B;"
   d="M414.117,392.083c-1.052-1.773-1.847-3.642-2.581-5.533c-0.713-1.899-1.349-3.827-1.715-5.854      c-0.072-0.396,0.191-0.775,0.587-0.846c0.308-0.056,0.606,0.092,0.756,0.347c1.047,1.775,1.824,3.65,2.524,5.554      c0.68,1.912,1.298,3.846,1.659,5.876c0.065,0.363-0.177,0.709-0.54,0.774C414.527,392.449,414.255,392.314,414.117,392.083z"
   id="path6" />&#10;			</g>&#10;			<g
   id="g8">&#10;				<path
   style="fill:#1D1D1B;"
   d="M430.6,402.731c-3.653,0.998-7.433,1.482-11.215,1.639c-3.784,0.137-7.592-0.064-11.308-0.806      c-0.39-0.078-0.644-0.457-0.565-0.847c0.068-0.343,0.372-0.581,0.71-0.579c3.721,0.011,7.399,0.056,11.085-0.064      c3.686-0.1,7.359-0.375,11.073-0.638c0.363-0.026,0.68,0.247,0.706,0.61C431.108,402.366,430.898,402.649,430.6,402.731z"
   id="path7" />&#10;			</g>&#10;		</g>&#10;	</g>&#10;	<g
   id="g75">&#10;		<g
   id="g11">&#10;			<path
   style="fill:#FFFFFF;"
   d="M340.709,246.87c18.643,24.583,30.66,31.255,46.386,51.309     c5.814,7.414,11.986,14.587,16.96,22.589c6.38,10.262,10.696,21.8,12.619,33.739c2.781,17.277-0.171,36.381-10.37,50.882     c-13.908,19.775-40.708,22.325-62.431,25.224c-32.655,4.357-39.206-3.522-40.759-7.281c-1.326-3.21-0.305-7.032,1.828-9.774     c2.132-2.742,8.493-4.363,11.622-5.872c-18.087-7.847-23.343-21.138-24.629-28.955"
   id="path10" />&#10;			<path
   style="fill:#1D1D1B;"
   d="M341.386,246.357c4.101,5.322,8.406,10.478,12.948,15.418c4.546,4.938,9.341,9.641,14.165,14.353     c4.824,4.712,9.607,9.525,14.059,14.65c2.222,2.556,4.379,5.206,6.47,7.838l6.334,7.882c4.206,5.286,8.327,10.743,11.715,16.703     c3.413,5.931,6.118,12.262,8.124,18.803c4.06,13.042,5.127,27.177,2.288,40.655c-0.682,3.371-1.646,6.688-2.855,9.915     c-0.569,1.628-1.292,3.196-1.98,4.779c-0.779,1.541-1.512,3.106-2.412,4.585c-0.829,1.518-1.818,2.94-2.776,4.381l-1.616,2.058     c-0.558,0.669-1.035,1.409-1.672,2.007l-1.82,1.878c-0.307,0.309-0.6,0.634-0.919,0.929l-0.996,0.844l-1.994,1.685     c-0.668,0.557-1.41,1.013-2.112,1.523c-5.699,3.979-12.108,6.768-18.666,8.697c-6.564,1.959-13.271,3.214-19.967,4.227     c-3.35,0.504-6.701,0.945-10.043,1.381c-3.325,0.445-6.711,0.852-10.092,1.195c-6.771,0.609-13.64,0.8-20.506-0.176     c-1.712-0.297-3.424-0.63-5.112-1.148c-0.85-0.219-1.672-0.594-2.508-0.887c-0.414-0.164-0.814-0.384-1.22-0.575     c-0.405-0.199-0.814-0.382-1.197-0.642c-1.576-0.898-3.048-2.141-4.143-3.732c-1.087-1.591-1.694-3.592-1.625-5.512     c0.042-1.924,0.597-3.767,1.479-5.401c0.224-0.408,0.464-0.806,0.727-1.19c0.262-0.381,0.532-0.749,0.908-1.145     c0.715-0.739,1.499-1.266,2.283-1.735c3.128-1.793,6.496-2.664,9.397-3.977l0.043,2.148c-3.063-1.417-6.061-3-8.84-4.948     c-2.762-1.963-5.332-4.214-7.568-6.773c-2.238-2.555-4.136-5.413-5.605-8.478c-1.486-3.059-2.508-6.331-3.061-9.69     c-0.083-0.506,0.259-0.983,0.765-1.066c0.502-0.083,0.975,0.253,1.065,0.752l0.002,0.013c0.563,3.161,1.57,6.25,3.013,9.124     c1.427,2.88,3.254,5.558,5.403,7.948c2.147,2.393,4.609,4.496,7.26,6.331c2.668,1.819,5.555,3.296,8.508,4.619l0.02,0.009     c0.594,0.266,0.86,0.963,0.594,1.557c-0.119,0.266-0.326,0.467-0.57,0.583c-1.633,0.774-3.216,1.322-4.767,1.944     c-1.545,0.61-3.064,1.244-4.407,2.031c-0.658,0.397-1.274,0.836-1.727,1.314c-0.206,0.215-0.439,0.524-0.651,0.839     c-0.21,0.314-0.403,0.639-0.582,0.97c-0.709,1.331-1.129,2.814-1.148,4.265c-0.033,1.46,0.401,2.823,1.213,4.019     c0.828,1.181,1.991,2.183,3.345,2.936c2.677,1.574,5.906,2.335,9.113,2.85c6.502,0.879,13.206,0.664,19.84,0.016     c3.321-0.351,6.629-0.749,9.984-1.207c3.339-0.443,6.671-0.888,9.985-1.393c6.624-1.015,13.199-2.265,19.555-4.176     c6.356-1.881,12.461-4.573,17.814-8.328c5.373-3.747,9.815-8.618,13.027-14.381c0.859-1.399,1.559-2.89,2.306-4.352     c0.658-1.507,1.354-2.999,1.901-4.554c1.164-3.079,2.096-6.253,2.759-9.486c0.686-3.227,1.167-6.505,1.38-9.805     c0.233-3.296,0.283-6.613,0.065-9.915c-0.367-6.603-1.642-13.165-3.562-19.517c-1.919-6.355-4.555-12.491-7.813-18.275     c-3.236-5.796-7.224-11.168-11.365-16.454l-6.273-7.928c-2.082-2.661-4.161-5.255-6.342-7.803     c-4.352-5.089-9.054-9.873-13.798-14.652c-4.757-4.77-9.529-9.573-14.05-14.613c-4.518-5.044-8.792-10.301-12.849-15.711     c-0.281-0.376-0.206-0.909,0.17-1.19C340.574,245.915,341.103,245.989,341.386,246.357z"
   id="path11" />&#10;		</g>&#10;		<g
   id="g13">&#10;			<path
   style="fill:#FFFFFF;"
   d="M435.165,247.893c-1.584,1.747-3.002,3.631-4.129,5.701c-2.57,4.718-3.504,10.158-3.849,15.52     c-0.936,14.535,2.154,28.98,4.115,43.413c1.96,14.432,2.716,29.576-2.619,43.128c-2.068,5.254-5.209,10.345-10.045,13.26     l-1.203-12.317c3.754-2.914,5.133-7.92,5.811-12.623c4.069-28.213-8.881-57.165-3.059-85.069     c1.184-5.675,3.302-11.442,7.644-15.284c0.544-0.481,1.125-0.93,1.738-1.326"
   id="path12" />&#10;			<path
   style="fill:#1D1D1B;"
   d="M435.795,248.465c-1.726,1.939-3.241,4.049-4.353,6.351c-1.12,2.303-1.872,4.786-2.367,7.325     c-0.493,2.543-0.751,5.144-0.856,7.763c-0.142,2.617-0.096,5.245-0.006,7.869c0.407,10.516,2.37,20.943,3.956,31.473     c1.6,10.518,2.709,21.313,1.453,32.105c-0.303,2.692-0.781,5.372-1.446,8.012c-0.63,2.651-1.513,5.234-2.534,7.777     c-1.062,2.53-2.365,4.996-4.037,7.253c-1.667,2.251-3.733,4.292-6.203,5.79c-0.698,0.423-1.607,0.2-2.03-0.498     c-0.118-0.194-0.186-0.415-0.208-0.626l-1.203-12.316c-0.052-0.52,0.184-1.012,0.565-1.313c1.705-1.315,2.925-3.247,3.748-5.398     c0.82-2.159,1.31-4.505,1.598-6.917c0.264-2.424,0.578-4.843,0.618-7.293c0.168-2.439,0.068-4.895,0.054-7.347     c-0.352-9.826-1.877-19.625-3.171-29.501c-1.317-9.86-2.382-19.9-1.719-29.98c0.275-2.51,0.437-5.03,0.957-7.509     c0.241-1.242,0.395-2.492,0.708-3.726c0.293-1.235,0.631-2.464,1.027-3.679c0.787-2.428,1.841-4.803,3.254-6.984     c1.415-2.186,3.252-4.102,5.467-5.578c0.426-0.284,1.002-0.169,1.287,0.257c0.28,0.421,0.172,0.988-0.241,1.275l-0.038,0.026     c-1.904,1.324-3.551,3.078-4.8,5.095c-1.255,2.017-2.202,4.24-2.905,6.552c-0.353,1.156-0.655,2.331-0.914,3.52     c-0.278,1.183-0.406,2.41-0.617,3.611c-0.462,2.403-0.572,4.858-0.797,7.293c-0.507,9.802,0.593,19.648,2.013,29.46     c1.409,9.814,2.983,19.706,3.366,29.771c0.023,2.52,0.131,5.037-0.034,7.563c-0.079,1.261-0.044,2.527-0.218,3.785l-0.403,3.779     c-0.296,2.518-0.806,5.085-1.745,7.579c-0.937,2.475-2.426,4.935-4.676,6.684l0.565-1.313l1.203,12.316l-2.237-1.124     c4.202-2.525,7.113-6.936,9.096-11.63c0.965-2.382,1.818-4.834,2.425-7.352c0.643-2.508,1.11-5.067,1.411-7.652     c1.252-10.364,0.209-20.929-1.244-31.39c-1.456-10.482-3.357-21.025-3.63-31.778c-0.043-2.684-0.042-5.374,0.154-8.06     c0.158-2.685,0.472-5.381,1.039-8.045c0.57-2.66,1.415-5.291,2.665-7.748c1.247-2.464,2.906-4.679,4.746-6.67     c0.318-0.345,0.856-0.366,1.201-0.048C436.078,247.589,436.102,248.119,435.795,248.465z"
   id="path13" />&#10;		</g>&#10;		<g
   id="g15">&#10;			<g
   id="g14">&#10;				<path
   style="fill:#1D1D1B;"
   d="M434.747,226.594l0.061,0.047c0.81,0.615,1.689,1.339,2.462,2.112l-1.488,0.267      c1.201-2.875,3.107-5.436,5.449-7.497c2.341-2.065,5.156-3.622,8.208-4.445c0.641-0.173,1.3,0.206,1.473,0.848      c0.016,0.057,0.026,0.115,0.033,0.172l0.003,0.033c0.045,0.4,0.25,0.808,0.541,1.078l-1.34-0.256l6.378-2.763l3.197-1.385      c0.291-0.122,0.635-0.264,1.069-0.356c0.427-0.095,0.982-0.117,1.511,0.037c1.058,0.315,1.724,1.068,2.11,1.852      c0.4,0.839,0.451,1.645,0.428,2.356c-0.03,0.719-0.14,1.302-0.233,1.904c-0.208,1.2-0.489,2.387-0.843,3.553      c-0.713,2.329-1.718,4.568-2.993,6.65l-0.634-2.071c2.059,0.915,4.185,1.679,6.354,2.284c0.779,0.217,1.235,1.025,1.017,1.804      c-0.035,0.125-0.084,0.241-0.147,0.347l-0.011,0.018c-3.258,5.498-9.334,9.04-15.687,9.311l1.079-2.311l1.821,2.405      c0.115,0.175,0.293,0.437,0.381,0.886c0.102,0.453-0.048,1.041-0.257,1.347c-0.204,0.324-0.397,0.486-0.536,0.609l-0.33,0.264      c-0.417,0.333-0.853,0.64-1.295,0.933c-1.78,1.162-3.734,1.994-5.736,2.559c-1.997,0.559-4.074,0.898-6.21,0.846      c-2.135-0.041-4.296-0.572-6.21-1.556c-1.918-0.976-3.665-2.472-4.745-4.449c-0.54-0.981-0.899-2.067-1.053-3.172      c-0.149-1.119-0.131-2.13-0.038-3.192c0.187-2.095,0.776-4.142,1.73-6.006c0.47-0.936,1.039-1.823,1.697-2.64      c0.324-0.411,0.673-0.805,1.044-1.176l0.28-0.277c0.09-0.088,0.168-0.176,0.371-0.339      C433.989,226.951,434.394,226.739,434.747,226.594z M434.715,228.331l0,0.085c0.002,0.182,0.07,0.281,0.054,0.319      c0.016-0.005-0.078,0.083-0.159,0.171l-0.236,0.248c-0.314,0.331-0.608,0.682-0.88,1.049c-0.554,0.727-1.029,1.516-1.418,2.345      c-0.79,1.653-1.255,3.461-1.366,5.282c-0.059,0.894-0.039,1.859,0.1,2.683c0.141,0.835,0.431,1.634,0.857,2.361      c0.852,1.458,2.236,2.609,3.817,3.379c3.201,1.615,7.001,1.403,10.543,0.32c1.767-0.531,3.441-1.309,4.942-2.306      c0.373-0.252,0.739-0.514,1.086-0.796l0.244-0.197c0.047-0.037,0.033-0.048-0.042,0.066c-0.08,0.098-0.168,0.431-0.115,0.642      c0.042,0.207,0.097,0.249,0.073,0.223l-1.756-2.273c-0.485-0.628-0.369-1.529,0.258-2.013c0.243-0.188,0.527-0.285,0.812-0.298      l0.008,0c5.359-0.246,10.52-3.397,13.293-7.95l0.859,2.169c-2.302-0.663-4.554-1.493-6.734-2.483l-0.01-0.004      c-0.722-0.328-1.042-1.179-0.714-1.901c0.025-0.056,0.058-0.116,0.089-0.166c1.161-1.861,2.085-3.873,2.746-5.969      c0.327-1.049,0.59-2.118,0.787-3.199c0.212-1.114,0.312-2.134,0.066-2.577c-0.112-0.249-0.316-0.408-0.382-0.423      c-0.018-0.034-0.284-0.028-0.787,0.185l-3.211,1.306l-6.438,2.62l-0.025,0.01c-0.465,0.189-0.98,0.068-1.315-0.266      c-0.703-0.702-1.133-1.621-1.225-2.604l1.509,1.053c-2.691,0.673-5.241,1.979-7.42,3.75c-2.179,1.775-3.969,4.041-5.178,6.591      l-0.018,0.037c-0.213,0.45-0.75,0.641-1.199,0.428c-0.104-0.05-0.197-0.119-0.272-0.199c-0.462-0.494-0.818-1.037-1.243-1.689      L434.715,228.331z"
   id="path14" />&#10;			</g>&#10;		</g>&#10;		<g
   id="g37">&#10;			<g
   id="g16">&#10;				<path
   style="fill:#1D1D1B;"
   d="M353.654,269.92c0.655,0.09,1.172,0.425,1.609,0.83c0.425,0.417,0.775,0.925,0.868,1.581      c0.055,0.387-0.215,0.746-0.603,0.8c-0.127,0.018-0.251,0.001-0.362-0.043l-0.037-0.015c-0.561-0.227-0.929-0.553-1.279-0.913      c-0.338-0.373-0.653-0.758-0.878-1.324l-0.012-0.029c-0.133-0.334,0.03-0.712,0.364-0.846      C353.432,269.918,353.547,269.906,353.654,269.92z"
   id="path15" />&#10;			</g>&#10;			<g
   id="g17">&#10;				<path
   style="fill:#1D1D1B;"
   d="M355.538,276.711c0.674,0.07,1.222,0.386,1.696,0.775c0.463,0.402,0.859,0.896,1.014,1.556      c0.088,0.378-0.146,0.756-0.524,0.845c-0.132,0.031-0.265,0.022-0.385-0.018l-0.031-0.011c-0.594-0.203-1.003-0.522-1.396-0.878      c-0.381-0.369-0.738-0.754-1.011-1.323l-0.011-0.023c-0.155-0.322-0.019-0.708,0.303-0.862      C355.303,276.719,355.424,276.7,355.538,276.711z"
   id="path16" />&#10;			</g>&#10;			<g
   id="g18">&#10;				<path
   style="fill:#1D1D1B;"
   d="M360.617,275.401c0.536,0.047,0.918,0.27,1.259,0.538c0.329,0.282,0.612,0.617,0.729,1.14      c0.093,0.415-0.168,0.827-0.583,0.921c-0.08,0.018-0.162,0.022-0.239,0.015c-0.534-0.049-0.902-0.287-1.224-0.577      c-0.31-0.304-0.58-0.654-0.695-1.179c-0.084-0.382,0.158-0.76,0.54-0.843C360.475,275.399,360.549,275.395,360.617,275.401z"
   id="path17" />&#10;			</g>&#10;			<g
   id="g19">&#10;				<path
   style="fill:#1D1D1B;"
   d="M413.024,359.464c0.446,0.45,0.638,0.999,0.731,1.553c0.076,0.557,0.044,1.138-0.274,1.686      c-0.199,0.343-0.639,0.459-0.981,0.26c-0.103-0.06-0.185-0.14-0.244-0.233l-0.021-0.033c-0.314-0.494-0.407-0.955-0.461-1.433      c-0.036-0.479-0.04-0.956,0.145-1.515l0.009-0.029c0.114-0.346,0.487-0.534,0.833-0.419      C412.863,359.335,412.953,359.393,413.024,359.464z"
   id="path18" />&#10;			</g>&#10;			<g
   id="g20">&#10;				<path
   style="fill:#1D1D1B;"
   d="M410.205,365.663c0.461,0.651,0.581,1.452,0.51,2.213c-0.084,0.759-0.376,1.52-0.98,2.047      c-0.282,0.246-0.709,0.217-0.955-0.065c-0.104-0.119-0.159-0.265-0.166-0.412l-0.003-0.061      c-0.032-0.668,0.047-1.196,0.123-1.752c0.089-0.554,0.16-1.094,0.353-1.74l0.015-0.049c0.099-0.329,0.445-0.516,0.774-0.418      C410.014,365.468,410.128,365.554,410.205,365.663z"
   id="path19" />&#10;			</g>&#10;			<g
   id="g21">&#10;				<path
   style="fill:#1D1D1B;"
   d="M412.301,372.775c0.434,0.354,0.585,0.866,0.591,1.358c-0.007,0.491-0.173,1.003-0.627,1.335      c-0.332,0.243-0.797,0.17-1.04-0.162c-0.029-0.04-0.053-0.081-0.073-0.123l-0.061-0.132c-0.19-0.412-0.211-0.685-0.193-0.982      c0.032-0.296,0.088-0.577,0.306-0.982l0.057-0.105c0.18-0.335,0.597-0.46,0.931-0.281      C412.23,372.723,412.268,372.749,412.301,372.775z"
   id="path20" />&#10;			</g>&#10;			<g
   id="g22">&#10;				<path
   style="fill:#1D1D1B;"
   d="M298.485,381.41c0.48,0.242,0.751,0.589,0.967,0.964c0.2,0.383,0.337,0.798,0.251,1.327      c-0.068,0.42-0.465,0.705-0.885,0.637c-0.08-0.013-0.157-0.04-0.226-0.074c-0.477-0.243-0.73-0.6-0.92-0.988      c-0.174-0.396-0.294-0.82-0.205-1.35c0.065-0.386,0.431-0.647,0.816-0.582C298.354,381.356,298.423,381.379,298.485,381.41z"
   id="path21" />&#10;			</g>&#10;			<g
   id="g23">&#10;				<path
   style="fill:#1D1D1B;"
   d="M303,382.801c0.523,0.494,0.867,1.003,1.21,1.523c0.33,0.529,0.638,1.053,0.836,1.74l0.009,0.031      c0.103,0.36-0.104,0.736-0.464,0.84c-0.16,0.046-0.325,0.03-0.466-0.033c-0.723-0.325-1.238-0.902-1.619-1.541      c-0.368-0.648-0.624-1.375-0.576-2.165c0.021-0.343,0.316-0.605,0.66-0.584c0.151,0.009,0.287,0.072,0.389,0.168L303,382.801z"
   id="path22" />&#10;			</g>&#10;			<g
   id="g24">&#10;				<path
   style="fill:#1D1D1B;"
   d="M302.918,389.001c0.468,0.301,0.741,0.63,1,0.979c0.246,0.358,0.454,0.721,0.549,1.265      l0.01,0.059c0.068,0.392-0.193,0.765-0.585,0.833c-0.105,0.019-0.212,0.012-0.309-0.013c-0.605-0.16-1.026-0.572-1.329-1.041      c-0.29-0.479-0.485-1.032-0.393-1.65c0.054-0.362,0.392-0.611,0.753-0.557c0.095,0.014,0.182,0.048,0.258,0.096L302.918,389.001      z"
   id="path23" />&#10;			</g>&#10;			<g
   id="g25">&#10;				<path
   style="fill:#1D1D1B;"
   d="M308.264,390.509c0.668,0.186,1.177,0.543,1.644,0.944c0.455,0.415,0.862,0.881,1.098,1.531      c0.132,0.363-0.055,0.765-0.418,0.897c-0.143,0.052-0.293,0.055-0.429,0.016c-0.666-0.188-1.162-0.559-1.608-0.982      c-0.435-0.436-0.829-0.917-1.063-1.569c-0.12-0.334,0.054-0.702,0.388-0.822C308.006,390.477,308.141,390.475,308.264,390.509z"
   id="path24" />&#10;			</g>&#10;			<g
   id="g26">&#10;				<path
   style="fill:#1D1D1B;"
   d="M333.188,320.416c-0.405,0.47-0.799,0.762-1.205,1.06c-0.415,0.286-0.817,0.549-1.401,0.741      l-0.059,0.02c-0.362,0.12-0.753-0.078-0.872-0.44c-0.044-0.132-0.045-0.268-0.012-0.393c0.184-0.698,0.672-1.22,1.236-1.587      c0.572-0.355,1.244-0.586,1.956-0.484c0.347,0.05,0.588,0.372,0.539,0.719c-0.018,0.125-0.071,0.236-0.148,0.325      L333.188,320.416z"
   id="path25" />&#10;			</g>&#10;			<g
   id="g27">&#10;				<path
   style="fill:#1D1D1B;"
   d="M331.631,325.025c-0.173,0.514-0.482,0.836-0.825,1.109c-0.354,0.258-0.75,0.459-1.289,0.455      c-0.424-0.003-0.765-0.349-0.762-0.773c0-0.083,0.016-0.167,0.041-0.243c0.175-0.511,0.495-0.817,0.855-1.066      c0.372-0.234,0.778-0.418,1.32-0.412c0.39,0.004,0.702,0.324,0.697,0.714C331.667,324.883,331.653,324.957,331.631,325.025z"
   id="path26" />&#10;			</g>&#10;			<g
   id="g28">&#10;				<path
   style="fill:#1D1D1B;"
   d="M326.203,323.851c-0.044,0.42-0.223,0.648-0.436,0.827c-0.224,0.163-0.488,0.269-0.896,0.169      c-0.466-0.114-0.766-0.556-0.714-1.021c0.046-0.418,0.236-0.629,0.466-0.784c0.241-0.139,0.516-0.229,0.926-0.127      C325.975,323.022,326.248,323.426,326.203,323.851z"
   id="path27" />&#10;			</g>&#10;			<g
   id="g29">&#10;				<path
   style="fill:#1D1D1B;"
   d="M323.063,328.094c-0.427,0.639-0.911,1.106-1.406,1.574c-0.505,0.455-1.012,0.888-1.695,1.232      l-0.022,0.012c-0.332,0.167-0.736,0.034-0.903-0.298c-0.08-0.159-0.091-0.336-0.044-0.495c0.238-0.799,0.749-1.431,1.345-1.948      c0.606-0.504,1.305-0.916,2.126-1.048c0.336-0.054,0.654,0.175,0.708,0.511c0.025,0.16-0.013,0.315-0.096,0.44L323.063,328.094z      "
   id="path28" />&#10;			</g>&#10;			<g
   id="g30">&#10;				<path
   style="fill:#1D1D1B;"
   d="M194.941,333.575c0.355,0.429,0.458,0.901,0.48,1.368c0.003,0.467-0.086,0.941-0.444,1.367      c-0.269,0.32-0.745,0.361-1.065,0.093c-0.063-0.053-0.115-0.114-0.157-0.181l-0.019-0.03c-0.274-0.447-0.319-0.851-0.311-1.261      c0.026-0.41,0.096-0.816,0.378-1.261l0.015-0.023c0.206-0.324,0.636-0.42,0.96-0.214      C194.84,333.471,194.896,333.521,194.941,333.575z"
   id="path29" />&#10;			</g>&#10;			<g
   id="g31">&#10;				<path
   style="fill:#1D1D1B;"
   d="M197.56,338.116c0.343,0.395,0.451,0.804,0.499,1.216c0.03,0.413-0.011,0.831-0.301,1.263      c-0.241,0.359-0.727,0.454-1.086,0.213c-0.059-0.039-0.113-0.088-0.157-0.14c-0.339-0.395-0.429-0.805-0.447-1.219      c-0.001-0.415,0.06-0.833,0.353-1.266c0.224-0.329,0.671-0.414,1-0.19C197.472,338.027,197.52,338.071,197.56,338.116z"
   id="path30" />&#10;			</g>&#10;			<g
   id="g32">&#10;				<path
   style="fill:#1D1D1B;"
   d="M195.078,342.06c0.343,0.42,0.451,0.854,0.5,1.29c0.03,0.438-0.011,0.879-0.301,1.335      c-0.228,0.357-0.702,0.462-1.06,0.234c-0.071-0.045-0.134-0.103-0.184-0.165c-0.339-0.42-0.429-0.855-0.447-1.293      c-0.001-0.44,0.059-0.882,0.354-1.338c0.211-0.327,0.647-0.421,0.975-0.21C194.976,341.953,195.032,342.005,195.078,342.06z"
   id="path31" />&#10;			</g>&#10;			<g
   id="g33">&#10;				<path
   style="fill:#1D1D1B;"
   d="M263.571,350.953c0.393,0.326,0.532,0.741,0.577,1.154c0.028,0.414-0.047,0.846-0.4,1.214      c-0.302,0.315-0.803,0.326-1.118,0.024c-0.027-0.026-0.052-0.054-0.075-0.083l-0.047-0.061      c-0.282-0.364-0.342-0.669-0.353-0.989c0.007-0.321,0.053-0.637,0.298-1.031l0.033-0.052c0.212-0.342,0.662-0.447,1.004-0.235      C263.517,350.911,263.547,350.932,263.571,350.953z"
   id="path32" />&#10;			</g>&#10;			<g
   id="g34">&#10;				<path
   style="fill:#1D1D1B;"
   d="M260.538,355.023c0.313,0.37,0.392,0.736,0.41,1.102c0,0.365-0.071,0.729-0.392,1.089      c-0.303,0.339-0.823,0.369-1.162,0.066c-0.029-0.026-0.059-0.057-0.083-0.085c-0.31-0.37-0.37-0.736-0.358-1.101      c0.03-0.364,0.12-0.728,0.444-1.088c0.28-0.311,0.759-0.336,1.07-0.056C260.492,354.972,260.517,354.999,260.538,355.023z"
   id="path33" />&#10;			</g>&#10;			<g
   id="g35">&#10;				<path
   style="fill:#1D1D1B;"
   d="M263.415,359.162c0.368,0.298,0.48,0.674,0.501,1.041c0.004,0.367-0.094,0.746-0.463,1.043      c-0.357,0.288-0.881,0.232-1.169-0.126l-0.06-0.075c-0.266-0.33-0.311-0.586-0.303-0.854c0.025-0.268,0.092-0.528,0.365-0.859      l0.052-0.062C262.607,358.944,263.088,358.897,263.415,359.162z"
   id="path34" />&#10;			</g>&#10;			<g
   id="g36">&#10;				<path
   style="fill:#1D1D1B;"
   d="M260.822,364.981c0.289,0.482,0.343,0.95,0.338,1.413c-0.023,0.462-0.118,0.921-0.462,1.362      c-0.255,0.328-0.729,0.387-1.058,0.131c-0.076-0.059-0.139-0.132-0.185-0.21c-0.286-0.482-0.321-0.948-0.286-1.41      c0.053-0.461,0.167-0.917,0.515-1.359c0.236-0.301,0.672-0.352,0.973-0.116C260.723,364.846,260.78,364.912,260.822,364.981z"
   id="path35" />&#10;			</g>&#10;		</g>&#10;		<g
   id="g39">&#10;			<path
   style="fill:#FFFFFF;"
   d="M327.545,119.543c2.293,3.115,4.48,6.631,4.362,10.497c-0.117,3.866-3.299,7.828-7.153,7.495     c18.379,20.365,27.112,49.084,23.181,76.234c-0.996,6.88-5.172,15.381-12.027,14.222c6.725,13.303,6.111,29.586,0.35,43.334     c-4.128,9.851-10.677,18.487-18.471,25.848c-14.713,13.897-34.113,22.617-54.137,19.685c-4.606-0.674-9.219-1.92-13.109-4.477     s-6.994-6.574-7.649-11.182c2.8,4.468,11.297,2.914,13.499-1.877c1.984-4.317-0.668-9.504-4.381-12.468     c-6.779-5.411-17.225-5.597-24.193-0.431c-6.968,5.166-9.825,15.215-6.618,23.274c-12.405,0.098-24.979-2.065-36.078-7.606     c-11.099-5.541-20.636-14.641-25.466-26.067c0,0-1.501,4-2.146,11.866l-0.493,7.652c-10.753-10.324-19.676-22.959-23.618-37.335     c-3.942-14.376-2.454-30.602,5.928-42.928c-6.947,0.267-9.993-8.701-10.095-15.652c-0.402-27.43,11.958-54.785,32.807-72.613     c-3.864-0.166-6.509-4.505-6.128-8.354c0.382-3.849,2.93-7.126,5.678-9.848c12.693-12.574,32.17-17.842,49.47-13.381     c3.708,0.956,6.69,3.247,10.097,4.995c-3.061-5.257-7.259-9.848-12.222-13.367c8.447-2.504,17.728-0.706,25.603,3.246     c7.875,3.951,14.552,9.904,20.872,16.043c-0.504-3.222-1.279-6.402-2.316-9.495c5.477,1.778,10.724,4.262,15.571,7.371     C272.438,101.084,307.015,91.651,327.545,119.543z"
   id="path37" />&#10;			<g
   id="g38">&#10;				<path
   style="fill:#1D1D1B;"
   d="M328.23,119.038c1.156,1.564,2.275,3.203,3.144,5.023c0.866,1.809,1.467,3.848,1.413,5.955      c-0.061,2.155-0.903,4.208-2.291,5.825c-0.699,0.805-1.554,1.503-2.552,1.982c-0.993,0.48-2.141,0.718-3.267,0.618l0.754-1.517      c5.782,6.447,10.658,13.691,14.523,21.438c3.784,7.787,6.564,16.06,8.251,24.558c1.598,8.514,2.107,17.239,1.42,25.89      l-0.364,3.233c-0.115,1.075-0.233,2.152-0.447,3.264c-0.441,2.189-1.118,4.327-2.086,6.365c-0.965,2.029-2.246,3.991-4.103,5.52      c-1.789,1.587-4.477,2.36-6.911,1.949l1.235-1.677c3.171,6.288,4.763,13.289,4.964,20.273      c0.209,6.995-0.932,14.001-3.233,20.591c-2.287,6.604-5.713,12.758-9.857,18.332c-4.15,5.58-8.977,10.609-14.31,15.052      c-5.314,4.468-11.217,8.245-17.537,11.178c-6.342,2.855-13.124,4.898-20.103,5.526c-3.479,0.383-7,0.342-10.486,0.046      c-3.487-0.306-6.956-0.898-10.344-2.026c-3.365-1.126-6.656-2.855-9.289-5.421c-2.615-2.527-4.633-5.871-5.171-9.631      c-0.104-0.723,0.398-1.393,1.121-1.497c0.518-0.074,1.008,0.162,1.283,0.567l0.027,0.04c0.705,1.043,1.892,1.774,3.33,1.939      c1.412,0.192,2.959-0.007,4.32-0.592c1.35-0.574,2.602-1.464,3.259-2.639c0.703-1.162,0.933-2.638,0.722-4.07      c-0.439-2.911-2.396-5.698-4.888-7.521c-1.252-0.965-2.67-1.714-4.154-2.284c-1.482-0.574-3.042-0.977-4.634-1.146      c-3.176-0.394-6.443,0.031-9.41,1.171c-1.471,0.601-2.857,1.383-4.117,2.332c-1.266,0.944-2.352,2.12-3.313,3.379      c-3.805,5.085-4.967,12.228-2.628,18.11c0.286,0.719-0.065,1.534-0.785,1.82c-0.164,0.065-0.339,0.097-0.506,0.099      c-6.284,0.054-12.592-0.458-18.784-1.692c-6.187-1.232-12.26-3.197-17.941-6.027c-5.683-2.832-10.936-6.547-15.441-11.052      c-4.5-4.5-8.244-9.821-10.745-15.729l2.734-0.056c-0.466,1.361-0.838,2.996-1.135,4.544c-0.296,1.574-0.526,3.168-0.702,4.771      c-0.187,1.585-0.278,3.21-0.38,4.862l-0.314,4.92c-0.052,0.821-0.759,1.444-1.58,1.392c-0.365-0.023-0.693-0.178-0.938-0.414      c-5.436-5.231-10.384-11.01-14.523-17.363c-4.134-6.345-7.445-13.29-9.455-20.648c-2.008-7.363-2.631-15.11-1.692-22.704      c0.936-7.58,3.501-15.042,7.85-21.413l1.215,2.194c-2.534,0.1-5.185-1.054-6.785-2.897c-1.682-1.791-2.713-3.93-3.42-6.088      c-0.709-2.168-1.112-4.394-1.272-6.641c-0.071-1.144-0.051-2.23-0.028-3.314l0.05-3.263c0.42-8.693,2.04-17.309,4.717-25.577      c2.763-8.241,6.585-16.119,11.346-23.389c4.837-7.219,10.618-13.809,17.201-19.494l0.793,2.298      c-1.144-0.049-2.272-0.415-3.219-1.002c-0.953-0.585-1.737-1.366-2.355-2.232c-1.228-1.74-1.873-3.821-1.817-5.961      c0.084-2.118,0.788-4.072,1.763-5.796c0.982-1.725,2.216-3.228,3.524-4.603c2.662-2.678,5.532-5.11,8.677-7.173      c3.151-2.041,6.504-3.756,9.99-5.132c3.48-1.397,7.125-2.359,10.815-2.994c3.692-0.615,7.45-0.934,11.2-0.749      c3.755,0.162,7.461,0.706,11.132,1.651c3.852,1.09,6.897,3.42,10.024,5.01l-1.615,1.703c-2.969-5.106-7.042-9.577-11.857-13.006      c-0.54-0.382-0.667-1.128-0.285-1.668c0.161-0.227,0.39-0.382,0.637-0.456c4.423-1.307,9.107-1.469,13.596-0.799      c4.501,0.671,8.837,2.14,12.868,4.169c4.026,2.029,7.747,4.577,11.224,7.366c3.481,2.793,6.729,5.827,9.893,8.911l-1.852,0.958      c-0.488-3.162-1.243-6.284-2.255-9.321c-0.191-0.565,0.113-1.178,0.679-1.369c0.228-0.077,0.468-0.072,0.68-0.003      c5.562,1.816,10.887,4.349,15.803,7.516l-1.237,0.077c0.73-0.57,1.372-0.825,2.049-1.146c0.668-0.282,1.337-0.53,2.009-0.754      c1.346-0.438,2.703-0.801,4.07-1.104c2.734-0.603,5.506-0.97,8.29-1.156c5.565-0.36,11.191,0.064,16.629,1.375      c5.419,1.353,10.663,3.564,15.281,6.739c4.667,3.107,8.638,7.162,11.972,11.622L328.23,119.038z M326.798,120.093      c-3.238-4.294-7.065-8.174-11.549-11.133c-4.434-3.026-9.463-5.123-14.673-6.406c-5.229-1.239-10.658-1.631-16.027-1.263      c-2.684,0.188-5.36,0.554-7.978,1.141c-1.308,0.294-2.6,0.646-3.859,1.061c-0.627,0.212-1.242,0.443-1.837,0.696      c-0.561,0.258-1.189,0.556-1.539,0.84l-0.007,0.006c-0.361,0.294-0.859,0.308-1.231,0.071      c-4.776-3.052-9.946-5.487-15.337-7.226l1.359-1.372c1.062,3.148,1.858,6.386,2.376,9.668c0.095,0.599-0.314,1.162-0.914,1.256      c-0.352,0.056-0.699-0.069-0.938-0.298c-3.152-3.051-6.361-6.024-9.764-8.732c-3.399-2.707-6.998-5.146-10.851-7.07      c-3.839-1.916-7.959-3.288-12.178-3.901c-4.211-0.613-8.54-0.436-12.576,0.774l0.352-2.124c5.11,3.609,9.432,8.32,12.586,13.728      c0.341,0.582,0.145,1.331-0.438,1.672c-0.372,0.217-0.819,0.212-1.177,0.031c-3.372-1.738-6.303-3.919-9.571-4.81      c-3.426-0.873-6.999-1.397-10.563-1.541c-3.572-0.172-7.158,0.143-10.681,0.735c-3.521,0.612-6.999,1.536-10.317,2.877      c-3.323,1.319-6.515,2.961-9.511,4.908c-2.983,1.963-5.718,4.297-8.215,6.814c-1.211,1.277-2.31,2.635-3.139,4.1      c-0.825,1.453-1.365,3.058-1.42,4.61c-0.044,1.52,0.451,3.116,1.341,4.361c0.886,1.254,2.194,2.094,3.573,2.141      c0.718,0.024,1.281,0.627,1.257,1.346c-0.013,0.375-0.183,0.708-0.445,0.936l-0.019,0.017      c-6.381,5.532-11.988,11.948-16.679,18.976c-4.616,7.079-8.32,14.75-10.991,22.767c-2.586,8.043-4.142,16.416-4.535,24.848      l-0.042,3.164c-0.02,1.06-0.036,2.115,0.028,3.112c0.148,2.025,0.521,4.045,1.148,5.95c0.618,1.902,1.535,3.701,2.804,5.037      c1.242,1.39,2.898,2.044,4.65,2.017l0.032,0c0.776-0.012,1.415,0.607,1.427,1.382c0.004,0.301-0.085,0.581-0.243,0.812      c-4.057,5.965-6.469,12.992-7.342,20.182c-0.878,7.2-0.273,14.586,1.653,21.588c1.932,7.024,5.118,13.688,9.123,19.809      c4.008,6.128,8.822,11.733,14.127,16.819l-2.518,0.979l0.322-4.936c0.105-1.634,0.2-3.297,0.4-4.982      c0.187-1.669,0.43-3.335,0.746-4.996c0.334-1.681,0.677-3.27,1.28-5.024c0.262-0.76,1.09-1.165,1.851-0.903      c0.406,0.14,0.71,0.441,0.866,0.807l0.017,0.041c2.328,5.529,5.837,10.549,10.093,14.821c4.259,4.276,9.255,7.827,14.665,10.536      c5.421,2.714,11.246,4.615,17.216,5.815c5.973,1.202,12.09,1.714,18.204,1.672l-1.291,1.919      c-2.704-6.92-1.345-14.954,3.02-20.803c1.109-1.451,2.372-2.807,3.852-3.91c1.471-1.107,3.086-2.011,4.784-2.697      c3.418-1.31,7.128-1.775,10.741-1.324c1.809,0.198,3.589,0.657,5.29,1.319c1.701,0.658,3.337,1.527,4.795,2.65      c1.505,1.084,2.792,2.481,3.835,4.026c1.021,1.565,1.81,3.334,2.089,5.281c0.277,1.938-0.011,4.039-1.082,5.818      c-1.059,1.816-2.775,2.983-4.541,3.733c-1.786,0.749-3.749,1.024-5.72,0.755c-1.955-0.221-4.012-1.332-5.189-3.162l2.431-0.889      c0.427,3.054,2.101,5.91,4.382,8.12c2.278,2.23,5.188,3.788,8.291,4.833c3.106,1.044,6.426,1.625,9.75,1.921      c3.323,0.287,6.678,0.336,10.002-0.026c6.667-0.583,13.179-2.53,19.299-5.27c6.099-2.817,11.827-6.461,16.995-10.791      c5.185-4.301,9.912-9.208,13.937-14.602c4.025-5.39,7.341-11.332,9.545-17.661c2.222-6.32,3.327-13.046,3.139-19.731      c-0.18-6.678-1.688-13.333-4.675-19.288c-0.29-0.577-0.057-1.279,0.52-1.568c0.224-0.112,0.467-0.146,0.697-0.111l0.019,0.003      c1.798,0.268,3.614-0.199,5.06-1.451c1.473-1.192,2.631-2.884,3.503-4.711c0.881-1.829,1.521-3.801,1.935-5.809      c0.197-0.993,0.319-2.045,0.437-3.1l0.373-3.152c0.712-8.436,0.261-16.967-1.259-25.306c-1.608-8.324-4.288-16.44-7.956-24.09      c-3.748-7.609-8.489-14.73-14.12-21.077l-0.013-0.015c-0.332-0.374-0.297-0.946,0.077-1.278c0.196-0.174,0.449-0.247,0.69-0.224      c1.596,0.159,3.197-0.671,4.314-1.962c1.124-1.287,1.831-2.997,1.881-4.694c0.055-1.754-0.437-3.517-1.217-5.17      c-0.781-1.66-1.829-3.224-2.949-4.754L326.798,120.093z"
   id="path38" />&#10;			</g>&#10;		</g>&#10;		<g
   id="g40">&#10;			<path
   style="fill:#1D1D1B;"
   d="M300.325,330.368l-6.101,41.488l-6.261,41.462l-1.592,10.362c-0.07,0.44-0.134,0.872-0.171,1.213     c-0.029,0.374-0.045,0.756-0.036,1.151c0.016,0.788,0.102,1.613,0.204,2.468c0.204,1.687,0.478,3.609,0.232,5.553     c-0.053,0.469-0.125,0.969-0.262,1.493c-0.128,0.502-0.359,1.118-0.639,1.542c-0.494,0.952-1.239,1.73-2.013,2.402     c-1.601,1.31-3.443,2.043-5.255,2.518c-3.657,0.942-7.285,0.934-10.801,0.929c-3.544-0.031-7.093-0.229-10.648-0.746     c-1.777-0.261-3.558-0.608-5.333-1.142c-1.766-0.541-3.57-1.225-5.215-2.6c-0.8-0.708-1.55-1.696-1.855-2.895l-0.113-0.443     l-0.047-0.368c-0.029-0.246-0.068-0.491-0.085-0.736c-0.022-0.492-0.056-0.985-0.024-1.475c0.057-1.965,0.573-3.861,1.335-5.603     c0.773-1.744,1.812-3.34,3.051-4.762c0.309-0.355,0.633-0.698,0.966-1.032l0.958-0.914c0.57-0.552,1.071-1.145,1.565-1.809     l-0.283,0.798l0.957-21.983l1.016-21.981c0.648-14.655,1.442-29.304,2.163-43.956c0.025-0.512,0.46-0.907,0.973-0.881     c0.506,0.025,0.898,0.453,0.882,0.957c-0.488,14.662-0.903,29.326-1.464,43.985l-0.797,21.99l-0.857,21.987     c-0.012,0.297-0.113,0.57-0.278,0.792l-0.005,0.006c-0.545,0.74-1.172,1.49-1.857,2.154l-0.936,0.898     c-0.282,0.285-0.559,0.579-0.821,0.883c-1.055,1.216-1.935,2.583-2.574,4.038c-0.63,1.453-1.039,2.998-1.075,4.531     c-0.027,0.384,0.006,0.763,0.02,1.144c0.014,0.189,0.047,0.376,0.069,0.564l0.035,0.282l0.059,0.189     c0.128,0.501,0.457,0.98,0.957,1.43c1.048,0.883,2.563,1.524,4.13,1.982c1.574,0.469,3.233,0.793,4.913,1.034     c3.365,0.473,6.81,0.668,10.251,0.719c3.451,0.026,6.896,0.013,10.032-0.793c1.561-0.397,3.03-1.015,4.146-1.927     c0.534-0.47,1.033-0.97,1.34-1.581c0.351-0.532,0.458-1.134,0.562-1.951c0.205-1.539-0.001-3.119-0.21-4.892     c-0.101-0.879-0.198-1.795-0.213-2.754c-0.009-0.479,0.011-0.971,0.054-1.467c0.059-0.527,0.129-0.958,0.197-1.381l1.633-10.355     l6.642-41.404l6.802-41.378c0.076-0.463,0.513-0.777,0.977-0.701C300.08,329.48,300.392,329.91,300.325,330.368z"
   id="path39" />&#10;		</g>&#10;		<g
   id="g41">&#10;			<path
   style="fill:#1D1D1B;"
   d="M236.006,324.591c-1.905,13.553-3.813,27.107-5.848,40.643     c-2.051,13.533-4.15,27.059-6.325,40.573l-1.661,10.13l-0.417,2.532c-0.128,0.804-0.291,1.784-0.567,2.683     c-0.535,1.814-1.425,3.506-2.587,4.998c-1.154,1.491-2.649,2.772-4.337,3.666c-1.64,0.883-3.395,1.485-5.16,1.889     c-3.55,0.801-7.08,0.9-10.588,0.788c-3.528-0.151-6.981-0.588-10.469-1.463c-1.749-0.474-3.59-1.162-5.164-2.463     c-1.595-1.299-2.647-3.135-3.187-4.991c-0.533-1.877-0.676-3.782-0.391-5.719c0.286-1.914,1.031-3.782,2.175-5.347     c1.133-1.576,2.608-2.852,4.205-3.817c1.6-0.97,3.31-1.653,5.038-2.193l-1.04,1.456c-0.331-8.696-0.56-17.39-0.752-26.082     c-0.204-8.692-0.292-17.384-0.422-26.073l-0.375-26.062c-0.126-8.686-0.289-17.369-0.554-26.048     c-0.016-0.512,0.386-0.94,0.899-0.957c0.506-0.016,0.931,0.379,0.956,0.883c0.422,8.688,0.741,17.378,1.023,26.067     c0.296,8.689,0.465,17.379,0.682,26.067l0.634,26.056c0.216,8.683,0.47,17.362,0.825,26.033c0.027,0.675-0.408,1.261-1.024,1.451     l-0.016,0.004c-3.059,0.945-5.961,2.483-7.683,4.929c-1.758,2.388-2.174,5.635-1.329,8.51c0.423,1.417,1.168,2.667,2.233,3.545     c1.069,0.901,2.499,1.482,4.036,1.9c3.146,0.803,6.515,1.254,9.819,1.401c3.317,0.122,6.691,0.023,9.828-0.68     c1.568-0.354,3.079-0.871,4.457-1.607c1.337-0.703,2.504-1.69,3.45-2.899c0.943-1.201,1.681-2.586,2.118-4.055     c0.227-0.738,0.35-1.449,0.495-2.332l0.426-2.53l1.698-10.119c2.283-13.489,4.533-26.983,6.711-40.489l6.508-40.526     c0.073-0.464,0.508-0.781,0.972-0.708C235.754,323.705,236.068,324.134,236.006,324.591z"
   id="path40" />&#10;		</g>&#10;		<g
   id="g42">&#10;			<path
   style="fill:#1D1D1B;"
   d="M254.815,365.197c-4.649-2.518-8.892-5.818-12.632-9.594c-3.728-3.791-6.954-8.064-9.493-12.687     c-0.248-0.451-0.083-1.018,0.368-1.266c0.401-0.22,0.894-0.113,1.172,0.23c3.271,4.024,6.508,7.986,10.077,11.642     c3.547,3.678,7.419,7.009,11.449,10.259c0.367,0.295,0.425,0.833,0.13,1.2C255.625,365.307,255.171,365.389,254.815,365.197z"
   id="path41" />&#10;		</g>&#10;		<g
   id="g43">&#10;			<path
   style="fill:#1D1D1B;"
   d="M316.801,406.978c1.59,0.77,3.351,1.452,5.095,2c1.759,0.545,3.532,1.051,5.345,1.377     c3.612,0.694,7.279,1.09,10.958,1.071c0.918,0.003,1.838-0.062,2.757-0.088l1.379-0.053l1.372-0.155l2.75-0.288     c0.907-0.166,1.816-0.326,2.729-0.47l1.369-0.223l1.35-0.322l2.703-0.657c1.803-0.447,3.554-1.083,5.366-1.564l0.082-0.022     c0.495-0.132,1.002,0.163,1.133,0.657c0.12,0.448-0.112,0.907-0.524,1.087c-0.878,0.384-1.764,0.757-2.656,1.117     c-0.896,0.347-1.768,0.774-2.691,1.055l-2.771,0.841l-1.39,0.414l-1.417,0.315c-0.944,0.214-1.893,0.413-2.843,0.605     l-2.885,0.383l-1.446,0.172l-1.456,0.068c-0.971,0.031-1.941,0.119-2.914,0.101c-3.889-0.025-7.782-0.495-11.548-1.466     c-1.887-0.465-3.732-1.095-5.54-1.801c-1.793-0.784-3.531-1.577-5.211-2.714c-0.389-0.263-0.491-0.791-0.228-1.18     c0.24-0.354,0.7-0.47,1.073-0.289L316.801,406.978z"
   id="path42" />&#10;		</g>&#10;		<g
   id="g44">&#10;			<path
   style="fill:#1D1D1B;"
   d="M322.348,423.608c-0.476,0.644-0.604,0.994-0.75,1.658l-0.452,2.043     c-0.292,1.366-0.517,2.729-0.852,4.141l-0.003,0.009c-0.081,0.342-0.424,0.553-0.766,0.472c-0.25-0.06-0.431-0.26-0.477-0.497     c-0.296-1.51-0.184-3.065,0.149-4.554c0.179-0.746,0.4-1.472,0.708-2.184c0.154-0.366,0.361-0.776,0.678-1.144     c0.328-0.35,0.659-0.594,0.987-0.778l0.029-0.017c0.279-0.156,0.632-0.057,0.789,0.222     C322.503,423.185,322.479,423.43,322.348,423.608z"
   id="path43" />&#10;		</g>&#10;		<g
   id="g45">&#10;			<path
   style="fill:#1D1D1B;"
   d="M313.026,419.959c0.09,0.395-0.112,0.677-0.199,0.801c-0.119,0.148-0.167,0.2-0.217,0.273     c-0.108,0.141-0.206,0.29-0.298,0.441c-0.192,0.295-0.359,0.603-0.517,0.917c-0.305,0.632-0.554,1.299-0.744,1.993     c-0.398,1.388-0.58,2.903-1.005,4.465c-0.092,0.338-0.441,0.538-0.779,0.446c-0.255-0.07-0.432-0.287-0.463-0.534     c-0.202-1.595-0.155-3.269,0.332-4.936c0.254-0.827,0.613-1.64,1.134-2.363c0.255-0.364,0.554-0.701,0.884-1.002     c0.169-0.147,0.344-0.287,0.527-0.415c0.092-0.065,0.196-0.141,0.214-0.136c0.044-0.018-0.038,0.076,0.012,0.269     c-0.06-0.309,0.142-0.609,0.451-0.669C312.666,419.449,312.966,419.65,313.026,419.959z"
   id="path44" />&#10;		</g>&#10;		<g
   id="g47">&#10;			<g
   id="g46">&#10;				<path
   style="fill:#1D1D1B;"
   d="M284.598,145.978c5.591,6.529,9.202,14.411,12.083,22.325c2.83,7.94,5.419,16.015,6.874,24.408      c1.433,8.349,1.729,17.142-0.65,25.504c-0.152,0.519-0.277,1.046-0.452,1.559l-0.562,1.525c-0.191,0.507-0.368,1.02-0.572,1.521      l-0.69,1.474c-0.853,1.998-2.031,3.845-3.241,5.641c-1.235,1.787-2.653,3.435-4.14,5.007c-1.508,1.555-3.137,2.98-4.83,4.321      c-6.832,5.303-14.999,8.688-23.363,10.428c-8.385,1.778-16.955,2.098-25.407,1.83c-8.449-0.283-16.945-1.068-25.259-3.027      c-8.3-1.936-16.431-5.086-23.564-9.993c-7.109-4.879-13.051-11.547-16.823-19.387c-1.892-3.914-3.094-8.177-3.557-12.52      c-0.281-2.171-0.256-4.361-0.129-6.527c0.133-2.168,0.438-4.317,0.879-6.425c1.756-8.471,5.315-16.233,8.696-23.917      c3.461-7.67,7.393-15.396,13.193-21.808c11.485-12.81,28.324-20.415,45.447-20.864c8.591-0.137,17.08,1.628,25.028,4.686      c3.971,1.547,7.811,3.454,11.398,5.787c3.582,2.331,6.909,5.111,9.699,8.404L284.598,145.978z M283.242,147.13      c-5.378-6.211-12.735-10.525-20.426-13.465c-7.729-2.904-16.01-4.542-24.228-4.338c-16.448,0.586-32.674,7.997-43.585,20.293      c-5.493,6.117-9.28,13.59-12.671,21.197c-3.341,7.668-6.788,15.339-8.409,23.376c-0.412,2.003-0.688,4.025-0.803,6.049      c-0.109,2.021-0.126,4.053,0.145,6.049c0.445,3.999,1.566,7.938,3.348,11.58c3.536,7.303,9.192,13.557,15.902,18.189      c6.718,4.65,14.513,7.716,22.541,9.605c8.045,1.918,16.361,2.715,24.686,3.014c8.316,0.285,16.664-0.017,24.737-1.708      c8.053-1.671,15.819-4.827,22.324-9.805c1.607-1.257,3.153-2.589,4.58-4.042c1.405-1.468,2.747-3.002,3.911-4.665      c1.141-1.674,2.253-3.378,3.06-5.246l0.657-1.373c0.194-0.469,0.361-0.949,0.544-1.423l0.538-1.426      c0.167-0.479,0.287-0.976,0.433-1.463c2.3-7.844,2.089-16.284,0.768-24.439c-1.319-8.192-3.781-16.215-6.494-24.115      c-2.752-7.85-6.191-15.55-11.5-21.896L283.242,147.13z"
   id="path45" />&#10;			</g>&#10;		</g>&#10;		<g
   id="g48">&#10;			<path
   style="fill:#1D1D1B;"
   d="M205.451,138.244c1.116-2.05,1.436-4.505,0.909-6.733c-0.489-2.242-1.851-4.168-3.744-5.396     c-1.888-1.218-4.179-1.786-6.346-1.432c-2.193,0.351-4.259,1.534-6.005,3.113c-1.746,1.582-3.283,3.512-4.358,5.608     c-1.111,2.082-1.716,4.386-1.529,6.585c0.268,4.389,5.063,7.994,9.6,7.27l0.012-0.002c0.506-0.081,0.982,0.264,1.064,0.77     c0.076,0.476-0.228,0.925-0.684,1.046c-2.798,0.727-5.812,0.021-8.202-1.541c-1.188-0.809-2.229-1.855-3.023-3.094     c-0.799-1.238-1.31-2.687-1.502-4.127c-0.391-2.93,0.415-5.79,1.642-8.246c1.266-2.468,2.949-4.642,5.012-6.491     c2.074-1.813,4.643-3.283,7.554-3.704c2.919-0.419,5.944,0.365,8.269,2.067c2.351,1.663,4.047,4.315,4.493,7.136     c0.437,2.805-0.12,5.754-1.719,8.073c-0.267,0.387-0.796,0.484-1.184,0.217c-0.361-0.248-0.47-0.727-0.267-1.104L205.451,138.244     z"
   id="path47" />&#10;		</g>&#10;		<g
   id="g49">&#10;			<path
   style="fill:#1D1D1B;"
   d="M280.032,143.54c-1.483-2.522-1.797-5.722-0.834-8.572c0.493-1.416,1.32-2.748,2.387-3.812     c1.041-1.077,2.292-1.914,3.623-2.564c2.668-1.269,5.817-1.657,8.768-0.828c2.944,0.81,5.414,2.729,7.234,4.969     c1.801,2.276,3.111,4.857,3.847,7.683c0.342,1.417,0.522,2.895,0.459,4.392c-0.07,1.497-0.421,3.01-1.066,4.393     c-0.33,0.671-0.713,1.372-1.223,1.98c-0.494,0.609-1.056,1.143-1.656,1.606c-1.204,0.925-2.55,1.579-3.943,2.015     c-1.398,0.422-2.845,0.635-4.297,0.627c-1.45-0.006-2.918-0.248-4.292-0.823c-0.473-0.198-0.696-0.742-0.498-1.215     c0.185-0.442,0.672-0.666,1.122-0.531l0.028,0.008c2.289,0.693,4.896,0.491,7.167-0.361c2.29-0.829,4.283-2.327,5.094-4.426     c0.436-1.065,0.663-2.21,0.706-3.384c0.025-1.178-0.14-2.377-0.448-3.554c-0.623-2.351-1.802-4.632-3.316-6.551     c-1.512-1.917-3.462-3.443-5.699-4.096c-2.21-0.673-4.697-0.397-6.899,0.503c-2.2,0.943-4.091,2.583-4.952,4.768     c-0.916,2.174-0.823,4.763,0.193,6.979l0.003,0.007c0.196,0.427,0.009,0.933-0.418,1.129     C280.721,144.065,280.251,143.91,280.032,143.54z"
   id="path48" />&#10;		</g>&#10;		<path
   style="fill:#1D1D1B;"
   d="M268.023,186.725c-0.156,2.406-1.653,4.268-3.345,4.159c-1.692-0.109-2.938-2.149-2.782-4.555    c0.156-2.406,1.653-4.268,3.345-4.159C266.933,182.279,268.179,184.318,268.023,186.725z"
   id="path49" />&#10;		<path
   style="fill:#1D1D1B;"
   d="M215.792,183.174c-0.156,2.406-1.653,4.268-3.345,4.159c-1.692-0.109-2.938-2.149-2.782-4.555    c0.156-2.406,1.653-4.268,3.345-4.159C214.702,178.728,215.947,180.767,215.792,183.174z"
   id="path50" />&#10;		<g
   id="g52">&#10;			<g
   id="g51">&#10;				<path
   style="fill:#1D1D1B;"
   d="M247.099,195.362c1.322,0.323,2.755,0.758,3.864,2.108c0.54,0.68,0.835,1.645,0.722,2.549      c-0.103,0.912-0.512,1.667-0.944,2.276c-0.437,0.612-0.947,1.118-1.41,1.574c-0.466,0.458-0.941,0.908-1.423,1.35      c-0.964,0.884-1.958,1.737-2.981,2.555c-1.016,0.806-2.089,1.66-3.406,2.301c-1.288,0.656-2.907,1.048-4.437,0.91      c-3.075-0.234-5.696-2.001-7.544-4.051c-0.946-1.025-1.713-2.147-2.435-3.252c-0.733-1.15-1.462-2.418-1.758-4.029      c-0.138-0.8-0.141-1.723,0.179-2.607c0.294-0.879,0.916-1.665,1.617-2.165c1.412-1.039,3.08-1.234,4.435-1.242      c2.651,0.053,5.147,0.096,7.775,0.303c2.599,0.205,5.227,0.591,7.766,1.345L247.099,195.362z M246.638,197.08      c-4.813-1.163-9.946-0.87-14.985-0.818c-1.178,0.048-2.174,0.289-2.827,0.827c-0.622,0.527-0.826,1.134-0.659,2.063      c0.175,0.919,0.722,1.942,1.384,2.92c0.686,1.032,1.416,1.997,2.189,2.87c0.773,0.872,1.631,1.633,2.567,2.186      c0.94,0.563,1.981,0.928,3.005,1.024c2.028,0.253,3.969-0.983,6.005-2.479c1.011-0.737,1.996-1.509,2.956-2.314      c0.938-0.806,1.972-1.656,2.638-2.45c0.687-0.83,0.865-1.556,0.417-2.25c-0.468-0.715-1.564-1.296-2.67-1.655L246.638,197.08z"
   id="path51" />&#10;			</g>&#10;		</g>&#10;		<g
   id="g53">&#10;			<path
   style="fill:#1D1D1B;"
   d="M245.482,176.455c0.381,1.417,0.693,2.841,1.005,4.264c0.324,1.421,0.6,2.85,0.89,4.275     c0.277,1.428,0.558,2.855,0.798,4.292c0.245,1.436,0.494,2.872,0.666,4.329c0.041,0.344-0.205,0.656-0.548,0.697     c-0.295,0.035-0.567-0.142-0.664-0.411c-0.5-1.388-0.893-2.805-1.261-4.227c-0.372-1.422-0.674-2.86-0.95-4.302     c-0.263-1.445-0.511-2.893-0.68-4.353c-0.181-1.458-0.331-2.921-0.384-4.395c-0.011-0.317,0.236-0.583,0.553-0.594     C245.179,176.02,245.414,176.203,245.482,176.455z"
   id="path52" />&#10;		</g>&#10;		<g
   id="g54">&#10;			<path
   style="fill:#1D1D1B;"
   d="M234.474,176.174c-0.242,1.456-0.58,2.886-0.947,4.309c-0.357,1.426-0.788,2.831-1.235,4.229     c-0.46,1.395-0.944,2.782-1.497,4.144c-0.548,1.363-1.121,2.717-1.795,4.03c-0.158,0.308-0.536,0.429-0.844,0.271     c-0.265-0.136-0.391-0.435-0.321-0.711c0.358-1.422,0.791-2.814,1.218-4.206c0.424-1.394,0.886-2.773,1.345-4.154     c0.471-1.377,0.929-2.757,1.433-4.125c0.493-1.372,0.986-2.744,1.546-4.1c0.121-0.293,0.456-0.433,0.75-0.312     C234.379,175.653,234.517,175.916,234.474,176.174z"
   id="path53" />&#10;		</g>&#10;		<g
   id="g55">&#10;			<path
   style="fill:#1D1D1B;"
   d="M258.318,203.08c2.966,0.109,5.717,1.757,7.52,4.044c0.906,1.152,1.612,2.477,2.018,3.913     c0.415,1.442,0.521,2.957,0.374,4.428c-0.311,2.957-1.673,5.711-3.638,7.864c-1.962,2.192-4.598,3.711-7.352,4.526     c-2.772,0.813-5.68,0.943-8.491,0.563c-2.799-0.417-5.618-1.338-7.98-3.146c-1.176-0.894-2.216-2.026-2.975-3.331     c-0.758-1.302-1.23-2.729-1.471-4.145c-0.446-2.851-0.177-5.598,0.161-8.236c0.065-0.509,0.531-0.869,1.04-0.803     c0.477,0.061,0.822,0.473,0.811,0.943l-0.001,0.01c-0.074,2.631-0.186,5.243,0.38,7.618c0.485,2.395,1.752,4.395,3.694,5.73     c1.925,1.34,4.299,2.147,6.736,2.442c2.438,0.323,4.941,0.172,7.266-0.495c2.331-0.655,4.476-1.854,6.089-3.601     c1.64-1.725,2.731-3.958,3.104-6.264c0.165-1.16,0.132-2.338-0.138-3.46c-0.26-1.133-0.791-2.211-1.465-3.181     c-1.329-1.97-3.462-3.392-5.815-3.725l-0.02-0.003c-0.465-0.066-0.789-0.497-0.723-0.962     C257.506,203.376,257.889,203.066,258.318,203.08z"
   id="path54" />&#10;		</g>&#10;		<g
   id="g56">&#10;			<path
   style="fill:#1D1D1B;"
   d="M217.376,202.585c-2.376,0.027-4.675,1.162-6.247,2.944c-0.793,0.876-1.459,1.876-1.862,2.966     c-0.412,1.077-0.597,2.242-0.583,3.413c0.073,2.335,0.868,4.689,2.272,6.612c1.375,1.939,3.347,3.404,5.574,4.355     c2.219,0.961,4.682,1.434,7.141,1.427c2.455,0.021,4.913-0.473,6.995-1.554c2.097-1.074,3.611-2.895,4.401-5.207     c0.867-2.283,1.092-4.887,1.358-7.506l0.001-0.005c0.052-0.51,0.508-0.882,1.019-0.83c0.478,0.048,0.834,0.456,0.835,0.926     c-0.004,2.659-0.091,5.418-0.901,8.188c-0.421,1.372-1.074,2.727-1.993,3.92c-0.92,1.195-2.098,2.185-3.378,2.919     c-2.575,1.489-5.489,2.041-8.318,2.093c-2.836,0.016-5.704-0.488-8.348-1.651c-2.625-1.164-5.044-3.008-6.707-5.436     c-1.672-2.388-2.667-5.295-2.595-8.267c0.043-1.478,0.344-2.966,0.941-4.342c0.587-1.372,1.459-2.594,2.505-3.621     c2.083-2.036,5.023-3.316,7.979-3.042c0.468,0.044,0.812,0.458,0.769,0.926c-0.04,0.437-0.404,0.766-0.833,0.772L217.376,202.585     z"
   id="path55" />&#10;		</g>&#10;		<g
   id="g57">&#10;			<path
   style="fill:#1D1D1B;"
   d="M295.613,350.844c2.622-7.713,6.648-14.992,11.932-21.293     c5.265-6.303,11.926-11.545,19.512-14.928c7.637-3.32,16.15-4.514,24.38-3.427c4.111,0.562,8.152,1.69,11.93,3.419     c3.754,1.765,7.26,4.107,10.179,7.047c0.361,0.364,0.359,0.952-0.005,1.313c-0.348,0.346-0.904,0.356-1.268,0.038     c-2.94-2.587-6.287-4.686-9.892-6.171c-3.586-1.528-7.407-2.487-11.281-2.914c-7.744-0.874-15.735,0.273-22.85,3.411     c-7.185,3.085-13.49,8.045-18.7,13.936c-2.614,2.947-4.941,6.159-6.991,9.544c-2.079,3.371-3.835,6.942-5.354,10.619     c-0.178,0.435-0.674,0.643-1.109,0.466C295.68,351.735,295.473,351.266,295.613,350.844z"
   id="path56" />&#10;		</g>&#10;		<g
   id="g64">&#10;			<g
   id="g58">&#10;				<path
   style="fill:#1D1D1B;"
   d="M273.668,431.377c-0.66,1.461-1.206,2.883-1.53,4.372c-0.338,1.489-0.469,3.055-0.752,4.688      c-0.058,0.345-0.384,0.578-0.73,0.52c-0.264-0.044-0.462-0.249-0.516-0.496c-0.348-1.664-0.353-3.428,0.054-5.165      c0.422-1.729,1.273-3.374,2.549-4.59c0.232-0.221,0.599-0.212,0.82,0.02c0.168,0.176,0.203,0.43,0.109,0.639L273.668,431.377z"
   id="path57" />&#10;			</g>&#10;			<g
   id="g59">&#10;				<path
   style="fill:#1D1D1B;"
   d="M265.083,430.395c-0.689,1.616-1.34,3.108-1.571,4.683c-0.274,1.586-0.241,3.291-0.446,5.073      c-0.039,0.347-0.353,0.597-0.699,0.558c-0.271-0.031-0.482-0.23-0.544-0.48c-0.419-1.733-0.612-3.587-0.276-5.492      c0.169-0.946,0.497-1.889,0.949-2.719c0.443-0.839,1.007-1.586,1.636-2.252c0.22-0.233,0.586-0.243,0.818-0.023      c0.181,0.171,0.227,0.431,0.136,0.647L265.083,430.395z"
   id="path58" />&#10;			</g>&#10;			<g
   id="g60">&#10;				<path
   style="fill:#1D1D1B;"
   d="M257.428,429.988c-0.875,1.436-1.605,2.868-2.117,4.396c-0.522,1.524-0.821,3.093-1.027,4.754      l-0.002,0.012c-0.043,0.346-0.359,0.592-0.705,0.549c-0.268-0.033-0.475-0.23-0.536-0.477c-0.44-1.805-0.236-3.743,0.386-5.496      c0.633-1.75,1.692-3.375,3.157-4.506c0.253-0.196,0.617-0.149,0.813,0.104c0.15,0.195,0.157,0.456,0.037,0.654L257.428,429.988z      "
   id="path59" />&#10;			</g>&#10;			<g
   id="g61">&#10;				<path
   style="fill:#1D1D1B;"
   d="M192.235,417.642c-1.262,1.472-2.246,3.074-2.89,4.826c-0.651,1.75-0.954,3.592-0.983,5.521      L188.362,428c-0.005,0.348-0.291,0.625-0.639,0.62c-0.28-0.004-0.514-0.191-0.592-0.444c-0.639-2.077-0.434-4.383,0.349-6.415      c0.789-2.03,2.175-3.872,4.024-4.995c0.272-0.165,0.628-0.079,0.792,0.193c0.133,0.219,0.104,0.49-0.054,0.674L192.235,417.642z      "
   id="path60" />&#10;			</g>&#10;			<g
   id="g62">&#10;				<path
   style="fill:#1D1D1B;"
   d="M198.853,419.495c-0.791,1.53-1.457,3.039-1.911,4.629c-0.465,1.587-0.716,3.208-0.892,4.914      l-0.002,0.011c-0.036,0.347-0.346,0.6-0.693,0.563c-0.27-0.028-0.482-0.223-0.547-0.47c-0.472-1.825-0.327-3.785,0.222-5.589      c0.561-1.801,1.53-3.502,2.924-4.761c0.237-0.214,0.604-0.196,0.818,0.042c0.166,0.184,0.192,0.445,0.085,0.653L198.853,419.495      z"
   id="path61" />&#10;			</g>&#10;			<g
   id="g63">&#10;				<path
   style="fill:#1D1D1B;"
   d="M206.305,421.063c-0.628,1.445-1.158,2.846-1.5,4.311c-0.354,1.463-0.52,2.943-0.637,4.506      l-0.001,0.013c-0.026,0.349-0.33,0.61-0.679,0.585c-0.264-0.02-0.479-0.2-0.555-0.437c-0.535-1.652-0.492-3.464-0.065-5.146      c0.438-1.68,1.262-3.286,2.505-4.49c0.23-0.223,0.598-0.217,0.821,0.013c0.168,0.174,0.206,0.426,0.116,0.635L206.305,421.063z"
   id="path62" />&#10;			</g>&#10;		</g>&#10;		<g
   id="g72">&#10;			<g
   id="g65">&#10;				<path
   style="fill:#1D1D1B;"
   d="M294.4,240.672c2.217,2.606,4.207,5.434,5.871,8.472c1.649,3.053,2.863,6.335,3.702,9.704      c1.681,6.749,1.613,13.909-0.074,20.674c-1.704,6.776-5.263,13.037-10.007,18.106c-4.76,5.065-10.765,8.949-17.34,11.084      c-0.409,0.133-0.848-0.091-0.981-0.5c-0.128-0.393,0.074-0.813,0.451-0.963l0.011-0.005c3.086-1.223,6.034-2.772,8.739-4.672      c2.721-1.87,5.234-4.047,7.422-6.51c4.402-4.893,7.725-10.775,9.293-17.158c0.829-3.176,1.271-6.456,1.329-9.747      c0.05-3.292-0.321-6.584-1.004-9.806c-1.35-6.477-4.484-12.449-8.527-17.79c-0.238-0.314-0.176-0.762,0.138-0.999      c0.303-0.229,0.729-0.18,0.972,0.105L294.4,240.672z"
   id="path64" />&#10;			</g>&#10;			<g
   id="g66">&#10;				<path
   style="fill:#1D1D1B;"
   d="M196.467,245.429c-2.22,4.046-3.873,8.374-4.866,12.842c-0.981,4.466-1.381,9.064-1.001,13.608      c0.315,4.547,1.366,9.039,3.015,13.3c0.813,2.136,1.79,4.213,2.923,6.206c1.1,2.013,2.387,3.922,3.77,5.765      c0.259,0.344,0.19,0.833-0.154,1.091c-0.322,0.243-0.776,0.194-1.044-0.096c-1.613-1.763-3.034-3.699-4.329-5.716      c-1.263-2.037-2.37-4.174-3.31-6.386c-1.856-4.434-2.985-9.177-3.355-13.982c-0.304-4.808,0.107-9.665,1.327-14.311      c1.208-4.646,3.147-9.099,5.806-13.062c0.219-0.328,0.663-0.415,0.99-0.195C196.548,244.699,196.641,245.108,196.467,245.429z"
   id="path65" />&#10;			</g>&#10;			<g
   id="g67">&#10;				<path
   style="fill:#1D1D1B;"
   d="M168.992,218.068c-4.1,2.788-7.761,6.175-10.808,10.035c-3.037,3.864-5.529,8.161-7.187,12.773      c-1.719,4.586-2.644,9.465-2.829,14.372c-0.104,2.455-0.011,4.921,0.285,7.366c0.257,2.452,0.753,4.876,1.388,7.269      c0.111,0.416-0.136,0.843-0.552,0.954c-0.392,0.105-0.795-0.113-0.933-0.485c-0.88-2.411-1.491-4.919-1.928-7.456      c-0.399-2.543-0.589-5.123-0.57-7.704c0.063-5.162,1.02-10.32,2.803-15.181c1.844-4.837,4.465-9.378,7.804-13.312      c3.327-3.938,7.311-7.32,11.775-9.843c0.343-0.194,0.779-0.073,0.973,0.27C169.396,217.451,169.294,217.861,168.992,218.068z"
   id="path66" />&#10;			</g>&#10;			<g
   id="g68">&#10;				<path
   style="fill:#1D1D1B;"
   d="M300.498,165.49c4.914,1.262,9.477,3.789,13.365,7.059c3.906,3.268,7.115,7.319,9.608,11.749      c2.434,4.461,4.135,9.292,5.148,14.23c0.496,2.473,0.835,4.97,1.038,7.472c0.164,2.506,0.228,5.014,0.104,7.513      c-0.021,0.43-0.387,0.761-0.817,0.739c-0.404-0.02-0.722-0.35-0.74-0.746c-0.104-2.448-0.258-4.888-0.58-7.305      c-0.284-2.42-0.7-4.82-1.261-7.18c-1.098-4.722-2.736-9.313-5.074-13.524c-2.276-4.235-5.315-8.051-8.88-11.273      c-3.573-3.214-7.752-5.773-12.323-7.369c-0.372-0.13-0.569-0.537-0.439-0.909C299.769,165.595,300.143,165.401,300.498,165.49z"
   id="path67" />&#10;			</g>&#10;			<g
   id="g69">&#10;				<path
   style="fill:#1D1D1B;"
   d="M264.292,123.602c2.491-2.614,5.504-4.732,8.764-6.329c3.258-1.613,6.788-2.663,10.386-3.192      c3.602-0.514,7.286-0.498,10.871,0.129l2.665,0.576l2.609,0.78l2.519,1.026c0.811,0.404,1.616,0.82,2.411,1.243      c0.379,0.202,0.523,0.672,0.321,1.051c-0.186,0.35-0.601,0.499-0.962,0.361l-0.063-0.024c-0.806-0.307-1.603-0.621-2.392-0.946      l-2.447-0.763l-2.484-0.608l-2.521-0.413c-3.376-0.429-6.806-0.42-10.173,0.056c-3.371,0.46-6.671,1.399-9.806,2.737      c-3.13,1.353-6.067,3.161-8.721,5.356c-0.304,0.252-0.754,0.21-1.006-0.093C264.026,124.27,264.046,123.861,264.292,123.602z"
   id="path68" />&#10;			</g>&#10;			<g
   id="g70">&#10;				<path
   style="fill:#1D1D1B;"
   d="M223.293,121.708c-2.865-2.646-6.422-4.397-10.128-5.712c-3.735-1.279-7.586-2.378-11.469-2.931      c-3.876-0.615-7.817-0.707-11.648-0.065c-1.918,0.302-3.802,0.805-5.608,1.509c-1.822,0.671-3.539,1.594-5.159,2.677      l-0.008,0.005c-0.358,0.239-0.842,0.143-1.081-0.215c-0.223-0.333-0.154-0.775,0.145-1.028c1.599-1.352,3.413-2.44,5.314-3.324      c1.918-0.848,3.929-1.479,5.98-1.897c4.115-0.826,8.356-0.737,12.444-0.124c4.092,0.687,8.046,1.802,11.875,3.317      c1.909,0.781,3.796,1.665,5.567,2.776c1.759,1.12,3.417,2.443,4.801,4.019c0.26,0.296,0.231,0.747-0.065,1.007      C223.975,121.966,223.558,121.952,223.293,121.708z"
   id="path69" />&#10;			</g>&#10;			<g
   id="g71">&#10;				<path
   style="fill:#1D1D1B;"
   d="M182.276,153.992c-4.821,1.722-9.48,3.853-13.819,6.492c-4.33,2.646-8.387,5.74-11.871,9.398      c-3.525,3.606-6.496,7.751-8.789,12.242c-1.157,2.241-2.132,4.578-2.895,6.984c-0.8,2.397-1.352,4.873-1.73,7.38      c-0.064,0.426-0.46,0.72-0.885,0.656c-0.402-0.06-0.685-0.421-0.663-0.819c0.162-2.633,0.645-5.244,1.319-7.8      c0.711-2.548,1.649-5.032,2.782-7.425c2.29-4.776,5.4-9.144,9.073-12.954c3.719-3.761,7.949-7.002,12.535-9.578      c4.581-2.586,9.472-4.583,14.517-5.939c0.38-0.103,0.772,0.123,0.874,0.504C182.822,153.495,182.621,153.868,182.276,153.992z"
   id="path70" />&#10;			</g>&#10;		</g>&#10;		<g
   id="g73">&#10;			<path
   style="fill:#1D1D1B;"
   d="M194.442,146.915c-2.148-1.131-3.699-3.346-4.085-5.846c-0.204-1.248-0.083-2.583,0.353-3.814     c0.443-1.224,1.189-2.305,2.113-3.195c0.94-0.876,2.085-1.539,3.347-1.908c1.27-0.342,2.653-0.354,3.894-0.003     c2.483,0.662,4.563,2.599,5.204,5.044c0.13,0.497-0.167,1.007-0.665,1.137c-0.43,0.112-0.868-0.094-1.064-0.473l-0.017-0.033     c-0.825-1.594-2.448-2.663-4.1-2.985c-1.647-0.327-3.313,0.231-4.571,1.395c-1.27,1.16-1.974,2.79-1.851,4.522     c0.118,1.73,0.949,3.519,2.374,4.736l0.02,0.017c0.359,0.306,0.401,0.845,0.095,1.204     C195.224,147.023,194.787,147.097,194.442,146.915z"
   id="path72" />&#10;		</g>&#10;		<g
   id="g74">&#10;			<path
   style="fill:#1D1D1B;"
   d="M280.131,142.265c0.364-1.468,1.306-2.731,2.431-3.689c1.147-0.945,2.529-1.599,3.985-1.903     c1.455-0.326,3.009-0.287,4.497,0.126c1.497,0.425,2.857,1.278,3.925,2.427c1.064,1.149,1.783,2.694,1.984,4.254     c0.179,1.561-0.043,3.123-0.644,4.516c-1.191,2.85-3.694,4.739-6.291,5.667c-0.484,0.173-1.017-0.079-1.19-0.563     c-0.154-0.431,0.029-0.9,0.412-1.121l0.012-0.006c2.078-1.197,3.78-2.957,4.48-4.98c0.711-2.052,0.426-4.292-0.964-5.769     c-1.364-1.552-3.555-2.244-5.745-1.932c-2.158,0.294-4.328,1.526-5.283,3.528l-0.009,0.018c-0.203,0.425-0.712,0.606-1.138,0.403     C280.22,143.063,280.035,142.65,280.131,142.265z"
   id="path73" />&#10;		</g>&#10;	</g>&#10;	<g
   id="g92">&#10;		<g
   id="g77">&#10;			<g
   id="g76">&#10;				<path
   style="fill:#ffffff"
   d="m 511.766,431.043 c 3.81,-10.75 8.209,-26.19 9.461,-37.526 0.255,-2.313 0.414,-4.821 -0.819,-6.794 -1.934,-3.093 -6.589,-3.401 -9.781,-1.636 -3.192,1.765 -5.263,4.985 -7.2,8.076 0.715,-6.32 0.943,-12.694 0.683,-19.049 -0.146,-3.565 -0.489,-7.267 -2.314,-10.332 -1.824,-3.066 -5.541,-5.285 -8.968,-4.294 -3.118,0.901 -5.001,4.011 -6.364,6.956 -3.633,7.851 -5.755,16.398 -6.217,25.037 -1.662,-6.048 -4.761,-11.696 -8.969,-16.347 -0.733,-0.81 -1.542,-1.618 -2.581,-1.957 -2.845,-0.929 -5.438,2.005 -6.629,4.75 -2.03,4.677 -2.713,9.929 -1.947,14.97 -3.64,-5.178 -8.644,-9.388 -14.367,-12.09 -1.927,-0.91 -4.118,-1.661 -6.156,-1.04 -3.576,1.09 -4.676,5.556 -4.943,9.285 -0.978,13.665 1.265,27.551 6.498,40.213"
   id="path75"
   sodipodi:nodetypes="cccsccccccsccccccc" />&#10;				<path
   style="fill:#1D1D1B;"
   d="M510.924,430.744c1.823-5.299,3.439-10.675,4.884-16.089c1.418-5.419,2.691-10.882,3.561-16.385      c0.214-1.375,0.412-2.752,0.561-4.129c0.163-1.385,0.301-2.736,0.216-3.985c-0.081-1.247-0.426-2.375-1.115-3.191      c-0.695-0.806-1.722-1.355-2.883-1.55c-1.15-0.212-2.407-0.116-3.546,0.253c-1.135,0.339-2.177,1.027-3.146,1.861      c-1.927,1.681-3.394,3.988-4.864,6.364c-0.399,0.645-1.245,0.844-1.89,0.445c-0.464-0.287-0.697-0.805-0.643-1.314l0.002-0.016      c0.676-6.237,0.848-12.522,0.592-18.784c-0.129-3.107-0.417-6.161-1.62-8.721c-0.593-1.294-1.41-2.334-2.473-3.196      c-1.046-0.847-2.299-1.405-3.524-1.528c-1.224-0.132-2.406,0.215-3.437,0.979c-1.033,0.756-1.901,1.892-2.637,3.153      c-0.738,1.256-1.354,2.681-1.967,4.11c-0.611,1.425-1.151,2.879-1.657,4.344c-2.014,5.866-3.184,12.013-3.534,18.198      c-0.046,0.86-0.78,1.52-1.64,1.474c-0.685-0.037-1.245-0.518-1.42-1.144c-0.982-3.574-2.478-7.01-4.43-10.167      c-0.972-1.581-2.068-3.083-3.255-4.508c-0.596-0.697-1.23-1.456-1.797-1.949c-0.583-0.509-1.082-0.73-1.622-0.742      c-1.054-0.057-2.422,1.042-3.322,2.43c-0.909,1.342-1.516,3.144-2.036,4.878c-0.985,3.509-1.228,7.235-0.686,10.837      c0.124,0.814-0.435,1.574-1.25,1.698c-0.577,0.088-1.129-0.171-1.444-0.617c-3.563-5.071-8.484-9.231-14.113-11.841      c-1.368-0.629-2.764-1.072-3.985-0.971c-1.214,0.087-2.263,0.733-3.009,1.819c-0.757,1.084-1.222,2.511-1.506,3.981      c-0.141,0.739-0.24,1.496-0.303,2.262l-0.151,2.38c-0.305,6.365,0.031,12.771,1.076,19.073      c1.039,6.301,2.761,12.498,5.144,18.436c0.202,0.5-0.04,1.068-0.539,1.269c-0.493,0.199-1.055-0.037-1.263-0.524      c-2.549-6.026-4.431-12.338-5.617-18.783c-1.181-6.445-1.692-13.027-1.418-19.59c0.149-3.198,0.25-6.82,2.34-10.049      c0.54-0.79,1.25-1.532,2.124-2.076c0.869-0.546,1.88-0.868,2.889-0.957c2.035-0.163,3.815,0.479,5.376,1.161      c6.136,2.786,11.511,7.178,15.395,12.695l-2.694,1.082c-0.617-4.028-0.358-8.173,0.729-12.095      c0.271-0.981,0.601-1.945,0.971-2.894c0.354-0.92,0.842-1.969,1.448-2.86c0.61-0.909,1.337-1.769,2.283-2.496      c0.932-0.714,2.184-1.317,3.605-1.298c1.413-0.003,2.737,0.715,3.584,1.483c0.883,0.783,1.476,1.524,2.139,2.285      c1.286,1.535,2.474,3.154,3.528,4.856c2.116,3.4,3.742,7.102,4.816,10.966l-3.06,0.33c0.33-6.483,1.625-12.904,3.743-19.032      c0.536-1.53,1.107-3.048,1.752-4.536c0.643-1.48,1.288-2.974,2.161-4.454c0.867-1.461,1.938-2.925,3.476-4.052      c0.764-0.558,1.648-1.01,2.591-1.279c0.955-0.271,1.959-0.346,2.922-0.245c3.884,0.46,6.9,3.212,8.378,6.452      c1.487,3.237,1.726,6.663,1.858,9.856c0.258,6.413-0.028,12.843-0.778,19.211l-2.531-0.885c1.514-2.371,3.107-4.895,5.46-6.917      c0.582-0.505,1.221-0.961,1.896-1.362c0.67-0.408,1.444-0.755,2.209-0.98c1.541-0.473,3.181-0.59,4.795-0.28      c1.605,0.289,3.222,1.11,4.349,2.465c1.128,1.369,1.561,3.096,1.642,4.64c0.081,1.565-0.09,3.027-0.282,4.431      c-0.178,1.419-0.404,2.825-0.646,4.227c-0.982,5.604-2.362,11.099-3.884,16.545c-1.549,5.439-3.267,10.823-5.195,16.14      c-0.168,0.464-0.681,0.704-1.144,0.535C511.005,431.71,510.767,431.204,510.924,430.744z"
   id="path76" />&#10;			</g>&#10;		</g>&#10;		<g
   id="g87">&#10;			<g
   id="g79">&#10;				<g
   id="g78">&#10;					<path
   style="fill:#1D1D1B;"
   d="M156.272,381.144c2.04-15.113-0.881-30.839-8.173-44.173l1.477,0.443l-6.342,3.444       c-0.547,0.297-1.23,0.094-1.527-0.452c-0.087-0.161-0.131-0.334-0.136-0.505l0-0.017c-0.265-11.131-2.014-22.227-5.229-32.885       c-3.207-10.659-7.846-20.887-13.794-30.285l2.09,0.104l-4.611,5.943c-0.437,0.564-1.248,0.666-1.812,0.229       c-0.271-0.21-0.436-0.513-0.485-0.827c-1.447-9.339-5.885-18.142-12.227-25.152c-6.335-7.015-14.639-12.311-23.762-14.683       l1.588-0.683c-5.628,10.349-10.086,21.355-13.033,32.745c-2.909,11.38-4.424,23.177-3.569,34.867l-2.05-1.194l8.55-4.014       l0.005-0.002c0.71-0.333,1.556-0.028,1.889,0.682c0.091,0.193,0.134,0.404,0.135,0.604       c-0.004,22.506,4.196,45.018,12.323,66.022l-1.817-0.668l6.694-3.526l0.014-0.007c0.623-0.328,1.394-0.089,1.722,0.534       c0.037,0.07,0.068,0.148,0.091,0.221c1.676,5.479,4.281,10.668,7.511,15.435c3.231,4.773,7.083,9.128,11.316,13.072       c8.491,7.911,18.452,14.137,28.67,19.794l-1.424,0.366c3.541-5.535,6.964-11.133,9.807-17.007       c2.833-5.862,5.104-12.03,6.033-18.433L156.272,381.144z M158.033,381.392c-0.92,6.672-3.22,13.037-6.066,19.04       c-2.857,6.015-6.283,11.706-9.799,17.293c-0.302,0.48-0.923,0.638-1.414,0.372l-0.01-0.006       c-10.324-5.618-20.492-11.852-29.272-19.909c-4.379-4.024-8.363-8.508-11.736-13.443c-3.369-4.931-6.113-10.335-7.896-16.081       l1.827,0.747l-6.68,3.551l-0.005,0.003c-0.631,0.336-1.414,0.096-1.75-0.535c-0.023-0.044-0.044-0.09-0.062-0.136       c-8.325-21.272-12.676-44.094-12.76-66.954l2.029,1.284l-8.535,4.047c-0.718,0.34-1.575,0.034-1.916-0.683       c-0.077-0.163-0.122-0.341-0.135-0.511c-0.902-12.066,0.529-24.204,3.592-35.824c3.058-11.636,7.645-22.829,13.419-33.352       c0.315-0.577,0.98-0.843,1.588-0.683c9.693,2.564,18.417,8.192,25.052,15.595c6.64,7.399,11.281,16.674,12.778,26.564       l-2.297-0.598l4.634-5.925c0.432-0.557,1.234-0.658,1.791-0.226c0.119,0.092,0.222,0.21,0.299,0.33       c6.038,9.622,10.729,20.074,13.957,30.952c3.219,10.879,5.014,22.192,5.162,33.539l-1.663-0.975l6.378-3.377l0.01-0.005       c0.53-0.281,1.186-0.081,1.467,0.449c7.374,13.831,10.184,29.988,7.935,45.447L158.033,381.392z"
   id="path77" />&#10;				</g>&#10;			</g>&#10;			<g
   id="g86">&#10;				<g
   id="g80">&#10;					<path
   style="fill:#1D1D1B;"
   d="M86.116,251.522l6.874,19.099l6.656,19.176c4.397,12.798,8.607,25.66,12.81,38.523       c4.127,12.888,8.195,25.795,12.126,38.744l5.801,19.452l5.567,19.52c0.141,0.493-0.145,1.007-0.638,1.147       c-0.484,0.138-0.99-0.141-1.141-0.618l-12.219-38.687c-4.075-12.894-8.156-25.785-12.32-38.649       c-4.089-12.889-8.314-25.734-12.493-38.594l-12.627-38.557c-0.149-0.445,0.092-0.927,0.538-1.076       C85.484,250.858,85.958,251.092,86.116,251.522z"
   id="path79" />&#10;				</g>&#10;				<g
   id="g81">&#10;					<path
   style="fill:#1D1D1B;"
   d="M129.78,305.526c-2.178,4.149-4.867,8.006-7.803,11.65c-2.957,3.627-6.188,7.046-9.823,10.007       c-0.399,0.325-0.987,0.265-1.312-0.134c-0.285-0.35-0.273-0.844,0.002-1.18c2.924-3.58,5.922-7.034,8.833-10.576       c2.931-3.525,5.749-7.132,8.687-10.706c0.299-0.365,0.837-0.418,1.203-0.119C129.884,304.729,129.964,305.174,129.78,305.526z"
   id="path80" />&#10;				</g>&#10;				<g
   id="g82">&#10;					<path
   style="fill:#1D1D1B;"
   d="M95.699,288.597c-3.818,0.267-7.657-0.127-11.402-0.898c-1.871-0.398-3.722-0.898-5.528-1.529       c-1.807-0.625-3.576-1.365-5.257-2.283l-0.007-0.004c-0.453-0.247-0.62-0.815-0.372-1.269c0.209-0.382,0.647-0.561,1.05-0.458       l5.38,1.364c1.786,0.444,3.569,0.879,5.362,1.272c3.585,0.811,7.199,1.425,10.869,2.107c0.465,0.085,0.774,0.531,0.689,0.997       C96.41,288.288,96.079,288.569,95.699,288.597z"
   id="path81" />&#10;				</g>&#10;				<g
   id="g83">&#10;					<path
   style="fill:#1D1D1B;"
   d="M114.644,346.487c-5.016-0.294-9.975-1.29-14.798-2.705c-4.814-1.44-9.514-3.324-13.863-5.846       c-0.445-0.258-0.597-0.829-0.339-1.274c0.228-0.393,0.702-0.557,1.116-0.412c4.66,1.629,9.26,3.264,13.944,4.685       c4.676,1.445,9.413,2.651,14.2,3.872c0.457,0.116,0.734,0.58,0.618,1.038C115.42,346.248,115.044,346.51,114.644,346.487z"
   id="path82" />&#10;				</g>&#10;				<g
   id="g84">&#10;					<path
   style="fill:#1D1D1B;"
   d="M125.249,380.479c-2.669-0.013-5.273-0.375-7.861-0.82c-1.292-0.236-2.578-0.499-3.853-0.825       c-1.276-0.32-2.544-0.685-3.789-1.17c-0.486-0.189-0.727-0.737-0.537-1.223c0.145-0.372,0.502-0.6,0.878-0.602       c1.336-0.003,2.65,0.114,3.956,0.276c1.307,0.156,2.602,0.375,3.892,0.621c2.575,0.518,5.134,1.12,7.628,2.072       c0.446,0.17,0.67,0.669,0.499,1.115C125.929,380.268,125.598,380.48,125.249,380.479z"
   id="path83" />&#10;				</g>&#10;				<g
   id="g85">&#10;					<path
   style="fill:#1D1D1B;"
   d="M148.049,369.272c-1.325,4.72-3.305,9.238-5.65,13.543c-2.368,4.292-5.128,8.386-8.426,12.017       c-0.346,0.381-0.936,0.41-1.317,0.063c-0.336-0.305-0.397-0.8-0.17-1.174c2.49-4.123,4.99-8.176,7.312-12.348       c2.345-4.159,4.485-8.419,6.666-12.718c0.213-0.421,0.727-0.59,1.148-0.377C147.982,368.466,148.156,368.887,148.049,369.272z"
   id="path84" />&#10;				</g>&#10;			</g>&#10;		</g>&#10;		<g
   id="g89">&#10;			<g
   id="g88">&#10;				<path
   style="fill:#FFFFFF;"
   d="M143.832,426.374c3.447-9.238,5.791-18.887,6.967-28.677c0.438-3.644,0.519-7.855-2.151-10.374      c-2.579-2.433-6.848-2.178-9.902-0.377c-3.054,1.801-5.174,4.8-7.199,7.71c5.508-21.124,1.783-44.486-10.021-62.851      c-1.409-2.192-3.382-4.553-5.984-4.433c-1.601,0.073-2.987,1.102-4.179,2.173c-12.271,11.023-14.449,29.134-15.831,45.572      c-1.215-6.168-3.9-12.041-7.769-16.996c-1.622-2.077-4.003-4.178-6.562-3.548c-2.716,0.669-3.773,3.915-4.219,6.676      c-1.123,6.951-1.303,14.054-0.531,21.053c-4.374-3.56-8.747-7.12-13.121-10.679c-2.089-1.701-4.392-3.484-7.085-3.557      c-3.393-0.092-6.336,2.712-7.448,5.919c-1.113,3.206-0.776,6.719-0.264,10.074c2.303,15.085,7.926,29.655,16.355,42.376"
   id="path87" />&#10;				<path
   style="fill:#1D1D1B;"
   d="M142.995,426.062c1.75-4.804,3.201-9.715,4.343-14.694c1.136-4.968,1.991-10.052,2.479-15.078      c0.186-2.45,0.091-4.973-0.996-6.851c-0.272-0.462-0.607-0.869-0.982-1.237c-0.388-0.342-0.814-0.638-1.288-0.863      c-0.954-0.437-2.058-0.613-3.174-0.548c-1.114,0.071-2.24,0.357-3.258,0.846c-1.006,0.469-1.982,1.185-2.852,1.982      c-1.762,1.615-3.202,3.667-4.657,5.778c-0.406,0.588-1.211,0.736-1.799,0.331c-0.458-0.315-0.649-0.873-0.52-1.382l0.004-0.015      c5.163-20.261,1.721-42.527-9.163-60.294c-0.678-1.128-1.333-2.229-2.097-3.118c-0.753-0.902-1.618-1.631-2.461-1.902      c-0.84-0.277-1.65-0.139-2.577,0.413c-0.914,0.524-1.838,1.442-2.734,2.343c-3.652,3.543-6.316,8.012-8.282,12.762      c-3.869,9.605-4.984,20.199-5.908,30.713l-0.001,0.007c-0.075,0.851-0.825,1.479-1.675,1.405      c-0.702-0.062-1.253-0.585-1.382-1.243c-0.865-4.419-2.518-8.688-4.842-12.55c-0.586-0.962-1.205-1.905-1.867-2.816      c-0.68-0.923-1.327-1.775-2.077-2.472c-0.736-0.707-1.56-1.26-2.331-1.481c-0.754-0.22-1.492-0.124-2.102,0.293      c-0.61,0.406-1.147,1.164-1.52,2.093c-0.386,0.92-0.634,1.969-0.812,3.047c-0.361,2.268-0.638,4.552-0.794,6.844      c-0.335,4.584-0.228,9.197,0.248,13.768l0.002,0.015c0.084,0.809-0.503,1.533-1.312,1.617c-0.406,0.042-0.793-0.087-1.086-0.326      l-8.803-7.223l-4.4-3.61c-1.441-1.182-2.868-2.274-4.367-2.817c-1.488-0.561-2.993-0.455-4.364,0.318      c-1.367,0.745-2.508,2.055-3.204,3.533c-0.694,1.474-0.986,3.227-1.008,4.989c-0.027,1.776,0.189,3.6,0.474,5.45      c2.208,14.83,7.631,29.21,15.852,41.81c0.294,0.451,0.167,1.055-0.284,1.35c-0.447,0.292-1.045,0.169-1.342-0.272      c-8.551-12.718-14.343-27.311-16.783-42.491c-0.306-1.896-0.563-3.853-0.55-5.877c0.017-2.021,0.308-4.109,1.213-6.091      c0.909-1.949,2.346-3.672,4.306-4.78c0.975-0.548,2.089-0.925,3.252-1.022c1.167-0.087,2.328,0.099,3.366,0.476      c2.093,0.755,3.713,2.046,5.209,3.239l4.432,3.578l8.86,7.153l-2.396,1.305c-0.534-4.744-0.636-9.537-0.305-14.3      c0.157-2.382,0.439-4.756,0.809-7.114c0.202-1.23,0.482-2.481,0.997-3.727c0.503-1.227,1.285-2.535,2.626-3.451      c1.324-0.932,3.138-1.146,4.621-0.694c1.487,0.439,2.629,1.29,3.584,2.186c0.969,0.901,1.743,1.928,2.453,2.886      c0.718,0.982,1.387,1.998,2.022,3.035c2.517,4.161,4.309,8.757,5.256,13.533l-3.058,0.169      c0.447-5.307,0.959-10.642,1.846-15.956c0.933-5.301,2.192-10.61,4.29-15.671c2.1-5.037,4.996-9.879,9.001-13.746      c0.983-0.966,1.94-1.964,3.332-2.788c0.685-0.403,1.483-0.751,2.379-0.892c0.894-0.149,1.835-0.059,2.675,0.223      c1.697,0.582,2.873,1.722,3.817,2.836c0.962,1.139,1.659,2.338,2.346,3.485c11.301,18.508,14.657,41.585,9.122,62.504      l-2.315-1.066c1.484-2.104,3.028-4.306,5.087-6.167c1.035-0.925,2.161-1.755,3.493-2.37c1.31-0.611,2.728-0.963,4.182-1.043      c1.452-0.073,2.965,0.16,4.347,0.824c0.687,0.337,1.322,0.786,1.887,1.31c0.541,0.538,1.015,1.142,1.386,1.798      c0.732,1.318,1.081,2.753,1.216,4.136c0.146,1.39,0.084,2.748-0.031,4.076c-0.584,5.217-1.522,10.298-2.754,15.353      c-1.235,5.042-2.782,10.006-4.63,14.854c-0.176,0.461-0.692,0.692-1.153,0.517C143.059,427.029,142.828,426.519,142.995,426.062      z"
   id="path88" />&#10;			</g>&#10;		</g>&#10;		<g
   id="g90">&#10;			<path
   style="fill:#1d1d1b"
   d="m 348.01427,212.89041 c 1.762,-3.035 6.9162,-7.98325 9.71287,-10.77428 2.79266,-2.51018 12.48886,-9.59313 15.65286,-11.50113 3.174,-1.872 6.796,-2.954 10.512,-3.044 1.855,-0.038 3.741,0.191 5.545,0.783 1.799,0.584 3.513,1.556 4.927,2.836 2.868,2.589 4.408,6.101 5.63,9.414 1.206,3.333 2.304,6.681 3.302,10.073 1.987,6.779 3.589,13.672 4.788,20.637 l -2.52,0.203 c 0.097,-19.409 5.848,-38.678 16.083,-55.148 2.553,-4.128 5.454,-8.067 8.738,-11.692 3.308,-3.598 7.02,-6.882 11.193,-9.519 8.28,-5.378 18.524,-7.853 28.407,-6.486 2.465,0.372 4.922,0.926 7.27,1.844 2.346,0.912 4.595,2.101 6.664,3.577 2.025,1.519 3.863,3.282 5.455,5.243 1.583,1.971 2.868,4.145 3.961,6.386 1.101,2.243 1.923,4.591 2.603,6.957 0.688,2.367 1.197,4.767 1.6,7.169 0.829,4.815 1.218,9.612 1.648,14.392 1.637,19.151 1.868,38.418 0.728,57.6 l -2.431,-1.089 c 2.094,-2.088 4.314,-4.149 6.905,-5.839 2.56,-1.679 5.649,-2.987 8.957,-2.957 0.814,0.012 1.637,0.063 2.432,0.25 0.399,0.089 0.805,0.143 1.196,0.267 l 1.164,0.414 c 1.507,0.642 2.951,1.524 4.074,2.699 1.152,1.14 2.109,2.445 2.834,3.832 0.767,1.374 1.322,2.825 1.782,4.287 0.899,2.935 1.353,5.944 1.496,8.955 0.07,1.499 0.075,2.945 0.115,4.42 0.044,1.468 0.057,2.936 0.041,4.405 0.03,5.874 -0.227,11.747 -0.639,17.604 -0.826,11.718 -2.6,23.36 -5.155,34.815 -1.271,5.731 -2.8,11.4 -4.458,17.027 -1.695,5.617 -10.39,34.70349 -12.445,40.19649 -0.189,0.504 -0.751,0.76 -1.255,0.572 -0.501,-0.187 -0.75748,-0.74318 -0.575,-1.245 l 0.004,-0.011 c 1.98836,-5.46797 3.815,-10.993 5.435,-16.58 1.583,-5.596 9.824,-34.76649 11.021,-40.45649 2.409,-11.375 4.016,-22.913 4.828,-34.504 0.388,-5.796 0.622,-11.605 0.572,-17.414 0.012,-1.452 -0.006,-2.904 -0.055,-4.356 -0.044,-1.444 -0.055,-2.92 -0.127,-4.338 -0.142,-2.821 -0.583,-5.628 -1.406,-8.279 -0.42,-1.319 -0.92,-2.609 -1.585,-3.783 -0.629,-1.199 -1.434,-2.269 -2.357,-3.177 -0.901,-0.946 -2.018,-1.596 -3.18,-2.097 l -0.901,-0.319 c -0.304,-0.097 -0.629,-0.131 -0.942,-0.202 -0.626,-0.153 -1.273,-0.184 -1.914,-0.194 -2.581,-0.02 -5.13,1.019 -7.419,2.532 -2.304,1.512 -4.395,3.447 -6.423,5.487 -0.555,0.558 -1.456,0.56 -2.014,0.006 -0.299,-0.297 -0.438,-0.694 -0.418,-1.084 l 10e-4,-0.011 c 1.067,-19.048 0.77,-38.172 -0.92,-57.171 -0.443,-4.751 -0.85,-9.508 -1.664,-14.129 -0.397,-2.316 -0.892,-4.605 -1.549,-6.833 -0.656,-2.225 -1.407,-4.42 -2.411,-6.479 -0.996,-2.06 -2.152,-4.035 -3.564,-5.806 -1.421,-1.761 -3.05,-3.335 -4.849,-4.7 -1.829,-1.311 -3.83,-2.383 -5.941,-3.215 -2.112,-0.838 -4.353,-1.351 -6.612,-1.703 -4.535,-0.655 -9.225,-0.414 -13.722,0.611 -2.256,0.488 -4.459,1.212 -6.577,2.112 -2.124,0.888 -4.186,1.983 -6.139,3.23 -7.89,4.96 -14.133,12.273 -19.127,20.243 -10.035,16.005 -15.723,34.779 -15.893,53.7 -0.004,0.701 -0.575,1.265 -1.276,1.261 -0.625,-0.004 -1.142,-0.463 -1.243,-1.058 -1.155,-6.872 -2.707,-13.677 -4.641,-20.374 -0.979,-3.342 -2.021,-6.679 -3.169,-9.957 -1.143,-3.231 -2.541,-6.373 -4.921,-8.554 -2.343,-2.191 -5.627,-3.204 -8.928,-3.148 -3.305,0.039 -6.64,0.989 -9.523,2.652 -2.88,1.692 -13.09875,7.35845 -15.1795,10.3257 -2.6875,2.444 -8.61474,8.10471 -10.40574,11.11471 -0.252,0.424 -0.37244,0.60187 -0.79644,0.34987 -0.424,-0.25 -0.25205,-0.83187 -0.007,-1.25487 z"
   id="path89"
   sodipodi:nodetypes="ccccccccccccccccccccccccccccccccccccccssscccccccccccccccsccccccccccccccccccccccccccc" />&#10;		</g>&#10;		<g
   id="g91">&#10;			<path
   style="fill:#1d1d1b"
   d="m 130.60675,210.26425 c -0.869,-3.037 -2.242,-6.081 -3.595,-9.053 -1.386,-2.977 -2.862,-5.917 -4.421,-8.81 -4.28675,-8.29308 -7.88742,-13.36553 -14.72575,-15.66975 -7.41272,-2.49777 -12.08845,-1.58104 -22.962097,4.84018 -1.520591,0.89796 -2.729255,4.20921 -3.303085,6.10604 -0.57383,1.89683 -0.606818,3.20328 -0.511818,4.82428 0.18,3.216 0.617,6.776 -0.5,10.338 -0.225,0.718 -0.99,1.118 -1.709,0.893 -0.262,-0.082 -0.482,-0.236 -0.644,-0.434 l -0.013,-0.016 c -4.865,-5.892 -10.03,-11.535 -15.466,-16.903 -1.351,-1.337 -2.748,-2.683 -4.113,-3.96 -1.347,-1.243 -2.711,-2.232 -4.197,-2.548 -1.474,-0.335 -3.155,-0.049 -4.77,0.573 -1.61,0.626 -3.227,1.568 -4.685,2.596 -2.944,2.082 -5.286,4.916 -6.969,8.129 -1.689,3.219 -2.709,6.808 -3.322,10.471 -0.607,3.673 -0.79,7.441 -0.757,11.216 0.008,1.883 0.111,3.789 0.199,5.706 0.083,1.912 0.17,3.824 0.303,5.733 0.916,15.281 2.712,30.514 5.498,45.572 2.775,15.059 6.453,29.95 10.944,44.595 l 0.006,0.021 c 0.236,0.771 -0.197,1.587 -0.968,1.823 -0.561,0.172 -1.147,-0.012 -1.515,-0.422 -1.459,-1.629 -3.972,-2.304 -6.445,-2.171 -2.485,0.116 -5.016,0.926 -7.047,2.315 -1.017,0.687 -1.829,1.559 -2.573,2.595 -0.729,1.017 -1.309,2.145 -1.753,3.344 -0.888,2.404 -1.254,5.054 -1.444,7.755 -0.477,5.421 0.011,10.828 0.978,16.215 0.976,5.37 22.826,53.911 24.781,59.015 0.204,0.525 -0.057,1.116 -0.583,1.32 -0.52,0.202 -1.106,-0.056 -1.315,-0.571 -2.089,-5.197 -24.062,-53.835 -25.155,-59.334 -0.542,-2.751 -0.965,-5.53 -1.199,-8.341 -0.124,-1.404 -0.19,-2.818 -0.208,-4.24 0,-1.441 0.048,-2.817 0.122,-4.226 0.158,-2.807 0.472,-5.714 1.486,-8.521 0.503,-1.398 1.183,-2.759 2.055,-3.999 0.433,-0.629 0.909,-1.197 1.443,-1.772 0.548,-0.568 1.147,-1.069 1.774,-1.514 2.53,-1.751 5.462,-2.707 8.496,-2.888 1.517,-0.082 3.076,0.046 4.6,0.513 1.515,0.459 3.008,1.291 4.15,2.536 l -2.476,1.422 c -4.693,-14.706 -8.452,-29.712 -11.274,-44.894 -2.831,-15.179 -4.741,-30.537 -5.625,-45.957 -0.126,-1.927 -0.208,-3.855 -0.285,-5.785 -0.081,-1.924 -0.179,-3.858 -0.181,-5.82 -0.019,-3.908 0.181,-7.85 0.842,-11.765 0.669,-3.904 1.779,-7.809 3.679,-11.404 1.887,-3.585 4.587,-6.833 7.942,-9.186 1.686,-1.173 3.416,-2.186 5.392,-2.952 1.953,-0.738 4.222,-1.196 6.529,-0.678 2.313,0.519 4.136,1.947 5.578,3.305 1.43,1.363 2.788,2.699 4.156,4.079 5.453,5.489 10.629,11.254 15.496,17.267 l -2.365,0.444 c 0.93,-2.808 0.642,-6.013 0.465,-9.352 0,0 0.252235,-3.64355 0.735718,-5.39187 0.541782,-1.95914 1.09203,-4.04871 2.397039,-5.60714 2.150724,-2.56838 6.553666,-4.78035 8.40341,-5.51202 7.202178,-2.84884 8.166313,-4.33638 18.776563,-1.04757 5.64211,1.74886 7.88166,4.97674 10.60627,7.9501 1.885,2.87025 3.48575,5.45975 5.03575,8.40275 1.551,2.942 3.016,5.928 4.393,8.958 1.35,3.054 2.698,6.069 3.622,9.404 0.138,0.497 -0.154,1.012 -0.651,1.15 -0.494,0.137 -1.007,-0.15 -1.148,-0.643 z"
   id="path90"
   sodipodi:nodetypes="cccsszccsccccccccccccccccccccccccccccccccccccccccccccccccccccaassccccccc" />&#10;		</g>&#10;	</g>&#10;	<g
   id="g95">&#10;		<g
   id="g93">&#10;			<path
   style="fill:#1D1D1B;"
   d="M127.247,128.662l-0.063,0.001l-43.321,0.724c-7.288,0.102-14.591,0.227-21.919,0.26     l-21.957,0.101c-0.875,0.005-1.589-0.7-1.595-1.575c0-0.062,0.003-0.127,0.01-0.187c0.274-2.445,0.73-4.872,1.392-7.253     c0.689-2.375,1.607-4.689,2.749-6.903c1.123-2.226,2.603-4.276,4.264-6.155c1.669-1.875,3.597-3.549,5.755-4.866     c2.149-1.317,4.465-2.393,6.899-3.043c2.42-0.642,4.898-1.055,7.392-1.111c2.488-0.041,4.983,0.125,7.417,0.628     c2.426,0.516,4.81,1.234,7.079,2.232c2.256,1.02,4.429,2.23,6.433,3.694c1.983,1.486,3.831,3.158,5.451,5.044     c0.401,0.473,0.768,0.976,1.152,1.464c0.392,0.486,0.748,1.008,1.053,1.414c0.313,0.412,0.619,0.725,0.898,0.895     c0.273,0.164,0.558,0.238,0.947,0.226c0.793-0.019,1.807-0.466,2.957-0.91l1.828-0.599c0.622-0.153,1.259-0.253,1.888-0.378     c2.543-0.368,5.146-0.129,7.565,0.592c2.425,0.718,4.673,1.89,6.689,3.34c2.027,1.443,3.781,3.217,5.315,5.141     c0.398,0.471,0.761,0.968,1.099,1.483c0.345,0.509,0.711,1.005,1.004,1.548l0.463,0.798c0.156,0.281,0.297,0.474,0.496,0.929     C126.96,126.991,127.142,127.941,127.247,128.662z M125.603,127.645l-0.058-0.047c-0.42-0.336-0.76-0.425-0.901-0.675     l-0.37-0.623l-0.443-0.731c-0.278-0.498-0.629-0.95-0.956-1.416c-0.321-0.472-0.665-0.925-1.042-1.353     c-1.449-1.751-3.094-3.355-4.96-4.629c-3.685-2.575-8.209-3.997-12.525-3.273c-0.53,0.121-1.067,0.211-1.592,0.349l-1.542,0.538     c-1.049,0.396-2.212,1.047-3.812,1.153c-0.792,0.051-1.717-0.134-2.461-0.585c-0.74-0.445-1.25-1.022-1.664-1.541     c-0.413-0.538-0.729-0.993-1.09-1.424c-0.356-0.438-0.692-0.891-1.063-1.316c-1.496-1.694-3.202-3.194-5.028-4.528     c-1.847-1.311-3.85-2.39-5.924-3.296c-2.086-0.885-4.273-1.508-6.487-1.951c-2.222-0.42-4.483-0.569-6.731-0.518     c-4.496,0.174-8.954,1.346-12.683,3.743c-1.887,1.162-3.572,2.643-5.042,4.314c-1.468,1.672-2.763,3.516-3.797,5.517     c-1.04,1.995-1.892,4.099-2.538,6.275c-0.619,2.186-1.054,4.426-1.322,6.693l-1.585-1.762l21.25,0.101     c7.074,0.034,14.173,0.159,21.287,0.26L125.603,127.645z"
   id="path92" />&#10;		</g>&#10;		<g
   id="g94">&#10;			<path
   style="fill:#1D1D1B;"
   d="M494.402,120.947l-0.076,0.001l-29.477,0.318l-29.608,0.259l-29.689,0.194l-29.727,0.077     c-0.869,0.002-1.576-0.701-1.583-1.569c-0.025-3.146,0.116-6.38,0.982-9.603c0.438-1.604,1.075-3.206,2.023-4.677     c0.94-1.469,2.236-2.773,3.715-3.724c5.664-3.667,13.067-4.265,19.241-1.525l-2.232,1.097c0.793-2.819,1.92-5.551,3.555-7.969     c0.362-0.634,0.863-1.167,1.29-1.754c0.443-0.575,0.876-1.16,1.399-1.662l1.505-1.565l1.647-1.406     c0.279-0.229,0.543-0.477,0.836-0.688l0.889-0.616c0.6-0.399,1.17-0.844,1.796-1.201c1.258-0.7,2.497-1.439,3.841-1.966     c1.298-0.63,2.692-1.018,4.058-1.472c0.692-0.196,1.405-0.324,2.107-0.487l1.057-0.231l1.077-0.128     c2.858-0.451,5.799-0.277,8.655,0.214l2.129,0.487c0.703,0.188,1.377,0.478,2.066,0.714c1.419,0.451,2.625,1.159,3.768,1.547     c1.161,0.418,2.135,0.549,3.09,0.245c1.003-0.283,2.143-1.077,3.482-1.675c2.574-1.267,5.309-2.189,8.11-2.746     c5.611-1.079,11.446-0.781,16.909,0.829c5.45,1.64,10.49,4.721,14.395,8.847c3.898,4.131,6.77,9.155,8.447,14.55     c0.808,2.708,1.305,5.513,1.434,8.341c0.036,0.707,0.071,1.414,0.027,2.123c-0.039,0.708-0.011,1.419-0.118,2.123l-0.121,1.058     c-0.054,0.377-0.049,0.645-0.16,1.128C494.968,119.301,494.69,120.172,494.402,120.947z M493.12,119.48l-0.004-0.067     c-0.036-0.553-0.063-0.997,0.018-1.453c0.047-0.184,0.071-0.605,0.106-0.906l0.1-0.983c0.094-0.653,0.054-1.318,0.083-1.976     c0.035-0.66-0.009-1.319-0.05-1.979c-0.155-2.637-0.652-5.255-1.441-7.784c-1.638-5.038-4.4-9.72-8.072-13.51     c-3.682-3.783-8.317-6.528-13.376-7.99c-5.056-1.438-10.456-1.659-15.592-0.621c-2.564,0.535-5.052,1.403-7.375,2.575     c-1.166,0.504-2.275,1.358-3.905,1.885c-0.804,0.263-1.744,0.364-2.591,0.291c-0.852-0.076-1.645-0.281-2.362-0.534     c-1.453-0.495-2.633-1.183-3.84-1.533c-0.607-0.199-1.197-0.454-1.816-0.612l-1.878-0.41c-2.524-0.397-5.126-0.552-7.685-0.135     l-0.962,0.114l-0.947,0.214c-0.629,0.151-1.269,0.263-1.891,0.442c-1.226,0.42-2.481,0.764-3.647,1.342     c-1.212,0.475-2.322,1.153-3.455,1.783c-0.563,0.322-1.071,0.729-1.61,1.088l-0.798,0.554c-0.262,0.19-0.495,0.416-0.745,0.622     l-1.472,1.263l-1.334,1.402c-0.469,0.447-0.845,0.969-1.235,1.48c-0.373,0.522-0.826,0.992-1.136,1.554     c-1.435,2.137-2.392,4.524-3.083,6.97l-0.015,0.053c-0.244,0.863-1.141,1.365-2.004,1.121c-0.07-0.019-0.147-0.048-0.212-0.076     c-5.122-2.255-11.465-1.757-16.171,1.278c-2.246,1.397-3.672,3.795-4.409,6.532c-0.751,2.738-0.919,5.724-0.902,8.727     l-1.583-1.569l29.233,0.077l29.272,0.194l29.353,0.26L493.12,119.48z"
   id="path93" />&#10;		</g>&#10;	</g>&#10;</g>&#10;<path
   style="fill:#000000;fill-rule:evenodd;stroke:#000000;stroke-width:0.95;stroke-linecap:round;stroke-linejoin:round"
   d="m 19.776893,438.69347 c 57.189697,-18.2904 68.924234,-16.76183 96.973917,-14.23755 10.44654,0.94012 70.9597,5.38105 70.9597,5.38105 l 97.76149,14.76714 156.46974,-14.32964 70.09195,1.10486 34.82445,2.82943 -35.01921,-2.41079 -70.26602,-0.49027 -156.11942,13.45863 c 0,0 -7.39257,-0.85558 -11.07945,-1.35625 -24.81303,-3.36959 -74.29954,-11.08809 -74.29954,-11.08809 l -34.79095,-2.73715 -56.83807,-5.47119 c -11.991299,-1.15427 -31.483174,-0.20155 -43.099761,2.76017 l -20.367395,4.55197 -24.999572,7.41453"
   id="path95"
   sodipodi:nodetypes="csccccccccsccsccc" /></svg>
