<?xml version="1.0" encoding="UTF-8" standalone="no"?>
<!-- Created with Inkscape (http://www.inkscape.org/) -->

<svg
   width="110.66647mm"
   height="60.09mm"
   viewBox="0 0 110.66647 60.090001"
   version="1.1"
   id="svg1"
   inkscape:version="1.3 (0e150ed6c4, 2023-07-21)"
   sodipodi:docname="lorry.svg"
   xmlns:inkscape="http://www.inkscape.org/namespaces/inkscape"
   xmlns:sodipodi="http://sodipodi.sourceforge.net/DTD/sodipodi-0.dtd"
   xmlns="http://www.w3.org/2000/svg"
   xmlns:svg="http://www.w3.org/2000/svg">
  <sodipodi:namedview
     id="namedview1"
     pagecolor="#ffffff"
     bordercolor="#000000"
     borderopacity="0.25"
     inkscape:showpageshadow="2"
     inkscape:pageopacity="0.0"
     inkscape:pagecheckerboard="0"
     inkscape:deskcolor="#d1d1d1"
     inkscape:document-units="mm"
     inkscape:zoom="1.4324567"
     inkscape:cx="91.10223"
     inkscape:cy="49.914249"
     inkscape:window-width="2560"
     inkscape:window-height="1351"
     inkscape:window-x="1191"
     inkscape:window-y="187"
     inkscape:window-maximized="1"
     inkscape:current-layer="layer1" />
  <defs
     id="defs1" />
  <g
     inkscape:label="Layer 1"
     inkscape:groupmode="layer"
     id="layer1"
     transform="translate(-80.433333,-56.091666)">
    <g
       id="g130"
       transform="matrix(0.26458333,0,0,0.26458333,72.817698,11.994861)"
       style="stroke:#000000;stroke-opacity:1">
      <path
         style="fill:#ffffff;stroke:#000000;stroke-width:2;stroke-miterlimit:10;stroke-opacity:1"
         d="m 147.439,340.574 h -0.167 c 0.775,2.681 1.185,5.495 1.164,8.38 5.553,0 25.145,0 35.961,0 V 246.895 c 0,-2.166 -1.753,-3.922 -3.92,-3.922 h -87.86 c -2.345,0 -4.446,1.486 -5.227,3.698 l -12.525,35.45 -2.98,7.47 v 60.138 h 16.45 c 0.069,-2.881 0.327,-6.916 1.028,-9.699 2.94,-11.758 15.798,-20.989 29.308,-20.989 13.896,0 25.081,9.353 28.601,21.533 z"
         id="path94" />
      <path
         style="fill:#ffffff;stroke:#000000;stroke-width:2;stroke-miterlimit:10;stroke-opacity:1"
         d="m 142.02,259.257 c 0,-2.165 -1.755,-3.92 -3.922,-3.92 H 98.757 c -2.349,0 -4.457,1.479 -5.258,3.686 l -7.674,21.158 c -0.651,1.795 0.676,3.69 2.584,3.69 h 49.689 c 2.167,0 3.922,-1.756 3.922,-3.922 z"
         id="path95" />
      <path
         style="fill:#ffffff;stroke:#000000;stroke-width:2;stroke-miterlimit:10;stroke-opacity:1"
         d="m 142.189,290.721 c 0,1.782 -1.446,3.228 -3.229,3.228 h -6.458 c -1.781,0 -3.227,-1.445 -3.227,-3.228 0,-1.781 1.445,-3.227 3.227,-3.227 h 6.458 c 1.783,0 3.229,1.446 3.229,3.227 z"
         id="path96" />
      <g
         id="g97"
         style="stroke:#000000;stroke-opacity:1">
        <path
           style="fill:none;stroke:#000000;stroke-width:2;stroke-miterlimit:10;stroke-opacity:1"
           d="m 83.078,336.106 h -1.127 c -2.544,0 -4.612,-2.068 -4.612,-4.613 l 0.038,-43.218 11.563,-33.251 c 0.866,-2.494 3.224,-4.17 5.862,-4.17 h 48.495 c 2.542,0 4.613,2.068 4.613,4.613 v 53.744 c 0,2.543 -2.083,4.612 -4.64,4.612 h -25.822 c -12.335,0 -24.396,7.661 -28.681,18.216 -1.002,2.47 -3.236,4.067 -5.689,4.067 z"
           id="path97" />
      </g>
      <path
         style="fill:#ffffff;stroke:#000000;stroke-width:2;stroke-miterlimit:10;stroke-opacity:1"
         d="m 173.879,255.337 h -15.906 c -2.164,0 -3.92,1.755 -3.92,3.92 v 20.692 c 0,2.166 1.756,3.922 3.92,3.922 h 15.906 c 2.165,0 3.922,-1.756 3.922,-3.922 v -20.692 c 0,-2.165 -1.757,-3.92 -3.922,-3.92 z"
         id="path98" />
      <path
         style="fill:#ffffff;stroke:#000000;stroke-width:2;stroke-miterlimit:10;stroke-opacity:1"
         d="m 66.313,326.532 c 0,2.164 1.755,3.92 3.922,3.92 h 1.649 v -13.101 l -1.649,-0.003 c -2.163,-0.006 -3.922,1.748 -3.922,3.912 z"
         id="path99" />
      <path
         style="fill:#ffffff;stroke:#000000;stroke-width:2;stroke-miterlimit:10;stroke-opacity:1"
         d="m 75.005,348.063 c 0,1.084 -0.878,1.961 -1.961,1.961 h -7.105 c -1.182,0 -2.138,-0.958 -2.138,-2.139 V 334.12 c 0,-1.182 0.956,-2.139 2.138,-2.139 h 7.105 c 1.083,0 1.961,0.879 1.961,1.963 z"
         id="path100" />
      <rect
         x="203.215"
         y="306.89301"
         style="fill:#ffffff;stroke:#000000;stroke-width:2;stroke-miterlimit:10;stroke-opacity:1"
         width="190.83701"
         height="10.703"
         id="rect100" />
      <path
         style="fill:#ffffff;stroke:#000000;stroke-width:2;stroke-miterlimit:10;stroke-opacity:1"
         d="m 395.116,329.979 h 6.117 c 2.167,0 3.922,1.756 3.922,3.922 v 0.804 c 0,2.165 -1.755,3.921 -3.922,3.921 h -6.117 z"
         id="path101" />
      <path
         style="fill:#ffffff;stroke:#000000;stroke-width:2;stroke-miterlimit:10;stroke-opacity:1"
         d="m 396.613,314.245 c -26.389,0 -192.47,0 -212.202,0 v 34.773 c 20.553,0 66.251,0 70.166,0 0,-0.043 -0.006,-0.088 -0.006,-0.133 0,-16.447 13.33,-29.777 29.776,-29.777 15.175,0 29.272,11.531 29.778,29.91 h 9.615 c 0,-0.043 -0.005,-0.088 -0.005,-0.133 0,-16.34 13.341,-29.777 29.776,-29.777 15.149,0 29.262,11.486 29.779,29.949 h 17.255 v -30.892 c 0.002,-2.17 -1.765,-3.92 -3.932,-3.92 z"
         id="path102" />
      <path
         style="fill:#ffffff;stroke:#000000;stroke-width:2;stroke-miterlimit:10;stroke-opacity:1"
         d="m 124.312,242.922 h 54.639 v -22.361 c 0,-2.115 -1.801,-3.777 -3.909,-3.611 l -21.962,2.848 c -2.506,0.199 -4.86,1.344 -6.567,3.193 z"
         id="path103" />
      <path
         style="fill:#ffffff;stroke:#000000;stroke-width:2;stroke-miterlimit:10;stroke-opacity:1"
         d="m 193.002,303.98 c 0,2.3 1.866,4.167 4.166,4.167 h 210.697 c 2.302,0 4.168,-1.867 4.168,-4.167 V 190.303 c 0,-2.302 -1.866,-4.167 -4.168,-4.167 H 197.168 c -2.3,0 -4.166,1.865 -4.166,4.167 z"
         id="path104" />
      <g
         id="g112"
         style="stroke:#000000;stroke-opacity:1">
        <path
           style="fill:#ffffff;stroke:#000000;stroke-width:2;stroke-miterlimit:10;stroke-opacity:1"
           d="m 397.669,300.505 c 0,2.164 -1.757,3.921 -3.921,3.921 -2.178,0 -3.968,-1.742 -3.968,-3.921 V 196.71 c 0,-2.164 1.756,-3.92 3.921,-3.92 2.179,0 3.968,1.742 3.968,3.92 z"
           id="path105" />
        <path
           style="fill:#ffffff;stroke:#000000;stroke-width:2;stroke-miterlimit:10;stroke-opacity:1"
           d="m 371.354,300.505 c 0,2.164 -1.758,3.921 -3.922,3.921 -2.18,0 -3.967,-1.742 -3.967,-3.921 V 196.71 c 0,-2.164 1.755,-3.92 3.921,-3.92 2.177,0 3.968,1.742 3.968,3.92 z"
           id="path106" />
        <path
           style="fill:#ffffff;stroke:#000000;stroke-width:2;stroke-miterlimit:10;stroke-opacity:1"
           d="m 345.037,300.505 c 0,2.164 -1.758,3.921 -3.922,3.921 -2.179,0 -3.968,-1.742 -3.968,-3.921 V 196.71 c 0,-2.164 1.756,-3.92 3.922,-3.92 2.18,0 3.968,1.742 3.968,3.92 z"
           id="path107" />
        <path
           style="fill:#ffffff;stroke:#000000;stroke-width:2;stroke-miterlimit:10;stroke-opacity:1"
           d="m 318.722,300.505 c 0,2.164 -1.756,3.921 -3.922,3.921 -2.179,0 -3.969,-1.742 -3.969,-3.921 V 196.71 c 0,-2.164 1.758,-3.92 3.923,-3.92 2.178,0 3.968,1.742 3.968,3.92 z"
           id="path108" />
        <path
           style="fill:#ffffff;stroke:#000000;stroke-width:2;stroke-miterlimit:10;stroke-opacity:1"
           d="m 292.407,300.505 c 0,2.164 -1.756,3.921 -3.922,3.921 -2.18,0 -3.969,-1.742 -3.969,-3.921 V 196.71 c 0,-2.164 1.756,-3.92 3.923,-3.92 2.177,0 3.968,1.742 3.968,3.92 z"
           id="path109" />
        <path
           style="fill:#ffffff;stroke:#000000;stroke-width:2;stroke-miterlimit:10;stroke-opacity:1"
           d="m 266.091,300.505 c 0,2.164 -1.757,3.921 -3.923,3.921 -2.178,0 -3.965,-1.742 -3.965,-3.921 V 196.71 c 0,-2.164 1.755,-3.92 3.919,-3.92 2.178,0 3.969,1.742 3.969,3.92 z"
           id="path110" />
        <path
           style="fill:#ffffff;stroke:#000000;stroke-width:2;stroke-miterlimit:10;stroke-opacity:1"
           d="m 239.774,300.505 c 0,2.164 -1.756,3.921 -3.921,3.921 -2.18,0 -3.968,-1.742 -3.968,-3.921 V 196.71 c 0,-2.164 1.756,-3.92 3.921,-3.92 2.178,0 3.968,1.742 3.968,3.92 z"
           id="path111" />
        <path
           style="fill:#ffffff;stroke:#000000;stroke-width:2;stroke-miterlimit:10;stroke-opacity:1"
           d="m 213.459,300.505 c 0,2.164 -1.755,3.921 -3.922,3.921 -2.177,0 -3.967,-1.742 -3.967,-3.921 V 196.71 c 0,-2.164 1.756,-3.92 3.921,-3.92 2.179,0 3.968,1.742 3.968,3.92 z"
           id="path112" />
      </g>
      <path
         style="fill:#ffffff;stroke:#000000;stroke-width:2;stroke-miterlimit:10;stroke-opacity:1"
         d="m 405.086,353.008 c 0,2.168 -1.756,3.922 -3.919,3.922 h -7.376 c -2.163,0 -3.92,-1.754 -3.92,-3.922 v -6.681 c 0,-2.167 1.757,-3.922 3.92,-3.922 h 7.376 c 2.163,0 3.919,1.755 3.919,3.922 z"
         id="path113" />
      <g
         id="g118"
         style="stroke:#000000;stroke-opacity:1">
        <path
           style="fill:#ffffff;stroke:#000000;stroke-width:2;stroke-miterlimit:10;stroke-opacity:1"
           d="m 245.183,354.571 c 0,2.164 -1.756,3.921 -3.92,3.921 h -45.901 c -2.165,0 -3.922,-1.757 -3.922,-3.921 v -27.369 c 0,-2.166 1.757,-3.92 3.922,-3.92 h 45.901 c 2.164,0 3.92,1.754 3.92,3.92 z"
           id="path114" />
        <g
           id="g117"
           style="stroke:#000000;stroke-opacity:1">
          <path
             style="fill:#ffffff;stroke:#000000;stroke-width:2;stroke-miterlimit:10;stroke-opacity:1"
             d="m 234.392,358.957 c 0,1.338 -1.084,2.422 -2.421,2.422 -1.337,0 -2.421,-1.084 -2.421,-2.422 v -35.62 c 0,-1.335 1.084,-2.42 2.421,-2.42 1.337,0 2.421,1.085 2.421,2.42 z"
             id="path115" />
          <path
             style="fill:#ffffff;stroke:#000000;stroke-width:2;stroke-miterlimit:10;stroke-opacity:1"
             d="m 220.732,358.957 c 0,1.338 -1.085,2.422 -2.42,2.422 -1.337,0 -2.422,-1.084 -2.422,-2.422 v -35.62 c 0,-1.335 1.085,-2.42 2.422,-2.42 1.335,0 2.42,1.085 2.42,2.42 z"
             id="path116" />
          <path
             style="fill:#ffffff;stroke:#000000;stroke-width:2;stroke-miterlimit:10;stroke-opacity:1"
             d="m 207.073,358.957 c 0,1.338 -1.085,2.422 -2.421,2.422 -1.338,0 -2.422,-1.084 -2.422,-2.422 v -35.62 c 0,-1.335 1.084,-2.42 2.422,-2.42 1.336,0 2.421,1.085 2.421,2.42 z"
             id="path117" />
        </g>
      </g>
      <g
         id="g121"
         style="stroke:#000000;stroke-opacity:1">
        <path
           style="fill:#ffffff;stroke:#000000;stroke-width:2;stroke-miterlimit:10;stroke-opacity:1"
           d="m 144.088,348.809 c 0,14.082 -11.414,25.497 -25.494,25.497 -14.084,0 -25.499,-11.415 -25.499,-25.497 0,-14.082 11.415,-25.497 25.499,-25.497 14.08,0 25.494,11.415 25.494,25.497 z"
           id="path118" />
        <path
           style="fill:#ffffff;stroke:#000000;stroke-width:2;stroke-miterlimit:10;stroke-opacity:1"
           d="m 135.878,348.809 c 0,9.547 -7.739,17.285 -17.284,17.285 -9.548,0 -17.288,-7.738 -17.288,-17.285 0,-9.547 7.74,-17.285 17.288,-17.285 9.545,0 17.284,7.738 17.284,17.285 z"
           id="path119" />
        <path
           style="fill:#ffffff;stroke:#000000;stroke-width:2;stroke-miterlimit:10;stroke-opacity:1"
           d="m 132.52,348.809 c 0,7.691 -6.236,13.928 -13.927,13.928 -7.692,0 -13.93,-6.236 -13.93,-13.928 0,-7.691 6.237,-13.927 13.93,-13.927 7.691,0 13.927,6.236 13.927,13.927 z"
           id="path120" />
        <path
           style="fill:#ffffff;stroke:#000000;stroke-width:2;stroke-miterlimit:10;stroke-opacity:1"
           d="m 126.643,348.809 c 0,4.447 -3.605,8.051 -8.049,8.051 -4.447,0 -8.052,-3.604 -8.052,-8.051 0,-4.445 3.604,-8.051 8.052,-8.051 4.443,0 8.049,3.606 8.049,8.051 z"
           id="path121" />
      </g>
      <g
         id="g125"
         style="stroke:#000000;stroke-opacity:1">
        <path
           style="fill:#ffffff;stroke:#000000;stroke-width:2;stroke-miterlimit:10;stroke-opacity:1"
           d="m 309.715,348.809 c 0,14.082 -11.413,25.497 -25.494,25.497 -14.084,0 -25.498,-11.415 -25.498,-25.497 0,-14.082 11.414,-25.497 25.498,-25.497 14.081,0 25.494,11.415 25.494,25.497 z"
           id="path122" />
        <path
           style="fill:#ffffff;stroke:#000000;stroke-width:2;stroke-miterlimit:10;stroke-opacity:1"
           d="m 301.505,348.809 c 0,9.547 -7.738,17.285 -17.284,17.285 -9.547,0 -17.287,-7.738 -17.287,-17.285 0,-9.547 7.74,-17.285 17.287,-17.285 9.546,0 17.284,7.738 17.284,17.285 z"
           id="path123" />
        <path
           style="fill:#ffffff;stroke:#000000;stroke-width:2;stroke-miterlimit:10;stroke-opacity:1"
           d="m 298.147,348.809 c 0,7.691 -6.236,13.928 -13.927,13.928 -7.692,0 -13.93,-6.236 -13.93,-13.928 0,-7.691 6.237,-13.927 13.93,-13.927 7.691,0 13.927,6.236 13.927,13.927 z"
           id="path124" />
        <path
           style="fill:#ffffff;stroke:#000000;stroke-width:2;stroke-miterlimit:10;stroke-opacity:1"
           d="m 292.27,348.809 c 0,4.447 -3.604,8.051 -8.049,8.051 -4.447,0 -8.052,-3.604 -8.052,-8.051 0,-4.445 3.604,-8.051 8.052,-8.051 4.444,0 8.049,3.606 8.049,8.051 z"
           id="path125" />
      </g>
      <g
         id="g129"
         style="stroke:#000000;stroke-opacity:1">
        <path
           style="fill:#ffffff;stroke:#000000;stroke-width:2;stroke-miterlimit:10;stroke-opacity:1"
           d="m 379.075,348.809 c 0,14.082 -11.414,25.497 -25.495,25.497 -14.083,0 -25.498,-11.415 -25.498,-25.497 0,-14.082 11.415,-25.497 25.498,-25.497 14.081,0 25.495,11.415 25.495,25.497 z"
           id="path126" />
        <path
           style="fill:#ffffff;stroke:#000000;stroke-width:2;stroke-miterlimit:10;stroke-opacity:1"
           d="m 370.864,348.809 c 0,9.547 -7.738,17.285 -17.284,17.285 -9.546,0 -17.286,-7.738 -17.286,-17.285 0,-9.547 7.74,-17.285 17.286,-17.285 9.546,0 17.284,7.738 17.284,17.285 z"
           id="path127" />
        <path
           style="fill:#ffffff;stroke:#000000;stroke-width:2;stroke-miterlimit:10;stroke-opacity:1"
           d="m 367.507,348.809 c 0,7.691 -6.235,13.928 -13.927,13.928 -7.692,0 -13.929,-6.236 -13.929,-13.928 0,-7.691 6.237,-13.927 13.929,-13.927 7.692,0 13.927,6.236 13.927,13.927 z"
           id="path128" />
        <path
           style="fill:#ffffff;stroke:#000000;stroke-width:2;stroke-miterlimit:10;stroke-opacity:1"
           d="m 361.63,348.809 c 0,4.447 -3.605,8.051 -8.05,8.051 -4.446,0 -8.052,-3.604 -8.052,-8.051 0,-4.445 3.605,-8.051 8.052,-8.051 4.445,0 8.05,3.606 8.05,8.051 z"
           id="path129" />
      </g>
    </g>
  </g>
</svg>
