<svg width="418.267" height="60.09mm" viewBox="0 0 110.666 60.09" xmlns="http://www.w3.org/2000/svg"><g stroke="#000"><path d="M31.394 46.013h-.044c.205.71.314 1.454.308 2.218h9.515V21.227c0-.573-.464-1.037-1.037-1.037H16.889a1.47 1.47 0 00-1.383.978l-3.314 9.38-.788 1.976v15.912h4.352c.019-.763.087-1.83.272-2.567.778-3.11 4.18-5.553 7.755-5.553 3.676 0 6.636 2.475 7.567 5.697z" fill="#fff" stroke-width=".52916" stroke-miterlimit="10"/><path d="M29.96 24.498c0-.573-.464-1.037-1.037-1.037h-10.41c-.62 0-1.178.391-1.39.975l-2.03 5.598a.728.728 0 00.683.977h13.147c.573 0 1.037-.465 1.037-1.038zM30.005 32.823a.854.854 0 01-.854.854h-1.709a.854.854 0 010-1.708h1.709c.472 0 .854.383.854.854z" fill="#fff" stroke-width=".52916" stroke-miterlimit="10"/><path d="M14.365 44.831h-.298c-.673 0-1.22-.547-1.22-1.22l.01-11.435 3.06-8.798c.229-.66.852-1.103 1.55-1.103h12.831c.673 0 1.22.547 1.22 1.22v14.22c0 .673-.55 1.22-1.227 1.22H23.46c-3.263 0-6.455 2.028-7.588 4.82-.265.654-.857 1.076-1.506 1.076z" fill="none" stroke-width=".52916" stroke-miterlimit="10"/><path d="M38.39 23.461H34.18c-.572 0-1.037.464-1.037 1.037v5.475c0 .573.465 1.038 1.037 1.038h4.209c.573 0 1.038-.465 1.038-1.038v-5.475c0-.573-.465-1.037-1.038-1.037zM9.93 42.298c0 .573.464 1.037 1.037 1.037h.437V39.87h-.437a1.035 1.035 0 00-1.037 1.034zM12.23 47.995a.519.519 0 01-.52.519H9.83a.566.566 0 01-.565-.566v-3.642c0-.313.253-.566.566-.566h1.88a.52.52 0 01.518.52zM46.152 37.102h50.492v2.832H46.152zM96.925 43.21h1.619c.573 0 1.038.465 1.038 1.038v.213c0 .572-.465 1.037-1.038 1.037h-1.619z" fill="#fff" stroke-width=".52916" stroke-miterlimit="10"/><path d="M97.322 39.047H41.176v9.2h18.565l-.001-.035a7.878 7.878 0 017.878-7.878c4.015 0 7.745 3.05 7.879 7.914h2.544l-.002-.036c0-4.323 3.53-7.878 7.878-7.878 4.009 0 7.743 3.039 7.88 7.924h4.565v-8.174c0-.574-.467-1.037-1.04-1.037zM25.275 20.176h14.457V14.26c0-.56-.477-1-1.034-.955l-5.811.753a2.656 2.656 0 00-1.738.845zM43.45 36.331c0 .609.493 1.103 1.102 1.103h55.747c.609 0 1.102-.494 1.102-1.103V6.254c0-.609-.493-1.102-1.102-1.102H44.552c-.609 0-1.103.493-1.103 1.102z" fill="#fff" stroke-width=".52916" stroke-miterlimit="10"/><g fill="#fff" stroke-width="2" stroke-miterlimit="10"><path d="M97.601 35.412a1.044 1.044 0 01-2.087 0V7.949c0-.572.464-1.037 1.037-1.037.577 0 1.05.461 1.05 1.037zM90.638 35.412a1.043 1.043 0 01-2.087 0V7.949c0-.572.464-1.037 1.038-1.037.576 0 1.05.461 1.05 1.037zM83.675 35.412a1.044 1.044 0 01-2.088 0V7.949c0-.572.465-1.037 1.039-1.037.576 0 1.05.461 1.05 1.037zM76.713 35.412c0 .572-.465 1.037-1.038 1.037-.576 0-1.05-.46-1.05-1.037V7.949c0-.572.465-1.037 1.038-1.037.576 0 1.05.461 1.05 1.037zM69.75 35.412c0 .572-.464 1.037-1.037 1.037-.577 0-1.05-.46-1.05-1.037V7.949c0-.572.464-1.037 1.038-1.037.576 0 1.05.461 1.05 1.037zM62.788 35.412c0 .572-.465 1.037-1.038 1.037-.577 0-1.05-.46-1.05-1.037V7.949a1.044 1.044 0 012.087 0zM55.825 35.412c0 .572-.465 1.037-1.038 1.037-.577 0-1.05-.46-1.05-1.037V7.949c0-.572.465-1.037 1.038-1.037.576 0 1.05.461 1.05 1.037zM48.862 35.412c0 .572-.464 1.037-1.038 1.037-.576 0-1.05-.46-1.05-1.037V7.949c0-.572.465-1.037 1.038-1.037.577 0 1.05.461 1.05 1.037z" stroke-width=".52916"/></g><path d="M99.563 49.303c0 .574-.464 1.038-1.037 1.038h-1.951a1.037 1.037 0 01-1.037-1.038v-1.767c0-.574.465-1.038 1.037-1.038h1.951c.573 0 1.037.464 1.037 1.038z" fill="#fff" stroke-width=".52916" stroke-miterlimit="10"/><g fill="#fff" stroke-width="2" stroke-miterlimit="10"><path d="M57.256 49.717c0 .572-.465 1.037-1.037 1.037H44.074a1.038 1.038 0 01-1.038-1.037v-7.242c0-.573.465-1.037 1.038-1.037h12.145c.572 0 1.037.464 1.037 1.037z" stroke-width=".52916"/><path d="M54.4 50.877a.64.64 0 11-1.28 0v-9.424a.64.64 0 011.28 0zM50.786 50.877a.64.64 0 11-1.28 0v-9.424a.64.64 0 011.28 0zM47.172 50.877a.64.64 0 11-1.28 0v-9.424a.64.64 0 011.28 0z" stroke-width=".52916"/></g><g fill="#fff" stroke-width="2" stroke-miterlimit="10"><path d="M30.508 48.192a6.746 6.746 0 11-13.492 0 6.746 6.746 0 1113.492 0z" stroke-width=".52916"/><path d="M28.335 48.192a4.573 4.573 0 11-9.146 0 4.573 4.573 0 019.146 0z" stroke-width=".52916"/><path d="M27.447 48.192a3.685 3.685 0 11-7.37 0 3.685 3.685 0 017.37 0z" stroke-width=".52916"/><path d="M25.892 48.192a2.13 2.13 0 11-4.26 0 2.13 2.13 0 014.26 0z" stroke-width=".52916"/></g><g fill="#fff" stroke-width="2" stroke-miterlimit="10"><path d="M74.33 48.192a6.745 6.745 0 11-13.492 0 6.746 6.746 0 1113.492 0z" stroke-width=".52916"/><path d="M72.158 48.192a4.573 4.573 0 11-9.146 0 4.573 4.573 0 019.146 0z" stroke-width=".52916"/><path d="M71.27 48.192a3.685 3.685 0 11-7.372 0 3.685 3.685 0 017.371 0z" stroke-width=".52916"/><path d="M69.714 48.192a2.13 2.13 0 11-4.26 0 2.13 2.13 0 014.26 0z" stroke-width=".52916"/></g><g fill="#fff" stroke-width="2" stroke-miterlimit="10"><path d="M92.681 48.192a6.746 6.746 0 11-13.492 0 6.746 6.746 0 1113.492 0z" stroke-width=".52916"/><path d="M90.509 48.192a4.573 4.573 0 11-9.146 0 4.573 4.573 0 019.146 0z" stroke-width=".52916"/><path d="M89.62 48.192a3.685 3.685 0 11-7.37 0 3.685 3.685 0 017.37 0z" stroke-width=".52916"/><path d="M88.066 48.192a2.13 2.13 0 11-4.26 0 2.13 2.13 0 014.26 0z" stroke-width=".52916"/></g></g></svg>