<?xml version="1.0" encoding="UTF-8" standalone="no"?>
<!-- Created with Inkscape (http://www.inkscape.org/) -->

<svg
   xmlns:dc="http://purl.org/dc/elements/1.1/"
   xmlns:cc="http://creativecommons.org/ns#"
   xmlns:rdf="http://www.w3.org/1999/02/22-rdf-syntax-ns#"
   xmlns:svg="http://www.w3.org/2000/svg"
   xmlns="http://www.w3.org/2000/svg"
   xmlns:sodipodi="http://sodipodi.sourceforge.net/DTD/sodipodi-0.dtd"
   xmlns:inkscape="http://www.inkscape.org/namespaces/inkscape"
   width="105.15771"
   height="104.03331"
   viewBox="0 0 3000 2967.92"
   version="1.1"
   id="svg5820"
   inkscape:version="0.92.1 r15371"
   sodipodi:docname="monkey.svg">
  <defs
     id="defs5814" />
  <sodipodi:namedview
     id="base"
     pagecolor="#ffffff"
     bordercolor="#666666"
     borderopacity="1.0"
     inkscape:pageopacity="0.0"
     inkscape:pageshadow="2"
     inkscape:zoom="4.4716267"
     inkscape:cx="41.790607"
     inkscape:cy="39.014005"
     inkscape:document-units="px"
     inkscape:current-layer="layer1"
     showgrid="false"
     fit-margin-left="3"
     fit-margin-top="3"
     fit-margin-bottom="3"
     fit-margin-right="3"
     inkscape:window-width="1920"
     inkscape:window-height="1003"
     inkscape:window-x="-9"
     inkscape:window-y="-9"
     inkscape:window-maximized="1"
     units="mm"
     viewbox-width="397.44644"
     viewbox-height="2967.92" />
  <metadata
     id="metadata5817">
    <rdf:RDF>
      <cc:Work
         rdf:about="">
        <dc:format>image/svg+xml</dc:format>
        <dc:type
           rdf:resource="http://purl.org/dc/dcmitype/StillImage" />
        <dc:title />
      </cc:Work>
    </rdf:RDF>
  </metadata>
  <g
     inkscape:label="Layer 1"
     inkscape:groupmode="layer"
     id="layer1"
     transform="translate(-62.325904,-93.03687)">
    <path
       inkscape:connector-curvature="0"
       d="m 2874.4396,802.74517 c 0,222.09173 -180.1532,402.23563 -402.2072,402.23563 -35.9554,0 -70.4007,-4.8695 -103.3359,-13.4853 -108.9979,-189.8834 -180.9084,-428.07469 -205.2561,-646.04222 73.798,-88.38758 184.589,-144.55686 308.592,-144.55686 222.054,0 402.2072,180.13452 402.2072,401.84875 v 0"
       style="fill:#ffffff;fill-opacity:1;fill-rule:evenodd;stroke:none;stroke-width:0.94370592"
       id="path188" />
    <path
       inkscape:connector-curvature="0"
       d="m 2378.1448,1179.2554 c 31.2368,7.6817 62.8508,11.5699 94.0876,11.5699 213.9381,0 388.0518,-174.095 388.0518,-388.08013 0,-213.77783 -174.1137,-387.69334 -388.0518,-387.69334 -113.2449,0 -219.9778,49.08222 -293.87,134.88381 25.5742,221.72385 98.2396,450.35526 199.7824,629.31976 z m 94.0876,39.881 c -35.5779,0 -71.533,-4.6902 -106.9221,-13.9478 -3.6803,-0.9523 -6.8888,-3.3502 -8.7764,-6.6438 -105.8838,-184.5794 -181.3803,-422.05359 -206.9547,-651.51563 -0.4709,-3.84087 0.6607,-7.68174 3.2087,-10.64491 79.3656,-95.10683 195.819,-149.64352 319.4445,-149.64352 229.6035,0 416.3629,186.61782 416.3629,416.00443 0,229.59423 -186.7594,416.39123 -416.3629,416.39123"
       style="fill:#000000;fill-opacity:1;fill-rule:nonzero;stroke:none;stroke-width:0.94370592"
       id="path190" />
    <path
       inkscape:connector-curvature="0"
       d="m 756.95252,1191.118 c -33.69028,8.9933 -68.51303,13.8628 -104.46821,13.8628 -222.14837,0 -402.2735,-180.1439 -402.2735,-402.23563 0,-221.71423 180.12513,-401.84875 402.2735,-401.84875 124.28605,0 235.54898,56.54674 308.96929,145.31177 C 884.63594,753.31385 821.31328,995.25162 756.95252,1191.118 v 0"
       style="fill:#ffffff;fill-opacity:1;fill-rule:evenodd;stroke:none;stroke-width:0.94370592"
       id="path192" />
    <path
       inkscape:connector-curvature="0"
       d="m 652.48431,415.05183 c -214.0325,0 -388.11793,173.91551 -388.11793,387.69334 0,213.98513 174.08543,388.08013 388.11793,388.08013 31.14227,0 62.4733,-3.8598 93.42685,-11.4848 23.87577,-72.9958 47.27968,-151.2291 72.00478,-233.89764 C 857.83469,812.38987 898.98027,674.89198 945.31623,549.03922 871.70716,463.77532 765.44587,415.05183 652.48431,415.05183 Z M 756.95252,1191.118 h 0.0936 z m -104.46821,28.0184 c -229.60366,0 -416.4291,-186.797 -416.4291,-416.39123 0,-229.38661 186.82544,-416.00443 416.4291,-416.00443 124.19168,0 240.73934,54.82934 319.82187,150.4455 3.20864,3.88822 4.15233,9.20118 2.35941,13.93846 -47.09092,127.09855 -88.99148,267.07837 -129.57082,402.44342 -25.66881,85.64138 -49.92205,166.53578 -74.7415,241.97578 -1.51008,4.5391 -5.19039,8.0215 -9.81455,9.2576 -35.67208,9.5126 -72.00474,14.3349 -108.05431,14.3349"
       style="fill:#000000;fill-opacity:1;fill-rule:nonzero;stroke:none;stroke-width:0.94370592"
       id="path194" />
    <path
       inkscape:connector-curvature="0"
       d="m 2271.1285,694.13404 99.1837,313.47076 c 30.7646,14.9861 65.5874,23.6019 101.9202,23.6019 126.551,0 228.8486,-102.25031 228.8486,-228.46153 0,-126.21123 -102.6754,-228.45247 -228.8486,-228.45247 -86.9155,0 -162.6005,48.68577 -201.1039,119.84134 v 0"
       style="fill:#ffffff;fill-opacity:1;fill-rule:evenodd;stroke:none;stroke-width:0.94370592"
       id="path196" />
    <path
       inkscape:connector-curvature="0"
       d="m 2382.014,997.44117 c 28.2169,12.84383 59.359,19.61013 90.2184,19.61013 118.3406,0 214.693,-96.13537 214.693,-214.30613 0,-118.1614 -96.3524,-214.29679 -214.693,-214.29679 -76.8176,0 -147.4069,40.94732 -185.8158,107.25218 z m 90.2184,47.92123 c -37.1822,0 -74.5529,-8.6536 -108.0544,-25.0272 -3.4918,-1.6986 -6.134,-4.7562 -7.361,-8.4553 l -99.1834,-313.47083 c -1.2279,-3.66163 -0.848,-7.64401 1.0379,-11.013 42.5612,-78.49757 124.3804,-127.25878 213.5606,-127.25878 134.0061,0 243.0044,108.83743 243.0044,242.60788 0,133.7798 -108.9983,242.61723 -243.0044,242.61723"
       style="fill:#000000;fill-opacity:1;fill-rule:nonzero;stroke:none;stroke-width:0.94370592"
       id="path198" />
    <path
       inkscape:connector-curvature="0"
       d="M 754.31017,1007.6048 853.58802,694.13404 C 814.99045,622.97847 739.30523,574.2927 652.48431,574.2927 c -126.64534,0 -228.84868,102.24124 -228.84868,228.45247 0,126.21122 102.20334,228.46153 228.84868,228.46153 36.23828,0 71.15541,-8.6158 101.82586,-23.6019 v 0"
       style="fill:#ffffff;fill-opacity:1;fill-rule:evenodd;stroke:none;stroke-width:0.94370592"
       id="path200" />
    <path
       inkscape:connector-curvature="0"
       d="m 754.31017,1007.6142 h 0.0936 z M 652.48431,588.44838 c -118.43509,0 -214.69311,96.13539 -214.69311,214.29679 0,118.17076 96.25802,214.30613 214.69311,214.30613 30.85917,0 61.9071,-6.7663 90.21826,-19.61013 L 838.20561,695.70056 C 799.89114,629.3957 729.20759,588.44838 652.48431,588.44838 Z m 0,456.91402 c -134.00625,0 -243.00427,-108.83743 -243.00427,-242.61723 0,-133.77045 108.99802,-242.60788 243.00427,-242.60788 89.08583,0 170.99949,48.76121 213.56061,127.25878 1.7931,3.36899 2.17055,7.35137 1.03819,11.013 l -99.27785,313.47083 c -1.13236,3.6991 -3.77482,6.7567 -7.26654,8.4553 -33.59593,16.3736 -70.96668,25.0272 -108.05431,25.0272"
       style="fill:#000000;fill-opacity:1;fill-rule:nonzero;stroke:none;stroke-width:0.94370592"
       id="path202" />
    <path
       inkscape:connector-curvature="0"
       d="m 2347.0968,2150.6307 57.6607,132.9588 c 206.0107,-26.9711 522.5298,-459.16 213.5606,-682.3747 -278.299,-200.7358 -503.7503,85.7639 -425.517,247.9302 79.0823,164.4126 335.2041,129.5898 328.1264,-53.1778 -0.7543,-18.355 -14.2498,-51.3092 -57.2829,-51.3092 -6.0398,0 27.2732,48.6858 -30.0097,105.61 -38.5979,38.5788 -145.7083,50.1862 -174.8689,-47.1853 -29.2549,-97.3716 160.6188,-282.3849 328.0322,-105.9874 87.2927,92.5021 36.3326,358.042 -239.7014,453.5354 v 0"
       style="fill:#ffffff;fill-opacity:1;fill-rule:evenodd;stroke:none;stroke-width:0.94370592"
       id="path204" />
    <path
       inkscape:connector-curvature="0"
       d="m 2366.0655,2158.8126 47.3739,108.9983 c 110.6966,-22.2623 265.7475,-171.0562 308.6862,-340.8855 22.7434,-89.9541 21.7997,-217.4959 -112.1123,-314.2353 -115.887,-83.584 -239.7011,-87.7079 -331.1463,-11.0224 -77.0065,64.5778 -108.5261,168.3286 -73.3259,241.3337 41.806,86.9155 131.3637,108.9415 196.8569,92.7004 52.5644,-13.0608 107.5826,-56.4713 104.3739,-139.1779 -0.107,-1.2733 -1.4152,-26.9238 -26.1406,-35.1812 3.3974,21.6202 2.831,59.3781 -36.9933,98.9758 -26.9898,26.9334 -76.2513,39.0034 -117.2082,28.6605 -39.5414,-9.9658 -68.4188,-39.0317 -81.2532,-81.8289 -16.326,-54.4329 26.0464,-130.9958 94.4651,-170.6503 84.4616,-48.9784 180.7195,-29.972 257.443,50.847 40.1073,42.5232 53.1304,117.1799 34.0676,194.8562 -30.0098,122.4271 -128.6271,224.9323 -265.0868,276.6096 z m 38.692,138.9326 c -5.5679,0 -10.6639,-3.3029 -12.9289,-8.5217 l -57.6604,-132.9589 c -1.605,-3.6142 -1.605,-7.7194 0,-11.3243 1.605,-3.6146 4.6241,-6.3889 8.3045,-7.6818 134.7613,-46.6286 232.4348,-144.4908 261.2178,-261.8028 16.7979,-68.4471 6.4172,-133.0626 -27.1787,-168.6499 -96.6354,-101.8352 -187.8917,-65.9649 -222.7145,-45.8074 -56.7168,32.9071 -94.0876,96.107 -81.5361,138.0171 12.6456,42.1364 40.2017,57.2546 61.0577,62.5111 35.8606,9.0406 73.2314,-4.2186 90.3125,-21.2618 38.7864,-38.4937 30.2931,-71.2213 26.7069,-85.1978 -1.5088,-5.9263 -3.3029,-12.6456 1.5087,-18.8459 2.7369,-3.4634 7.361,-5.7187 11.7965,-5.7187 50.3939,0 70.306,38.8051 71.4384,64.8892 3.8692,99.7119 -62.4734,152.0404 -125.8902,167.7815 -76.2516,18.9778 -180.531,-6.7192 -229.132,-107.8939 -40.6736,-84.2918 -6.0395,-202.6514 80.5927,-275.2978 102.0144,-85.5565 238.8518,-81.9233 365.8747,9.7579 114.5658,82.744 158.2593,204.9541 123.0591,344.1316 -43.6935,172.5943 -207.1433,345.9722 -342.9425,363.7515 -0.6608,0.08 -1.2279,0.1337 -1.886,0.1337"
       style="fill:#000000;fill-opacity:1;fill-rule:nonzero;stroke:none;stroke-width:0.94370592"
       id="path206" />
    <path
       inkscape:connector-curvature="0"
       d="m 1120.185,1780.6131 h 885.0072 c 99.278,68.5319 384.2772,329.9479 410.1347,545.2923 8.9653,75.6566 -2.6429,164.0442 43.4103,282.017 6.7005,17.6001 -183.928,-30.3401 -223.1863,-179.0211 -39.7299,-148.6808 -409.3796,-81.2719 -320.9543,182.7582 76.3457,228.4616 67.7579,209.7385 52.7532,225.0926 -15.3825,15.3541 -244.8919,62.1713 -242.6269,21.3468 7.0777,-138.5738 -51.715,-199.2447 -164.1106,-204.4919 h 4.1526 c -122.4932,7.8706 -171.1883,65.9181 -164.0162,204.4919 2.2658,40.8245 -227.3388,-5.9927 -242.3437,-21.3468 -15.3824,-15.3541 -23.5927,3.369 52.8475,-225.0926 87.9534,-264.0301 -281.69616,-331.439 -320.95434,-182.7582 -39.35252,148.681 -230.35859,196.6212 -223.65828,179.0211 46.43034,-117.9728 34.44526,-206.3604 43.50485,-282.017 25.85754,-215.3444 310.85667,-476.7604 410.04027,-545.2923 v 0"
       style="fill:#ffffff;fill-opacity:1;fill-rule:evenodd;stroke:none;stroke-width:0.94370592"
       id="path208" />
    <path
       inkscape:connector-curvature="0"
       d="m 1168.2195,2826.5413 c 0.107,0.053 0.107,0.1338 0.1872,0.1873 0,-0.027 -0.08,-0.107 -0.1872,-0.1873 z m 570.5647,32.2558 c 0,0.01 0,0.021 0,0.027 0,-0.01 0,-0.021 0,-0.027 z m -352.1912,0.053 c 0,0 0,0.01 0,0.021 0,-0.01 0,-0.01 0,-0.021 z M 1168.0309,2826.33 c 21.2333,13.8724 192.8935,45.5431 218.4677,30.1703 -6.7002,-141.0557 44.4487,-206.1999 170.2448,-216.5051 1.2278,-0.3477 2.5467,-0.5457 3.8689,-0.5457 h 4.1526 c 1.1315,0 2.2657,0.1338 3.3973,0.4066 55.6787,3.7842 98.2396,21.5731 126.6451,52.9231 33.1241,36.5024 47.5628,90.0766 44.1655,163.7235 25.5744,15.3635 197.329,-16.3072 218.8454,-30.208 1.2279,-1.2546 2.5467,-2.3968 3.7748,-3.4634 0.6608,-0.6046 1.4151,-1.1048 1.8886,-1.7468 2.5467,-9.9845 -21.9883,-84.405 -62.3789,-204.9351 -34.6342,-103.4868 -0.7544,-169.8577 33.7846,-207.3039 52.4701,-56.8584 145.5196,-84.5655 221.299,-65.8517 49.0729,12.0983 82.1025,41.3058 93.0494,82.2534 29.4438,111.3193 146.8406,160.2507 189.6848,170.1123 -28.1222,-79.8565 -30.9535,-145.4535 -33.4071,-203.7934 -0.9443,-22.5733 -1.8859,-43.8917 -4.2466,-63.9831 -25.0082,-208.0398 -302.1748,-463.3594 -400.5088,-532.816 h -876.1377 c -98.3341,69.4566 -375.50052,324.7762 -400.41435,532.8256 -2.45358,20.1104 -3.30299,41.4759 -4.24668,64.0872 -2.35941,58.2925 -5.09601,123.8425 -33.50158,203.6893 43.033,-9.8429 160.61875,-58.7079 190.15676,-170.084 10.75823,-40.8718 43.5992,-70.0703 92.38882,-82.225 75.77953,-18.8365 168.82893,8.7574 221.48773,65.6252 48.9784,52.942 61.0577,126.617 34.1623,207.4453 -41.6174,124.2957 -64.9271,195.1302 -62.1904,205.6336 0.19,-0.1605 0.8494,0.3959 1.6043,1.0192 1.2278,1.0567 2.5493,2.1989 3.9636,3.5485 z m 186.193,61.8977 c -71.3442,0.01 -190.5341,-25.7914 -205.9165,-41.5987 -0.8494,-0.8212 -1.7931,-1.5863 -2.6425,-2.3113 -20.9502,-17.8831 -20.4784,-20.1007 52.0927,-237.1437 30.1983,-90.4637 1.4151,-147.4163 -28.0281,-179.2665 -52.1871,-56.3675 -137.0262,-71.514 -193.83728,-57.3677 -22.17707,5.5205 -61.05777,20.9314 -71.9104,61.9731 -32.65222,123.3989 -162.41176,179.0305 -209.59706,190.0529 -20.76153,4.8507 -31.80289,3.8692 -38.12571,-3.388 -3.96358,-4.5107 -5.00166,-10.6165 -2.83114,-16.3259 32.93535,-83.6501 35.76646,-152.0123 38.22009,-212.3339 1.0382,-23.1773 1.88753,-45.0714 4.43543,-66.2858 26.70687,-222.894 314.34837,-485.0082 416.07987,-555.2767 2.3594,-1.6238 5.1904,-2.5012 8.0216,-2.5012 h 885.0073 c 2.9254,0 5.6623,0.8774 8.0214,2.5012 101.7317,70.2685 389.373,332.3827 416.1743,555.2673 2.4531,21.1673 3.3974,43.0141 4.4356,66.1347 2.5466,60.3689 5.4734,128.797 38.1256,212.4093 2.1695,5.7945 1.1316,11.9003 -2.831,16.4207 -6.3228,7.2475 -17.27,8.229 -37.9371,3.3973 -47.1853,-11.0036 -176.6617,-66.6069 -209.3139,-190.0625 -11.0414,-41.1456 -50.1108,-56.5374 -72.4765,-62.0486 -56.9055,-14.0519 -141.7449,1.2172 -193.6485,57.566 -29.3493,31.8312 -58.0381,88.7556 -27.745,179.1249 73.1372,218.7794 72.3821,219.4682 52.1869,237.0306 -0.848,0.7276 -1.7923,1.49 -2.643,2.4343 -20.101,20.0444 -205.0673,55.6787 -249.9876,35.6154 -16.1374,-7.2476 -17.27,-19.8461 -16.9867,-24.9327 3.3973,-66.8803 -8.5878,-114.4998 -36.7103,-145.5194 -24.1588,-26.6691 -60.3972,-41.0417 -110.791,-43.8918 -113.1505,8.0309 -154.7679,61.3598 -148.1618,189.4585 0.2835,5.077 -0.8507,17.7604 -17.3642,24.9892 -9.3427,4.1335 -24.7251,5.8793 -43.3161,5.8793"
       style="fill:#000000;fill-opacity:1;fill-rule:nonzero;stroke:none;stroke-width:0.94370592"
       id="path210" />
    <path
       inkscape:connector-curvature="0"
       d="m 2374.8419,1091.8776 c 0,33.6998 -1.8886,67.0411 -5.9454,99.6179 -49.0726,401.4806 -391.0717,712.7054 -806.0192,712.7054 -414.9474,0 -757.22954,-311.2248 -805.92478,-713.0829 -4.1523,-32.5768 -6.41718,-65.5406 -6.41718,-99.2404 0,-210.10653 79.8375,-401.85809 210.91826,-545.66941 148.6337,-163.66704 362.8549,-266.28555 601.4237,-266.28555 238.1914,0 452.4127,102.24105 600.7631,265.53064 41.1455,45.31652 77.1009,95.12556 107.4881,148.68076 53.1307,94.38001 87.576,200.36769 99.1837,313.47076 3.0199,27.7167 4.5297,55.8109 4.5297,84.2728 v 0"
       style="fill:#ffffff;fill-opacity:1;fill-rule:evenodd;stroke:none;stroke-width:0.94370592"
       id="path212" />
    <path
       inkscape:connector-curvature="0"
       d="m 1562.8773,294.07823 c -224.5075,0 -439.9557,95.36139 -590.94857,261.64252 -133.62875,146.58564 -207.23781,336.98788 -207.23781,536.15685 0,32.3128 2.07612,64.2004 6.32282,97.466 48.31774,399.499 388.80686,700.7016 791.86356,700.7016 402.6794,0 743.1684,-301.0515 791.958,-700.2674 3.8692,-30.9065 5.8509,-63.8323 5.8509,-97.9002 0,-27.8298 -1.5088,-55.669 -4.4353,-82.744 C 2345.0207,899.57875 2312.2741,795.95985 2258.766,701.08923 2228.9451,648.42081 2193.3671,599.25379 2153.1654,554.9752 2002.55,389.16596 1787.3849,294.07823 1562.8773,294.07823 Z m 0,1624.27837 c -417.4011,0 -769.87522,-311.9136 -819.98597,-725.5306 -4.34106,-34.3888 -6.51158,-67.4372 -6.51158,-100.9484 0,-206.24667 76.25142,-403.42461 214.5987,-555.21032 156.37205,-172.15085 379.46405,-270.90024 611.89885,-270.90024 232.529,0 455.2437,98.46629 611.2384,270.17369 41.6174,45.81676 78.4219,96.70144 109.281,151.2194 55.3956,98.31504 89.369,205.6333 101.0709,319.00067 3.0199,28.0187 4.5299,56.8774 4.5299,85.7168 0,35.2569 -2.0758,69.3625 -6.1342,101.392 -50.4882,413.3432 -402.9623,725.087 -819.986,725.087"
       style="fill:#000000;fill-opacity:1;fill-rule:nonzero;stroke:none;stroke-width:0.94370592"
       id="path214" />
    <path
       inkscape:connector-curvature="0"
       d="m 2183.8359,1180.2652 c 0,311.9704 -278.299,564.3928 -620.9586,564.3928 -343.037,0.3772 -621.33589,-252.4224 -621.33589,-564.3928 0,-211.22955 100.03279,-492.12359 316.89639,-492.12359 204.1235,0 304.4395,146.44413 304.4395,146.44413 0,0 107.4882,-146.44413 304.5339,-146.06667 227.3389,0 316.4247,280.88441 316.4247,491.74613 v 0"
       style="fill:#ffffff;fill-opacity:1;fill-rule:evenodd;stroke:none;stroke-width:0.94370592"
       id="path216" />
    <path
       inkscape:connector-curvature="0"
       d="m 1258.4378,702.30639 c -208.8421,0 -302.74079,279.48802 -302.74079,477.95881 0,137.0828 55.96169,268.4277 157.41009,369.8383 114.8491,114.6603 278.4875,180.3895 449.0153,180.3989 0.2836,0 0.4708,0 0.7544,0 334.6381,0 606.8028,-246.8452 606.8028,-550.2372 0,-191.97812 -80.498,-477.59072 -302.2689,-477.59072 -0.2836,0 -0.5671,0 -0.7544,0 -186.6649,0 -291.322,138.89481 -292.3602,140.30082 -2.7366,3.68037 -7.3607,5.61498 -11.6074,5.75649 -4.6241,-0.0802 -8.8708,-2.36744 -11.5132,-6.1433 -0.9443,-1.38836 -98.9948,-140.2821 -292.7377,-140.2821 z m 303.6846,1056.50701 c -177.9829,0 -348.8882,-68.7394 -469.0218,-188.6749 -106.82752,-106.752 -165.71479,-245.2126 -165.71479,-389.8733 0,-116.3776 29.44363,-240.48467 78.79939,-331.99566 61.5296,-114.00915 148.7281,-174.27424 252.2526,-174.27424 172.4151,0 272.5422,99.52337 304.7225,137.92269 33.5018,-37.98415 136.9319,-137.5546 303.4016,-137.5546 0.2836,0 0.5671,0 0.8507,0 242.5324,0 330.58,302.54259 330.58,505.90181 0,319.0104 -284.9048,578.5482 -635.1139,578.5482 -0.2836,0 -0.4735,0 -0.7544,0"
       style="fill:#000000;fill-opacity:1;fill-rule:nonzero;stroke:none;stroke-width:0.94370592"
       id="path218" />
    <path
       inkscape:connector-curvature="0"
       d="m 1562.8773,1565.1934 c -157.2214,0 -303.5901,-77.5159 -391.4491,-207.3417 -4.4355,-6.4736 -2.7369,-15.2786 3.7748,-19.6572 6.5116,-4.3788 15.288,-2.6801 19.6291,3.7842 82.6686,122.04 220.2609,194.9036 368.0452,194.9036 147.5013,0 285.0937,-72.873 368.0452,-194.9223 4.4356,-6.4646 13.2119,-8.1349 19.7236,-3.7468 6.4172,4.3979 8.1159,13.193 3.6804,19.6575 -88.2365,129.8162 -234.6052,207.3227 -391.4492,207.3227"
       style="fill:#000000;fill-opacity:1;fill-rule:nonzero;stroke:none;stroke-width:0.94370592"
       id="path220" />
    <path
       inkscape:connector-curvature="0"
       d="m 1570.0495,1345.3477 c -32.6522,0 -63.4169,-12.6173 -86.7267,-35.5116 -5.5676,-5.4735 -5.662,-14.4387 -0.1872,-20.0253 5.4734,-5.5776 14.4387,-5.6624 20.0066,-0.1873 18.0249,17.6849 41.8063,27.4144 66.9089,27.4144 25.2912,0 49.167,-9.7295 67.1916,-27.4144 5.5679,-5.4641 14.5331,-5.398 20.0066,0.1873 5.4735,5.5866 5.379,14.5518 -0.1872,20.0253 -23.3096,22.8943 -54.2631,35.5116 -87.0097,35.5116"
       style="fill:#000000;fill-opacity:1;fill-rule:nonzero;stroke:none;stroke-width:0.94370592"
       id="path222" />
    <path
       inkscape:connector-curvature="0"
       d="m 1372.6262,1073.9001 c 0,60.6709 -25.8575,110.1022 -57.6603,110.1022 -32.1804,0 -58.0379,-49.4313 -58.0379,-110.1022 0,-61.0484 25.8575,-110.1116 58.0379,-110.1116 31.8028,0 57.6603,49.0632 57.6603,110.1116 v 0"
       style="fill:#ffffff;fill-opacity:1;fill-rule:evenodd;stroke:none;stroke-width:0.94370592"
       id="path224" />
    <path
       style="fill:#000000;fill-opacity:1;fill-rule:nonzero;stroke:none;stroke-width:1.15022099"
       d="m 1335.1283,955.64258 c -40.0286,-0.25178 -76.5046,28.78538 -89.9405,65.59222 -18.0386,44.6164 -11.9188,99.6814 19.503,136.9234 21.4721,25.332 56.6822,39.6444 89.7277,32.2448 32.1825,-6.506 59.0149,-31.2127 71.4435,-61.3618 20.7913,-47.4089 13.2466,-107.8767 -23.4544,-145.22675 -17.6864,-17.7239 -41.9879,-28.99574 -67.2793,-28.17187 z m 1.3828,16.30078 c 24.556,0.60575 44.4217,19.57458 55.4738,40.10434 24.6636,45.8198 19.6306,107.8641 -17.0441,145.964 -13.7066,14.0092 -35.4848,22.7526 -54.5195,14.7656 -27.0723,-10.2591 -43.6548,-37.485 -50.684,-64.3753 -10.7875,-40.7163 -2.5283,-88.2012 27.7719,-118.72622 10.4437,-10.09067 24.173,-17.68613 39.0019,-17.73242 z"
       id="path226"
       inkscape:connector-curvature="0" />
    <path
       inkscape:connector-curvature="0"
       d="m 1336.4563,1030.1844 c 5.9531,0 12.0143,1.2886 17.2096,3.431 -4.7623,3.0098 -7.793,8.5938 -7.793,15.034 0,9.8818 8.1175,18.0429 18.5083,18.0429 5.9531,0 11.5813,-3.0098 15.0448,-7.7389 2.0556,5.163 2.9238,11.1701 2.9238,17.1878 0,25.3383 -20.5648,45.9571 -45.8919,45.9571 -25.3272,0 -46.0001,-20.6188 -46.0001,-45.9571 0,-25.338 20.6729,-45.9568 46.0001,-45.9568 v 0"
       style="fill:#000000;fill-opacity:1;fill-rule:evenodd;stroke:none;stroke-width:1.0823586"
       id="path234" />
    <path
       inkscape:connector-curvature="0"
       d="m 1842.3563,1073.8862 c 0,60.6709 -25.8575,110.1022 -57.6603,110.1022 -32.1804,0 -58.0379,-49.4313 -58.0379,-110.1022 0,-61.0484 25.8575,-110.11159 58.0379,-110.11159 31.8028,0 57.6603,49.06319 57.6603,110.11159 v 0"
       style="fill:#ffffff;fill-opacity:1;fill-rule:evenodd;stroke:none;stroke-width:0.94370586"
       id="path224-6" />
    <path
       style="fill:#000000;fill-opacity:1;fill-rule:nonzero;stroke:none;stroke-width:1.15022075"
       d="m 1804.8584,955.62869 c -40.0286,-0.25178 -76.5046,28.78538 -89.9405,65.59221 -18.0386,44.6164 -11.9188,99.6814 19.503,136.9234 21.4721,25.332 56.6822,39.6444 89.7277,32.2448 32.1825,-6.506 59.0149,-31.2127 71.4435,-61.3618 20.7912,-47.4089 13.2466,-107.8767 -23.4544,-145.22674 -17.6864,-17.7239 -41.9879,-28.99574 -67.2793,-28.17187 z m 1.3828,16.30078 c 24.556,0.60575 44.4217,19.5746 55.4738,40.10433 24.6636,45.8198 19.6306,107.8641 -17.0441,145.964 -13.7066,14.0092 -35.4848,22.7526 -54.5195,14.7656 -27.0723,-10.2591 -43.6548,-37.485 -50.684,-64.3753 -10.7875,-40.7163 -2.5283,-88.2012 27.7719,-118.72623 10.4437,-10.09065 24.173,-17.68611 39.0019,-17.7324 z"
       id="path226-5"
       inkscape:connector-curvature="0" />
    <path
       inkscape:connector-curvature="0"
       d="m 1803.3669,1030.1705 c 5.9531,0 12.0143,1.2886 17.2096,3.431 -4.7623,3.0098 -7.793,8.5938 -7.793,15.034 0,9.8818 8.1175,18.0429 18.5083,18.0429 5.9531,0 11.5813,-3.0098 15.0448,-7.7389 2.0556,5.163 2.9238,11.1701 2.9238,17.1878 0,25.3383 -20.5648,45.9571 -45.8919,45.9571 -25.3272,0 -46.0001,-20.6188 -46.0001,-45.9571 0,-25.338 20.6729,-45.9568 46.0001,-45.9568 v 0"
       style="fill:#000000;fill-opacity:1;fill-rule:evenodd;stroke:none;stroke-width:1.08235836"
       id="path234-0" />
  </g>
</svg>
