<?xml version="1.0" encoding="UTF-8" standalone="no"?>
<!-- Created with Inkscape (http://www.inkscape.org/) -->

<svg
   xmlns:dc="http://purl.org/dc/elements/1.1/"
   xmlns:cc="http://creativecommons.org/ns#"
   xmlns:rdf="http://www.w3.org/1999/02/22-rdf-syntax-ns#"
   xmlns:svg="http://www.w3.org/2000/svg"
   xmlns="http://www.w3.org/2000/svg"
   xmlns:sodipodi="http://sodipodi.sourceforge.net/DTD/sodipodi-0.dtd"
   xmlns:inkscape="http://www.inkscape.org/namespaces/inkscape"
   width="105.15771"
   height="104.03331"
   viewBox="0 0 105.15771 104.03331"
   version="1.1"
   id="svg5820"
   inkscape:version="0.92.1 r15371"
   sodipodi:docname="monkey.svg">
  <defs
     id="defs5814" />
  <sodipodi:namedview
     id="base"
     pagecolor="#ffffff"
     bordercolor="#666666"
     borderopacity="1.0"
     inkscape:pageopacity="0.0"
     inkscape:pageshadow="2"
     inkscape:zoom="3.959798"
     inkscape:cx="107.17156"
     inkscape:cy="43.484098"
     inkscape:document-units="px"
     inkscape:current-layer="layer1"
     showgrid="false"
     fit-margin-left="3"
     fit-margin-top="3"
     fit-margin-bottom="3"
     fit-margin-right="3"
     inkscape:window-width="1920"
     inkscape:window-height="1003"
     inkscape:window-x="-9"
     inkscape:window-y="-9"
     inkscape:window-maximized="1"
     units="mm"
     viewbox-width="397.44644" />
  <metadata
     id="metadata5817">
    <rdf:RDF>
      <cc:Work
         rdf:about="">
        <dc:format>image/svg+xml</dc:format>
        <dc:type
           rdf:resource="http://purl.org/dc/dcmitype/StillImage" />
        <dc:title></dc:title>
      </cc:Work>
    </rdf:RDF>
  </metadata>
  <g
     inkscape:label="Layer 1"
     inkscape:groupmode="layer"
     id="layer1"
     transform="translate(-62.325904,-93.03687)">
    <path
       inkscape:connector-curvature="0"
       d="m 163.95445,116.11028 c 0,8.30227 -6.73452,15.03644 -15.03538,15.03644 -1.34409,0 -2.63173,-0.18203 -3.86292,-0.50411 -4.07458,-7.09825 -6.76275,-16.00236 -7.67292,-24.15046 2.75873,-3.30412 6.90034,-5.40385 11.53584,-5.40385 8.30086,0 15.03538,6.73382 15.03538,15.02198 v 0"
       style="fill:#ffffff;fill-opacity:1;fill-rule:evenodd;stroke:none;stroke-width:0.03527778"
       id="path188" />
    <path
       inkscape:connector-curvature="0"
       d="m 145.40187,130.18505 c 1.1677,0.28716 2.3495,0.43251 3.5172,0.43251 7.99747,0 14.50622,-6.50805 14.50622,-14.50728 0,-7.99148 -6.50875,-14.49282 -14.50622,-14.49282 -4.23334,0 -8.22325,1.8348 -10.9855,5.04225 0.95602,8.28852 3.67241,16.83526 7.4683,23.52534 z m 3.5172,1.49084 c -1.32998,0 -2.67406,-0.17533 -3.99698,-0.5214 -0.13758,-0.0356 -0.25752,-0.12524 -0.32808,-0.24836 -3.95817,-6.89998 -6.78039,-15.77728 -7.73642,-24.35507 -0.0176,-0.14358 0.0247,-0.28716 0.11995,-0.39793 2.96686,-3.5553 7.32014,-5.594 11.94153,-5.594 8.58308,0 15.56455,6.97618 15.56455,15.55115 0,8.58273 -6.98147,15.56561 -15.56455,15.56561"
       style="fill:#000000;fill-opacity:1;fill-rule:nonzero;stroke:none;stroke-width:0.03527778"
       id="path190" />
    <path
       inkscape:connector-curvature="0"
       d="m 84.798178,130.6285 c -1.259416,0.33619 -2.561166,0.51822 -3.905249,0.51822 -8.304389,0 -15.037858,-6.73417 -15.037858,-15.03644 0,-8.28816 6.733469,-15.02198 15.037858,-15.02198 4.646083,0 8.805333,2.11384 11.549944,5.43207 -2.871611,7.74206 -5.23875,16.78622 -7.644695,24.10813 v 0"
       style="fill:#ffffff;fill-opacity:1;fill-rule:evenodd;stroke:none;stroke-width:0.03527778"
       id="path192" />
    <path
       inkscape:connector-curvature="0"
       d="m 80.892929,101.61746 c -8.001,0 -14.508692,6.50134 -14.508692,14.49282 0,7.99923 6.507692,14.50728 14.508692,14.50728 1.164166,0 2.335388,-0.14429 3.492499,-0.42933 0.892528,-2.72874 1.767417,-5.65327 2.691695,-8.7436 1.49225,-4.97381 3.030361,-10.11378 4.7625,-14.81843 -2.751667,-3.18735 -6.723945,-5.00874 -10.946694,-5.00874 z m 3.905249,29.01104 h 0.0035 z m -3.905249,1.04739 c -8.583084,0 -15.567025,-6.98288 -15.567025,-15.56561 0,-8.57497 6.983941,-15.55115 15.567025,-15.55115 4.642555,0 8.99936,2.04964 11.955637,5.62398 0.119946,0.14535 0.155223,0.34396 0.0882,0.52105 -1.760361,4.75122 -3.326695,9.98397 -4.843639,15.04421 -0.959556,3.20146 -1.866195,6.22547 -2.794,9.04558 -0.05645,0.16968 -0.194028,0.29986 -0.366889,0.34607 -1.3335,0.3556 -2.691694,0.53587 -4.039305,0.53587"
       style="fill:#000000;fill-opacity:1;fill-rule:nonzero;stroke:none;stroke-width:0.03527778"
       id="path194" />
    <path
       inkscape:connector-curvature="0"
       d="m 141.40137,112.05016 3.7077,11.71822 c 1.15005,0.56021 2.4518,0.88229 3.81,0.88229 4.73075,0 8.55486,-3.82234 8.55486,-8.54039 0,-4.71805 -3.83823,-8.54005 -8.55486,-8.54005 -3.24909,0 -6.07836,1.81998 -7.5177,4.47993 v 0"
       style="fill:#ffffff;fill-opacity:1;fill-rule:evenodd;stroke:none;stroke-width:0.03527778"
       id="path196" />
    <path
       inkscape:connector-curvature="0"
       d="m 145.54651,123.38844 c 1.05481,0.48013 2.21897,0.73307 3.37256,0.73307 4.42383,0 8.02569,-3.59375 8.02569,-8.01123 0,-4.41713 -3.60186,-8.01088 -8.02569,-8.01088 -2.87161,0 -5.51039,1.5307 -6.9462,4.00932 z m 3.37256,1.7914 c -1.38995,0 -2.78695,-0.32349 -4.03931,-0.93557 -0.13053,-0.0635 -0.2293,-0.1778 -0.27517,-0.31608 l -3.70769,-11.71822 c -0.0459,-0.13688 -0.0317,-0.28575 0.0388,-0.41169 1.59103,-2.93441 4.64961,-4.75721 7.98336,-4.75721 5.00944,0 9.08403,4.06858 9.08403,9.06921 0,5.00098 -4.07459,9.06956 -9.08403,9.06956"
       style="fill:#000000;fill-opacity:1;fill-rule:nonzero;stroke:none;stroke-width:0.03527778"
       id="path198" />
    <path
       inkscape:connector-curvature="0"
       d="m 84.699401,123.76838 3.711222,-11.71822 c -1.442861,-2.65995 -4.272139,-4.47993 -7.517694,-4.47993 -4.734278,0 -8.554861,3.822 -8.554861,8.54005 0,4.71805 3.820583,8.54039 8.554861,8.54039 1.354666,0 2.659944,-0.32208 3.806472,-0.88229 v 0"
       style="fill:#ffffff;fill-opacity:1;fill-rule:evenodd;stroke:none;stroke-width:0.03527778"
       id="path200" />
    <path
       inkscape:connector-curvature="0"
       d="m 84.699401,123.76873 h 0.0035 z M 80.892929,108.0994 c -4.427361,0 -8.025695,3.59375 -8.025695,8.01088 0,4.41748 3.598334,8.01123 8.025695,8.01123 1.153583,0 2.314222,-0.25294 3.372555,-0.73307 l 3.570111,-11.27972 c -1.432278,-2.47862 -4.074583,-4.00932 -6.942666,-4.00932 z m 0,17.08044 c -5.009445,0 -9.084028,-4.06858 -9.084028,-9.06956 0,-5.00063 4.074583,-9.06921 9.084028,-9.06921 3.330222,0 6.392333,1.8228 7.98336,4.75721 0.06703,0.12594 0.08114,0.27481 0.03881,0.41169 l -3.711222,11.71822 c -0.04233,0.13828 -0.141111,0.25258 -0.271639,0.31608 -1.255889,0.61208 -2.652889,0.93557 -4.039305,0.93557"
       style="fill:#000000;fill-opacity:1;fill-rule:nonzero;stroke:none;stroke-width:0.03527778"
       id="path202" />
    <path
       inkscape:connector-curvature="0"
       d="m 144.24123,166.49717 2.15548,4.97029 c 7.70113,-1.00824 19.5333,-17.1644 7.98336,-25.50865 -10.40342,-7.50394 -18.83128,3.20604 -15.90675,9.26817 2.95627,6.1461 12.53066,4.84435 12.26608,-1.9879 -0.0282,-0.68615 -0.53269,-1.91805 -2.14136,-1.91805 -0.22578,0 1.01953,1.81998 -1.12183,3.94793 -1.44287,1.44216 -5.44689,1.87607 -6.53698,-1.76389 -1.09361,-3.63996 6.00428,-10.55616 12.26256,-3.96204 3.26319,3.45793 1.35819,13.38439 -8.96056,16.95414 v 0"
       style="fill:#ffffff;fill-opacity:1;fill-rule:evenodd;stroke:none;stroke-width:0.03527778"
       id="path204" />
    <path
       inkscape:connector-curvature="0"
       d="m 144.95032,166.80303 1.77094,4.07459 c 4.13808,-0.83221 9.93422,-6.39445 11.53936,-12.74304 0.8502,-3.36268 0.81492,-8.13047 -4.191,-11.7468 -4.33211,-3.12455 -8.96055,-3.27871 -12.37897,-0.41204 -2.87867,2.41406 -4.05694,6.29249 -2.74108,9.02158 1.5628,3.24909 4.91066,4.07247 7.35894,3.46534 1.96497,-0.48824 4.02167,-2.11102 3.90172,-5.20277 -0.004,-0.0476 -0.0529,-1.00647 -0.97719,-1.31515 0.127,0.80821 0.10583,2.21968 -1.38289,3.69993 -1.00894,1.00683 -2.85044,1.45803 -4.3815,1.07139 -1.47814,-0.37254 -2.55764,-1.45909 -3.03742,-3.05894 -0.6103,-2.03482 0.97367,-4.89691 3.53131,-6.37928 3.15736,-1.83092 6.75569,-1.12042 9.62378,1.90077 1.4993,1.58961 1.98613,4.38044 1.27352,7.28415 -1.12183,4.57659 -4.80836,8.40846 -9.90952,10.34027 z m 1.44639,5.1936 c -0.20814,0 -0.39864,-0.12347 -0.48331,-0.31856 l -2.15547,-4.97029 c -0.06,-0.13511 -0.06,-0.28857 0,-0.42333 0.06,-0.13512 0.17286,-0.23883 0.31044,-0.28716 5.03767,-1.74308 8.68892,-5.40138 9.76489,-9.78676 0.62794,-2.5587 0.23989,-4.97417 -1.016,-6.3045 -3.61244,-3.80682 -7.0238,-2.46591 -8.32555,-1.71238 -2.1202,1.23014 -3.5172,3.59269 -3.048,5.15938 0.47272,1.57515 1.50283,2.1403 2.28247,2.3368 1.34055,0.33796 2.73755,-0.1577 3.37608,-0.79481 1.44992,-1.43898 1.13242,-2.66241 0.99836,-3.18488 -0.0564,-0.22154 -0.12347,-0.47272 0.0564,-0.7045 0.10231,-0.12947 0.27517,-0.21378 0.44098,-0.21378 1.88383,0 2.62819,1.45062 2.67052,2.4257 0.14464,3.72745 -2.33539,5.6836 -4.70605,6.27204 -2.85045,0.70943 -6.74864,-0.25118 -8.56545,-4.03331 -1.52047,-3.15101 -0.22577,-7.57555 3.01273,-10.29123 3.81352,-3.19829 8.9288,-3.06247 13.67719,0.36477 4.28272,3.09315 5.91608,7.66163 4.60022,12.86439 -1.63336,6.45195 -7.74347,12.93319 -12.81994,13.59782 -0.0247,0.003 -0.0459,0.005 -0.0705,0.005"
       style="fill:#000000;fill-opacity:1;fill-rule:nonzero;stroke:none;stroke-width:0.03527778"
       id="path206" />
    <path
       inkscape:connector-curvature="0"
       d="m 98.376596,152.66511 h 33.083494 c 3.71123,2.56187 14.36512,12.33417 15.33173,20.38421 0.33514,2.82821 -0.0988,6.13233 1.62277,10.54241 0.25048,0.65793 -6.87563,-1.13418 -8.34319,-6.6922 -1.48519,-5.55801 -15.3035,-3.03812 -11.99797,6.8319 2.85397,8.54039 2.53294,7.84048 1.97203,8.41445 -0.57503,0.57397 -9.15459,2.3241 -9.06992,0.79799 0.26458,-5.18019 -1.93322,-7.4482 -6.13481,-7.64435 h 0.15523 c -4.57906,0.29422 -6.39939,2.46416 -6.13128,7.64435 0.0847,1.52611 -8.49842,-0.22402 -9.059334,-0.79799 -0.57503,-0.57397 -0.881947,0.12594 1.975554,-8.41445 3.28789,-9.87002 -10.530416,-12.38991 -11.997972,-6.8319 -1.471083,5.55802 -8.611305,7.35013 -8.360833,6.6922 1.735667,-4.41008 1.287639,-7.7142 1.626306,-10.54241 0.966611,-8.05004 11.620498,-17.82234 15.328195,-20.38421 v 0"
       style="fill:#ffffff;fill-opacity:1;fill-rule:evenodd;stroke:none;stroke-width:0.03527778"
       id="path208" />
    <path
       inkscape:connector-curvature="0"
       d="m 100.17223,191.76418 c 0.004,0.002 0.004,0.005 0.007,0.007 0,-10e-4 -0.003,-0.004 -0.007,-0.007 z m 21.32895,1.20579 c 0,2.6e-4 0,7.9e-4 0,0.001 0,-2.7e-4 0,-7.9e-4 0,-0.001 z m -13.16567,0.002 c 0,0 0,2.6e-4 0,7.9e-4 0,-2.6e-4 0,-2.6e-4 0,-7.9e-4 z m -8.17033,-1.21567 c 0.79375,0.51858 7.21078,1.7025 8.1668,1.12783 -0.25047,-5.27297 1.66159,-7.7082 6.36412,-8.09343 0.0459,-0.013 0.0952,-0.0204 0.14463,-0.0204 h 0.15523 c 0.0423,0 0.0847,0.005 0.127,0.0152 2.08139,0.14146 3.67241,0.80645 4.73427,1.97838 1.23825,1.36454 1.778,3.36726 1.651,6.12034 0.95603,0.57432 7.37659,-0.6096 8.18092,-1.12924 0.0459,-0.0469 0.0952,-0.0896 0.14111,-0.12947 0.0247,-0.0226 0.0529,-0.0413 0.0706,-0.0653 0.0952,-0.37324 -0.82197,-3.15524 -2.33186,-7.66092 -1.2947,-3.86856 -0.0282,-6.34965 1.26294,-7.74947 1.96145,-2.12549 5.43984,-3.16124 8.27264,-2.46168 1.83445,0.45226 3.06917,1.5441 3.47839,3.07481 1.10067,4.16136 5.48922,5.99052 7.09083,6.35917 -1.05127,-2.98521 -1.15711,-5.43737 -1.24883,-7.61824 -0.0353,-0.84384 -0.0705,-1.64077 -0.15875,-2.39183 -0.93486,-7.77698 -11.29595,-17.32138 -14.97189,-19.91782 H 98.542399 c -3.675943,2.59644 -14.037026,12.14084 -14.968359,19.91818 -0.09172,0.75177 -0.123473,1.55046 -0.15875,2.39572 -0.0882,2.1791 -0.1905,4.6295 -1.252362,7.61435 1.608667,-0.36795 6.004278,-2.19463 7.108473,-6.35811 0.402166,-1.52788 1.629833,-2.61938 3.453695,-3.07375 2.832803,-0.70415 6.311193,0.32737 8.279694,2.45321 1.83092,1.97909 2.28247,4.73322 1.27706,7.75476 -1.55575,4.64644 -2.427117,7.29439 -2.324811,7.68703 0.0071,-0.006 0.03175,0.0148 0.05997,0.0381 0.0459,0.0395 0.0953,0.0822 0.14817,0.13265 z m 6.9603,2.31387 c -2.667,2.6e-4 -7.12258,-0.96414 -7.697607,-1.55505 -0.03175,-0.0307 -0.06703,-0.0593 -0.09878,-0.0864 -0.783167,-0.66851 -0.76553,-0.75141 1.947337,-8.86495 1.12888,-3.38173 0.0529,-5.51074 -1.04775,-6.70137 -1.950867,-2.10714 -5.122337,-2.67335 -7.24606,-2.14453 -0.829027,0.20637 -2.282472,0.78246 -2.688167,2.31669 -1.220611,4.61292 -6.071305,6.69255 -7.835194,7.10459 -0.776111,0.18133 -1.188861,0.14464 -1.425222,-0.12665 -0.148167,-0.16862 -0.186973,-0.39687 -0.105834,-0.6103 1.231195,-3.12702 1.337028,-5.68255 1.42875,-7.9375 0.03881,-0.86642 0.07056,-1.68487 0.165806,-2.47791 0.998361,-8.33226 11.751027,-18.13066 15.553971,-20.75745 0.0882,-0.0607 0.194029,-0.0935 0.299863,-0.0935 h 33.083497 c 0.10936,0 0.21167,0.0328 0.29986,0.0935 3.80295,2.62679 14.55561,12.42519 15.5575,20.7571 0.0917,0.79128 0.127,1.60796 0.16581,2.47226 0.0952,2.25672 0.20461,4.81471 1.42522,7.94032 0.0811,0.21661 0.0423,0.44486 -0.10583,0.61384 -0.23636,0.27093 -0.64559,0.30762 -1.41817,0.127 -1.76389,-0.41134 -6.604,-2.48991 -7.82461,-7.10495 -0.41275,-1.53811 -1.87325,-2.11349 -2.70933,-2.31951 -2.12725,-0.52529 -5.29873,0.0455 -7.239,2.15194 -1.09714,1.18992 -2.16959,3.31788 -1.03717,6.69608 2.73403,8.17845 2.7058,8.2042 1.95086,8.86072 -0.0317,0.0272 -0.067,0.0557 -0.0988,0.091 -0.75142,0.7493 -7.66586,2.08139 -9.34508,1.33138 -0.60325,-0.27093 -0.64559,-0.74189 -0.635,-0.93204 0.127,-2.50013 -0.32103,-4.28025 -1.37231,-5.43983 -0.90311,-0.99695 -2.25778,-1.53423 -4.14161,-1.64077 -4.22981,0.30021 -5.78556,2.29376 -5.53861,7.08237 0.0106,0.18979 -0.0318,0.66392 -0.64911,0.93415 -0.34925,0.15452 -0.92428,0.21978 -1.61925,0.21978"
       style="fill:#000000;fill-opacity:1;fill-rule:nonzero;stroke:none;stroke-width:0.03527778"
       id="path210" />
    <path
       inkscape:connector-curvature="0"
       d="m 145.2784,126.91868 c 0,1.25977 -0.0706,2.50614 -0.22225,3.72393 -1.83444,15.00822 -14.61911,26.64248 -30.13075,26.64248 -15.511638,0 -28.306888,-11.63426 -30.127222,-26.65659 -0.155222,-1.21779 -0.239888,-2.45005 -0.239888,-3.70982 0,-7.85424 2.984499,-15.02233 7.884583,-20.39831 5.55625,-6.11823 13.564307,-9.954333 22.482527,-9.954333 8.90411,0 16.91217,3.821993 22.45783,9.926113 1.53811,1.69403 2.8822,3.556 4.01814,5.55801 1.98614,3.52813 3.27378,7.49018 3.7077,11.71822 0.11289,1.03611 0.16933,2.08633 0.16933,3.1503 v 0"
       style="fill:#ffffff;fill-opacity:1;fill-rule:evenodd;stroke:none;stroke-width:0.03527778"
       id="path212" />
    <path
       inkscape:connector-curvature="0"
       d="m 114.9254,97.095204 c -8.39258,0 -16.446501,3.564816 -22.090944,9.780766 -4.995333,5.47969 -7.747,12.59734 -7.747,20.04271 0,1.20792 0.07761,2.39995 0.236361,3.64349 1.806222,14.93414 14.534445,26.19375 29.601583,26.19375 15.05303,0 27.78125,-11.25396 29.60511,-26.17752 0.14464,-1.15535 0.21872,-2.38619 0.21872,-3.65972 0,-1.04034 -0.0564,-2.08103 -0.1658,-3.09315 -0.41981,-4.0954 -1.64395,-7.9689 -3.6442,-11.51537 -1.11477,-1.96886 -2.44475,-3.80683 -3.94758,-5.46206 -5.63033,-6.19831 -13.67367,-9.752896 -22.06625,-9.752896 z m 0,60.719056 c -15.603361,0 -28.779611,-11.66001 -30.65286,-27.12191 -0.162278,-1.28553 -0.243417,-2.52095 -0.243417,-3.77367 0,-7.70995 2.850444,-15.08089 8.022166,-20.75497 5.845527,-6.435373 14.185191,-10.12684 22.874111,-10.12684 8.69244,0 17.018,3.680884 22.84942,10.09968 1.55575,1.71273 2.93158,3.61491 4.08516,5.65291 2.07081,3.67523 3.34081,7.68702 3.77825,11.92494 0.11289,1.0474 0.16934,2.1262 0.16934,3.20428 0,1.31798 -0.0776,2.59292 -0.22931,3.79025 -1.88736,15.45167 -15.06361,27.10533 -30.65286,27.10533"
       style="fill:#000000;fill-opacity:1;fill-rule:nonzero;stroke:none;stroke-width:0.03527778"
       id="path214" />
    <path
       inkscape:connector-curvature="0"
       d="m 138.13818,130.2228 c 0,11.66213 -10.40342,21.09823 -23.21278,21.09823 -12.82347,0.0141 -23.226888,-9.4361 -23.226888,-21.09823 0,-7.89622 3.739444,-18.39665 11.846278,-18.39665 7.63058,0 11.38061,5.4744 11.38061,5.4744 0,0 4.01814,-5.4744 11.38414,-5.46029 8.49842,0 11.82864,10.50007 11.82864,18.38254 v 0"
       style="fill:#ffffff;fill-opacity:1;fill-rule:evenodd;stroke:none;stroke-width:0.03527778"
       id="path216" />
    <path
       inkscape:connector-curvature="0"
       d="m 103.54479,112.35566 c -7.806974,0 -11.317111,10.44787 -11.317111,17.86714 0,5.12445 2.09197,10.03441 5.884333,13.82536 4.293308,4.28625 10.410468,6.74335 16.785168,6.7437 0.0106,0 0.0176,0 0.0282,0 12.5095,0 22.68361,-9.22761 22.68361,-20.56906 0,-7.17656 -3.00919,-17.85338 -11.29947,-17.85338 -0.0106,0 -0.0212,0 -0.0282,0 -6.97794,0 -10.89025,5.19219 -10.92906,5.24475 -0.1023,0.13758 -0.27516,0.2099 -0.43391,0.21519 -0.17286,-0.003 -0.33161,-0.0885 -0.43039,-0.22965 -0.0353,-0.0519 -3.70064,-5.24405 -10.94317,-5.24405 z m 11.35239,39.49453 c -6.65339,0 -13.0422,-2.56963 -17.533057,-7.05308 -3.993444,-3.99062 -6.194778,-9.16658 -6.194778,-14.57431 0,-4.35045 1.100667,-8.98984 2.945694,-12.41072 2.30011,-4.26191 5.559777,-6.51475 9.429751,-6.51475 6.44525,0 10.18822,3.7204 11.39119,5.15585 1.25237,-1.41993 5.11881,-5.14209 11.34181,-5.14209 0.0106,0 0.0212,0 0.0318,0 9.06639,0 12.3578,11.3097 12.3578,18.91171 0,11.9253 -10.65036,21.62739 -23.74194,21.62739 -0.0106,0 -0.0177,0 -0.0282,0"
       style="fill:#000000;fill-opacity:1;fill-rule:nonzero;stroke:none;stroke-width:0.03527778"
       id="path218" />
    <path
       inkscape:connector-curvature="0"
       d="m 114.9254,144.61225 c -5.87728,0 -11.34886,-2.89771 -14.63322,-7.75088 -0.16581,-0.242 -0.10231,-0.57115 0.14111,-0.73483 0.24342,-0.16369 0.5715,-0.10019 0.73378,0.14146 3.09033,4.56212 8.23383,7.28592 13.75833,7.28592 5.51392,0 10.65742,-2.72415 13.75833,-7.28662 0.16581,-0.24166 0.49389,-0.3041 0.73731,-0.14006 0.23989,0.1644 0.30339,0.49318 0.13758,0.73484 -3.29847,4.85281 -8.77005,7.75017 -14.63322,7.75017"
       style="fill:#000000;fill-opacity:1;fill-rule:nonzero;stroke:none;stroke-width:0.03527778"
       id="path220" />
    <path
       inkscape:connector-curvature="0"
       d="m 115.19351,136.39394 c -1.22061,0 -2.37066,-0.47166 -3.24203,-1.3275 -0.20813,-0.20461 -0.21166,-0.53975 -0.007,-0.74859 0.20461,-0.2085 0.53975,-0.21167 0.74789,-0.007 0.67381,0.6611 1.56281,1.02481 2.5012,1.02481 0.94544,0 1.83797,-0.36371 2.51177,-1.02481 0.20814,-0.20426 0.54328,-0.20179 0.74789,0.007 0.20461,0.20884 0.20108,0.54398 -0.007,0.74859 -0.87136,0.85584 -2.02847,1.3275 -3.25261,1.3275"
       style="fill:#000000;fill-opacity:1;fill-rule:nonzero;stroke:none;stroke-width:0.03527778"
       id="path222" />
    <path
       inkscape:connector-curvature="0"
       d="m 107.8134,126.24664 c 0,2.26801 -0.96661,4.11586 -2.15547,4.11586 -1.20297,0 -2.16958,-1.84785 -2.16958,-4.11586 0,-2.28212 0.96661,-4.11621 2.16958,-4.11621 1.18886,0 2.15547,1.83409 2.15547,4.11621 v 0"
       style="fill:#ffffff;fill-opacity:1;fill-rule:evenodd;stroke:none;stroke-width:0.03527778"
       id="path224" />
    <path
       inkscape:connector-curvature="0"
       d="m 105.65793,122.6596 c -0.77611,0 -1.64042,1.4732 -1.64042,3.58704 0,2.11385 0.86431,3.58705 1.64042,3.58705 0.76905,0 1.6263,-1.53423 1.6263,-3.58705 0,-2.11384 -0.85725,-3.58704 -1.6263,-3.58704 z m 0,8.23242 c -1.51342,0 -2.69875,-2.04047 -2.69875,-4.64538 0,-2.6483 1.16064,-4.64538 2.69875,-4.64538 1.50636,0 2.68464,2.04047 2.68464,4.64538 0,2.60491 -1.17828,4.64538 -2.68464,4.64538"
       style="fill:#000000;fill-opacity:1;fill-rule:nonzero;stroke:none;stroke-width:0.03527778"
       id="path226" />
    <path
       inkscape:connector-curvature="0"
       d="m 127.21971,126.24664 c 0,2.26801 -0.96662,4.11586 -2.159,4.11586 -1.20298,0 -2.16959,-1.84785 -2.16959,-4.11586 0,-2.28212 0.96661,-4.11621 2.16959,-4.11621 1.19238,0 2.159,1.83409 2.159,4.11621 v 0"
       style="fill:#ffffff;fill-opacity:1;fill-rule:evenodd;stroke:none;stroke-width:0.03527778"
       id="path228" />
    <path
       inkscape:connector-curvature="0"
       d="m 125.06071,122.6596 c -0.77612,0 -1.64042,1.4732 -1.64042,3.58704 0,2.11385 0.8643,3.58705 1.64042,3.58705 0.76905,0 1.62983,-1.53423 1.62983,-3.58705 0,-2.11384 -0.86078,-3.58704 -1.62983,-3.58704 z m 0,8.23242 c -1.51342,0 -2.69875,-2.04047 -2.69875,-4.64538 0,-2.6483 1.16063,-4.64538 2.69875,-4.64538 1.50636,0 2.68816,2.04047 2.68816,4.64538 0,2.60491 -1.1818,4.64538 -2.68816,4.64538"
       style="fill:#000000;fill-opacity:1;fill-rule:nonzero;stroke:none;stroke-width:0.03527778"
       id="path230" />
    <path
       inkscape:connector-curvature="0"
       d="m 125.20182,124.87469 c 0.19755,0 0.39158,0.042 0.56091,0.11183 -0.15522,0.0981 -0.254,0.2801 -0.254,0.49001 0,0.32208 0.26811,0.58808 0.60325,0.58808 0.19756,0 0.37748,-0.0981 0.49036,-0.25224 0.0706,0.16828 0.11289,0.36407 0.11289,0.56021 0,0.82586 -0.6738,1.4979 -1.51341,1.4979 -0.8255,0 -1.49931,-0.67204 -1.49931,-1.4979 0,-0.82585 0.67381,-1.49789 1.49931,-1.49789 v 0"
       style="fill:#000000;fill-opacity:1;fill-rule:evenodd;stroke:none;stroke-width:0.03527778"
       id="path232" />
    <path
       inkscape:connector-curvature="0"
       d="m 105.72848,124.87469 c 0.19403,0 0.39159,0.042 0.56092,0.11183 -0.15522,0.0981 -0.254,0.2801 -0.254,0.49001 0,0.32208 0.26458,0.58808 0.60325,0.58808 0.19403,0 0.37747,-0.0981 0.49036,-0.25224 0.067,0.16828 0.0953,0.36407 0.0953,0.56021 0,0.82586 -0.67028,1.4979 -1.49578,1.4979 -0.8255,0 -1.4993,-0.67204 -1.4993,-1.4979 0,-0.82585 0.6738,-1.49789 1.4993,-1.49789 v 0"
       style="fill:#000000;fill-opacity:1;fill-rule:evenodd;stroke:none;stroke-width:0.03527778"
       id="path234" />
  </g>
</svg>
