<?xml version="1.0" encoding="UTF-8" standalone="no"?>
<!-- Created with Inkscape (http://www.inkscape.org/) -->

<svg
   xmlns:dc="http://purl.org/dc/elements/1.1/"
   xmlns:cc="http://creativecommons.org/ns#"
   xmlns:rdf="http://www.w3.org/1999/02/22-rdf-syntax-ns#"
   xmlns:svg="http://www.w3.org/2000/svg"
   xmlns="http://www.w3.org/2000/svg"
   xmlns:sodipodi="http://sodipodi.sourceforge.net/DTD/sodipodi-0.dtd"
   xmlns:inkscape="http://www.inkscape.org/namespaces/inkscape"
   width="390.35284"
   height="449.87521"
   viewBox="0 0 2603.07 3000"
   version="1.1"
   id="svg4586"
   inkscape:version="0.92.1 r15371"
   sodipodi:docname="mouse.svg">
  <defs
     id="defs4580" />
  <sodipodi:namedview
     id="base"
     pagecolor="#ffffff"
     bordercolor="#666666"
     borderopacity="1.0"
     inkscape:pageopacity="0.0"
     inkscape:pageshadow="2"
     inkscape:zoom="0.98994949"
     inkscape:cx="94.674614"
     inkscape:cy="255.50514"
     inkscape:document-units="px"
     inkscape:current-layer="layer1"
     showgrid="false"
     units="px"
     fit-margin-top="0"
     fit-margin-left="0"
     fit-margin-right="0"
     fit-margin-bottom="0"
     inkscape:window-width="1920"
     inkscape:window-height="1003"
     inkscape:window-x="-9"
     inkscape:window-y="-9"
     inkscape:window-maximized="1"
     viewbox-width="2603.07" />
  <metadata
     id="metadata4583">
    <rdf:RDF>
      <cc:Work
         rdf:about="">
        <dc:format>image/svg+xml</dc:format>
        <dc:type
           rdf:resource="http://purl.org/dc/dcmitype/StillImage" />
        <dc:title></dc:title>
      </cc:Work>
    </rdf:RDF>
  </metadata>
  <g
     inkscape:label="Layer 1"
     inkscape:groupmode="layer"
     id="layer1"
     transform="translate(-54.192732,-101.03595)">
    <g
       id="g5153"
       transform="matrix(22.845845,0,0,22.845845,-2098.3425,-2230.9488)"
       style="stroke:#000000;stroke-width:0.30000001;stroke-miterlimit:4;stroke-dasharray:none;stroke-opacity:1">
      <path
         inkscape:connector-curvature="0"
         d="m 202.13147,140.1972 c -0.16263,1.11971 -0.58243,2.81022 -1.65276,4.50426 -0.97437,1.53247 -2.37102,2.84621 -3.93665,3.701 -0.76129,0.43215 -1.61995,0.7687 -2.55058,0.99941 -0.76165,0.18063 -1.58186,0.28787 -2.65783,0.34855 -1.30351,0.0589 -3.8421,0.09 -3.96063,0.0825 l -0.36619,-0.0247 0.17039,0.32526 c 0.23002,0.43956 0.46391,0.86466 0.69604,1.26471 0.42015,0.70909 0.85372,1.44251 1.12677,2.18299 0.24976,0.74401 0.40781,1.47038 0.47166,2.15971 0.11395,1.20015 0.005,2.4331 -0.32244,3.66218 -0.502,1.81011 -1.23931,2.8254 -1.51624,3.20781 -0.037,0.0501 -0.0649,0.0892 -0.0702,0.0991 -0.0187,0.0229 -0.0445,0.0564 -0.0773,0.0988 -0.25753,0.33655 -1.04175,1.36102 -2.68499,2.32939 -0.8188,0.49318 -1.87431,0.9772 -3.42547,1.56916 -0.27164,0.10548 -0.55069,0.21166 -0.83714,0.32032 -1.12007,0.42545 -2.39078,0.9077 -3.6576,1.57409 -0.93275,0.49072 -1.82669,1.0848 -2.77319,1.71415 -0.1718,0.11395 -0.3489,0.22966 -0.52387,0.34502 0.15345,-0.38347 0.31855,-0.95744 0.13617,-1.23226 -0.0885,-0.13299 -0.23918,-0.18697 -0.41698,-0.15345 -2.46239,0.49424 -4.44218,1.66864 -5.73088,3.36373 -0.0797,-0.0438 -0.16016,-0.0808 -0.24165,-0.11148 -0.66076,-2.48637 -2.16288,-4.60762 -4.34728,-6.07589 -0.20038,-0.1337 -0.35596,-0.0554 -0.41381,-0.0145 -0.32209,0.22543 -0.28752,1.14865 -0.2413,1.61996 -0.64276,-0.005 -1.95757,0.15169 -2.09656,0.4639 -0.0448,0.10089 -0.0247,0.24095 0.12065,0.32703 0.68439,0.40392 1.32468,0.9091 1.90747,1.47602 -0.0931,-0.0169 -0.18838,-0.031 -0.28751,-0.0388 -0.70415,-0.0547 -1.33209,0.1778 -1.76883,0.65369 -0.32632,0.3549 -0.51224,0.81809 -0.54116,1.31939 -0.43956,-0.22013 -0.84032,-0.44767 -1.18075,-0.65087 -0.69391,-0.41699 -1.36278,-0.86149 -2.00978,-1.29152 -0.9472,-0.62901 -1.8415,-1.22344 -2.77424,-1.71415 -1.27776,-0.67204 -2.55693,-1.15711 -3.68547,-1.58503 -0.27622,-0.10478 -0.54645,-0.20744 -0.81068,-0.30974 -1.55011,-0.59231 -2.60597,-1.07597 -3.42547,-1.56986 -1.63901,-0.96838 -2.42606,-1.99284 -2.68464,-2.32939 -0.0321,-0.042 -0.0575,-0.0751 -0.0621,-0.078 -0.0191,-0.0296 -0.0497,-0.0727 -0.0907,-0.12948 -0.27588,-0.38417 -1.00895,-1.40511 -1.50531,-3.19581 -0.33196,-1.2252 -0.44167,-2.4578 -0.32702,-3.66289 0.0684,-0.69462 0.2286,-1.4217 0.47448,-2.15582 0.26282,-0.72496 0.67769,-1.42699 1.12784,-2.18829 0.20884,-0.35736 0.42227,-0.74506 0.62865,-1.14264 l 0.0903,-0.15875 -0.14006,-0.11219 c -0.0219,-0.0173 -0.24659,-0.11077 -0.42474,-0.11077 -0.009,0 -0.0176,0 -0.0261,8e-4 v -0.005 c -1.19874,-0.0307 -2.37949,-0.0628 -3.63996,-0.11854 -1.07668,-0.0603 -1.89654,-0.16792 -2.65748,-0.34854 -0.93027,-0.23072 -1.7907,-0.56692 -2.55975,-1.00154 -1.56034,-0.85337 -2.95558,-2.16747 -3.92924,-3.69887 -1.06786,-1.68946 -1.49049,-3.38244 -1.65771,-4.50497 -0.22295,-1.49896 -0.13158,-2.74144 -0.0162,-3.52037 0.11043,-0.75001 0.24765,-1.23931 0.30657,-1.44851 l 0.0409,-0.14182 c 0.0561,-0.1905 0.20567,-0.69673 0.52493,-1.39523 0.50306,-1.10067 1.19204,-2.03694 2.04541,-2.7813 0.5969,-0.51153 1.23825,-0.901 1.90923,-1.15817 0.75389,-0.29775 1.57374,-0.46884 2.4377,-0.50871 1.68663,-0.0931 3.54506,0.34502 5.23592,1.23684 1.45063,0.75001 2.89172,1.81046 4.40655,3.24273 1.16911,1.09855 2.24684,2.29729 3.20322,3.56271 0.25894,0.34325 0.51259,0.69532 0.82233,1.14159 l 0.10195,0.1471 0.15946,-0.0804 c 0.39969,-0.20143 0.54116,-0.27269 0.59866,-0.30515 l 7.9e-4,0.001 c 1.37513,-0.75318 2.88184,-1.39206 4.3554,-1.8475 3.00319,-0.91052 5.89809,-1.16698 7.35753,-1.2386 1.08268,-0.0469 1.94628,-0.0614 2.57422,-0.0409 0.66216,0.004 1.05339,0.0212 1.13947,0.0286 l 0.0928,0.005 c 0.1711,0.008 0.53481,0.0261 1.04423,0.0487 l 0.43038,0.0335 c 0.58703,0.0448 1.31833,0.1009 2.14454,0.20849 0.92851,0.10302 2.03447,0.27623 3.4738,0.54434 1.17087,0.24483 2.53224,0.5394 3.87562,0.93874 1.25765,0.35631 2.51495,0.78423 3.71863,1.26436 0.7239,0.37747 0.7239,0.37782 0.85972,0.24059 0.24165,-0.34396 0.50377,-0.71226 0.79446,-1.09714 0.93274,-1.23472 2.04011,-2.46697 3.20322,-3.5627 1.53458,-1.44145 2.97815,-2.5019 4.41572,-3.24344 1.69192,-0.88794 3.55141,-1.32609 5.24051,-1.2319 0.85196,0.0392 1.69298,0.21484 2.43311,0.50871 0.67839,0.26246 1.32186,0.65228 1.91029,1.1564 0.85548,0.7493 1.54446,1.68699 2.04646,2.78624 0.22825,0.50342 0.40781,0.98708 0.54187,1.46121 l 0.0116,0.0406 c 0.0494,0.16862 0.20143,0.68192 0.31961,1.48378 0.1136,0.79304 0.2025,2.04823 -0.0208,3.52143 z m -21.61398,28.09205 c -0.14217,0.078 -0.2854,0.17109 -0.42898,0.28151 -1.69651,1.30704 -1.21144,4.5025 -0.85267,5.45677 0.92922,2.47826 -1.09502,4.09328 -3.2385,5.80213 -0.9472,0.75601 -1.84785,1.47955 -2.48849,2.27683 0.11077,-0.52423 0.20849,-1.04211 0.28011,-1.53635 0.0656,-0.45508 -0.0748,-0.89817 -0.41805,-1.31656 -0.13193,-0.16122 -0.29245,-0.31645 -0.47695,-0.46532 0.10442,-0.19649 0.16863,-0.40816 0.23142,-0.61595 l 0.0483,-0.15945 c 0.21237,-0.67663 0.49107,-0.901 0.84455,-1.18463 0.21978,-0.17674 0.46849,-0.37606 0.72002,-0.70556 0.34184,-0.44696 0.46002,-0.96908 0.33337,-1.47002 -0.14111,-0.5595 -0.56373,-1.03505 -1.15993,-1.30422 -0.49953,-0.22507 -1.05692,-0.33267 -1.63018,-0.36266 0.92851,-0.43673 1.9565,-0.75741 3.0166,-0.91298 0.1658,-0.0243 0.2346,-0.14323 0.22966,-0.25012 -0.013,-0.27446 -0.90276,-0.67381 -1.57269,-0.91405 0.12736,-0.0836 0.25506,-0.16722 0.37959,-0.24977 0.93733,-0.62335 1.82316,-1.21179 2.73685,-1.69298 1.07421,-0.5648 2.15794,-0.99765 3.14819,-1.37618 0.10584,0.22966 0.20426,0.46319 0.29775,0.69956 z m 4.7819,2.66876 c 3.2325,4.01602 5.00592,10.65177 1.26047,15.73177 -1.65417,2.24367 -4.49544,3.7906 -7.239,3.94159 -1.49613,0.0815 -3.64031,-0.21414 -5.37245,-2.09092 -1.43968,-1.56104 -1.63689,-3.71404 -0.514,-5.61834 0.58032,-0.98425 1.66794,-1.85208 2.81976,-2.77036 2.16394,-1.72579 4.40125,-3.51049 3.36656,-6.26921 -0.2847,-0.75812 -0.80928,-3.80824 0.7186,-4.98546 0.46743,-0.36018 0.92993,-0.51435 1.38289,-0.51435 1.28905,0 2.5079,1.24742 3.57717,2.57528 z m 1.15394,23.09569 c 0.95108,5.28175 -0.254,9.13694 -3.58282,11.45826 -3.57963,2.4959 -8.07049,2.56494 -12.41389,2.63161 l -1.43757,0.0233 c -5.20242,0.0857 -10.58298,0.17501 -15.71837,-0.54776 -4.1028,-0.57753 -6.79979,-2.33549 -8.01581,-5.22538 -1.43581,-3.41065 -1.17687,-7.5989 -0.71226,-11.53692 0.34889,0.15698 0.70343,0.2921 1.06292,0.40005 0.1531,0.0466 0.30515,0.0878 0.4572,0.12453 0.96731,0.23283 1.91311,0.27023 2.81799,0.11959 0.0279,0.0776 0.0649,0.15452 0.11994,0.22719 0.50871,0.67416 1.12853,1.10419 1.82245,1.27106 0.27234,0.0656 0.55633,0.0907 0.84984,0.0737 0.17286,-0.01 0.34749,-0.0346 0.52176,-0.0726 0.94227,0.97359 2.58022,2.42496 4.44747,3.03914 0.4004,0.56487 1.0287,1.00016 2.01401,1.22795 0.31855,0.0742 0.64346,0.13134 0.96943,0.18316 0.0377,0.0547 0.0868,0.0653 0.14005,0.0758 1.57692,0.31546 3.187,0.51153 4.20088,0.51153 0.0402,0 0.0787,-0.001 0.127,-0.0455 0.46073,0.0558 0.92393,0.10019 1.38501,0.10019 0.60854,0 1.21214,-0.0762 1.79599,-0.30166 2.43663,-0.94146 3.18558,-3.56785 3.74297,-5.77949 0.57891,-0.27693 1.08938,-0.56832 1.49789,-0.82162 0.16158,0.0751 0.32632,0.13759 0.49248,0.18592 0.28222,0.0822 0.56409,0.12241 0.84385,0.12241 0.71225,0 1.40934,-0.26317 2.0521,-0.78034 0.0691,-0.0557 0.12242,-0.11889 0.16652,-0.18592 0.84878,0.34537 1.77764,0.52388 2.77071,0.52388 0.15558,0 0.31362,-0.005 0.47237,-0.0134 2.1202,-0.11642 4.29507,-1.03364 5.98135,-2.45181 0.41487,1.81928 0.8008,3.6442 1.12854,5.46315 z m -2.85609,14.62856 c -1.43475,1.80866 -3.85093,2.95286 -7.38717,3.49677 -3.37397,0.51897 -6.93843,0.87104 -10.59568,1.04676 l -0.0642,0.008 h -0.008 l -0.14958,-0.008 c -3.65725,-0.17572 -7.22206,-0.52779 -10.59568,-1.04676 -3.53624,-0.54391 -5.95242,-1.68811 -7.38752,-3.49677 -0.94474,-1.19161 -1.31939,-2.56674 -1.09572,-3.8953 1.5307,1.71729 3.84774,2.80596 6.92961,3.23949 3.47204,0.48863 7.04709,0.60854 10.60238,0.60854 1.73673,0 3.46781,-0.0285 5.18054,-0.0568 l 1.43651,-0.0233 c 4.20018,-0.0645 8.96056,-0.13794 12.64356,-2.70535 0.57432,-0.40086 1.08197,-0.84846 1.53529,-1.33462 0.32738,1.41111 -0.0342,2.89415 -1.04422,4.16732 z m -6.01769,11.6724 c -0.003,0.042 -0.007,0.0843 -0.0102,0.12664 -0.98425,-0.46704 -2.05916,-0.73476 -3.17993,-0.76867 -2.79471,-0.0805 -5.40914,1.25237 -7.11377,3.60109 -0.0377,-1.6298 0.11395,-3.83039 0.26247,-5.97779 0.0988,-1.43552 0.19332,-2.81093 0.22154,-3.92108 2.92206,-0.19693 5.77286,-0.50561 8.49877,-0.92509 0.54892,-0.0842 1.06927,-0.18521 1.56669,-0.29874 0.002,2.65215 -0.0434,5.41899 -0.24553,8.16364 z m 3.11574,3.44067 c -0.50342,0.10474 -0.99554,0.33542 -1.47461,0.56197 -0.32103,0.152 -0.65264,0.30895 -0.97685,0.42113 -1.19944,0.41534 -2.30152,0.60647 -3.38384,0.58456 -1.13312,-0.0233 -2.27577,-0.25962 -3.38067,-0.48782 l -0.45579,-0.0934 c -0.36618,-0.0748 -0.8008,-0.22861 -1.26012,-0.39163 -0.74189,-0.26252 -1.56422,-0.55109 -2.32304,-0.58098 1.58573,-2.33302 4.04847,-3.68875 6.69889,-3.68875 0.0787,0 0.15805,0.001 0.23742,0.004 2.56011,0.078 4.87963,1.43824 6.31861,3.67136 z m 0.25047,0.91158 c -1.04493,0.6547 -2.16782,1.1468 -3.32987,1.4767 -3.48615,0.98916 -7.32684,0.51608 -10.48703,-1.4242 l -0.0801,-0.0289 c 2.7e-4,0 -0.002,-0.002 -0.002,-0.003 -0.001,-0.001 -0.002,-0.003 -0.004,-0.005 -0.008,-0.008 -0.0286,-0.0258 -0.0409,-0.0699 -0.0138,-0.0497 -0.024,-0.18658 0.14746,-0.43284 0.74436,-0.0473 1.663,0.27092 2.47227,0.55742 0.47413,0.16757 0.92181,0.32632 1.31763,0.40666 l 0.45402,0.0936 c 1.12395,0.23248 2.286,0.47267 3.45863,0.49707 1.1229,0.0253 2.28389,-0.17571 3.53237,-0.60786 0.34572,-0.11961 0.68827,-0.28153 1.01953,-0.4389 0.52528,-0.24833 1.0234,-0.48425 1.51906,-0.5577 0.0332,0.0579 0.0691,0.11328 0.10089,0.17212 0.0508,0.0925 0.0427,0.21318 -0.0102,0.296 -0.0177,0.0278 -0.0402,0.0515 -0.067,0.0685 z m -15.58996,-1.39594 c -1.70427,-2.3471 -4.318,-3.67884 -7.11164,-3.59834 -1.12043,0.0339 -2.19569,0.30163 -3.17959,0.76867 -0.004,-0.0423 -0.007,-0.0846 -0.0106,-0.12664 -0.19438,-2.63882 -0.24307,-5.2976 -0.24518,-7.85608 3.21239,0.49226 6.59694,0.8322 10.06757,1.01465 0.0314,1.09252 0.12347,2.42923 0.21943,3.8227 0.14852,2.14878 0.2981,4.34482 0.26,5.97504 z m -13.66767,1.39594 c -0.10795,-0.0678 -0.14499,-0.2413 -0.0776,-0.36449 0.0321,-0.0588 0.0677,-0.11423 0.10125,-0.17212 0.4953,0.0734 0.99378,0.30937 1.51871,0.55769 0.33161,0.15737 0.67381,0.31929 1.01988,0.43891 1.24813,0.43215 2.40912,0.6332 3.53236,0.60785 1.17264,-0.0244 2.33469,-0.26458 3.45864,-0.49706 l 0.45402,-0.0936 c 0.39512,-0.0803 0.84349,-0.23909 1.31763,-0.40666 0.80927,-0.28649 1.72755,-0.60469 2.47191,-0.55742 0.1718,0.24626 0.16158,0.3831 0.14746,0.43285 -0.0124,0.0438 -0.0321,0.0615 -0.0406,0.0694 -0.002,0.002 -0.003,0.004 -0.004,0.005 -2.6e-4,2.6e-4 -0.003,0.003 -0.003,0.003 l -0.0797,0.0289 c -3.16018,1.94028 -7.00122,2.41336 -10.48737,1.4242 -1.16205,-0.3299 -2.28495,-0.822 -3.32952,-1.47671 z m 6.56873,-4.58294 c 0.0797,-0.002 0.15875,-0.004 0.23742,-0.004 2.65041,0 5.11351,1.35573 6.69925,3.68875 -0.75918,0.0299 -1.58151,0.31846 -2.3234,0.58098 -0.45932,0.16302 -0.89359,0.31681 -1.26012,0.39163 l -0.45544,0.0934 c -1.10525,0.2282 -2.24754,0.46453 -3.38067,0.48782 -1.08232,0.0219 -2.1844,-0.16922 -3.38384,-0.58456 -0.3242,-0.11218 -0.65617,-0.26913 -0.9772,-0.42113 -0.47872,-0.22655 -0.97119,-0.45723 -1.47461,-0.56197 1.43898,-2.23312 3.75814,-3.59336 6.31861,-3.67136 z m -21.07389,-8.21517 c -5.92596,1.08934 -11.65437,-0.35211 -15.71554,-3.95181 -5.05954,-4.4855 -5.37563,-10.89586 -4.7498,-15.48377 0.29421,-2.15547 0.83784,-4.37586 1.36384,-6.52321 1.20896,-4.93713 2.45921,-10.04253 0.93697,-15.07949 -1.49295,-4.93818 -5.90479,-8.18868 -10.8338,-8.18868 -0.52106,0 -1.04846,0.0363 -1.57798,0.11077 -2.58268,0.36336 -4.46123,1.33809 -5.58376,1.92088 -0.36619,0.18979 -0.74331,0.38523 -0.90911,0.42263 0.12065,-0.66499 3.86538,-2.77072 6.29532,-3.15348 3.66853,-0.57856 7.32084,0.53728 10.01853,3.05858 4.62986,4.32823 4.4577,11.29876 3.49779,16.38441 -0.28116,1.48766 -0.64593,2.98485 -1.03258,4.57024 -1.42275,5.83635 -2.89418,11.87125 -0.0229,17.36097 1.67005,3.19401 6.13022,6.87916 11.97504,7.42374 3.78284,0.35278 9.08862,-0.50613 15.09713,-5.37446 -0.0194,0.87655 0.19755,1.76167 0.63817,2.58368 -3.02754,2.00875 -6.1669,3.32559 -9.39729,3.919 z m 2.40418,-26.74937 c -2.5019,-6.0198 0.72319,-12.32041 4.77873,-15.62735 1.34091,-1.09326 2.81023,-2.0701 4.06576,-1.76812 0.44168,0.10619 0.8569,0.37077 1.2312,0.8449 1.22308,1.54975 0.0229,4.5145 -0.4251,5.21476 -1.63019,2.54953 0.1464,4.88068 1.86514,7.13458 0.91475,1.1998 1.77835,2.33292 2.1216,3.46533 0.66393,2.19111 -0.0134,4.324 -1.76883,5.56649 -2.11067,1.4933 -4.26649,1.2894 -5.70582,0.85654 -2.63808,-0.79622 -5.05743,-3.02824 -6.16268,-5.68713 z m 28.16825,-11.87203 0.0494,0.036 c 0.48577,0.25506 0.81209,0.69145 0.92004,1.23049 0.14746,0.73483 -0.12488,1.42981 -0.5013,2.08174 -1.22378,-0.29563 -2.87725,-0.57715 -3.66289,-0.68897 -0.40499,-0.82727 -0.0497,-1.80975 0.61384,-2.45534 0.41098,-0.3997 0.94791,-0.67768 1.48519,-0.67768 0.37994,0 0.76024,0.13934 1.09573,0.47378 z m 4.97558,4.76603 c -0.0543,0.17991 -0.10443,0.3429 -0.17463,0.48718 -0.74436,-0.502 -1.76424,-0.93027 -2.89454,-1.28869 -0.0448,-0.11889 -0.11324,-0.20038 -0.2099,-0.24377 -0.19086,-0.0854 -0.4752,-0.17639 -0.81457,-0.26741 0.3877,-0.69532 0.65582,-1.44498 0.49107,-2.26801 -0.0377,-0.18697 -0.10019,-0.36406 -0.18168,-0.53128 0.0392,-0.0335 0.0857,-0.0639 0.1524,-0.0836 0.82479,-0.24659 1.85243,-0.47272 2.84162,-0.47272 0.63818,0 1.26048,0.0945 1.80129,0.33867 0.47448,0.21413 0.82197,0.59901 0.93098,1.02975 0.0963,0.38241 0.006,0.76906 -0.26176,1.11937 -0.2212,0.28927 -0.43957,0.4646 -0.65053,0.63394 -0.3757,0.30198 -0.73025,0.58631 -0.98001,1.38324 z m 0.65016,2.45815 c -0.09,0.61983 -0.22154,1.27918 -0.37006,1.94451 -1.02799,-0.29986 -2.12125,0.0706 -2.81587,0.93451 -0.44768,-0.49706 -0.96591,-0.98778 -1.52859,-1.28728 0.0127,-0.0437 0.0254,-0.0868 0.0388,-0.13124 0.64558,-2.17099 1.00224,-3.52354 1.01424,-4.2679 1.50107,0.49283 2.75096,1.09925 3.33339,1.80975 0.27023,0.33055 0.37748,0.65687 0.32809,0.99765 z m -3.07586,7.41222 c -0.39512,-1.16276 -0.71367,-2.8 0.0127,-3.99592 0.44908,-0.74083 1.20191,-1.16416 1.97908,-1.16416 0.23107,0 0.46461,0.0384 0.69215,0.11641 -1.11125,2.0253 -0.86925,4.28519 0.65687,5.93937 0.60501,0.65581 1.29893,1.17052 2.06587,1.54093 -0.0124,0.0124 -0.0212,0.0247 -0.0363,0.0367 -0.79693,0.64241 -1.64712,0.83714 -2.52272,0.5835 -1.20085,-0.3489 -2.34562,-1.57692 -2.84762,-3.05682 z m -4.19242,4.64037 c -1.14547,-0.21336 -2.07503,-0.84625 -2.76295,-1.88165 -0.6029,-0.90735 -0.75389,-1.76954 -0.44873,-2.56293 0.45931,-1.19345 1.95826,-2.21862 4.01002,-2.74214 l 0.33902,-0.0861 -0.24059,-0.25435 c -0.42157,-0.44486 -0.90947,-1.10138 -0.83856,-1.70392 0.0385,-0.32703 0.23742,-0.60325 0.60819,-0.8449 0.27905,-0.18133 0.5581,-0.25965 0.83432,-0.25965 0.84773,0 1.66335,0.74083 2.34068,1.50742 -0.79234,1.32927 -0.46002,3.08116 -0.0392,4.32047 0.42439,1.24919 1.24672,2.3054 2.21474,2.90618 -1.41005,0.84738 -3.83258,2.00876 -6.01698,1.60155 z m -0.31785,0.34685 c 0.0808,0.0195 0.15981,0.042 0.24271,0.0575 0.33161,0.0622 0.66852,0.09 1.00542,0.09 1.22731,0 2.46239,-0.37042 3.52425,-0.82938 -0.54575,2.12157 -1.27247,4.35151 -3.41101,5.17779 -0.88441,0.34216 -1.85067,0.30437 -2.81199,0.19607 0.23424,-0.55425 0.64029,-1.81885 1.45062,-4.69195 z m -5.71535,3.06849 c 0.5334,-0.23001 1.0354,-0.56984 1.50036,-1.02595 0.89465,-0.87728 1.27847,-1.83899 1.14089,-2.85852 -0.12453,-0.91828 -0.69568,-1.85808 -1.60162,-2.69698 0.19968,-1.14159 0.39512,-2.22004 0.55598,-3.07588 0.0483,-0.25964 0.11924,-0.68227 0.20744,-1.21108 1.20579,-7.23053 1.86055,-8.78205 2.19815,-8.80992 l 0.0557,0.006 c 0.23284,2.7e-4 4.12609,0.61842 5.13468,1.06821 0.27588,0.32068 -0.5588,3.1295 -0.96061,4.47957 -0.008,0.0275 -0.0159,0.054 -0.0236,0.0808 -0.55104,-0.19438 -1.13559,-0.18062 -1.73214,0.20779 -0.47308,0.30798 -0.73942,0.6918 -0.79234,1.14124 -0.0762,0.64346 0.30974,1.2901 0.72214,1.78223 -2.01436,0.58102 -3.4858,1.65347 -3.96769,2.90512 -0.3556,0.92464 -0.19121,1.91312 0.49036,2.93794 0.61983,0.93345 1.42487,1.56316 2.39324,1.8881 -0.69603,2.46091 -1.2961,4.42129 -1.50283,4.82741 -0.96838,-0.012 -2.44299,-0.19265 -3.90843,-0.48013 -0.0134,-0.18588 0.0219,-0.59972 0.0903,-1.16593 z m 1.34726,-19.7704 c 0.0942,0 0.19085,0.003 0.28892,0.008 0.50412,0.0275 1.11055,0.084 1.77342,0.1651 -0.65652,1.15429 -1.29011,4.32717 -2.0126,8.66104 -0.0878,0.52529 -0.15769,0.94474 -0.20602,1.20227 -0.0815,0.43392 -0.2794,1.51236 -0.51259,2.83598 -0.37183,-0.30445 -0.78952,-0.59267 -1.24707,-0.8576 0.51294,-0.40111 1.0347,-0.9652 1.10596,-1.63442 0.0497,-0.46743 -0.12312,-0.91863 -0.51435,-1.34091 -0.90805,-0.98072 -2.06128,-0.67733 -3.09739,-0.073 0.17357,-1.63477 0.37359,-3.1496 0.60819,-4.58188 0.49389,-3.01907 1.67569,-4.38467 3.81353,-4.38467 z m -5.93267,14.2367 c 0.68968,-1.1557 1.40864,-2.85151 0.93733,-4.38256 0.83291,-0.61701 1.79458,-1.17581 2.62044,-0.97684 0.26881,0.0646 0.52352,0.20919 0.75424,0.45861 0.30621,0.33125 0.43779,0.65757 0.40181,0.99765 -0.067,0.62654 -0.69039,1.17687 -1.20156,1.52788 l -0.29245,0.20073 0.3115,0.16722 c 1.8803,1.01071 3.10903,2.39995 3.28718,3.71581 0.11818,0.87411 -0.2226,1.71167 -1.01529,2.48891 -0.90382,0.8865 -1.95227,1.30913 -3.11644,1.25649 -2.22109,-0.10018 -4.3173,-1.84421 -5.49875,-3.03209 1.07774,-0.38135 2.11737,-1.25765 2.81199,-2.42181 z m -1.82668,-5.96019 c 0.23954,-0.0257 0.47519,-0.01 0.70062,0.0441 0.75706,0.18239 1.39488,0.7874 1.66546,1.64254 0.4378,1.38077 -0.24201,2.96368 -0.88935,4.04777 -0.82339,1.38006 -2.21545,2.35476 -3.46393,2.42598 -0.91052,0.0515 -1.69474,-0.34494 -2.32621,-1.18209 -0.0116,-0.0155 -0.0201,-0.0303 -0.0289,-0.0452 0.83079,-0.19473 1.62384,-0.5535 2.36185,-1.07561 1.86055,-1.31657 2.60632,-3.54719 1.98049,-5.85753 z m 5.91891,12.53706 c -0.27235,-0.0455 -0.54293,-0.0945 -0.80787,-0.156 -0.58243,-0.13505 -1.02164,-0.35306 -1.35572,-0.63458 0.24447,0.0473 0.49142,0.0832 0.74048,0.0945 0.51717,0.0233 1.01212,-0.0423 1.48484,-0.1881 -0.0434,0.40256 -0.0617,0.6845 -0.0617,0.88417 z m 13.48457,-26.22977 -0.20496,0.30233 0.36548,0.0183 c 0.2286,0.0116 1.11619,0.36759 1.60302,0.61842 -1.26577,0.23283 -2.45957,0.67804 -3.49285,1.26859 -0.84103,0.0656 -1.66935,0.25647 -2.36009,0.46249 -0.0935,0.0279 -0.1718,0.0755 -0.24412,0.12947 -0.18768,-0.25224 -0.42933,-0.46426 -0.71402,-0.61842 -0.0363,-0.0353 -0.0737,-0.0649 -0.11113,-0.0967 1.22908,-1.60796 3.1168,-2.72592 5.47053,-3.19864 0.0607,0.18944 -0.1845,0.92604 -0.31186,1.11407 z m -12.25973,-2.1463 c 0.47872,-0.12383 1.47214,-0.23742 1.69122,-0.16898 l 0.34925,0.10901 -0.0882,-0.3549 c -0.067,-0.26917 -0.0861,-1.17193 0.0198,-1.41746 2.02106,1.36772 3.43041,3.31823 4.09045,5.60388 -0.6043,-0.0646 -1.21531,0.1651 -1.70603,0.53869 -0.1277,-0.16863 -0.2547,-0.3422 -0.38452,-0.52494 -0.46038,-0.64875 -0.93275,-1.31021 -1.57551,-1.72614 -0.69568,-0.79269 -1.50601,-1.49825 -2.39642,-2.05916 z m -0.41451,5.21229 c -0.0275,-0.21837 -0.0963,-0.42474 -0.16228,-0.62442 -0.0579,-0.17321 -0.11254,-0.33725 -0.13935,-0.50165 -0.0938,-0.57714 0.0554,-1.12924 0.41028,-1.51553 0.31609,-0.34396 0.762,-0.52846 1.26859,-0.52846 0.0547,0 0.11042,0.002 0.16616,0.006 1.16875,0.0907 1.84961,1.04846 2.5079,1.97485 0.13264,0.18697 0.26952,0.3743 0.40887,0.55739 -0.70239,0.70203 -1.09115,1.73355 -0.768,2.66206 -0.0734,-0.001 -0.16299,0.0166 -0.26,0.0801 -0.0169,0.0113 -0.0335,0.0254 -0.0505,0.0392 -0.82444,-0.1076 -1.53564,-0.17498 -2.04047,-0.20214 -0.7119,-0.0388 -1.30951,0.0575 -1.81398,0.25223 -0.0325,-0.20919 -0.0166,-0.42615 0.0582,-0.64452 0.06,-0.17498 0.12876,-0.30586 0.19544,-0.43321 0.14887,-0.2854 0.29069,-0.55527 0.21907,-1.12219 z m -0.71544,-1.13206 c 0.003,0.024 0.004,0.048 0.008,0.072 0.0321,0.1972 0.0938,0.38417 0.15417,0.5655 0.0628,0.18909 0.12241,0.36795 0.14499,0.5461 0.0554,0.43921 -0.0367,0.61454 -0.17604,0.87983 -0.0699,0.13405 -0.14922,0.28645 -0.21943,0.49071 -0.10971,0.32032 -0.11924,0.64382 -0.049,0.95285 -1.56915,0.84208 -2.08385,2.74849 -2.3368,4.29331 -0.25118,1.53388 -0.46355,3.16053 -0.64488,4.9276 -0.0981,0.0663 -0.19402,0.1337 -0.28821,0.20179 -0.50589,-1.08903 -1.56351,-1.73285 -2.69417,-1.59279 -0.0148,0.002 -0.0282,0.006 -0.0427,0.009 -0.40181,-1.12819 -1.23119,-2.22427 -2.11173,-3.37926 -1.70215,-2.23273 -3.31011,-4.34199 -1.84538,-6.63257 0.56445,-0.8816 1.75825,-4.00227 0.40041,-5.72277 -0.0815,-0.10336 -0.1651,-0.19508 -0.25012,-0.28116 0.13335,-0.19756 0.26811,-0.38276 0.40569,-0.5521 1.04916,0.39935 2.21333,0.85373 3.36903,1.46156 0.91405,0.48119 1.79987,1.06998 2.73755,1.69298 0.65123,0.43215 1.32398,0.87948 2.02636,1.3021 0.4004,0.23848 0.88018,0.51012 1.41217,0.76589 z m -13.30395,-39.00453 c 0.24835,-0.23459 0.50447,-0.4773 0.77293,-0.68897 0.12912,-0.0998 0.25647,-0.20249 0.38453,-0.30515 0.29034,-0.23425 0.5909,-0.47625 0.91616,-0.68122 1.23896,-0.86854 2.63173,-1.61819 4.14409,-2.2299 0.10301,-0.0437 0.20637,-0.0836 0.31185,-0.12171 0.40252,-0.15946 0.82338,-0.31009 1.28835,-0.46073 1.72473,-0.55951 3.59551,-0.95215 5.55942,-1.16805 2.13325,-0.23107 3.8735,-0.23424 4.92266,-0.20955 0.30903,0.007 0.56057,0.0173 0.74154,0.0243 0.18556,0.007 0.30727,0.0113 0.32703,0.008 0.0466,0.005 0.14922,0.012 0.30268,0.0219 0.78987,0.0508 2.8889,0.18556 5.67549,0.70873 1.87995,0.35243 3.73697,0.82092 5.51885,1.39277 l 0.77576,0.25753 c 1.90923,0.64452 3.64173,1.38465 5.14844,2.20274 l 0.70767,0.40252 0.68792,0.43392 0.0572,0.0399 c 0.0776,0.0543 0.15416,0.10795 0.23001,0.16192 -1.14229,1.08762 -2.2292,2.30082 -3.14889,3.51755 -0.25788,0.34184 -0.49425,0.67134 -0.69956,0.96555 -0.17427,-0.0889 -0.44133,-0.22825 -0.45509,-0.2346 -1.23472,-0.49386 -2.50613,-0.92672 -3.77472,-1.28585 -1.35608,-0.40322 -2.72697,-0.70026 -3.91019,-0.94756 -1.4545,-0.27093 -2.56928,-0.4452 -3.50484,-0.54892 -0.83327,-0.10865 -1.56987,-0.1651 -2.16218,-0.21061 l -0.43568,-0.0339 c -0.51647,-0.0229 -0.87947,-0.0406 -1.05022,-0.0487 l -0.0847,-0.004 c -0.10901,-0.01 -0.54257,-0.0254 -1.16028,-0.0293 -0.62971,-0.0198 -1.50566,-0.006 -2.59962,0.0413 h -0.001 c -1.47779,0.0723 -4.41184,0.33232 -7.45879,1.25589 -1.50071,0.4639 -3.03353,1.11407 -4.433,1.88031 l -0.009,0.005 c -0.0473,0.0247 -0.26423,0.13405 -0.41804,0.21201 -0.26776,-0.38311 -0.49671,-0.6992 -0.7299,-1.00824 -0.81633,-1.0802 -1.72367,-2.10784 -2.69557,-3.07128 0.0864,-0.0804 0.17251,-0.16192 0.25858,-0.24341 z m 9.89577,-9.50242 c 0.744,-1.43721 1.57197,-2.62078 2.46309,-3.51931 0.91652,-0.94297 1.9872,-1.7018 3.09633,-2.19428 1.08268,-0.4826 2.05987,-0.65299 2.68746,-0.7112 0.62689,-0.0533 1.04176,-0.0282 1.19804,-0.0187 l 0.0723,0.005 c 0.14005,0.0106 0.56691,0.0434 1.19591,0.19402 0.47943,0.11325 1.44286,0.41593 2.51425,1.17475 0.9204,0.63712 1.84714,1.56881 2.68076,2.69523 0.8068,1.07914 1.52788,2.33327 2.22461,3.54647 l 0.0663,0.11536 c 0.6029,1.05622 1.41182,2.42323 2.3234,3.63114 0.0977,0.13088 0.19932,0.26317 0.3048,0.39758 -0.20814,-0.0653 -0.42016,-0.12488 -0.63077,-0.18732 -0.18768,-0.0561 -0.3743,-0.11395 -0.56374,-0.16757 -0.26705,-0.0758 -0.53728,-0.14605 -0.8068,-0.21696 -0.18239,-0.0483 -0.36336,-0.0991 -0.54645,-0.14499 -0.30128,-0.0755 -0.60502,-0.14429 -0.90876,-0.21414 -0.15381,-0.0356 -0.30656,-0.0741 -0.46108,-0.10795 -0.45932,-0.10054 -0.9204,-0.19473 -1.38324,-0.28152 -2.81129,-0.5274 -4.92796,-0.66357 -5.72523,-0.71472 -0.14217,-0.009 -0.23707,-0.0152 -0.31362,-0.0212 -0.0483,0.002 -0.15769,-0.003 -0.32597,-0.01 -0.80186,-0.0314 -2.93264,-0.11536 -5.72452,0.18767 -1.99249,0.21873 -3.89079,0.61737 -5.64233,1.18569 -0.1464,0.0476 -0.28716,0.0952 -0.42616,0.14288 -0.0402,0.0138 -0.0797,0.0275 -0.11959,0.0416 -0.11042,0.0388 -0.21907,0.0776 -0.32491,0.11676 -0.0198,0.007 -0.0409,0.0145 -0.06,0.0215 1.25942,-1.64182 2.31317,-3.30341 3.13585,-4.94629 z m 4.554,-8.57638 c 0,-3.83963 3.12809,-6.96736 6.96737,-6.96736 3.83998,0 6.96736,3.12773 6.96736,6.96736 0,2.20592 -1.0347,4.17442 -2.6416,5.45218 -0.75495,-0.93627 -1.57092,-1.71979 -2.38372,-2.28247 -1.12642,-0.79833 -2.14771,-1.11866 -2.65501,-1.23825 -0.66005,-0.15804 -1.1116,-0.19262 -1.28975,-0.20637 l -0.0487,-0.003 c -0.1651,-0.0102 -0.60184,-0.0367 -1.25942,0.0194 -0.66005,0.061 -1.68452,0.23989 -2.81834,0.74542 -0.10548,0.0469 -0.21061,0.0984 -0.31539,0.14993 -0.33478,-0.81422 -0.52282,-1.70392 -0.52282,-2.63702 z m 41.73256,20.97299 c -0.12277,-0.83149 -0.28081,-1.3656 -0.33267,-1.54093 l -0.19756,0.0579 0.18027,-0.11783 c -0.13229,-0.4699 -0.31891,-0.97296 -0.55527,-1.49613 -0.52741,-1.15323 -1.25131,-2.13748 -2.15265,-2.92664 -0.62512,-0.53587 -1.30916,-0.94933 -2.02918,-1.22837 -0.78034,-0.30974 -1.66723,-0.4953 -2.56222,-0.53693 -1.75684,-0.0977 -3.69606,0.35666 -5.45183,1.27811 -1.40582,0.72531 -2.81623,1.75013 -4.30318,3.12173 -0.0991,-0.0723 -0.19791,-0.14428 -0.30022,-0.21555 l -0.7687,-0.48895 -0.72002,-0.40922 c -1.61784,-0.87948 -3.48544,-1.66829 -5.54814,-2.34527 -0.2547,-0.30691 -0.48295,-0.59549 -0.69356,-0.87736 l -2.6e-4,-7.1e-4 c -0.89782,-1.18921 -1.69828,-2.54176 -2.29482,-3.58775 l -0.067,-0.11571 c -0.70309,-1.22379 -1.42981,-2.48885 -2.25108,-3.5874 -0.0656,-0.0885 -0.13299,-0.17392 -0.20002,-0.26 1.67887,-1.3342 2.75907,-3.38984 2.75907,-5.69595 0,-4.01249 -3.26319,-7.27604 -7.27604,-7.27604 -4.01249,0 -7.27568,3.26355 -7.27568,7.27604 0,0.98425 0.20002,1.92123 0.55597,2.77848 -0.94332,0.5013 -1.84432,1.17934 -2.63242,1.99037 -0.91899,0.92675 -1.77165,2.14419 -2.53577,3.62056 -0.89077,1.778 -2.10856,3.65372 -3.52249,5.42714 -1.51659,0.61771 -2.91959,1.37406 -4.16066,2.24437 -0.3369,0.21202 -0.64699,0.46143 -0.94685,0.70308 -0.12559,0.1009 -0.25083,0.20215 -0.37959,0.30128 -0.28469,0.22436 -0.54787,0.47342 -0.80222,0.71472 -0.0903,0.0854 -0.18097,0.16899 -0.27164,0.25259 -0.0868,-0.084 -0.17039,-0.17074 -0.25823,-0.25329 -1.54235,-1.45839 -3.01449,-2.54071 -4.49827,-3.308 -1.75472,-0.92534 -3.69041,-1.38148 -5.44759,-1.28305 -0.90735,0.042 -1.7713,0.2226 -2.56611,0.53622 -0.71297,0.2734 -1.39488,0.68721 -2.02883,1.23049 -0.89923,0.78387 -1.62313,1.76706 -2.15053,2.921 -0.33161,0.72566 -0.48718,1.25201 -0.54575,1.45027 l -0.042,0.14711 c -0.0557,0.19791 -0.2032,0.72355 -0.3175,1.49966 -0.11959,0.80574 -0.21378,2.09161 0.0166,3.64101 0.17251,1.16135 0.61031,2.91395 1.71697,4.66443 1.01036,1.58962 2.45922,2.95346 4.0767,3.83858 0.79905,0.4512 1.69404,0.80151 2.66277,1.0414 0.7874,0.18697 1.62983,0.29774 2.73403,0.35948 1.26541,0.0561 2.44792,0.0886 3.64807,0.11924 0.008,0.001 0.0194,0.003 0.0325,0.005 -0.16933,0.3182 -0.33972,0.62406 -0.51329,0.92075 -0.44909,0.75988 -0.87383,1.47779 -1.15147,2.24402 -0.25752,0.76835 -0.42404,1.52576 -0.4953,2.25178 -0.11959,1.25483 -0.005,2.53682 0.33973,3.81106 0.51647,1.86266 1.28058,2.92664 1.5681,3.3274 0.0353,0.049 0.0621,0.0857 0.0931,0.13194 l 0.0674,0.0861 c 0.27058,0.35207 1.09396,1.42416 2.79999,2.43169 0.83961,0.50624 1.91559,1.00013 3.48862,1.6002 0.22331,0.0875 0.45473,0.17498 0.68757,0.26353 -0.10619,0.13617 -0.20955,0.28046 -0.31115,0.43039 -1.84256,-1.42064 -4.23722,0.53093 -5.31742,1.41111 -4.17548,3.40501 -7.49124,9.906 -4.9022,16.13358 0.94474,2.27295 2.81234,4.24533 4.97134,5.33965 -0.46425,3.91615 -0.75847,8.36115 0.72425,11.88466 0.2981,0.70845 0.68298,1.34909 1.14689,1.92666 -0.0261,0.11945 -0.048,0.2395 -0.0649,0.36008 -6.02862,5.00351 -11.33934,5.88295 -15.10383,5.53059 -5.69207,-0.52997 -10.02877,-4.106 -11.64908,-7.20452 -2.79894,-5.35228 -1.3462,-11.31073 0.0586,-17.073 0.38771,-1.59032 0.75424,-3.09316 1.03682,-4.5914 1.40406,-7.43832 0.15169,-13.23446 -3.62127,-16.76118 -2.79082,-2.60879 -6.56907,-3.76273 -10.36355,-3.16442 -2.18475,0.34396 -6.70595,2.49908 -6.644567,3.62197 0.0095,0.17992 0.09842,0.26741 0.171099,0.30904 0.246238,0.14005 0.588788,-0.0385 1.340908,-0.42898 1.09925,-0.56974 2.93864,-1.52435 5.45148,-1.87819 5.33752,-0.75071 10.36954,2.52483 11.96092,7.78933 1.48943,4.92972 0.25295,9.97903 -0.94297,14.86288 -0.52846,2.15759 -1.07492,4.38856 -1.37195,6.56555 -0.63888,4.68739 -0.3108,11.24133 4.88491,15.84717 3.24944,2.88008 7.53604,4.41081 12.14437,4.41081 1.28588,0 2.59786,-0.11962 3.91831,-0.36202 3.27872,-0.60219 6.46183,-1.9353 9.52923,-3.96737 0.1143,0.18136 0.23954,0.35885 0.37641,0.53139 1.43722,1.81211 3.80824,2.9749 7.23442,3.55311 0.001,2.58688 0.0497,5.27928 0.24624,7.95404 0.007,0.0977 0.0162,0.19653 0.0247,0.29531 -1.30705,0.71011 -2.42712,1.78968 -3.2445,3.1556 l -0.0572,0.0956 c -0.0427,0.0713 -0.0854,0.14224 -0.1263,0.21622 -0.11218,0.20507 -0.10724,0.44774 -0.0106,0.64356 0.0519,0.10541 0.12947,0.19816 0.23249,0.26279 v -5.3e-4 c 2.17275,1.36177 4.67077,2.04335 7.17161,2.04335 1.20827,0 2.41724,-0.16123 3.59057,-0.47983 0.0183,-0.005 0.037,-0.008 0.0554,-0.0131 0.11289,-0.0313 0.22331,-0.0712 0.33585,-0.10542 1.07068,-0.32563 2.10926,-0.77818 3.08363,-1.37294 0.0593,-0.018 0.12206,-0.0533 0.1785,-0.10445 0.009,-0.009 0.0173,-0.0198 0.0261,-0.0289 0.0169,-0.0181 0.0346,-0.0353 0.0501,-0.0565 0.0177,-0.0251 0.0321,-0.0547 0.0466,-0.0843 0.004,-0.008 0.01,-0.0145 0.0134,-0.0229 2.7e-4,-8e-4 2.7e-4,-0.002 0.001,-0.003 10e-4,-0.004 0.004,-0.007 0.005,-0.0106 0.0162,-0.0413 0.0275,-0.0904 0.0346,-0.14359 0,-0.001 2.7e-4,-0.002 2.7e-4,-0.003 0.004,-0.03 0.004,-0.0622 0.004,-0.0963 0,-5.3e-4 0,-8e-4 0,-0.001 -0.004,-0.13684 -0.0519,-0.30441 -0.17463,-0.50093 -0.004,-0.007 -0.009,-0.0141 -0.0134,-0.0215 -0.0222,-0.0346 -0.0473,-0.0703 -0.0751,-0.10654 -0.0106,-0.0145 -0.018,-0.028 -0.03,-0.0427 l -0.0198,-0.0262 c 0.0952,-1.70063 -0.0737,-4.16595 -0.23989,-6.56512 -0.0952,-1.37693 -0.18591,-2.69805 -0.21766,-3.77539 h 0.49071 c 0.52494,-0.0258 1.04705,-0.0565 1.5681,-0.0896 -0.0293,1.09276 -0.12241,2.44933 -0.22013,3.86496 -0.16616,2.39917 -0.33514,4.86449 -0.23989,6.56484 l -0.0201,0.0265 c -0.0116,0.0147 -0.0194,0.0283 -0.03,0.0427 -0.0275,0.0363 -0.0526,0.0719 -0.0751,0.10654 -0.005,0.007 -0.009,0.0145 -0.013,0.0215 -0.12277,0.19652 -0.17075,0.36409 -0.17463,0.50093 0,5.3e-4 0,7.9e-4 0,10e-4 -7.9e-4,0.0339 0,0.0657 0.004,0.0956 0,0.002 2.7e-4,0.003 2.7e-4,0.004 0.007,0.0532 0.0183,0.10198 0.0346,0.1429 10e-4,0.004 0.004,0.007 0.005,0.0102 2.6e-4,0.001 7.9e-4,0.002 0.001,0.003 0.004,0.009 0.01,0.0156 0.0134,0.0244 0.0145,0.0292 0.0289,0.0577 0.0466,0.0828 0.0155,0.0219 0.0339,0.0395 0.0515,0.0583 0.008,0.008 0.0159,0.019 0.0243,0.0271 0.0564,0.0511 0.11924,0.0864 0.1785,0.10446 1.01671,0.62053 2.10256,1.08892 3.22263,1.41635 0.066,0.0194 0.13088,0.0434 0.19685,0.062 0.0543,0.0149 0.10901,0.0248 0.16334,0.0389 1.13982,0.29958 2.31104,0.45406 3.48262,0.45406 2.50084,0 4.99886,-0.68158 7.17162,-2.04335 v 5.3e-4 c 0.10301,-0.0646 0.18062,-0.15738 0.23283,-0.26279 0.0967,-0.19583 0.10125,-0.4385 -0.0109,-0.64356 -0.0406,-0.074 -0.0832,-0.14496 -0.12629,-0.21622 l -0.0579,-0.097 c -0.81704,-1.36522 -1.93711,-2.44408 -3.2438,-3.15419 0.008,-0.0988 0.0173,-0.19759 0.0247,-0.29531 0.20567,-2.79079 0.24977,-5.6013 0.2466,-8.29095 2.56469,-0.64632 4.40972,-1.70603 5.60775,-3.2162 1.10314,-1.39101 1.47567,-3.08614 1.05022,-4.64055 2.09021,-2.43829 2.75308,-5.87512 1.96426,-10.25701 -0.34219,-1.89862 -0.74823,-3.80326 -1.18321,-5.7005 0.44909,-0.41381 0.85972,-0.86325 1.21567,-1.34585 3.87491,-5.25498 2.05669,-12.09922 -1.27106,-16.23413 -0.83855,-1.04069 -2.66982,-3.31223 -4.70641,-2.58762 -0.0903,-0.2286 -0.18485,-0.45544 -0.2868,-0.67769 0.0191,-0.007 0.0388,-0.0145 0.0579,-0.0219 0.28716,-0.10936 0.56762,-0.2159 0.8382,-0.32138 1.57339,-0.60043 2.64971,-1.09396 3.48826,-1.59949 1.71062,-1.00824 2.53154,-2.08033 2.80141,-2.43276 l 0.0804,-0.10442 c 0.0162,-0.024 0.0406,-0.0579 0.073,-0.10195 0.28893,-0.39864 1.05763,-1.45804 1.58009,-3.34116 0.34114,-1.27847 0.45403,-2.56046 0.33514,-3.80894 -0.0663,-0.72002 -0.23142,-1.47779 -0.49353,-2.25778 -0.28716,-0.78141 -0.73096,-1.53106 -1.15923,-2.25461 -0.17498,-0.30162 -0.35172,-0.61912 -0.52741,-0.9465 0.78211,-0.006 2.64513,-0.0367 3.65373,-0.0822 1.10313,-0.0621 1.94592,-0.17286 2.73367,-0.35983 0.96908,-0.24024 1.86267,-0.5902 2.65359,-1.03964 1.62314,-0.88547 3.07305,-2.24931 4.08411,-3.84034 1.10984,-1.75542 1.54411,-3.50555 1.71238,-4.66372 0.23072,-1.52188 0.13864,-2.81975 0.0212,-3.64137"
         style="fill:#000000;fill-opacity:1;fill-rule:nonzero;stroke:#000000;stroke-width:0.30000001;stroke-miterlimit:4;stroke-dasharray:none;stroke-opacity:1"
         id="path56" />
      <path
         inkscape:connector-curvature="0"
         d="m 199.85359,141.81468 c -0.39441,1.22838 -1.29717,2.43064 -2.47756,3.29812 -1.15852,0.85126 -2.64477,1.54376 -4.41784,2.05881 -1.7272,0.51047 -3.49638,0.72884 -4.84187,0.86219 -0.3496,0.0307 -0.69074,0.0586 -1.02588,0.0815 -0.34396,-0.73589 -0.6477,-1.43686 -0.9278,-2.13995 l -0.18592,-0.45967 c -0.31468,-0.77857 -0.63923,-1.58361 -1.04563,-2.37172 -0.42263,-0.83749 -0.99766,-1.69827 -1.81046,-2.70933 -0.0423,-0.0526 -0.0847,-0.1069 -0.12735,-0.16193 l 0.26846,-0.3817 c 0.94474,-1.31904 1.80411,-2.37808 2.70405,-3.33199 1.27811,-1.35114 2.50542,-2.37349 3.75108,-3.1249 l 0.003,-0.002 c 1.48273,-0.91758 3.09316,-1.42699 4.53743,-1.43475 1.43898,-0.0303 2.88396,0.51294 3.76484,1.40159 0.21132,0.20355 0.38418,0.42192 0.51541,0.65052 0.0847,0.14534 0.15875,0.31079 0.23072,0.4706 0.043,0.0963 0.0857,0.19086 0.1277,0.27588 0.11466,0.24588 0.22155,0.47519 0.32421,0.70238 0.0596,0.11994 0.10336,0.2487 0.14499,0.37288 0.0257,0.078 0.0512,0.15346 0.0751,0.21379 0.0536,0.15592 0.10477,0.2995 0.1524,0.43109 0.067,0.18662 0.12488,0.34713 0.16087,0.46461 l 0.10653,0.43744 c 0.007,0.0335 0.0247,0.10372 0.0508,0.20849 l 0.0543,0.2219 c 0.009,0.0441 0.0208,0.0903 0.0335,0.139 0.0194,0.0769 0.0416,0.16157 0.0536,0.25929 l 0.067,0.54645 c 0.0857,0.54928 0.16439,1.67252 -0.26565,3.02119 z m 0.76482,-3.6389 c -0.0159,-0.12735 -0.043,-0.23424 -0.067,-0.32879 -0.01,-0.0399 -0.0198,-0.078 -0.0293,-0.12418 l -0.0571,-0.23247 c -0.0247,-0.10019 -0.0416,-0.16758 -0.0494,-0.20074 l -0.11147,-0.45825 c -0.043,-0.14111 -0.10372,-0.3108 -0.17428,-0.508 -0.0466,-0.12912 -0.0974,-0.27059 -0.15416,-0.43498 -0.0247,-0.0632 -0.0469,-0.12947 -0.0695,-0.19791 -0.0459,-0.13652 -0.0977,-0.29139 -0.1711,-0.43709 -0.0991,-0.21907 -0.20602,-0.45085 -0.32455,-0.70379 -0.0416,-0.0843 -0.0815,-0.17286 -0.12171,-0.26282 -0.078,-0.17357 -0.15804,-0.35313 -0.25753,-0.52317 -0.15698,-0.2734 -0.36336,-0.53446 -0.60854,-0.77047 -0.99624,-1.00577 -2.54882,-1.59526 -4.17124,-1.56633 -1.54482,0.008 -3.26037,0.54751 -4.83129,1.51941 -1.28976,0.77894 -2.55553,1.83198 -3.86927,3.22086 -0.91828,0.97367 -1.79317,2.05141 -2.75449,3.39408 l -0.51223,0.72778 0.2159,0.27869 c 0.0589,0.0762 0.11783,0.15276 0.17603,0.22508 0.78705,0.97896 1.34162,1.80763 1.74625,2.6102 0.39547,0.76729 0.71579,1.55998 1.02482,2.32622 l 0.18627,0.45966 c 0.30551,0.76765 0.63994,1.53494 1.02341,2.34563 l 0.0829,0.17497 0.19261,-0.012 c 0.40182,-0.0247 0.81175,-0.0579 1.2372,-0.0956 1.37336,-0.13582 3.17711,-0.35877 4.94911,-0.88229 1.83621,-0.5334 3.38244,-1.25554 4.59529,-2.14701 1.27494,-0.93698 2.25319,-2.24331 2.68323,-3.58387 0.46602,-1.4605 0.37923,-2.68393 0.28716,-3.27483 l -0.066,-0.53799"
         style="fill:#000000;fill-opacity:1;fill-rule:nonzero;stroke:#000000;stroke-width:0.30000001;stroke-miterlimit:4;stroke-dasharray:none;stroke-opacity:1"
         id="path58" />
      <path
         inkscape:connector-curvature="0"
         d="m 147.46044,140.4392 c -0.80151,0.99695 -1.37653,1.85597 -1.80904,2.70263 -0.41981,0.81422 -0.75177,1.64289 -1.07244,2.4444 l -0.15699,0.39158 c -0.28751,0.72179 -0.59972,1.43934 -0.95179,2.18723 -0.34714,-0.0219 -0.70097,-0.0469 -1.06186,-0.078 -1.23367,-0.11219 -3.07799,-0.32033 -4.85246,-0.8255 -1.79564,-0.51823 -3.26919,-1.22273 -4.3815,-2.09515 -1.16699,-0.90734 -2.06199,-2.12372 -2.45639,-3.33975 -0.42263,-1.24248 -0.33126,-2.41617 -0.28434,-3.02754 l 0.0557,-0.39475 c 0.0307,-0.21908 0.0568,-0.40711 0.078,-0.5327 l 0.0667,-0.25682 c 0.0219,-0.0854 0.0367,-0.14393 0.0399,-0.15628 0.0113,-0.0307 0.0275,-0.0924 0.049,-0.1838 0.0511,-0.21942 0.14675,-0.62759 0.36724,-1.1811 l 0.21731,-0.60325 0.0953,-0.20531 c 0.073,-0.15664 0.14993,-0.32174 0.2219,-0.48225 0.0438,-0.0878 0.0864,-0.18133 0.12947,-0.27764 0.0723,-0.15981 0.14711,-0.32526 0.23918,-0.47625 0.11924,-0.21449 0.29104,-0.43215 0.51329,-0.65017 0.85831,-0.86642 2.25849,-1.39806 3.67489,-1.39806 0.0293,0 0.0586,7.2e-4 0.0878,0.001 1.43016,0.007 3.04094,0.51682 4.53707,1.43616 1.24425,0.75283 2.4698,1.77483 3.74685,3.1242 1.15994,1.23472 2.09621,2.49308 2.69981,3.33269 0.10407,0.14746 0.20179,0.28858 0.29845,0.42828 z m 0.25789,-0.87453 -0.001,-0.002 c -0.6128,-0.85233 -1.56424,-2.1315 -2.74887,-3.39198 -1.31304,-1.38783 -2.57775,-2.44122 -3.86468,-3.2198 -1.11937,-0.68792 -2.86632,-1.50954 -4.82812,-1.51977 -1.61466,-0.0176 -3.17747,0.56021 -4.17124,1.56316 -0.25859,0.2533 -0.4632,0.51471 -0.60361,0.76694 -0.10477,0.1718 -0.18697,0.35348 -0.26634,0.52952 -0.0402,0.0885 -0.079,0.17533 -0.12524,0.26776 -0.0758,0.16863 -0.15134,0.33126 -0.22331,0.48577 l -0.10512,0.22931 -0.22331,0.61736 c -0.23319,0.58455 -0.33938,1.03681 -0.39018,1.25412 -0.013,0.055 -0.0212,0.0942 -0.0332,0.12983 -0.0102,0.0328 -0.0279,0.0998 -0.0529,0.19791 l -0.0706,0.27693 c -0.0272,0.15451 -0.0543,0.34925 -0.0861,0.57643 l -0.0572,0.40958 c -0.0526,0.67134 -0.14993,1.92123 0.30904,3.27096 0.42792,1.31832 1.39312,2.63454 2.64689,3.60962 1.1691,0.91722 2.70827,1.65523 4.57553,2.19428 1.82139,0.51858 3.70169,0.7306 4.95935,0.84525 0.43462,0.0374 0.85725,0.0663 1.2707,0.091 l 0.19191,0.0116 0.0829,-0.17392 c 0.39123,-0.82268 0.73449,-1.6062 1.04811,-2.39466 l 0.15733,-0.39158 c 0.31574,-0.78916 0.64277,-1.60478 1.05022,-2.39607 0.41487,-0.81174 0.96944,-1.63935 1.74837,-2.60843 l 0.35173,-0.44874 -0.11853,-0.17251 c -0.13653,-0.19861 -0.2734,-0.39723 -0.42228,-0.60783"
         style="fill:#000000;fill-opacity:1;fill-rule:nonzero;stroke:#000000;stroke-width:0.30000001;stroke-miterlimit:4;stroke-dasharray:none;stroke-opacity:1"
         id="path60" />
      <path
         inkscape:connector-curvature="0"
         d="m 160.98489,155.8376 c 0,-0.63888 1.67675,-1.15852 3.73803,-1.15852 1.01106,0 1.9879,0.127 2.68005,0.34819 0.67275,0.21484 1.05798,0.50976 1.05798,0.81033 0,1.72508 -2.50225,3.83328 -3.73803,3.83328 -1.23578,0 -3.73803,-2.1082 -3.73803,-3.83328 z m 12.41284,7.85248 c -3.15207,2.90583 -7.42386,0.95497 -8.27335,-3.49215 1.5494,-0.34078 3.91266,-2.45992 3.91266,-4.36033 0,-1.28023 -2.3241,-1.73461 -4.31412,-1.73461 -1.98967,0 -4.31377,0.45438 -4.31377,1.73461 0,1.90041 2.36326,4.01955 3.91231,4.36033 -0.84914,4.44712 -5.12092,6.39798 -8.27335,3.49215 -0.39511,-0.36442 -0.95743,0.28646 -0.55809,0.65476 3.24132,2.98802 7.71419,1.62771 9.2329,-2.56823 1.51906,4.19594 5.99193,5.55625 9.23325,2.56823 0.39935,-0.3683 -0.16333,-1.01918 -0.55844,-0.65476"
         style="fill:#000000;fill-opacity:1;fill-rule:nonzero;stroke:#000000;stroke-width:0.30000001;stroke-miterlimit:4;stroke-dasharray:none;stroke-opacity:1"
         id="path62" />
      <path
         inkscape:connector-curvature="0"
         d="m 160.50652,149.13059 c 0.32667,0.44767 1.08162,0.0145 0.75071,-0.4385 -1.94028,-2.66065 -5.3781,-3.10657 -7.96149,-1.07245 -0.43921,0.34572 0.17992,0.95709 0.61489,0.61454 2.11949,-1.66828 5.00874,-1.27952 6.59589,0.89641"
         style="fill:#000000;fill-opacity:1;fill-rule:nonzero;stroke:#000000;stroke-width:0.30000001;stroke-miterlimit:4;stroke-dasharray:none;stroke-opacity:1"
         id="path64" />
      <path
         inkscape:connector-curvature="0"
         d="m 176.84084,147.61964 c -2.5834,-2.03412 -6.02121,-1.5882 -7.96149,1.07245 -0.33091,0.45296 0.42404,0.88617 0.75071,0.4385 1.58715,-2.17593 4.4764,-2.56469 6.59588,-0.89641 0.43498,0.34255 1.0541,-0.26882 0.6149,-0.61454"
         style="fill:#000000;fill-opacity:1;fill-rule:nonzero;stroke:#000000;stroke-width:0.30000001;stroke-miterlimit:4;stroke-dasharray:none;stroke-opacity:1"
         id="path66" />
    </g>
  </g>
</svg>
