<?xml version="1.0" encoding="UTF-8" standalone="no"?>
<!-- Generator: Adobe Illustrator 27.5.0, SVG Export Plug-In . SVG Version: 6.00 Build 0)  -->

<svg
   version="1.1"
   x="0px"
   y="0px"
   viewBox="0 0 500 500"
   xml:space="preserve"
   id="svg85"
   sodipodi:docname="mouse3.svg"
   style="enable-background:new 0 0 500 500;"
   inkscape:version="1.3 (0e150ed6c4, 2023-07-21)"
   xmlns:inkscape="http://www.inkscape.org/namespaces/inkscape"
   xmlns:sodipodi="http://sodipodi.sourceforge.net/DTD/sodipodi-0.dtd"
   xmlns="http://www.w3.org/2000/svg"
   xmlns:svg="http://www.w3.org/2000/svg"><defs
   id="defs85" /><sodipodi:namedview
   id="namedview85"
   pagecolor="#ffffff"
   bordercolor="#000000"
   borderopacity="0.25"
   inkscape:showpageshadow="2"
   inkscape:pageopacity="0.0"
   inkscape:pagecheckerboard="0"
   inkscape:deskcolor="#d1d1d1"
   inkscape:zoom="1.6079608"
   inkscape:cx="221.70938"
   inkscape:cy="334.27431"
   inkscape:window-width="2560"
   inkscape:window-height="1351"
   inkscape:window-x="1191"
   inkscape:window-y="187"
   inkscape:window-maximized="1"
   inkscape:current-layer="g82" />&#10;<g
   id="BACKGROUND">&#10;	<rect
   style="fill:#FFFFFF;"
   width="500"
   height="500"
   id="rect1" />&#10;</g>&#10;<g
   id="OBJECTS">&#10;	<g
   id="g46">&#10;		<path
   style="fill:none;stroke:#1D1D1B;stroke-width:2;stroke-linecap:round;stroke-linejoin:round;stroke-miterlimit:10;"
   d="    M253.227,171.035c-32.75,0-59.505,22.942-61.314,51.846c-11.076,4.023-18.989,14.639-18.989,27.105    c0,9.519,4.834,18.593,12.724,23.916c5.933,4.003,12.617,4.738,19.555,5.174c13.372,0.84,26.77,1.28,40.169,1.297    c12.266,0.015,24.563-1.044,35.987-5.881c7.155-3.03,13.613-7.498,18.931-13.168c8.961-9.556,14.356-22.159,14.356-35.321    C314.647,195.645,287.148,171.035,253.227,171.035z"
   id="path1" />&#10;		<path
   style="fill:none;stroke:#1D1D1B;stroke-width:2;stroke-linecap:round;stroke-linejoin:round;stroke-miterlimit:10;"
   d="    M310.64,206.442c9.294-5.214,15.574-15.162,15.574-26.576c0-16.818-13.634-30.452-30.452-30.452    c-14.199,0-26.128,9.718-29.499,22.866"
   id="path2" />&#10;		<path
   style="fill:none;stroke:#1D1D1B;stroke-width:2;stroke-linecap:round;stroke-linejoin:round;stroke-miterlimit:10;"
   d="    M304.471,195.697c5.578-3.075,9.356-9.012,9.356-15.831c0-9.977-8.088-18.064-18.065-18.064c-8.564,0-15.736,5.96-17.596,13.958"
   id="path3" />&#10;		<path
   style="fill:none;stroke:#1D1D1B;stroke-width:2;stroke-linecap:round;stroke-linejoin:round;stroke-miterlimit:10;"
   d="    M194.932,206.442c-8.848-5.214-14.828-15.162-14.828-26.576c0-16.818,12.98-30.452,28.992-30.452    c13.519,0,24.876,9.718,28.085,22.866"
   id="path4" />&#10;		<path
   style="fill:none;stroke:#1D1D1B;stroke-width:2;stroke-linecap:round;stroke-linejoin:round;stroke-miterlimit:10;"
   d="    M200.806,195.697c-5.311-3.075-8.908-9.012-8.908-15.831c0-9.977,7.7-18.064,17.199-18.064c8.154,0,14.982,5.96,16.752,13.958"
   id="path5" />&#10;		<path
   style="fill:none;stroke:#1D1D1B;stroke-width:2;stroke-linecap:round;stroke-linejoin:round;stroke-miterlimit:10;"
   d="    M223.998,180.815c-3.16,0.695-6.242,2.227-8.206,4.798c-1.963,2.571-2.59,6.285-1.017,9.112c2.079,3.736,7.262,4.766,11.315,3.403    c4.052-1.362,7.211-4.515,10.142-7.628c1.08-1.147,2.177-2.962,1.115-4.124c-0.453-0.496-1.17-0.655-1.842-0.677    c-4.11-0.135-7.461,4.321-6.811,8.382c0.65,4.061,4.542,7.131,8.632,7.562c4.09,0.431,8.184-1.414,11.202-4.207    c2.287-2.116,4.091-4.85,4.685-7.909c0.168-0.867,0.231-1.801-0.148-2.599c-0.379-0.797-1.323-1.38-2.158-1.093    c-1.164,3.602-0.516,8.114,2.594,10.273c2.298,1.596,5.426,1.552,8.051,0.582c2.624-0.97,4.859-2.745,7.045-4.492"
   id="path6" />&#10;		<path
   style="fill:none;stroke:#1D1D1B;stroke-width:2;stroke-linecap:round;stroke-linejoin:round;stroke-miterlimit:10;"
   d="    M204.953,246.645c2.736,1.348,6.091,1.367,8.842,0.05c2.752-1.316,4.842-3.94,5.509-6.916c0.13,3.654,3.382,6.696,6.939,7.543    c3.557,0.847,7.356-0.235,10.465-2.159"
   id="path7" />&#10;		<path
   style="fill:#1D1D1B;"
   d="M256.827,225.479c0-2.263-1.834-4.097-4.097-4.097s-4.097,1.834-4.097,4.097    s1.834,4.097,4.097,4.097S256.827,227.742,256.827,225.479z"
   id="path8" />&#10;		<path
   style="fill:#1D1D1B;"
   d="M211.408,225.479c0-2.263-1.834-4.097-4.097-4.097c-2.263,0-4.097,1.834-4.097,4.097    s1.834,4.097,4.097,4.097C209.574,229.576,211.408,227.742,211.408,225.479z"
   id="path9" />&#10;		<path
   style="fill:#1D1D1B;"
   d="M223.561,234.294c-0.921-0.361-1.988,0.022-2.738,0.585c-0.788,0.592-1.363,1.465-1.599,2.422    c-0.06,0.244-0.082,0.485-0.112,0.733c-0.003,0.021,0,0.031,0,0.048c-0.006-0.017-0.007-0.028-0.018-0.049    c-0.023-0.047-0.051-0.12-0.065-0.15c-0.238-0.531-0.549-1.026-0.918-1.475c-0.669-0.813-1.607-1.579-2.62-1.916    c-1.013-0.337-1.338,0.584-1.315,1.436c0.077,2.803,2.351,4.753,4.653,5.975c0.006,0.017-0.001,0.037,0.007,0.053    c0.01,0.021,0.036,0.026,0.057,0.023c0.016-0.003,0.029-0.014,0.045-0.017c0.057,0.029,0.113,0.064,0.169,0.093    c0.057,0.029,0.108-0.057,0.051-0.086c-0.033-0.016-0.065-0.036-0.097-0.053c0.192-0.069,0.367-0.181,0.483-0.35    c0.036-0.053-0.05-0.103-0.086-0.051c-0.085,0.124-0.207,0.21-0.34,0.275c0.002-0.005,0.002-0.011,0.004-0.017    c0.008-0.021,0.011-0.042,0.016-0.063c0.002-0.013,0.009-0.024,0.01-0.037c0-0.004-0.002-0.007-0.002-0.011    c0.026-0.167-0.019-0.347-0.153-0.457c-0.006-0.005-0.014,0-0.021-0.003c-0.013-0.022-0.029-0.041-0.047-0.059    c1.239-0.637,2.425-1.372,3.527-2.226c0.833-0.646,1.8-1.39,2.065-2.468C224.727,235.592,224.433,234.636,223.561,234.294z"
   id="path10" />&#10;		<path
   style="fill:none;stroke:#1D1D1B;stroke-width:2;stroke-linecap:round;stroke-linejoin:round;stroke-miterlimit:10;"
   d="    M290.343,337.543c0,16.146,0,26.378,0,42.524c-39.274,10.039-80.984,10.039-120.258,0c0-13.866,0-23.327,0-37.193"
   id="path11" />&#10;		<path
   style="fill:none;stroke:#1D1D1B;stroke-width:2;stroke-linecap:round;stroke-linejoin:round;stroke-miterlimit:10;"
   d="    M170.085,317.613c0-14.034,0-22.608,0-36.642c39.274,10.039,80.984,10.039,120.258,0c0,8.019,0,10.302,0,18.321"
   id="path12" />&#10;		<path
   style="fill:none;stroke:#1D1D1B;stroke-width:2;stroke-linecap:round;stroke-linejoin:round;stroke-miterlimit:10;"
   d="    M209.608,260.066c1.065,1.877,3.437,2.692,5.588,2.519c2.151-0.172,4.145-1.148,6.072-2.118"
   id="path13" />&#10;		<path
   style="fill:none;stroke:#1D1D1B;stroke-width:2;stroke-linecap:round;stroke-linejoin:round;stroke-miterlimit:10;"
   d="    M309.359,281.247c-1.288,2.819-3.37,5.191-5.494,7.449c-2.979,3.166-6.131,6.22-9.791,8.566c-7.039,4.51-15.48,6.126-23.355,8.932    c-7.875,2.806-15.871,7.49-18.876,15.291c-0.779,2.021-1.185,4.244-0.75,6.366c1.028,5.017,6.283,7.971,11.242,9.252    c6.824,1.763,14.015,1.624,21,0.689c12.693-1.7,24.884-5.955,36.972-10.185"
   id="path14" />&#10;		<path
   style="fill:none;stroke:#1D1D1B;stroke-width:2;stroke-linecap:round;stroke-linejoin:round;stroke-miterlimit:10;"
   d="    M252.381,322.346c5.232-1.093,9.4-2.488,14.471-4.177"
   id="path15" />&#10;		<path
   style="fill:none;stroke:#1D1D1B;stroke-width:2;stroke-linecap:round;stroke-linejoin:round;stroke-miterlimit:10;"
   d="    M252.398,329.846c5.166-0.239,10.306-1.043,15.298-2.395"
   id="path16" />&#10;		<path
   style="fill:none;stroke:#1D1D1B;stroke-width:2;stroke-linecap:round;stroke-linejoin:round;stroke-miterlimit:10;"
   d="    M169.395,303.227c-9.033,6.85-12.367,20.248-7.597,30.533c2.529,5.452,7.497,10.127,13.475,10.744    c2.218,0.229,4.588-0.149,6.349-1.516c2.921-2.268,3.386-6.48,3.139-10.17c-0.177-2.643-0.622-5.346-1.987-7.617    c-2.531-4.211-7.584-6.049-12.25-7.589"
   id="path17" />&#10;		<path
   style="fill:none;stroke:#1D1D1B;stroke-width:2;stroke-linecap:round;stroke-linejoin:round;stroke-miterlimit:10;"
   d="    M165.603,310.923c0.695,2.873,2.604,5.431,5.16,6.915"
   id="path18" />&#10;		<path
   style="fill:none;stroke:#1D1D1B;stroke-width:2;stroke-linecap:round;stroke-linejoin:round;stroke-miterlimit:10;"
   d="    M172.158,325.922c3.368,3.307,7.552,5.778,12.074,7.132"
   id="path19" />&#10;		<path
   style="fill:none;stroke:#1D1D1B;stroke-width:2;stroke-linecap:round;stroke-linejoin:round;stroke-miterlimit:10;"
   d="    M168.768,331.63c3.693,4.586,8.953,7.885,14.69,9.214"
   id="path20" />&#10;		<path
   style="fill:none;stroke:#1D1D1B;stroke-width:2;stroke-linecap:round;stroke-linejoin:round;stroke-miterlimit:10;"
   d="    M203.316,386.609c1.027,9.735,3.352,19.333,6.894,28.458c-9.259-0.121-18.237,6.279-21.141,15.071    c15.007,0.531,30.014,1.062,45.021,1.593c3.536,0.125,7.65-0.008,9.789-2.827c1.443-1.902,1.511-4.478,1.519-6.866    c0.026-7.965,0.051-15.929,0.077-23.894"
   id="path21" />&#10;		<path
   style="fill:none;stroke:#1D1D1B;stroke-width:2;stroke-linecap:round;stroke-linejoin:round;stroke-miterlimit:10;"
   d="    M316.551,379.089c0.253,13.261-1.266,25.986-2.486,39.193c4.238,2.41,7.983,5.681,10.941,9.556    c3.766,4.932,6.275,11.055,5.866,17.248c-0.041,0.617-0.119,1.257-0.452,1.777c-0.679,1.061-2.127,1.252-3.385,1.299    c-16.88,0.629-33.265-5.784-48.112-13.841c-0.302-14.367-0.605-25.566-0.907-39.934"
   id="path22" />&#10;		<path
   style="fill:none;stroke:#1D1D1B;stroke-width:2;stroke-linecap:round;stroke-linejoin:round;stroke-miterlimit:10;"
   d="    M239.381,394.791c13.033,6.924,34.683,4.202,46.23-4.711"
   id="path23" />&#10;		<path
   style="fill:none;stroke:#1D1D1B;stroke-width:2;stroke-linecap:round;stroke-linejoin:round;stroke-miterlimit:10;"
   d="    M290.304,344.784c5.095,9.915,12.947,18.456,22.602,24.027c9.656,5.571,21.105,8.098,32.167,6.723    c-0.178-0.62-0.682-1.212-0.659-1.857c0.216-5.939,0.344-12.024,0.89-17.942c-8.233,1.736-16.992-0.405-24.175-4.786    c-7.183-4.382-12.903-10.86-17.445-17.942"
   id="path24" />&#10;		<path
   style="fill:none;stroke:#1D1D1B;stroke-width:2;stroke-linecap:round;stroke-linejoin:round;stroke-miterlimit:10;"
   d="    M319.551,280.373c5.077,24.824,4.289,46.011,4.141,71.376"
   id="path25" />&#10;		<path
   style="fill:none;stroke:#1D1D1B;stroke-width:2;stroke-linecap:round;stroke-linejoin:round;stroke-miterlimit:10;"
   d="    M307.705,250.242c5.204,5.637,6.047,6.609,7.918,14.103"
   id="path26" />&#10;		&#10;			<ellipse
   style="fill:none;stroke:#1D1D1B;stroke-width:2;stroke-linecap:round;stroke-linejoin:round;stroke-miterlimit:10;"
   cx="358.472"
   cy="248.898"
   rx="14.968"
   ry="18.968"
   id="ellipse26" />&#10;		<path
   style="fill:none;stroke:#1D1D1B;stroke-width:2;stroke-linecap:round;stroke-linejoin:round;stroke-miterlimit:10;"
   d="    M369.331,235.851c-4.648-1.888-8.657-2.553-13.045,0.336c-3.582,2.358-6.564,5.956-7.245,10.287    c-0.385,2.449-0.02,4.999,0.961,7.275c0.778,1.804,1.973,3.474,3.624,4.54c1.651,1.065,3.792,1.46,5.631,0.767    c2.263-0.852,3.662-3.095,4.717-5.271c0.785-1.618,1.486-3.335,1.505-5.133c0.019-1.798-0.776-3.703-2.358-4.557    c-2.204-1.19-5.074,0.105-6.532,2.142c-0.749,1.047-1.251,2.327-1.118,3.607"
   id="path27" />&#10;		<path
   style="fill:none;stroke:#1D1D1B;stroke-width:2;stroke-linecap:round;stroke-linejoin:round;stroke-miterlimit:10;"
   d="    M359.763,229.93c0,0-39.135-10.839-45.116-9.29"
   id="path28" />&#10;		<path
   style="fill:none;stroke:#1D1D1B;stroke-width:2;stroke-linecap:round;stroke-linejoin:round;stroke-miterlimit:10;"
   d="    M354.103,267.042c0,0-36.236-11.201-40.276-11.421"
   id="path29" />&#10;		<path
   style="fill:none;stroke:#1D1D1B;stroke-width:2;stroke-linecap:round;stroke-linejoin:round;stroke-miterlimit:10;"
   d="    M284.24,282.177c9.079-12.752,25.533-19.824,41.033-17.634c3.108,0.439,6.24,1.252,8.827,3.031    c0.526,0.362,1.05,0.793,1.269,1.393c0.185,0.506,0.127,1.064,0.068,1.6c-0.512,4.586-1.025,9.171-1.537,13.757    c-9.912-5.689-22.461-6.534-33.047-2.227c-3.972,1.616-7.786,4.032-10.077,7.656"
   id="path30" />&#10;		<path
   style="fill:none;stroke:#1D1D1B;stroke-width:2;stroke-linecap:round;stroke-linejoin:round;stroke-miterlimit:10;"
   d="    M322.863,307.951c5.82-0.361,11.639-0.722,17.459-1.083c-0.166-3.182-0.331-6.363-0.497-9.545    c-0.278-5.347-0.539-10.836,1.11-15.93c0.958-2.958,2.793-5.915,5.733-6.928c1.375-0.473,2.886-0.474,4.302-0.144    c3.941,0.92,6.944,4.29,8.49,8.03s1.87,7.853,2.176,11.888c0.256,3.383,0.512,6.765,0.769,10.148    c0.029,0.389,0.067,0.8,0.297,1.115c0.388,0.531,1.146,0.583,1.803,0.586c5.097,0.025,10.194,0.05,15.29,0.076    c0.825-8.128,1.056-16.371-0.222-24.441c-1.278-8.069-4.122-15.99-9.011-22.536"
   id="path31" />&#10;		<path
   style="fill:none;stroke:#1D1D1B;stroke-width:2;stroke-linecap:round;stroke-linejoin:round;stroke-miterlimit:10;"
   d="    M375.05,307.09c-1.627,19.056-2.156,38.206-1.585,57.323c0.089,2.965,0.195,5.999-0.704,8.826    c-1.321,4.154-4.72,7.408-8.596,9.402c-3.876,1.994-8.223,2.868-12.534,3.514c-11.478,1.721-23.176,1.974-34.718,0.752"
   id="path32" />&#10;		<path
   style="fill:none;stroke:#1D1D1B;stroke-width:2;stroke-linecap:round;stroke-linejoin:round;stroke-miterlimit:10;"
   d="    M322.402,373.208c-2.44,2.719-5.607,4.781-9.081,5.911"
   id="path33" />&#10;		<path
   style="fill:none;stroke:#1D1D1B;stroke-width:2;stroke-linecap:round;stroke-linejoin:round;stroke-miterlimit:10;"
   d="    M347.04,274.002c3.04,10.303,4.321,21.044,5.065,31.76c1.879,27.057,0.404,54.345-4.382,81.042"
   id="path34" />&#10;		<path
   style="fill:none;stroke:#1D1D1B;stroke-width:2;stroke-linecap:round;stroke-linejoin:round;stroke-miterlimit:10;"
   d="    M350.874,273.886c3.844,5.664,4.518,12.832,4.986,19.661c2.09,30.474,2.407,61.14-0.786,91.518"
   id="path35" />&#10;		<path
   style="fill:none;stroke:#1D1D1B;stroke-width:2;stroke-linecap:round;stroke-linejoin:round;stroke-miterlimit:10;"
   d="    M309.393,435.414c4.229,3.047,7.368,7.574,8.738,12.603"
   id="path36" />&#10;		<path
   style="fill:none;stroke:#1D1D1B;stroke-width:2;stroke-linecap:round;stroke-linejoin:round;stroke-miterlimit:10;"
   d="    M318.559,432.183c3.906,4.888,6.621,8.721,7.846,14.857"
   id="path37" />&#10;		<path
   style="fill:none;stroke:#1D1D1B;stroke-width:2;stroke-linecap:round;stroke-linejoin:round;stroke-miterlimit:10;"
   d="    M219.554,419.106c-6.694,1.961-11.704,5.182-15.82,10.813"
   id="path38" />&#10;		<path
   style="fill:none;stroke:#1D1D1B;stroke-width:2;stroke-linecap:round;stroke-linejoin:round;stroke-miterlimit:10;"
   d="    M206.962,419.29c-5.263,2.35-9.741,5.42-12.582,10.435"
   id="path39" />&#10;		<path
   style="fill:none;stroke:#1D1D1B;stroke-width:2;stroke-linecap:round;stroke-linejoin:round;stroke-miterlimit:10;"
   d="    M198.753,278.461c-1.479,2.375-2.599,4.972-3.31,7.678"
   id="path40" />&#10;		<path
   style="fill:none;stroke:#1D1D1B;stroke-width:2;stroke-linecap:round;stroke-linejoin:round;stroke-miterlimit:10;"
   d="    M373.44,359.67c5.372,0.421,0.023-0.06,5.372,0.421"
   id="path41" />&#10;		<path
   style="fill:none;stroke:#1D1D1B;stroke-width:2;stroke-linecap:round;stroke-linejoin:round;stroke-miterlimit:10;"
   d="    M200.8,286.354c-2.442,33.41-0.24,67.155,6.524,99.964"
   id="path42" />&#10;		<path
   style="fill:none;stroke:#1D1D1B;stroke-width:2;stroke-linecap:round;stroke-linejoin:round;stroke-miterlimit:10;"
   d="    M250.777,289.464c-0.192,11.147-0.384,22.293-0.576,33.44c-0.358,20.765-0.709,41.637,2.252,62.194"
   id="path43" />&#10;		<path
   style="fill:none;stroke:#1D1D1B;stroke-width:2;stroke-linecap:round;stroke-linejoin:round;stroke-miterlimit:10;"
   d="    M170.537,313.033c27.767,4.688,56.315,9.367,83.88,3.611"
   id="path44" />&#10;		<path
   style="fill:none;stroke:#1D1D1B;stroke-width:2;stroke-linecap:round;stroke-linejoin:round;stroke-miterlimit:10;"
   d="    M170.166,352.858c30.094,1.421,60.269,1.13,90.329-0.871c10.028-0.668,20.206-1.561,29.58-5.186"
   id="path45" />&#10;		<path
   style="fill:none;stroke:#1d1d1b;stroke-width:2;stroke-linecap:round;stroke-linejoin:round;stroke-miterlimit:10"
   d="m 149.46065,433.38048 c 3.14527,-1.89032 7.04823,-10.95607 14.60192,-13.67953 2.91893,1.78678 4.59874,7.15005 5.00843,9.33005 1.947,-1.935 4.533,-3.217 7.252,-3.595 -1.033,2.011 -2.066,4.021 -3.099,6.032"
   id="path46"
   sodipodi:nodetypes="ccccc" />&#10;	</g>&#10;	<g
   id="g82">&#10;		<path
   style="fill:none;stroke:#1D1D1B;stroke-width:2;stroke-linecap:round;stroke-linejoin:round;stroke-miterlimit:10;"
   d="    M430.086,383.237c9.077,0.058,18.16-0.688,27.069-2.223c-6.378-3.895-14.595-5.362-22.189-3.962    c9.832-5.532,17.342-14.2,20.811-24.02c-10.403,1.214-20.336,5.378-27.971,11.726c11.42-12.445,15.357-28.808,18.947-44.501    c-7.872,5.843-15.779,11.716-22.534,18.561c-6.754,6.845-12.363,14.76-14.918,23.549c-4.539-4.495-9.825-8.883-15.825-11.752    c0.551,4.696,1.85,9.323,3.848,13.703c-6.011-2.677-12.096-5.226-18.247-7.643c-0.34,4.533-0.005,20.92,18.696,26.564"
   id="path47" />&#10;		<g
   id="g51">&#10;			<path
   style="fill:none;stroke:#1D1D1B;stroke-width:2;stroke-linecap:round;stroke-linejoin:round;stroke-miterlimit:10;"
   d="     M431.269,332.303c-7.992-71.993-12.048-111.814-46.203-208.288"
   id="path48" />&#10;			<path
   style="fill:none;stroke:#1D1D1B;stroke-width:2;stroke-linecap:round;stroke-linejoin:round;stroke-miterlimit:10;"
   d="     M371.272,131.7c9.285,31.444,14.736,63.654,20.17,95.791c2.892,17.102,5.787,34.23,6.992,51.489     c1.939,27.772-3.531,54.192-10.313,81.366"
   id="path49" />&#10;			<path
   style="fill:none;stroke:#1D1D1B;stroke-width:2;stroke-linecap:round;stroke-linejoin:round;stroke-miterlimit:10;"
   d="     M372.806,137.51c-10.317,9.071-20.634,18.143-30.951,27.214c4.49-13.038,11.229-25.327,19.845-36.188     c-12.342-1.106-24.683-0.874-36.992,0.215c-22.173,1.962-44.244,6.709-66.043,11.436c14.84-12.908,31.421-23.888,49.174-32.564     c3.214-1.571,6.508-3.071,9.864-4.424c11.206-4.518,23.099-7.391,34.97-5.738c-32.169-17.398-66.177-31.521-101.302-42.071     c20.519-4.788,41.758-8.193,62.668-5.484c20.91,2.709,41.644,12.223,53.922,29.045c8.879-14.316,22.444-26.849,38.012-33.751     c15.568-6.902,32.623-10.095,49.658-11.363c-8.717,3.721-15.806,10.263-22.704,16.678     c-12.943,12.038-25.886,24.075-38.829,36.113c29.806-15.12,66.475-16.551,97.412-3.8c-30.565,4.521-60.32,14.268-87.52,28.67     c20.149,1.676,36.47,16.076,51.145,29.721c-19.32-4.127-38.641-8.255-57.961-12.382c6.414,6.521,11.66,14.145,15.424,22.42     c-7.202-4.645-17.403-12.234-24.127-17.526"
   id="path50" />&#10;			<path
   style="fill:none;stroke:#1D1D1B;stroke-width:2;stroke-linecap:round;stroke-linejoin:round;stroke-miterlimit:10;"
   d="     M385.066,124.015c-6.294-0.454-11.345,1.299-13.794,7.114"
   id="path51" />&#10;		</g>&#10;		<path
   style="fill:none;stroke:#1d1d1b;stroke-width:2;stroke-linecap:round;stroke-linejoin:round;stroke-miterlimit:10"
   d="m 49.569,426.819 c 0,-43.247 27.614,-78.305 61.677,-78.305 34.063,0 61.63813,34.08627 61.63813,77.33327"
   id="path52"
   sodipodi:nodetypes="csc" />&#10;		<path
   style="fill:none;stroke:#1d1d1b;stroke-width:2;stroke-linecap:round;stroke-linejoin:round;stroke-miterlimit:10"
   d="M 56.486613,431.44579 C 54.941806,423.33562 54.965,415.811 54.7,407.45 c 7.503,4.741 15.007,9.483 22.51,14.224 0.372,-12.615 5.168,-25.055 13.36,-34.655 2.044,12.481 4.087,24.962 6.131,37.443 7.423,-7.331 14.847,-14.663 22.27,-21.994 0.469,8.529 0.939,17.058 1.409,25.587 6.273,-2.936 12.546,-5.871 18.819,-8.807 -0.282,4.209 -0.564,8.419 -0.846,12.629 l 11.475,-2.856 c -0.173,1.426 -0.346,2.852 -0.519,4.277"
   id="path53"
   sodipodi:nodetypes="ccccccccccc" />&#10;		<path
   style="fill:none;stroke:#1d1d1b;stroke-width:2;stroke-linecap:round;stroke-linejoin:round;stroke-miterlimit:10"
   d="M 56.058764,431.63648 C 50.670764,427.23948 43.33,423.174 37.242,419.814 c 0.193,4.32 0.87,8.619 2.016,12.789"
   id="path54"
   sodipodi:nodetypes="ccc" />&#10;		<path
   style="fill:none;stroke:#1d1d1b;stroke-width:2;stroke-linecap:round;stroke-linejoin:round;stroke-miterlimit:10"
   d="m 111.88162,354.8598 c -3.608,19.561 -2.65962,34.0382 0.65538,53.6512"
   id="path55"
   sodipodi:nodetypes="cc" />&#10;		<path
   style="fill:none;stroke:#1d1d1b;stroke-width:2;stroke-linecap:round;stroke-linejoin:round;stroke-miterlimit:10"
   d="m 131.29432,358.82952 c -9.08,3.801 -14.91932,10.01748 -21.09132,17.68548"
   id="path56"
   sodipodi:nodetypes="cc" />&#10;		<path
   style="fill:none;stroke:#1d1d1b;stroke-width:2;stroke-linecap:round;stroke-linejoin:round;stroke-miterlimit:10"
   d="M 95.783399,358.40855 C 101.8354,368.87155 104.716,373.359 110.13,384.165"
   id="path57"
   sodipodi:nodetypes="cc" />&#10;		<path
   style="fill:none;stroke:#1d1d1b;stroke-width:2;stroke-linecap:round;stroke-linejoin:round;stroke-miterlimit:10"
   d="m 111.497,402.313 c 5.291,-8.103 11.473,-15.623 18.399,-22.382 6.106,-5.959 4.11299,-10.49259 9.77699,-16.87359"
   id="path58"
   sodipodi:nodetypes="ccc" />&#10;		<path
   style="fill:none;stroke:#1d1d1b;stroke-width:2;stroke-linecap:round;stroke-linejoin:round;stroke-miterlimit:10"
   d="m 131.601,378.349 c 8.346,-1.209 10.9082,-1.56874 19.0662,-3.70774"
   id="path59"
   sodipodi:nodetypes="cc" />&#10;		<path
   style="fill:none;stroke:#1d1d1b;stroke-width:2;stroke-linecap:round;stroke-linejoin:round;stroke-miterlimit:10"
   d="m 117.754,394.512 c 2.555,-1.94 6.056,-1.902 9.258,-1.693 14.578,0.953 16.69491,-0.52889 30.61691,3.89811"
   id="path60"
   sodipodi:nodetypes="ccc" />&#10;		<path
   style="fill:none;stroke:#1d1d1b;stroke-width:2;stroke-linecap:round;stroke-linejoin:round;stroke-miterlimit:10"
   d="m 81.794429,365.22689 c 9.583,1.131 12.619571,1.72111 21.448571,5.61411"
   id="path61"
   sodipodi:nodetypes="cc" />&#10;		<path
   style="fill:none;stroke:#1d1d1b;stroke-width:2;stroke-linecap:round;stroke-linejoin:round;stroke-miterlimit:10"
   d="m 446.961,367.543 c 18.657,2.576 34.62688,5.18279 52.18388,8.73979"
   id="path62"
   sodipodi:nodetypes="cc" />&#10;		<path
   style="fill:none;stroke:#1D1D1B;stroke-width:2;stroke-linecap:round;stroke-linejoin:round;stroke-miterlimit:10;"
   d="    M137.914,356.191c9.996-0.375,21.191-0.704,31.849-0.971"
   id="path63" />&#10;		<path
   style="fill:none;stroke:#1d1d1b;stroke-width:2;stroke-linecap:round;stroke-linejoin:round;stroke-miterlimit:10"
   d="M 1.2438114,366.11979 C 1.8368114,365.41279 31.612,362.16 80.205,359.144"
   id="path64"
   sodipodi:nodetypes="cc" />&#10;		<path
   style="fill:none;stroke:#1D1D1B;stroke-width:2;stroke-linecap:round;stroke-linejoin:round;stroke-miterlimit:10;"
   d="    M125.284,480.694c-4.166-9.502-7.082-19.55-8.65-29.806c7.164,6.59,14.002,13.534,20.483,20.797    c1.949-9.272,5.898-18.118,11.498-25.759c1.946,8.202,3.892,16.403,5.839,24.605c5.604-5.155,11.363-10.141,17.266-14.951    c-1.609,7.505-3.768,14.892-6.453,22.083c4.344-4.059,10.702-5.845,16.524-4.643c-1.915,2.685-3.83,5.369-5.745,8.054"
   id="path65" />&#10;		<path
   style="fill:none;stroke:#1D1D1B;stroke-width:2;stroke-linecap:round;stroke-linejoin:round;stroke-miterlimit:10;"
   d="    M280.195,480.934c-4.954-6.865-8.458-14.771-10.217-23.052c7.207,4.767,14.054,10.077,20.465,15.871    c3.5-5.751,8.188-10.776,13.682-14.667c0.039,4.997,0.078,9.995,0.117,14.992c5.816-3.414,11.769-6.595,17.839-9.534    c-1.949,4.053-3.898,8.106-5.846,12.159c4.691-2.049,9.64-3.509,14.692-4.334c-2.417,3.139-4.834,6.279-7.251,9.418"
   id="path66" />&#10;		<path
   style="fill:none;stroke:#1D1D1B;stroke-width:2;stroke-linecap:round;stroke-linejoin:round;stroke-miterlimit:10;"
   d="    M438.694,485.862c-12.707-8.705-16.312-19.484-17.59-34.834c7.881,7.436,15.761,14.873,23.642,22.309    c-0.186-11.563,4.904-23.108,13.567-30.769c-0.01,8.444,0.473,16.888,1.443,25.275c6.326-8.415,14.98-15.06,24.742-18.999    c-5.233,8.324-10.134,16.857-14.687,25.571c7.302-2.155,14.705-3.968,22.177-5.431c-3.695,4.342-7.391,8.684-11.086,13.025    c3.408-0.986,6.948-1.516,10.495-1.571c-2.204,2.178-4.409,4.356-6.613,6.535"
   id="path67" />&#10;		<path
   style="fill:none;stroke:#1D1D1B;stroke-width:2;stroke-linecap:round;stroke-linejoin:round;stroke-miterlimit:10;"
   d="    M13.266,489.701c-3.165-4.807-5.198-10.354-5.888-16.068c5.076,3.125,10.152,6.25,15.228,9.374    c0.443-6.574,2.965-12.992,7.114-18.11c1.547,5.822,2.426,11.821,2.612,17.842c5.417-4.381,11.161-8.358,17.167-11.887    c-2.383,4.637-4.766,9.274-7.15,13.911c4.287-2.189,8.791-3.952,13.425-5.254c-1.532,2.77-3.565,5.262-5.972,7.319"
   id="path68" />&#10;		<path
   style="fill:none;stroke:#1d1d1b;stroke-width:2;stroke-linecap:round;stroke-linejoin:round;stroke-miterlimit:10"
   d="M 1.1041203,287.03726 C 20.19812,253.34926 42.437,222.01 68.892,193.733 c 3.02,-3.228 6.506,-6.623 10.914,-6.943 2.916,-0.212 5.742,0.99 8.327,2.357 9.093,4.808 16.786,11.908 23.633,19.584 16.213,18.178 28.16,39.844 44.508,57.901"
   id="path69"
   sodipodi:nodetypes="cscccc" />&#10;		<path
   style="fill:none;stroke:#1D1D1B;stroke-width:2;stroke-linecap:round;stroke-linejoin:round;stroke-miterlimit:10;"
   d="    M122.431,220.778c20.646-25.416,42.95-49.485,66.724-72.002c6.003-5.685,12.63-11.535,20.812-12.719    c5.943-0.861,12.01,0.907,17.332,3.689c5.322,2.782,10.054,6.546,14.94,10.037c8.24,5.888,16.979,11.037,25.705,16.177"
   id="path70" />&#10;		<path
   style="fill:none;stroke:#1D1D1B;stroke-width:2;stroke-linecap:round;stroke-linejoin:round;stroke-miterlimit:10;"
   d="    M358.249,442.941c-6.244-10.086-11.27-20.925-14.936-32.206c8.675,4.233,17.35,8.465,26.026,12.698    c3.761-11.024,9.307-21.437,16.356-30.71c5.177,12.127,8.23,25.157,8.979,38.321c6.39-9.498,15.592-17.078,26.138-21.53    c-2.552,8.297-5.104,16.595-7.655,24.892c4.221-2.016,9.02-2.805,13.664-2.245c-2.676,2.875-5.352,5.75-8.028,8.625"
   id="path71" />&#10;		&#10;			<line
   style="fill:none;stroke:#1D1D1B;stroke-width:2;stroke-linecap:round;stroke-linejoin:round;stroke-miterlimit:10;"
   x1="316.914"
   y1="201.771"
   x2="393.866"
   y2="242.061"
   id="line71" />&#10;		<path
   style="fill:none;stroke:#1D1D1B;stroke-width:2;stroke-linecap:round;stroke-linejoin:round;stroke-miterlimit:10;"
   d="    M348.975,217.787c8.73-15.217,19.541-29.239,32.036-41.553"
   id="path72" />&#10;		<path
   style="fill:none;stroke:#1d1d1b;stroke-width:2;stroke-linecap:round;stroke-linejoin:round;stroke-miterlimit:10"
   d="m 399.348,167.485 c 6.552,-1.008 12.899,2.539 18.284,6.404 24.163,17.341 40.886,43.184 63.618,62.361 5.609,4.732 10.39283,9.50495 17.68183,10.35195"
   id="path73"
   sodipodi:nodetypes="cccc" />&#10;		<path
   style="fill:none;stroke:#1d1d1b;stroke-width:2;stroke-linecap:round;stroke-linejoin:round;stroke-miterlimit:10"
   d="m 439.615,193.557 c 14.762,-22.341 29.60662,-44.113 46.04462,-65.252 3.801,-4.888 7.874,-9.924 13.539,-12.424"
   id="path74"
   sodipodi:nodetypes="csc" />&#10;		<path
   style="fill:none;stroke:#1D1D1B;stroke-width:2;stroke-linecap:round;stroke-linejoin:round;stroke-miterlimit:10;"
   d="    M29.748,362.135c-11.979-14.161-19.676-31.896-21.839-50.318c16.139,5.188,31.109,13.977,43.503,25.542    c-2.195-15.669,1.133-31.527,4.445-47c1.449-6.769,2.918-13.6,5.795-19.896c13.11,19.438,23.704,40.57,31.433,62.705    c9.33-15.998,18.828-32.213,32.123-45.106c2.012,16.447-1.629,33.002-5.247,49.171c11.051-3.708,20.852-10.328,30.499-16.871    c-3.643,8.668-8.869,16.668-15.343,23.487c7.712-0.018,15.424-0.036,23.135-0.055c-2.962,4.922-7.357,7.595-11.639,11.424"
   id="path75" />&#10;		<path
   style="fill:none;stroke:#1D1D1B;stroke-width:2;stroke-linecap:round;stroke-linejoin:round;stroke-miterlimit:10;"
   d="    M63.747,284.421c1.237,25.242,4.356,50.392,9.32,75.172"
   id="path76" />&#10;		<path
   style="fill:none;stroke:#1D1D1B;stroke-width:2;stroke-linecap:round;stroke-linejoin:round;stroke-miterlimit:10;"
   d="    M18.906,324.251c12.78,11.604,22.848,22.993,34.111,36.074"
   id="path77" />&#10;		<path
   style="fill:none;stroke:#1D1D1B;stroke-width:2;stroke-linecap:round;stroke-linejoin:round;stroke-miterlimit:10;"
   d="    M117.388,311.622c-6.408,11.762-11.641,24.164-15.594,36.962"
   id="path78" />&#10;		<path
   style="fill:none;stroke:#1D1D1B;stroke-width:2;stroke-linecap:round;stroke-linejoin:round;stroke-miterlimit:10;"
   d="    M135.152,335.709c-5.396,4.253-10.792,8.506-16.188,12.759"
   id="path79" />&#10;		<path
   style="fill:none;stroke:#1D1D1B;stroke-width:2;stroke-linecap:round;stroke-linejoin:round;stroke-miterlimit:10;"
   d="    M147.36,348.201c-4.729,1.437-9.37,3.164-13.888,5.169"
   id="path80" />&#10;		<path
   style="fill:none;stroke:#1D1D1B;stroke-width:2;stroke-linecap:round;stroke-linejoin:round;stroke-miterlimit:10;"
   d="    M444.883,417.267c-1.743-3.938-3.487-7.875-5.23-11.813c3.969,2.928,7.939,5.856,11.908,8.784    c2.635-6.184,6.674-11.766,11.724-16.203c-1.151,5.124-1.882,10.342-2.183,15.585c5.605-3.674,11.676-6.636,18.021-8.795    c-2.938,4.629-5.876,9.257-8.815,13.886c4.968-0.706,9.937-1.412,14.905-2.117c-2.16,2.388-4.321,4.776-6.482,7.164"
   id="path81" />&#10;		<path
   style="fill:none;stroke:#1D1D1B;stroke-width:2;stroke-linecap:round;stroke-linejoin:round;stroke-miterlimit:10;"
   d="    M15.152,397.622c-2.69-4.803-4.143-10.292-4.181-15.797c3.746,3.547,7.492,7.093,11.238,10.64    c2.482-5.496,6.469-10.303,11.411-13.759c-0.975,4.976-1.95,9.952-2.925,14.928c5.201-2.768,10.58-5.2,16.093-7.279    c-2.09,3.32-3.851,6.848-5.249,10.514"
   id="path82" />&#10;	</g>&#10;	<g
   id="g85">&#10;		&#10;			<ellipse
   transform="matrix(0.9873 -0.1586 0.1586 0.9873 -9.924 13.286)"
   style="fill:none;stroke:#1D1D1B;stroke-width:2;stroke-linecap:round;stroke-linejoin:round;stroke-miterlimit:10;"
   cx="78.261"
   cy="68.806"
   id="ellipse82"
   ry="31.355"
   rx="31.355" />&#10;		<path
   style="fill:none;stroke:#1D1D1B;stroke-width:2;stroke-linecap:round;stroke-linejoin:round;stroke-miterlimit:10;"
   d="    M33.619,161.801h97.752c3.649,0,6.258-3.515,5.223-7.015c-1.022-3.455-2.972-6.68-5.605-8.853    c-4.399-3.63-11.28-4.276-15.847-0.862c0.318-9.627-4.7-19.307-12.863-24.42c-8.163-5.113-19.184-5.368-27.472-0.46    c-8.288,4.908-13.381,14.827-12.34,24.402c-2.419-5.587-8.685-9.021-14.768-8.79c-6.084,0.232-11.777,3.773-15.351,8.701    c-2.383,3.286-3.575,7.172-4.136,11.201C27.762,158.941,30.354,161.801,33.619,161.801z"
   id="path83" />&#10;		<path
   style="fill:none;stroke:#1D1D1B;stroke-width:2;stroke-linecap:round;stroke-linejoin:round;stroke-miterlimit:10;"
   d="    M153.365,80.159h82.678c3.307,0,5.878-2.93,5.387-6.2c-0.421-2.809-1.178-5.62-1.844-8.272c-1.306-5.2-3.143-10.439-6.703-14.447    c-3.561-4.009-9.181-6.557-14.37-5.206c-4.749,1.236-8.16,5.328-10.874,9.417c-1.394-8.153-4.495-16.299-10.438-22.05    c-5.943-5.752-15.124-8.609-22.801-5.532c-6.704,2.687-11.176,9.336-13.08,16.303c-1.904,6.967-1.623,14.319-1.328,21.535    c-0.547-2.451-3.866-3.482-6.094-2.323c-2.227,1.16-3.351,3.782-3.518,6.288c-0.179-1.147-1.933-0.92-2.886-0.257    c-0.934,0.651-1.773,1.431-2.499,2.306c-3.054,3.68-0.08,9.24,4.685,8.838C150.735,80.469,151.906,80.335,153.365,80.159z"
   id="path84" />&#10;		<path
   style="fill:none;stroke:#1D1D1B;stroke-width:2;stroke-linecap:round;stroke-linejoin:round;stroke-miterlimit:10;"
   d="    M286.351,118.973c-10.536,0.259-24.743,1.77-35.141,0.051c2.568-3.655,9.63-8.957,13.548-11.103    c3.636-1.992,8.861-2.877,11.385,0.412c1.305-6.577,3.843-13.071,8.378-18.011c4.535-4.939,11.281-8.125,17.935-7.3    s12.79,6.232,13.401,12.909c3.846-1.896,9.364-0.059,11.059,3.88"
   id="path85" />&#10;	</g>&#10;</g>&#10;<rect
   style="fill:none;fill-rule:evenodd;stroke:#000000;stroke-width:1.50035"
   id="rect86"
   width="498.53479"
   height="498.61255"
   x="0.85529536"
   y="0.77755719" /></svg>
