<?xml version="1.0" encoding="UTF-8" standalone="no"?>
<!-- Generator: Adobe Illustrator 27.5.0, SVG Export Plug-In . SVG Version: 6.00 Build 0)  -->

<svg
   version="1.1"
   x="0px"
   y="0px"
   viewBox="0 0 505.52517 456.33599"
   xml:space="preserve"
   id="svg47"
   sodipodi:docname="mouse2.svg"
   width="505.52518"
   height="456.336"
   inkscape:version="1.3 (0e150ed6c4, 2023-07-21)"
   xmlns:inkscape="http://www.inkscape.org/namespaces/inkscape"
   xmlns:sodipodi="http://sodipodi.sourceforge.net/DTD/sodipodi-0.dtd"
   xmlns="http://www.w3.org/2000/svg"
   xmlns:svg="http://www.w3.org/2000/svg"><defs
   id="defs47" /><sodipodi:namedview
   id="namedview47"
   pagecolor="#ffffff"
   bordercolor="#000000"
   borderopacity="0.25"
   inkscape:showpageshadow="2"
   inkscape:pageopacity="0.0"
   inkscape:pagecheckerboard="0"
   inkscape:deskcolor="#d1d1d1"
   inkscape:zoom="0.8039804"
   inkscape:cx="-14.303831"
   inkscape:cy="265.55374"
   inkscape:window-width="2560"
   inkscape:window-height="1351"
   inkscape:window-x="1191"
   inkscape:window-y="187"
   inkscape:window-maximized="1"
   inkscape:current-layer="svg47" />&#10;&#10;<g
   id="OBJECTS"
   transform="translate(2.7620885,-21.831001)"
   style="stroke:none;stroke-opacity:1">&#10;	<g
   id="g9"
   style="stroke:none;stroke-opacity:1">&#10;		<path
   style="fill:none;stroke:none;stroke-opacity:1"
   d="m 244.454,379.18 c 6.543,0 13.12,0.136 19.57,0.4 v -12.345 c -1.785,0.285 -3.573,0.527 -5.363,0.728 -4.284,0.482 -8.578,0.729 -12.872,0.729 -4.019,0 -8.037,-0.219 -12.046,-0.641 -3.169,-0.333 -6.334,-0.789 -9.487,-1.385 -0.483,-0.091 -0.945,-0.198 -1.421,-0.294 v 13.297 c 7.101,-0.323 14.381,-0.489 21.619,-0.489 z"
   id="path1" />&#10;		<path
   d="m 384.68,98.925 c -10.061,-10.153 -23.055,-15.868 -36.584,-16.09 -0.275,-0.004 -0.548,-0.007 -0.821,-0.007 -20.402,0 -37.232,12.615 -48.705,36.53 -5.773,12.034 -8.873,24.215 -10.319,31.146 -1.33,-0.807 -2.662,-1.571 -3.991,-2.296 -0.008,-0.255 -0.072,-0.507 -0.206,-0.73 L 254.905,99.07 c 0.36,-0.408 0.69,-0.852 0.965,-1.349 1.306,-2.357 1.253,-5.204 -0.138,-7.429 -0.021,-0.034 -0.043,-0.068 -0.064,-0.102 0.125,0.003 0.25,0.005 0.376,0.005 0.426,0 0.845,-0.02 1.246,-0.059 4.9,-0.482 7.014,-4.477 6.906,-7.984 -0.111,-3.589 -2.52,-7.535 -7.546,-7.716 -0.11,-0.004 -0.221,-0.006 -0.333,-0.006 -1.867,0 -3.86,0.565 -5.95,1.683 0.07,-2.399 -0.398,-5.553 -2.831,-7.698 -1.407,-1.24 -3.139,-1.896 -5.01,-1.896 -4.352,0 -7.98,3.465 -8.088,7.725 -0.023,0.911 0.081,1.832 0.311,2.759 -1.097,-0.465 -2.303,-0.772 -3.575,-0.772 -0.443,0 -0.886,0.038 -1.318,0.113 -3.265,0.568 -5.577,3.237 -5.754,6.642 -0.149,2.873 1.373,6.246 5.109,7.303 0.34,0.096 0.693,0.179 1.058,0.247 -1.649,1.774 -2.721,4.237 -1.507,7.206 0.331,0.811 0.818,1.53 1.398,2.16 l -10.646,14.714 -0.004,0.001 -0.347,0.479 -6.109,8.446 -0.954,1.319 -13.695,18.926 c -0.031,0.042 -0.051,0.09 -0.077,0.135 -2.42,-4.663 -8.182,-14.736 -16.984,-23.819 -15.797,-16.301 -34.145,-22.029 -53.057,-16.568 -20.433,5.902 -35.924,23.73 -39.466,45.419 -2.695,16.5 -2.936,38.841 11.22,51.573 7.459,6.709 18.114,10.067 31.848,10.067 5.187,0 10.817,-0.484 16.876,-1.442 -1.104,4.655 -1.502,7.748 -1.571,8.322 -0.075,0.205 -0.141,0.409 -0.208,0.613 l -0.092,0.265 c -9.106,26.297 -3.235,47.152 17.424,62.087 1.621,1.172 3.322,2.312 5.125,3.411 0.018,0.011 0.036,0.021 0.054,0.032 l 0.438,0.267 0.006,-0.006 c 2.535,1.517 5.258,2.959 8.151,4.32 l -0.09,0.251 -0.48,1.336 v 0 l -5.936,16.538 c -6.579,0.6 -11.764,6.558 -11.764,13.807 0,3.63 1.31,6.928 3.434,9.403 l -2.347,6.539 c -0.985,2.746 -0.588,5.687 1.088,8.07 0.419,0.595 0.897,1.127 1.425,1.59 1.583,1.388 3.609,2.156 5.794,2.156 h 12.699 v 34.384 c 0,0.418 0.035,0.83 0.09,1.237 -14.888,2.644 -24.729,6.354 -24.729,10.933 0,9.719 44.324,15.526 87.175,15.526 42.852,0 87.175,-5.808 87.175,-15.526 0,-4.516 -9.575,-8.188 -24.123,-10.824 0.021,-0.267 0.033,-0.536 0.033,-0.807 v -34.778 c 0.691,0.059 1.418,0.106 2.183,0.132 0.45,0.015 0.919,0.023 1.404,0.023 4.802,0 11.247,-0.843 17.033,-4.404 6.85,-4.237 11.267,-11.211 13.134,-20.769 0.232,-1.469 1.289,-9.253 -0.73,-18.362 -0.411,-1.869 -0.945,-3.677 -1.569,-5.42 -0.025,-0.081 -0.042,-0.163 -0.071,-0.243 -0.103,-0.281 -0.217,-0.556 -0.326,-0.834 -0.078,-0.2 -0.153,-0.401 -0.234,-0.598 -0.271,-0.665 -0.551,-1.319 -0.845,-1.941 -0.041,-0.099 -4.063,-9.977 0.771,-16.203 2.44,-3.15 7.024,-4.02 10.439,-1.973 0.14,0.083 0.279,0.17 0.416,0.261 0.005,0.003 0.01,0.007 0.015,0.011 0.132,0.087 0.262,0.178 0.39,0.273 0.026,0.02 0.051,0.042 0.077,0.062 0.105,0.081 0.21,0.163 0.311,0.25 0.044,0.038 0.086,0.081 0.129,0.121 0.08,0.073 0.16,0.144 0.237,0.222 0.059,0.06 0.113,0.127 0.169,0.19 0.057,0.064 0.116,0.124 0.17,0.191 0.057,0.07 0.108,0.147 0.161,0.221 0.048,0.067 0.1,0.13 0.145,0.2 0.054,0.083 0.101,0.174 0.15,0.261 0.039,0.069 0.081,0.133 0.117,0.204 0.051,0.102 0.094,0.212 0.139,0.32 0.028,0.065 0.059,0.127 0.084,0.195 0.043,0.117 0.077,0.243 0.113,0.367 0.02,0.068 0.044,0.131 0.061,0.202 0.034,0.136 0.057,0.283 0.082,0.428 0.011,0.067 0.028,0.129 0.037,0.198 0.022,0.158 0.032,0.327 0.042,0.496 0.004,0.065 0.014,0.125 0.016,0.192 0.007,0.179 10e-4,0.37 -0.005,0.562 -0.002,0.066 10e-4,0.126 -0.003,0.193 -0.011,0.2 -0.035,0.413 -0.06,0.627 -0.008,0.067 -0.01,0.129 -0.02,0.198 -0.03,0.219 -0.074,0.452 -0.119,0.686 -0.014,0.073 -0.022,0.14 -0.038,0.215 -0.052,0.244 -0.118,0.503 -0.187,0.764 -0.019,0.073 -0.032,0.14 -0.053,0.214 -0.076,0.275 -0.169,0.566 -0.265,0.86 -0.027,0.083 -0.047,0.16 -0.076,0.244 -0.034,0.098 -0.042,0.198 -0.069,0.297 -0.048,0.184 -0.101,0.367 -0.128,0.552 -0.034,0.215 -0.04,0.428 -0.046,0.642 -0.002,0.081 -0.009,0.162 -0.007,0.243 0.005,0.212 0.029,0.42 0.061,0.628 0.014,0.093 0.028,0.185 0.047,0.277 0.038,0.181 0.085,0.358 0.143,0.533 0.043,0.133 0.094,0.262 0.148,0.391 0.055,0.129 0.108,0.257 0.173,0.381 0.099,0.191 0.214,0.371 0.337,0.547 0.042,0.06 0.079,0.124 0.124,0.183 0.37,0.485 0.824,0.909 1.368,1.229 0.286,0.168 0.585,0.301 0.89,0.409 0.025,0.009 0.046,0.024 0.072,0.033 0.011,0.004 0.023,0.004 0.034,0.008 0.276,0.091 0.557,0.152 0.841,0.195 0.063,0.009 0.125,0.021 0.188,0.028 0.268,0.03 0.537,0.036 0.807,0.022 0.069,-0.004 0.136,-0.009 0.205,-0.015 0.267,-0.025 0.534,-0.067 0.797,-0.136 0.051,-0.013 0.1,-0.031 0.15,-0.046 0.111,-0.033 0.222,-0.062 0.332,-0.102 0.138,-0.051 0.269,-0.112 0.401,-0.174 0.029,-0.014 0.059,-0.024 0.087,-0.038 0.256,-0.127 0.495,-0.279 0.723,-0.445 0.039,-0.029 0.079,-0.056 0.117,-0.086 0.222,-0.172 0.428,-0.362 0.618,-0.569 0.033,-0.036 0.064,-0.073 0.095,-0.109 0.189,-0.218 0.361,-0.45 0.51,-0.699 0.018,-0.03 0.033,-0.062 0.05,-0.092 0.154,-0.27 0.288,-0.553 0.391,-0.854 4.284,-12.538 -2.275,-18.694 -6.566,-21.246 -7.8,-4.669 -17.892,-2.763 -23.473,4.43 -8.632,11.121 -2.293,25.751 -2.02,26.366 l 0.056,0.126 c 0.301,0.631 0.579,1.293 0.842,1.968 0.039,0.101 0.08,0.2 0.119,0.302 0.267,0.708 0.516,1.435 0.738,2.181 2.548,8.495 1.374,16.696 1.328,17.007 -1.294,6.598 -4.157,11.31 -8.511,14.01 -4.102,2.548 -9.016,3.031 -12.866,2.896 5.731,-14.658 1.232,-31.754 -3.581,-43.556 -1.721,-4.219 -3.599,-8.067 -5.352,-11.351 1.518,-0.908 2.983,-1.852 4.406,-2.826 3.17,-2.169 6.128,-4.483 8.813,-6.972 13.006,-12.045 19.77,-30.014 18.093,-48.066 -0.151,-1.641 -0.339,-3.271 -0.55,-4.889 -0.288,-2.23 -0.625,-4.424 -1.021,-6.552 -0.008,-0.041 -0.017,-0.08 -0.025,-0.122 l -0.04,-0.216 -0.004,-0.003 c -0.234,-1.247 -0.481,-2.48 -0.748,-3.688 6.125,0.866 12.033,1.312 17.691,1.312 5.577,0 10.919,-0.421 16.005,-1.266 24.094,-3.998 42.704,-22.639 46.309,-46.384 4.508,-29.642 -13.968,-53.388 -25.382,-64.903 z m 23.907,64.68 c -3.508,23.102 -21.621,41.238 -45.073,45.13 -10.259,1.702 -21.59,1.65 -33.825,-0.132 -0.504,-2.136 -1.047,-4.225 -1.65,-6.239 3.491,0.295 7.023,0.471 10.542,0.471 19.963,0 39.43,-5.42 47.747,-23.894 3.945,-8.764 4.095,-18.973 0.409,-28.01 -3.687,-9.041 -10.936,-16.237 -19.889,-19.744 -7.63,-2.989 -15.223,-2.751 -22.566,0.708 -12.372,5.827 -21.933,19.934 -27.775,30.741 -1.658,3.067 -3.117,6.048 -4.371,8.781 -6.773,-8.539 -14.593,-15.068 -22.53,-20.066 1.375,-6.732 4.447,-19.111 10.316,-31.343 11.517,-24.007 27.747,-36.026 48.148,-35.672 13.137,0.216 25.76,5.772 35.545,15.646 24.821,25.041 27.28,48.42 24.972,63.623 z M 275.139,363.33 c 3.41,-6.892 5.228,-14.652 5.228,-22.575 0,-6.785 -1.316,-13.234 -3.664,-19.067 2.709,-1.847 5.339,-3.871 7.75,-6.092 l -1.016,-1.104 c -10.29,9.48 -24.631,15.48 -32.264,18.211 -4.981,1.784 -9.912,2.695 -14.657,2.706 -3.581,0.009 -6.781,-0.435 -9.576,-1.322 -5.905,-1.865 -9.454,-7.881 -8.081,-13.694 0.506,-2.124 1.567,-3.944 3.149,-5.406 1.257,-1.136 2.865,-1.966 4.779,-2.465 10.201,-2.646 24.578,-9.515 31.083,-13.324 l -0.452,-0.771 c 0.083,-0.015 0.176,-0.028 0.252,-0.044 2.047,-0.33 4.178,-0.723 6.517,-1.2 6.269,-1.289 12.31,-2.943 17.977,-4.909 l 0.002,10e-4 0.076,-0.027 c 0.093,-0.032 0.19,-0.061 0.282,-0.093 6.287,-2.223 12.061,-4.856 17.302,-7.868 6.976,13.157 16.058,35.691 8.724,53.898 -4.823,11.979 -16.05,20.414 -33.411,25.145 z m 69.506,-95.257 c 2.893,0 5.812,0.759 8.445,2.335 3.901,2.321 9.858,7.936 5.915,19.474 v 10e-4 c -0.338,0.994 -1.102,1.775 -2.094,2.144 -0.997,0.37 -2.103,0.267 -3.032,-0.282 -1.373,-0.808 -2.007,-2.606 -1.475,-4.183 2.371,-7.021 -0.524,-9.724 -2.907,-11.145 -4.051,-2.428 -9.495,-1.398 -12.395,2.342 -5.362,6.907 -1.015,17.591 -0.956,17.73 0.498,1.056 0.957,2.159 1.366,3.279 0.404,1.108 0.206,2.328 -0.53,3.262 -0.758,0.961 -1.949,1.446 -3.147,1.311 l -0.086,0.745 -0.021,-0.757 c -1.294,-0.158 -2.381,-1.03 -2.838,-2.275 -0.338,-0.921 -0.714,-1.814 -1.106,-2.636 l -0.047,-0.107 c -0.063,-0.143 -6.255,-14.421 1.833,-24.84 3.234,-4.167 8.115,-6.398 13.075,-6.398 z m -11.718,53.683 c 0.05,-0.342 1.153,-8.102 -1.031,-16.457 0.51,0.262 1.063,0.446 1.652,0.518 l 0.116,0.014 c 0.195,0.022 0.39,0.033 0.582,0.033 1.522,0 2.954,-0.688 3.914,-1.905 0.173,-0.219 0.317,-0.452 0.448,-0.691 0.175,0.651 0.343,1.307 0.489,1.973 1.961,8.846 0.938,16.383 0.716,17.793 -1.776,9.09 -5.964,15.73 -12.442,19.738 -6.05,3.725 -12.901,4.331 -17.599,4.157 -0.786,-0.027 -1.531,-0.076 -2.233,-0.137 v -3.204 c 0.707,-1.193 1.328,-2.434 1.893,-3.708 4.151,0.21 9.685,-0.23 14.296,-3.095 4.722,-2.928 7.815,-7.972 9.199,-15.029 z m -32.953,69.583 c -4.253,1.255 -8.554,1.724 -12.608,1.724 -6.002,0 -11.463,-1.028 -15.423,-2.056 -3.794,-0.985 -6.419,-4.444 -6.419,-8.363 v -15.659 c 0.602,-0.104 1.204,-0.206 1.806,-0.319 1.341,-0.256 2.66,-0.537 3.963,-0.83 0.154,-0.035 0.305,-0.072 0.457,-0.107 0.722,-0.166 1.449,-0.328 2.152,-0.504 l 0.321,-0.08 0.02,-0.036 c 14.856,-3.832 25.508,-10.262 31.797,-19.206 v 37.174 c -0.001,3.781 -2.438,7.191 -6.066,8.262 z m -55.52,17.393 c -51.248,0 -85.675,-7.253 -85.675,-14.026 0,-3.38 8.574,-6.879 23.53,-9.537 0.864,2.897 3.109,5.259 6.047,6.126 4.212,1.242 8.462,1.715 12.493,1.715 5.762,0 11.074,-0.967 15.178,-2.032 4.008,-1.041 6.807,-4.685 6.807,-8.862 v -0.98 c 6.802,-0.294 14.021,-0.457 21.62,-0.457 6.84,0 13.37,0.133 19.57,0.373 v 1.591 c 0,4.626 3.101,8.662 7.542,9.815 3.697,0.96 9.44,2.104 15.799,2.104 4.633,0 9.018,-0.601 13.033,-1.785 3.491,-1.03 6.101,-3.957 6.889,-7.48 14.522,2.642 22.842,6.082 22.842,9.409 0,6.773 -34.427,14.026 -85.675,14.026 z m -61.036,-26.196 v -34.384 h 3.84 c 2.805,3.393 6.31,6.379 10.486,8.966 l 0.016,0.05 0.236,0.145 c 0.326,0.199 0.677,0.383 1.011,0.577 0.265,0.154 0.532,0.307 0.803,0.458 0.653,0.364 1.324,0.719 2.008,1.066 0.328,0.166 0.655,0.333 0.99,0.495 0.646,0.313 1.31,0.615 1.982,0.913 0.393,0.174 0.783,0.35 1.185,0.518 0.649,0.272 1.316,0.533 1.988,0.792 0.442,0.17 0.879,0.344 1.33,0.508 0.687,0.25 1.395,0.486 2.104,0.722 0.452,0.151 0.897,0.306 1.359,0.451 0.803,0.252 1.632,0.488 2.462,0.723 0.386,0.109 0.762,0.225 1.154,0.331 1.109,0.298 2.246,0.579 3.401,0.847 0.131,0.03 0.255,0.065 0.386,0.095 0.387,0.088 0.786,0.168 1.177,0.253 v 16.055 c 0,3.494 -2.337,6.541 -5.684,7.411 -6.792,1.763 -16.965,3.253 -26.87,0.329 -3.159,-0.932 -5.364,-3.943 -5.364,-7.321 z m 129.92,-109.934 c -8.101,7.512 -18.516,13.568 -30.961,18.007 -12.276,-8.336 -19.595,-22.123 -19.595,-36.957 0,-24.622 20.025,-44.652 44.64,-44.652 7.764,0 15.378,2.008 22.044,5.811 0.647,3.551 1.147,7.237 1.49,10.964 1.635,17.59 -4.952,35.095 -17.618,46.827 z m -46.288,92.589 c -14.113,2.663 -28.416,2.664 -42.516,0 -10.216,-1.934 -18.8,-4.967 -25.52,-9.017 -0.843,-2.613 -1.459,-5.295 -1.86,-8.023 h 27.804 16.904 c 2.844,0 5.441,-1.314 7.125,-3.606 1.68,-2.287 2.156,-5.151 1.308,-7.858 l -0.596,-1.908 c 0.66,-0.207 1.32,-0.428 1.981,-0.665 5.682,-2.034 15.032,-5.864 23.752,-11.576 2.204,5.583 3.436,11.741 3.436,18.215 0,8.146 -1.953,16.124 -5.651,23.094 -1.99,0.492 -4.063,0.943 -6.167,1.344 z m -42.795,1.475 c 3.154,0.596 6.318,1.052 9.487,1.385 4.01,0.422 8.028,0.641 12.046,0.641 4.294,0 8.588,-0.247 12.872,-0.729 1.79,-0.201 3.577,-0.444 5.363,-0.728 v 12.345 c -6.449,-0.264 -13.026,-0.4 -19.57,-0.4 -7.238,0 -14.518,0.166 -21.62,0.489 v -13.297 c 0.478,0.096 0.939,0.202 1.422,0.294 z m -27.194,-11.767 c -3.007,-2.017 -5.612,-4.268 -7.814,-6.747 h 6.395 c 0.325,2.283 0.793,4.537 1.419,6.747 z m 51.802,-17.762 c 1.48,4.722 -2.056,9.515 -7.001,9.515 h -11.971 c 0.827,-0.559 1.566,-1.262 2.181,-2.1 1.659,-2.259 2.139,-5.082 1.332,-7.762 0.972,0.073 1.965,0.119 2.992,0.119 0.042,0 0.083,0 0.124,0 3.823,-0.009 7.759,-0.587 11.738,-1.707 z m -24.281,-68.121 c -2.89,0 -5.228,-2.338 -5.228,-5.227 0,-1.01 0.282,-1.938 0.775,-2.737 3.031,0.176 5.662,2.208 6.567,5.133 l 0.634,2.044 c -0.798,0.505 -1.737,0.787 -2.748,0.787 z m 0,1.5 c 1.134,0 2.229,-0.296 3.203,-0.833 l 9.541,30.523 c -3.664,1.093 -6.221,4.527 -6.221,8.362 0,0.361 0.029,0.714 0.072,1.064 -1.653,0.554 -3.26,1.047 -4.767,1.438 -0.325,0.085 -0.628,0.195 -0.938,0.298 l -4.771,-15.27 -0.009,-0.028 -2.228,-7.144 -3.166,-10.153 v -0.001 l -0.068,-0.23 -4.006,-12.804 c -0.622,-1.979 -1.881,-3.606 -3.507,-4.697 h 10.728 c -0.386,0.861 -0.591,1.796 -0.591,2.749 10e-4,3.708 3.019,6.726 6.728,6.726 z m 30.136,28.73 c -3.69,2.005 -8.744,4.479 -14.018,6.727 l -1.494,-4.783 -0.28,-0.894 c 5.044,-0.186 10.112,-0.638 15.177,-1.358 0.207,0.1 0.411,0.205 0.615,0.308 z m -22.113,9.322 c 0,-3.277 2.185,-6.05 5.169,-6.931 l 1.537,4.92 c -2.238,0.929 -4.49,1.806 -6.677,2.577 -0.014,-0.187 -0.029,-0.375 -0.029,-0.566 z m -13.344,-12.052 c -0.352,0.035 -0.705,0.059 -1.069,0.059 -5.157,0 -9.339,-4.182 -9.339,-9.339 0,-3.571 2.009,-6.672 4.946,-8.235 z M 185.864,271.26 c 3.947,1.175 6.825,4.828 6.825,9.163 0,5.274 -4.288,9.55 -9.562,9.55 -1.316,0 -2.573,-0.27 -3.712,-0.752 z m -13.016,62.992 c 7.01,-0.099 12.686,-6.273 12.686,-13.857 0,-0.34 -0.025,-0.673 -0.047,-1.007 4.973,1.082 8.7,5.504 8.7,10.801 0,6.108 -4.951,11.059 -11.059,11.059 -4.673,0 -8.66,-2.901 -10.28,-6.996 z m -0.169,-26.223 c 6.271,0 11.355,5.536 11.355,12.366 0,6.83 -5.084,12.366 -11.355,12.366 -6.271,0 -11.355,-5.536 -11.355,-12.366 0,-6.83 5.084,-12.366 11.355,-12.366 z m -10.356,28.814 2.095,-5.839 c 1.885,1.711 4.23,2.846 6.804,3.161 1.669,4.98 6.369,8.582 11.903,8.582 6.925,0 12.559,-5.634 12.559,-12.559 0,-6.181 -4.493,-11.322 -10.382,-12.357 -1.088,-6.246 -6.067,-11.015 -12.111,-11.275 l 5.716,-15.926 c 1.343,0.556 2.761,0.842 4.218,0.842 6.1,0 11.062,-4.957 11.062,-11.05 0,-4.83 -3.212,-9.164 -7.819,-10.573 l 1.42,-3.958 c 1.045,-2.913 3.806,-4.852 6.895,-4.852 h 8.105 c 3.207,0 6.038,2.079 7.001,5.145 l 3.553,11.358 -0.252,0.134 c -3.541,1.884 -5.741,5.547 -5.741,9.559 0,5.977 4.862,10.839 10.839,10.839 0.379,0 0.766,-0.021 1.218,-0.066 l 0.308,-0.031 4.354,13.936 c -1.153,0.523 -2.191,1.168 -3.074,1.965 -1.68,1.552 -2.835,3.453 -3.455,5.65 -0.55,1.322 -0.851,2.767 -0.851,4.275 0,4.309 2.479,8.04 6.079,9.866 1.114,0.781 2.356,1.417 3.717,1.847 1.634,0.519 3.414,0.879 5.299,1.108 l 0.16,0.513 c 1.48,4.722 -2.044,9.515 -6.99,9.515 h -55.739 c -5.07,0 -8.606,-5.028 -6.891,-9.809 z M 307.422,207.499 c -25.441,0 -46.14,20.704 -46.14,46.152 0,14.961 7.217,28.875 19.355,37.546 -5.305,1.791 -10.923,3.317 -16.751,4.515 -2.316,0.473 -4.428,0.861 -6.487,1.194 -0.228,0.048 -0.456,0.083 -0.688,0.12 l -0.298,0.048 c -5.99,0.958 -11.989,1.526 -17.953,1.729 l -9.697,-31.02 -0.634,-2.044 c -1.078,-3.487 -4.258,-5.974 -7.912,-6.186 l -0.893,-0.052 -0.023,0.038 h -16.509 -8.105 c -0.929,0 -1.834,0.147 -2.689,0.422 -0.427,0.137 -0.842,0.307 -1.241,0.506 -0.798,0.398 -1.533,0.915 -2.177,1.532 -0.966,0.925 -1.73,2.075 -2.2,3.386 l -3.099,8.633 -4.677,13.026 c -2.679,-1.264 -5.205,-2.599 -7.568,-3.999 7.086,-7.244 10.986,-16.759 10.986,-26.916 0,-19.406 -14.299,-35.641 -33.41,-38.156 0.008,-0.021 0.014,-0.043 0.022,-0.063 l 0.042,-0.181 c 0.016,-0.149 1.693,-15.138 10.192,-31.987 6.643,-13.169 18.742,-29.8 39.905,-39.847 0.054,0.037 0.105,0.077 0.163,0.107 0.505,0.259 1.015,0.502 1.523,0.752 l -0.415,0.026 5.94,2.485 c 0.038,0.016 0.077,0.029 0.115,0.045 1.372,0.57 2.753,1.112 4.146,1.618 0.031,0.011 0.063,0.022 0.094,0.033 1.42,0.515 2.851,0.995 4.292,1.443 0.01,0.003 0.02,0.006 0.029,0.009 9.564,2.97 19.574,4.476 29.922,4.476 22.378,0 38.14,-6.973 38.8,-7.27 0.056,-0.025 0.105,-0.06 0.158,-0.092 19.123,10.439 38.784,29.321 45.551,63.391 -6.623,-3.535 -14.072,-5.419 -21.669,-5.419 z m -159.304,11.913 c 18.515,2.286 32.403,17.966 32.403,36.718 0,9.88 -3.831,19.136 -10.8,26.129 -23.531,-14.573 -30.798,-35.713 -21.603,-62.847 z M 90.302,149.197 c 3.45,-21.121 18.523,-38.478 38.402,-44.22 4.632,-1.338 9.185,-2.005 13.653,-2.005 13.472,0 26.168,6.071 37.882,18.147 8.945,9.221 14.707,19.487 16.953,23.872 -14.084,6.896 -24.144,16.66 -31.249,26.334 -0.336,-0.389 -0.672,-0.779 -1.02,-1.17 -10.439,-11.707 -20.789,-17.643 -30.763,-17.643 -1.436,0 -2.878,0.128 -4.286,0.381 -10.205,1.831 -17.878,9.402 -20.025,19.759 -2.131,10.281 1.867,20.202 10.433,25.892 5.789,3.845 13.278,5.795 22.257,5.795 2.415,0 4.965,-0.159 7.614,-0.442 -0.376,1.296 -0.708,2.524 -0.999,3.676 -21.938,3.581 -38.082,0.859 -48.11,-8.16 C 87.392,187.134 87.667,165.328 90.302,149.197 Z M 234.66,89.231 c -0.524,0.04 -1.021,0.058 -1.493,0.058 -1.394,0 -2.565,-0.164 -3.549,-0.443 -5.624,-1.592 -5.265,-10.022 0.493,-11.024 0.357,-0.062 0.711,-0.091 1.061,-0.091 4.133,0 7.656,4.022 8.098,4.548 -2.582,-3.119 -3.389,-5.809 -3.334,-7.996 0.094,-3.706 3.306,-6.263 6.588,-6.263 1.407,0 2.826,0.47 4.018,1.521 3.666,3.233 1.908,9.571 1.908,9.571 3.171,-2.34 5.768,-3.181 7.865,-3.181 0.094,0 0.187,0.002 0.279,0.005 7.781,0.281 8.296,11.946 0.547,12.709 -0.365,0.036 -0.733,0.052 -1.099,0.052 -2.181,0 -4.326,-0.578 -5.697,-1.042 2.028,0.919 3.312,2.151 4.113,3.434 2.364,3.781 -0.431,8.907 -4.861,8.907 -0.038,0 -0.077,0 -0.116,-10e-4 -5.687,-0.114 -7.3,-8.613 -7.3,-8.613 0.291,6.452 -2.492,8.647 -5.105,9.303 -0.466,0.117 -0.936,0.173 -1.403,0.173 -2.358,0 -4.606,-1.434 -5.525,-3.681 -2.075,-5.08 4.512,-7.946 4.512,-7.946 z m 48.108,59.021 c 0,0 -15.872,7.138 -38.185,7.138 -5.205,0 -10.762,-0.396 -16.548,-1.353 23.987,-4.598 39.579,-13.568 46.949,-18.712 z m -68.5,-23.83 6.109,-8.446 c 15.412,-3.019 27.288,-7.859 35.605,-12.205 l 3.512,5.838 c -9.491,5.298 -24.563,11.759 -45.226,14.813 z m 21.406,-22.065 c 0.597,0 1.192,-0.074 1.769,-0.218 1.704,-0.428 4.174,-1.616 5.442,-4.89 1.344,2.181 3.429,4.181 6.567,4.244 l 0.146,0.002 c 1.542,0 2.983,-0.501 4.179,-1.386 l 1.429,2.374 c -10.035,5.234 -21.308,9.15 -33.514,11.681 l 9.592,-13.256 c 1.258,0.909 2.787,1.449 4.39,1.449 z m -21.186,23.549 c 21.233,-3.139 36.592,-9.882 45.738,-14.987 l 0.047,-0.026 9.798,16.271 -0.042,0.027 c -9.76,6.306 -30.995,17.184 -63.558,19.192 l -2.909,0.179 c -1.311,-0.599 -2.625,-1.222 -3.941,-1.896 l 13.421,-18.547 z m -7.926,21.975 c 32.762,-2.02 54.189,-12.91 64.28,-19.43 l 3.36,5.592 c -7.354,5.145 -24.117,14.895 -50.289,19.218 -5.627,-1.175 -11.454,-2.913 -17.351,-5.38 z m -41.523,24.691 c -3.059,4.313 -5.54,8.582 -7.536,12.542 -3.123,6.198 -5.334,12.149 -6.888,17.226 -2.877,0.328 -5.578,0.499 -8.077,0.499 -9.562,0 -16.458,-2.244 -21.427,-5.544 -17.467,-11.601 -11.613,-39.222 9.026,-42.925 1.352,-0.243 2.692,-0.357 4.022,-0.357 12.123,0 23.157,9.543 30.88,18.559 z m 148.148,0.21 c 5.927,-13.044 16.867,-32.529 31.737,-39.532 6.954,-3.274 14.147,-3.499 21.378,-0.667 8.572,3.358 15.515,10.252 19.047,18.914 3.583,8.786 3.445,18.314 -0.388,26.828 -7.882,17.504 -27.621,25.177 -57.414,22.501 -3.523,-11.122 -8.516,-20.366 -14.36,-28.044 z"
   id="path2"
   style="stroke:none;stroke-opacity:1" />&#10;		<path
   d="m 254.05,168.349 c -9.902,0 -17.928,9.487 -17.928,21.19 0,11.703 8.027,21.19 17.928,21.19 9.901,0 17.928,-9.487 17.928,-21.19 10e-4,-11.702 -8.026,-21.19 -17.928,-21.19 z m -13.929,13.52 c 0,-3.13 2.538,-5.668 5.668,-5.668 3.13,0 5.668,2.538 5.668,5.668 0,3.13 -2.538,5.668 -5.668,5.668 -3.13,0 -5.668,-2.537 -5.668,-5.668 z m 18.123,23.575 c -4.748,0 -8.597,-3.849 -8.597,-8.597 0,-4.748 3.849,-8.597 8.597,-8.597 4.748,0 8.597,3.849 8.597,8.597 0,4.748 -3.849,8.597 -8.597,8.597 z"
   id="path3"
   style="stroke:none;stroke-opacity:1" />&#10;		<path
   d="m 215.829,207.117 c -6.749,-3.011 -16.04,-2.639 -20.982,-2.152 -2.081,0.204 -4.03,0.638 -5.855,1.24 -2.081,0.921 -4.685,2.143 -4.685,2.143 -4.243,2.586 -6.838,6.138 -7.679,10.584 -0.877,4.659 0.753,9.504 4.358,12.967 7.741,7.413 16.935,8.68 17.324,8.733 l 0.124,0.018 0.124,-0.035 c 14.862,-3.614 20.938,-11.798 23.418,-18.033 2.409,-6.05 -0.292,-12.843 -6.147,-15.465 z m -26.031,16.324 c -4.384,0 -7.892,-1.674 -8.662,-4.517 -1.072,-3.888 3.401,-8.512 9.973,-10.31 1.789,-0.487 3.543,-0.717 5.173,-0.717 4.393,0 7.892,1.665 8.671,4.508 1.063,3.897 -3.401,8.512 -9.982,10.31 -1.781,0.495 -3.534,0.726 -5.173,0.726 z"
   id="path4"
   style="stroke:none;stroke-opacity:1" />&#10;		<g
   id="g5"
   style="stroke:none;stroke-opacity:1">&#10;			<ellipse
   cx="179.90401"
   cy="188.537"
   rx="14.305"
   ry="16.908001"
   id="ellipse4"
   style="stroke:none;stroke-opacity:1" />&#10;			<path
   style="fill:#ffffff;stroke:none;stroke-opacity:1"
   d="m 177.835,182.417 c 0,2.498 -2.025,4.523 -4.523,4.523 -2.498,0 -4.523,-2.025 -4.523,-4.523 0,-2.498 2.025,-4.523 4.523,-4.523 2.498,0.001 4.523,2.025 4.523,4.523 z"
   id="path5" />&#10;			<circle
   style="fill:#ffffff;stroke:none;stroke-opacity:1"
   cx="183.25"
   cy="194.368"
   r="6.8600001"
   id="circle5" />&#10;		</g>&#10;		<path
   style="fill:none;stroke:none;stroke-width:0;stroke-linecap:round;stroke-linejoin:round;stroke-opacity:1"
   d="m 239.27,82.279 c 0.016,0.019 0.031,0.037 0.047,0.056"
   id="path6" />&#10;		<path
   d="m 250.346,87.653 c -0.458,-0.208 -0.955,-0.399 -1.492,-0.572 0,0 0.572,0.261 1.492,0.572 z"
   id="path7"
   style="stroke:none;stroke-opacity:1" />&#10;		<path
   d="m 201.969,332.266 c -3.044,0 -5.52,2.476 -5.52,5.52 0,3.044 2.476,5.52 5.52,5.52 3.043,0 5.52,-2.476 5.52,-5.52 0,-3.044 -2.476,-5.52 -5.52,-5.52 z m -4.019,5.519 c 0,-2.22 1.799,-4.02 4.02,-4.02 2.22,0 4.02,1.8 4.02,4.02 0,2.22 -1.8,4.02 -4.02,4.02 -2.221,0 -4.02,-1.8 -4.02,-4.02 z"
   id="path8"
   style="stroke:none;stroke-opacity:1" />&#10;		<path
   d="m 214.333,303.267 c 0,-3.71 -3.018,-6.728 -6.729,-6.728 -3.71,0 -6.729,3.018 -6.729,6.728 0,3.71 3.018,6.729 6.729,6.729 3.711,-10e-4 6.729,-3.019 6.729,-6.729 z m -6.728,5.228 c -2.888,0 -5.229,-2.341 -5.229,-5.229 0,-2.888 2.341,-5.228 5.229,-5.228 2.888,0 5.229,2.341 5.229,5.228 -0.001,2.888 -2.342,5.229 -5.229,5.229 z"
   id="path9"
   style="stroke:none;stroke-opacity:1" />&#10;	</g>&#10;	<g
   id="g17"
   style="stroke:none;stroke-opacity:1">&#10;		<g
   id="g11"
   style="stroke:none;stroke-opacity:1">&#10;			<path
   d="m 444.786,427.434 -8.089,0.06 c 0.548,-0.742 0.97,-1.478 1.258,-2.198 0.757,-1.89 0.187,-3.973 -1.42,-5.184 -1.203,-0.908 -2.673,-1.114 -4.007,-0.623 0.483,-1.404 0.702,-2.726 0.654,-3.948 -0.125,-3.184 -2.537,-4.86 -4.871,-5.11 -2.296,-0.239 -5.116,0.908 -5.918,4.014 -0.319,1.241 -0.417,2.529 -0.413,3.66 -0.251,-0.244 -0.52,-0.46 -0.807,-0.646 -1.5,-0.973 -3.36,-0.924 -4.855,0.124 -1.561,1.097 -2.296,2.988 -1.87,4.82 0.832,3.58 4.145,6.572 4.285,6.698 0.144,0.128 0.322,0.19 0.5,0.19 0.206,0 0.411,-0.085 0.56,-0.25 0.13,-0.146 0.187,-0.329 0.185,-0.51 -0.003,-0.203 -0.082,-0.403 -0.244,-0.549 -0.031,-0.027 -3.099,-2.797 -3.824,-5.919 -0.286,-1.232 0.213,-2.509 1.271,-3.253 1,-0.701 2.185,-0.734 3.176,-0.093 0.861,0.558 1.517,1.515 1.949,2.844 0.123,0.379 0.523,0.594 0.902,0.494 0.384,-0.101 0.623,-0.482 0.546,-0.872 -0.007,-0.034 -0.666,-3.43 0.092,-6.364 0.582,-2.258 2.589,-3.079 4.305,-2.897 1.569,0.167 3.436,1.231 3.533,3.677 0.068,1.744 -0.521,3.768 -1.748,6.014 -0.191,0.351 -0.074,0.788 0.267,0.997 0.343,0.211 0.786,0.114 1.012,-0.216 0.003,-0.005 0.377,-0.545 1.019,-1.042 1.26,-0.974 2.58,-0.66 3.398,-0.043 0.816,0.616 1.55,1.884 0.931,3.43 -0.385,0.96 -1.065,1.973 -2.024,3.008 -0.149,0.161 -0.215,0.374 -0.194,0.585 0.008,0.077 0.025,0.154 0.058,0.228 0.12,0.273 0.39,0.447 0.686,0.447 0.002,0 0.004,0 0.006,0 l 9.704,-0.071 c 0.414,-0.003 0.747,-0.342 0.744,-0.756 -0.004,-0.416 -0.328,-0.77 -0.757,-0.746 z"
   id="path10"
   style="stroke:none;stroke-opacity:1" />&#10;			<path
   d="m 449.488,427.245 h -2.049 c -0.414,0 -0.75,0.336 -0.75,0.75 0,0.414 0.336,0.75 0.75,0.75 h 2.049 c 0.414,0 0.75,-0.336 0.75,-0.75 0,-0.414 -0.336,-0.75 -0.75,-0.75 z"
   id="path11"
   style="stroke:none;stroke-opacity:1" />&#10;		</g>&#10;		<g
   id="g13"
   style="stroke:none;stroke-opacity:1">&#10;			<path
   d="m 219.233,449.219 -8.415,0.061 c 0.58,-0.779 1.025,-1.552 1.328,-2.309 0.778,-1.942 0.192,-4.084 -1.459,-5.33 -1.252,-0.943 -2.786,-1.15 -4.169,-0.621 0.511,-1.469 0.743,-2.848 0.692,-4.124 -0.129,-3.277 -2.611,-5.003 -5.015,-5.26 -2.359,-0.252 -5.265,0.934 -6.089,4.13 -0.337,1.304 -0.435,2.658 -0.427,3.84 -0.27,-0.27 -0.561,-0.506 -0.874,-0.708 -1.54,-0.999 -3.452,-0.949 -4.989,0.128 -1.607,1.128 -2.362,3.074 -1.924,4.958 0.858,3.693 4.277,6.782 4.423,6.912 0.143,0.128 0.321,0.19 0.499,0.19 0.207,0 0.412,-0.085 0.56,-0.25 0.13,-0.146 0.188,-0.329 0.186,-0.51 -0.003,-0.203 -0.082,-0.403 -0.245,-0.549 -0.032,-0.028 -3.209,-2.896 -3.961,-6.133 -0.299,-1.285 0.221,-2.615 1.325,-3.39 1.041,-0.73 2.279,-0.768 3.311,-0.099 0.895,0.581 1.577,1.575 2.025,2.955 0.123,0.378 0.518,0.597 0.903,0.494 0.384,-0.101 0.624,-0.483 0.546,-0.872 -0.007,-0.035 -0.689,-3.552 0.095,-6.592 0.606,-2.349 2.687,-3.201 4.478,-3.014 1.762,0.189 3.581,1.445 3.675,3.827 0.072,1.808 -0.537,3.903 -1.809,6.228 -0.191,0.351 -0.074,0.789 0.266,0.998 0.34,0.209 0.786,0.114 1.012,-0.215 0.004,-0.006 0.393,-0.566 1.06,-1.083 1.311,-1.016 2.69,-0.689 3.544,-0.045 0.851,0.643 1.615,1.964 0.97,3.575 -0.399,0.997 -1.105,2.046 -2.099,3.118 -0.149,0.161 -0.215,0.376 -0.194,0.587 0.008,0.077 0.026,0.153 0.058,0.226 0.12,0.272 0.389,0.447 0.686,0.447 0.002,0 0.003,0 0.005,0 l 10.034,-0.073 c 0.414,-0.003 0.747,-0.341 0.745,-0.756 -0.005,-0.411 -0.344,-0.779 -0.757,-0.741 z"
   id="path12"
   style="stroke:none;stroke-opacity:1" />&#10;			<path
   d="m 225.494,449.023 h -2.118 c -0.414,0 -0.75,0.336 -0.75,0.75 0,0.414 0.336,0.75 0.75,0.75 h 2.118 c 0.414,0 0.75,-0.336 0.75,-0.75 0,-0.414 -0.336,-0.75 -0.75,-0.75 z"
   id="path13"
   style="stroke:none;stroke-opacity:1" />&#10;		</g>&#10;		<g
   id="g15"
   style="stroke:none;stroke-opacity:1">&#10;			<path
   d="m 77.46,397.272 -7.677,0.057 c 0.508,-0.694 0.899,-1.384 1.17,-2.059 0.729,-1.822 0.18,-3.831 -1.369,-4.999 -1.14,-0.859 -2.531,-1.067 -3.801,-0.624 0.448,-1.323 0.651,-2.569 0.606,-3.725 -0.121,-3.066 -2.443,-4.682 -4.691,-4.922 -2.207,-0.229 -4.925,0.873 -5.696,3.864 -0.3,1.163 -0.396,2.369 -0.397,3.436 -0.225,-0.214 -0.466,-0.404 -0.722,-0.569 -1.445,-0.938 -3.239,-0.892 -4.68,0.12 -1.506,1.057 -2.213,2.88 -1.803,4.646 0.798,3.435 3.975,6.306 4.11,6.427 0.143,0.128 0.321,0.19 0.499,0.19 0.206,0 0.411,-0.084 0.559,-0.25 0.13,-0.146 0.188,-0.329 0.186,-0.511 -0.003,-0.202 -0.082,-0.402 -0.244,-0.548 -0.029,-0.026 -2.959,-2.681 -3.649,-5.648 -0.271,-1.166 0.201,-2.375 1.204,-3.078 0.943,-0.663 2.067,-0.695 3.002,-0.09 0.817,0.53 1.44,1.44 1.852,2.705 0.123,0.377 0.52,0.594 0.903,0.493 0.384,-0.101 0.624,-0.483 0.545,-0.873 -0.006,-0.032 -0.638,-3.264 0.087,-6.074 0.552,-2.141 2.441,-2.921 4.084,-2.747 1.489,0.159 3.26,1.168 3.351,3.488 0.065,1.662 -0.496,3.592 -1.668,5.736 -0.191,0.35 -0.074,0.788 0.266,0.997 0.339,0.21 0.786,0.114 1.012,-0.215 0.003,-0.005 0.359,-0.518 0.969,-0.99 1.188,-0.921 2.438,-0.624 3.212,-0.041 0.772,0.583 1.466,1.781 0.88,3.244 -0.366,0.915 -1.016,1.88 -1.932,2.868 -0.148,0.16 -0.214,0.372 -0.194,0.582 0.007,0.078 0.025,0.156 0.058,0.231 0.12,0.272 0.389,0.447 0.686,0.447 0.002,0 0.004,0 0.005,0 l 9.286,-0.068 c 0.414,-0.003 0.748,-0.342 0.745,-0.756 -0.001,-0.414 -0.32,-0.74 -0.754,-0.744 z"
   id="path14"
   style="stroke:none;stroke-opacity:1" />&#10;			<path
   d="m 81.96,397.093 h -1.961 c -0.414,0 -0.75,0.336 -0.75,0.75 0,0.414 0.336,0.75 0.75,0.75 h 1.961 c 0.414,0 0.75,-0.336 0.75,-0.75 0,-0.414 -0.337,-0.75 -0.75,-0.75 z"
   id="path15"
   style="stroke:none;stroke-opacity:1" />&#10;		</g>&#10;		<path
   d="m 359.605,415.76 c -0.566,-2.156 -2.244,-3.756 -4.379,-4.174 -2.098,-0.414 -4.212,0.417 -5.522,2.161 -1.561,2.078 -2.536,5.082 -2.914,8.954 -1.121,-1.715 -3.083,-3.649 -6.321,-3.994 -1.91,-0.204 -3.726,0.62 -4.858,2.198 -1.168,1.625 -1.375,3.761 -0.542,5.574 1.276,2.776 3.531,5.166 6.707,7.144 -1.162,0.637 -1.907,1.474 -1.907,2.504 0,2.57 4.588,3.957 8.905,3.957 4.317,0 8.905,-1.387 8.905,-3.957 0,-1.388 -1.343,-2.427 -3.253,-3.092 0.017,-0.024 0.036,-0.045 0.052,-0.07 3.146,-4.78 6.588,-11.645 5.127,-17.205 z m -13.396,18.489 c -4.905,-2.128 -8.195,-4.953 -9.777,-8.396 -0.618,-1.344 -0.47,-2.866 0.397,-4.072 0.734,-1.022 1.862,-1.603 3.076,-1.603 0.134,0 0.27,0.007 0.406,0.021 4.861,0.517 6.28,5.465 6.338,5.676 l 1.369,4.965 0.105,-5.148 c 0.101,-5.004 1.037,-8.72 2.781,-11.044 0.978,-1.3 2.485,-1.895 4.035,-1.59 1.588,0.312 2.791,1.464 3.216,3.083 1.391,5.291 -2.491,12.296 -4.93,16.001 -1.527,2.32 -4.477,3.21 -7.016,2.107 z m 9.97,1.879 c 0,1.002 -2.885,2.457 -7.405,2.457 -4.52,0 -7.405,-1.455 -7.405,-2.457 0,-0.499 0.715,-1.109 1.99,-1.597 0.716,0.381 1.459,0.75 2.254,1.095 0.926,0.401 1.895,0.594 2.852,0.594 1.81,0 3.571,-0.693 4.915,-1.956 1.774,0.515 2.799,1.269 2.799,1.864 z"
   id="path16"
   style="stroke:none;stroke-opacity:1" />&#10;		<path
   d="m 133.077,398.664 c -0.587,-2.232 -2.324,-3.889 -4.534,-4.322 -2.169,-0.426 -4.36,0.432 -5.716,2.238 -1.632,2.172 -2.649,5.323 -3.035,9.39 -1.155,-1.797 -3.199,-3.854 -6.604,-4.216 -1.977,-0.201 -3.855,0.642 -5.029,2.275 -1.208,1.682 -1.423,3.893 -0.561,5.77 1.331,2.896 3.687,5.388 7.011,7.449 -1.225,0.66 -2.012,1.531 -2.012,2.605 0,2.654 4.759,4.087 9.237,4.087 4.478,0 9.237,-1.433 9.237,-4.087 0,-1.44 -1.406,-2.518 -3.403,-3.205 0.025,-0.036 0.054,-0.067 0.078,-0.104 3.27,-4.968 6.849,-12.104 5.331,-17.88 z m -13.924,19.261 c -5.113,-2.218 -8.541,-5.162 -10.191,-8.753 -0.647,-1.408 -0.492,-3.004 0.416,-4.268 0.77,-1.072 1.953,-1.682 3.226,-1.682 0.141,0 0.283,0.008 0.426,0.023 5.08,0.538 6.561,5.708 6.621,5.928 0.1,0.359 0.449,0.592 0.816,0.546 0.37,-0.046 0.649,-0.355 0.657,-0.728 0.106,-5.217 1.082,-9.09 2.901,-11.512 1.023,-1.361 2.607,-1.989 4.228,-1.666 1.641,0.321 2.932,1.559 3.371,3.23 1.451,5.519 -2.593,12.816 -5.133,16.676 -1.597,2.43 -4.684,3.362 -7.338,2.206 z m 10.417,1.928 c 0,1.055 -3.014,2.587 -7.737,2.587 -4.723,0 -7.737,-1.532 -7.737,-2.587 0,-0.529 0.759,-1.178 2.11,-1.694 0.747,0.397 1.52,0.782 2.349,1.142 0.96,0.416 1.965,0.616 2.958,0.616 1.879,0 3.707,-0.722 5.101,-2.036 1.874,0.543 2.956,1.342 2.956,1.972 z"
   id="path17"
   style="stroke:none;stroke-opacity:1" />&#10;	</g>&#10;	<g
   id="g25"
   style="stroke:none;stroke-opacity:1">&#10;		<path
   d="m 445.56,388.274 h -3.8 c -0.414,0 -0.75,0.336 -0.75,0.75 0,0.414 0.336,0.75 0.75,0.75 h 3.8 c 0.414,0 0.75,-0.336 0.75,-0.75 0,-0.414 -0.336,-0.75 -0.75,-0.75 z"
   id="path18"
   style="stroke:none;stroke-opacity:1" />&#10;		<path
   d="m 422.01,396.444 1.212,-6.67 h 13.33 c 0.414,0 0.75,-0.336 0.75,-0.75 0,-0.414 -0.336,-0.75 -0.75,-0.75 h -13.057 l 5.111,-28.129 c 5.981,-2.416 10.217,-8.274 10.217,-15.111 0,-7.883 -5.625,-14.473 -13.072,-15.975 1.498,-3.727 3.134,-10.156 0.523,-16.89 -3.236,-8.35 -11.997,-14.566 -26.038,-18.479 l -0.85,-0.236 -0.097,0.877 c -0.01,0.082 -1.09,8.221 -16.855,9.343 -4.366,0.311 -8.411,1.646 -11.697,3.86 -5.183,3.494 -10.906,9.997 -10.217,21.44 -7.716,1.283 -13.623,7.986 -13.623,16.06 0,6.837 4.236,12.694 10.218,15.111 l 5.111,28.13 h -14.971 c -0.414,0 -0.75,0.336 -0.75,0.75 0,0.414 0.336,0.75 0.75,0.75 h 15.244 l 1.212,6.67 0.447,0.129 c 0.115,0.033 11.723,3.331 28.703,3.331 16.979,0 28.587,-3.298 28.702,-3.331 z m -50.435,-87.666 c 3.069,-2.068 6.861,-3.316 10.967,-3.608 14.138,-1.007 17.345,-7.455 18.049,-9.819 13.109,3.783 21.275,9.617 24.279,17.347 2.491,6.407 0.756,12.674 -0.667,16.125 -0.552,-0.057 -1.112,-0.087 -1.679,-0.087 h -59.328 c -0.403,0 -0.798,0.031 -1.194,0.06 -0.605,-10.699 4.739,-16.759 9.573,-20.018 z m -8.379,21.457 h 59.328 c 8.16,0 14.799,6.639 14.799,14.799 0,8.16 -6.639,14.8 -14.799,14.8 h -59.328 c -8.16,0 -14.8,-6.64 -14.8,-14.8 0,-8.16 6.64,-14.799 14.8,-14.799 z m 30.414,68.161 v -37.062 h 16.608 l -3.061,36.278 c -3.892,0.434 -8.464,0.755 -13.547,0.784 z m -30.414,-37.062 h 10.8 l 3.046,36.098 c -6.374,-0.791 -10.684,-1.83 -12.023,-2.18 l -6.279,-34.553 c 1.418,0.404 2.91,0.635 4.456,0.635 z m 15.366,36.278 -3.061,-36.278 h 16.609 v 37.062 c -5.082,-0.029 -9.655,-0.35 -13.548,-0.784 z m 30.116,-0.18 3.046,-36.098 h 10.801 c 1.547,0 3.038,-0.231 4.456,-0.635 l -6.279,34.553 c -1.34,0.349 -5.651,1.389 -12.024,2.18 z m -30.811,0.863 z m 29.986,0 z"
   id="path19"
   style="stroke:none;stroke-opacity:1" />&#10;		&#10;			<line
   style="fill:none;stroke:none;stroke-width:0;stroke-linecap:round;stroke-linejoin:round;stroke-opacity:1"
   x1="377.867"
   y1="398.29501"
   x2="377.867"
   y2="398.29501"
   id="line19" />&#10;		&#10;			<line
   style="fill:none;stroke:none;stroke-width:0;stroke-linecap:round;stroke-linejoin:round;stroke-opacity:1"
   x1="407.853"
   y1="398.29501"
   x2="407.853"
   y2="398.29501"
   id="line20" />&#10;		<path
   d="m 394.483,336.175 -5.194,-1.504 c -0.713,-0.206 -1.466,-0.123 -2.118,0.235 -0.65,0.359 -1.123,0.95 -1.33,1.665 -0.426,1.475 0.427,3.021 1.899,3.446 l 5.194,1.504 c 0.257,0.074 0.518,0.111 0.778,0.111 0.464,0 0.922,-0.117 1.339,-0.348 0.651,-0.358 1.124,-0.95 1.33,-1.663 0.207,-0.714 0.123,-1.466 -0.235,-2.117 -0.359,-0.651 -0.95,-1.123 -1.663,-1.329 z m 0.457,3.03 c -0.095,0.329 -0.313,0.602 -0.612,0.767 -0.301,0.166 -0.647,0.203 -0.976,0.108 l -5.195,-1.504 c -0.679,-0.196 -1.071,-0.909 -0.875,-1.588 0.095,-0.33 0.313,-0.603 0.613,-0.768 0.192,-0.106 0.403,-0.16 0.617,-0.16 0.119,0 0.24,0.018 0.358,0.052 l 5.195,1.504 c 0.328,0.095 0.601,0.313 0.766,0.612 0.167,0.3 0.205,0.647 0.109,0.977 z"
   id="path20"
   style="stroke:none;stroke-opacity:1" />&#10;		<path
   d="m 421.859,351.646 c -0.192,0.719 -0.094,1.469 0.278,2.112 0.372,0.644 0.972,1.104 1.689,1.297 0.24,0.064 0.483,0.096 0.725,0.096 0.482,0 0.959,-0.126 1.388,-0.374 l 4.683,-2.703 c 0.643,-0.372 1.104,-0.972 1.297,-1.689 0.192,-0.719 0.094,-1.469 -0.278,-2.112 -0.372,-0.644 -0.972,-1.105 -1.689,-1.297 -0.722,-0.193 -1.47,-0.094 -2.112,0.278 l -4.683,2.703 c -0.644,0.371 -1.105,0.971 -1.298,1.689 z m 1.45,0.388 c 0.089,-0.331 0.301,-0.607 0.598,-0.779 l 4.683,-2.703 c 0.198,-0.114 0.417,-0.173 0.64,-0.173 0.111,0 0.224,0.015 0.334,0.045 0.331,0.089 0.607,0.301 0.779,0.598 0.171,0.297 0.217,0.643 0.128,0.974 -0.089,0.331 -0.301,0.607 -0.598,0.779 l -4.683,2.703 c -0.298,0.171 -0.643,0.218 -0.974,0.128 -0.331,-0.089 -0.607,-0.301 -0.779,-0.598 -0.171,-0.297 -0.217,-0.643 -0.128,-0.974 z"
   id="path21"
   style="stroke:none;stroke-opacity:1" />&#10;		<path
   d="m 415.649,325.809 h 5.407 c 1.534,0 2.783,-1.249 2.783,-2.783 0,-1.534 -1.249,-2.783 -2.783,-2.783 h -5.407 c -1.534,0 -2.783,1.249 -2.783,2.783 0,1.534 1.249,2.783 2.783,2.783 z m 0,-4.067 h 5.407 c 0.708,0 1.283,0.575 1.283,1.283 0,0.708 -0.575,1.283 -1.283,1.283 h -5.407 c -0.708,0 -1.283,-0.575 -1.283,-1.283 0,-0.708 0.575,-1.283 1.283,-1.283 z"
   id="path22"
   style="stroke:none;stroke-opacity:1" />&#10;		<path
   d="m 401.834,303.982 4.22,3.381 v 10e-4 c 0.513,0.409 1.127,0.608 1.737,0.608 0.816,0 1.627,-0.356 2.176,-1.042 0.958,-1.198 0.764,-2.953 -0.434,-3.911 l -4.22,-3.382 c -0.581,-0.464 -1.306,-0.677 -2.046,-0.594 -0.738,0.082 -1.401,0.446 -1.866,1.026 -0.959,1.2 -0.765,2.954 0.433,3.913 z m 0.739,-2.974 c 0.214,-0.268 0.519,-0.436 0.859,-0.473 0.338,-0.042 0.675,0.06 0.943,0.273 l 4.22,3.382 c 0.552,0.441 0.642,1.251 0.199,1.803 -0.442,0.553 -1.252,0.641 -1.804,0.2 l -4.22,-3.382 c -0.55,-0.441 -0.64,-1.251 -0.197,-1.803 z"
   id="path23"
   style="stroke:none;stroke-opacity:1" />&#10;		<path
   d="m 360.592,354.66 c 0.347,0 0.692,-0.065 1.023,-0.196 0.692,-0.272 1.235,-0.799 1.531,-1.482 0.295,-0.682 0.308,-1.438 0.034,-2.129 -0.272,-0.692 -0.799,-1.235 -1.482,-1.531 l -4.962,-2.15 c -1.402,-0.605 -3.047,0.04 -3.66,1.448 -0.609,1.407 0.04,3.049 1.448,3.66 l 4.961,2.149 c 0.356,0.154 0.732,0.231 1.107,0.231 z m -6.139,-5.443 c 0.283,-0.65 1.039,-0.952 1.689,-0.668 l 4.962,2.15 c 0.315,0.136 0.557,0.387 0.683,0.705 0.126,0.318 0.12,0.668 -0.017,0.982 -0.28,0.648 -1.038,0.95 -1.688,0.666 l -4.96,-2.148 c -0.649,-0.282 -0.949,-1.039 -0.669,-1.687 z"
   id="path24"
   style="stroke:none;stroke-opacity:1" />&#10;		<path
   d="m 370.239,318.625 c 0.317,0.118 0.646,0.177 0.975,0.177 0.393,0 0.786,-0.084 1.154,-0.252 l 4.919,-2.244 c 1.396,-0.638 2.013,-2.292 1.377,-3.688 -0.309,-0.676 -0.862,-1.191 -1.559,-1.452 -0.699,-0.261 -1.453,-0.233 -2.129,0.075 l -4.92,2.244 c -0.676,0.309 -1.191,0.862 -1.452,1.559 -0.26,0.696 -0.232,1.453 0.076,2.129 0.309,0.676 0.863,1.191 1.559,1.452 z m 7.06,-5.384 c 0.294,0.643 0.009,1.405 -0.635,1.699 l -4.919,2.244 c -0.645,0.295 -1.406,0.009 -1.699,-0.635 -0.143,-0.311 -0.155,-0.66 -0.035,-0.981 0.119,-0.321 0.357,-0.576 0.669,-0.718 l 4.92,-2.244 c 0.172,-0.079 0.353,-0.116 0.53,-0.116 0.487,0 0.954,0.28 1.169,0.751 z"
   id="path25"
   style="stroke:none;stroke-opacity:1" />&#10;	</g>&#10;	<g
   id="g36"
   style="stroke:none;stroke-opacity:1">&#10;		<g
   id="g26"
   style="stroke:none;stroke-opacity:1">&#10;			<path
   d="m 126.586,288.772 c -2.022,-17.034 -16.545,-30.29 -34.113,-30.29 -18.948,0 -34.363,15.415 -34.363,34.363 0,17.336 12.905,31.705 29.611,34.027 l -0.552,2.531 c -0.166,0.762 0.02,1.548 0.509,2.155 0.489,0.606 1.217,0.955 1.997,0.955 h 2.245 v 37.023 h -9.13 v 1.105 h 53.814 v -1.105 H 125.278 V 342.96 h 1.482 c 0.629,0 1.217,-0.281 1.612,-0.771 0.395,-0.49 0.544,-1.124 0.411,-1.738 l -0.354,-1.624 c 12.147,-1.797 21.498,-12.289 21.498,-24.928 0.001,-13.271 -10.31,-24.171 -23.341,-25.127 z m 0.732,51.998 c 0.051,0.232 -0.049,0.398 -0.113,0.478 -0.064,0.079 -0.207,0.212 -0.444,0.212 h -4.07 c -0.237,0 -0.38,-0.133 -0.444,-0.213 -0.063,-0.079 -0.163,-0.246 -0.112,-0.479 l 0.386,-1.77 c 0.728,0.064 1.462,0.102 2.206,0.102 0.744,0 1.478,-0.039 2.206,-0.102 z M 88.846,330.618 c -0.203,-0.252 -0.28,-0.578 -0.211,-0.895 l 0.582,-2.673 c 1.072,0.101 2.157,0.158 3.255,0.158 1.098,0 2.183,-0.057 3.255,-0.159 l 0.582,2.672 c 0.069,0.317 -0.008,0.644 -0.211,0.896 -0.203,0.252 -0.505,0.396 -0.829,0.396 h -5.596 c -0.322,0.002 -0.624,-0.143 -0.827,-0.395 z m 3.627,-70.636 c 18.121,0 32.863,14.742 32.863,32.863 0,18.121 -14.742,32.863 -32.863,32.863 -18.121,0 -32.863,-14.742 -32.863,-32.863 0,-18.121 14.742,-32.863 32.863,-32.863 z m 32.253,77.619 c -8.963,0 -16.779,-5.001 -20.806,-12.359 13.335,-4.727 22.916,-17.46 22.916,-32.395 0,-0.862 -0.043,-1.713 -0.105,-2.559 12.134,1.022 21.697,11.218 21.697,23.611 0,13.069 -10.633,23.702 -23.702,23.702 z m -0.553,31.937 H 93.025 v -37.023 h 2.245 c 0.78,0 1.508,-0.349 1.997,-0.955 0.489,-0.608 0.675,-1.394 0.509,-2.156 l -0.552,-2.53 c 1.799,-0.25 3.554,-0.635 5.253,-1.154 3.688,6.914 10.503,11.917 18.545,13.107 l -0.354,1.623 c -0.134,0.614 0.015,1.248 0.41,1.739 0.395,0.49 0.982,0.771 1.612,0.771 h 1.482 v 26.578 z"
   id="path26"
   style="stroke:none;stroke-opacity:1" />&#10;			<rect
   x="139.173"
   y="369.53799"
   width="2.658"
   height="1.105"
   id="rect26"
   style="stroke:none;stroke-opacity:1" />&#10;		</g>&#10;		<g
   id="g30"
   style="stroke:none;stroke-opacity:1">&#10;			<path
   d="m 423.616,277.59 c 0,-0.925 -0.75,-1.675 -1.675,-1.675 -0.925,0 -1.675,0.75 -1.675,1.675 0,0.925 0.75,1.675 1.675,1.675 0.925,0 1.675,-0.75 1.675,-1.675 z"
   id="path27"
   style="stroke:none;stroke-opacity:1" />&#10;			<path
   d="m 420.859,283.08 c 0,0.597 0.484,1.082 1.082,1.082 0.597,0 1.082,-0.484 1.082,-1.082 0,-0.598 -0.484,-1.082 -1.082,-1.082 -0.598,0.001 -1.082,0.485 -1.082,1.082 z"
   id="path28"
   style="stroke:none;stroke-opacity:1" />&#10;			<path
   d="m 452.579,228.584 c -3.335,-13.827 -15.802,-24.132 -30.638,-24.132 -17.381,0 -31.522,14.141 -31.522,31.521 0,15.878 11.803,29.045 27.095,31.204 l -0.49,2.25 c -0.156,0.717 0.018,1.455 0.478,2.026 0.46,0.57 1.143,0.897 1.877,0.897 h 5.123 c 0.733,0 1.418,-0.327 1.878,-0.898 0.46,-0.571 0.634,-1.309 0.478,-2.026 l -0.49,-2.249 c 2.636,-0.372 5.169,-1.07 7.555,-2.055 3.367,3.875 8.051,6.576 13.353,7.385 l -0.287,1.319 c -0.124,0.565 0.014,1.148 0.377,1.6 0.363,0.451 0.903,0.71 1.483,0.71 h 3.56 c 0.579,0 1.119,-0.259 1.482,-0.709 0.363,-0.45 0.501,-1.033 0.378,-1.601 l -0.288,-1.319 c 10.62,-1.621 18.782,-10.816 18.782,-21.88 0,-11.547 -8.89,-21.052 -20.184,-22.043 z m 0.224,45.562 c 0.036,0.165 -0.034,0.283 -0.08,0.34 -0.045,0.056 -0.146,0.15 -0.314,0.15 h -3.56 c -0.169,0 -0.271,-0.095 -0.315,-0.151 -0.045,-0.056 -0.115,-0.174 -0.08,-0.339 l 0.32,-1.468 c 0.612,0.051 1.229,0.084 1.855,0.084 0.625,0 1.242,-0.032 1.855,-0.084 z m -2.175,-2.885 c -11.378,0 -20.634,-9.257 -20.634,-20.634 0,-11.378 9.256,-20.634 20.634,-20.634 11.378,0 20.635,9.256 20.635,20.634 0,11.377 -9.257,20.634 -20.635,20.634 z m -25.235,-1.516 c 0.059,0.272 -0.007,0.551 -0.181,0.766 -0.174,0.216 -0.433,0.34 -0.71,0.34 h -5.123 c -0.276,0 -0.535,-0.124 -0.709,-0.339 -0.174,-0.216 -0.239,-0.495 -0.181,-0.766 l 0.522,-2.393 c 0.965,0.09 1.941,0.141 2.929,0.141 0.988,0 1.965,-0.052 2.93,-0.141 z m -3.453,-3.751 c -16.554,0 -30.022,-13.468 -30.022,-30.021 0,-16.554 13.468,-30.021 30.022,-30.021 13.976,0 25.751,9.6 29.08,22.551 -0.131,-0.002 -0.261,-0.01 -0.393,-0.01 -12.205,0 -22.134,9.929 -22.134,22.134 0,4.977 1.652,9.574 4.435,13.276 -3.405,1.344 -7.11,2.091 -10.988,2.091 z"
   id="path29"
   style="stroke:none;stroke-opacity:1" />&#10;			<path
   d="m 451.792,279.548 c 0,-0.643 -0.521,-1.164 -1.164,-1.164 -0.643,0 -1.164,0.521 -1.164,1.164 0,0.643 0.521,1.164 1.164,1.164 0.643,0.001 1.164,-0.521 1.164,-1.164 z"
   id="path30"
   style="stroke:none;stroke-opacity:1" />&#10;			<circle
   cx="450.62799"
   cy="283.36401"
   r="0.75199997"
   id="circle30"
   style="stroke:none;stroke-opacity:1" />&#10;		</g>&#10;		<g
   id="g33"
   style="stroke:none;stroke-opacity:1">&#10;			<path
   d="m 49.414,242.906 c -0.138,0.634 0.016,1.288 0.423,1.793 0.407,0.505 1.013,0.795 1.662,0.795 h 4.27 c 0.649,0 1.255,-0.29 1.662,-0.795 0.407,-0.505 0.562,-1.159 0.423,-1.793 l -0.38,-1.742 c 12.741,-1.866 22.556,-12.863 22.556,-26.114 0,-14.555 -11.841,-26.397 -26.396,-26.397 -14.555,0 -26.396,11.842 -26.396,26.397 0,13.251 9.815,24.248 22.556,26.114 z M 78.531,215.05 c 0,13.728 -11.169,24.896 -24.896,24.896 -13.727,0 -24.896,-11.168 -24.896,-24.896 0,-13.728 11.168,-24.897 24.896,-24.897 13.728,0 24.896,11.169 24.896,24.897 z m -22.142,28.176 c 0.056,0.258 -0.055,0.445 -0.126,0.533 -0.071,0.088 -0.229,0.236 -0.494,0.236 H 51.5 c -0.264,0 -0.423,-0.148 -0.494,-0.236 -0.071,-0.088 -0.182,-0.275 -0.126,-0.533 l 0.411,-1.889 c 0.773,0.068 1.553,0.11 2.343,0.11 0.79,0 1.57,-0.041 2.343,-0.11 z"
   id="path31"
   style="stroke:none;stroke-opacity:1" />&#10;			<path
   d="m 55.031,249.737 c 0,-0.771 -0.625,-1.396 -1.396,-1.396 -0.771,0 -1.396,0.625 -1.396,1.396 0,0.771 0.625,1.396 1.396,1.396 0.77,0 1.396,-0.625 1.396,-1.396 z"
   id="path32"
   style="stroke:none;stroke-opacity:1" />&#10;			<path
   d="m 52.733,254.313 c 0,0.498 0.404,0.902 0.902,0.902 0.498,0 0.902,-0.404 0.902,-0.902 0,-0.498 -0.404,-0.902 -0.902,-0.902 -0.499,0 -0.902,0.404 -0.902,0.902 z"
   id="path33"
   style="stroke:none;stroke-opacity:1" />&#10;		</g>&#10;		<g
   id="g35"
   style="stroke:none;stroke-opacity:1">&#10;			<path
   d="m 190.661,96.87 c 0.368,-0.457 0.507,-1.048 0.382,-1.622 l -0.298,-1.367 c 10.858,-1.648 19.206,-11.045 19.206,-22.356 0,-12.469 -10.144,-22.613 -22.613,-22.613 -12.469,0 -22.613,10.144 -22.613,22.613 0,11.311 8.348,20.708 19.205,22.356 l -0.298,1.367 c -0.125,0.574 0.015,1.165 0.383,1.623 0.368,0.456 0.916,0.719 1.503,0.719 h 3.64 c 0.587,0 1.134,-0.262 1.503,-0.72 z m -5.477,-0.94 c -0.048,-0.06 -0.124,-0.187 -0.085,-0.362 l 0.33,-1.516 c 0.63,0.053 1.266,0.087 1.909,0.087 0.644,0 1.279,-0.034 1.91,-0.087 l 0.33,1.516 c 0.039,0.175 -0.037,0.301 -0.085,0.361 -0.048,0.06 -0.156,0.16 -0.335,0.16 h -3.64 c -0.179,0.001 -0.286,-0.099 -0.334,-0.159 z m 2.154,-45.517 c 11.642,0 21.113,9.471 21.113,21.113 0,11.642 -9.471,21.113 -21.113,21.113 -11.642,0 -21.113,-9.471 -21.113,-21.113 0,-11.642 9.471,-21.113 21.113,-21.113 z"
   id="path34"
   style="stroke:none;stroke-opacity:1" />&#10;			<path
   d="m 188.873,100.845 c 0,-0.847 -0.687,-1.535 -1.535,-1.535 -0.847,0 -1.535,0.687 -1.535,1.535 0,0.848 0.687,1.535 1.535,1.535 0.848,0 1.535,-0.687 1.535,-1.535 z"
   id="path35"
   style="stroke:none;stroke-opacity:1" />&#10;			<circle
   cx="187.338"
   cy="105.874"
   r="0.991"
   id="circle35"
   style="stroke:none;stroke-opacity:1" />&#10;		</g>&#10;	</g>&#10;	<g
   id="g47"
   style="stroke:none;stroke-opacity:1">&#10;		<path
   d="m 432.192,168.533 c -0.043,0.82 0.244,1.599 0.808,2.193 0.556,0.585 1.338,0.921 2.145,0.921 h 0.125 c 2.69,0 4.88,2.189 4.88,4.879 0,1.644 1.229,2.996 2.799,3.078 0.054,0.003 0.107,0.004 0.16,0.004 0.761,0 1.477,-0.285 2.032,-0.812 0.586,-0.556 0.922,-1.337 0.922,-2.145 v -0.125 c 0,-2.69 2.19,-4.879 4.88,-4.879 h 0.125 c 0.807,0 1.589,-0.336 2.145,-0.921 0.564,-0.594 0.851,-1.373 0.808,-2.193 -0.082,-1.569 -1.434,-2.799 -3.077,-2.799 -2.69,0 -4.88,-2.189 -4.88,-4.88 0,-1.643 -1.229,-2.995 -2.799,-3.077 -0.815,-0.046 -1.599,0.244 -2.193,0.808 -0.585,0.556 -0.921,1.337 -0.921,2.145 v 0.124 c 0,2.691 -2.189,4.88 -4.88,4.88 -1.645,0 -2.997,1.229 -3.079,2.799 z m 9.457,-7.803 c 0,-0.403 0.161,-0.779 0.454,-1.057 0.274,-0.26 0.627,-0.4 1.003,-0.4 0.026,0 0.053,0.001 0.079,0.002 0.759,0.04 1.377,0.748 1.377,1.579 0,3.518 2.862,6.38 6.38,6.38 0.831,0 1.539,0.618 1.579,1.377 0.022,0.405 -0.12,0.79 -0.397,1.082 -0.278,0.293 -0.653,0.454 -1.057,0.454 h -0.125 c -3.518,0 -6.38,2.862 -6.38,6.379 v 0.125 c 0,0.403 -0.161,0.779 -0.454,1.057 -0.293,0.278 -0.675,0.425 -1.082,0.398 -0.759,-0.04 -1.377,-0.749 -1.377,-1.58 0,-3.518 -2.862,-6.379 -6.38,-6.379 h -0.125 c -0.403,0 -0.778,-0.161 -1.057,-0.454 -0.277,-0.292 -0.419,-0.677 -0.397,-1.082 0.04,-0.759 0.748,-1.377 1.579,-1.377 3.518,0 6.38,-2.862 6.38,-6.38 z"
   id="path36"
   style="stroke:none;stroke-opacity:1" />&#10;		<path
   d="m 56.468,348.94 h 0.125 c 2.69,0 4.879,2.189 4.879,4.88 0,1.644 1.229,2.995 2.799,3.077 0.054,0.003 0.107,0.004 0.16,0.004 0.761,0 1.478,-0.285 2.033,-0.811 0.585,-0.556 0.921,-1.338 0.921,-2.146 v -0.125 c 0,-2.69 2.189,-4.879 4.879,-4.879 h 0.125 c 0.807,0 1.589,-0.336 2.145,-0.921 0.564,-0.595 0.851,-1.373 0.808,-2.193 -0.082,-1.569 -1.434,-2.799 -3.077,-2.799 v 0 c -2.69,0 -4.879,-2.189 -4.879,-4.88 0,-1.644 -1.229,-2.995 -2.799,-3.077 -0.818,-0.041 -1.599,0.244 -2.193,0.808 -0.585,0.556 -0.921,1.338 -0.921,2.145 v 0.125 c 0,2.69 -2.189,4.88 -4.879,4.88 -1.644,0 -2.996,1.229 -3.078,2.799 -0.043,0.82 0.244,1.599 0.808,2.192 0.555,0.584 1.337,0.921 2.144,0.921 z m 0.125,-4.414 c 3.518,0 6.379,-2.862 6.379,-6.38 v -0.125 c 0,-0.403 0.161,-0.778 0.454,-1.057 0.273,-0.259 0.627,-0.399 1.002,-0.399 0.026,0 0.053,10e-4 0.08,0.002 0.759,0.04 1.377,0.748 1.377,1.579 0,3.518 2.862,6.38 6.38,6.38 0.831,0 1.54,0.618 1.579,1.377 0.021,0.405 -0.12,0.789 -0.398,1.082 -0.278,0.293 -0.653,0.454 -1.057,0.454 h -0.125 c -3.518,0 -6.379,2.861 -6.379,6.379 v 0.125 c 0,0.404 -0.161,0.779 -0.454,1.058 -0.292,0.276 -0.667,0.411 -1.082,0.397 -0.759,-0.04 -1.377,-0.749 -1.377,-1.58 0,-3.518 -2.862,-6.379 -6.379,-6.379 h -0.125 c -0.403,0 -0.779,-0.161 -1.057,-0.454 -0.278,-0.293 -0.419,-0.677 -0.398,-1.082 0.04,-0.758 0.749,-1.377 1.58,-1.377 z"
   id="path37"
   style="stroke:none;stroke-opacity:1" />&#10;		<path
   d="m 349.694,243.718 c 1.996,0 3.62,1.624 3.62,3.62 0,1.365 1.023,2.488 2.331,2.556 0.045,0.003 0.089,0.004 0.134,0.004 0.634,0 1.23,-0.237 1.693,-0.676 0.487,-0.463 0.768,-1.114 0.768,-1.883 0,-1.996 1.624,-3.62 3.716,-3.62 0.673,0 1.324,-0.28 1.787,-0.768 0.47,-0.495 0.709,-1.143 0.673,-1.826 -0.069,-1.307 -1.192,-2.331 -2.557,-2.331 -1.995,0 -3.619,-1.624 -3.619,-3.62 0,-1.365 -1.024,-2.488 -2.332,-2.557 -0.68,-0.036 -1.332,0.203 -1.826,0.672 -0.487,0.463 -0.768,1.114 -0.768,1.884 0,1.996 -1.624,3.62 -3.62,3.62 -1.364,0 -2.487,1.024 -2.557,2.331 -0.036,0.683 0.203,1.331 0.673,1.826 0.463,0.488 1.115,0.768 1.884,0.768 z m 0,-3.426 c 2.823,0 5.12,-2.297 5.12,-5.217 0,-0.267 0.106,-0.515 0.3,-0.699 0.181,-0.171 0.414,-0.264 0.663,-0.264 0.018,0 0.035,0.001 0.053,0.002 0.502,0.026 0.91,0.501 0.91,1.059 0,2.823 2.297,5.12 5.119,5.12 0.558,0 1.032,0.408 1.059,0.91 0.014,0.268 -0.079,0.522 -0.263,0.715 -0.184,0.193 -0.433,0.3 -0.796,0.3 -2.822,0 -5.119,2.297 -5.119,5.217 0,0.267 -0.106,0.515 -0.3,0.698 -0.194,0.184 -0.452,0.274 -0.717,0.263 -0.501,-0.026 -0.909,-0.501 -0.909,-1.058 0,-2.823 -2.297,-5.12 -5.217,-5.12 -0.267,0 -0.516,-0.107 -0.699,-0.3 -0.184,-0.193 -0.276,-0.447 -0.263,-0.715 0.027,-0.502 0.502,-0.911 1.059,-0.911 z"
   id="path38"
   style="stroke:none;stroke-opacity:1" />&#10;		<path
   d="m 39.659,166.021 c 1.996,0 3.62,1.624 3.62,3.62 0,1.365 1.024,2.488 2.332,2.556 0.044,0.002 0.089,0.003 0.133,0.003 0.634,0 1.231,-0.237 1.693,-0.676 0.488,-0.463 0.768,-1.114 0.768,-1.883 0,-1.996 1.624,-3.62 3.717,-3.62 0.672,0 1.324,-0.28 1.787,-0.768 0.47,-0.495 0.708,-1.144 0.673,-1.827 -0.068,-1.308 -1.191,-2.332 -2.556,-2.332 -1.996,0 -3.62,-1.624 -3.62,-3.62 0,-1.365 -1.024,-2.488 -2.332,-2.557 -0.684,-0.044 -1.332,0.203 -1.826,0.673 -0.488,0.463 -0.768,1.114 -0.768,1.884 0,1.996 -1.624,3.62 -3.62,3.62 -1.365,0 -2.488,1.024 -2.556,2.332 -0.036,0.683 0.203,1.331 0.673,1.827 0.462,0.488 1.113,0.768 1.882,0.768 z m 0,-3.426 c 2.823,0 5.12,-2.297 5.12,-5.217 0,-0.267 0.106,-0.515 0.3,-0.699 0.181,-0.171 0.414,-0.264 0.663,-0.264 0.017,0 0.035,0.001 0.052,0.002 0.502,0.026 0.91,0.501 0.91,1.059 0,2.823 2.297,5.12 5.12,5.12 0.557,0 1.032,0.408 1.058,0.91 0.014,0.268 -0.079,0.522 -0.263,0.716 -0.184,0.194 -0.432,0.3 -0.795,0.3 -2.823,0 -5.12,2.297 -5.12,5.216 0,0.267 -0.107,0.515 -0.3,0.699 -0.193,0.184 -0.45,0.281 -0.715,0.263 -0.501,-0.026 -0.91,-0.501 -0.91,-1.058 0,-2.823 -2.297,-5.12 -5.217,-5.12 -0.267,0 -0.515,-0.106 -0.699,-0.3 -0.184,-0.193 -0.277,-0.448 -0.263,-0.716 0.027,-0.503 0.502,-0.911 1.059,-0.911 z"
   id="path39"
   style="stroke:none;stroke-opacity:1" />&#10;		<path
   d="m 432.649,162.666 c 2.284,0 4.143,-1.858 4.143,-4.143 0,-2.285 -1.858,-4.143 -4.143,-4.143 -2.285,0 -4.143,1.858 -4.143,4.143 0,2.285 1.858,4.143 4.143,4.143 z m 2.643,-4.143 c 0,1.458 -1.186,2.643 -2.643,2.643 -1.458,0 -2.643,-1.186 -2.643,-2.643 0,-1.458 1.185,-2.643 2.643,-2.643 1.457,0 2.643,1.185 2.643,2.643 z"
   id="path40"
   style="stroke:none;stroke-opacity:1" />&#10;		<path
   d="m 460.281,325.914 c -2.028,0 -3.678,1.649 -3.678,3.678 0,2.029 1.649,3.678 3.678,3.678 2.028,0 3.678,-1.649 3.678,-3.678 0,-2.029 -1.649,-3.678 -3.678,-3.678 z m 0,5.856 c -1.201,0 -2.178,-0.977 -2.178,-2.178 0,-1.201 0.977,-2.178 2.178,-2.178 1.201,0 2.178,0.977 2.178,2.178 0,1.201 -0.977,2.178 -2.178,2.178 z"
   id="path41"
   style="stroke:none;stroke-opacity:1" />&#10;		<path
   d="m 295.404,76.972 c -2.028,0 -3.678,1.65 -3.678,3.678 0,2.028 1.649,3.678 3.678,3.678 2.029,0 3.678,-1.65 3.678,-3.678 0,-2.028 -1.649,-3.678 -3.678,-3.678 z m -2.177,3.677 c 0,-1.201 0.977,-2.178 2.178,-2.178 1.201,0 2.178,0.977 2.178,2.178 0,1.201 -0.977,2.178 -2.178,2.178 -1.201,0 -2.178,-0.977 -2.178,-2.178 z"
   id="path42"
   style="stroke:none;stroke-opacity:1" />&#10;		<path
   d="m 140.599,279.772 c 2.028,0 3.678,-1.649 3.678,-3.678 0,-2.028 -1.65,-3.678 -3.678,-3.678 -2.028,0 -3.678,1.649 -3.678,3.678 0,2.028 1.65,3.678 3.678,3.678 z m 0,-5.856 c 1.201,0 2.178,0.977 2.178,2.178 0,1.201 -0.977,2.178 -2.178,2.178 -1.201,0 -2.178,-0.977 -2.178,-2.178 0,-1.201 0.977,-2.178 2.178,-2.178 z"
   id="path43"
   style="stroke:none;stroke-opacity:1" />&#10;		<path
   d="m 50.197,336.14 c 0,2.028 1.65,3.679 3.678,3.679 2.028,0 3.678,-1.65 3.678,-3.679 0,-2.028 -1.65,-3.678 -3.678,-3.678 -2.028,0 -3.678,1.649 -3.678,3.678 z m 5.856,0 c 0,1.201 -0.977,2.179 -2.178,2.179 -1.201,0 -2.178,-0.978 -2.178,-2.179 0,-1.201 0.977,-2.178 2.178,-2.178 1.201,0 2.178,0.977 2.178,2.178 z"
   id="path44"
   style="stroke:none;stroke-opacity:1" />&#10;		<path
   d="m 55.521,157.691 c 2.028,0 3.678,-1.65 3.678,-3.678 0,-2.028 -1.65,-3.678 -3.678,-3.678 -2.028,0 -3.678,1.65 -3.678,3.678 0,2.029 1.65,3.678 3.678,3.678 z m 2.178,-3.678 c 0,1.201 -0.977,2.178 -2.178,2.178 -1.201,0 -2.178,-0.977 -2.178,-2.178 0,-1.201 0.977,-2.178 2.178,-2.178 1.201,0 2.178,0.978 2.178,2.178 z"
   id="path45"
   style="stroke:none;stroke-opacity:1" />&#10;		<path
   d="m 451.683,316.749 c -2.991,0 -5.425,2.434 -5.425,5.424 0,2.991 2.434,5.425 5.425,5.425 2.99,0 5.424,-2.434 5.424,-5.425 -0.001,-2.99 -2.434,-5.424 -5.424,-5.424 z m 0,9.349 c -2.164,0 -3.925,-1.761 -3.925,-3.925 0,-2.164 1.761,-3.924 3.925,-3.924 2.164,0 3.924,1.76 3.924,3.924 -0.001,2.164 -1.76,3.925 -3.924,3.925 z"
   id="path46"
   style="stroke:none;stroke-opacity:1" />&#10;		<path
   d="m 285.869,81.394 c -2.991,0 -5.425,2.433 -5.425,5.424 0,2.991 2.434,5.424 5.425,5.424 2.99,0 5.424,-2.433 5.424,-5.424 0,-2.991 -2.434,-5.424 -5.424,-5.424 z m 0,9.348 c -2.164,0 -3.925,-1.76 -3.925,-3.924 0,-2.164 1.761,-3.924 3.925,-3.924 2.164,0 3.924,1.76 3.924,3.924 0,2.163 -1.76,3.924 -3.924,3.924 z"
   id="path47"
   style="stroke:none;stroke-opacity:1" />&#10;	</g>&#10;</g>&#10;</svg>
