<svg viewBox="0 0 500 500" xmlns="http://www.w3.org/2000/svg"><path fill="#fff" d="M0 0h500v500H0z"/><path d="M253.227 171.035c-32.75 0-59.505 22.942-61.314 51.846-11.076 4.023-18.989 14.639-18.989 27.105 0 9.519 4.834 18.593 12.724 23.916 5.933 4.003 12.617 4.738 19.555 5.174 13.372.84 26.77 1.28 40.169 1.297 12.266.015 24.563-1.044 35.987-5.881 7.155-3.03 13.613-7.498 18.931-13.168 8.961-9.556 14.356-22.159 14.356-35.321.001-30.358-27.498-54.968-61.419-54.968z" fill="none" stroke="#1d1d1b" stroke-width="2" stroke-linecap="round" stroke-linejoin="round" stroke-miterlimit="10"/><path d="M310.64 206.442c9.294-5.214 15.574-15.162 15.574-26.576 0-16.818-13.634-30.452-30.452-30.452-14.199 0-26.128 9.718-29.499 22.866" fill="none" stroke="#1d1d1b" stroke-width="2" stroke-linecap="round" stroke-linejoin="round" stroke-miterlimit="10"/><path d="M304.471 195.697c5.578-3.075 9.356-9.012 9.356-15.831 0-9.977-8.088-18.064-18.065-18.064-8.564 0-15.736 5.96-17.596 13.958M194.932 206.442c-8.848-5.214-14.828-15.162-14.828-26.576 0-16.818 12.98-30.452 28.992-30.452 13.519 0 24.876 9.718 28.085 22.866" fill="none" stroke="#1d1d1b" stroke-width="2" stroke-linecap="round" stroke-linejoin="round" stroke-miterlimit="10"/><path d="M200.806 195.697c-5.311-3.075-8.908-9.012-8.908-15.831 0-9.977 7.7-18.064 17.199-18.064 8.154 0 14.982 5.96 16.752 13.958M223.998 180.815c-3.16.695-6.242 2.227-8.206 4.798-1.963 2.571-2.59 6.285-1.017 9.112 2.079 3.736 7.262 4.766 11.315 3.403 4.052-1.362 7.211-4.515 10.142-7.628 1.08-1.147 2.177-2.962 1.115-4.124-.453-.496-1.17-.655-1.842-.677-4.11-.135-7.461 4.321-6.811 8.382.65 4.061 4.542 7.131 8.632 7.562 4.09.431 8.184-1.414 11.202-4.207 2.287-2.116 4.091-4.85 4.685-7.909.168-.867.231-1.801-.148-2.599-.379-.797-1.323-1.38-2.158-1.093-1.164 3.602-.516 8.114 2.594 10.273 2.298 1.596 5.426 1.552 8.051.582 2.624-.97 4.859-2.745 7.045-4.492M204.953 246.645c2.736 1.348 6.091 1.367 8.842.05 2.752-1.316 4.842-3.94 5.509-6.916.13 3.654 3.382 6.696 6.939 7.543 3.557.847 7.356-.235 10.465-2.159" fill="none" stroke="#1d1d1b" stroke-width="2" stroke-linecap="round" stroke-linejoin="round" stroke-miterlimit="10"/><path d="M256.827 225.479a4.097 4.097 0 10-8.193 0 4.097 4.097 0 008.193 0zM211.408 225.479a4.097 4.097 0 10-8.193 0 4.097 4.097 0 008.193 0zM223.561 234.294c-.921-.361-1.988.022-2.738.585a4.367 4.367 0 00-1.599 2.422c-.06.244-.082.485-.112.733-.003.021 0 .031 0 .048-.006-.017-.007-.028-.018-.049-.023-.047-.051-.12-.065-.15a6.54 6.54 0 00-.918-1.475c-.669-.813-1.607-1.579-2.62-1.916-1.013-.337-1.338.584-1.315 1.436.077 2.803 2.351 4.753 4.653 5.975.006.017-.001.037.007.053.01.021.036.026.057.023.016-.003.029-.014.045-.017.057.029.113.064.169.093.057.029.108-.057.051-.086-.033-.016-.065-.036-.097-.053a.968.968 0 00.483-.35c.036-.053-.05-.103-.086-.051a.852.852 0 01-.34.275l.004-.017c.008-.021.011-.042.016-.063.002-.013.009-.024.01-.037l-.002-.011a.488.488 0 00-.153-.457c-.006-.005-.014 0-.021-.003a.297.297 0 00-.047-.059 22.642 22.642 0 003.527-2.226c.833-.646 1.8-1.39 2.065-2.468.21-.857-.084-1.813-.956-2.155z" fill="#1d1d1b"/><path d="M290.343 337.543v42.524c-39.274 10.039-80.984 10.039-120.258 0v-37.193M170.085 317.613v-36.642c39.274 10.039 80.984 10.039 120.258 0v18.321M209.608 260.066c1.065 1.877 3.437 2.692 5.588 2.519 2.151-.172 4.145-1.148 6.072-2.118" fill="none" stroke="#1d1d1b" stroke-width="2" stroke-linecap="round" stroke-linejoin="round" stroke-miterlimit="10"/><path d="M309.359 281.247c-1.288 2.819-3.37 5.191-5.494 7.449-2.979 3.166-6.131 6.22-9.791 8.566-7.039 4.51-15.48 6.126-23.355 8.932s-15.871 7.49-18.876 15.291c-.779 2.021-1.185 4.244-.75 6.366 1.028 5.017 6.283 7.971 11.242 9.252 6.824 1.763 14.015 1.624 21 .689 12.693-1.7 24.884-5.955 36.972-10.185M252.381 322.346c5.232-1.093 9.4-2.488 14.471-4.177M252.398 329.846a71.157 71.157 0 0015.298-2.395M169.395 303.227c-9.033 6.85-12.367 20.248-7.597 30.533 2.529 5.452 7.497 10.127 13.475 10.744 2.218.229 4.588-.149 6.349-1.516 2.921-2.268 3.386-6.48 3.139-10.17-.177-2.643-.622-5.346-1.987-7.617-2.531-4.211-7.584-6.049-12.25-7.589M165.603 310.923a11.121 11.121 0 005.16 6.915M172.158 325.922a29.321 29.321 0 0012.074 7.132M168.768 331.63c3.693 4.586 8.953 7.885 14.69 9.214M203.316 386.609a110.92 110.92 0 006.894 28.458c-9.259-.121-18.237 6.279-21.141 15.071l45.021 1.593c3.536.125 7.65-.008 9.789-2.827 1.443-1.902 1.511-4.478 1.519-6.866l.077-23.894M316.551 379.089c.253 13.261-1.266 25.986-2.486 39.193a36.522 36.522 0 0110.941 9.556c3.766 4.932 6.275 11.055 5.866 17.248-.041.617-.119 1.257-.452 1.777-.679 1.061-2.127 1.252-3.385 1.299-16.88.629-33.265-5.784-48.112-13.841-.302-14.367-.605-25.566-.907-39.934M239.381 394.791c13.033 6.924 34.683 4.202 46.23-4.711" fill="none" stroke="#1d1d1b" stroke-width="2" stroke-linecap="round" stroke-linejoin="round" stroke-miterlimit="10"/><path d="M290.304 344.784c5.095 9.915 12.947 18.456 22.602 24.027 9.656 5.571 21.105 8.098 32.167 6.723-.178-.62-.682-1.212-.659-1.857.216-5.939.344-12.024.89-17.942-8.233 1.736-16.992-.405-24.175-4.786-7.183-4.382-12.903-10.86-17.445-17.942M319.551 280.373c5.077 24.824 4.289 46.011 4.141 71.376M307.705 250.242c5.204 5.637 6.047 6.609 7.918 14.103" fill="none" stroke="#1d1d1b" stroke-width="2" stroke-linecap="round" stroke-linejoin="round" stroke-miterlimit="10"/><ellipse cx="358.472" cy="248.898" rx="14.968" ry="18.968" fill="none" stroke="#1d1d1b" stroke-width="2" stroke-linecap="round" stroke-linejoin="round" stroke-miterlimit="10"/><path d="M369.331 235.851c-4.648-1.888-8.657-2.553-13.045.336-3.582 2.358-6.564 5.956-7.245 10.287-.385 2.449-.02 4.999.961 7.275.778 1.804 1.973 3.474 3.624 4.54 1.651 1.065 3.792 1.46 5.631.767 2.263-.852 3.662-3.095 4.717-5.271.785-1.618 1.486-3.335 1.505-5.133.019-1.798-.776-3.703-2.358-4.557-2.204-1.19-5.074.105-6.532 2.142-.749 1.047-1.251 2.327-1.118 3.607M359.763 229.93s-39.135-10.839-45.116-9.29M354.103 267.042s-36.236-11.201-40.276-11.421M284.24 282.177c9.079-12.752 25.533-19.824 41.033-17.634 3.108.439 6.24 1.252 8.827 3.031.526.362 1.05.793 1.269 1.393.185.506.127 1.064.068 1.6l-1.537 13.757c-9.912-5.689-22.461-6.534-33.047-2.227-3.972 1.616-7.786 4.032-10.077 7.656M322.863 307.951l17.459-1.083-.497-9.545c-.278-5.347-.539-10.836 1.11-15.93.958-2.958 2.793-5.915 5.733-6.928 1.375-.473 2.886-.474 4.302-.144 3.941.92 6.944 4.29 8.49 8.03s1.87 7.853 2.176 11.888l.769 10.148c.029.389.067.8.297 1.115.388.531 1.146.583 1.803.586l15.29.076c.825-8.128 1.056-16.371-.222-24.441-1.278-8.069-4.122-15.99-9.011-22.536M375.05 307.09a498.922 498.922 0 00-1.585 57.323c.089 2.965.195 5.999-.704 8.826-1.321 4.154-4.72 7.408-8.596 9.402-3.876 1.994-8.223 2.868-12.534 3.514a137.104 137.104 0 01-34.718.752M322.402 373.208a20.998 20.998 0 01-9.081 5.911" fill="none" stroke="#1d1d1b" stroke-width="2" stroke-linecap="round" stroke-linejoin="round" stroke-miterlimit="10"/><path d="M347.04 274.002c3.04 10.303 4.321 21.044 5.065 31.76a330.205 330.205 0 01-4.382 81.042" fill="none" stroke="#1d1d1b" stroke-width="2" stroke-linecap="round" stroke-linejoin="round" stroke-miterlimit="10"/><path d="M350.874 273.886c3.844 5.664 4.518 12.832 4.986 19.661 2.09 30.474 2.407 61.14-.786 91.518M309.393 435.414a23.188 23.188 0 018.738 12.603M318.559 432.183c3.906 4.888 6.621 8.721 7.846 14.857M219.554 419.106c-6.694 1.961-11.704 5.182-15.82 10.813M206.962 419.29c-5.263 2.35-9.741 5.42-12.582 10.435M198.753 278.461a28.021 28.021 0 00-3.31 7.678M373.44 359.67c5.372.421.023-.06 5.372.421M200.8 286.354a364.321 364.321 0 006.524 99.964M250.777 289.464l-.576 33.44c-.358 20.765-.709 41.637 2.252 62.194M170.537 313.033c27.767 4.688 56.315 9.367 83.88 3.611" fill="none" stroke="#1d1d1b" stroke-width="2" stroke-linecap="round" stroke-linejoin="round" stroke-miterlimit="10"/><path d="M170.166 352.858a795.468 795.468 0 0090.329-.871c10.028-.668 20.206-1.561 29.58-5.186M149.46 433.38c3.146-1.89 7.049-10.956 14.603-13.68 2.919 1.788 4.598 7.151 5.008 9.331a12.892 12.892 0 017.252-3.595l-3.099 6.032" fill="none" stroke="#1d1d1b" stroke-width="2" stroke-linecap="round" stroke-linejoin="round" stroke-miterlimit="10"/><g fill="none" stroke="#1d1d1b" stroke-width="2" stroke-linecap="round" stroke-linejoin="round" stroke-miterlimit="10"><path d="M430.086 383.237c9.077.058 18.16-.688 27.069-2.223-6.378-3.895-14.595-5.362-22.189-3.962 9.832-5.532 17.342-14.2 20.811-24.02-10.403 1.214-20.336 5.378-27.971 11.726 11.42-12.445 15.357-28.808 18.947-44.501-7.872 5.843-15.779 11.716-22.534 18.561-6.754 6.845-12.363 14.76-14.918 23.549-4.539-4.495-9.825-8.883-15.825-11.752a45.947 45.947 0 003.848 13.703 443.934 443.934 0 00-18.247-7.643c-.34 4.533-.005 20.92 18.696 26.564M431.269 332.303c-7.992-71.993-12.048-111.814-46.203-208.288"/><path d="M371.272 131.7c9.285 31.444 14.736 63.654 20.17 95.791 2.892 17.102 5.787 34.23 6.992 51.489 1.939 27.772-3.531 54.192-10.313 81.366"/><path d="M372.806 137.51l-30.951 27.214a122.602 122.602 0 0119.845-36.188c-12.342-1.106-24.683-.874-36.992.215-22.173 1.962-44.244 6.709-66.043 11.436a226.686 226.686 0 0149.174-32.564c3.214-1.571 6.508-3.071 9.864-4.424 11.206-4.518 23.099-7.391 34.97-5.738A539.165 539.165 0 00251.371 55.39c20.519-4.788 41.758-8.193 62.668-5.484 20.91 2.709 41.644 12.223 53.922 29.045 8.879-14.316 22.444-26.849 38.012-33.751 15.568-6.902 32.623-10.095 49.658-11.363-8.717 3.721-15.806 10.263-22.704 16.678l-38.829 36.113c29.806-15.12 66.475-16.551 97.412-3.8-30.565 4.521-60.32 14.268-87.52 28.67 20.149 1.676 36.47 16.076 51.145 29.721l-57.961-12.382a78.286 78.286 0 0115.424 22.42c-7.202-4.645-17.403-12.234-24.127-17.526M385.066 124.015c-6.294-.454-11.345 1.299-13.794 7.114M49.569 426.819c0-43.247 27.614-78.305 61.677-78.305s61.638 34.086 61.638 77.333"/><path d="M56.487 431.446c-1.545-8.11-1.522-15.635-1.787-23.996l22.51 14.224c.372-12.615 5.168-25.055 13.36-34.655l6.131 37.443 22.27-21.994 1.409 25.587 18.819-8.807-.846 12.629 11.475-2.856-.519 4.277M56.059 431.636c-5.388-4.397-12.729-8.462-18.817-11.822.193 4.32.87 8.619 2.016 12.789M111.882 354.86c-3.608 19.56-2.66 34.038.655 53.651M131.294 358.83c-9.08 3.8-14.919 10.017-21.091 17.685M95.783 358.409c6.052 10.463 8.933 14.95 14.347 25.756"/><path d="M111.497 402.313a132.609 132.609 0 0118.399-22.382c6.106-5.959 4.113-10.493 9.777-16.874M131.601 378.349c8.346-1.209 10.908-1.569 19.066-3.708"/><path d="M117.754 394.512c2.555-1.94 6.056-1.902 9.258-1.693 14.578.953 16.695-.529 30.617 3.898M81.794 365.227c9.583 1.13 12.62 1.721 21.449 5.614M446.961 367.543c18.657 2.576 34.627 5.183 52.184 8.74M137.914 356.191c9.996-.375 21.191-.704 31.849-.971M1.244 366.12c.593-.707 30.368-3.96 78.961-6.976M125.284 480.694a119.195 119.195 0 01-8.65-29.806 296.388 296.388 0 0120.483 20.797 67.081 67.081 0 0111.498-25.759l5.839 24.605a380.958 380.958 0 0117.266-14.951 157.616 157.616 0 01-6.453 22.083c4.344-4.059 10.702-5.845 16.524-4.643l-5.745 8.054M280.195 480.934a61.297 61.297 0 01-10.217-23.052 172.304 172.304 0 0120.465 15.871 49.691 49.691 0 0113.682-14.667l.117 14.992a253.283 253.283 0 0117.839-9.534l-5.846 12.159a61.529 61.529 0 0114.692-4.334l-7.251 9.418M438.694 485.862c-12.707-8.705-16.312-19.484-17.59-34.834l23.642 22.309c-.186-11.563 4.904-23.108 13.567-30.769-.01 8.444.473 16.888 1.443 25.275a58.543 58.543 0 0124.742-18.999 369.915 369.915 0 00-14.687 25.571 243.998 243.998 0 0122.177-5.431l-11.086 13.025a40.054 40.054 0 0110.495-1.571l-6.613 6.535M13.266 489.701a37.527 37.527 0 01-5.888-16.068l15.228 9.374a32.44 32.44 0 017.114-18.11 79.057 79.057 0 012.612 17.842 140.51 140.51 0 0117.167-11.887l-7.15 13.911a72.915 72.915 0 0113.425-5.254 26.564 26.564 0 01-5.972 7.319M1.104 287.037c19.094-33.688 41.333-65.027 67.788-93.304 3.02-3.228 6.506-6.623 10.914-6.943 2.916-.212 5.742.99 8.327 2.357 9.093 4.808 16.786 11.908 23.633 19.584 16.213 18.178 28.16 39.844 44.508 57.901M122.431 220.778a753.97 753.97 0 0166.724-72.002c6.003-5.685 12.63-11.535 20.812-12.719 5.943-.861 12.01.907 17.332 3.689 5.322 2.782 10.054 6.546 14.94 10.037 8.24 5.888 16.979 11.037 25.705 16.177M358.249 442.941a148.379 148.379 0 01-14.936-32.206l26.026 12.698a109.026 109.026 0 0116.356-30.71 114.396 114.396 0 018.979 38.321c6.39-9.498 15.592-17.078 26.138-21.53l-7.655 24.892a24.973 24.973 0 0113.664-2.245l-8.028 8.625M316.914 201.771l76.952 40.29M348.975 217.787a193.91 193.91 0 0132.036-41.553M399.348 167.485c6.552-1.008 12.899 2.539 18.284 6.404 24.163 17.341 40.886 43.184 63.618 62.361 5.609 4.732 10.393 9.505 17.682 10.352"/><path d="M439.615 193.557c14.762-22.341 29.607-44.113 46.045-65.252 3.8-4.888 7.874-9.924 13.539-12.424M29.748 362.135c-11.979-14.161-19.676-31.896-21.839-50.318a116.094 116.094 0 0143.503 25.542c-2.195-15.669 1.133-31.527 4.445-47 1.449-6.769 2.918-13.6 5.795-19.896a273.594 273.594 0 0131.433 62.705c9.33-15.998 18.828-32.213 32.123-45.106 2.012 16.447-1.629 33.002-5.247 49.171 11.051-3.708 20.852-10.328 30.499-16.871a78.222 78.222 0 01-15.343 23.487l23.135-.055c-2.962 4.922-7.357 7.595-11.639 11.424M63.747 284.421a509.97 509.97 0 009.32 75.172M18.906 324.251c12.78 11.604 22.848 22.993 34.111 36.074M117.388 311.622a201.823 201.823 0 00-15.594 36.962M135.152 335.709l-16.188 12.759M147.36 348.201a120.918 120.918 0 00-13.888 5.169M444.883 417.267l-5.23-11.813 11.908 8.784a45.29 45.29 0 0111.724-16.203 96.344 96.344 0 00-2.183 15.585 79.812 79.812 0 0118.021-8.795l-8.815 13.886 14.905-2.117-6.482 7.164M15.152 397.622a32.96 32.96 0 01-4.181-15.797l11.238 10.64a33.926 33.926 0 0111.411-13.759l-2.925 14.928a137.63 137.63 0 0116.093-7.279 59.643 59.643 0 00-5.249 10.514"/></g><g fill="none" stroke="#1d1d1b" stroke-width="2" stroke-linecap="round" stroke-linejoin="round" stroke-miterlimit="10"><circle transform="rotate(-9.126 78.278 68.82)" cx="78.261" cy="68.806" r="31.355"/><path d="M33.619 161.801h97.752c3.649 0 6.258-3.515 5.223-7.015-1.022-3.455-2.972-6.68-5.605-8.853-4.399-3.63-11.28-4.276-15.847-.862.318-9.627-4.7-19.307-12.863-24.42-8.163-5.113-19.184-5.368-27.472-.46s-13.381 14.827-12.34 24.402c-2.419-5.587-8.685-9.021-14.768-8.79-6.084.232-11.777 3.773-15.351 8.701-2.383 3.286-3.575 7.172-4.136 11.201-.45 3.236 2.142 6.096 5.407 6.096zM153.365 80.159h82.678c3.307 0 5.878-2.93 5.387-6.2-.421-2.809-1.178-5.62-1.844-8.272-1.306-5.2-3.143-10.439-6.703-14.447-3.561-4.009-9.181-6.557-14.37-5.206-4.749 1.236-8.16 5.328-10.874 9.417-1.394-8.153-4.495-16.299-10.438-22.05-5.943-5.752-15.124-8.609-22.801-5.532-6.704 2.687-11.176 9.336-13.08 16.303-1.904 6.967-1.623 14.319-1.328 21.535-.547-2.451-3.866-3.482-6.094-2.323-2.227 1.16-3.351 3.782-3.518 6.288-.179-1.147-1.933-.92-2.886-.257a12.666 12.666 0 00-2.499 2.306c-3.054 3.68-.08 9.24 4.685 8.838 1.055-.09 2.226-.224 3.685-.4zM286.351 118.973c-10.536.259-24.743 1.77-35.141.051 2.568-3.655 9.63-8.957 13.548-11.103 3.636-1.992 8.861-2.877 11.385.412 1.305-6.577 3.843-13.071 8.378-18.011 4.535-4.939 11.281-8.125 17.935-7.3s12.79 6.232 13.401 12.909c3.846-1.896 9.364-.059 11.059 3.88"/></g><path fill="none" stroke="#000" stroke-width="1.5" d="M.855.778H499.39v498.613H.855z"/></svg>