<?xml version="1.0" encoding="UTF-8" standalone="no"?>
<!-- Created with Inkscape (http://www.inkscape.org/) -->

<svg
   version="1.1"
   id="svg1"
   width="666.66669"
   height="666.66669"
   viewBox="0 0 666.66669 666.66669"
   sodipodi:docname="penguin2.svg"
   inkscape:version="1.3 (0e150ed6c4, 2023-07-21)"
   xmlns:inkscape="http://www.inkscape.org/namespaces/inkscape"
   xmlns:sodipodi="http://sodipodi.sourceforge.net/DTD/sodipodi-0.dtd"
   xmlns:xlink="http://www.w3.org/1999/xlink"
   xmlns="http://www.w3.org/2000/svg"
   xmlns:svg="http://www.w3.org/2000/svg">
  <g
     id="layer-MC1"
     inkscape:groupmode="layer"
     inkscape:label="OBJECTS"
     style="display:inline">
    <path
       id="path2"
       d="m 0,0 c 22.545,10.697 45.09,21.394 67.129,31.424 3.353,1.526 7.164,1.715 10.671,0.57 93.874,-30.66 191.754,-49.565 292.84,-55.32 32.352,11.049 64.251,23.38 98.459,37.647 5.469,2.281 11.777,1.339 16.317,-2.428 16.435,-13.637 34.533,-26.514 58.618,-41.084 l -7.185,-68.442 C 356.843,-72.562 172.647,-76.805 -5.966,-110.14 -1.73,-74.353 -1.444,-38.116 0,0"
       style="fill:#ffffff;fill-opacity:1;fill-rule:nonzero;stroke:#000000;stroke-width:1;stroke-linecap:round;stroke-linejoin:round;stroke-miterlimit:10;stroke-dasharray:none;stroke-opacity:1"
       clip-path="url(#clipPath3)"
       transform="matrix(1.3333333,0,0,-1.3333333,-16.5852,349.17227)" />
    <path
       id="path6"
       d="m 0,0 c -1.062,-3.54 -4.718,-5.548 -7.779,-7.686 -3.061,-2.139 -6.049,-5.639 -4.859,-9.14 0.878,-2.585 3.668,-3.963 6.2,-5.073 4.719,-2.067 9.437,-4.135 14.155,-6.202 2.147,-0.941 4.614,-2.312 4.756,-4.618 0.153,-2.479 -2.471,-4.141 -4.753,-5.207 -21.003,-9.805 -43.368,-16.784 -66.277,-20.684"
       style="fill:none;stroke:#000000;stroke-width:1;stroke-linecap:round;stroke-linejoin:round;stroke-miterlimit:10;stroke-dasharray:none;stroke-opacity:1"
       clip-path="url(#clipPath7)"
       transform="matrix(1.3333333,0,0,-1.3333333,618.2992,333.75307)" />
    <path
       id="path8"
       d="m 0,0 c -2.551,-3.05 -4.751,-6.384 -6.549,-9.915 -1.335,-2.624 0.004,-5.83 2.863,-6.673 10.931,-3.22 21.471,-7.878 31.437,-14.33 3.67,-2.376 3.561,-7.704 -0.223,-9.901 L -53.87,-88.06"
       style="fill:none;stroke:#000000;stroke-width:1;stroke-linecap:round;stroke-linejoin:round;stroke-miterlimit:10;stroke-dasharray:none;stroke-opacity:1"
       clip-path="url(#clipPath9)"
       transform="matrix(1.3333333,0,0,-1.3333333,80.4976,312.21787)" />
    <path
       id="path10"
       d="m 0,0 c -16.324,-4.045 -31.253,-12.669 -42.361,-24.365 -2.683,-2.825 -6.154,-4.929 -10.051,-6.047 -18.579,-5.331 -36.363,-10.819 -53.618,-17.306 -3.571,-1.342 -7.433,-1.911 -11.285,-1.705 -76.878,4.108 -149.934,4.818 -222.717,1.538 -2.075,-0.093 -4.153,0.109 -6.154,0.622 -10.698,2.745 -21.368,5.835 -32.032,8.992 -4.151,1.228 -6.03,5.616 -3.947,9.134 2.589,4.372 5.63,8.782 8.672,13.192 -48.73,4.588 -95.772,2.667 -139.918,-5.228 -2.165,28.693 -4.329,57.386 -3.052,89.216 174.369,35.98 357.131,37.267 532.081,3.747 C 9.422,46.649 3.225,21.509 0,0"
       style="fill:#ffffff;fill-opacity:1;fill-rule:nonzero;stroke:#000000;stroke-width:1;stroke-linecap:round;stroke-linejoin:round;stroke-miterlimit:10;stroke-dasharray:none;stroke-opacity:1"
       clip-path="url(#clipPath11)"
       transform="matrix(1.3333333,0,0,-1.3333333,676.27733,548.36587)" />
    <path
       id="path12"
       d="M 0,0 C 1.491,-15.199 2.159,-30.465 2.001,-45.725"
       style="fill:none;stroke:#000000;stroke-width:1;stroke-linecap:round;stroke-linejoin:round;stroke-miterlimit:10;stroke-dasharray:none;stroke-opacity:1"
       clip-path="url(#clipPath13)"
       transform="matrix(1.3333333,0,0,-1.3333333,165.406,593.04573)" />
    <path
       id="path14"
       d="M 0,0 C 1.133,-10.899 1.309,-21.882 0.525,-32.808"
       style="fill:none;stroke:#000000;stroke-width:1;stroke-linecap:round;stroke-linejoin:round;stroke-miterlimit:10;stroke-dasharray:none;stroke-opacity:1"
       clip-path="url(#clipPath15)"
       transform="matrix(1.3333333,0,0,-1.3333333,173.3844,624.004)" />
    <path
       id="path16"
       d="M 0,0 C 1.18,-14.053 0.559,-28.233 -1.846,-42.153"
       style="fill:none;stroke:#000000;stroke-width:1;stroke-linecap:round;stroke-linejoin:round;stroke-miterlimit:10;stroke-dasharray:none;stroke-opacity:1"
       clip-path="url(#clipPath17)"
       transform="matrix(1.3333333,0,0,-1.3333333,74.2076,576.2104)" />
    <path
       id="path18"
       d="M 0,0 C -0.452,-12.079 -2.333,-24.113 -5.598,-35.822"
       style="fill:none;stroke:#000000;stroke-width:1;stroke-linecap:round;stroke-linejoin:round;stroke-miterlimit:10;stroke-dasharray:none;stroke-opacity:1"
       clip-path="url(#clipPath19)"
       transform="matrix(1.3333333,0,0,-1.3333333,65.484,597.10773)" />
    <path
       id="path20"
       d="M 0,0 C 2.158,-11.416 3.091,-23.026 2.784,-34.609"
       style="fill:none;stroke:#000000;stroke-width:1;stroke-linecap:round;stroke-linejoin:round;stroke-miterlimit:10;stroke-dasharray:none;stroke-opacity:1"
       clip-path="url(#clipPath21)"
       transform="matrix(1.3333333,0,0,-1.3333333,220.87773,612.17427)" />
    <path
       id="path22"
       d="M 0,0 C 0.315,-3.773 0.631,-7.545 0.946,-11.318"
       style="fill:none;stroke:#000000;stroke-width:1;stroke-linecap:round;stroke-linejoin:round;stroke-miterlimit:10;stroke-dasharray:none;stroke-opacity:1"
       clip-path="url(#clipPath23)"
       transform="matrix(1.3333333,0,0,-1.3333333,231.8384,626.114)" />
    <path
       id="path24"
       d="M 0,0 C -1.647,-15.737 -3.294,-31.474 -4.941,-47.21"
       style="fill:none;stroke:#000000;stroke-width:1;stroke-linecap:round;stroke-linejoin:round;stroke-miterlimit:10;stroke-dasharray:none;stroke-opacity:1"
       clip-path="url(#clipPath25)"
       transform="matrix(1.3333333,0,0,-1.3333333,529.7556,613.4816)" />
    <path
       id="path26"
       d="M 0,0 C -2.139,-12.099 -3.492,-24.315 -4.051,-36.562"
       style="fill:none;stroke:#000000;stroke-width:1;stroke-linecap:round;stroke-linejoin:round;stroke-miterlimit:10;stroke-dasharray:none;stroke-opacity:1"
       clip-path="url(#clipPath27)"
       transform="matrix(1.3333333,0,0,-1.3333333,520.97413,632.93107)" />
    <path
       id="path28"
       d="M 0,0 C -1.986,-8.58 -3.02,-17.345 -3.082,-26.117"
       style="fill:none;stroke:#000000;stroke-width:1;stroke-linecap:round;stroke-linejoin:round;stroke-miterlimit:10;stroke-dasharray:none;stroke-opacity:1"
       clip-path="url(#clipPath29)"
       transform="matrix(1.3333333,0,0,-1.3333333,617.05013,584.758)" />
    <path
       id="path30"
       d="m 0,0 c 9.776,3.49 19.551,6.98 29.327,10.47 1.415,0.505 2.998,1.007 4.374,0.406 1.404,-0.613 2.103,-2.151 3.02,-3.378 C 39.779,3.412 45.897,2.64 50.65,4.5 c 4.752,1.859 8.38,5.773 11.518,9.798 2.933,3.763 5.829,7.924 10.235,9.752 4.407,1.828 10.744,-0.167 11.37,-4.896 C 84.64,12.595 74.727,8.816 74.689,2.2 c -0.03,-5.407 6.459,-8.323 11.858,-8.608 7.947,-0.418 15.809,1.784 23.765,1.953 7.956,0.168 16.852,-2.406 20.624,-9.413 1.914,-3.555 2.224,-7.731 3.473,-11.57 1.248,-3.84 4.044,-7.735 8.066,-8.081 C 95.803,-37.264 49.006,-39.472 2.188,-40.139 1.65,-26.261 1.112,-12.383 0,0"
       style="fill:#ffffff;fill-opacity:1;fill-rule:nonzero;stroke:#000000;stroke-width:1;stroke-linecap:round;stroke-linejoin:round;stroke-miterlimit:10;stroke-dasharray:none;stroke-opacity:1"
       clip-path="url(#clipPath31)"
       transform="matrix(1.3333333,0,0,-1.3333333,-5.3058667,632.95067)" />
    <path
       id="path36"
       d="m 0,0 c 10.847,0.567 20.705,9.376 22.483,20.091 0.397,2.394 0.46,4.935 1.674,7.036 1.214,2.102 4.162,3.476 6.114,2.033 2.027,-1.499 1.536,-4.611 2.368,-6.991 1.672,-4.786 8.746,-5.467 12.857,-2.5 4.112,2.967 5.992,8.055 7.772,12.802 1.323,3.528 3.062,7.396 6.573,8.764 3.51,1.368 8.442,-2.31 6.617,-5.607 -0.732,-1.322 -2.328,-2.204 -2.5,-3.707 -0.194,-1.705 1.739,-3.019 3.451,-2.905 1.712,0.113 3.195,1.162 4.635,2.095 9.16,5.941 20.47,8.486 31.292,7.041 C 102.552,23.689 101.768,9.225 100.984,-5.238 68.688,-7.321 36.271,-7.523 0,0"
       style="fill:#ffffff;fill-opacity:1;fill-rule:nonzero;stroke:#000000;stroke-width:1;stroke-linecap:round;stroke-linejoin:round;stroke-miterlimit:10;stroke-dasharray:none;stroke-opacity:1"
       clip-path="url(#clipPath37)"
       transform="matrix(1.3333333,0,0,-1.3333333,539.36133,668.36827)" />
    <path
       id="path42"
       d="m 0,0 c 0,0 113.458,0 111.899,0.913 0,9.058 -6.436,17.816 -15.45,21.025 C 87.436,25.146 76.442,22.591 70.057,15.805 65.74,23.398 53.801,25.945 46.42,20.847 43.427,29.682 35.591,36.931 26.144,39.604 16.697,42.276 5.905,40.297 -1.375,34.75 -1.604,22.505 -0.936,10.246 0,0"
       style="fill:#ffffff;fill-opacity:1;fill-rule:nonzero;stroke:#000000;stroke-width:1;stroke-linecap:round;stroke-linejoin:round;stroke-miterlimit:10;stroke-dasharray:none;stroke-opacity:1"
       clip-path="url(#clipPath43)"
       transform="matrix(1.3333333,0,0,-1.3333333,-11.621867,174.74973)" />
    <path
       id="path44"
       d="m 0,0 c 0,0 -130.985,0 -130.762,0.883 2.066,6.504 7.223,11.951 13.604,14.369 6.381,2.419 13.852,1.758 19.676,-1.176 1.091,3.983 4.061,7.407 7.85,9.05 3.789,1.644 8.318,1.473 11.866,-0.294 -0.314,8.686 3.929,17.411 10.956,22.528 7.027,5.116 16.633,6.476 24.804,3.512 8.171,-2.965 14.669,-10.169 16.78,-18.601 6.959,3.244 15.742,-0.224 20.24,-6.446 C -0.487,17.602 0.38,9.385 0,0"
       style="fill:#ffffff;fill-opacity:1;fill-rule:nonzero;stroke:#000000;stroke-width:1;stroke-linecap:round;stroke-linejoin:round;stroke-miterlimit:10;stroke-dasharray:none;stroke-opacity:1"
       clip-path="url(#clipPath45)"
       transform="matrix(1.3333333,0,0,-1.3333333,692.5544,131.89147)" />
    <path
       id="path46"
       d="m 0,0 c 0,0 -218.93,0 -217.477,0.726 -0.57,10.284 5.324,20.65 14.454,25.418 9.131,4.768 21.005,3.682 29.119,-2.663 0.504,20.863 17.983,39.987 38.717,42.361 20.734,2.373 42.083,-12.307 47.287,-32.517 10.129,5.645 24.23,2.618 31.15,-6.687 9.86,10.248 26.348,13.421 39.307,7.564 C -4.484,28.344 4.028,13.872 0,0"
       style="fill:#ffffff;fill-opacity:1;fill-rule:nonzero;stroke:#000000;stroke-width:1;stroke-linecap:round;stroke-linejoin:round;stroke-miterlimit:10;stroke-dasharray:none;stroke-opacity:1"
       clip-path="url(#clipPath47)"
       transform="matrix(1.3333333,0,0,-1.3333333,437.8772,79.450933)" />
    <path
       id="path48"
       d="m 0,0 c -7.227,5.367 -16.072,8.524 -25.063,8.946 -4.568,0.214 -9.295,-0.302 -13.324,-2.464 -4.029,-2.161 -7.247,-6.195 -7.531,-10.758 -0.284,-4.564 2.956,-9.347 8.354,-11.559 3.647,-5.209 10.245,-8.191 18.542,-7.71 7.256,-4.517 16.086,-5.779 24.633,-5.819 6.807,-0.033 13.949,0.758 19.571,4.595 5.622,3.837 9.108,11.5 6.307,17.704 C 21.47,-9.201 10.285,-7.639 0,0"
       style="fill:#ffffff;fill-opacity:1;fill-rule:nonzero;stroke:#000000;stroke-width:2;stroke-linecap:round;stroke-linejoin:round;stroke-miterlimit:10;stroke-dasharray:none;stroke-opacity:1"
       clip-path="url(#clipPath49)"
       transform="matrix(1.3333333,0,0,-1.3333333,243.20787,489.84133)" />
    <path
       id="path50"
       d="m 0,0 c -3.712,0.465 -7.609,-1.632 -9.266,-4.986 -1.657,-3.354 -0.953,-7.723 1.672,-10.389"
       style="fill:none;stroke:#000000;stroke-width:2;stroke-linecap:round;stroke-linejoin:round;stroke-miterlimit:10;stroke-dasharray:none;stroke-opacity:1"
       clip-path="url(#clipPath51)"
       transform="matrix(1.3333333,0,0,-1.3333333,228.98867,500.69067)" />
    <path
       id="path52"
       d="m 0,0 c -3.378,-0.238 -6.603,-2.111 -8.485,-4.926 -1.881,-2.815 -2.378,-6.511 -1.306,-9.723"
       style="fill:none;stroke:#000000;stroke-width:2;stroke-linecap:round;stroke-linejoin:round;stroke-miterlimit:10;stroke-dasharray:none;stroke-opacity:1"
       clip-path="url(#clipPath53)"
       transform="matrix(1.3333333,0,0,-1.3333333,206.27093,490.8224)" />
    <path
       id="path54"
       d="m 0,0 c -3.778,-1.708 -5.507,-6.415 -4.832,-10.506 0.673,-4.091 3.257,-7.615 6.144,-10.591 10.987,-11.324 27.723,-16.755 44.502,-13.469 5.99,-1.669 12.878,0.563 17.161,5.316 3.969,0.553 7.784,2.599 10.133,5.845 2.349,3.246 3.08,7.703 1.539,11.401 -1.88,4.512 -6.685,7.218 -11.49,8.114 -4.805,0.897 -9.743,0.322 -14.628,0.149 -4.886,-0.174 -10,0.117 -14.022,2.593 C 23.036,-3.89 10.804,-3.366 0,0"
       style="fill:#ffffff;fill-opacity:1;fill-rule:nonzero;stroke:#000000;stroke-width:2;stroke-linecap:round;stroke-linejoin:round;stroke-miterlimit:10;stroke-dasharray:none;stroke-opacity:1"
       clip-path="url(#clipPath55)"
       transform="matrix(1.3333333,0,0,-1.3333333,379.92787,505.3184)" />
    <path
       id="path56"
       d="m 0,0 c 3.908,0.253 7.881,-1.794 9.943,-5.124 2.061,-3.33 2.123,-7.8 0.153,-11.185"
       style="fill:none;stroke:#000000;stroke-width:2;stroke-linecap:round;stroke-linejoin:round;stroke-miterlimit:10;stroke-dasharray:none;stroke-opacity:1"
       clip-path="url(#clipPath57)"
       transform="matrix(1.3333333,0,0,-1.3333333,426.52933,529.09093)" />
    <path
       id="path58"
       d="m 0,0 c 3.629,-1.11 6.62,-4.116 7.709,-7.752 1.09,-3.635 0.247,-7.791 -2.173,-10.714"
       style="fill:none;stroke:#000000;stroke-width:2;stroke-linecap:round;stroke-linejoin:round;stroke-miterlimit:10;stroke-dasharray:none;stroke-opacity:1"
       clip-path="url(#clipPath59)"
       transform="matrix(1.3333333,0,0,-1.3333333,454.30627,521.70587)" />
    <path
       id="path60"
       d="m 0,0 c 19.678,14.389 25.619,47.675 20.818,71.331 -15.476,76.246 -147.254,79.677 -174.094,4.905 -8.611,-23.988 -2.366,-55.925 18.891,-77.181 -8.693,-24.215 -17.395,-48.458 -24.222,-73.264 -3.147,-11.431 -5.909,-23.099 -5.984,-34.955 -0.075,-11.856 2.734,-24.034 9.817,-33.542 6.524,-8.756 17.032,-14.878 29.836,-15.333 2.014,-0.072 4.026,0.172 6,0.575 28.956,5.922 59.49,4.134 88.841,-5.561 2.273,-0.75 4.625,-1.232 7.014,-1.374 8.095,-0.481 16.252,-0.7 24.149,1.036 9.088,1.998 17.949,6.969 22.504,15.083 3.772,6.721 4.217,14.765 4.123,22.472 C 27.166,-82.626 12.654,-40.989 0,0"
       style="fill:#ffffff;fill-opacity:1;fill-rule:nonzero;stroke:#000000;stroke-width:2;stroke-linecap:round;stroke-linejoin:round;stroke-miterlimit:10;stroke-dasharray:none;stroke-opacity:1"
       clip-path="url(#clipPath61)"
       transform="matrix(1.3333333,0,0,-1.3333333,436.18547,296.52173)" />
    <path
       id="path62"
       d="m 0,0 c -34.677,19.853 -69.355,39.706 -104.032,59.559 -2.229,1.276 -4.672,2.597 -7.222,2.25 -5.016,-0.682 -6.878,-6.945 -6.893,-11.978 -0.078,-25.465 17.88,-49.736 40.115,-62.334 22.235,-12.599 39.981,-15.376 67.041,-18.941"
       style="fill:#ffffff;fill-opacity:1;fill-rule:nonzero;stroke:#000000;stroke-width:2;stroke-linecap:round;stroke-linejoin:round;stroke-miterlimit:10;stroke-dasharray:none;stroke-opacity:1"
       clip-path="url(#clipPath63)"
       transform="matrix(1.3333333,0,0,-1.3333333,264.26067,295.258)" />
    <path
       id="path64"
       d="m 0,0 c 32.789,25.23 65.509,49.245 98.298,74.476 4.033,3.103 9.021,6.369 13.743,4.533 3.272,-1.272 5.361,-4.804 5.928,-8.385 0.567,-3.582 -0.141,-7.233 -0.996,-10.743 C 110.724,34.246 96.939,10.982 77.793,-6.289 62.706,-19.898 36.068,-30.8 10.608,-31.105"
       style="fill:#ffffff;fill-opacity:1;fill-rule:nonzero;stroke:#000000;stroke-width:2.00025005;stroke-linecap:round;stroke-linejoin:round;stroke-miterlimit:10;stroke-dasharray:none;stroke-opacity:1"
       clip-path="url(#clipPath65)"
       transform="matrix(1.3333333,0,0,-1.3333333,430.73147,300.92747)"
       inkscape:label="path64" />
    <path
       id="path66"
       d="M 0,0 C -2.826,8.97 -12.299,15.761 -22.367,16.035 -32.434,16.309 -42.32,10.044 -45.611,0.18 c 1.588,-6.373 3.235,-12.881 6.837,-18.373 3.602,-5.492 9.592,-9.871 16.158,-9.75 6.397,0.117 12.109,4.482 15.56,9.87 C -3.605,-12.684 -2.018,-6.346 0,0"
       style="fill:#ffffff;fill-opacity:1;fill-rule:nonzero;stroke:#000000;stroke-width:2;stroke-linecap:round;stroke-linejoin:round;stroke-miterlimit:10;stroke-dasharray:none;stroke-opacity:1"
       clip-path="url(#clipPath67)"
       transform="matrix(1.3333333,0,0,-1.3333333,378.8912,252.18053)" />
    <path
       id="path68"
       d="m 0,0 c 2.28,-5.988 4.819,-12.333 9.652,-15.807 4.963,-3.569 11.69,-3.223 16.696,0.267 5.007,3.49 8.283,9.784 9.226,16.406"
       style="fill:#ffffff;fill-opacity:1;fill-rule:nonzero;stroke:#000000;stroke-width:2;stroke-linecap:round;stroke-linejoin:round;stroke-miterlimit:10;stroke-dasharray:none;stroke-opacity:1"
       clip-path="url(#clipPath69)"
       transform="matrix(1.3333333,0,0,-1.3333333,324.48147,254.10387)" />
    <path
       id="path70"
       d="M 0,0 C 14.048,-5.966 29.793,-5.853 43.433,0.002"
       style="fill:#ffffff;fill-opacity:1;fill-rule:nonzero;stroke:#000000;stroke-width:2;stroke-linecap:round;stroke-linejoin:round;stroke-miterlimit:10;stroke-dasharray:none;stroke-opacity:1"
       clip-path="url(#clipPath71)"
       transform="matrix(1.3333333,0,0,-1.3333333,319.1716,251.18653)" />
    <path
       id="path72"
       d="m 0,0 c -2.225,7.666 1.808,16.653 9.016,20.085 7.207,3.432 16.726,0.899 21.275,-5.661"
       style="fill:none;stroke:#000000;stroke-width:2;stroke-linecap:round;stroke-linejoin:round;stroke-miterlimit:10;stroke-dasharray:none;stroke-opacity:1"
       clip-path="url(#clipPath73)"
       transform="matrix(1.3333333,0,0,-1.3333333,265.02973,240.8248)" />
    <path
       id="path74"
       d="m 0,0 c 0,8.089 5.427,14.647 12.121,14.647 6.695,0 12.122,-6.558 12.122,-14.647 0,-8.089 -5.427,-14.647 -12.122,-14.647 C 5.427,-14.647 0,-8.089 0,0"
       style="fill:#000000;fill-opacity:1;fill-rule:nonzero;stroke:none"
       clip-path="url(#clipPath75)"
       transform="matrix(1.3333333,0,0,-1.3333333,277.83733,238.53853)" />
    <path
       id="path76"
       d="M 0,0 C 1.859,3.047 5.561,4.178 8.268,2.526 10.976,0.875 11.665,-2.934 9.806,-5.981 7.948,-9.028 4.246,-10.16 1.538,-8.508 -1.17,-6.856 -1.859,-3.047 0,0"
       style="fill:#ffffff;fill-opacity:1;fill-rule:nonzero;stroke:none"
       clip-path="url(#clipPath77)"
       transform="matrix(1.3333333,0,0,-1.3333333,284.80507,228.468)" />
    <path
       id="path78"
       d="m 0,0 c 2.226,7.666 -1.808,16.653 -9.015,20.085 -7.207,3.432 -16.727,0.899 -21.276,-5.661"
       style="fill:none;stroke:#000000;stroke-width:2;stroke-linecap:round;stroke-linejoin:round;stroke-miterlimit:10;stroke-dasharray:none;stroke-opacity:1"
       clip-path="url(#clipPath79)"
       transform="matrix(1.3333333,0,0,-1.3333333,430.78733,240.8248)" />
    <path
       id="path80"
       d="m 0,0 c 0,8.089 5.427,14.647 12.121,14.647 6.695,0 12.122,-6.558 12.122,-14.647 0,-8.089 -5.427,-14.647 -12.122,-14.647 C 5.427,-14.647 0,-8.089 0,0"
       style="fill:#000000;fill-opacity:1;fill-rule:nonzero;stroke:none"
       clip-path="url(#clipPath81)"
       transform="matrix(1.3333333,0,0,-1.3333333,385.6564,238.53853)" />
    <path
       id="path82"
       d="M 0,0 C 1.859,3.047 5.561,4.178 8.268,2.526 10.976,0.875 11.665,-2.934 9.806,-5.981 7.948,-9.028 4.246,-10.16 1.538,-8.508 -1.17,-6.856 -1.859,-3.047 0,0"
       style="fill:#ffffff;fill-opacity:1;fill-rule:nonzero;stroke:none"
       clip-path="url(#clipPath83)"
       transform="matrix(1.3333333,0,0,-1.3333333,392.624,228.468)" />
    <path
       id="path84"
       d="m 0,0 c -0.247,8.824 -0.604,17.759 -3.146,26.213 -2.542,8.453 -7.537,16.502 -15.162,20.95 -11.723,6.84 -27.631,3.424 -37.525,-5.867 -9.895,-9.292 -14.362,-23.259 -14.727,-36.828 -0.375,-13.924 3.885,-29.101 16.379,-37.337 5.938,-3.915 13.045,-6.005 20.457,-6.416 -11.509,-19.203 -23.144,-38.69 -29.259,-60.227 -6.116,-21.536 -6.163,-45.736 4.827,-65.241 7.664,-13.602 20.12,-24.072 27.447,-37.858"
       style="fill:none;stroke:#000000;stroke-width:2;stroke-linecap:round;stroke-linejoin:round;stroke-miterlimit:10;stroke-dasharray:none;stroke-opacity:1"
       clip-path="url(#clipPath85)"
       transform="matrix(1.3333333,0,0,-1.3333333,336.59467,231.87253)" />
    <path
       id="path86"
       d="m 0,0 c 0.815,12.379 2.905,25.118 9.701,35.497 6.796,10.379 19.301,17.833 31.48,15.469 23.302,-4.524 26.776,-32.292 26.79,-48.633 0.037,-42.222 -31.304,-43.59 -37.522,-43.73 8.729,-18.35 16.526,-37.279 20.928,-57.117 4.402,-19.838 5.31,-40.708 0.328,-60.408 -4.982,-19.7 -16.174,-38.162 -32.751,-49.915"
       style="fill:none;stroke:#000000;stroke-width:2;stroke-linecap:round;stroke-linejoin:round;stroke-miterlimit:10;stroke-dasharray:none;stroke-opacity:1"
       clip-path="url(#clipPath87)"
       transform="matrix(1.3333333,0,0,-1.3333333,359.65387,231.3232)" />
    <path
       style="display:inline;opacity:1;fill:#000000;stroke:#000000;stroke-width:1.99221;stroke-dasharray:none;stroke-opacity:1"
       d="M 665.67644,666.66809 V -0.01216543"
       id="path88-3" />
    <path
       style="fill:#000000;stroke:#000000;stroke-width:1.99221;stroke-dasharray:none;stroke-opacity:1"
       d="M 0.99883185,666.68234 V 0.00210215"
       id="path88" />
  </g>
</svg>
