<?xml version="1.0" encoding="UTF-8" standalone="no"?>
<!-- Created with Inkscape (http://www.inkscape.org/) -->

<svg
   xmlns:dc="http://purl.org/dc/elements/1.1/"
   xmlns:cc="http://creativecommons.org/ns#"
   xmlns:rdf="http://www.w3.org/1999/02/22-rdf-syntax-ns#"
   xmlns:svg="http://www.w3.org/2000/svg"
   xmlns="http://www.w3.org/2000/svg"
   xmlns:sodipodi="http://sodipodi.sourceforge.net/DTD/sodipodi-0.dtd"
   xmlns:inkscape="http://www.inkscape.org/namespaces/inkscape"
   width="214.4747"
   height="451.27951"
   viewBox="0 0 1425.78 3000"
   version="1.1"
   id="svg5776"
   inkscape:version="0.92.1 r15371"
   sodipodi:docname="penguin.svg">
  <defs
     id="defs5770" />
  <sodipodi:namedview
     id="base"
     pagecolor="#ffffff"
     bordercolor="#666666"
     borderopacity="1.0"
     inkscape:pageopacity="0.0"
     inkscape:pageshadow="2"
     inkscape:zoom="0.98994949"
     inkscape:cx="58.674396"
     inkscape:cy="232.45621"
     inkscape:document-units="px"
     inkscape:current-layer="layer1"
     showgrid="false"
     units="px"
     fit-margin-top="0"
     fit-margin-left="0"
     fit-margin-right="0"
     fit-margin-bottom="0"
     viewbox-width="1425.78"
     inkscape:window-width="1920"
     inkscape:window-height="1003"
     inkscape:window-x="-9"
     inkscape:window-y="-9"
     inkscape:window-maximized="1" />
  <metadata
     id="metadata5773">
    <rdf:RDF>
      <cc:Work
         rdf:about="">
        <dc:format>image/svg+xml</dc:format>
        <dc:type
           rdf:resource="http://purl.org/dc/dcmitype/StillImage" />
        <dc:title />
      </cc:Work>
    </rdf:RDF>
  </metadata>
  <g
     inkscape:label="Layer 1"
     inkscape:groupmode="layer"
     id="layer1"
     transform="translate(-91.823187,-71.745839)">
    <g
       id="g4501">
      <path
         inkscape:connector-curvature="0"
         d="m 1082.4718,1146.7068 c 0,29.3985 -23.8307,53.2207 -53.2204,53.2207 -29.3897,0 -53.22063,-23.8222 -53.22063,-53.2207 0,-29.3897 23.83093,-53.2204 53.22063,-53.2204 29.3897,0 53.2204,23.8307 53.2204,53.2204"
         style="fill:#000000;fill-opacity:1;fill-rule:nonzero;stroke:none;stroke-width:0.86186993"
         id="path28" />
      <path
         inkscape:connector-curvature="0"
         d="m 1051.9617,1119.0581 v 0.3615 c 0,8.3862 13.04,8.4033 13.04,0 v -0.3615 c 0,-8.3945 -13.04,-8.4031 -13.04,0"
         style="fill:#ffffff;fill-opacity:1;fill-rule:nonzero;stroke:none;stroke-width:0.86186993"
         id="path30" />
      <path
         inkscape:connector-curvature="0"
         d="m 553.00801,1146.7068 c 0,29.3985 23.83069,53.2207 53.22895,53.2207 29.38971,0 53.22064,-23.8222 53.22064,-53.2207 0,-29.3897 -23.83093,-53.2204 -53.22064,-53.2204 -29.39826,0 -53.22895,23.8307 -53.22895,53.2204"
         style="fill:#000000;fill-opacity:1;fill-rule:nonzero;stroke:none;stroke-width:0.86186993"
         id="path32" />
      <path
         inkscape:connector-curvature="0"
         d="m 583.52668,1119.0581 v 0.3615 c 0,8.3862 -13.03147,8.4033 -13.03147,0 v -0.3615 c 0,-8.3945 13.03147,-8.4031 13.03147,0"
         style="fill:#ffffff;fill-opacity:1;fill-rule:nonzero;stroke:none;stroke-width:0.86186993"
         id="path34" />
      <path
         inkscape:connector-curvature="0"
         d="m 1361.5022,2903.5064 c -21.0124,18.7896 -45.7653,32.2262 -73.1642,41.7606 -2.6114,-11.9487 -7.9549,-23.3477 -15.0656,-32.1819 12.2128,-6.7838 23.6758,-14.75 34.1215,-24.2805 100.2012,-91.4023 113.7066,-313.5225 113.7066,-518.7415 0,-42.3462 -5.7918,-86.0654 -16.1945,-130.2026 24.2961,-23.3411 45.1791,-49.8067 60.5721,-80.4133 15.2034,56.348 23.7274,112.336 23.7274,166.29 0,229.2572 -15.169,477.1896 -127.7033,577.7692 z m -82.9981,65.839 c -1.9129,12.2314 -9.1445,27.6236 -32.846,31.4583 -11.7471,1.9227 -27.8728,2.3087 -38.0859,-6.5145 -10.5664,-9.1438 -11.4542,-23.0719 -11.4801,-37.7337 -0.024,-19.0053 6.9294,-36.3703 18.1596,-45.3423 6.1365,-4.8955 13.4365,-7.3596 21.7535,-7.3596 2.7236,0 5.5419,0.2663 8.4724,0.7842 h 0.01 c 2.4477,0.4471 4.3353,1.3877 5.5764,2.8345 l 1.7761,1.3535 c 17.2546,8.2921 30.2257,37.6969 26.6661,60.5196 z m -101.3645,16.2544 c -10.5234,17.7997 -32.9061,28.5192 -59.874,28.701 -12.9454,0.2199 -42.835,-1.8006 -51.2124,-21.0619 l -1.4145,-1.9154 c -1.4903,-1.2655 -2.4822,-2.9122 -3.0424,-5.0401 -9.3771,-35.7946 -2.4651,-71.2253 18.9696,-97.2132 11.0665,-13.409 26.1578,-21.8017 40.37,-22.4318 0.6132,-0.024 1.224,-0.049 1.8348,-0.049 10.5493,0 20.047,4.1714 28.2693,12.4195 18.4612,18.5301 31.803,51.669 31.0446,77.0938 l -0.019,0.5522 0.098,0.5423 c 1.8543,9.696 0.073,19.7894 -5.0336,28.3979 z m -151.353,26.2364 c -11.325,7.1104 -24.8734,8.8948 -38.20659,5.067 -15.26372,-4.4272 -28.15741,-15.5474 -34.50946,-29.7581 -15.55665,-34.8989 6.26606,-68.7949 20.66786,-85.8944 9.98029,-11.86 23.71855,-18.9543 36.08649,-18.9543 1.4829,0 2.9476,0.098 4.3954,0.3103 10.2649,1.5025 18.1942,8.3358 22.9516,19.7996 l 0.9382,1.4707 c 1.5,1.6906 2.3967,3.7775 2.6458,6.2082 0.259,2.4382 0.5937,5.0066 0.9406,7.6085 0.9822,4.9661 1.6638,9.8349 2.0864,14.8174 4.413,31.7847 6.6279,63.8285 -17.9958,79.3253 z m -204.71993,-63.8119 c -36.07792,0 -73.57773,2.7135 -111.29327,6.5079 -0.55947,-4.983 -1.55136,-10.0094 -3.04238,-15.0593 42.26604,-4.9289 84.66157,-8.9014 124.85049,-8.9014 35.17301,0 72.56947,2.5926 109.65567,5.6023 -1.87874,5.8175 -3.14573,11.6181 -3.80073,17.3416 -39.37879,-3.0268 -78.92152,-5.4911 -116.36978,-5.4911 z m -126.95351,39.9558 c -6.34325,14.2105 -19.23694,25.3308 -34.50042,29.7613 -13.33319,3.8247 -26.89042,2.0498 -38.20684,-5.0701 -24.62347,-15.4868 -22.41711,-47.541 -17.99584,-79.3254 0.42265,-4.9832 1.10428,-9.8511 2.0864,-14.8069 0.34448,-2.6124 0.67185,-5.1781 0.93815,-7.619 0.24919,-2.4309 1.13848,-4.5144 2.64587,-6.2045 l 0.93815,-1.4756 c 4.74889,-11.4638 12.6953,-18.2983 22.95166,-19.7964 1.44876,-0.2199 2.91315,-0.3103 4.38683,-0.3103 12.37647,0 26.11473,7.0899 36.09527,18.9508 14.4018,17.0995 36.22427,50.9984 20.65882,85.8942 z m -108.51791,-0.8526 c -0.55947,2.1181 -1.55137,3.7741 -3.04239,5.0398 l -1.41455,1.9056 c -8.38617,19.2709 -38.26719,21.2709 -51.21242,21.0654 -26.96787,-0.171 -49.35053,-10.9048 -59.88272,-28.6942 -5.09361,-8.6187 -6.8778,-18.7019 -5.03326,-28.398 l 0.12215,-0.5522 -0.0193,-0.5521 c -0.75736,-25.4255 12.58317,-58.5634 31.04442,-77.0936 8.22224,-8.2481 17.72002,-12.4197 28.2781,-12.4197 0.60344,0 1.21422,0.019 1.82743,0.049 14.21222,0.6279 29.30347,9.0324 40.36141,22.4352 21.4433,25.9846 28.35555,61.4151 18.97821,97.2199 z m -145.97497,7.9957 c -10.21312,8.8277 -26.34732,8.437 -38.08591,6.518 -23.6929,-3.8379 -30.94107,-19.2304 -32.84595,-31.4583 -3.55935,-22.8227 9.40298,-52.2307 26.65759,-60.5228 l 1.77613,-1.3535 c 1.24842,-1.439 3.13718,-2.3869 5.58492,-2.8347 h 0.007 c 2.93025,-0.5204 5.74861,-0.7843 8.46362,-0.7843 8.32558,0 15.62555,2.4639 21.76212,7.3689 11.22163,8.9628 18.18543,26.331 18.15953,45.336 -0.0244,14.6686 -0.91372,28.5865 -11.48011,37.7302 z M 210.8111,2906.0748 c -91.09102,-98.1655 -90.77207,-386.3394 -90.57389,-558.5246 l 0.0194,-21.813 c 0,-55.2977 9.54949,-114.2142 27.62291,-175.0035 16.98745,43.5149 44.65348,79.242 78.03369,109.5789 -7.86024,37.0234 -12.25579,73.8113 -12.25579,109.7505 l -0.006,19.3481 c -0.17346,153.9817 -0.45711,411.6714 80.852,501.1275 19.34895,21.2872 41.82665,36.481 66.68295,47.2035 -3.67173,11.0397 -5.1024,22.9676 -3.37855,34.007 0.25896,1.7175 0.72315,3.2925 1.12871,4.9155 -58.27113,-8.0935 -109.10421,-28.5461 -148.12106,-70.5891 z m 94.01277,-1095.4616 c 3.04243,-1.2411 9.07544,-2.939 15.08277,-4.3524 13.80715,2.9129 35.37113,6.6106 62.13232,10.7044 12.21254,19.7798 22.92552,39.9994 29.44125,60.7618 0.64742,2.0424 1.17269,4.0939 1.76636,6.1366 -15.88427,20.4435 -31.22545,41.5592 -45.91187,63.1921 -1.81767,-2.6718 -3.63704,-5.3435 -5.37799,-8.0498 -1.82744,-1.6808 -4.0939,-1.9129 -5.42123,-0.8013 -1.25819,1.0774 -1.3608,5.2573 1.93005,10.713 16.79799,25.3046 37.14678,48.6699 56.24568,68.2171 -20.21076,78.094 -76.48233,146.3453 -156.44657,178.8128 -7.59311,3.0676 -12.70402,11.6424 -11.92834,19.9249 0.67234,6.9993 5.42118,12.0489 12.7126,13.4969 33.13893,6.5847 66.26064,13.2142 99.38218,19.9005 8.00676,1.6125 19.14214,3.1372 30.93252,4.7499 26.41646,3.6026 59.28807,8.0937 70.07874,15.541 2.8958,1.9984 6.03298,3.0167 9.19605,3.0167 0.64742,0 1.28507,-0.049 1.93005,-0.1221 2.30872,0.171 4.69709,-0.1955 7.06739,-1.0774 52.30692,-19.3318 96.41726,-50.6454 129.64238,-89.9646 41.0164,44.6723 75.24124,94.9539 101.26119,149.6489 34.66435,72.8177 62.60603,165.2034 37.10353,206.0981 -9.46333,15.1604 -26.10618,23.0042 -49.48856,23.2602 -0.30295,0 -0.61322,0.013 -0.92349,0.013 -40.33551,0 -67.12259,-30.8722 -93.03895,-60.7283 -8.42917,-9.703 -16.38413,-18.8741 -24.8304,-27.1049 -49.26454,-47.989 -111.51731,-79.3195 -171.72764,-109.623 l -16.16866,-8.1601 C 284.82583,2301.8301 170.94699,2234.7085 144.17725,2108.2807 117.79544,1983.706 183.85777,1861.3118 304.82118,1810.6169 Z m -23.33079,-73.06 c -23.10675,-85.5751 -26.46806,-216.9413 -17.12534,-231.0155 21.65875,6.4554 43.48129,12.4368 65.39874,18.1251 -18.60786,14.083 -31.82032,36.4742 -38.02578,65.795 -15.031,71.0525 24.65814,129.091 63.04577,185.216 7.11918,10.4027 14.27256,20.9346 21.13302,31.5789 -28.79506,-4.4904 -50.833,-8.455 -62.18387,-11.282 -11.38527,-2.8442 -22.83093,-23.5807 -32.24254,-58.4175 z M 249.64697,1452.257 c -15.15167,-48.0061 -30.82046,-97.6584 -25.16658,-147.8882 7.36039,-65.3728 38.99098,-119.6621 72.90559,-177.8727 19.26279,-33.0612 39.08582,-68.6307 51.24682,-108.001 4.40417,-14.2637 7.87752,-28.88128 11.04059,-43.38643 11.47131,-45.58425 63.606,-70.33721 107.90592,-86.81614 55.74583,-20.72795 120.87729,-34.20773 204.96132,-42.44707 174.9855,-17.12537 326.03674,-5.84364 448.96527,33.53539 53.7635,17.21137 116.9126,43.75707 128.1601,96.5294 l 0.4227,1.18979 c 0.1221,0.32738 0.2663,0.61322 0.3884,0.91372 3.0077,13.54843 6.2915,27.16604 10.3942,40.48184 12.1522,39.3617 31.9838,74.9398 51.669,108.7336 33.4922,57.478 65.1229,111.7673 72.4833,177.1401 5.1454,45.662 -7.955,88.7899 -21.8313,134.4345 -4.1628,13.6951 -8.4722,27.8643 -12.1696,41.9385 -1.5782,5.9987 -4.0853,11.7903 -7.3603,17.4012 -17.9184,5.3523 -35.9572,10.3768 -54.0652,15.2033 56.7543,-97.6327 48.4371,-221.0437 -25.201,-313.4017 -4.7574,-5.9812 -9.4978,-25.3562 -15.4878,-49.8937 C 1229.6456,1071.242 1193.7917,924.53464 1071.6218,875.74406 962.97438,832.34051 861.36871,909.68452 817.43917,1006.9381 789.54903,945.14191 739.95712,894.31745 686.14183,872.9775 645.24612,856.75706 602.6869,857.74846 563.05818,875.82175 425.63307,938.53993 397.94131,1078.5853 383.0653,1153.835 c -4.46451,22.5207 -7.98086,40.3185 -12.59196,46.1101 -74.05182,92.8752 -82.0672,217.1826 -24.25285,315.0652 -2.23299,0.9748 -4.40417,2.0425 -6.52454,3.2061 -24.53747,-6.2572 -48.95426,-12.9108 -73.18144,-20.1247 -3.49057,-5.6624 -6.26583,-11.4713 -8.0671,-17.496 -2.82698,-9.4546 -5.80902,-18.892 -8.79974,-28.3382 z m 95.14186,-583.19285 c 0.68163,-4.05945 1.24109,-7.38621 1.57824,-9.73916 3.73183,-26.0026 17.00468,-46.98048 41.77474,-66.00189 67.09669,-51.54846 163.61729,-67.39827 248.82197,-78.20608 57.85715,-7.34314 115.76633,-11.0147 173.365,-11.0147 60.96867,0 121.58408,4.11972 181.38911,12.34201 82.04131,11.28185 174.67521,27.70045 235.54061,80.0246 20.0986,17.28036 31.372,36.67243 35.4485,61.00322 0.4984,2.93025 1.1385,6.42949 1.8519,10.36825 5.3609,29.26047 16.5048,90.13435 -2.6803,106.87176 -0.2443,0.21988 -0.5009,0.37135 -1.5001,0.59367 -1.6369,0.48373 -1.9813,-0.54237 -2.0937,-0.87951 l -0.2492,-0.62055 c -12.4368,-56.99547 -78.0769,-84.82526 -133.9173,-102.71752 -124.0318,-39.71496 -276.24647,-51.12617 -452.41272,-33.88891 -84.83406,8.29993 -150.64642,21.9434 -207.09878,42.93839 -46.66167,17.34939 -101.7437,43.70551 -113.61177,93.98686 -0.19545,0.80134 -0.51794,0.9919 -1.26797,1.3095 -0.34448,0.17102 -0.67185,0.25897 -1.24109,0.0977 -20.52958,-6.29977 -7.86017,-81.6788 -3.69738,-106.45765 z M 549.43108,621.50069 C 605.00467,548.22453 662.45675,472.45754 697.86234,388.16668 l 0.37135,-1.30143 c 13.78125,-34.20762 57.52977,-54.69427 117.01622,-54.79769 6.9638,-0.0174 14.08298,0.27583 21.27936,0.87048 59.71048,4.92127 124.46278,30.51881 141.65704,74.56035 0.36158,0.64644 0.59367,1.17219 0.71583,1.7065 20.92633,89.75513 65.58836,174.58899 108.77666,256.62174 11.7386,22.31382 23.5981,44.94654 35.0867,67.79471 -42.3867,-12.74707 -87.5229,-19.96092 -129.88372,-25.79577 -117.03333,-16.0825 -237.12638,-16.53066 -356.99516,-1.33588 -57.13326,7.24832 -119.27413,16.83234 -174.75268,37.75853 27.35583,-42.11098 58.15031,-82.98084 88.2986,-122.74753 z M 689.58855,288.77583 c 0,-93.31465 74.04314,-169.22813 165.04797,-169.22813 91.01338,0 165.06528,75.91348 165.06528,169.22813 0,40.80092 -14.2896,78.18024 -37.84474,107.44071 -24.8993,-47.3856 -102.54527,-72.80215 -166.54779,-72.68149 -48.87657,0.0855 -87.8073,13.72096 -109.84524,37.40516 -10.13543,-21.90875 -15.87548,-46.35136 -15.87548,-72.16438 z M 1342.4548,1667.7849 c -9.851,65.3296 -25.1837,107.3287 -42.0764,115.2147 -60.0809,28.0712 -347.02322,66.7346 -495.17866,66.7346 -45.47236,-0.1221 -108.88877,-4.5937 -175.29578,-11.0061 -5.87808,-10.0839 -12.29023,-20.2711 -19.38352,-30.5878 -3.55959,-5.1884 -7.18783,-10.3597 -10.82511,-15.5481 -18.5216,-26.4507 -37.68939,-53.798 -48.91957,-84.2651 -9.40299,-25.4939 -12.10065,-49.0058 -8.01555,-69.9148 3.40445,-17.4442 18.19422,-55.1423 37.25867,-65.9934 74.23298,9.2393 149.41387,14.3847 225.22386,15.2811 185.5607,-2.189 367.53586,-29.5106 540.91826,-81.2141 6.7657,9.5496 7.8775,84.5235 -3.7062,161.299 z m -537.00513,512.7943 c 55.85772,0 106.65628,21.8166 144.5355,57.2809 -16.19455,24.3046 -30.66525,49.7565 -43.25721,76.2048 -17.28905,36.3571 -71.05255,159.2236 -36.62078,214.4444 11.12659,17.8502 30.23428,27.0446 56.77119,27.3539 0.34448,0 0.69873,0.013 1.0432,0.013 4.54196,0 8.86868,-0.4251 13.07447,-1.0701 -36.75857,30.7276 -83.99778,49.3088 -135.54612,49.3088 -43.07618,0 -83.06697,-13.0901 -116.53347,-35.2763 2.0693,0.1465 4.1369,0.2858 6.28316,0.2858 0.35424,0 0.69872,-0.013 1.0603,-0.013 26.5369,-0.3029 45.62725,-9.5073 56.76264,-27.3541 34.43177,-55.2139 -19.33173,-178.0909 -36.62933,-214.4341 -15.20339,-31.9599 -33.25982,-62.3847 -53.70316,-91.1427 37.68085,-34.4852 87.78996,-55.6009 142.7601,-55.6009 z m 113.52553,-62.4675 c 1.74193,5.904 0.76713,12.411 -0.57657,21.4089 -2.07663,13.8245 -4.82658,32.9485 -0.12216,63.5991 -33.02698,-19.7995 -71.59565,-31.2264 -112.82753,-31.2264 -5.66236,0 -11.25607,0.2663 -16.81509,0.6914 7.19662,-18.0234 14.92755,-42.6039 20.49537,-74.6224 0.63765,-3.637 8.86844,-6.5416 20.96909,-7.343 34.5698,-2.3795 83.87734,10.5405 88.87616,27.4937 z m -49.89363,-137.0889 c 40.25782,-43.4383 40.62843,39.3788 35.60372,61.3219 -4.22314,18.4613 -12.24724,32.4236 -22.27077,45.188 -8.67886,-2.1548 -17.77181,-3.6715 -26.6317,-4.5593 -12.12655,-32.863 -7.33442,-79.6798 13.29875,-101.9506 z m -193.72259,10.4545 c -0.65475,-48.6785 -13.60902,-95.1417 -40.23217,-143.5358 64.51117,6.1278 125.77277,10.3597 170.05559,10.4889 96.19323,0 250.7181,-16.3237 364.5624,-35.5348 30.2257,34.6729 59.0381,72.1901 85.618,111.5518 -44.5671,64.7953 -112.9909,117.4728 -114.1372,118.257 -74.6381,46.7997 -137.7958,107.3978 -186.25016,177.9246 -8.2049,-7.5853 -16.97879,-14.5474 -26.25253,-20.8298 -6.37795,-34.3739 -3.44745,-54.8769 -1.26797,-69.3564 1.43165,-9.5752 2.57698,-17.1512 0.36158,-24.6581 -3.18042,-10.7733 -16.7203,-19.1334 -33.72498,-24.8475 17.21161,-24.3653 27.78655,-51.8674 25.79567,-87.4885 -1.2582,-22.538 -11.17839,-53.1171 -34.73325,-47.6269 -42.92983,10.015 -55.85796,78.6369 -41.71464,126.2982 -4.86078,-0.1465 -9.51488,-0.073 -13.8157,0.2199 -22.52925,1.6198 -28.51069,8.748 -29.51895,14.514 -5.83485,33.5268 -14.17777,58.8485 -21.63288,76.7513 -46.19625,5.6589 -88.01423,25.6474 -120.86019,55.3984 -13.85895,-18.9174 -28.81216,-37.0838 -44.76557,-54.3919 40.64578,-51.1347 63.41641,-114.8614 62.51148,-183.13 z m 129.88376,-412.4737 c -59.95161,-0.7061 -119.48106,-4.2058 -178.50185,-10.1701 l -0.80134,-2.7493 c -0.17101,-0.3273 -0.32737,-0.8111 -0.53504,-1.3779 -1.44875,-4.0076 -4.48185,-12.3334 -14.44504,-14.7035 -16.05652,-3.8181 -32.14772,-8.0498 -49.18685,-12.5231 -60.14975,-15.7892 -122.35952,-32.0441 -182.76823,-29.8118 -8.70475,0.3371 -16.90989,1.7834 -24.58048,4.2231 -56.81441,-95.0039 -49.23859,-216.1311 22.84832,-306.5328 5.92084,-7.4465 9.26495,-24.3132 14.31557,-49.8418 14.57428,-73.7072 41.71439,-210.92541 175.07175,-271.78219 20.02116,-9.12692 40.34406,-13.69502 60.84798,-13.69502 18.38356,0 36.89661,3.67173 55.42676,11.02325 54.38404,21.56398 104.38102,74.63804 130.47841,138.52836 l 4.025,9.8513 4.025,-9.8513 c 39.90455,-97.693 140.00209,-178.48446 246.9342,-135.77035 118.0159,47.12707 153.1801,191.00755 172.0638,268.30005 6.7312,27.5627 11.1869,45.7653 17.1425,53.2377 73.2591,91.8927 79.8953,215.5194 19.9867,311.1954 -152.5423,39.5599 -311.11774,60.5551 -472.34765,62.4512 z m -385.47115,296.1298 c -11.51455,-36.6811 -35.05231,-71.0955 -57.81439,-104.3637 -37.35347,-54.6166 -75.97375,-111.0863 -61.70986,-178.5192 9.88569,-46.6875 38.70665,-74.3534 79.09371,-75.8962 3.76652,-0.1466 7.52424,-0.2199 11.30786,-0.2199 55.65959,0 113.17226,15.1086 168.91784,29.743 17.08237,4.4904 33.22512,8.7309 49.38522,12.5749 3.24053,0.7744 5.11951,2.6632 6.46395,5.0332 -9.60112,-0.9821 -18.4527,-1.9569 -19.83159,-2.233 -33.97491,-6.1192 -57.15915,54.022 -61.34784,75.4912 -4.40417,22.4948 -1.57824,47.5751 8.37737,74.5777 11.63525,31.5357 31.12211,59.3482 49.97108,86.2559 3.61139,5.1625 7.23108,10.3079 10.77332,15.479 42.38674,61.7358 62.50294,118.464 63.30452,178.5277 1.61244,121.3083 -73.76756,227.9226 -192.02463,271.6356 -1.34371,0.4813 -2.58553,0.6572 -3.74063,0.5351 l -0.60344,-0.073 -0.61322,0.1221 c -1.79323,0.2932 -3.499,-0.171 -5.30054,-1.3901 -12.49692,-8.6358 -45.0844,-13.0832 -73.84501,-17.0125 -11.65234,-1.5855 -22.64994,-3.0871 -30.38942,-4.6453 -33.11299,-6.6972 -66.25195,-13.3258 -99.40813,-19.9115 -3.50777,-0.6962 -5.44698,-2.6424 -5.74865,-5.7908 -0.42217,-4.4636 2.50803,-9.4262 6.54159,-11.0655 130.06467,-52.7895 199.56586,-197.2475 158.23943,-328.8551 z m -2.66322,132.0212 c -14.81566,-15.367 -30.14829,-32.8975 -43.79175,-51.6517 13.52278,-19.9437 27.92458,-39.7841 43.08497,-59.4864 8.66175,37.2328 8.52396,75.0949 0.70605,111.1381 z m 849.82933,899.2303 c -2.8958,-2.6019 -5.964,-4.8515 -9.2134,-6.5209 -2.8354,-2.8716 -6.6879,-4.8007 -11.2299,-5.602 -15.057,-2.7072 -28.6573,0.3591 -39.2842,8.8411 -7.774,6.1976 -13.6951,15.2542 -17.4872,25.8894 -5.2661,-21.3485 -16.4186,-42.9115 -30.7256,-57.2771 -10.8251,-10.8613 -24.0809,-16.3592 -38.5775,-15.6283 -17.3408,0.7672 -35.4745,10.6519 -48.4888,26.4248 -8.5152,10.3358 -14.9276,22.0147 -19.1937,34.5351 -0.073,-0.3371 -0.1222,-0.6889 -0.171,-1.0163 -0.2761,-2.1988 -0.5937,-4.6627 -0.8356,-7.0061 -0.4471,-4.2317 -2.0522,-8.1206 -4.6455,-11.3086 -6.2573,-14.4699 -17.315,-23.5368 -31.2084,-25.5467 -17.22868,-2.5924 -37.08617,6.303 -50.68639,22.4354 -9.10151,10.8068 -16.01376,21.951 -20.75386,33.095 -38.0776,-3.1011 -76.54267,-5.8178 -112.84463,-5.8178 -41.27513,0 -84.64423,4.0871 -127.78099,9.1435 -4.74034,-11.9687 -12.00586,-23.9667 -21.78802,-35.5856 -13.60022,-16.1332 -33.46626,-25.0175 -50.69521,-22.4318 -13.8846,2.0058 -24.94254,11.0724 -31.19955,25.5423 -2.60288,3.1924 -4.19749,7.0872 -4.64555,11.3094 -0.24431,2.3429 -0.55947,4.8109 -0.84531,7.0053 -0.0489,0.3298 -0.0977,0.6841 -0.17102,1.0163 -4.26638,-12.5203 -10.67853,-24.1996 -19.20249,-34.5317 -13.00557,-15.7731 -31.13945,-25.651 -48.48885,-26.425 -14.48805,-0.7353 -27.74355,4.7636 -38.56866,15.6241 -14.30702,14.3657 -25.4595,35.9331 -30.73415,57.2806 -3.78362,-10.6346 -9.71326,-19.6945 -17.47888,-25.8932 -10.62673,-8.4797 -24.22696,-11.5472 -39.284,-8.84 -4.54196,0.8111 -8.39448,2.7304 -11.23018,5.602 -10.41125,5.3696 -19.25404,16.0489 -25.05444,28.7408 -23.39923,-10.2036 -44.48046,-24.5519 -62.56259,-44.4524 -79.11966,-87.0223 -78.83523,-342.758 -78.66285,-495.5648 l 0.0194,-19.3586 c 0,-32.8389 3.87841,-67.1656 11.0147,-102.4073 45.11022,38.7668 99.3304,68.5858 151.32705,94.9167 l 16.186,8.1707 c 59.624,30.0007 121.26501,61.0281 169.56428,108.087 8.19634,7.9828 16.03062,17.0117 24.33055,26.5801 21.24516,24.4693 43.08472,49.5135 72.71581,59.3416 37.66374,30.0266 85.30801,48.0491 137.10628,48.0491 59.90007,0 114.23232,-24.0555 154.00763,-62.9605 27.29548,-10.7905 47.92862,-34.5083 68.04462,-57.6952 8.2999,-9.5574 16.1342,-18.5905 24.322,-26.5697 48.3078,-47.0591 109.9574,-78.0864 169.5728,-108.0872 l 16.186,-8.1704 c 55.1338,-27.917 112.7584,-59.7552 159.3683,-102.0273 9.3685,41.6015 14.6087,82.817 14.6087,122.7724 0,203.4351 -13.178,423.4375 -110.9141,512.5971 -10.2476,9.3497 -21.564,17.1332 -33.7076,23.7247 z m 212.0114,-811.3538 c -26.7697,126.4197 -140.6485,193.5413 -245.288,246.5301 l -16.1687,8.1602 c -60.2103,30.3136 -122.4631,61.6339 -171.7276,109.6229 -8.4463,8.2376 -16.4015,17.3985 -24.8304,27.1152 -25.90783,29.8517 -52.70346,60.718 -93.04752,60.718 -0.30294,0 -0.61322,-0.013 -0.90395,-0.013 -23.39117,-0.2663 -40.03378,-8.093 -49.49711,-23.2602 -25.50275,-40.8947 2.43821,-133.2701 37.10329,-206.1015 50.02312,-105.1215 129.99589,-194.2378 231.26559,-257.7405 1.2582,-0.7916 73.216,-55.7111 118.8088,-124.4022 3.2923,-5.4557 3.1889,-9.6358 1.9227,-10.7132 -1.3193,-1.1116 -3.5855,-0.8795 -5.4124,0.8013 -0.1955,0.3274 -0.4325,0.6548 -0.6475,0.9748 -25.3305,-37.0947 -52.6516,-72.4832 -81.24,-105.4581 55.0132,-9.5584 99.3133,-19.7112 121.2135,-28.8813 6.8345,1.5171 14.2984,3.5507 17.8062,4.9814 120.9548,50.6867 187.0258,173.0894 160.6438,297.6641 z m -7.9032,52.5913 c 6.9897,-15.8413 12.5746,-32.6994 16.4013,-50.7988 27.2522,-128.7201 -40.9128,-255.1653 -165.7807,-307.4807 l -0.024,-0.01 c -0.1222,-0.049 -4.5679,-1.8543 -10.3942,-3.5769 43.7744,-40.5422 56.3664,-247.4859 43.7485,-280.6333 -0.794,-2.0766 -1.6979,-3.6026 -2.6373,-4.723 3.0598,-5.6193 5.473,-11.4197 7.0674,-17.453 3.6629,-13.9105 7.9464,-27.9934 12.0748,-41.611 13.5227,-44.4898 27.5109,-90.4876 22.1586,-137.9423 -7.5585,-67.1913 -41.1371,-124.8158 -74.0346,-181.277 -18.9956,-32.6305 -38.5599,-67.6999 -50.4538,-106.1826 -3.2235,-10.4457 -5.8779,-21.15008 -8.3601,-31.87185 0.5522,-0.0733 1.0848,-0.17102 1.6296,-0.33715 1.9813,-0.38845 3.6456,-1.18001 5.085,-2.43088 22.917,-20.00382 11.5835,-81.82587 5.5073,-115.03365 -0.7061,-3.88696 -1.3437,-7.34321 -1.8275,-10.23901 -4.4386,-26.45946 -16.634,-47.48914 -38.3705,-66.16578 -28.0365,-24.10646 -62.382,-40.74059 -99.2268,-52.824 -12.6611,-25.4424 -25.8304,-50.62624 -38.8704,-75.405 -42.9384,-81.55012 -87.3162,-165.87547 -107.9924,-254.55325 -0.32738,-1.37033 -0.86242,-2.69767 -1.38035,-3.47335 -0.14659,-0.38796 -0.37868,-0.74979 -0.53504,-1.13775 25.51249,-30.67392 41.06059,-70.31994 41.06059,-113.68921 0,-96.81385 -76.81823,-175.57151 -171.2534,-175.57151 -94.41783,0 -171.23634,78.75766 -171.23634,175.57151 0,27.7522 6.4036,53.97028 17.64257,77.31833 -4.22313,5.40393 -7.70528,11.22156 -10.23901,17.50459 -0.21988,0.5172 -0.33715,1.01706 -0.31027,1.16364 -34.97487,83.26525 -92.09958,158.60128 -147.3453,231.44653 -32.63903,43.0504 -66.16563,87.35052 -95.22796,133.31404 -23.38263,9.82532 -45.39468,21.82256 -64.99368,36.87941 -26.68349,20.4953 -41.00785,43.27448 -45.07585,71.68182 -0.34447,2.29162 -0.88684,5.55902 -1.55136,9.53222 -8.95468,53.2463 -14.79832,108.7075 9.67881,116.23175 0.89661,0.2663 1.79323,0.36158 2.66322,0.39578 -2.46484,10.66118 -5.10216,21.30527 -8.30848,31.69087 -11.88518,38.4912 -31.44961,73.5606 -50.8934,106.915 -32.45799,55.7285 -66.03646,113.353 -73.60363,180.5445 -5.85215,52.0656 10.09247,102.6056 25.51996,151.4737 2.97345,9.4029 5.94691,18.8145 8.76522,28.226 1.8184,6.0848 4.51616,11.9543 7.86885,17.6511 -14.53112,19.892 -5.80035,161.7042 15.14308,239.1689 9.04962,33.475 19.46097,53.6772 31.63919,61.434 -1.99088,0.7159 -3.21474,1.2143 -3.27506,1.2411 l -0.0269,0.01 c -124.86774,52.3155 -193.05027,178.7604 -165.78928,307.4807 1.96498,9.2994 4.42999,18.2543 7.26557,26.942 -20.55559,65.59 -31.38071,129.2029 -31.38071,188.7159 l -0.0194,21.8061 c -0.19789,173.4581 -0.53455,463.78 92.88377,564.4367 41.68001,44.9222 95.82268,66.0616 157.67896,73.9328 6.62787,14.0829 19.53865,23.2267 37.59484,26.1489 5.2143,0.8429 10.15277,1.2558 14.81567,1.2558 13.47953,0 24.53723,-3.4978 32.46654,-10.349 5.39533,-4.6629 8.83423,-10.0934 11.08359,-15.9446 0.72316,1.5758 1.51716,3.1276 2.40401,4.6358 12.48861,21.1159 38.43087,33.8385 69.37194,34.044 0.27607,0 0.55947,0 0.85265,0 15.08269,0 48.85067,-2.7675 60.1153,-26.5093 1.31927,-1.2851 2.43821,-2.7238 3.3529,-4.3194 3.78338,10.5679 10.35091,19.8059 21.21047,26.6236 9.24785,5.8344 19.68524,8.7903 30.43267,8.7903 5.61081,0 11.31641,-0.8013 16.97023,-2.4382 18.34911,-5.3194 33.83687,-18.6616 41.44736,-35.7171 4.07655,-9.1438 6.08477,-18.8836 6.08477,-28.9331 37.58605,-3.7741 74.92218,-6.491 110.75017,-6.491 37.18978,0 76.56858,2.4577 115.80958,5.481 -0.0195,10.1101 1.98135,19.9105 6.08477,29.1083 7.6017,17.0555 23.09801,30.3977 41.44737,35.7137 5.64526,1.6295 11.35062,2.4406 16.9702,2.4406 10.7474,0 21.1846,-2.9661 30.4327,-8.7905 10.8595,-6.8174 17.4268,-16.0658 21.2104,-26.6336 0.9138,1.5953 2.0254,3.0433 3.3527,4.3194 11.2561,23.7517 45.0326,26.5193 60.1067,26.5193 0.2932,0 0.5864,0 0.8625,0 30.941,-0.2199 56.8835,-12.9282 69.3719,-34.0438 0.8868,-1.5074 1.6809,-3.0705 2.404,-4.636 2.2501,5.8412 5.6883,11.2817 11.0836,15.9346 7.9293,6.8611 18.987,10.3592 32.4668,10.3592 4.6626,0 9.6011,-0.4154 14.8154,-1.2582 23.5634,-3.8178 38.4394,-18.1329 41.9128,-40.3091 0.8453,-5.4912 0.9039,-11.2046 0.3274,-16.9178 28.976,-9.905 55.22,-24.0276 77.5682,-43.9989 115.0855,-102.8726 130.6077,-353.0803 130.6077,-584.2607 0,-57.7384 -9.6788,-117.7658 -26.8557,-178.1149"
         style="fill:#000000;fill-opacity:1;fill-rule:nonzero;stroke:#000000;stroke-width:6.64777708;stroke-miterlimit:4;stroke-dasharray:none;stroke-opacity:1"
         id="path36" />
      <path
         inkscape:connector-curvature="0"
         d="m 917.59607,1406.1988 c -25.70088,39.077 -73.21567,94.0902 -98.31334,94.0902 -19.93518,0 -83.43783,-65.7694 -110.4487,-105.4325 -0.44708,-0.6646 -0.78423,-1.2314 -1.20689,-1.869 30.35498,24.9684 87.67807,55.1597 109.67277,55.1597 27.74355,0 79.19734,-28.795 108.27678,-54.7459 -2.27452,3.8611 -4.87813,8.0928 -7.98086,12.7987 z m 26.25253,-56.8492 c -11.32497,-20.9346 -31.19955,-30.6911 -50.58307,-39.9993 l -2.08641,3.8181 -1.67107,4.0164 c 19.44386,9.3427 39.55982,19.0041 48.97136,40.5855 1.31927,2.982 0.19545,7.1966 -3.29232,12.5142 -17.15981,25.6579 -86.97127,69.165 -117.88645,69.165 -24.21865,0 -103.00213,-44.9463 -118.69683,-67.7255 -2.69766,-3.9302 -3.57669,-7.1104 -2.59407,-9.4892 8.55816,-21.4433 31.19955,-34.2422 51.18627,-45.5413 5.70561,-3.189 12.35938,-6.9982 18.62519,-11.0318 6.49839,-4.3008 11.74713,-9.1186 16.54782,-13.6608 10.17011,-9.4892 18.96111,-17.6856 35.8021,-17.6856 14.23811,0 24.08061,9.3341 33.61284,18.3838 l 0.65475,0.6035 c 5.36944,5.0333 10.9199,10.2302 17.3582,13.8931 6.36915,3.6803 13.05736,6.8434 19.52131,9.9029 l 1.86164,-3.93 1.87874,-3.9216 -0.0193,-0.019 c -6.30905,-2.9821 -12.84189,-6.0677 -18.92667,-9.5755 -5.55926,-3.1716 -10.73032,-8.0153 -15.73793,-12.7039 l -0.62788,-0.5765 c -10.24756,-9.7306 -21.8657,-20.7539 -39.57692,-20.7539 -20.2799,0 -31.17391,10.1872 -41.75764,20.0556 -4.53341,4.2923 -9.47188,8.8172 -15.35852,12.7127 -6.00733,3.8784 -12.53162,7.5931 -18.12508,10.7389 -21.23661,11.9973 -45.29988,25.606 -54.9787,49.8418 -1.10428,2.6806 -1.29239,5.5678 -0.64742,8.6187 -0.12215,-0.1465 -0.26629,-0.2834 -0.38845,-0.447 -0.14659,5.8436 2.83546,15.1173 14.73798,32.6045 22.71028,33.3632 90.72044,109.2421 117.62797,109.2421 33.69053,0 87.64361,-70.7423 105.58766,-98.0033 27.76945,-42.3609 23.1757,-53.1342 21.65023,-56.685 -0.78424,-1.8348 -1.68818,-3.4648 -2.67177,-4.9473"
         style="fill:#000000;fill-opacity:1;fill-rule:nonzero;stroke:#000000;stroke-width:6.64777708;stroke-miterlimit:4;stroke-dasharray:none;stroke-opacity:1"
         id="path38" />
    </g>
  </g>
</svg>
