<?xml version="1.0" encoding="UTF-8" standalone="no"?>
<svg
   viewBox="0 0 400 400.00001"
   height="400"
   width="400"
   xml:space="preserve"
   id="svg2"
   version="1.1"
   sodipodi:docname="pig.svg"
   inkscape:version="1.3 (0e150ed6c4, 2023-07-21)"
   xmlns:inkscape="http://www.inkscape.org/namespaces/inkscape"
   xmlns:sodipodi="http://sodipodi.sourceforge.net/DTD/sodipodi-0.dtd"
   xmlns="http://www.w3.org/2000/svg"
   xmlns:svg="http://www.w3.org/2000/svg"
   xmlns:rdf="http://www.w3.org/1999/02/22-rdf-syntax-ns#"
   xmlns:cc="http://creativecommons.org/ns#"
   xmlns:dc="http://purl.org/dc/elements/1.1/"><sodipodi:namedview
     id="namedview1"
     pagecolor="#ffffff"
     bordercolor="#000000"
     borderopacity="0.25"
     inkscape:showpageshadow="2"
     inkscape:pageopacity="0.0"
     inkscape:pagecheckerboard="0"
     inkscape:deskcolor="#d1d1d1"
     inkscape:zoom="0.59312098"
     inkscape:cx="853.95731"
     inkscape:cy="427.40015"
     inkscape:window-width="2560"
     inkscape:window-height="1369"
     inkscape:window-x="1072"
     inkscape:window-y="259"
     inkscape:window-maximized="1"
     inkscape:current-layer="svg2" /><metadata
     id="metadata8"><rdf:RDF><cc:Work
         rdf:about=""><dc:format>image/svg+xml</dc:format><dc:type
           rdf:resource="http://purl.org/dc/dcmitype/StillImage" /></cc:Work></rdf:RDF></metadata><defs
     id="defs6" /><path
     id="path634"
     style="fill:#ffffff;fill-opacity:1;fill-rule:evenodd;stroke:none;stroke-width:0.133333"
     d="m 105.78209,70.693166 c 11.32,11.588 13.3867,25.55867 1.8934,36.988004 -11.426697,11.48133 -25.973397,10 -36.986697,-1.90533 -8.6133,-9.418674 -3.4267,-39.421333 -9.68,-44.765333 5.9867,5.92666 36.6133,1.428 44.773297,9.682659 v 0" /><path
     id="path636"
     style="fill:#000000;fill-opacity:1;fill-rule:nonzero;stroke:none;stroke-width:0.133333"
     d="m 65.262093,65.125167 c 0.9467,3.74134 1.24,8.749339 1.5734,14.477339 0.5466,9.504 1.1733,20.27466 5.3333,24.822664 5.4,5.844 11.6,9 17.9067,9.116 0.1066,0.003 0.2266,0.003 0.3466,0.003 5.6267,0 11.093397,-2.50934 15.839997,-7.27467 10.1467,-10.096004 9.44,-22.549334 -1.9066,-34.174664 -3.8934,-3.925339 -14.706697,-4.643999 -24.239997,-5.277339 -5.6934,-0.37733 -10.92,-0.724 -14.8534,-1.692 z m 25.16,52.418673 c -0.1466,0 -0.28,0 -0.4266,-0.003 -7.4267,-0.13733 -14.6,-3.736 -20.7734,-10.408 -5.1333,-5.604 -5.8,-17.129334 -6.3866,-27.298664 -0.4,-7.03734 -0.8667,-14.990669 -2.960001,-17.151999 -0.093,-0.0813 -0.1867,-0.16667 -0.2667,-0.252 -0.7733,-0.75733 -0.8,-1.984 -0.067,-2.77467 0.733401,-0.792 1.946701,-0.864 2.773401,-0.16533 0.093,0.084 0.1866,0.172 0.28,0.26267 2.4533,2.056 10.5866,2.596 17.7733,3.072 10.76,0.71466 21.879997,1.45333 26.826697,6.463989 0.013,0.003 0.013,0.004 0.013,0.007 12.7333,13.032 13.4533,28.28267 1.88,39.802664 -5.5067,5.52934 -11.946697,8.44534 -18.666697,8.44534" /><path
     id="path638"
     style="fill:#ffffff;fill-opacity:1;fill-rule:evenodd;stroke:none;stroke-width:0.133333"
     d="m 106.03549,92.811836 c 5.24,5.344 5.8266,10.741334 1.64,14.921334 -4.1734,4.18 -9.786697,3.81067 -14.866697,-1.64 -4.0133,-4.33867 -3.8533,-12.700004 -4.3867,-17.673334 4.44,0.42267 13.866697,0.58133 17.613397,4.392 v 0" /><path
     id="path640"
     style="fill:#000000;fill-opacity:1;fill-rule:nonzero;stroke:none;stroke-width:0.133333"
     d="m 90.622093,90.603836 c 0,0.172 0.013,0.344 0.027,0.51867 0.3467,4.696 0.7867,10.537334 3.6267,13.610664 2.3066,2.464 4.72,3.78933 6.999997,3.83067 1.7866,0.0147 3.4666,-0.72267 4.9866,-2.244 4.2667,-4.26267 1.4667,-8.936004 -1.6533,-12.106674 -2.6533,-2.69733 -9.639997,-3.27866 -13.986697,-3.60933 z m 10.759997,21.960004 c -0.053,0 -0.12,0 -0.1733,-0.001 -3.386697,-0.06 -6.799997,-1.82533 -9.853297,-5.10533 -3.8134,-4.10667 -4.32,-11.004004 -4.6934,-16.040004 -0.067,-1.00266 -0.1466,-1.944 -0.2266,-2.78666 -0.067,-0.596 0.1466,-1.19067 0.56,-1.61734 0.4266,-0.42666 1.0133,-0.64266 1.6133,-0.584 0.6,0.056 1.28,0.108 2.0267,0.164 5.2,0.39334 13.053297,0.988 16.826597,4.81334 0,0.003 0.013,0.003 0.013,0.005 6,6.12267 6.6,12.752004 1.6266,17.736004 -2.24,2.23733 -4.9066,3.416 -7.72,3.416" /><path
     id="path642"
     style="fill:#ffffff;fill-opacity:1;fill-rule:evenodd;stroke:none;stroke-width:0.133333"
     d="m 298.6488,70.693166 c -11.3733,11.588 -13.3867,25.55867 -1.96,36.988004 11.48,11.48133 26.04,10 36.9866,-1.90533 8.68,-9.418674 3.44,-39.421333 9.7467,-44.765333 -5.9867,5.92666 -36.6266,1.428 -44.7733,9.682659 v 0" /><path
     id="path644"
     style="fill:#000000;fill-opacity:1;fill-rule:nonzero;stroke:none;stroke-width:0.133333"
     d="m 300.0755,72.095836 c -11.2134,11.42 -11.9467,24.19333 -1.9734,34.170664 4.88,4.87867 10.52,7.38934 16.2934,7.27467 6.2799,-0.132 12.4399,-3.28533 17.8133,-9.12 4.1866,-4.544004 4.8133,-15.306664 5.36,-24.802664 0.3333,-5.73334 0.6266,-10.742669 1.5733,-14.487999 -3.9333,0.964 -9.1467,1.30933 -14.8267,1.68666 -9.5466,0.63334 -20.3599,1.352 -24.2399,5.278669 z m 13.9066,45.448004 c -6.7066,0 -13.1733,-2.91467 -18.7066,-8.44934 -11.56,-11.557334 -10.8134,-26.807994 1.9466,-39.802664 0,0 0,-0.003 0,-0.003 4.9467,-5.010659 16.08,-5.749329 26.8267,-6.463989 7.1866,-0.476 15.2933,-1.01467 17.7733,-3.06134 0.093,-0.0973 0.2,-0.19066 0.2933,-0.27866 0.8267,-0.696 2.0534,-0.61734 2.7734,0.172 0.7333,0.792 0.6933,2.01733 -0.067,2.77333 -0.093,0.0907 -0.1867,0.18 -0.28,0.26667 -2.1067,2.17733 -2.5733,10.121329 -2.9867,17.151989 -0.5866,10.16534 -1.2533,21.686674 -6.4,27.281334 -6.1333,6.65467 -13.28,10.25467 -20.6799,10.40934 -0.16,0.003 -0.32,0.004 -0.4934,0.004" /><path
     id="path646"
     style="fill:#ffffff;fill-opacity:1;fill-rule:evenodd;stroke:none;stroke-width:0.133333"
     d="m 298.3288,92.811836 c -5.24,5.344 -5.8133,10.741334 -1.64,14.921334 4.1867,4.18 9.7867,3.81067 14.92,-1.64 4.0267,-4.33867 3.8133,-12.700004 4.3467,-17.673334 -4.4,0.42267 -13.8667,0.58133 -17.6267,4.392 v 0" /><path
     id="path648"
     style="fill:#000000;fill-opacity:1;fill-rule:nonzero;stroke:none;stroke-width:0.133333"
     d="m 299.7555,94.213166 c -3.1067,3.17067 -5.9067,7.844004 -1.6534,12.106674 1.52,1.516 3.24,2.26533 4.9867,2.244 2.2933,-0.0347 4.7333,-1.36267 7.0667,-3.84267 2.8133,-3.036 3.2266,-8.836004 3.56,-13.497334 0.013,-0.20933 0.027,-0.416 0.04,-0.62 -4.3467,0.33333 -11.3334,0.916 -14,3.60933 z m 3.24,18.350674 c -2.8134,0 -5.48,-1.17867 -7.72,-3.416 -4.9867,-4.984 -4.3734,-11.613334 1.6266,-17.736004 0,-0.003 0,-0.003 0,-0.005 3.7734,-3.81867 11.6267,-4.416 16.8267,-4.81067 0.7467,-0.0573 1.44,-0.11067 2.0267,-0.16667 0.6,-0.056 1.2,0.156 1.6133,0.58267 0.4267,0.428 0.64,1.02133 0.5733,1.61867 -0.093,0.868 -0.16,1.84 -0.24,2.87733 -0.3733,5.28533 -0.84,11.865334 -4.6266,15.945334 -3.0934,3.296 -6.5334,5.05867 -9.9334,5.10933 -0.053,10e-4 -0.093,10e-4 -0.1466,10e-4" /><path
     id="path650"
     style="fill:#ffffff;fill-opacity:1;fill-rule:evenodd;stroke:none;stroke-width:0.133333"
     d="m 263.8888,269.91582 v 66.61867 c 0,7.56667 -6.2,13.70533 -13.7067,13.70533 h -25.0266 v -10.00133 c 0,-12.59333 -10.2667,-22.912 -22.8667,-22.912 -12.5867,0.0533 -22.9067,10.31867 -22.9067,22.912 v 10.00133 h -24.9733 c -7.5733,0 -13.76,-6.13866 -13.76,-13.70533 v -66.61867 c 38.4667,-0.476 86.3067,-0.0533 123.24,0 v 0" /><path
     id="path652"
     style="fill:#000000;fill-opacity:1;fill-rule:nonzero;stroke:none;stroke-width:0.133333"
     d="m 227.1555,348.23982 h 23.0266 c 6.4534,0 11.7067,-5.25066 11.7067,-11.70533 v -64.62267 c -9.6133,-0.016 -19.9333,-0.056 -30.6,-0.0973 -28.7333,-0.112 -61.2,-0.23867 -88.64,0.0773 v 64.64267 c 0,6.45467 5.28,11.70533 11.76,11.70533 h 22.9733 v -8.00133 c 0,-13.67733 11.1734,-24.85333 24.9067,-24.912 13.7067,0 24.8667,11.176 24.8667,24.912 z m 23.0266,4 h -25.0266 c -1.1067,0 -2,-0.89466 -2,-2 v -10.00133 c 0,-11.53067 -9.36,-20.912 -20.8667,-20.912 -11.52,0.0493 -20.9067,9.43067 -20.9067,20.912 v 10.00133 c 0,1.10534 -0.8933,2 -2,2 h -24.9733 c -8.6933,0 -15.76,-7.04533 -15.76,-15.70533 v -66.61867 c 0,-1.09466 0.88,-1.98666 1.9733,-2 27.88,-0.34533 61.24,-0.216 90.68,-0.10133 11.4,0.044 22.4134,0.0867 32.5867,0.10133 1.1067,10e-4 2,0.896 2,2 v 66.61867 c 0,8.66 -7.0533,15.70533 -15.7067,15.70533" /><path
     id="path654"
     style="fill:#ffffff;fill-opacity:1;fill-rule:evenodd;stroke:none;stroke-width:0.133333"
     d="m 322.5688,173.34649 c 0,62.06933 -53.8667,112.39067 -120.28,112.39067 -66.4533,0 -120.320007,-50.32134 -120.320007,-112.39067 0,-62.01465 53.866707,-112.335983 120.320007,-112.335983 66.4133,0 120.28,50.321333 120.28,112.335983 v 0" /><path
     id="path656"
     style="fill:#000000;fill-opacity:1;fill-rule:nonzero;stroke:none;stroke-width:0.133333"
     d="m 202.2888,63.010507 c -65.24,0 -118.320007,49.497333 -118.320007,110.337323 0,60.86799 53.080007,110.38933 118.320007,110.38933 65.2267,0 118.28,-49.52134 118.28,-110.38933 0,-60.83999 -53.0533,-110.337323 -118.28,-110.337323 z m 0,224.726653 c -67.4533,0 -122.320007,-51.31467 -122.320007,-114.38933 0,-63.04666 54.866707,-114.337323 122.320007,-114.337323 67.4267,0 122.28,51.290663 122.28,114.337323 0,63.07466 -54.8533,114.38933 -122.28,114.38933" /><path
     id="path658"
     style="fill:#ffffff;fill-opacity:1;fill-rule:evenodd;stroke:none;stroke-width:0.133333"
     d="m 237.4221,215.30783 c 0,15.39866 -15.76,27.83333 -35.1333,27.83333 -19.4133,0 -35.1867,-12.43467 -35.1867,-27.83333 0,-15.39734 15.7734,-27.88534 35.1867,-27.88534 19.3733,0 35.1333,12.488 35.1333,27.88534 v 0" /><path
     id="path660"
     style="fill:#000000;fill-opacity:1;fill-rule:nonzero;stroke:none;stroke-width:0.133333"
     d="m 202.2888,189.42249 c -18.2933,0 -33.1867,11.612 -33.1867,25.88534 0,14.24533 14.8934,25.83333 33.1867,25.83333 18.28,0 33.1333,-11.588 33.1333,-25.83333 0,-14.27334 -14.8533,-25.88534 -33.1333,-25.88534 z m 0,55.71867 c -20.5067,0 -37.1867,-13.38267 -37.1867,-29.83333 0,-16.47867 16.68,-29.88534 37.1867,-29.88534 20.48,0 37.1333,13.40667 37.1333,29.88534 0,16.45066 -16.6533,29.83333 -37.1333,29.83333" /><path
     id="path662"
     style="fill:#ffffff;fill-opacity:1;fill-rule:evenodd;stroke:none;stroke-width:0.133333"
     d="m 196.3688,215.30783 c 0,2.488 -2.2267,4.49866 -4.9733,4.49866 -2.76,0 -4.9734,-2.01066 -4.9734,-4.49866 0,-2.54 2.2134,-4.55067 4.9734,-4.55067 2.7466,0 4.9733,2.01067 4.9733,4.55067 v 0" /><path
     id="path664"
     style="fill:#000000;fill-opacity:1;fill-rule:nonzero;stroke:none;stroke-width:0.133333"
     d="m 191.3955,212.75716 c -1.64,0 -2.9734,1.14533 -2.9734,2.55067 0,1.37733 1.3334,2.49866 2.9734,2.49866 1.64,0 2.9733,-1.12133 2.9733,-2.49866 0,-1.40534 -1.3333,-2.55067 -2.9733,-2.55067 z m 0,9.04933 c -3.8534,0 -6.9734,-2.91466 -6.9734,-6.49866 0,-3.612 3.12,-6.55067 6.9734,-6.55067 3.84,0 6.9733,2.93867 6.9733,6.55067 0,3.584 -3.1333,6.49866 -6.9733,6.49866" /><path
     id="path666"
     style="fill:#ffffff;fill-opacity:1;fill-rule:evenodd;stroke:none;stroke-width:0.133333"
     d="m 218.1688,215.30783 c 0,2.488 -2.28,4.49866 -5.0267,4.49866 -2.76,0 -4.9733,-2.01066 -4.9733,-4.49866 0,-2.54 2.2133,-4.55067 4.9733,-4.55067 2.7467,0 5.0267,2.01067 5.0267,4.55067 v 0" /><path
     id="path668"
     style="fill:#000000;fill-opacity:1;fill-rule:nonzero;stroke:none;stroke-width:0.133333"
     d="m 213.1421,212.75716 c -1.64,0 -2.9733,1.14533 -2.9733,2.55067 0,1.37733 1.3333,2.49866 2.9733,2.49866 1.64,0 3.0267,-1.144 3.0267,-2.49866 0,-1.40534 -1.36,-2.55067 -3.0267,-2.55067 z m 0,9.04933 c -3.8533,0 -6.9733,-2.91466 -6.9733,-6.49866 0,-3.612 3.12,-6.55067 6.9733,-6.55067 3.8667,0 7.0267,2.93867 7.0267,6.55067 0,3.584 -3.16,6.49866 -7.0267,6.49866" /><path
     id="path670"
     style="fill:#ffffff;fill-opacity:1;fill-rule:evenodd;stroke:none;stroke-width:0.133333"
     d="m 167.1021,170.17183 c 0,11.324 -4.0666,20.47866 -9.1466,20.47866 -5.08,0 -9.16,-9.15466 -9.16,-20.47866 0,-11.27066 4.08,-20.42399 9.16,-20.42399 5.08,0 9.1466,9.15333 9.1466,20.42399 v 0" /><path
     id="path672"
     style="fill:#000000;fill-opacity:1;fill-rule:nonzero;stroke:none;stroke-width:0.133333"
     d="m 157.9555,151.74784 c -3.3867,0 -7.16,7.87999 -7.16,18.42399 0,10.576 3.7733,18.47866 7.16,18.47866 3.3733,0 7.1466,-7.90266 7.1466,-18.47866 0,-10.544 -3.7733,-18.42399 -7.1466,-18.42399 z m 0,40.90265 c -6.36,0 -11.16,-9.664 -11.16,-22.47866 0,-12.78399 4.8,-22.42399 11.16,-22.42399 6.36,0 11.1466,9.64 11.1466,22.42399 0,12.81466 -4.7866,22.47866 -11.1466,22.47866" /><path
     id="path674"
     style="fill:#ffffff;fill-opacity:1;fill-rule:evenodd;stroke:none;stroke-width:0.133333"
     d="m 255.7421,170.17183 c 0,11.324 -4.08,20.47866 -9.16,20.47866 -5.08,0 -9.16,-9.15466 -9.16,-20.47866 0,-11.27066 4.08,-20.42399 9.16,-20.42399 5.08,0 9.16,9.15333 9.16,20.42399 v 0" /><path
     id="path676"
     style="fill:#000000;fill-opacity:1;fill-rule:nonzero;stroke:none;stroke-width:0.133333"
     d="m 246.5821,151.74784 c -3.3733,0 -7.16,7.87999 -7.16,18.42399 0,10.576 3.7867,18.47866 7.16,18.47866 3.3734,0 7.16,-7.90266 7.16,-18.47866 0,-10.544 -3.7866,-18.42399 -7.16,-18.42399 z m 0,40.90265 c -6.36,0 -11.16,-9.664 -11.16,-22.47866 0,-12.78399 4.8,-22.42399 11.16,-22.42399 6.36,0 11.16,9.64 11.16,22.42399 0,12.81466 -4.8,22.47866 -11.16,22.47866" /><path
     id="path678"
     style="fill:#000000;fill-opacity:1;fill-rule:evenodd;stroke:none;stroke-width:0.133333"
     d="m 246.5821,164.77449 c 0.8934,0 1.8,0.212 2.5867,0.52934 -0.7333,0.476 -1.2133,1.32266 -1.2133,2.22266 0,1.53467 1.2666,2.752 2.76,2.752 0.9466,0 1.7866,-0.424 2.2666,-1.164 0.32,0.79334 0.48,1.69334 0.48,2.592 0,3.81067 -3.0666,6.87867 -6.88,6.87867 -3.8133,0 -6.88,-3.068 -6.88,-6.87867 0,-3.80933 3.0667,-6.932 6.88,-6.932 v 0" /><path
     id="path680"
     style="fill:#000000;fill-opacity:1;fill-rule:evenodd;stroke:none;stroke-width:0.133333"
     d="m 157.9555,164.77449 c 0.8933,0 1.8,0.212 2.5866,0.52934 -0.7333,0.476 -1.2133,1.32266 -1.2133,2.22266 0,1.53467 1.2667,2.752 2.7467,2.752 0.96,0 1.8,-0.424 2.28,-1.164 0.32,0.79334 0.48,1.69334 0.48,2.592 0,3.81067 -3.08,6.87867 -6.88,6.87867 -3.8134,0 -6.88,-3.068 -6.88,-6.87867 0,-3.80933 3.0666,-6.932 6.88,-6.932 v 0" /><path
     id="path682"
     style="fill:#000000;fill-opacity:1;fill-rule:evenodd;stroke:none;stroke-width:0.133333"
     d="m 189.4355,251.71316 c 11.3733,5.13333 13.7066,4.65733 25.6666,0 -6.5066,10.372 -21.7466,8.36133 -25.6666,0 v 0" /><path
     id="path684"
     style="fill:#000000;fill-opacity:1;fill-rule:nonzero;stroke:none;stroke-width:0.133333"
     d="m 202.1421,260.75849 c -0.3866,0 -0.7733,-0.012 -1.1733,-0.036 -5.96,-0.364 -11.2,-3.568 -13.3467,-8.16133 -0.36,-0.75734 -0.2,-1.656 0.3867,-2.252 0.5867,-0.59467 1.48,-0.764 2.2533,-0.41867 10.76,4.856 12.4,4.51733 24.1067,-0.0413 0.8133,-0.312 1.72,-0.0747 2.2667,0.58933 0.56,0.66533 0.6133,1.60667 0.16,2.33733 -3.1734,5.05467 -8.5867,7.98267 -14.6534,7.98267" /><path
     id="path686"
     style="fill:#ffffff;fill-opacity:1;fill-rule:evenodd;stroke:none;stroke-width:0.133333"
     d="m 253.0888,217.05449 c -8.52,11.00667 -8.7867,25.13467 -0.5867,31.53733 8.2667,6.34934 21.8667,2.64534 30.4267,-8.36133 8.52,-11.00533 8.7867,-25.13333 0.5333,-31.536 -8.2,-6.35066 -21.8,-2.64666 -30.3733,8.36 z m -101.64,0 c 8.56,11.00667 8.7733,25.13467 0.5733,31.53733 -8.2533,6.34934 -21.8533,2.64534 -30.37331,-8.36133 -8.5733,-11.00533 -8.84,-25.13333 -0.5733,-31.536 8.25331,-6.35066 21.85331,-2.64666 30.37331,8.36 v 0" /><path
     id="path688"
     style="fill:#000000;fill-opacity:1;fill-rule:nonzero;stroke:none;stroke-width:0.133333"
     d="m 254.6755,218.27849 c -7.84,10.12667 -8.2667,23.01867 -0.9334,28.736 7.3734,5.668 19.76,2.076 27.6134,-8.01333 7.84,-10.13067 8.24,-23.02 0.88,-28.72667 -7.3334,-5.67866 -19.6934,-2.08933 -27.56,8.00534 z m 7.3466,35.38 c -3.9466,0 -7.6666,-1.12133 -10.7333,-3.48133 -9.0667,-7.07867 -8.96,-22.48267 0.2267,-34.34667 0,-0.003 0,-0.004 0,-0.005 9.2133,-11.832 24.0933,-15.74133 33.1733,-8.712 9.0933,7.05733 9.0267,22.46267 -0.1733,34.34133 -6.1067,7.84267 -14.72,12.204 -22.4934,12.204 z m -131.36,-46.07866 c -3.0933,0 -6.00001,0.86933 -8.37331,2.7 -2.8133,2.18533 -4.5867,5.496 -5.0933,9.56933 -0.7734,6.15333 1.48,13.312 6.04,19.152 7.81331,10.1 20.18661,13.68933 27.57331,8.00533 7.3467,-5.73333 6.92,-18.62266 -0.9467,-28.72266 0,-0.003 0,-0.004 0,-0.005 -5.2933,-6.844 -12.6933,-10.69866 -19.2,-10.69866 z m 11.84,46.08533 c -7.7733,0 -16.36001,-4.364 -22.42661,-12.21067 -5.2667,-6.75333 -7.76,-14.812 -6.8534,-22.10266 0.6534,-5.14934 2.9334,-9.38134 6.6267,-12.23734 9.13331,-7.03066 24.01331,-3.11866 33.17331,8.71334 9.2134,11.84 9.32,27.24399 0.2267,34.33999 -3.08,2.36934 -6.8133,3.49734 -10.7467,3.49734" /></svg>
