<svg width="503.726" height="470.951" xmlns="http://www.w3.org/2000/svg"><g fill="none" stroke="#000" stroke-width="2" stroke-miterlimit="10"><path d="M242.348 378.528s.355-13.619 2.469-12.21c2.114 1.409 2.69 11.211 2.69 11.211s11.988.529 10.344 2.878c-1.644 2.349-10.335 3.523-10.335 3.523s.705 13.624-1.88 13.389c-2.583-.235-3.522-11.979-3.522-11.979s-12.214-.705-10.57-3.288c1.644-2.584 10.804-3.524 10.804-3.524zM119.107 178.524s-.334-11.035 1.822-9.69c2.156 1.345 3.643 8.707 3.643 8.707s11.66-.006 10.087 2.392c-1.572 2.398-10.224 3.835-10.224 3.835s1.117 13.596-1.473 13.439c-2.59-.157-3.884-11.867-3.884-11.867s-12.23-.335-10.665-2.967c1.566-2.633 10.694-3.849 10.694-3.849zM433.37 197.787s1.558-12.794 3.068-11.405c1.51 1.389.898 11.388.898 11.388s9.827 1.613 8.222 3.282c-1.606 1.668-8.686 1.518-8.686 1.518s-1.143 10.957-3.174 10.446c-2.032-.511-1.312-9.998-1.312-9.998s-9.656-2.091-8.021-3.946c1.635-1.857 9.006-1.285 9.006-1.285zM244.087 34.28s1.237-8.743 2.753-7.39c1.516 1.353.543 8.236.543 8.236s10.337.703 8.77 2.379c-1.564 1.676-8.58 1.633-8.58 1.633s-.967 10.868-2.987 10.393c-2.02-.476-1.45-9.882-1.45-9.882s-9.593-1.926-8.002-3.788c1.593-1.863 8.953-1.581 8.953-1.581z"/><path d="M158.443 247.223s7.157-4.048 4.804-13.179c0 0 5.176 10.475 10.816 8.303 0 0-6.228 5.738-3.524 13.402 0 0-4.15-8.607-12.096-8.526zM337.62 213.471s6.299.193 8.387-6.726c0 0-.772 8.922 3.786 9.74 0 0-6.362 1.284-7.637 7.381 0 .001.704-7.289-4.536-10.395zM318.18 430.715s6.234-.925 7.064-8.104c0 0 .819 8.917 5.45 8.916 0 0-6.034 2.39-6.21 8.616.002 0-.597-7.298-6.304-9.428zM171.613 425.606s6.074-1.679 6.022-8.906c0 0 1.9 8.751 6.499 8.184 0 0-5.698 3.109-5.111 9.31-.001 0-1.486-7.171-7.41-8.588zM32.577 436.09c7.935 1.443 6.13 9.738-1.443 10.46-7.574.72-6.492-11.903 1.443-10.46zM288.473 137.597c9.652 1.755 7.458 11.846-1.755 12.723-9.213.877-7.897-14.478 1.755-12.723zM49.496 151.607c6.224 1.132 4.809 7.638-1.132 8.204-5.94.566-5.092-9.336 1.132-8.204zM436.259 429.153c6.224 1.132 4.809 7.638-1.132 8.204-5.941.566-5.092-9.336 1.132-8.204z" stroke-linecap="round" stroke-linejoin="round"/></g><path d="M31.158 374.419c-2.467 10.57 30.054 67.017 33.155 63.282 3.1-3.734 19.969-41.779 18.255-44.78-1.715-3.001-17.948-44.871-20.073-46.111-2.126-1.239-28.87 17.039-31.337 27.609z" fill="#fff"/><path d="M31.158 374.419c-2.467 10.57 30.054 67.017 33.155 63.282 3.1-3.734 19.969-41.779 18.255-44.78-1.715-3.001-17.948-44.871-20.073-46.111-2.126-1.239-28.87 17.039-31.337 27.609z" fill="none" stroke="#000" stroke-width="2" stroke-miterlimit="10"/><path d="M178.194 317.694c7.9 6.602 15.467 67.935 10.986 66.874-4.481-1.06-38.973-20.265-39.386-23.517-.413-3.252-12.005-44.245-11.101-46.397.904-2.152 31.6-3.562 39.5 3.04z" fill="#fff"/><path d="M178.194 317.694c7.9 6.602 15.467 67.935 10.986 66.874-4.481-1.06-38.973-20.265-39.386-23.517-.413-3.252-12.005-44.245-11.101-46.397.904-2.152 31.6-3.562 39.5 3.04z" fill="none" stroke="#000" stroke-width="2" stroke-miterlimit="10"/><path d="M79.05 399.044S2.293 278.582 63.443 202.932c0 0 92.893 36.377 97.554 168.358 0 0-39.397 48.817-81.945 27.754z" fill="#fff"/><path d="M85.993 323.759c1.396 3.151-.761 7.168-4.82 8.973-4.056 1.804-8.476.712-9.872-2.439-1.396-3.151.76-7.169 4.819-8.973 4.056-1.805 8.477-.713 9.873 2.439z" fill="#fff"/><path d="M85.993 323.759c1.396 3.151-.761 7.168-4.82 8.973-4.056 1.804-8.476.712-9.872-2.439-1.396-3.151.76-7.169 4.819-8.973 4.056-1.805 8.477-.713 9.873 2.439z" fill="none" stroke="#000" stroke-miterlimit="10"/><path d="M125.75 310.912c1.305 3.19-.968 7.143-5.076 8.829-4.108 1.686-8.494.466-9.798-2.724-1.304-3.191.969-7.144 5.077-8.83 4.107-1.685 8.494-.465 9.798 2.725z" fill="#fff"/><path d="M125.75 310.912c1.305 3.19-.968 7.143-5.076 8.829-4.108 1.686-8.494.466-9.798-2.724-1.304-3.191.969-7.144 5.077-8.83 4.107-1.685 8.494-.465 9.798 2.725z" fill="none" stroke="#000" stroke-miterlimit="10"/><path fill="none" stroke="#000" stroke-width="3" stroke-linecap="round" stroke-linejoin="round" stroke-miterlimit="10" d="M70.018 306.076l15.942 5.903-15.603 7.171M111.306 291.821l-9.337 14.513 16.155-3.32"/><path d="M98.855 309.353s1.827 3.228-.27 4.146c-2.318 1.015-3.944-2.417-3.944-2.417s.515 3.725-1.754 4.021c-2.51.328-2.781-3.145-2.781-3.145" fill="none" stroke="#000" stroke-width="1.5" stroke-linejoin="round" stroke-miterlimit="10"/><path d="M71.5 385.003s49.645 3.959 88.229-35.27" fill="none" stroke="#000" stroke-width="1.75" stroke-miterlimit="10"/><path d="M79.05 399.044S2.293 278.582 63.443 202.932c0 0 92.893 36.377 97.554 168.358 0 0-39.397 48.817-81.945 27.754z" fill="none" stroke="#000" stroke-width="2" stroke-miterlimit="10"/><path d="M110.882 357.414c9.505-5.456 39.56 69.017 27.979 75.402-11.582 6.385-37.484-69.946-27.98-75.402z" fill="#fff"/><path d="M110.882 357.414c9.505-5.456 39.56 69.017 27.979 75.402-11.582 6.385-37.484-69.946-27.98-75.402zM39.819 277.241c22.69-1.085 59.204-11.679 75.045-34.712-25.255-29.349-51.422-39.596-51.422-39.596-18.016 22.288-24.06 48.466-23.623 74.308z" fill="none" stroke="#000" stroke-width="2" stroke-miterlimit="10"/><g fill="none" stroke="#000" stroke-width="1.75" stroke-miterlimit="10"><path d="M83.81 272.979c58.83-14.166 77.054 70.812 18.538 80.743-54.567 9.26-65.27-69.49-18.537-80.743z"/><path d="M85.952 280.208c46.834-11.277 61.34 56.373 14.757 64.278-43.441 7.372-51.96-55.32-14.757-64.278z"/></g><g><path d="M111.02 31.051c50.966-15.142 76.6 26.703 77.518 61.961 1.07 41.152-59.923 75.191-99.422 39.1-29.774-27.206-29.061-85.919 21.904-101.061z" fill="#fff"/><path d="M69.234 87.852c.13 3.754.593 7.501 1.374 11.184 9.944-3.981 19.456-9.12 19.3-10.984-.37-4.443-11.455-2.557-20.674-.2zM170.578 45.899s-18.76 7.949-14.945 9.857c3.816 1.908 18.442-5.723 18.442-5.723M187.667 102.61c-23.712 18.6-58.54 18.484-65.103 25.644-6.995 7.631 46.424-11.765 29.57 4.133-7.605 7.175-31.07 8.711-50.276 8.672 35.214 18.307 79.079-6.015 85.809-38.449zM140.396 28.563c-13.658 9.785-31.175 9.749-38.931 15.253-10.134 7.192 19.288-1.961 3.923 7.192-6.821 4.064-18.28 5.678-28.915 6.218-2.642 4.646-4.534 9.617-5.728 14.745 39.369-.887 70.178-24.385 85.044-38.318-4.636-2.433-9.766-4.187-15.393-5.09z" fill="none" stroke="#000" stroke-width="1.75" stroke-miterlimit="10"/><path d="M112.77 94.706c1.53 3.302-.677 7.581-4.93 9.557-4.252 1.975-8.938.9-10.466-2.402-1.53-3.303.679-7.582 4.93-9.558 4.252-1.975 8.939-.9 10.467 2.403z" fill="#fff"/><path d="M112.707 95.471c1.529 3.302-.68 7.581-4.931 9.558-4.252 1.975-8.938.9-10.466-2.402-1.53-3.303.679-7.582 4.93-9.558 4.252-1.976 8.939-.9 10.467 2.402z" fill="none" stroke="#000" stroke-miterlimit="10"/><path d="M162.212 75.889c1.62 3.258-.466 7.597-4.662 9.692-4.195 2.094-8.91 1.15-10.53-2.109-1.62-3.259.468-7.598 4.663-9.692 4.194-2.093 8.909-1.149 10.529 2.109z" fill="#fff"/><path d="M162.212 75.889c1.62 3.258-.466 7.597-4.662 9.692-4.195 2.094-8.91 1.15-10.53-2.109-1.62-3.259.468-7.598 4.663-9.692 4.194-2.093 8.909-1.149 10.529 2.109z" fill="none" stroke="#000" stroke-miterlimit="10"/><path d="M115.406 89.56c-4.138 1.882-9.046-.015-10.963-4.238l-1.838-4.047c-1.917-4.222-.117-9.171 4.02-11.053 4.138-1.882 9.045.016 10.963 4.238l1.837 4.048c1.918 4.221.118 9.17-4.02 11.052" fill="#fff"/><path d="M115.406 89.56h0c-4.138 1.882-9.046-.015-10.963-4.238l-1.838-4.047c-1.917-4.222-.117-9.171 4.02-11.053h0c4.138-1.882 9.045.016 10.963 4.238l1.837 4.048c1.918 4.221.118 9.17-4.02 11.052" fill="none" stroke="#000" stroke-width="1.5" stroke-miterlimit="10"/><path d="M117.588 74.459a8.434 8.434 0 00-5.146-4.574 5.88 5.88 0 00-2.017.507c-3.65 1.66-4.92 6.731-2.833 11.326 2.087 4.595 6.737 6.974 10.388 5.313.332-.151.636-.338.927-.543a8.427 8.427 0 00.519-7.982z"/><g><path d="M142.683 78.185c4.278-1.538 6.47-6.322 4.897-10.684l-1.507-4.182c-1.572-4.362-6.314-6.652-10.591-5.114-4.277 1.538-6.47 6.322-4.898 10.684l1.508 4.182c1.572 4.363 6.314 6.652 10.59 5.114" fill="#fff"/><path d="M142.683 78.185h0c4.278-1.538 6.47-6.322 4.897-10.684l-1.507-4.182c-1.572-4.362-6.314-6.652-10.591-5.114h0c-4.277 1.538-6.47 6.322-4.898 10.684l1.508 4.182c1.572 4.363 6.314 6.652 10.59 5.114" fill="none" stroke="#000" stroke-width="1.5" stroke-miterlimit="10"/><path d="M130.585 68.889a8.434 8.434 0 01.496-6.867 5.891 5.891 0 011.799-1.044c3.773-1.357 8.22 1.391 9.93 6.138 1.712 4.747.04 9.696-3.734 11.053a5.822 5.822 0 01-1.043.258 8.43 8.43 0 01-5.941-5.357z"/></g><path d="M131.728 77.821s1.234 3.873-.117 4.842c-1.351.969-3.7-2.731-3.7-2.731s.848 3.544-.606 4.351c-1.454.807-3.617-3.039-3.617-3.039" fill="none" stroke="#000" stroke-width="1.5" stroke-linejoin="round" stroke-miterlimit="10"/><path d="M111.02 31.051c50.966-15.142 76.6 26.703 77.518 61.961 1.07 41.152-59.923 75.191-99.422 39.1-29.774-27.206-29.061-85.919 21.904-101.061z" fill="none" stroke="#000" stroke-width="2" stroke-miterlimit="10"/><path d="M212.158 46.929c-6.91-9.301-25.743-11.293-48.61-8.233a55.835 55.835 0 018.149 7.883c21.038-2.389 34.3 2.186 27.36 18.226-9.28 21.444-138.174 66.628-146.343 51.944-4.857-8.731 2.668-19.367 16.504-29.713a60.584 60.584 0 011.645-15.504c-24.088 14.994-39.036 33.063-30.958 50.241 8.57 18.227 72.97 6.844 106.576-6.727 39.302-15.872 79.315-49.756 65.677-68.117z" fill="#fff"/><path d="M212.158 46.929c-6.91-9.301-25.743-11.293-48.61-8.233a55.835 55.835 0 018.149 7.883c21.038-2.389 34.3 2.186 27.36 18.226-9.28 21.444-138.174 66.628-146.343 51.944-4.857-8.731 2.668-19.367 16.504-29.713a60.584 60.584 0 011.645-15.504c-24.088 14.994-39.036 33.063-30.958 50.241 8.57 18.227 72.97 6.844 106.576-6.727 39.302-15.872 79.315-49.756 65.677-68.117z" fill="none" stroke="#000" stroke-width="2" stroke-miterlimit="10"/></g><g><path d="M319.512 329.5s-25.712-13.381-22.028-16.973c3.684-3.591 24.89 1.212 22.25-6.976-2.64-8.188-17.44-23.284-12.443-23.51 4.997-.227 29.732 8.587 28.527 4.336-1.206-4.252-9.775-12.408-6.17-12.198 3.607.21 16.363 8.515 17.007 3.197.644-5.319-4.281-32.526 1.203-30.469 5.485 2.057 23.936 21.735 26.215 17.122 2.279-4.613 3.688-14.679 6.865-10.924 3.177 3.755 2.958 16.616 7.803 12.904 4.845-3.712 19.507-25.365 21.537-20.032 2.03 5.333 1.44 27.569 6.653 25.57 5.21-1.999 16.414-9.289 16.688-5.232.273 4.056-5.86 18.406-2.375 18.045 3.484-.361 34.689-7.099 32.898-.202-1.79 6.896-24.045 24.96-18.087 27.843 5.958 2.884 15.966 3.888 12.74 6.848-3.224 2.96-16.58 4.345-13.173 7.785 3.406 3.44 37.687 24.977 31.314 27.097-6.373 2.12-38.17-3.628-37.544.684.625 4.312 4.427 12.379 1.416 13.566-3.011 1.188-11.062-1.77-11.628-.253-.566 1.518 5.047 27.779 1.456 29.026-3.591 1.248-25.912-10.151-27.18-9.144-1.27 1.007-4.605 15.942-4.605 15.942l-11-7.029s-15.75 29.06-18.116 24.929c-2.367-4.131-2.417-32.136-5.887-30.318-3.47 1.819-15.302 15.884-16.966 12.263-1.664-3.621-1.124-19.141-4.944-17.577-3.821 1.563-26.593 14.429-26.18 9.426.415-5.003 13.184-29.961 9.212-31.883-3.972-1.922-24.144 3.671-21.622.2 2.523-3.471 17.317-12.008 14.628-13.48-2.69-1.472-41.468-7.954-36.73-10.779 4.738-2.825 40.037-7.071 38.266-9.804z" fill="#fff"/><path d="M319.512 329.5s-25.712-13.381-22.028-16.973c3.684-3.591 24.89 1.212 22.25-6.976-2.64-8.188-17.44-23.284-12.443-23.51 4.997-.227 29.732 8.587 28.527 4.336-1.206-4.252-9.775-12.408-6.17-12.198 3.607.21 16.363 8.515 17.007 3.197.644-5.319-4.281-32.526 1.203-30.469 5.485 2.057 23.936 21.735 26.215 17.122 2.279-4.613 3.688-14.679 6.865-10.924 3.177 3.755 2.958 16.616 7.803 12.904 4.845-3.712 19.507-25.365 21.537-20.032 2.03 5.333 1.44 27.569 6.653 25.57 5.21-1.999 16.414-9.289 16.688-5.232.273 4.056-5.86 18.406-2.375 18.045 3.484-.361 34.689-7.099 32.898-.202-1.79 6.896-24.045 24.96-18.087 27.843 5.958 2.884 15.966 3.888 12.74 6.848-3.224 2.96-16.58 4.345-13.173 7.785 3.406 3.44 37.687 24.977 31.314 27.097-6.373 2.12-38.17-3.628-37.544.684.625 4.312 4.427 12.379 1.416 13.566-3.011 1.188-11.062-1.77-11.628-.253-.566 1.518 5.047 27.779 1.456 29.026-3.591 1.248-25.912-10.151-27.18-9.144-1.27 1.007-4.605 15.942-4.605 15.942l-11-7.029s-15.75 29.06-18.116 24.929c-2.367-4.131-2.417-32.136-5.887-30.318-3.47 1.819-15.302 15.884-16.966 12.263-1.664-3.621-1.124-19.141-4.944-17.577-3.821 1.563-26.593 14.429-26.18 9.426.415-5.003 13.184-29.961 9.212-31.883-3.972-1.922-24.144 3.671-21.622.2 2.523-3.471 17.317-12.008 14.628-13.48-2.69-1.472-41.468-7.954-36.73-10.779 4.738-2.825 40.037-7.071 38.266-9.804z" fill="none" stroke="#000" stroke-width="2" stroke-miterlimit="10"/><path d="M334.854 301.336s20.22-37.717 65.694-25.296c55.732 15.224 46.137 105.395-10.33 106.431-61.372 1.127-74.853-52.527-55.364-81.135z" fill="none" stroke="#000" stroke-width="2" stroke-miterlimit="10"/><g><path d="M366.108 337.492c-.664 3.934-5.313 6.436-10.384 5.588-5.07-.849-8.642-4.726-7.977-8.66.665-3.935 5.314-6.437 10.384-5.588 5.07.847 8.642 4.725 7.977 8.66z" fill="#fff"/><path d="M366.108 337.492c-.664 3.934-5.313 6.436-10.384 5.588-5.07-.849-8.642-4.726-7.977-8.66.665-3.935 5.314-6.437 10.384-5.588 5.07.847 8.642 4.725 7.977 8.66z" fill="none" stroke="#000" stroke-miterlimit="10"/><path d="M413.668 336.74c.264 3.981-3.68 7.491-8.81 7.84-5.128.348-9.5-2.597-9.764-6.578-.264-3.982 3.68-7.492 8.809-7.84 5.129-.349 9.5 2.597 9.765 6.578z" fill="#fff"/><path d="M413.668 336.74c.264 3.981-3.68 7.491-8.81 7.84-5.128.348-9.5-2.597-9.764-6.578-.264-3.982 3.68-7.492 8.809-7.84 5.129-.349 9.5 2.597 9.765 6.578z" fill="none" stroke="#000" stroke-miterlimit="10"/><path d="M380.554 325.939s-.218 6.713 1.604 6.796c2.214.102 2.52-6.567 2.52-6.567" fill="none" stroke="#000" stroke-width="1.5" stroke-miterlimit="10"/><path d="M374.666 328.881c-.805 2.347-5.946-1.398-12.795-3.748-6.85-2.35-12.813-2.415-12.008-4.762.805-2.346 7.444-4.248 14.293-1.898 6.849 2.349 11.315 8.061 10.51 10.408zM390.067 328.426c.51 2.427 6.073-.657 13.159-2.148s13.012-.822 12.502-3.25c-.511-2.428-6.865-5.131-13.951-3.641-7.087 1.492-12.221 6.611-11.71 9.039z"/></g></g><g><path d="M298.863 81.325s11.98-55.644 76.475-56.936c79.046-1.584 101.273 116.862 27.543 139.431-80.136 24.529-118.555-38.728-104.018-82.495z" fill="#fff"/><path d="M341.969 146.037s-.996-8.733 4.156-11.024c5.15-2.292 5.009 4.276 9.389 4.462 4.38.186 9.674 5.003 6.759 9.712-2.914 4.708-18.433 8.301-20.304-3.15zM412.38 135.893c7.668.393 8.423 10.772-.611 10.406-9.034-.366-4.491-10.668.612-10.406z" fill="none" stroke="#000" stroke-width="1.75" stroke-miterlimit="10"/><path d="M298.863 81.325s11.98-55.644 76.475-56.936c79.046-1.584 101.273 116.862 27.543 139.431-80.136 24.529-118.555-38.728-104.018-82.495z" fill="none" stroke="#000" stroke-width="2" stroke-miterlimit="10"/><path d="M363.536 57.526c-5.25-2.862 3.529-8.972 4.878-15.675.746-3.706-2.891-10.289-7.56-16.162-27.572 4.542-43.348 19.984-52.077 33.452.205 3.69.798 7.267 2.686 10.277 6.896 10.989 11.182 2.743 18.004 10.024 6.822 7.281-3.202 25.285 2.152 33.338 5.354 8.052 23.343 5.376 30.535-5.895s19.84-36.023 19.708-42.697c-.135-6.673-13.076-3.8-18.326-6.662zM391.708 25.892c-1.02 6.869-2.214 9.011-3.843 13.033-1.97 4.861-6.664 11.154-.4 14.473 6.267 3.318 10.907-5.729 19.872-5.22 7.43.422 16.842 5.525 22.067.552-9.35-11.173-22.058-19.562-37.696-22.838zM447.28 90.668a83.482 83.482 0 00-6.5-23.558c-4.291-1.063-9.303-1.774-13.104-.743-8.221 2.231-15.877-1.748-14.335 6.487 1.542 8.235 10.604 13.563 5.178 17.805-5.425 4.241-8.854 4.999-6.637 12.531 2.217 7.532-2.437 15.891 7.189 15.01 6.632-.607 21.528-12.823 28.21-27.532z" fill="none" stroke="#000" stroke-width="1.75" stroke-miterlimit="10"/><g><path d="M365.159 97.017c8.32-.286 8.293 5.983 11.67 5.564 3.379-.418 7.513-5.391 11.925-1.546 4.413 3.846 1.594 21.902-19.78 16.588-14.955-3.719-12.133-20.32-3.815-20.606z"/><path d="M369.47 117.734c2.434-4.364 7.794-7.325 13.915-7.161 1.898.051 3.696.408 5.345.996a9.116 9.116 0 01-.234 1.251c-2.794 4.233-8.698 7.337-19.026 4.914z" fill="#fff"/><path d="M369.47 117.734c2.434-4.364 7.794-7.325 13.915-7.161 1.898.051 3.696.408 5.345.996a9.116 9.116 0 01-.234 1.251c-2.794 4.233-8.698 7.337-19.026 4.914z" fill="none" stroke="#000" stroke-width="1.5" stroke-miterlimit="10"/><path d="M390.03 103.027c-.302-.831-.733-1.519-1.275-1.991-4.413-3.846-8.546 1.127-11.924 1.546-3.378.419-3.351-5.85-11.671-5.564a6.082 6.082 0 00-1.397.216c.354 14.611 25.277 9.433 26.268 5.793z" fill="#fff"/><path d="M365.159 97.017c8.32-.286 8.293 5.983 11.67 5.564 3.379-.418 7.513-5.391 11.925-1.546 4.413 3.846 1.594 21.902-19.78 16.588-14.955-3.719-12.133-20.32-3.815-20.606z" fill="none" stroke="#000" stroke-width="1.5" stroke-miterlimit="10"/></g><g><path d="M400.778 105.546c-.388 4.404 3.896 8.385 9.57 8.894 5.673.508 10.586-2.65 10.973-7.054.387-4.404-3.897-8.386-9.57-8.894-5.672-.509-10.586 2.65-10.973 7.054z" fill="#fff"/><path d="M400.778 105.546c-.388 4.404 3.896 8.385 9.57 8.894 5.673.508 10.586-2.65 10.973-7.054.387-4.404-3.897-8.386-9.57-8.894-5.672-.509-10.586 2.65-10.973 7.054z" fill="none" stroke="#000" stroke-miterlimit="10"/></g><g><path d="M333.693 97.993c-.511 4.391 3.66 8.491 9.318 9.158 5.656.666 10.656-2.353 11.166-6.744.51-4.392-3.661-8.492-9.318-9.158-5.656-.667-10.656 2.353-11.166 6.744z" fill="#fff"/><path d="M333.693 97.993c-.511 4.391 3.66 8.491 9.318 9.158 5.656.666 10.656-2.353 11.166-6.744.51-4.392-3.661-8.492-9.318-9.158-5.656-.667-10.656 2.353-11.166 6.744z" fill="none" stroke="#000" stroke-miterlimit="10"/></g><g><path d="M396.293 97.94c5.504.448 10.332-3.741 10.785-9.356l.434-5.382c.453-5.615-3.642-10.53-9.145-10.978-5.504-.448-10.332 3.741-10.785 9.356l-.434 5.383c-.452 5.615 3.642 10.529 9.145 10.977" fill="#fff"/><path d="M396.293 97.94h0c5.504.448 10.332-3.741 10.785-9.356l.434-5.382c.453-5.615-3.642-10.53-9.145-10.978h0c-5.504-.448-10.332 3.741-10.785 9.356l-.434 5.383c-.452 5.615 3.642 10.529 9.145 10.977" fill="none" stroke="#000" stroke-width="1.5" stroke-miterlimit="10"/><path d="M387.583 81.58a10.242 10.242 0 013.999-7.345 7.158 7.158 0 012.514-.251c4.855.395 8.392 5.669 7.9 11.779-.493 6.11-4.83 10.743-9.685 10.348a7.018 7.018 0 01-1.283-.239 10.241 10.241 0 01-3.88-8.91z"/></g><g><path d="M359.22 94.654c5.506.423 10.315-3.788 10.742-9.406l.41-5.384c.427-5.617-3.69-10.513-9.195-10.935-5.506-.423-10.315 3.789-10.742 9.405l-.41 5.385c-.427 5.617 3.69 10.513 9.195 10.935" fill="#fff"/><path d="M359.22 94.654h0c5.506.423 10.315-3.788 10.742-9.406l.41-5.384c.427-5.617-3.69-10.513-9.195-10.935h0c-5.506-.423-10.315 3.789-10.742 9.405l-.41 5.385c-.427 5.617 3.69 10.513 9.195 10.935" fill="none" stroke="#000" stroke-width="1.5" stroke-miterlimit="10"/><path d="M350.435 78.334a10.242 10.242 0 013.965-7.364 7.128 7.128 0 012.513-.262c4.857.373 8.418 5.63 7.954 11.743-.465 6.113-4.78 10.766-9.637 10.393a7.036 7.036 0 01-1.284-.233 10.241 10.241 0 01-3.92-8.892z"/></g></g><g><path d="M209.876 308.815s-24.406-11.866-20.601-18.107c5.527-9.066 30.125-9.206 30.125-9.206s11.238-32.617 17.288-29.867c6.05 2.75 15.009 24.872 15.009 24.872s30.472-1.417 29.845 5.743c-.627 7.161-16.753 21.328-16.753 21.328s9.55 31.977 2.126 32.252c-7.425.276-26.265-12.49-26.265-12.49s-23.022 18.801-29.765 13.4c-6.741-5.401-1.01-27.925-1.01-27.925z" fill="#fff"/><path d="M209.876 308.815s-24.406-11.866-20.601-18.107c5.527-9.066 30.125-9.206 30.125-9.206s11.238-32.617 17.288-29.867c6.05 2.75 15.009 24.872 15.009 24.872s30.472-1.417 29.845 5.743c-.627 7.161-16.753 21.328-16.753 21.328s9.55 31.977 2.126 32.252c-7.425.276-26.265-12.49-26.265-12.49s-23.022 18.801-29.765 13.4c-6.741-5.401-1.01-27.925-1.01-27.925z" fill="none" stroke="#000" stroke-width="2" stroke-miterlimit="10"/><g><path d="M233.34 300.51c3.515-.854 3.98 1.849 5.458 1.911 1.989.083 2.955-4.295 6.43-2.096 2.149 1.359 1.9 5.913-7.83 6.482-6.752.394-7.57-5.443-4.057-6.297z" fill="none" stroke="#000" stroke-miterlimit="10"/><path d="M224.969 304.3c.115 2.306-2.201 4.299-5.172 4.451-2.971.152-5.472-1.594-5.586-3.9-.114-2.306 2.2-4.299 5.172-4.451 2.97-.153 5.472 1.593 5.586 3.9z" fill="#fff"/><path d="M224.969 304.3c.115 2.306-2.201 4.299-5.172 4.451-2.971.152-5.472-1.594-5.586-3.9-.114-2.306 2.2-4.299 5.172-4.451 2.97-.153 5.472 1.593 5.586 3.9z" fill="none" stroke="#000" stroke-width=".75" stroke-miterlimit="10"/><path d="M259.712 303.435c.115 2.306-2.201 4.299-5.172 4.451-2.971.152-5.472-1.594-5.586-3.9-.115-2.306 2.2-4.299 5.172-4.451 2.97-.152 5.472 1.594 5.586 3.9z" fill="#fff"/><path d="M259.712 303.435c.115 2.306-2.201 4.299-5.172 4.451-2.971.152-5.472-1.594-5.586-3.9-.115-2.306 2.2-4.299 5.172-4.451 2.97-.152 5.472 1.594 5.586 3.9z" fill="none" stroke="#000" stroke-width=".75" stroke-miterlimit="10"/><g><path d="M228.542 300.313c-3.038.131-5.607-2.276-5.738-5.375l-.126-2.971c-.131-3.099 2.225-5.718 5.263-5.849 3.038-.131 5.607 2.276 5.738 5.375l.126 2.971c.13 3.1-2.225 5.718-5.263 5.849" fill="#fff"/><path d="M228.542 300.313h0c-3.038.131-5.607-2.276-5.738-5.375l-.126-2.971c-.131-3.099 2.225-5.718 5.263-5.849h0c3.038-.131 5.607 2.276 5.738 5.375l.126 2.971c.13 3.1-2.225 5.718-5.263 5.849" fill="none" stroke="#000" stroke-miterlimit="10"/><path d="M233.678 291.493a5.64 5.64 0 00-2.046-4.126 3.914 3.914 0 00-1.378-.191c-2.68.115-4.738 2.943-4.595 6.316.143 3.373 2.432 6.013 5.112 5.898.244-.011.479-.05.71-.104a5.64 5.64 0 002.323-4.822z"/></g><g><path d="M248.517 298.845c3.04.092 5.577-2.348 5.668-5.449l.087-2.972c.09-3.101-2.3-5.689-5.338-5.78-3.04-.091-5.577 2.348-5.67 5.449l-.086 2.973c-.091 3.1 2.299 5.688 5.339 5.779" fill="#fff"/><path d="M248.517 298.845h0c3.04.092 5.577-2.348 5.668-5.449l.087-2.972c.09-3.101-2.3-5.689-5.338-5.78h0c-3.04-.091-5.577 2.348-5.67 5.449l-.086 2.973c-.091 3.1 2.299 5.688 5.339 5.779" fill="none" stroke="#000" stroke-miterlimit="10"/><path d="M243.266 290.092a5.64 5.64 0 011.993-4.152 3.95 3.95 0 011.376-.209c2.68.081 4.775 2.882 4.676 6.256-.1 3.374-2.354 6.044-5.036 5.964a3.921 3.921 0 01-.713-.095 5.64 5.64 0 01-2.384-4.791z"/></g></g></g><g><path d="M266.3 107.055c5.07 1.873 6.54 8.303 2.742 12.148-11.068 11.204-28.582 34.414-14.141 58.524 19.438 32.453 56.54 17.043 56.1 25.997-.998 20.277-72.81 72.205-120.752 5.805-38.46-53.265 24.767-121.419 76.052-102.474z" fill="#fff"/><path d="M266.3 107.055c5.07 1.873 6.54 8.303 2.742 12.148-11.068 11.204-28.582 34.414-14.141 58.524 19.438 32.453 56.54 17.043 56.1 25.997-.998 20.277-72.81 72.205-120.752 5.805-38.46-53.265 24.767-121.419 76.052-102.474z" fill="none" stroke="#000" stroke-width="2" stroke-miterlimit="10"/><g><path d="M211.899 198.387c.6 2.964-2.007 5.999-5.825 6.779-3.818.779-7.4-.991-8-3.955-.6-2.964 2.007-6 5.825-6.779 3.818-.78 7.4.991 8 3.955z" fill="#fff"/><path d="M211.899 198.387c.6 2.964-2.007 5.999-5.825 6.779-3.818.779-7.4-.991-8-3.955-.6-2.964 2.007-6 5.825-6.779 3.818-.78 7.4.991 8 3.955z" fill="none" stroke="#000" stroke-miterlimit="10"/><path d="M250.744 181.952c1.464 2.646-.11 6.325-3.517 8.217-3.406 1.891-7.355 1.28-8.82-1.366-1.463-2.647.11-6.325 3.518-8.217 3.406-1.892 7.355-1.28 8.819 1.366z" fill="#fff"/><path d="M250.744 181.952c1.464 2.646-.11 6.325-3.517 8.217-3.406 1.891-7.355 1.28-8.82-1.366-1.463-2.647.11-6.325 3.518-8.217 3.406-1.892 7.355-1.28 8.819 1.366z" fill="none" stroke="#000" stroke-miterlimit="10"/><path d="M210.787 190.786c-3.71.71-7.303-1.784-8.024-5.57l-.692-3.629c-.721-3.785 1.702-7.43 5.412-8.14 3.71-.71 7.303 1.784 8.024 5.569l.69 3.629c.723 3.787-1.7 7.431-5.41 8.141" fill="#fff"/><path d="M210.787 190.786h0c-3.71.71-7.303-1.784-8.024-5.57l-.692-3.629c-.721-3.785 1.702-7.43 5.412-8.14h0c3.71-.71 7.303 1.784 8.024 5.569l.69 3.629c.723 3.787-1.7 7.431-5.41 8.141" fill="none" stroke="#000" stroke-width="1.5" stroke-miterlimit="10"/><path d="M215.506 179.017a7.011 7.011 0 00-3.26-4.702 4.896 4.896 0 00-1.728.014c-3.273.626-5.291 4.474-4.506 8.593.785 4.12 4.076 6.952 7.349 6.325.297-.057.58-.149.855-.257a7.005 7.005 0 001.982-6.346z"/><path d="M222.206 184.286s1.108 3.496 2.428 3.086c1.32-.41 1.148-3.988 1.148-3.988" fill="none" stroke="#000" stroke-width="1.5" stroke-miterlimit="10"/><path d="M248.4 171.569c.96 1.617-3.726 2.748-8.445 5.551-4.72 2.803-7.683 6.215-8.643 4.599-.96-1.617 1.199-6.385 5.918-9.187 4.719-2.803 10.21-2.58 11.17-.963z"/></g></g></svg>