<?xml version="1.0" encoding="UTF-8" standalone="no"?>
<!-- Generator: Adobe Illustrator 27.5.0, SVG Export Plug-In . SVG Version: 6.00 Build 0)  -->

<svg
   version="1.1"
   x="0px"
   y="0px"
   viewBox="0 0 503.72592 470.95099"
   xml:space="preserve"
   id="svg107"
   sodipodi:docname="planets.svg"
   width="503.72592"
   height="470.95099"
   inkscape:version="1.3 (0e150ed6c4, 2023-07-21)"
   xmlns:inkscape="http://www.inkscape.org/namespaces/inkscape"
   xmlns:sodipodi="http://sodipodi.sourceforge.net/DTD/sodipodi-0.dtd"
   xmlns="http://www.w3.org/2000/svg"
   xmlns:svg="http://www.w3.org/2000/svg"><defs
   id="defs107" /><sodipodi:namedview
   id="namedview107"
   pagecolor="#ffffff"
   bordercolor="#000000"
   borderopacity="0.25"
   inkscape:showpageshadow="2"
   inkscape:pageopacity="0.0"
   inkscape:pagecheckerboard="0"
   inkscape:deskcolor="#d1d1d1"
   inkscape:zoom="1.6079608"
   inkscape:cx="223.5751"
   inkscape:cy="196.21125"
   inkscape:window-width="2560"
   inkscape:window-height="1351"
   inkscape:window-x="1191"
   inkscape:window-y="187"
   inkscape:window-maximized="1"
   inkscape:current-layer="svg107" />&#10;&#10;<g
   id="OBJECTS"
   transform="translate(1.302545,-18.438957)">&#10;	<g
   id="g12">&#10;		<path
   style="fill:none;stroke:#000000;stroke-width:2;stroke-miterlimit:10"
   d="m 241.045,396.967 c 0,0 0.355,-13.619 2.469,-12.21 2.114,1.409 2.691,11.211 2.691,11.211 0,0 11.987,0.529 10.343,2.878 -1.644,2.349 -10.335,3.523 -10.335,3.523 0,0 0.705,13.624 -1.879,13.389 -2.584,-0.235 -3.523,-11.979 -3.523,-11.979 0,0 -12.214,-0.705 -10.57,-3.288 1.644,-2.584 10.804,-3.524 10.804,-3.524 z"
   id="path1" />&#10;		<path
   style="fill:none;stroke:#000000;stroke-width:2;stroke-miterlimit:10"
   d="m 117.804,196.963 c 0,0 -0.334,-11.035 1.822,-9.69 2.156,1.345 3.643,8.707 3.643,8.707 0,0 11.66,-0.006 10.087,2.392 -1.572,2.398 -10.224,3.835 -10.224,3.835 0,0 1.117,13.596 -1.473,13.439 -2.59,-0.157 -3.884,-11.867 -3.884,-11.867 0,0 -12.23,-0.335 -10.665,-2.967 1.566,-2.633 10.694,-3.849 10.694,-3.849 z"
   id="path2" />&#10;		<path
   style="fill:none;stroke:#000000;stroke-width:2;stroke-miterlimit:10"
   d="m 432.068,216.226 c 0,0 1.557,-12.794 3.067,-11.405 1.51,1.389 0.898,11.388 0.898,11.388 0,0 9.827,1.613 8.222,3.282 -1.606,1.668 -8.686,1.518 -8.686,1.518 0,0 -1.143,10.957 -3.174,10.446 -2.032,-0.511 -1.312,-9.998 -1.312,-9.998 0,0 -9.656,-2.091 -8.021,-3.946 1.635,-1.857 9.006,-1.285 9.006,-1.285 z"
   id="path3" />&#10;		<path
   style="fill:none;stroke:#000000;stroke-width:2;stroke-miterlimit:10"
   d="m 242.784,52.719 c 0,0 1.237,-8.743 2.753,-7.39 1.516,1.353 0.543,8.236 0.543,8.236 0,0 10.337,0.703 8.771,2.379 -1.565,1.676 -8.58,1.633 -8.58,1.633 0,0 -0.968,10.868 -2.988,10.393 -2.02,-0.476 -1.449,-9.882 -1.449,-9.882 0,0 -9.594,-1.926 -8.003,-3.788 1.593,-1.863 8.953,-1.581 8.953,-1.581 z"
   id="path4" />&#10;		<path
   style="fill:none;stroke:#000000;stroke-width:2;stroke-linecap:round;stroke-linejoin:round;stroke-miterlimit:10"
   d="m 157.14,265.662 c 0,0 7.157,-4.048 4.804,-13.179 0,0 5.176,10.475 10.816,8.303 0,0 -6.228,5.738 -3.524,13.402 0,0 -4.149,-8.607 -12.096,-8.526 z"
   id="path5" />&#10;		<path
   style="fill:none;stroke:#000000;stroke-width:2;stroke-linecap:round;stroke-linejoin:round;stroke-miterlimit:10"
   d="m 336.317,231.91 c 0,0 6.299,0.193 8.387,-6.726 0,0 -0.772,8.922 3.786,9.74 0,0 -6.362,1.284 -7.637,7.381 10e-4,0.001 0.704,-7.289 -4.536,-10.395 z"
   id="path6" />&#10;		<path
   style="fill:none;stroke:#000000;stroke-width:2;stroke-linecap:round;stroke-linejoin:round;stroke-miterlimit:10"
   d="m 316.877,449.154 c 0,0 6.234,-0.925 7.064,-8.104 0,0 0.819,8.917 5.451,8.916 0,0 -6.035,2.39 -6.21,8.616 10e-4,0 -0.598,-7.298 -6.305,-9.428 z"
   id="path7" />&#10;		<path
   style="fill:none;stroke:#000000;stroke-width:2;stroke-linecap:round;stroke-linejoin:round;stroke-miterlimit:10"
   d="m 170.31,444.045 c 0,0 6.074,-1.679 6.022,-8.906 0,0 1.901,8.751 6.499,8.184 0,0 -5.698,3.109 -5.111,9.31 -0.001,0 -1.486,-7.171 -7.41,-8.588 z"
   id="path8" />&#10;		<path
   style="fill:none;stroke:#000000;stroke-width:2;stroke-linecap:round;stroke-linejoin:round;stroke-miterlimit:10"
   d="m 31.274,454.529 c 7.935,1.443 6.131,9.738 -1.443,10.46 -7.574,0.72 -6.492,-11.903 1.443,-10.46 z"
   id="path9" />&#10;		<path
   style="fill:none;stroke:#000000;stroke-width:2;stroke-linecap:round;stroke-linejoin:round;stroke-miterlimit:10"
   d="m 287.17,156.036 c 9.652,1.755 7.458,11.846 -1.755,12.723 -9.213,0.877 -7.897,-14.478 1.755,-12.723 z"
   id="path10" />&#10;		<path
   style="fill:none;stroke:#000000;stroke-width:2;stroke-linecap:round;stroke-linejoin:round;stroke-miterlimit:10"
   d="m 48.193,170.046 c 6.224,1.132 4.809,7.638 -1.132,8.204 -5.94,0.566 -5.092,-9.336 1.132,-8.204 z"
   id="path11" />&#10;		<path
   style="fill:none;stroke:#000000;stroke-width:2;stroke-linecap:round;stroke-linejoin:round;stroke-miterlimit:10"
   d="m 434.956,447.592 c 6.224,1.132 4.809,7.638 -1.132,8.204 -5.941,0.566 -5.092,-9.336 1.132,-8.204 z"
   id="path12" />&#10;	</g>&#10;	<g
   id="g107">&#10;		<g
   id="g30">&#10;			<g
   id="g27">&#10;				<path
   style="fill:#ffffff"
   d="m 29.855,392.858 c -2.467,10.57 30.054,67.017 33.155,63.282 3.101,-3.734 19.969,-41.779 18.255,-44.78 -1.715,-3.001 -17.948,-44.871 -20.073,-46.111 -2.126,-1.239 -28.87,17.039 -31.337,27.609 z"
   id="path13" />&#10;				<path
   style="fill:none;stroke:#000000;stroke-width:2;stroke-miterlimit:10"
   d="m 29.855,392.858 c -2.467,10.57 30.054,67.017 33.155,63.282 3.101,-3.734 19.969,-41.779 18.255,-44.78 -1.715,-3.001 -17.948,-44.871 -20.073,-46.111 -2.126,-1.239 -28.87,17.039 -31.337,27.609 z"
   id="path14" />&#10;				<path
   style="fill:#ffffff"
   d="m 176.891,336.133 c 7.901,6.602 15.467,67.935 10.986,66.874 -4.481,-1.06 -38.973,-20.265 -39.386,-23.517 -0.413,-3.252 -12.005,-44.245 -11.101,-46.397 0.904,-2.152 31.6,-3.562 39.501,3.04 z"
   id="path15" />&#10;				<path
   style="fill:none;stroke:#000000;stroke-width:2;stroke-miterlimit:10"
   d="m 176.891,336.133 c 7.901,6.602 15.467,67.935 10.986,66.874 -4.481,-1.06 -38.973,-20.265 -39.386,-23.517 -0.413,-3.252 -12.005,-44.245 -11.101,-46.397 0.904,-2.152 31.6,-3.562 39.501,3.04 z"
   id="path16" />&#10;				<path
   style="fill:#ffffff"
   d="m 77.748,417.483 c 0,0 -76.759,-120.462 -15.609,-196.112 0,0 92.893,36.377 97.554,168.358 0,0 -39.397,48.817 -81.945,27.754 z"
   id="path17" />&#10;				<g
   id="g22">&#10;					<g
   id="g19">&#10;						<path
   style="fill:#ffffff"
   d="m 84.69,342.198 c 1.396,3.151 -0.761,7.168 -4.819,8.973 -4.057,1.804 -8.477,0.712 -9.873,-2.439 -1.396,-3.151 0.761,-7.169 4.819,-8.973 4.056,-1.805 8.477,-0.713 9.873,2.439 z"
   id="path18" />&#10;						<path
   style="fill:none;stroke:#000000;stroke-miterlimit:10"
   d="m 84.69,342.198 c 1.396,3.151 -0.761,7.168 -4.819,8.973 -4.057,1.804 -8.477,0.712 -9.873,-2.439 -1.396,-3.151 0.761,-7.169 4.819,-8.973 4.056,-1.805 8.477,-0.713 9.873,2.439 z"
   id="path19" />&#10;					</g>&#10;					<g
   id="g21">&#10;						<path
   style="fill:#ffffff"
   d="m 124.448,329.351 c 1.304,3.19 -0.969,7.143 -5.077,8.829 -4.108,1.686 -8.494,0.466 -9.798,-2.724 -1.304,-3.191 0.969,-7.144 5.077,-8.83 4.107,-1.685 8.494,-0.465 9.798,2.725 z"
   id="path20" />&#10;						<path
   style="fill:none;stroke:#000000;stroke-miterlimit:10"
   d="m 124.448,329.351 c 1.304,3.19 -0.969,7.143 -5.077,8.829 -4.108,1.686 -8.494,0.466 -9.798,-2.724 -1.304,-3.191 0.969,-7.144 5.077,-8.83 4.107,-1.685 8.494,-0.465 9.798,2.725 z"
   id="path21" />&#10;					</g>&#10;					&#10;						<polyline
   style="fill:none;stroke:#000000;stroke-width:3;stroke-linecap:round;stroke-linejoin:round;stroke-miterlimit:10"
   points="       68.715,324.515 84.657,330.418 69.054,337.589      "
   id="polyline21" />&#10;					&#10;						<polyline
   style="fill:none;stroke:#000000;stroke-width:3;stroke-linecap:round;stroke-linejoin:round;stroke-miterlimit:10"
   points="       110.003,310.26 100.666,324.773 116.821,321.453      "
   id="polyline22" />&#10;					<path
   style="fill:none;stroke:#000000;stroke-width:1.5;stroke-linejoin:round;stroke-miterlimit:10"
   d="m 97.552,327.792 c 0,0 1.827,3.228 -0.27,4.146 -2.318,1.015 -3.944,-2.417 -3.944,-2.417 0,0 0.515,3.725 -1.754,4.021 -2.509,0.328 -2.781,-3.145 -2.781,-3.145"
   id="path22" />&#10;				</g>&#10;				<path
   style="fill:none;stroke:#000000;stroke-width:1.75;stroke-miterlimit:10"
   d="m 70.197,403.442 c 0,0 49.645,3.959 88.229,-35.27"
   id="path23" />&#10;				<path
   style="fill:none;stroke:#000000;stroke-width:2;stroke-miterlimit:10"
   d="m 77.748,417.483 c 0,0 -76.759,-120.462 -15.609,-196.112 0,0 92.893,36.377 97.554,168.358 0,0 -39.397,48.817 -81.945,27.754 z"
   id="path24" />&#10;				<path
   style="fill:#ffffff"
   d="m 109.579,375.853 c 9.505,-5.456 39.56,69.017 27.979,75.402 -11.582,6.385 -37.484,-69.946 -27.979,-75.402 z"
   id="path25" />&#10;				<path
   style="fill:none;stroke:#000000;stroke-width:2;stroke-miterlimit:10"
   d="m 109.579,375.853 c 9.505,-5.456 39.56,69.017 27.979,75.402 -11.582,6.385 -37.484,-69.946 -27.979,-75.402 z"
   id="path26" />&#10;				<path
   style="fill:none;stroke:#000000;stroke-width:2;stroke-miterlimit:10"
   d="M 38.516,295.68 C 61.207,294.595 97.72,284.001 113.561,260.968 88.306,231.619 62.139,221.372 62.139,221.372 44.123,243.66 38.08,269.838 38.516,295.68 Z"
   id="path27" />&#10;			</g>&#10;			<g
   id="g29">&#10;				<path
   style="fill:none;stroke:#000000;stroke-width:1.75;stroke-miterlimit:10"
   d="m 82.508,291.418 c 58.83,-14.166 77.053,70.812 18.537,80.743 -54.567,9.26 -65.269,-69.49 -18.537,-80.743 z"
   id="path28" />&#10;				<path
   style="fill:none;stroke:#000000;stroke-width:1.75;stroke-miterlimit:10"
   d="m 84.649,298.647 c 46.834,-11.277 61.341,56.373 14.757,64.278 -43.441,7.372 -51.96,-55.32 -14.757,-64.278 z"
   id="path29" />&#10;			</g>&#10;		</g>&#10;		<g
   id="g48">&#10;			<g
   id="g46">&#10;				<path
   style="fill:#ffffff"
   d="m 109.717,49.49 c 50.966,-15.142 76.6,26.703 77.518,61.961 1.071,41.152 -59.923,75.191 -99.422,39.1 C 58.039,123.345 58.752,64.632 109.717,49.49 Z"
   id="path30" />&#10;				<path
   style="fill:none;stroke:#000000;stroke-width:1.75;stroke-miterlimit:10"
   d="m 67.931,106.291 c 0.13,3.754 0.593,7.501 1.374,11.184 9.944,-3.981 19.456,-9.12 19.301,-10.984 -0.371,-4.443 -11.456,-2.557 -20.675,-0.2 z"
   id="path31" />&#10;				<path
   style="fill:none;stroke:#000000;stroke-width:1.75;stroke-miterlimit:10"
   d="m 169.275,64.338 c 0,0 -18.76,7.949 -14.945,9.857 3.816,1.908 18.442,-5.723 18.442,-5.723"
   id="path32" />&#10;				<path
   style="fill:none;stroke:#000000;stroke-width:1.75;stroke-miterlimit:10"
   d="m 186.364,121.049 c -23.712,18.6 -58.54,18.484 -65.103,25.644 -6.995,7.631 46.424,-11.765 29.571,4.133 -7.606,7.175 -31.07,8.711 -50.277,8.672 35.214,18.307 79.079,-6.015 85.809,-38.449 z"
   id="path33" />&#10;				<path
   style="fill:none;stroke:#000000;stroke-width:1.75;stroke-miterlimit:10"
   d="m 139.093,47.002 c -13.658,9.785 -31.175,9.749 -38.931,15.253 -10.134,7.192 19.288,-1.961 3.923,7.192 -6.821,4.064 -18.28,5.678 -28.915,6.218 -2.642,4.646 -4.534,9.617 -5.728,14.745 39.369,-0.887 70.178,-24.385 85.044,-38.318 -4.636,-2.433 -9.766,-4.187 -15.393,-5.09 z"
   id="path34" />&#10;				<g
   id="g45">&#10;					<path
   style="fill:#ffffff"
   d="m 111.468,113.145 c 1.529,3.302 -0.678,7.581 -4.931,9.557 -4.252,1.975 -8.938,0.9 -10.466,-2.402 -1.529,-3.303 0.679,-7.582 4.931,-9.558 4.251,-1.975 8.938,-0.9 10.466,2.403 z"
   id="path35" />&#10;					<path
   style="fill:none;stroke:#000000;stroke-miterlimit:10"
   d="m 111.404,113.91 c 1.529,3.302 -0.679,7.581 -4.931,9.558 -4.252,1.975 -8.938,0.9 -10.466,-2.402 -1.529,-3.303 0.679,-7.582 4.931,-9.558 4.251,-1.976 8.938,-0.9 10.466,2.402 z"
   id="path36" />&#10;					<g
   id="g38">&#10;						<path
   style="fill:#ffffff"
   d="m 160.909,94.328 c 1.621,3.258 -0.466,7.597 -4.662,9.692 -4.195,2.094 -8.909,1.15 -10.529,-2.109 -1.62,-3.259 0.467,-7.598 4.662,-9.692 4.194,-2.093 8.909,-1.149 10.529,2.109 z"
   id="path37" />&#10;						<path
   style="fill:none;stroke:#000000;stroke-miterlimit:10"
   d="m 160.909,94.328 c 1.621,3.258 -0.466,7.597 -4.662,9.692 -4.195,2.094 -8.909,1.15 -10.529,-2.109 -1.62,-3.259 0.467,-7.598 4.662,-9.692 4.194,-2.093 8.909,-1.149 10.529,2.109 z"
   id="path38" />&#10;					</g>&#10;					<g
   id="g41">&#10;						<path
   style="fill:#ffffff"
   d="m 114.103,107.999 v 0 c -4.138,1.882 -9.046,-0.015 -10.963,-4.238 l -1.838,-4.047 c -1.917,-4.222 -0.117,-9.171 4.02,-11.053 v 0 c 4.138,-1.882 9.045,0.016 10.963,4.238 l 1.837,4.048 c 1.918,4.221 0.118,9.17 -4.019,11.052"
   id="path39" />&#10;						<path
   style="fill:none;stroke:#000000;stroke-width:1.5;stroke-miterlimit:10"
   d="m 114.103,107.999 v 0 c -4.138,1.882 -9.046,-0.015 -10.963,-4.238 l -1.838,-4.047 c -1.917,-4.222 -0.117,-9.171 4.02,-11.053 v 0 c 4.138,-1.882 9.045,0.016 10.963,4.238 l 1.837,4.048 c 1.918,4.221 0.118,9.17 -4.019,11.052"
   id="path40" />&#10;						<path
   d="m 116.285,92.898 c -1.037,-2.285 -2.953,-3.881 -5.146,-4.574 -0.69,0.051 -1.37,0.212 -2.017,0.507 -3.65,1.66 -4.919,6.731 -2.833,11.326 2.087,4.595 6.737,6.974 10.388,5.313 0.332,-0.151 0.636,-0.338 0.927,-0.543 1.447,-2.3 1.743,-5.288 0.519,-7.982 z"
   id="path41" />&#10;					</g>&#10;					<g
   id="g44">&#10;						<path
   style="fill:#ffffff"
   d="m 141.38,96.624 v 0 c 4.278,-1.538 6.47,-6.322 4.897,-10.684 l -1.507,-4.182 c -1.572,-4.362 -6.314,-6.652 -10.591,-5.114 v 0 c -4.277,1.538 -6.47,6.322 -4.898,10.684 l 1.508,4.182 c 1.572,4.363 6.314,6.652 10.591,5.114"
   id="path42" />&#10;						<path
   style="fill:none;stroke:#000000;stroke-width:1.5;stroke-miterlimit:10"
   d="m 141.38,96.624 v 0 c 4.278,-1.538 6.47,-6.322 4.897,-10.684 l -1.507,-4.182 c -1.572,-4.362 -6.314,-6.652 -10.591,-5.114 v 0 c -4.277,1.538 -6.47,6.322 -4.898,10.684 l 1.508,4.182 c 1.572,4.363 6.314,6.652 10.591,5.114"
   id="path43" />&#10;						<path
   d="m 129.282,87.328 c -0.851,-2.36 -0.592,-4.84 0.496,-6.867 0.53,-0.445 1.129,-0.803 1.799,-1.044 3.773,-1.357 8.22,1.391 9.931,6.138 1.711,4.747 0.039,9.696 -3.735,11.053 -0.343,0.123 -0.691,0.201 -1.043,0.258 -2.641,-0.638 -4.938,-2.573 -5.941,-5.357 z"
   id="path44" />&#10;					</g>&#10;					<path
   style="fill:none;stroke:#000000;stroke-width:1.5;stroke-linejoin:round;stroke-miterlimit:10"
   d="m 130.425,96.26 c 0,0 1.234,3.873 -0.117,4.842 -1.351,0.969 -3.7,-2.731 -3.7,-2.731 0,0 0.848,3.544 -0.606,4.351 -1.454,0.807 -3.617,-3.039 -3.617,-3.039"
   id="path45" />&#10;				</g>&#10;				<path
   style="fill:none;stroke:#000000;stroke-width:2;stroke-miterlimit:10"
   d="m 109.717,49.49 c 50.966,-15.142 76.6,26.703 77.518,61.961 1.071,41.152 -59.923,75.191 -99.422,39.1 C 58.039,123.345 58.752,64.632 109.717,49.49 Z"
   id="path46" />&#10;			</g>&#10;			<path
   style="fill:#ffffff"
   d="m 210.855,65.368 c -6.909,-9.301 -25.743,-11.293 -48.61,-8.233 2.983,2.342 5.702,4.989 8.149,7.883 21.038,-2.389 34.301,2.186 27.36,18.226 -9.28,21.444 -138.174,66.628 -146.343,51.944 -4.857,-8.731 2.668,-19.367 16.504,-29.713 -0.114,-5.22 0.425,-10.44 1.645,-15.504 -24.088,14.994 -39.036,33.063 -30.958,50.241 8.571,18.227 72.971,6.844 106.576,-6.727 39.302,-15.872 79.315,-49.756 65.677,-68.117 z"
   id="path47" />&#10;			<path
   style="fill:none;stroke:#000000;stroke-width:2;stroke-miterlimit:10"
   d="m 210.855,65.368 c -6.909,-9.301 -25.743,-11.293 -48.61,-8.233 2.983,2.342 5.702,4.989 8.149,7.883 21.038,-2.389 34.301,2.186 27.36,18.226 -9.28,21.444 -138.174,66.628 -146.343,51.944 -4.857,-8.731 2.668,-19.367 16.504,-29.713 -0.114,-5.22 0.425,-10.44 1.645,-15.504 -24.088,14.994 -39.036,33.063 -30.958,50.241 8.571,18.227 72.971,6.844 106.576,-6.727 39.302,-15.872 79.315,-49.756 65.677,-68.117 z"
   id="path48" />&#10;		</g>&#10;		<g
   id="g59">&#10;			<g
   id="g51">&#10;				<path
   style="fill:#ffffff"
   d="m 318.209,347.939 c 0,0 -25.712,-13.381 -22.028,-16.973 3.684,-3.591 24.891,1.212 22.251,-6.976 -2.64,-8.188 -17.441,-23.284 -12.444,-23.51 4.997,-0.227 29.732,8.587 28.527,4.336 -1.206,-4.252 -9.775,-12.408 -6.169,-12.198 3.606,0.21 16.362,8.515 17.006,3.197 0.644,-5.319 -4.281,-32.526 1.203,-30.469 5.485,2.057 23.936,21.735 26.215,17.122 2.279,-4.613 3.688,-14.679 6.865,-10.924 3.177,3.755 2.958,16.616 7.803,12.904 4.845,-3.712 19.507,-25.365 21.537,-20.032 2.03,5.333 1.441,27.569 6.653,25.57 5.211,-1.999 16.414,-9.289 16.688,-5.232 0.273,4.056 -5.859,18.406 -2.375,18.045 3.484,-0.361 34.689,-7.099 32.898,-0.202 -1.79,6.896 -24.045,24.96 -18.087,27.843 5.958,2.884 15.966,3.888 12.741,6.848 -3.225,2.96 -16.581,4.345 -13.174,7.785 3.406,3.44 37.687,24.977 31.314,27.097 -6.373,2.12 -38.169,-3.628 -37.544,0.684 0.625,4.312 4.427,12.379 1.416,13.566 -3.011,1.188 -11.062,-1.77 -11.628,-0.253 -0.566,1.518 5.047,27.779 1.456,29.026 -3.591,1.248 -25.912,-10.151 -27.18,-9.144 -1.269,1.007 -4.605,15.942 -4.605,15.942 l -10.999,-7.029 c 0,0 -15.75,29.06 -18.117,24.929 -2.367,-4.131 -2.417,-32.136 -5.887,-30.318 -3.469,1.819 -15.302,15.884 -16.966,12.263 -1.664,-3.621 -1.124,-19.141 -4.944,-17.577 -3.821,1.563 -26.593,14.429 -26.179,9.426 0.414,-5.003 13.183,-29.961 9.211,-31.883 -3.972,-1.922 -24.144,3.671 -21.622,0.2 2.523,-3.471 17.317,-12.008 14.628,-13.48 -2.689,-1.472 -41.468,-7.954 -36.73,-10.779 4.738,-2.825 40.037,-7.071 38.266,-9.804 z"
   id="path49" />&#10;				<path
   style="fill:none;stroke:#000000;stroke-width:2;stroke-miterlimit:10"
   d="m 318.209,347.939 c 0,0 -25.712,-13.381 -22.028,-16.973 3.684,-3.591 24.891,1.212 22.251,-6.976 -2.64,-8.188 -17.441,-23.284 -12.444,-23.51 4.997,-0.227 29.732,8.587 28.527,4.336 -1.206,-4.252 -9.775,-12.408 -6.169,-12.198 3.606,0.21 16.362,8.515 17.006,3.197 0.644,-5.319 -4.281,-32.526 1.203,-30.469 5.485,2.057 23.936,21.735 26.215,17.122 2.279,-4.613 3.688,-14.679 6.865,-10.924 3.177,3.755 2.958,16.616 7.803,12.904 4.845,-3.712 19.507,-25.365 21.537,-20.032 2.03,5.333 1.441,27.569 6.653,25.57 5.211,-1.999 16.414,-9.289 16.688,-5.232 0.273,4.056 -5.859,18.406 -2.375,18.045 3.484,-0.361 34.689,-7.099 32.898,-0.202 -1.79,6.896 -24.045,24.96 -18.087,27.843 5.958,2.884 15.966,3.888 12.741,6.848 -3.225,2.96 -16.581,4.345 -13.174,7.785 3.406,3.44 37.687,24.977 31.314,27.097 -6.373,2.12 -38.169,-3.628 -37.544,0.684 0.625,4.312 4.427,12.379 1.416,13.566 -3.011,1.188 -11.062,-1.77 -11.628,-0.253 -0.566,1.518 5.047,27.779 1.456,29.026 -3.591,1.248 -25.912,-10.151 -27.18,-9.144 -1.269,1.007 -4.605,15.942 -4.605,15.942 l -10.999,-7.029 c 0,0 -15.75,29.06 -18.117,24.929 -2.367,-4.131 -2.417,-32.136 -5.887,-30.318 -3.469,1.819 -15.302,15.884 -16.966,12.263 -1.664,-3.621 -1.124,-19.141 -4.944,-17.577 -3.821,1.563 -26.593,14.429 -26.179,9.426 0.414,-5.003 13.183,-29.961 9.211,-31.883 -3.972,-1.922 -24.144,3.671 -21.622,0.2 2.523,-3.471 17.317,-12.008 14.628,-13.48 -2.689,-1.472 -41.468,-7.954 -36.73,-10.779 4.738,-2.825 40.037,-7.071 38.266,-9.804 z"
   id="path50" />&#10;				<path
   style="fill:none;stroke:#000000;stroke-width:2;stroke-miterlimit:10"
   d="m 333.551,319.775 c 0,0 20.221,-37.717 65.694,-25.296 55.732,15.224 46.137,105.395 -10.33,106.431 -61.372,1.127 -74.853,-52.527 -55.364,-81.135 z"
   id="path51" />&#10;			</g>&#10;			<g
   id="g58">&#10;				<g
   id="g53">&#10;					<path
   style="fill:#ffffff"
   d="m 364.805,355.931 c -0.664,3.934 -5.313,6.436 -10.384,5.588 -5.07,-0.849 -8.642,-4.726 -7.977,-8.66 0.665,-3.935 5.314,-6.437 10.384,-5.588 5.07,0.847 8.642,4.725 7.977,8.66 z"
   id="path52" />&#10;					<path
   style="fill:none;stroke:#000000;stroke-miterlimit:10"
   d="m 364.805,355.931 c -0.664,3.934 -5.313,6.436 -10.384,5.588 -5.07,-0.849 -8.642,-4.726 -7.977,-8.66 0.665,-3.935 5.314,-6.437 10.384,-5.588 5.07,0.847 8.642,4.725 7.977,8.66 z"
   id="path53" />&#10;				</g>&#10;				<g
   id="g55">&#10;					<path
   style="fill:#ffffff"
   d="m 412.365,355.179 c 0.264,3.981 -3.679,7.491 -8.809,7.84 -5.129,0.348 -9.501,-2.597 -9.765,-6.578 -0.264,-3.982 3.68,-7.492 8.809,-7.84 5.129,-0.349 9.501,2.597 9.765,6.578 z"
   id="path54" />&#10;					<path
   style="fill:none;stroke:#000000;stroke-miterlimit:10"
   d="m 412.365,355.179 c 0.264,3.981 -3.679,7.491 -8.809,7.84 -5.129,0.348 -9.501,-2.597 -9.765,-6.578 -0.264,-3.982 3.68,-7.492 8.809,-7.84 5.129,-0.349 9.501,2.597 9.765,6.578 z"
   id="path55" />&#10;				</g>&#10;				<path
   style="fill:none;stroke:#000000;stroke-width:1.5;stroke-miterlimit:10"
   d="m 379.251,344.378 c 0,0 -0.218,6.713 1.604,6.796 2.214,0.102 2.52,-6.567 2.52,-6.567"
   id="path56" />&#10;				<path
   d="m 373.363,347.32 c -0.805,2.347 -5.946,-1.398 -12.795,-3.748 -6.849,-2.35 -12.813,-2.415 -12.008,-4.762 0.805,-2.346 7.444,-4.248 14.293,-1.898 6.849,2.349 11.315,8.061 10.51,10.408 z"
   id="path57" />&#10;				<path
   d="m 388.764,346.865 c 0.511,2.427 6.073,-0.657 13.159,-2.148 7.086,-1.491 13.012,-0.822 12.502,-3.25 -0.511,-2.428 -6.865,-5.131 -13.951,-3.641 -7.087,1.492 -12.221,6.611 -11.71,9.039 z"
   id="path58" />&#10;			</g>&#10;		</g>&#10;		<g
   id="g81">&#10;			<g
   id="g65">&#10;				<path
   style="fill:#ffffff"
   d="m 297.56,99.764 c 0,0 11.981,-55.644 76.475,-56.936 79.046,-1.584 101.273,116.862 27.543,139.431 C 321.442,206.788 283.023,143.531 297.56,99.764 Z"
   id="path59" />&#10;				<path
   style="fill:none;stroke:#000000;stroke-width:1.75;stroke-miterlimit:10"
   d="m 340.666,164.476 c 0,0 -0.996,-8.733 4.156,-11.024 5.151,-2.292 5.009,4.276 9.389,4.462 4.38,0.186 9.674,5.003 6.759,9.712 -2.914,4.708 -18.433,8.301 -20.304,-3.15 z"
   id="path60" />&#10;				<path
   style="fill:none;stroke:#000000;stroke-width:1.75;stroke-miterlimit:10"
   d="m 411.078,154.332 c 7.667,0.393 8.422,10.772 -0.612,10.406 -9.034,-0.366 -4.491,-10.668 0.612,-10.406 z"
   id="path61" />&#10;				<path
   style="fill:none;stroke:#000000;stroke-width:2;stroke-miterlimit:10"
   d="m 297.56,99.764 c 0,0 11.981,-55.644 76.475,-56.936 79.046,-1.584 101.273,116.862 27.543,139.431 C 321.442,206.788 283.023,143.531 297.56,99.764 Z"
   id="path62" />&#10;				<path
   style="fill:none;stroke:#000000;stroke-width:1.75;stroke-miterlimit:10"
   d="m 362.233,75.965 c -5.25,-2.862 3.529,-8.972 4.878,-15.675 0.746,-3.706 -2.891,-10.289 -7.559,-16.162 -27.573,4.542 -43.349,19.984 -52.078,33.452 0.205,3.69 0.798,7.267 2.686,10.277 6.896,10.989 11.182,2.743 18.004,10.024 6.822,7.281 -3.202,25.285 2.152,33.338 5.354,8.052 23.343,5.376 30.535,-5.895 7.192,-11.271 19.841,-36.023 19.708,-42.697 -0.135,-6.673 -13.076,-3.8 -18.326,-6.662 z"
   id="path63" />&#10;				<path
   style="fill:none;stroke:#000000;stroke-width:1.75;stroke-miterlimit:10"
   d="m 390.405,44.331 c -1.019,6.869 -2.214,9.011 -3.843,13.033 -1.969,4.861 -6.664,11.154 -0.399,14.473 6.266,3.318 10.906,-5.729 19.871,-5.22 7.43,0.422 16.842,5.525 22.067,0.552 -9.349,-11.173 -22.058,-19.562 -37.696,-22.838 z"
   id="path64" />&#10;				<path
   style="fill:none;stroke:#000000;stroke-width:1.75;stroke-miterlimit:10"
   d="m 445.978,109.107 c -0.993,-8.082 -3.184,-16.071 -6.5,-23.558 -4.292,-1.063 -9.304,-1.774 -13.105,-0.743 -8.221,2.231 -15.877,-1.748 -14.335,6.487 1.542,8.235 10.604,13.563 5.178,17.805 -5.425,4.241 -8.854,4.999 -6.637,12.531 2.217,7.532 -2.437,15.891 7.189,15.01 6.632,-0.607 21.528,-12.823 28.21,-27.532 z"
   id="path65" />&#10;			</g>&#10;			<g
   id="g70">&#10;				<path
   d="m 363.856,115.456 c 8.32,-0.286 8.293,5.983 11.671,5.564 3.378,-0.418 7.512,-5.391 11.924,-1.546 4.413,3.846 1.594,21.902 -19.78,16.588 -14.955,-3.719 -12.133,-20.32 -3.815,-20.606 z"
   id="path66" />&#10;				<path
   style="fill:#ffffff"
   d="m 368.167,136.173 c 2.434,-4.364 7.794,-7.325 13.915,-7.161 1.898,0.051 3.696,0.408 5.345,0.996 -0.047,0.411 -0.125,0.831 -0.234,1.251 -2.794,4.233 -8.698,7.337 -19.026,4.914 z"
   id="path67" />&#10;				<path
   style="fill:none;stroke:#000000;stroke-width:1.5;stroke-miterlimit:10"
   d="m 368.167,136.173 c 2.434,-4.364 7.794,-7.325 13.915,-7.161 1.898,0.051 3.696,0.408 5.345,0.996 -0.047,0.411 -0.125,0.831 -0.234,1.251 -2.794,4.233 -8.698,7.337 -19.026,4.914 z"
   id="path68" />&#10;				<path
   style="fill:#ffffff"
   d="m 388.728,121.466 c -0.303,-0.831 -0.734,-1.519 -1.276,-1.991 -4.413,-3.846 -8.546,1.127 -11.924,1.546 -3.378,0.419 -3.351,-5.85 -11.671,-5.564 -0.486,0.017 -0.951,0.094 -1.397,0.216 0.354,14.611 25.277,9.433 26.268,5.793 z"
   id="path69" />&#10;				<path
   style="fill:none;stroke:#000000;stroke-width:1.5;stroke-miterlimit:10"
   d="m 363.856,115.456 c 8.32,-0.286 8.293,5.983 11.671,5.564 3.378,-0.418 7.512,-5.391 11.924,-1.546 4.413,3.846 1.594,21.902 -19.78,16.588 -14.955,-3.719 -12.133,-20.32 -3.815,-20.606 z"
   id="path70" />&#10;			</g>&#10;			<g
   id="g72">&#10;				<path
   style="fill:#ffffff"
   d="m 399.475,123.985 c -0.388,4.404 3.896,8.385 9.57,8.894 5.673,0.508 10.586,-2.65 10.973,-7.054 0.387,-4.404 -3.897,-8.386 -9.57,-8.894 -5.672,-0.509 -10.586,2.65 -10.973,7.054 z"
   id="path71" />&#10;				<path
   style="fill:none;stroke:#000000;stroke-miterlimit:10"
   d="m 399.475,123.985 c -0.388,4.404 3.896,8.385 9.57,8.894 5.673,0.508 10.586,-2.65 10.973,-7.054 0.387,-4.404 -3.897,-8.386 -9.57,-8.894 -5.672,-0.509 -10.586,2.65 -10.973,7.054 z"
   id="path72" />&#10;			</g>&#10;			<g
   id="g74">&#10;				<path
   style="fill:#ffffff"
   d="m 332.39,116.432 c -0.511,4.391 3.66,8.491 9.318,9.158 5.656,0.666 10.656,-2.353 11.166,-6.744 0.51,-4.392 -3.661,-8.492 -9.318,-9.158 -5.656,-0.667 -10.656,2.353 -11.166,6.744 z"
   id="path73" />&#10;				<path
   style="fill:none;stroke:#000000;stroke-miterlimit:10"
   d="m 332.39,116.432 c -0.511,4.391 3.66,8.491 9.318,9.158 5.656,0.666 10.656,-2.353 11.166,-6.744 0.51,-4.392 -3.661,-8.492 -9.318,-9.158 -5.656,-0.667 -10.656,2.353 -11.166,6.744 z"
   id="path74" />&#10;			</g>&#10;			<g
   id="g77">&#10;				<path
   style="fill:#ffffff"
   d="m 394.99,116.379 v 0 c 5.504,0.448 10.332,-3.741 10.785,-9.356 l 0.434,-5.382 c 0.453,-5.615 -3.642,-10.53 -9.145,-10.978 v 0 c -5.504,-0.448 -10.332,3.741 -10.785,9.356 l -0.434,5.383 c -0.452,5.615 3.642,10.529 9.145,10.977"
   id="path75" />&#10;				<path
   style="fill:none;stroke:#000000;stroke-width:1.5;stroke-miterlimit:10"
   d="m 394.99,116.379 v 0 c 5.504,0.448 10.332,-3.741 10.785,-9.356 l 0.434,-5.382 c 0.453,-5.615 -3.642,-10.53 -9.145,-10.978 v 0 c -5.504,-0.448 -10.332,3.741 -10.785,9.356 l -0.434,5.383 c -0.452,5.615 3.642,10.529 9.145,10.977"
   id="path76" />&#10;				<path
   d="m 386.28,100.019 c 0.245,-3.038 1.777,-5.651 3.999,-7.345 0.81,-0.226 1.653,-0.321 2.514,-0.251 4.855,0.395 8.392,5.669 7.9,11.779 -0.493,6.11 -4.829,10.743 -9.685,10.348 -0.441,-0.036 -0.866,-0.125 -1.283,-0.239 -2.6,-2.033 -4.168,-5.326 -3.879,-8.91 z"
   id="path77" />&#10;			</g>&#10;			<g
   id="g80">&#10;				<path
   style="fill:#ffffff"
   d="m 357.917,113.093 v 0 c 5.506,0.423 10.315,-3.788 10.742,-9.406 l 0.41,-5.384 c 0.427,-5.617 -3.69,-10.513 -9.195,-10.935 v 0 c -5.506,-0.423 -10.315,3.789 -10.742,9.405 l -0.409,5.385 c -0.428,5.617 3.689,10.513 9.194,10.935"
   id="path78" />&#10;				<path
   style="fill:none;stroke:#000000;stroke-width:1.5;stroke-miterlimit:10"
   d="m 357.917,113.093 v 0 c 5.506,0.423 10.315,-3.788 10.742,-9.406 l 0.41,-5.384 c 0.427,-5.617 -3.69,-10.513 -9.195,-10.935 v 0 c -5.506,-0.423 -10.315,3.789 -10.742,9.405 l -0.409,5.385 c -0.428,5.617 3.689,10.513 9.194,10.935"
   id="path79" />&#10;				<path
   d="m 349.132,96.773 c 0.23,-3.039 1.751,-5.659 3.965,-7.364 0.809,-0.23 1.651,-0.329 2.513,-0.262 4.857,0.373 8.418,5.63 7.954,11.743 -0.465,6.113 -4.78,10.766 -9.637,10.393 -0.441,-0.034 -0.866,-0.121 -1.284,-0.233 -2.609,-2.021 -4.193,-5.307 -3.92,-8.892 z"
   id="path80" />&#10;			</g>&#10;		</g>&#10;		<g
   id="g95">&#10;			<g
   id="g82">&#10;				<path
   style="fill:#ffffff"
   d="m 208.573,327.254 c 0,0 -24.406,-11.866 -20.601,-18.107 5.527,-9.066 30.125,-9.206 30.125,-9.206 0,0 11.238,-32.617 17.288,-29.867 6.05,2.75 15.009,24.872 15.009,24.872 0,0 30.472,-1.417 29.845,5.743 -0.627,7.161 -16.753,21.328 -16.753,21.328 0,0 9.551,31.977 2.126,32.252 -7.425,0.276 -26.265,-12.49 -26.265,-12.49 0,0 -23.022,18.801 -29.765,13.4 -6.741,-5.401 -1.009,-27.925 -1.009,-27.925 z"
   id="path81" />&#10;				<path
   style="fill:none;stroke:#000000;stroke-width:2;stroke-miterlimit:10"
   d="m 208.573,327.254 c 0,0 -24.406,-11.866 -20.601,-18.107 5.527,-9.066 30.125,-9.206 30.125,-9.206 0,0 11.238,-32.617 17.288,-29.867 6.05,2.75 15.009,24.872 15.009,24.872 0,0 30.472,-1.417 29.845,5.743 -0.627,7.161 -16.753,21.328 -16.753,21.328 0,0 9.551,31.977 2.126,32.252 -7.425,0.276 -26.265,-12.49 -26.265,-12.49 0,0 -23.022,18.801 -29.765,13.4 -6.741,-5.401 -1.009,-27.925 -1.009,-27.925 z"
   id="path82" />&#10;			</g>&#10;			<g
   id="g94">&#10;				<g
   id="g83">&#10;					<path
   style="fill:none;stroke:#000000;stroke-miterlimit:10"
   d="m 232.038,318.949 c 3.514,-0.854 3.979,1.849 5.457,1.911 1.989,0.083 2.955,-4.295 6.43,-2.096 2.149,1.359 1.901,5.913 -7.83,6.482 -6.752,0.394 -7.57,-5.443 -4.057,-6.297 z"
   id="path83" />&#10;				</g>&#10;				<g
   id="g85">&#10;					<path
   style="fill:#ffffff"
   d="m 223.666,322.739 c 0.115,2.306 -2.201,4.299 -5.172,4.451 -2.971,0.152 -5.472,-1.594 -5.586,-3.9 -0.114,-2.306 2.201,-4.299 5.172,-4.451 2.97,-0.153 5.472,1.593 5.586,3.9 z"
   id="path84" />&#10;					<path
   style="fill:none;stroke:#000000;stroke-width:0.75;stroke-miterlimit:10"
   d="m 223.666,322.739 c 0.115,2.306 -2.201,4.299 -5.172,4.451 -2.971,0.152 -5.472,-1.594 -5.586,-3.9 -0.114,-2.306 2.201,-4.299 5.172,-4.451 2.97,-0.153 5.472,1.593 5.586,3.9 z"
   id="path85" />&#10;				</g>&#10;				<g
   id="g87">&#10;					<path
   style="fill:#ffffff"
   d="m 258.409,321.874 c 0.115,2.306 -2.201,4.299 -5.172,4.451 -2.971,0.152 -5.472,-1.594 -5.586,-3.9 -0.115,-2.306 2.201,-4.299 5.172,-4.451 2.97,-0.152 5.472,1.594 5.586,3.9 z"
   id="path86" />&#10;					<path
   style="fill:none;stroke:#000000;stroke-width:0.75;stroke-miterlimit:10"
   d="m 258.409,321.874 c 0.115,2.306 -2.201,4.299 -5.172,4.451 -2.971,0.152 -5.472,-1.594 -5.586,-3.9 -0.115,-2.306 2.201,-4.299 5.172,-4.451 2.97,-0.152 5.472,1.594 5.586,3.9 z"
   id="path87" />&#10;				</g>&#10;				<g
   id="g90">&#10;					<path
   style="fill:#ffffff"
   d="m 227.239,318.752 v 0 c -3.038,0.131 -5.607,-2.276 -5.738,-5.375 l -0.126,-2.971 c -0.131,-3.099 2.225,-5.718 5.263,-5.849 v 0 c 3.038,-0.131 5.607,2.276 5.738,5.375 l 0.126,2.971 c 0.131,3.1 -2.225,5.718 -5.263,5.849"
   id="path88" />&#10;					<path
   style="fill:none;stroke:#000000;stroke-miterlimit:10"
   d="m 227.239,318.752 v 0 c -3.038,0.131 -5.607,-2.276 -5.738,-5.375 l -0.126,-2.971 c -0.131,-3.099 2.225,-5.718 5.263,-5.849 v 0 c 3.038,-0.131 5.607,2.276 5.738,5.375 l 0.126,2.971 c 0.131,3.1 -2.225,5.718 -5.263,5.849"
   id="path89" />&#10;					<path
   d="m 232.375,309.932 c -0.071,-1.677 -0.859,-3.147 -2.046,-4.126 -0.441,-0.142 -0.903,-0.212 -1.378,-0.191 -2.68,0.115 -4.738,2.943 -4.595,6.316 0.143,3.373 2.432,6.013 5.112,5.898 0.244,-0.011 0.479,-0.05 0.711,-0.104 1.474,-1.064 2.406,-2.844 2.322,-4.822 z"
   id="path90" />&#10;				</g>&#10;				<g
   id="g93">&#10;					<path
   style="fill:#ffffff"
   d="m 247.214,317.284 v 0 c 3.04,0.092 5.577,-2.348 5.668,-5.449 l 0.087,-2.972 c 0.091,-3.101 -2.299,-5.689 -5.338,-5.78 v 0 c -3.04,-0.091 -5.577,2.348 -5.669,5.449 l -0.087,2.973 c -0.091,3.1 2.299,5.688 5.339,5.779"
   id="path91" />&#10;					<path
   style="fill:none;stroke:#000000;stroke-miterlimit:10"
   d="m 247.214,317.284 v 0 c 3.04,0.092 5.577,-2.348 5.668,-5.449 l 0.087,-2.972 c 0.091,-3.101 -2.299,-5.689 -5.338,-5.78 v 0 c -3.04,-0.091 -5.577,2.348 -5.669,5.449 l -0.087,2.973 c -0.091,3.1 2.299,5.688 5.339,5.779"
   id="path92" />&#10;					<path
   d="m 241.963,308.531 c 0.049,-1.678 0.819,-3.158 1.993,-4.152 0.439,-0.147 0.9,-0.223 1.376,-0.209 2.681,0.081 4.775,2.882 4.676,6.256 -0.1,3.374 -2.354,6.044 -5.036,5.964 -0.244,-0.008 -0.48,-0.044 -0.713,-0.095 -1.487,-1.045 -2.442,-2.812 -2.384,-4.791 z"
   id="path93" />&#10;				</g>&#10;			</g>&#10;		</g>&#10;		<g
   id="g106">&#10;			<g
   id="g96">&#10;				<path
   style="fill:#ffffff"
   d="m 264.998,125.494 c 5.07,1.873 6.539,8.303 2.741,12.148 -11.068,11.204 -28.582,34.414 -14.141,58.524 19.438,32.453 56.541,17.043 56.1,25.997 -0.998,20.277 -72.809,72.205 -120.752,5.805 -38.459,-53.265 24.767,-121.419 76.052,-102.474 z"
   id="path95" />&#10;				<path
   style="fill:none;stroke:#000000;stroke-width:2;stroke-miterlimit:10"
   d="m 264.998,125.494 c 5.07,1.873 6.539,8.303 2.741,12.148 -11.068,11.204 -28.582,34.414 -14.141,58.524 19.438,32.453 56.541,17.043 56.1,25.997 -0.998,20.277 -72.809,72.205 -120.752,5.805 -38.459,-53.265 24.767,-121.419 76.052,-102.474 z"
   id="path96" />&#10;			</g>&#10;			<g
   id="g105">&#10;				<g
   id="g98">&#10;					<path
   style="fill:#ffffff"
   d="m 210.596,216.826 c 0.601,2.964 -2.007,5.999 -5.825,6.779 -3.818,0.779 -7.399,-0.991 -8,-3.955 -0.6,-2.964 2.007,-6 5.825,-6.779 3.818,-0.78 7.4,0.991 8,3.955 z"
   id="path97" />&#10;					<path
   style="fill:none;stroke:#000000;stroke-miterlimit:10"
   d="m 210.596,216.826 c 0.601,2.964 -2.007,5.999 -5.825,6.779 -3.818,0.779 -7.399,-0.991 -8,-3.955 -0.6,-2.964 2.007,-6 5.825,-6.779 3.818,-0.78 7.4,0.991 8,3.955 z"
   id="path98" />&#10;				</g>&#10;				<g
   id="g100">&#10;					<path
   style="fill:#ffffff"
   d="m 249.441,200.391 c 1.464,2.646 -0.11,6.325 -3.517,8.217 -3.406,1.891 -7.355,1.28 -8.819,-1.366 -1.464,-2.647 0.11,-6.325 3.517,-8.217 3.406,-1.892 7.355,-1.28 8.819,1.366 z"
   id="path99" />&#10;					<path
   style="fill:none;stroke:#000000;stroke-miterlimit:10"
   d="m 249.441,200.391 c 1.464,2.646 -0.11,6.325 -3.517,8.217 -3.406,1.891 -7.355,1.28 -8.819,-1.366 -1.464,-2.647 0.11,-6.325 3.517,-8.217 3.406,-1.892 7.355,-1.28 8.819,1.366 z"
   id="path100" />&#10;				</g>&#10;				<g
   id="g103">&#10;					<path
   style="fill:#ffffff"
   d="m 209.484,209.225 v 0 c -3.71,0.71 -7.303,-1.784 -8.024,-5.57 l -0.692,-3.629 c -0.721,-3.785 1.702,-7.43 5.412,-8.14 v 0 c 3.71,-0.71 7.303,1.784 8.024,5.569 l 0.691,3.629 c 0.722,3.787 -1.701,7.431 -5.411,8.141"
   id="path101" />&#10;					<path
   style="fill:none;stroke:#000000;stroke-width:1.5;stroke-miterlimit:10"
   d="m 209.484,209.225 v 0 c -3.71,0.71 -7.303,-1.784 -8.024,-5.57 l -0.692,-3.629 c -0.721,-3.785 1.702,-7.43 5.412,-8.14 v 0 c 3.71,-0.71 7.303,1.784 8.024,5.569 l 0.691,3.629 c 0.722,3.787 -1.701,7.431 -5.411,8.141"
   id="path102" />&#10;					<path
   d="m 214.203,197.456 c -0.39,-2.048 -1.625,-3.713 -3.26,-4.702 -0.567,-0.094 -1.148,-0.097 -1.728,0.014 -3.273,0.626 -5.291,4.474 -4.506,8.593 0.785,4.12 4.076,6.952 7.349,6.325 0.297,-0.057 0.58,-0.149 0.855,-0.257 1.619,-1.574 2.443,-3.93 1.982,-6.346 z"
   id="path103" />&#10;				</g>&#10;				<path
   style="fill:none;stroke:#000000;stroke-width:1.5;stroke-miterlimit:10"
   d="m 220.903,202.725 c 0,0 1.108,3.496 2.428,3.086 1.32,-0.41 1.148,-3.988 1.148,-3.988"
   id="path104" />&#10;				<path
   d="m 247.097,190.008 c 0.96,1.617 -3.726,2.748 -8.445,5.551 -4.719,2.803 -7.683,6.215 -8.643,4.599 -0.96,-1.617 1.199,-6.385 5.918,-9.187 4.719,-2.803 10.21,-2.58 11.17,-0.963 z"
   id="path105" />&#10;			</g>&#10;		</g>&#10;	</g>&#10;</g>&#10;</svg>
