<?xml version="1.0" encoding="UTF-8" standalone="no"?>
<!-- Created with Inkscape (http://www.inkscape.org/) -->

<svg
   xmlns:dc="http://purl.org/dc/elements/1.1/"
   xmlns:cc="http://creativecommons.org/ns#"
   xmlns:rdf="http://www.w3.org/1999/02/22-rdf-syntax-ns#"
   xmlns:svg="http://www.w3.org/2000/svg"
   xmlns="http://www.w3.org/2000/svg"
   xmlns:sodipodi="http://sodipodi.sourceforge.net/DTD/sodipodi-0.dtd"
   xmlns:inkscape="http://www.inkscape.org/namespaces/inkscape"
   width="260.39447"
   height="474.87811"
   viewBox="0 0 68.896034 125.64484"
   version="1.1"
   id="svg6494"
   inkscape:version="0.92.1 r15371"
   sodipodi:docname="rabbit.svg">
  <defs
     id="defs6488" />
  <sodipodi:namedview
     id="base"
     pagecolor="#ffffff"
     bordercolor="#666666"
     borderopacity="1.0"
     inkscape:pageopacity="0.0"
     inkscape:pageshadow="2"
     inkscape:zoom="0.98994949"
     inkscape:cx="44.052547"
     inkscape:cy="188.629"
     inkscape:document-units="px"
     inkscape:current-layer="layer1"
     showgrid="false"
     fit-margin-left="3"
     fit-margin-top="2"
     fit-margin-bottom="2"
     fit-margin-right="3"
     inkscape:window-width="1920"
     inkscape:window-height="1003"
     inkscape:window-x="-9"
     inkscape:window-y="-9"
     inkscape:window-maximized="1"
     units="px" />
  <metadata
     id="metadata6491">
    <rdf:RDF>
      <cc:Work
         rdf:about="">
        <dc:format>image/svg+xml</dc:format>
        <dc:type
           rdf:resource="http://purl.org/dc/dcmitype/StillImage" />
        <dc:title></dc:title>
      </cc:Work>
    </rdf:RDF>
  </metadata>
  <g
     inkscape:label="Layer 1"
     inkscape:groupmode="layer"
     id="layer1"
     transform="translate(-43.415077,-76.183532)">
    <path
       inkscape:connector-curvature="0"
       d="m 70.295268,126.55971 -2.197805,3.57011 H 63.437268 C 58.604213,118.6776 52.515269,84.502957 68.700713,79.015146 c 7.362471,-2.506133 11.03136,10.569927 2.113139,31.430384 -1.947334,4.59211 -1.386417,11.22821 -0.518584,16.11418 v 0"
       style="fill:#ffffff;fill-opacity:1;fill-rule:evenodd;stroke:none;stroke-width:0.03527778"
       id="path236" />
    <path
       inkscape:connector-curvature="0"
       d="m 63.790046,129.60065 h 4.011083 l 1.940278,-3.14712 c -0.846667,-4.84259 -1.407583,-11.51361 0.585611,-16.21438 6.600472,-15.442491 6.120695,-26.239607 2.878666,-29.737046 -1.150055,-1.241778 -2.610555,-1.573036 -4.335638,-0.986014 -3.340805,1.13277 -5.901972,3.635022 -7.609416,7.437967 -5.249333,11.677296 -1.252361,33.400643 2.529416,42.646593 z m 4.307417,1.05834 h -4.660195 c -0.215194,0 -0.405694,-0.12735 -0.490361,-0.3235 -3.65125,-8.66422 -8.350249,-31.134753 -2.652888,-43.81535 1.834444,-4.081639 4.607277,-6.77545 8.23736,-8.006291 2.0955,-0.713317 4.03225,-0.26282 5.450418,1.268941 3.580693,3.865386 4.14161,14.9098 -2.681112,30.87088 -1.919111,4.52472 -1.322917,11.09733 -0.483306,15.81361 0.02117,0.12806 -0.0035,0.25965 -0.07055,0.37007 l -2.197806,3.57011 c -0.09525,0.15628 -0.268111,0.25153 -0.451555,0.25153"
       style="fill:#000000;fill-opacity:1;fill-rule:nonzero;stroke:none;stroke-width:0.03527778"
       id="path238" />
    <path
       inkscape:connector-curvature="0"
       d="m 94.195963,131.69792 -3.852333,0.22401 -1.30175,-3.82199 c 0.645583,-3.79412 -0.405696,-12.48833 -6.985,-23.78639 -7.92339,-13.622166 3.848804,-26.152479 9.225137,-24.766415 1.87678,0.503766 4.13103,2.841977 4.48028,4.465814 0.9525,4.158191 -2.93864,9.506302 0,17.654411 1.580443,4.36809 8.286743,17.7105 -1.566334,30.03056 v 0"
       style="fill:#ffffff;fill-opacity:1;fill-rule:evenodd;stroke:none;stroke-width:0.03527778"
       id="path240" />
    <path
       inkscape:connector-curvature="0"
       d="m 89.585157,128.05443 1.12889,3.31576 3.213803,-0.18662 c 8.58661,-10.93153 3.887613,-22.84236 1.87325,-27.94494 -0.211666,-0.53128 -0.39511,-0.9973 -0.53622,-1.391 -1.85914,-5.155143 -1.054807,-9.241015 -0.409223,-12.523965 0.391583,-1.98755 0.73025,-3.704166 0.391583,-5.192183 -0.29986,-1.381125 -2.338917,-3.599745 -4.102806,-4.073172 -2.070804,-0.535164 -5.316361,1.374069 -7.71525,4.539191 -1.622777,2.142773 -6.484054,9.87813 -0.917221,19.450049 6.307667,10.82781 7.754054,19.65889 7.073194,24.00688 z m 4.610806,3.64349 h 0.0035 z m -3.852333,0.75318 c -0.22578,0 -0.426863,-0.14287 -0.500946,-0.35842 l -1.30175,-3.822 c -0.02822,-0.0836 -0.03528,-0.1725 -0.02117,-0.25929 0.70203,-4.12467 -0.691444,-12.73598 -6.9215,-23.4315 -5.894917,-10.13742 -0.733777,-18.346558 0.98778,-20.621269 2.684637,-3.546475 6.31472,-5.570008 8.8265,-4.924072 2.010833,0.540102 4.462637,2.995436 4.868333,4.867275 0.388054,1.701094 0.02822,3.520369 -0.38453,5.626452 -0.656166,3.319286 -1.397,7.080955 0.363363,11.959524 0.14111,0.38523 0.321027,0.84172 0.525637,1.36242 2.091973,5.3019 6.988523,17.71827 -2.176637,29.17825 -0.09525,0.11712 -0.232833,0.18909 -0.384529,0.19791 l -3.848804,0.22401 c -0.01058,2.7e-4 -0.02117,8e-4 -0.03175,8e-4"
       style="fill:#000000;fill-opacity:1;fill-rule:nonzero;stroke:none;stroke-width:0.03527778"
       id="path242" />
    <path
       inkscape:connector-curvature="0"
       d="m 67.173185,93.799356 c 4.229805,-0.322086 4.677833,5.796139 3.136194,10.206214 -3.178527,9.156 -5.012972,14.28009 -2.070805,23.32426 -0.01411,0.93803 -0.02822,1.87607 -0.02822,2.8141 -0.839613,-0.50412 -1.679225,-1.00788 -2.508252,-1.52611 -2.82575,-5.76792 -4.702528,-15.72225 -4.367389,-23.77229 0.183444,-4.15819 1.693333,-10.724088 5.838472,-11.046174 v 0"
       style="fill:#ffffff;fill-opacity:1;fill-rule:evenodd;stroke:none;stroke-width:0.03527778"
       id="path244" />
    <path
       inkscape:connector-curvature="0"
       d="m 66.114852,128.24987 c 0.518583,0.32456 1.04775,0.64558 1.569861,0.96132 0.0035,-0.60043 0.01411,-1.20121 0.02117,-1.80164 -2.928055,-9.0812 -1.065388,-14.45189 2.017889,-23.33201 l 0.08467,-0.24554 c 1.121833,-3.21169 1.019528,-6.868227 -0.239889,-8.506174 -0.575028,-0.748947 -1.347611,-1.074561 -2.353028,-0.999067 -3.880555,0.302331 -5.196416,7.027691 -5.351638,10.541711 -0.324556,7.79709 1.4605,17.59514 4.250972,23.3814 z m 2.0955,2.42323 c -0.09525,0 -0.1905,-0.0251 -0.271639,-0.0755 -0.829028,-0.49565 -1.68275,-1.00824 -2.515306,-1.53105 -0.08467,-0.0526 -0.151694,-0.127 -0.194028,-0.21555 -2.896305,-5.90797 -4.755444,-16.01294 -4.423833,-24.02769 0.183445,-4.12257 1.718028,-11.193644 6.328833,-11.551713 v 0 c 1.354667,-0.10407 2.483556,0.384528 3.273778,1.408994 1.756833,2.286 1.439333,6.526739 0.402167,9.499249 l -0.08467,0.24483 c -3.122083,8.99371 -4.843639,13.94812 -1.986139,22.74146 0.02117,0.0557 0.02822,0.1136 0.02822,0.1718 -0.01411,0.93522 -0.02822,1.87043 -0.02822,2.806 0,0.19085 -0.102305,0.36654 -0.268111,0.46038 -0.08114,0.0459 -0.172861,0.0688 -0.261055,0.0688"
       style="fill:#000000;fill-opacity:1;fill-rule:nonzero;stroke:none;stroke-width:0.03527778"
       id="path246" />
    <path
       inkscape:connector-curvature="0"
       d="m 87.221547,96.263509 c -4.22628,-0.336197 -3.249084,5.740051 -0.490363,9.505951 5.23875,7.19631 6.385279,15.45625 3.347863,23.91233 0.0141,0.93804 0.02822,1.89019 0.02822,2.82822 0.839613,-0.51787 1.679223,-1.02199 2.504723,-1.53987 4.691944,-7.43444 4.116917,-16.31033 2.310694,-24.16457 -1.259417,-5.43207 -3.556,-10.220328 -7.701137,-10.542061 v 0"
       style="fill:#ffffff;fill-opacity:1;fill-rule:evenodd;stroke:none;stroke-width:0.03527778"
       id="path248" />
    <path
       inkscape:connector-curvature="0"
       d="m 92.61199,130.97014 h 0.0035 z m -2.003777,-1.2005 c 0.01058,0.59654 0.01765,1.19838 0.02469,1.79775 0.05292,-0.0321 0.105833,-0.0646 0.15875,-0.097 0.479777,-0.29421 0.959556,-0.58737 1.435806,-0.88441 3.7465,-6.00957 4.45911,-13.75128 2.180167,-23.66186 -1.502833,-6.46783 -3.933473,-9.877429 -7.22489,-10.133193 -0.0035,0 -0.0035,0 -0.0035,0 -0.948973,-0.07479 -1.5875,0.203905 -1.950863,0.853722 -0.889,1.593144 -0.0035,5.170311 1.929697,7.812261 5.319887,7.3085 6.50875,15.71343 3.450166,24.31274 z m -0.500946,3.26954 c -0.08819,0 -0.179917,-0.0222 -0.257527,-0.0674 -0.169333,-0.0931 -0.27164,-0.27023 -0.27164,-0.46179 0,-0.93556 -0.0141,-1.88489 -0.02822,-2.8201 0,-0.0639 0.01058,-0.127 0.03175,-0.18697 2.973917,-8.2864 1.8415,-16.38547 -3.277307,-23.42233 -1.95086,-2.66347 -3.231443,-6.74088 -1.996723,-8.951738 0.395113,-0.710847 1.227667,-1.529997 2.95628,-1.39312 v 0 c 3.80647,0.295628 6.558137,3.980039 8.17386,10.950218 2.360083,10.25631 1.580444,18.29189 -2.377723,24.56639 -0.04233,0.067 -0.09878,0.12383 -0.165804,0.16616 -0.515056,0.32138 -1.03364,0.63782 -1.552223,0.95532 -0.3175,0.19438 -0.638527,0.38947 -0.959556,0.58667 -0.08467,0.0522 -0.179917,0.0787 -0.275167,0.0787"
       style="fill:#000000;fill-opacity:1;fill-rule:nonzero;stroke:none;stroke-width:0.03527778"
       id="path250" />
    <path
       inkscape:connector-curvature="0"
       d="M 89.39113,170.94056 H 66.598157 c -8.805333,2.57634 -10.092972,14.44837 -9.447388,18.81647 0.34925,2.33821 2.113138,-5.22218 6.018388,-4.80202 2.141361,0.23778 3.961695,3.78002 2.7305,13.88816 -0.07055,0.60219 6.678083,0.60219 6.720417,0 0.335139,-3.78002 4.550833,-5.18019 5.235223,-5.16608 h 0.0141 c 0.673806,0 4.900083,1.38606 5.235223,5.16608 0.04233,0.60219 6.79097,0.60219 6.720417,0 -1.231197,-10.10814 0.589137,-13.65038 2.7305,-13.88816 3.90525,-0.42016 5.669137,7.14023 6.021916,4.80202 0.642054,-4.3681 -0.377473,-16.24013 -9.186333,-18.81647 v 0"
       style="fill:#ffffff;fill-opacity:1;fill-rule:evenodd;stroke:none;stroke-width:0.03527778"
       id="path252" />
    <path
       inkscape:connector-curvature="0"
       d="m 83.605573,198.55354 c 0.92075,0.2734 4.607277,0.28575 5.655027,0.0279 -0.75847,-6.48265 -0.3175,-10.97174 1.280584,-12.98998 0.536223,-0.67804 1.213556,-1.07986 1.957916,-1.16241 2.712863,-0.29386 4.41325,2.59821 5.425723,4.32541 0.06703,0.10866 0.134057,0.22472 0.201084,0.33761 0.508,-4.96394 -0.9525,-15.26364 -8.80886,-17.62231 H 66.675768 c -8.145638,2.44405 -9.475611,13.18331 -9.073444,17.61666 0.06703,-0.11112 0.134056,-0.22507 0.197556,-0.33196 1.012472,-1.72685 2.712861,-4.61892 5.425722,-4.32541 0.744361,0.0825 1.421694,0.48437 1.957916,1.16205 1.598084,2.01824 2.039056,6.50593 1.280584,12.99034 1.04775,0.25823 4.737805,0.24553 5.655027,-0.0282 0.511528,-3.80013 4.702528,-5.42185 5.746751,-5.40526 0.878417,0 5.224637,1.47778 5.739693,5.40561 z m 0.02469,0.22613 c 0.0035,0.005 0.0035,0.0113 0.0035,0.0166 0,-0.006 0,-0.0113 -0.0035,-0.0166 z m -11.535832,0.008 c 0,0.006 -0.0035,0.0124 -0.0035,0.0187 0,-0.006 0.0035,-0.0127 0.0035,-0.0187 z m 14.442722,1.0407 c -1.502834,0 -3.009194,-0.13124 -3.513667,-0.3676 -0.36336,-0.17145 -0.433917,-0.43744 -0.4445,-0.58067 -0.313973,-3.51684 -4.346223,-4.67007 -4.709583,-4.67395 0,0 0,0 -0.0035,0 -0.63853,0 -4.420307,1.33773 -4.720167,4.68383 -0.0071,0.13335 -0.07761,0.39934 -0.4445,0.57079 -1.026584,0.48084 -6.201834,0.52564 -7.0485,-0.0822 -0.204611,-0.14747 -0.306917,-0.36513 -0.278695,-0.59655 1.033639,-8.47866 -0.194027,-11.49209 -1.019527,-12.5342 -0.363361,-0.45755 -0.779639,-0.71578 -1.241778,-0.76694 -2.035528,-0.2159 -3.517194,2.30294 -4.399139,3.8093 -0.60325,1.02694 -0.906639,1.54234 -1.464028,1.43404 -0.504472,-0.0974 -0.592666,-0.67239 -0.624416,-0.889 -0.620889,-4.23157 0.546805,-16.68815 9.824861,-19.40242 0.04939,-0.0141 0.09878,-0.0215 0.148166,-0.0215 h 22.792973 c 0.05292,0 0.102304,0.007 0.148167,0.0215 8.911166,2.60597 10.297583,14.4145 9.560276,19.40136 -0.03175,0.21767 -0.119943,0.7927 -0.620889,0.89006 -0.560917,0.1076 -0.860777,-0.40746 -1.464027,-1.43404 -0.885473,-1.50636 -2.360084,-4.02731 -4.402667,-3.8093 -0.45861,0.0512 -0.878417,0.30939 -1.23825,0.76694 -0.8255,1.04211 -2.056693,4.05554 -1.023056,12.53102 0.02822,0.2346 -0.07408,0.45226 -0.278694,0.59973 -0.43039,0.30938 -1.979083,0.44979 -3.534833,0.44979"
       style="fill:#000000;fill-opacity:1;fill-rule:nonzero;stroke:none;stroke-width:0.03527778"
       id="path254" />
    <path
       inkscape:connector-curvature="0"
       d="m 53.70413,149.49238 c 0,13.34206 10.823222,24.16422 24.165277,24.16422 13.327943,0 24.151163,-10.82216 24.151163,-24.16422 0,-13.3424 -10.82322,-24.15046 -24.151163,-24.15046 -13.342055,0 -24.165277,10.80806 -24.165277,24.15046 v 0"
       style="fill:#ffffff;fill-opacity:1;fill-rule:evenodd;stroke:none;stroke-width:0.03527778"
       id="path256" />
    <path
       inkscape:connector-curvature="0"
       d="m 77.869407,125.87109 c -13.031611,0 -23.63611,10.59639 -23.63611,23.62129 0,13.03232 10.604499,23.63506 23.63611,23.63506 13.024556,0 23.622003,-10.60274 23.622003,-23.63506 0,-13.0249 -10.597447,-23.62129 -23.622003,-23.62129 z m 0,48.31468 c -13.617222,0 -24.694443,-11.07722 -24.694443,-24.69339 0,-13.6084 11.077221,-24.67962 24.694443,-24.67962 13.610166,0 24.680333,11.07122 24.680333,24.67962 0,13.61617 -11.070167,24.69339 -24.680333,24.69339"
       style="fill:#000000;fill-opacity:1;fill-rule:nonzero;stroke:none;stroke-width:0.03527778"
       id="path258" />
    <path
       inkscape:connector-curvature="0"
       d="m 79.661517,166.95065 0.183446,-0.23813 c -0.05645,-0.0141 -0.11289,-0.0279 -0.169333,-0.042 -0.532696,-0.18203 -1.008946,-0.51788 -1.358196,-1.02199 -0.264584,-0.37783 -0.419804,-1.96004 -0.47625,-2.37984 -0.127,0.67169 -0.151694,2.14171 -1.118304,2.85573 -0.254,0.18204 -0.532696,0.30798 -0.81139,0.39229 -0.04233,0.0138 -0.07056,0.0279 -0.11289,0.0279 l 0.264584,0.40605 c 0.645583,0.9659 1.164166,1.10595 1.679223,1.13383 0.546806,0.0282 1.121833,-0.12595 1.91911,-1.13383 v 0"
       style="fill:#ffffff;fill-opacity:1;fill-rule:evenodd;stroke:none;stroke-width:0.03527778"
       id="path260" />
    <path
       inkscape:connector-curvature="0"
       d="m 75.7986,166.01544 z m 0.81139,0.79269 c 0.515057,0.71296 0.87136,0.73236 1.164167,0.74824 0.229306,0.0113 0.599723,0.0303 1.202973,-0.61807 -0.433917,-0.24024 -0.807863,-0.57503 -1.093613,-0.98778 -0.04586,-0.0653 -0.08819,-0.14428 -0.127,-0.23742 -0.17286,0.31398 -0.405694,0.60502 -0.719667,0.83679 -0.134053,0.0967 -0.275166,0.1831 -0.42686,0.25824 z m 1.23825,1.80833 c -0.04233,0 -0.08819,-10e-4 -0.130527,-0.003 -0.638529,-0.0346 -1.329973,-0.22436 -2.0955,-1.36912 L 75.3541,166.83456 c -0.105833,-0.16263 -0.112887,-0.37042 -0.02117,-0.54151 0.08114,-0.14994 0.229306,-0.25048 0.395113,-0.2727 l 0.0141,-0.006 c 0.264583,-0.0794 0.483306,-0.18486 0.670277,-0.31856 0.620889,-0.45967 0.751416,-1.41076 0.846666,-2.10538 0.02117,-0.1584 0.03881,-0.30057 0.0635,-0.41945 0.04586,-0.25506 0.278697,-0.44238 0.532697,-0.43145 0.261053,0.007 0.47625,0.20144 0.511526,0.45897 l 0.02822,0.242 c 0.165803,1.36313 0.28575,1.78929 0.356303,1.90676 0.268113,0.38418 0.631473,0.65864 1.075973,0.81563 l 0.14464,0.0367 c 0.17286,0.0434 0.313971,0.17074 0.370417,0.33902 0.05997,0.16792 0.03175,0.35418 -0.07761,0.49565 l -0.183444,0.23777 c 0,0.002 -0.0035,0.005 -0.0035,0.007 -0.737307,0.93098 -1.411113,1.33738 -2.229557,1.33738"
       style="fill:#000000;fill-opacity:1;fill-rule:nonzero;stroke:none;stroke-width:0.03527778"
       id="path262" />
    <path
       inkscape:connector-curvature="0"
       d="m 89.04188,157.73574 c -0.15875,0 -0.313973,-0.0716 -0.419807,-0.20743 -0.176389,-0.23213 -0.134056,-0.56409 0.09878,-0.74189 1.43228,-1.09785 11.260667,-6.15774 20.277667,-2.14948 0.26458,0.11854 0.38453,0.43145 0.26811,0.6985 -0.11994,0.2667 -0.43039,0.38735 -0.6985,0.26846 -9.366247,-4.16454 -19.117027,1.9558 -19.20522,2.02283 -0.09525,0.0734 -0.20814,0.10901 -0.321027,0.10901"
       style="fill:#000000;fill-opacity:1;fill-rule:nonzero;stroke:none;stroke-width:0.03527778"
       id="path264" />
    <path
       inkscape:connector-curvature="0"
       d="m 106.08104,160.88569 c -0.0847,0 -0.1658,-0.0191 -0.24341,-0.06 -5.36222,-2.79047 -10.86203,-2.96015 -15.490473,-0.47801 l -0.105834,0.0568 c -0.257526,0.13653 -0.578556,0.0378 -0.716139,-0.22083 -0.134054,-0.25859 -0.03528,-0.57891 0.22225,-0.71509 l 0.09878,-0.0533 c 4.945944,-2.65324 10.798526,-2.48532 16.478246,0.47167 0.26106,0.13511 0.35984,0.45473 0.22578,0.71402 -0.0953,0.18097 -0.27869,0.28469 -0.46919,0.28469"
       style="fill:#000000;fill-opacity:1;fill-rule:nonzero;stroke:none;stroke-width:0.03527778"
       id="path266" />
    <path
       inkscape:connector-curvature="0"
       d="m 102.74729,166.93371 c -0.15169,0 -0.29986,-0.0646 -0.40569,-0.19014 -4.497916,-5.39927 -9.42622,-4.04425 -11.04547,-3.59869 -0.148167,0.0402 -0.268113,0.073 -0.359833,0.0935 -0.282224,0.0667 -0.567974,-0.11324 -0.631474,-0.39829 -0.06703,-0.28504 0.11289,-0.56832 0.39864,-0.63358 0.07761,-0.018 0.183444,-0.0469 0.310444,-0.0819 4.78014,-1.31481 8.865306,0.0109 12.142613,3.94123 0.18697,0.22472 0.15522,0.5581 -0.0706,0.74542 -0.0988,0.0825 -0.21872,0.12241 -0.33867,0.12241"
       style="fill:#000000;fill-opacity:1;fill-rule:nonzero;stroke:none;stroke-width:0.03527778"
       id="path268" />
    <path
       inkscape:connector-curvature="0"
       d="m 66.682824,158.15555 c -0.112889,0 -0.229306,-0.0363 -0.324556,-0.11219 -1.128889,-0.88194 -10.58686,-5.84976 -19.198165,-2.0193 -0.268112,0.11889 -0.582084,-0.001 -0.6985,-0.26881 -0.119945,-0.2667 0,-0.57962 0.268111,-0.6985 9.108722,-4.04954 18.863027,1.04634 20.281193,2.15265 0.229306,0.17991 0.268111,0.51258 0.08819,0.74259 -0.102306,0.13371 -0.257528,0.20356 -0.416278,0.20356"
       style="fill:#000000;fill-opacity:1;fill-rule:nonzero;stroke:none;stroke-width:0.03527778"
       id="path270" />
    <path
       inkscape:connector-curvature="0"
       d="m 49.647186,161.30585 c -0.1905,0 -0.377472,-0.10336 -0.469195,-0.28434 -0.137583,-0.25894 -0.03528,-0.57891 0.22225,-0.71402 5.679722,-2.96651 11.532305,-3.13901 16.47825,-0.48613 l 0.09878,0.0533 c 0.261056,0.13617 0.359834,0.4565 0.22225,0.71473 -0.137583,0.25858 -0.455083,0.35736 -0.716139,0.22119 l -0.105833,-0.0565 c -4.624916,-2.48249 -10.128249,-2.30787 -15.486943,0.49142 -0.07761,0.0409 -0.162278,0.0603 -0.243417,0.0603"
       style="fill:#000000;fill-opacity:1;fill-rule:nonzero;stroke:none;stroke-width:0.03527778"
       id="path272" />
    <path
       inkscape:connector-curvature="0"
       d="m 52.977408,167.33976 c -0.119944,0 -0.239889,-0.0402 -0.338667,-0.12241 -0.225777,-0.18733 -0.254,-0.5207 -0.06703,-0.74542 4.907139,-5.88892 10.325805,-4.42736 12.107333,-3.94723 0.141111,0.0378 0.254,0.0684 0.338667,0.0864 0.28575,0.0617 0.465666,0.34325 0.405694,0.62865 -0.0635,0.2861 -0.345722,0.46778 -0.627944,0.40605 -0.09878,-0.0212 -0.229306,-0.0557 -0.391584,-0.0991 -1.619249,-0.43674 -6.547555,-1.76566 -11.020777,3.60291 -0.102305,0.12559 -0.254,0.19015 -0.405694,0.19015"
       style="fill:#000000;fill-opacity:1;fill-rule:nonzero;stroke:none;stroke-width:0.03527778"
       id="path274" />
    <path
       inkscape:connector-curvature="0"
       d="m 80.811573,157.76643 c 0,1.62419 -1.31586,2.94005 -2.942166,2.94005 -1.63689,0 -2.95275,-1.31586 -2.95275,-2.94005 0,-1.62383 1.31586,-2.94005 2.95275,-2.94005 1.626306,0 2.942166,1.31622 2.942166,2.94005 v 0"
       style="fill:#ffffff;fill-opacity:1;fill-rule:evenodd;stroke:none;stroke-width:0.03527778"
       id="path276" />
    <path
       inkscape:connector-curvature="0"
       d="m 77.869407,155.35555 c -1.337027,0 -2.423584,1.08162 -2.423584,2.41088 0,1.32927 1.086557,2.41089 2.423584,2.41089 1.329973,0 2.413,-1.08162 2.413,-2.41089 0,-1.32926 -1.083027,-2.41088 -2.413,-2.41088 z m 0,5.8801 c -1.91911,0 -3.481917,-1.55646 -3.481917,-3.46922 0,-1.91276 1.562807,-3.46921 3.481917,-3.46921 1.912056,0 3.471333,1.55645 3.471333,3.46921 0,1.91276 -1.559277,3.46922 -3.471333,3.46922"
       style="fill:#000000;fill-opacity:1;fill-rule:nonzero;stroke:none;stroke-width:0.03527778"
       id="path278" />
    <path
       inkscape:connector-curvature="0"
       d="m 73.124547,146.77635 c 0,2.24014 -0.702029,4.046 -1.555751,4.046 -0.853722,0 -1.538111,-1.80586 -1.538111,-4.046 0,-2.22603 0.684389,-4.03225 1.538111,-4.03225 0.853722,0 1.555751,1.80622 1.555751,4.03225 v 0"
       style="fill:#ffffff;fill-opacity:1;fill-rule:evenodd;stroke:none;stroke-width:0.03527778"
       id="path280" />
    <path
       inkscape:connector-curvature="0"
       d="m 71.568796,143.27326 c -0.292806,0 -1.008944,1.22767 -1.008944,3.50309 0,2.28423 0.716138,3.51684 1.008944,3.51684 0.299861,0 1.026583,-1.23261 1.026583,-3.51684 0,-2.27542 -0.726722,-3.50309 -1.026583,-3.50309 z m 0,8.07826 c -1.358194,0 -2.067278,-2.30152 -2.067278,-4.57517 0,-2.26695 0.709084,-4.56142 2.067278,-4.56142 1.368777,0 2.084917,2.29447 2.084917,4.56142 0,2.27365 -0.71614,4.57517 -2.084917,4.57517"
       style="fill:#000000;fill-opacity:1;fill-rule:nonzero;stroke:none;stroke-width:0.03527778"
       id="path282" />
    <path
       inkscape:connector-curvature="0"
       d="m 85.697547,146.77635 c 0,2.24014 -0.687917,4.046 -1.54164,4.046 -0.853723,0 -1.552223,-1.80586 -1.552223,-4.046 0,-2.22603 0.6985,-4.03225 1.552223,-4.03225 0.853723,0 1.54164,1.80622 1.54164,4.03225 v 0"
       style="fill:#ffffff;fill-opacity:1;fill-rule:evenodd;stroke:none;stroke-width:0.03527778"
       id="path284" />
    <path
       inkscape:connector-curvature="0"
       d="m 84.155907,143.27326 c -0.296334,0 -1.023057,1.22767 -1.023057,3.50309 0,2.28423 0.726723,3.51684 1.023057,3.51684 0.292806,0 1.012473,-1.23261 1.012473,-3.51684 0,-2.27542 -0.719667,-3.50309 -1.012473,-3.50309 z m 0,8.07826 c -1.368777,0 -2.08139,-2.30152 -2.08139,-4.57517 0,-2.26695 0.712613,-4.56142 2.08139,-4.56142 1.358193,0 2.070806,2.29447 2.070806,4.56142 0,2.27365 -0.712613,4.57517 -2.070806,4.57517"
       style="fill:#000000;fill-opacity:1;fill-rule:nonzero;stroke:none;stroke-width:0.03527778"
       id="path286" />
    <path
       inkscape:connector-curvature="0"
       d="m 77.869407,178.69674 c 5.305777,0 9.62025,2.54811 9.62025,5.6843 0,3.14996 -4.314473,5.69807 -9.62025,5.69807 -5.305778,0 -9.616722,-2.54811 -9.616722,-5.69807 0,-3.13619 4.310944,-5.6843 9.616722,-5.6843 v 0"
       style="fill:#ffffff;fill-opacity:1;fill-rule:evenodd;stroke:none;stroke-width:0.03527778"
       id="path288" />
    <path
       inkscape:connector-curvature="0"
       d="m 77.869407,179.2259 c -4.924777,0 -9.087555,2.36079 -9.087555,5.15514 0,2.8501 4.074583,5.1689 9.087555,5.1689 5.012973,0 9.091083,-2.3188 9.091083,-5.1689 0,-2.79435 -4.162777,-5.15514 -9.091083,-5.15514 z m 0,11.38238 c -5.690306,0 -10.145889,-2.73544 -10.145889,-6.22724 0,-3.42617 4.550833,-6.21347 10.145889,-6.21347 5.595056,0 10.149416,2.7873 10.149416,6.21347 0,3.4918 -4.45911,6.22724 -10.149416,6.22724"
       style="fill:#000000;fill-opacity:1;fill-rule:nonzero;stroke:none;stroke-width:0.03527778"
       id="path290" />
    <path
       inkscape:connector-curvature="0"
       d="m 84.155907,145.68415 c 0.169333,0 0.33514,0.042 0.49036,0.0981 -0.14111,0.0981 -0.225777,0.25188 -0.225777,0.43391 0,0.29422 0.23989,0.53199 0.532694,0.53199 0.183446,0 0.335139,-0.084 0.433916,-0.22401 0.07056,0.15416 0.09878,0.32208 0.09878,0.50412 0,0.72813 -0.60325,1.32997 -1.329973,1.32997 -0.740834,0 -1.344084,-0.60184 -1.344084,-1.32997 0,-0.7419 0.60325,-1.34409 1.344084,-1.34409 v 0"
       style="fill:#000000;fill-opacity:1;fill-rule:evenodd;stroke:none;stroke-width:0.03527778"
       id="path292" />
    <path
       inkscape:connector-curvature="0"
       d="m 71.568796,145.68415 c 0.183444,0 0.352778,0.042 0.504472,0.0981 -0.141111,0.0981 -0.22225,0.25188 -0.22225,0.43391 0,0.29422 0.236361,0.53199 0.529167,0.53199 0.183444,0 0.338666,-0.084 0.433916,-0.22401 0.05644,0.15416 0.09878,0.32208 0.09878,0.50412 0,0.72813 -0.599723,1.32997 -1.344084,1.32997 -0.726722,0 -1.329972,-0.60184 -1.329972,-1.32997 0,-0.7419 0.60325,-1.34409 1.329972,-1.34409 v 0"
       style="fill:#000000;fill-opacity:1;fill-rule:evenodd;stroke:none;stroke-width:0.03527778"
       id="path294" />
    <path
       inkscape:connector-curvature="0"
       d="m 80.557573,167.34929 c -0.356306,0 -0.71261,-0.0589 -1.058333,-0.17921 -0.659693,-0.22613 -1.22061,-0.64806 -1.615723,-1.21956 -0.04586,-0.0653 -0.08819,-0.14428 -0.127,-0.23742 -0.17286,0.31398 -0.405694,0.60502 -0.719667,0.83679 -0.28575,0.20638 -0.613833,0.36477 -0.973666,0.47343 -1.354667,0.39405 -2.797527,-0.11007 -3.598333,-1.25307 -0.405694,-0.5789 -0.617361,-1.03046 -0.582083,-1.75754 0.01411,-0.29174 0.268111,-0.51964 0.553861,-0.5027 0.292806,0.0145 0.515055,0.26246 0.500944,0.55456 -0.01765,0.40323 0.05997,0.61842 0.395111,1.09785 0.53975,0.77223 1.516946,1.11195 2.430639,0.84596 0.243417,-0.0734 0.46214,-0.17886 0.649111,-0.31256 0.620889,-0.45967 0.751416,-1.41076 0.846666,-2.10538 0.02117,-0.1584 0.03881,-0.30057 0.0635,-0.41945 0.04586,-0.25506 0.278697,-0.44239 0.532697,-0.43145 0.261053,0.007 0.47625,0.20144 0.511526,0.45896 l 0.02822,0.24201 c 0.165803,1.36313 0.28575,1.78929 0.356303,1.90676 0.27164,0.38982 0.642057,0.66675 1.09714,0.82268 0.659694,0.23178 1.404057,0.12559 1.989667,-0.28328 0.71614,-0.49318 1.012473,-1.06292 0.93839,-1.79387 -0.03175,-0.29105 0.179916,-0.55069 0.47272,-0.58068 0.28928,-0.0307 0.550333,0.18133 0.578556,0.47237 0.116417,1.12501 -0.34925,2.05776 -1.386416,2.77178 -0.560917,0.39052 -1.22061,0.59302 -1.883834,0.59302"
       style="fill:#000000;fill-opacity:1;fill-rule:nonzero;stroke:none;stroke-width:0.03527778"
       id="path296" />
  </g>
</svg>
