<?xml version="1.0" encoding="UTF-8" standalone="no"?>
<!-- Created with Inkscape (http://www.inkscape.org/) -->

<svg
   xmlns:dc="http://purl.org/dc/elements/1.1/"
   xmlns:cc="http://creativecommons.org/ns#"
   xmlns:rdf="http://www.w3.org/1999/02/22-rdf-syntax-ns#"
   xmlns:svg="http://www.w3.org/2000/svg"
   xmlns="http://www.w3.org/2000/svg"
   xmlns:sodipodi="http://sodipodi.sourceforge.net/DTD/sodipodi-0.dtd"
   xmlns:inkscape="http://www.inkscape.org/namespaces/inkscape"
   width="260.39447"
   height="474.87811"
   viewBox="0 0 1645.02 3000"
   version="1.1"
   id="svg6494"
   inkscape:version="0.92.1 r15371"
   sodipodi:docname="rabbit.svg">
  <defs
     id="defs6488" />
  <sodipodi:namedview
     id="base"
     pagecolor="#ffffff"
     bordercolor="#666666"
     borderopacity="1.0"
     inkscape:pageopacity="0.0"
     inkscape:pageshadow="2"
     inkscape:zoom="0.98994949"
     inkscape:cx="-26.274443"
     inkscape:cy="201.19396"
     inkscape:document-units="px"
     inkscape:current-layer="layer1"
     showgrid="false"
     fit-margin-left="3"
     fit-margin-top="2"
     fit-margin-bottom="2"
     fit-margin-right="3"
     inkscape:window-width="1920"
     inkscape:window-height="1003"
     inkscape:window-x="-9"
     inkscape:window-y="-9"
     inkscape:window-maximized="1"
     units="px"
     viewbox-width="1645.02" />
  <metadata
     id="metadata6491">
    <rdf:RDF>
      <cc:Work
         rdf:about="">
        <dc:format>image/svg+xml</dc:format>
        <dc:type
           rdf:resource="http://purl.org/dc/dcmitype/StillImage" />
        <dc:title />
      </cc:Work>
    </rdf:RDF>
  </metadata>
  <g
     inkscape:label="Layer 1"
     inkscape:groupmode="layer"
     id="layer1"
     transform="translate(-43.415077,-76.183532)">
    <path
       inkscape:connector-curvature="0"
       d="m 690.2223,1287.2194 -51.0265,82.8873 H 530.99993 C 418.79076,1104.2202 277.42357,310.78656 653.20148,183.3759 c 170.93469,-58.18496 256.11539,245.40229 49.0608,729.7201 -45.2113,106.6151 -32.18848,260.6857 -12.03998,374.1234 v 0"
       style="fill:#ffffff;fill-opacity:1;fill-rule:evenodd;stroke:none;stroke-width:0.81904519"
       id="path236" />
    <path
       inkscape:connector-curvature="0"
       d="m 539.19038,1357.821 h 93.12543 l 45.04749,-73.0668 C 657.70621,1172.3237 644.6834,1017.4424 690.95945,908.30448 844.20279,549.77572 833.06379,299.09879 757.79351,217.89864 731.09266,189.06826 697.18419,181.37743 657.13289,195.00633 579.56932,221.30588 520.10664,279.40075 480.46486,367.69381 358.59095,638.80592 451.38876,1143.1575 539.19038,1357.821 Z m 100.00542,24.5715 H 530.99993 c -4.99617,0 -9.41901,-2.9567 -11.38473,-7.5107 C 434.84403,1173.7243 325.74724,652.02534 458.02303,357.61955 500.61337,262.85604 564.99031,200.31374 649.27004,171.73728 c 48.65129,-16.56111 93.61687,-6.1019 126.54251,29.46103 83.13305,89.74277 96.15588,346.16124 -62.24745,716.73009 -44.55605,105.0505 -30.7142,257.647 -11.22093,367.145 0.4915,2.9732 -0.0813,6.0283 -1.63796,8.592 l -51.02652,82.8873 c -2.21143,3.6284 -6.22474,5.8398 -10.48377,5.8398"
       style="fill:#000000;fill-opacity:1;fill-rule:nonzero;stroke:none;stroke-width:0.81904519"
       id="path238" />
    <path
       inkscape:connector-curvature="0"
       d="m 1245.1254,1406.5134 -89.4397,5.2008 -30.2227,-88.7352 c 14.9885,-88.0882 -9.4191,-289.942 -162.17102,-552.24935 -183.95757,-316.26621 89.35782,-607.18283 214.18032,-575.00255 43.5732,11.69595 95.9102,65.98226 104.0188,103.68293 22.1142,96.54084 -68.2265,220.70808 0,409.88296 36.6932,101.41407 192.3935,411.18521 -36.3657,697.22041 v 0"
       style="fill:#ffffff;fill-opacity:1;fill-rule:evenodd;stroke:none;stroke-width:0.81904519"
       id="path240" />
    <path
       inkscape:connector-curvature="0"
       d="m 1138.0762,1321.9223 26.2095,76.9821 74.615,-4.3327 c 199.3555,-253.7977 90.2588,-530.33176 43.4913,-648.7985 -4.9143,-12.33474 -9.1733,-23.15434 -12.4495,-32.29489 -43.1637,-119.68709 -24.4895,-214.5489 -9.5009,-290.76924 9.0914,-46.145 16.9542,-85.99973 9.0914,-120.54706 -6.9619,-32.06561 -54.3027,-83.57538 -95.255,-94.56695 -48.0779,-12.42491 -123.4301,31.9018 -179.1252,105.38653 -37.67606,49.74882 -150.54046,229.34082 -21.29515,451.57233 146.44535,251.38958 180.02615,456.42098 164.21855,557.36838 z m 107.0492,84.5911 h 0.081 z M 1155.6857,1424 c -5.2419,0 -9.9105,-3.3171 -11.6305,-8.3215 l -30.2227,-88.7355 c -0.6552,-1.9409 -0.8191,-4.0049 -0.4915,-6.0199 16.299,-95.7626 -16.0533,-295.6916 -160.69672,-544.00983 C 815.78183,541.55251 935.60816,350.96072 975.57759,298.1487 1037.9069,215.81009 1122.1867,168.82967 1180.5027,183.82638 c 46.6856,12.53956 103.6092,69.54513 113.0283,113.00366 9.0094,39.49434 0.6551,81.7325 -8.9277,130.62949 -15.2342,77.06395 -32.4342,164.39873 8.4362,277.66461 3.2762,8.94389 7.4533,19.54224 12.2037,31.63134 48.5694,123.09435 162.2528,411.36562 -50.535,677.43222 -2.2114,2.7192 -5.4057,4.3902 -8.9276,4.5949 l -89.3578,5.2009 c -0.2456,0.01 -0.4915,0.018 -0.7371,0.018"
       style="fill:#000000;fill-opacity:1;fill-rule:nonzero;stroke:none;stroke-width:0.81904519"
       id="path242" />
    <path
       inkscape:connector-curvature="0"
       d="m 617.73682,526.62131 c 98.2035,-7.47788 108.60538,134.56912 72.8131,236.95797 -73.79595,212.5751 -116.38631,331.54122 -48.07794,541.52002 -0.32759,21.7783 -0.65518,43.5568 -0.65518,65.335 -19.49332,-11.7041 -38.98662,-23.3999 -58.23416,-35.4317 -65.60551,-133.914 -109.17872,-365.02396 -101.39779,-551.92196 4.25902,-96.5408 39.31416,-248.98145 135.55197,-256.45933 v 0"
       style="fill:#ffffff;fill-opacity:1;fill-rule:evenodd;stroke:none;stroke-width:0.81904519"
       id="path244" />
    <path
       inkscape:connector-curvature="0"
       d="m 593.16547,1326.4599 c 12.03996,7.5353 24.32564,14.9884 36.44751,22.319 0.0813,-13.9402 0.32759,-27.8885 0.4915,-41.8287 -67.98073,-210.8385 -24.73514,-335.53001 46.84939,-541.7 l 1.96578,-5.70071 c 26.04563,-74.5659 23.67041,-159.45982 -5.56951,-197.48808 -13.35044,-17.38832 -31.28752,-24.9481 -54.63031,-23.19537 -90.09496,7.01923 -120.64534,163.1621 -124.24913,244.7472 -7.53523,181.02526 33.90847,408.50686 98.69493,542.84666 z m 48.65128,56.2602 c -2.21142,0 -4.42284,-0.5828 -6.30665,-1.7529 -19.24756,-11.5075 -39.06845,-23.4083 -58.39793,-35.5464 -1.96578,-1.2212 -3.52188,-2.9486 -4.50475,-5.0045 -67.2436,-137.1655 -110.40728,-371.77287 -102.70826,-557.85154 4.25905,-95.71381 39.88751,-259.88315 146.9367,-268.19643 v 0 c 31.45134,-2.41621 57.66079,8.92759 76.00739,32.71264 40.78844,53.07413 33.41704,151.53148 9.33712,220.54434 l -1.96578,5.68421 c -72.48549,208.80723 -112.4549,323.83388 -46.11225,527.98918 0.49151,1.2932 0.65519,2.6374 0.65519,3.9886 -0.32759,21.7131 -0.65519,43.4259 -0.65519,65.147 0,4.431 -2.37521,8.51 -6.22474,10.6887 -1.88383,1.0656 -4.01332,1.5973 -6.06092,1.5973"
       style="fill:#000000;fill-opacity:1;fill-rule:nonzero;stroke:none;stroke-width:0.81904519"
       id="path246" />
    <path
       inkscape:connector-curvature="0"
       d="m 1083.2002,583.83163 c -98.12166,-7.8055 -75.4341,133.26693 -11.3848,220.69993 121.6283,167.07692 148.2473,358.84824 77.7275,555.17324 0.3274,21.7785 0.6552,43.8846 0.6552,65.6629 19.4933,-12.0234 38.9865,-23.7276 58.1522,-35.7512 108.933,-172.6056 95.5826,-378.6774 53.6474,-561.02955 -29.2399,-126.11652 -82.5597,-237.28563 -178.7975,-244.75532 v 0"
       style="fill:#ffffff;fill-opacity:1;fill-rule:evenodd;stroke:none;stroke-width:0.81904519"
       id="path248" />
    <path
       inkscape:connector-curvature="0"
       d="m 1208.3503,1389.6165 h 0.081 z m -46.5217,-27.8721 c 0.2456,13.8499 0.4097,27.8228 0.5732,41.7384 1.2286,-0.7452 2.4571,-1.4998 3.6857,-2.252 11.139,-6.8307 22.278,-13.637 33.3351,-20.5334 86.9826,-139.5243 103.5273,-319.2639 50.617,-549.35808 -34.8913,-150.16379 -91.3235,-229.32454 -167.7405,-235.26262 -0.081,0 -0.081,0 -0.081,0 -22.0323,-1.7364 -36.857,4.73407 -45.2932,19.82089 -20.64,36.98807 -0.081,120.03925 44.8018,181.37748 123.5121,169.68165 151.1139,364.81913 80.1027,564.46963 z m -11.6305,75.909 c -2.0475,0 -4.1772,-0.5154 -5.979,-1.5648 -3.9314,-2.1615 -6.3067,-6.2739 -6.3067,-10.7214 0,-21.7209 -0.3274,-43.7615 -0.6552,-65.4743 0,-1.4836 0.2456,-2.9486 0.7371,-4.3409 69.0456,-192.3856 42.7542,-380.42195 -76.0893,-543.79693 -45.2932,-61.83785 -75.02452,-156.50319 -46.358,-207.83275 9.1734,-16.50375 28.5028,-35.52198 68.636,-32.34411 v 0 c 88.375,6.86361 152.2605,92.40467 189.7728,254.23151 54.7941,238.12108 36.6932,424.68338 -55.2036,570.35858 -0.9828,1.5556 -2.2934,2.875 -3.8495,3.8578 -11.9581,7.4614 -23.9981,14.8082 -36.038,22.1796 -7.3714,4.513 -14.8247,9.0424 -22.2781,13.6208 -1.9657,1.2119 -4.1771,1.8272 -6.3885,1.8272"
       style="fill:#000000;fill-opacity:1;fill-rule:nonzero;stroke:none;stroke-width:0.81904519"
       id="path250" />
    <path
       inkscape:connector-curvature="0"
       d="M 1133.5715,2317.6108 H 604.38638 c -204.43367,59.815 -234.32882,335.4482 -219.34027,436.8625 8.10854,54.2863 49.06078,-121.2435 139.72908,-111.4886 49.71604,5.5205 91.97878,87.7608 63.39409,322.4418 -1.63796,13.9811 155.04524,13.9811 156.02811,0 7.78093,-87.7608 105.65682,-120.2686 121.54632,-119.941 h 0.32736 c 15.64377,0 113.76536,32.1802 121.54632,119.941 0.98277,13.9811 157.66621,13.9811 156.02811,0 -28.5847,-234.681 13.678,-316.9213 63.3941,-322.4418 90.6683,-9.7549 131.6205,165.7749 139.811,111.4886 14.9066,-101.4143 -8.7638,-377.0475 -213.2793,-436.8625 v 0"
       style="fill:#ffffff;fill-opacity:1;fill-rule:evenodd;stroke:none;stroke-width:0.81904519"
       id="path252" />
    <path
       inkscape:connector-curvature="0"
       d="m 999.24803,2958.7021 c 21.37707,6.3476 106.96727,6.6343 131.29297,0.6478 -17.6094,-150.5079 -7.3714,-254.7312 29.7313,-301.5887 12.4495,-15.7421 28.1752,-25.0712 45.457,-26.9877 62.9846,-6.8226 102.4626,60.3227 125.9692,100.4231 1.5562,2.5228 3.1124,5.2174 4.6686,7.8383 11.7942,-115.2479 -22.1143,-354.3763 -204.5156,-409.1376 H 606.18827 c -189.1175,56.7436 -219.99552,306.0772 -210.6584,409.0065 1.55624,-2.5799 3.11238,-5.2255 4.58666,-7.7072 23.50659,-40.0923 62.98457,-107.2376 125.96914,-100.4231 17.28185,1.9154 33.00751,11.2456 45.45699,26.9793 37.10276,46.8576 47.34082,151.0484 29.73136,301.5971 24.32564,5.9953 109.99775,5.7005 131.29292,-0.6547 11.87616,-88.2277 109.17872,-125.8793 133.42247,-125.4941 20.39424,0 121.30055,34.3097 133.25862,125.5022 z m 0.57322,5.2501 c 0.0813,0.1161 0.0813,0.2624 0.0813,0.3854 0,-0.1393 0,-0.2623 -0.0813,-0.3854 z m -267.82773,0.1858 c 0,0.1393 -0.0813,0.2878 -0.0813,0.4341 0,-0.1393 0.0813,-0.2948 0.0813,-0.4341 z m 335.31708,24.1619 c -34.8913,0 -69.86454,-3.047 -81.5769,-8.5346 -8.43614,-3.9805 -10.07427,-10.156 -10.31997,-13.4814 -7.28952,-81.6506 -100.90638,-108.4251 -109.34252,-108.5152 0,0 0,0 -0.0813,0 -14.82477,0 -102.62639,31.0581 -109.58825,108.7446 -0.16484,3.096 -1.80187,9.2715 -10.31997,13.252 -23.83423,11.1637 -143.98815,12.2038 -163.64522,-1.9084 -4.75046,-3.4238 -7.1257,-8.4772 -6.47047,-13.8501 23.99803,-196.8493 -4.50473,-266.8122 -23.67039,-291.0069 -8.43616,-10.6229 -18.1009,-16.6183 -28.83039,-17.8061 -47.25891,-5.0125 -81.65879,53.4675 -102.13493,88.4407 -14.00568,23.8425 -21.04947,35.8085 -33.99038,33.2941 -11.71234,-2.2613 -13.75995,-15.6109 -14.49709,-20.6399 -14.41519,-98.2445 12.69519,-387.4493 228.10408,-450.4666 1.14668,-0.3273 2.29337,-0.4991 3.43997,-0.4991 H 1133.572 c 1.2287,0 2.3752,0.1625 3.44,0.4991 206.8908,60.5029 239.0793,334.6619 221.9612,450.442 -0.7371,5.0536 -2.7847,18.4041 -14.4152,20.6645 -13.0228,2.4982 -19.9847,-9.46 -33.9903,-33.2941 -20.5581,-34.9732 -54.7942,-93.5022 -102.2169,-88.4407 -10.6475,1.1887 -20.3942,7.1832 -28.7485,17.8061 -19.1656,24.1947 -47.7502,94.1576 -23.7523,290.933 0.6552,5.4468 -1.7199,10.5002 -6.4704,13.924 -9.9924,7.1829 -45.9484,10.4428 -82.0684,10.4428"
       style="fill:#000000;fill-opacity:1;fill-rule:nonzero;stroke:none;stroke-width:0.81904519"
       id="path254" />
    <path
       inkscape:connector-curvature="0"
       d="m 305.02539,1819.6478 c 0,309.763 251.28305,561.0214 561.04591,561.0214 309.4353,0 560.7183,-251.2584 560.7183,-561.0214 0,-309.7708 -251.283,-560.7019 -560.7183,-560.7019 -309.76286,0 -561.04591,250.9311 -561.04591,560.7019 v 0"
       style="fill:#ffffff;fill-opacity:1;fill-rule:evenodd;stroke:none;stroke-width:0.81904519"
       id="path256" />
    <path
       inkscape:connector-curvature="0"
       d="m 866.0713,1271.2317 c -302.55527,0 -548.76022,246.0167 -548.76022,548.4161 0,302.5718 246.20495,548.7359 548.76022,548.7359 302.3915,0 548.4327,-246.1641 548.4327,-548.7359 0,-302.3994 -246.0412,-548.4161 -548.4327,-548.4161 z m 0,1121.7233 c -316.15142,0 -573.33157,-257.1802 -573.33157,-573.3072 0,-315.9466 257.18015,-572.9874 573.33157,-572.9874 315.9876,0 573.004,257.0408 573.004,572.9874 0,316.127 -257.0164,573.3072 -573.004,573.3072"
       style="fill:#000000;fill-opacity:1;fill-rule:nonzero;stroke:none;stroke-width:0.81904519"
       id="path258" />
    <path
       inkscape:connector-curvature="0"
       d="m 907.67877,2224.977 4.25907,-5.5287 c -1.3106,-0.3274 -2.62097,-0.6478 -3.93141,-0.9751 -12.36762,-4.2262 -23.42473,-12.0236 -31.53327,-23.7276 -6.14286,-8.7721 -9.74661,-45.5063 -11.05711,-55.2528 -2.94857,15.5946 -3.52189,49.7241 -25.9637,66.3016 -5.89712,4.2264 -12.36762,7.1503 -18.83806,9.1078 -0.98278,0.3204 -1.6382,0.6477 -2.62097,0.6477 l 6.14285,9.4273 c 14.98852,22.4253 27.02848,25.6769 38.98657,26.3242 12.69521,0.6547 26.04563,-2.9242 44.55603,-26.3242 v 0"
       style="fill:#ffffff;fill-opacity:1;fill-rule:evenodd;stroke:none;stroke-width:0.81904519"
       id="path260" />
    <path
       inkscape:connector-curvature="0"
       d="m 817.99332,2203.2642 z m 18.83806,18.4039 c 11.95809,16.5528 20.23039,17.0032 27.0285,17.3719 5.3238,0.2623 13.92378,0.7035 27.92946,-14.3498 -10.07427,-5.5776 -18.75618,-13.3504 -25.39045,-22.9333 -1.06473,-1.516 -2.04751,-3.3497 -2.94856,-5.5122 -4.01329,7.2897 -9.41901,14.0468 -16.70853,19.4278 -3.11231,2.2451 -6.38853,4.2511 -9.91042,5.9956 z m 28.74849,41.984 c -0.98278,0 -2.04751,-0.023 -3.03045,-0.07 -14.82475,-0.8033 -30.87802,-5.209 -48.65128,-31.7869 l -6.22479,-9.5139 c -2.45713,-3.7758 -2.6209,-8.6 -0.49151,-12.5722 1.88383,-3.4812 5.32381,-5.8154 9.17335,-6.3313 l 0.32736,-0.1393 c 6.14283,-1.8435 11.22093,-4.2919 15.56184,-7.396 14.4152,-10.6722 17.44565,-32.7537 19.65707,-48.8807 0.49151,-3.6776 0.90105,-6.9784 1.47428,-9.7384 1.06474,-5.9217 6.47052,-10.2707 12.36764,-10.017 6.06088,0.1625 11.05711,4.6769 11.87612,10.6559 l 0.65518,5.6186 c 3.84945,31.6478 6.63427,41.542 8.2723,44.2693 6.22478,8.9195 14.66092,15.2916 24.98089,18.9365 l 3.35811,0.852 c 4.0133,1.0076 7.28948,3.9641 8.59999,7.8711 1.39232,3.8986 0.73714,8.223 -1.80188,11.5075 l -4.25902,5.5203 c 0,0.046 -0.0813,0.1161 -0.0813,0.1625 -17.11808,21.6146 -32.76185,31.05 -51.76369,31.05"
       style="fill:#000000;fill-opacity:1;fill-rule:nonzero;stroke:none;stroke-width:0.81904519"
       id="path262" />
    <path
       inkscape:connector-curvature="0"
       d="m 1125.463,2011.0341 c -3.6857,0 -7.2896,-1.6623 -9.7467,-4.8159 -4.0952,-5.3893 -3.1124,-13.0965 2.2934,-17.2244 33.2532,-25.4889 261.4392,-142.9645 470.7871,-49.9046 6.1428,2.7522 8.9277,10.017 6.2247,16.2171 -2.7846,6.192 -9.9923,8.9931 -16.2171,6.2329 -217.4564,-96.6883 -443.8405,45.4078 -445.8881,46.9641 -2.2114,1.7041 -4.8324,2.5308 -7.4533,2.5308"
       style="fill:#000000;fill-opacity:1;fill-rule:nonzero;stroke:none;stroke-width:0.81904519"
       id="path264" />
    <path
       inkscape:connector-curvature="0"
       d="m 1521.0616,2084.1666 c -1.9665,0 -3.8494,-0.4434 -5.6512,-1.393 -124.4949,-64.7864 -252.1841,-68.7259 -359.6428,-11.098 l -2.4571,1.3188 c -5.979,3.1698 -13.4324,0.8776 -16.6267,-5.1271 -3.1123,-6.0036 -0.8191,-13.4405 5.16,-16.6022 l 2.2934,-1.2375 c 114.8301,-61.6003 250.7097,-57.7017 382.5759,10.9508 6.061,3.1368 8.3544,10.5575 5.2419,16.5774 -2.2125,4.2016 -6.4703,6.6097 -10.8932,6.6097"
       style="fill:#000000;fill-opacity:1;fill-rule:nonzero;stroke:none;stroke-width:0.81904519"
       id="path266" />
    <path
       inkscape:connector-curvature="0"
       d="m 1443.6618,2224.5837 c -3.5217,0 -6.9618,-1.4998 -9.4189,-4.4145 -104.4282,-125.355 -218.8488,-93.8955 -256.443,-83.5509 -3.44,0.9333 -6.2247,1.6948 -8.3542,2.1708 -6.5524,1.5486 -13.1867,-2.6291 -14.661,-9.2471 -1.5562,-6.6178 2.621,-13.1947 9.2553,-14.7099 1.8018,-0.4179 4.259,-1.0888 7.2076,-1.9014 110.9806,-30.526 205.826,0.253 281.9153,91.5036 4.3409,5.2173 3.6038,12.9574 -1.6391,17.3065 -2.2938,1.9154 -5.078,2.8419 -7.8629,2.8419"
       style="fill:#000000;fill-opacity:1;fill-rule:nonzero;stroke:none;stroke-width:0.81904519"
       id="path268" />
    <path
       inkscape:connector-curvature="0"
       d="m 606.35209,2020.7809 c -2.62095,0 -5.3238,-0.8428 -7.53522,-2.6047 -26.20945,-20.4761 -245.79543,-135.8141 -445.72433,-46.8822 -6.22477,2.7603 -13.51426,-0.023 -16.2171,-6.2409 -2.78476,-6.192 0,-13.4571 6.22474,-16.2171 211.47745,-94.0183 437.94342,24.2929 470.86902,49.9781 5.32381,4.177 6.22474,11.9006 2.04751,17.2407 -2.37524,3.1044 -5.97903,4.7261 -9.66473,4.7261"
       style="fill:#000000;fill-opacity:1;fill-rule:nonzero;stroke:none;stroke-width:0.81904519"
       id="path270" />
    <path
       inkscape:connector-curvature="0"
       d="m 210.83521,2093.9215 c -4.42284,0 -8.76378,-2.3997 -10.89331,-6.6015 -3.19427,-6.0119 -0.8191,-13.4406 5.15998,-16.5775 131.86626,-68.8735 267.74585,-72.8784 382.57599,-11.2865 l 2.29338,1.2375 c 6.06094,3.1615 8.35427,10.5986 5.15998,16.5939 -3.19427,6.0035 -10.56567,8.2969 -16.62662,5.1354 l -2.45712,-1.3118 c -107.37681,-57.636 -235.14784,-53.5818 -359.56079,11.4093 -1.80187,0.9496 -3.76761,1.4 -5.65142,1.4"
       style="fill:#000000;fill-opacity:1;fill-rule:nonzero;stroke:none;stroke-width:0.81904519"
       id="path272" />
    <path
       inkscape:connector-curvature="0"
       d="m 288.15307,2234.0109 c -2.78475,0 -5.56951,-0.9333 -7.86284,-2.8419 -5.24188,-4.3493 -5.89713,-12.0892 -1.55624,-17.3065 113.92918,-136.7232 239.7345,-102.7901 281.09629,-91.6429 3.27617,0.8776 5.89712,1.588 7.86284,2.0059 6.63426,1.4325 10.81138,7.9693 9.41901,14.5954 -1.47429,6.6424 -8.02664,10.8605 -14.579,9.4273 -2.29338,-0.4922 -5.3238,-1.2932 -9.09141,-2.3008 -37.59415,-10.1398 -152.01477,-40.9934 -255.86969,83.6488 -2.37522,2.9159 -5.89713,4.4147 -9.41901,4.4147"
       style="fill:#000000;fill-opacity:1;fill-rule:nonzero;stroke:none;stroke-width:0.81904519"
       id="path274" />
    <path
       inkscape:connector-curvature="0"
       d="m 934.37965,2011.7467 c 0,37.7088 -30.55036,68.2592 -68.30835,68.2592 -38.00372,0 -68.55408,-30.5504 -68.55408,-68.2592 0,-37.7005 30.55036,-68.2592 68.55408,-68.2592 37.75799,0 68.30835,30.5587 68.30835,68.2592 v 0"
       style="fill:#ffffff;fill-opacity:1;fill-rule:evenodd;stroke:none;stroke-width:0.81904519"
       id="path276" />
    <path
       inkscape:connector-curvature="0"
       d="m 866.0713,1955.7732 c -31.04179,0 -56.26842,25.112 -56.26842,55.9735 0,30.8617 25.22663,55.9737 56.26842,55.9737 30.87802,0 56.02269,-25.112 56.02269,-55.9737 0,-30.8615 -25.14467,-55.9735 -56.02269,-55.9735 z m 0,136.5185 c -44.55603,0 -80.83976,-36.1364 -80.83976,-80.545 0,-44.4086 36.28373,-80.5448 80.83976,-80.5448 44.39226,0 80.59404,36.1362 80.59404,80.5448 0,44.4086 -36.20178,80.545 -80.59404,80.545"
       style="fill:#000000;fill-opacity:1;fill-rule:nonzero;stroke:none;stroke-width:0.81904519"
       id="path278" />
    <path
       inkscape:connector-curvature="0"
       d="m 736.7651,1747.0174 c 0,52.0094 -16.29902,93.9361 -36.11991,93.9361 -19.82089,0 -35.71037,-41.9267 -35.71037,-93.9361 0,-51.6818 15.88948,-93.6169 35.71037,-93.6169 19.82089,0 36.11991,41.9351 36.11991,93.6169 v 0"
       style="fill:#ffffff;fill-opacity:1;fill-rule:evenodd;stroke:none;stroke-width:0.81904519"
       id="path280" />
    <path
       inkscape:connector-curvature="0"
       d="m 1047.8175,1747.0176 c 0,52.0094 -15.9714,93.9361 -35.7923,93.9361 -19.82096,0 -36.03806,-41.9267 -36.03806,-93.9361 0,-51.6818 16.2171,-93.6169 36.03806,-93.6169 19.8209,0 35.7923,41.9351 35.7923,93.6169 v 0"
       style="fill:#ffffff;fill-opacity:1;fill-rule:evenodd;stroke:none;stroke-width:0.81904519"
       id="path284" />
    <path
       inkscape:connector-curvature="0"
       d="m 866.0713,2497.6863 c 123.18437,0 223.3537,59.1595 223.3537,131.9725 0,73.1327 -100.16933,132.2923 -223.3537,132.2923 -123.18439,0 -223.2717,-59.1596 -223.2717,-132.2923 0,-72.813 100.08731,-131.9725 223.2717,-131.9725 v 0"
       style="fill:#ffffff;fill-opacity:1;fill-rule:evenodd;stroke:none;stroke-width:0.81904519"
       id="path288" />
    <path
       inkscape:connector-curvature="0"
       d="m 866.0713,2509.9718 c -114.33868,0 -210.98602,54.8105 -210.98602,119.687 0,66.1709 94.59971,120.0065 210.98602,120.0065 116.38633,0 211.0679,-53.8356 211.0679,-120.0065 0,-64.8765 -96.64728,-119.687 -211.0679,-119.687 z m 0,264.265 c -132.11199,0 -235.55739,-63.5088 -235.55739,-144.578 0,-79.5455 105.65682,-144.2583 235.55739,-144.2583 129.90057,0 235.6393,64.7128 235.6393,144.2583 0,81.0692 -103.52731,144.578 -235.6393,144.578"
       style="fill:#000000;fill-opacity:1;fill-rule:nonzero;stroke:none;stroke-width:0.81904519"
       id="path290" />
    <path
       inkscape:connector-curvature="0"
       d="m 711.24621,1710.388 c 5.32608,0 10.24251,1.2197 14.64678,2.8484 -4.09699,2.8481 -6.45278,7.3129 -6.45278,12.5979 0,8.5425 6.86248,15.446 15.36377,15.446 5.32612,0 9.83281,-2.4391 12.59827,-6.5042 1.63868,4.4761 2.86797,9.3515 2.86797,14.6367 0,21.1405 -17.41229,38.6143 -39.02398,38.6143 -21.09956,0 -38.61425,-17.4738 -38.61425,-38.6143 0,-21.5401 17.51469,-39.0242 38.61425,-39.0242 v 0"
       style="fill:#000000;fill-opacity:1;fill-rule:evenodd;stroke:none;stroke-width:1.0242511"
       id="path294" />
    <path
       inkscape:connector-curvature="0"
       d="m 928.48253,2234.2322 c -8.27237,0 -16.54469,-1.3675 -24.57135,-4.1607 -15.31611,-5.2501 -28.33894,-15.046 -37.51229,-28.3146 -1.06473,-1.516 -2.04751,-3.3497 -2.94856,-5.5122 -4.01329,7.2897 -9.41901,14.0468 -16.70853,19.4278 -6.63426,4.7915 -14.25138,8.4689 -22.60563,10.9917 -31.45134,9.1486 -64.95026,-2.5555 -83.5426,-29.0926 -9.41901,-13.4403 -14.33328,-23.9242 -13.51423,-40.8049 0.32759,-6.7733 6.22474,-12.0645 12.859,-11.6712 6.79809,0.3367 11.95805,6.0936 11.63043,12.8753 -0.40978,9.3618 1.39233,14.3578 9.17331,25.4888 12.53139,17.9289 35.21897,25.8162 56.43221,19.6407 5.65142,-1.7042 10.72952,-4.1526 15.07043,-7.2568 14.4152,-10.6721 17.44564,-32.7536 19.65707,-48.8806 0.4915,-3.6776 0.90105,-6.9784 1.47428,-9.7384 1.06473,-5.9217 6.47051,-10.271 12.36764,-10.017 6.06087,0.1625 11.05711,4.6769 11.87611,10.6557 l 0.65519,5.6188 c 3.84945,31.6478 6.63426,41.5419 8.27229,44.2693 6.30668,9.0504 14.90666,15.4799 25.47233,19.1001 15.31614,5.3813 32.59803,2.9159 46.19416,-6.5769 16.62664,-11.4502 23.50661,-24.6778 21.78662,-41.6483 -0.73714,-6.7573 4.17712,-12.7854 10.97516,-13.4817 6.71622,-0.7127 12.77713,4.21 13.43233,10.9671 2.7029,26.1193 -8.10853,47.775 -32.18844,64.3524 -13.02283,9.0668 -28.33894,13.7682 -43.73703,13.7682"
       style="fill:#000000;fill-opacity:1;fill-rule:nonzero;stroke:none;stroke-width:0.81904519"
       id="path296" />
    <path
       style="fill:#000000;fill-opacity:1;fill-rule:nonzero;stroke:none;stroke-width:1.04905558"
       d="m 711.56433,1647.0976 c -26.41996,-0.5038 -49.98997,18.584 -59.56399,42.2926 -19.42184,41.139 -16.3179,92.2831 8.36282,130.4281 13.10224,18.611 36.62217,30.66 59.20313,26.9532 20.47777,-2.4972 38.7094,-16.4611 48.22248,-34.7355 19.36816,-32.8675 20.18362,-73.659 9.46121,-109.3258 -8.14878,-26.019 -28.31945,-50.9562 -56.60768,-55.0005 -3.00279,-0.4491 -6.04178,-0.6585 -9.07797,-0.6121 z m -0.46289,12.6446 c 16.61735,2.2365 27.56307,17.3021 33.99768,31.5828 19.24657,40.236 16.26946,91.0064 -9.55627,127.6672 -6.46413,8.1426 -16.16722,16.4352 -27.23242,14.9257 -13.77975,-2.7706 -21.39833,-16.2517 -28.07227,-27.291 -18.23882,-34.1099 -17.60967,-76.0969 -3.83593,-111.6211 6.27734,-14.7142 16.59638,-29.7364 32.3496,-35.0293 0.77492,-0.1406 1.5616,-0.2254 2.34961,-0.2343 z"
       id="path282"
       inkscape:connector-curvature="0" />
    <path
       inkscape:connector-curvature="0"
       d="m 1047.8175,1747.0176 c 0,52.0094 -16.299,93.9361 -36.1199,93.9361 -19.82092,0 -35.7104,-41.9267 -35.7104,-93.9361 0,-51.6818 15.88948,-93.6169 35.7104,-93.6169 19.8209,0 36.1199,41.9351 36.1199,93.6169 v 0"
       style="fill:#ffffff;fill-opacity:1;fill-rule:evenodd;stroke:none;stroke-width:0.81904525"
       id="path280-5" />
    <path
       inkscape:connector-curvature="0"
       d="m 1022.2986,1710.3882 c 5.3261,0 10.2425,1.2197 14.6468,2.8484 -4.097,2.8481 -6.4528,7.3129 -6.4528,12.5979 0,8.5425 6.8625,15.446 15.3638,15.446 5.3261,0 9.8328,-2.4391 12.5982,-6.5042 1.6387,4.4761 2.868,9.3515 2.868,14.6367 0,21.1405 -17.4123,38.6143 -39.024,38.6143 -21.0995,0 -38.61423,-17.4738 -38.61423,-38.6143 0,-21.5401 17.51473,-39.0242 38.61423,-39.0242 v 0"
       style="fill:#000000;fill-opacity:1;fill-rule:evenodd;stroke:none;stroke-width:1.02425122"
       id="path294-5" />
    <path
       style="fill:#000000;fill-opacity:1;fill-rule:nonzero;stroke:none;stroke-width:1.04905558"
       d="m 1022.6167,1647.0978 c -26.41995,-0.5038 -49.98996,18.584 -59.56398,42.2926 -19.42184,41.139 -16.3179,92.2831 8.36282,130.4281 13.10224,18.611 36.62216,30.66 59.20316,26.9532 20.4777,-2.4972 38.7094,-16.4611 48.2225,-34.7355 19.3681,-32.8675 20.1836,-73.659 9.4612,-109.3258 -8.1488,-26.019 -28.3195,-50.9562 -56.6077,-55.0005 -3.0028,-0.4491 -6.0418,-0.6585 -9.078,-0.6121 z m -0.4629,12.6446 c 16.6174,2.2365 27.5631,17.3021 33.9977,31.5828 19.2466,40.236 16.2695,91.0064 -9.5562,127.6672 -6.4642,8.1426 -16.1673,16.4352 -27.2325,14.9257 -13.7797,-2.7706 -21.39832,-16.2517 -28.07226,-27.291 -18.23882,-34.1099 -17.60967,-76.0969 -3.83593,-111.6211 6.27734,-14.7142 16.59639,-29.7364 32.34959,-35.0293 0.7749,-0.1406 1.5616,-0.2254 2.3496,-0.2343 z"
       id="path282-8"
       inkscape:connector-curvature="0" />
  </g>
</svg>
