<?xml version="1.0" encoding="UTF-8" standalone="no"?>
<!-- Created with Inkscape (http://www.inkscape.org/) -->

<svg
   xmlns:dc="http://purl.org/dc/elements/1.1/"
   xmlns:cc="http://creativecommons.org/ns#"
   xmlns:rdf="http://www.w3.org/1999/02/22-rdf-syntax-ns#"
   xmlns:svg="http://www.w3.org/2000/svg"
   xmlns="http://www.w3.org/2000/svg"
   xmlns:sodipodi="http://sodipodi.sourceforge.net/DTD/sodipodi-0.dtd"
   xmlns:inkscape="http://www.inkscape.org/namespaces/inkscape"
   width="317.75134"
   height="457.20999"
   viewBox="0 0 2439.2599 3000"
   version="1.1"
   id="svg4572"
   inkscape:version="0.92.1 r15371"
   sodipodi:docname="snowman.svg">
  <defs
     id="defs4566" />
  <sodipodi:namedview
     id="base"
     pagecolor="#ffffff"
     bordercolor="#666666"
     borderopacity="1.0"
     inkscape:pageopacity="0.0"
     inkscape:pageshadow="2"
     inkscape:zoom="1.4"
     inkscape:cx="-108.06874"
     inkscape:cy="224.64284"
     inkscape:document-units="px"
     inkscape:current-layer="layer1"
     showgrid="false"
     units="px"
     fit-margin-top="0"
     fit-margin-left="0"
     fit-margin-right="0"
     fit-margin-bottom="0"
     viewbox-width="2439.2599"
     viewbox-height="3000"
     inkscape:window-width="1920"
     inkscape:window-height="1003"
     inkscape:window-x="-9"
     inkscape:window-y="-9"
     inkscape:window-maximized="1" />
  <metadata
     id="metadata4569">
    <rdf:RDF>
      <cc:Work
         rdf:about="">
        <dc:format>image/svg+xml</dc:format>
        <dc:type
           rdf:resource="http://purl.org/dc/dcmitype/StillImage" />
        <dc:title></dc:title>
      </cc:Work>
    </rdf:RDF>
  </metadata>
  <g
     inkscape:label="Layer 1"
     inkscape:groupmode="layer"
     id="layer1"
     transform="translate(-38.144982,-41.408404)">
    <g
       id="g4504"
       transform="matrix(0.88855069,0,0,0.88855069,151.88111,166.3826)">
      <path
         inkscape:connector-curvature="0"
         d="m 2386.5998,2139.7191 0.082,0.011 c -0.055,0.5016 -0.1096,1.0143 -0.1371,1.5379 -1.8174,42.1753 -37.8618,75.7237 -64.1863,100.2203 -2.1273,1.9739 -4.197,3.8965 -6.1894,5.7736 l -0.1645,0.1645 c -1.7901,1.6749 -3.578,3.3587 -5.3964,5.0211 -27.5621,25.5786 -57.1069,50.0957 -87.8027,72.891 -2.544,1.8861 -5.0674,3.7437 -7.6399,5.5987 -12.6595,9.2365 -25.6376,18.2683 -38.568,26.8485 l -0.1644,0.083 c -34.7091,23.0294 -74.0215,49.1101 -114.3784,61.4791 -4.1392,-12.2133 -14.9224,-23.1125 -27.4075,-35.7031 -12.9593,-13.0558 -29.0808,-29.3157 -42.3784,-51.6952 -15.4733,-26.0699 -24.4481,-55.6343 -27.4267,-90.3928 -0.9182,-10.6573 -3.9359,-18.8678 -8.9456,-24.4094 42.146,-43.993 90.6266,-79.5049 144.078,-105.5488 l 2.4261,-1.0554 c 2.9691,-1.2665 5.5223,-2.3686 7.6111,-3.4139 3.1916,-1.5954 6.1509,-3.4237 6.2087,-5.9767 0.011,-0.7045 -0.1919,-1.442 -0.677,-2.2424 -66.4587,-83.0158 -133.4399,-206.3302 -174.7833,-321.8112 -1.771,-5.1934 -4.7001,-9.1584 -7.1178,-9.6226 -0.7731,-0.1645 -1.4804,0.082 -1.9628,0.647 -1.5763,1.8175 -0.9951,6.9825 1.6339,14.5066 37.5426,112.3377 120.1229,243.5438 153.8843,294.742 5.3191,8.0753 10.3674,15.5896 14.9803,22.3107 0.083,0.1096 0.1371,0.2193 0.2192,0.2988 -0.055,0.028 -0.137,0.083 -0.2192,0.137 -1.7709,1.1706 -7.0596,3.8202 -8.0366,4.1973 -54.0219,26.6145 -102.9762,62.7162 -145.4997,107.2895 -2.5139,-1.2473 -5.2706,-2.0697 -8.2202,-2.426 -17.2915,-2.0506 -42.146,13.2011 -55.6853,34.0613 -3.8974,-3.4625 -8.1721,-7.3889 -12.6981,-11.5568 l -0.5126,-0.4743 c -44.0512,-40.4827 -117.7733,-108.2569 -173.2263,-51.1014 -15.0096,15.4735 -22.0501,32.2526 -20.9184,49.873 1.7024,27.4927 23.2392,51.4098 41.2853,66.8082 -71.9133,38.1887 -120.6355,92.8789 -130.3742,146.4086 -7.1373,39.1869 5.406,77.1155 37.2912,112.7356 35.0668,39.1858 76.9904,59.0489 124.6297,59.0489 0.055,0 0.1371,0 0.192,0 48.6451,-0.055 101.8546,-20.4263 158.1783,-60.4996 34.6027,-24.6349 63.1997,-51.789 81.1781,-70.3304 7.1177,2.5467 13.994,3.8308 20.4734,3.8308 0.9759,0 1.9629,-0.028 2.9207,-0.082 14.9416,-0.9185 35.4828,-9.5957 48.4612,-45.7331 1.0528,-2.913 1.7409,-5.821 2.0589,-8.6545 0.1918,-1.8586 0.2193,-3.706 0.1371,-5.4855 42.7067,-12.844 84.1953,-40.3646 117.5504,-62.4945 l 0.1371,-0.083 c 11.7504,-7.8046 23.3554,-15.8518 34.506,-23.8979 6.1507,60.0392 8.3653,118.3937 6.5957,173.4691 -7.9108,245.3251 -69.9503,417.0795 -189.6865,525.084 -116.7769,105.3574 -288.1077,155.0004 -539.1855,156.2168 -3.6265,0.021 -7.2046,0.028 -10.812,0.028 -281.5604,0 -489.6922,-67.3872 -618.67478,-200.336 -113.96284,-117.5021 -167.80676,-288.89 -160.03606,-509.4074 4.29876,-121.6502 16.46388,-236.0276 36.1752,-339.9635 0.43588,-2.2726 0.86902,-4.5357 1.29119,-6.7986 l 0.71824,-3.7426 c 39.65757,-202.5391 109.24302,-371.6069 206.83001,-502.5132 2.8442,-3.8297 5.7338,-7.6401 8.5673,-11.315 1.368,-1.7791 2.7466,-3.5491 4.1258,-5.3092 1.6996,1.0636 3.5435,1.8751 5.4699,2.3603 0.137,0.055 0.2741,0.083 0.3837,0.1096 l 0.1919,0.055 c 3.7969,0.891 9.168,2.089 15.9689,3.5589 29.2583,6.3344 71.8135,14.9416 113.8794,23.046 3.4427,4.8063 7.9013,11.1023 12.1854,17.5141 5.0483,7.5434 9.313,14.3902 13.0267,20.9278 6.4892,11.4409 11.2765,21.8855 14.6418,31.9335 34.8736,104.3595 -23.8678,218.9316 -133.7118,260.8357 -6.8643,2.6097 -11.5112,9.9029 -10.7927,16.9628 0.6223,6.025 4.9487,10.3577 11.5781,11.5954 31.2797,5.8413 59.7174,11.1895 86.9313,16.3536 7.1081,1.3434 17.2627,2.6509 27.0981,3.917 23.0457,2.9399 51.7202,6.6149 61.0723,12.6786 2.6124,1.7023 5.4254,2.5714 8.3652,2.5714 0.5811,0 1.1595,-0.028 1.6448,-0.1096 2.0807,0.1645 4.236,-0.1645 6.4118,-0.9102 52.7454,-18.3171 96.9224,-49.8924 127.8214,-91.352 13.6649,18.191 35.2987,29.0419 58.045,29.0419 40.0088,0 72.5516,-32.5429 72.5516,-72.5517 0,-39.999 -32.5428,-72.542 -72.5516,-72.542 -4.5454,0 -9.0906,0.4359 -13.5103,1.2666 0.7731,-8.0559 1.1021,-16.2859 0.9869,-24.4676 -0.3674,-25.7149 -5.0872,-50.2889 -14.4388,-75.1239 -6.0251,-16.0151 -13.8393,-31.8079 -23.8486,-48.2581 68.1224,9.9321 119.0303,15.0093 151.3023,15.0867 88.4604,0 262.3924,-22.5624 379.4499,-44.3802 2.9787,-0.562 5.9285,-1.113 8.82,-1.664 51.8655,-9.8934 87.4255,-18.694 102.8217,-25.4635 7.6402,-3.3461 13.4525,-11.0056 17.2723,-22.7655 0.011,-0.055 0.023,-0.083 0.028,-0.1371 0.6881,0.055 1.3625,0.1371 2.0505,0.1919 67.4552,6.8084 116.6319,60.7917 152.5305,100.1913 56.1111,61.5847 107.4443,128.556 152.5886,199.0477 41.9334,65.5209 99.079,154.774 88.4217,233.2154 z m -478.9644,244.6387 c -13.1138,-26.9655 -27.9006,-66.8661 -23.8196,-103.8683 0.7539,-6.7588 2.1383,-13.2869 4.1006,-19.4174 0.055,-0.1645 0.1096,-0.3289 0.1644,-0.4852 l 0.055,-0.1645 v -0.011 c 1.0446,-3.0793 2.5716,-6.2862 4.5359,-9.5279 10.4156,-17.0209 30.4637,-30.7826 44.2639,-30.7826 0.765,0 1.5079,0.028 2.2233,0.137 0.7347,0.083 1.442,0.2195 2.1849,0.4058 2.5906,0.688 4.8355,2.0314 6.6536,4.0232 0.5236,0.5593 1.0143,1.1898 1.4694,1.8669 2.5248,3.7329 4.1101,9.1294 4.7195,16.0442 7.0598,82.6191 45.1633,121.0117 72.9867,149.0509 12.8626,12.9765 21.5277,22.1639 24.6321,31.2072 0.8799,2.4947 1.2967,4.9109 1.2857,7.3896 -0.011,2.6372 -0.5017,5.2878 -1.5077,8.1032 -8.8007,24.4945 -21.9338,37.444 -39.0225,38.4904 -4.7968,0.2988 -9.9223,-0.3098 -15.2415,-1.8285 -3.1526,-0.8746 -6.46,-2.0889 -9.845,-3.6189 -28.3648,-12.8903 -61.1977,-48.6728 -79.8435,-87.0164 z m -168.8357,-85.475 -6.9535,-5.4545 c -19.0904,-14.9975 -42.1944,-38.3144 -43.7999,-64.1852 -0.8799,-14.3227 5.1064,-28.2005 17.7754,-41.2465 48.3258,-49.796 114.6785,11.2083 158.5943,51.5752 5.7926,5.3394 10.5995,9.7395 14.99,13.5895 -0.6194,1.4694 -1.1897,2.9574 -1.664,4.4468 -14.3518,44.8074 3.1431,96.3991 20.338,131.7853 19.1776,39.4391 50.9175,74.7083 81.0137,90.1246 -45.8596,46.6624 -136.0511,124.2536 -228.67,124.3668 -0.055,0 -0.1371,0 -0.192,0 -44.5348,0 -83.828,-18.6726 -116.7963,-55.499 -29.4191,-32.8812 -41.0726,-67.5826 -34.6317,-103.1426 9.4968,-52.2726 58.8962,-105.5005 132.1246,-142.3857 z m -674.0372,-872.117 c -4.3615,3.2881 -8.3945,7.0695 -11.9758,11.2957 -1.8887,2.215 -3.6835,4.5745 -5.3267,7.0117 -6.6682,9.8351 -11.5673,21.595 -14.582,34.9604 -3.4949,15.5219 -3.8082,30.7343 -0.9621,46.4786 0.5208,2.8625 1.1513,5.7831 1.8806,8.6556 6.9775,27.6783 22.7685,52.842 37.2912,73.7989 3.1914,4.6033 6.4795,9.1974 9.2745,13.0849 2.5824,3.5687 5.1738,7.1371 7.7658,10.6864 0.4058,0.5703 0.8306,1.1404 1.2474,1.7107 0.137,0.1918 0.2741,0.3562 0.3974,0.5427 -31.2237,-6.0347 -62.3146,-12.2723 -87.7012,-17.5818 -6.8568,-1.442 -12.9272,-2.7359 -18.0838,-3.8394 -5.6283,-1.2281 -10.4454,-2.3026 -13.932,-3.1141 -1.0581,-0.2468 -1.9901,-0.6387 -2.8789,-1.1706 -1.7765,-1.0445 -3.3354,-2.6975 -4.6275,-4.9224 -3.0415,-5.2031 -4.677,-13.4136 -4.8355,-24.4095 -0.3783,-26.6048 7.4311,-65.3372 21.4385,-106.2548 12.38,-36.1889 24.7442,-60.028 29.2663,-61.7298 2.8637,0.8032 5.7232,1.5955 8.5937,2.3796 4.6962,1.2967 9.6901,2.6509 15.2549,4.1197 10.6225,2.8239 21.5519,5.6187 32.4963,8.2975 z m 916.6916,179.3674 c -2.8434,8.0753 -6.7022,13.2395 -11.4795,15.3383 -14.584,6.4019 -47.8617,14.7189 -96.2358,24.0805 l -2.6208,0.5017 c -2.2451,0.4249 -4.5068,0.8607 -6.7889,1.2857 -117.0769,22.0595 -291.8602,44.8637 -381.7133,44.8637 -32.6974,-0.083 -85.8393,-5.5705 -157.9462,-16.3052 -3.6943,-5.6189 -7.6981,-11.383 -11.905,-17.1563 -3.1235,-4.2552 -6.2956,-8.5202 -9.5065,-12.8335 -16.1698,-21.6824 -32.8907,-44.1189 -42.6876,-69.07 -4.9225,-12.5238 -7.756,-24.574 -8.4137,-35.8309 -0.1917,-2.8531 -0.2192,-5.6963 -0.1096,-8.4622 0.1645,-4.4196 0.6772,-8.7425 1.5269,-12.8525 2.7949,-13.4331 15.2413,-43.7707 31.3437,-53.3162 65.0081,7.6112 131.5346,11.8472 197.7421,12.5822 113.4404,-1.2584 226.2813,-12.7078 335.3892,-34.0515 3.3171,-0.6469 6.6342,-1.3049 9.9516,-1.9739 34.6024,-6.963 69.36,-15.0383 103.2955,-24.0226 4.8354,-1.2665 9.758,-2.6016 15.0866,-4.0715 3.0175,-0.8115 6.0056,-1.6449 9.0134,-2.4864 l 0.8882,-0.2467 c 9.2552,5.8895 29.8253,81.565 30.6957,146.0216 0.2194,16.1311 -0.8799,29.6128 -3.2689,40.067 -0.6579,2.8819 -1.4226,5.551 -2.2615,7.9302 z m -621.321,230.8267 c -4.1877,38.0069 -18.2491,73.6152 -40.4345,104.4365 -29.3029,40.7536 -72.7739,73.161 -126.2735,91.7388 -1.1515,0.3974 -2.2617,0.5318 -3.2689,0.4441 l -0.5318,-0.055 -0.5209,0.083 c -1.5762,0.2468 -3.0659,-0.1371 -4.6421,-1.1404 -10.9283,-7.0983 -39.4384,-10.7539 -64.6019,-13.9936 -10.1932,-1.305 -19.8161,-2.5331 -26.5856,-3.8105 -28.9742,-5.5028 -57.9658,-10.9475 -86.9595,-16.3633 -3.0714,-0.5703 -4.7716,-2.1767 -5.0356,-4.7678 -0.3674,-3.6653 2.2013,-7.7368 5.7234,-9.081 113.7854,-43.4033 174.5966,-162.124 138.4367,-270.3133 -6.0249,-18.0168 -15.8024,-35.3664 -26.9334,-52.2424 -3.1819,-4.7969 -6.4507,-9.5551 -9.7774,-14.2744 -2.3027,-3.2687 -4.6324,-6.5085 -6.9631,-9.7482 -2.2918,-3.1819 -4.6033,-6.3444 -6.9052,-9.5066 -3.2976,-4.5259 -6.615,-9.081 -9.8835,-13.6553 -19.5257,-27.2529 -37.7044,-55.347 -44.2207,-85.8881 -0.6305,-2.9593 -1.1513,-5.9379 -1.5487,-8.9359 -1.6504,-12.3016 -1.3105,-25.0091 1.6612,-38.2487 2.7085,-12.0112 7.0465,-22.5042 12.8179,-31.2662 1.6064,-2.4863 3.351,-4.816 5.1944,-7.0211 4.9157,-5.8507 10.6023,-10.696 16.9753,-14.4871 3.7426,-2.2342 7.7176,-4.0712 11.9242,-5.5511 6.8666,-2.3986 14.3133,-3.7715 22.282,-4.0519 3.2881,-0.1371 6.5861,-0.192 9.9031,-0.192 14.7771,0 29.7091,1.1404 44.6992,3.0849 4.3811,0.5511 8.7716,1.1898 13.1622,1.8861 h 0.022 c 30.0575,4.7195 60.2694,12.166 89.8821,19.4772 14.9415,3.6945 29.0708,7.1662 43.2099,10.3287 2.8335,0.6386 4.4774,2.1958 5.6477,4.1488 -8.3943,-0.8115 -16.141,-1.6065 -17.3401,-1.8367 -4.8645,-0.8225 -9.4582,-0.192 -13.7908,1.5187 -3.8586,1.5269 -7.4853,3.9073 -10.87,6.8858 -16.0247,14.1002 -26.4984,41.4593 -29.0227,53.6352 -0.8416,4.0616 -1.3734,8.2203 -1.6064,12.4754 -0.1646,2.7948 -0.1919,5.6287 -0.083,8.5106 0.4632,12.7076 3.4816,26.1985 9.0328,40.3278 10.1738,25.9182 27.2238,48.7803 43.7226,70.8882 3.1525,4.2456 6.315,8.4716 9.4194,12.7173 2.8819,3.9555 5.6575,7.8915 8.3169,11.789 2.1081,3.1235 4.1488,6.2086 6.1218,9.3034 27.2334,42.765 40.3375,83.1895 40.9468,125.6451 0.1098,9.1489 -0.3097,18.1909 -1.2966,27.098 z m -408.5703,-833.1247 0.5483,-7.32089 0.5675,-6.30547 c 5.7415,-63.90587 9.8333,-108.63411 12.1564,-133.05319 37.6412,-41.49813 111.3698,-60.87884 150.982,-71.29415 71.7007,-18.84888 150.461,-29.83521 247.867,-34.56409 215.6818,-10.51235 378.4732,9.38072 512.3291,62.58069 58.045,23.05552 126.8442,57.66813 143.817,121.23517 4.7001,17.64957 7.9592,71.07203 9.8642,112.78293 l 0.055,1.4502 v 0 c 0.028,0.891 0.055,1.76 0.1096,2.6399 v 0 c 0,0.021 0.011,0.028 0.011,0.055 0,0.055 0,0.1097 0,0.1919 0,0.011 0,0.021 0,0.028 0.5208,12.5433 0.9758,24.5451 1.3733,35.657 v 0 l 0.055,1.5269 v 0 c 1.1404,32.4365 1.8094,58.6832 1.8094,72.0389 0,94.0792 -31.6821,178.8161 -91.6037,245.0914 -39.8055,10.841 -80.6074,20.4249 -121.2642,28.4714 -3.3557,0.658 -6.7114,1.3158 -10.0771,1.9546 -106.6127,20.4734 -216.8135,31.4789 -327.5168,32.6974 -52.0589,-0.5701 -104.495,-3.3365 -155.8574,-8.2009 l -0.5126,-1.634 c -0.1098,-0.1919 -0.1919,-0.4358 -0.2989,-0.7264 l -0.1371,-0.3482 c -1.3159,-3.3749 -4.0424,-10.4155 -13.0459,-12.427 -13.7135,-3.066 -27.4367,-6.4408 -41.9526,-10.029 l -1.0555,-0.2467 c -26.7597,-6.6051 -54.438,-13.4328 -82.2808,-18.2394 -4.8451,-0.8308 -9.1584,-1.5187 -13.2008,-2.1082 -23.7422,-3.5007 -44.8634,-4.8643 -64.5731,-4.1875 -12.4368,0.4552 -23.8677,3.2688 -33.9738,8.3654 -17.3064,-4.1489 -35.0312,-8.6941 -52.673,-13.5104 -52.8994,-63.7896 -78.6143,-151.9597 -78.6143,-269.5296 0,-24.1968 2.6455,-73.9251 7.0722,-133.0338 z m 86.3512,-447.74624 c 3.3055,-1.59549 6.7996,-3.23018 10.3768,-4.85498 53.1925,-24.38043 114.8544,-44.68937 183.286,-60.3758 12.5918,-2.8916 25.2124,-5.53183 37.5429,-7.86254 129.2427,-24.53531 258.3308,-23.55857 383.6567,2.91106 23.868,5.03838 47.7068,11.06365 70.8495,17.91051 27.2237,8.05609 54.5443,17.51411 81.1589,28.12323 52.8517,21.0439 104.6303,47.25228 153.8747,77.90936 3.3656,2.08893 6.7794,4.25517 9.6615,6.09272 7.5044,4.78698 15.106,9.77739 22.6009,14.83523 4.4292,2.99796 8.9457,6.02498 13.5395,9.10027 l 1.5379,1.03349 c 62.3679,41.76898 139.9872,93.73095 159.7643,168.26512 l 0.021,0.0823 c 15.8604,59.81491 1.4117,189.07716 -51.0628,245.06237 -21.0344,22.4656 -46.2659,31.6338 -74.9789,27.272 -0.6771,-0.1097 -1.3624,-0.2193 -2.0506,-0.34 -0.2192,-21.1311 -1.7023,-121.25459 -8.9846,-148.55566 -1.2967,-4.8257 -2.8913,-9.61289 -4.7579,-14.21622 -23.7326,-58.88644 -89.7175,-91.44878 -144.5615,-113.23751 -135.1422,-53.69314 -299.1618,-73.77975 -516.1492,-63.20928 -98.1122,4.7774 -177.4624,15.86051 -249.7335,34.86373 -37.4266,9.8451 -107.1154,28.16189 -148.0014,65.38538 -3.2948,2.98838 -6.4031,6.11217 -9.2253,9.27463 -0.1645,0.16448 -0.3015,0.33992 -0.4852,0.54279 l -0.9896,1.14041 -0.1371,1.48858 c -3.2299,33.59693 -9.4251,103.05378 -12.0393,132.50193 -58.94454,-46.34319 -123.45652,-122.63765 -98.42145,-224.028 14.52573,-58.78003 35.95672,-98.04421 69.49088,-127.32787 34.35107,-29.98983 76.14037,-56.8364 124.22357,-79.78555 z M 1452.7131,134.3477 c 89.4469,-15.39612 178.4972,3.2107 257.5282,53.82856 11.6633,7.47574 23.1233,15.58967 34.0419,24.11946 2.0588,1.60644 4.1199,3.24935 6.3441,5.04823 71.13,57.65828 124.9295,136.82483 164.4548,242.03528 15.4928,41.22729 28.7518,86.30373 40.5311,137.73387 -72.6678,-44.30283 -149.8517,-78.68298 -229.4053,-102.18343 -23.2101,-6.86633 -47.0104,-12.89132 -70.7428,-17.91078 -68.7605,-14.59344 -139.9099,-21.58559 -211.4268,-20.80211 -71.6907,0.79226 -143.8651,9.40018 -214.5117,25.60884 -65.3465,14.97066 -124.7458,34.20607 -176.5965,57.16482 38.1471,-103.42115 79.8385,-180.6342 131.1721,-242.90539 68.4124,-82.95761 163.4296,-141.37989 260.7002,-160.27702 2.64,-0.51263 5.3092,-1.00608 7.9107,-1.46115 z m -8.3364,-56.246454 c 0,-99.04016 80.5882,-179.628396 179.6478,-179.628396 99.05,0 179.6288,80.588236 179.6288,179.628396 0,48.122934 -18.8487,93.324934 -53.0841,127.337734 -11.3151,-8.85875 -23.1909,-17.29178 -35.3182,-25.06713 -40.2218,-25.75386 -83.7313,-43.4807 -129.3203,-52.69721 -44.3026,-8.94565 -89.8044,-9.71927 -135.2193,-2.29179 -4.1973,-15.338 -6.3347,-31.237158 -6.3347,-47.281328 z M 622.93845,2171.198 v 0.055 c -0.42492,-0.022 -0.86902,-0.022 -1.31038,0 -42.12069,1.9162 -78.76493,-30.9181 -105.51118,-54.9214 -2.17117,-1.9546 -4.29874,-3.8587 -6.35752,-5.6867 -1.88881,-1.6722 -3.76692,-3.3652 -5.63628,-5.0481 -41.85011,-37.7264 -81.18389,-79.4761 -116.91327,-124.0978 -24.77025,-30.9181 -55.57809,-69.37 -71.5574,-108.5469 11.786,-5.2224 21.67264,-16.9533 33.09985,-30.5023 11.83627,-14.0712 26.55743,-31.5661 47.70493,-46.8268 24.55167,-17.7463 53.19804,-29.3223 87.58696,-35.4054 10.4833,-1.8477 18.38641,-5.58 23.51608,-11.0828 47.58782,38.0648 87.29199,83.1702 118.005,134.0587 1.97653,3.6364 3.96595,6.7699 5.77252,9.052 1.59273,2.0588 3.84149,4.4681 5.49617,4.4681 0.0274,0 0.0822,0 0.10966,0 0.5099,-0.028 0.92659,-0.2905 1.18975,-0.7347 l 0.35913,0.2469 c 25.74509,-37.9685 57.95023,-76.4299 93.30932,-112.0672 64.41823,-64.9309 139.23586,-120.4424 204.37451,-146.2346 -96.10524,133.1303 -164.61332,302.2756 -203.61927,502.7642 -0.0274,0.1645 -0.0549,0.2988 -0.0822,0.4442 -35.75631,18.9648 -73.1443,31.7692 -109.53524,30.0575 z M 257.16818,1803.3242 c 10.28699,-29.3708 42.9942,-65.2694 79.53206,-87.3095 25.18998,-15.164 62.59726,-33.0166 99.04425,-33.0166 0.75634,0 1.51159,0 2.27452,0.021 6.79192,0.1371 13.42232,0.9184 19.70081,2.3302 l 0.21931,0.055 c 0.13707,0.028 0.30156,0.055 0.46056,0.1096 l 0.0194,0.011 c 3.20304,0.7731 6.52805,2.0122 9.87116,3.6656 18.87684,9.3228 35.08331,29.6799 34.68691,43.5675 -0.0198,0.784 -0.0823,1.5078 -0.21932,2.1959 -0.43313,2.6398 -1.58725,4.9901 -3.40041,6.9921 -0.56471,0.6196 -1.13217,1.1514 -1.72706,1.6339 -3.50567,2.8625 -8.74553,4.9224 -15.56333,6.1314 -81.61048,14.4097 -116.46754,55.7916 -141.94084,86.0133 -11.76763,13.9747 -20.12434,23.4231 -28.86204,27.3401 -2.42556,1.0938 -4.79777,1.7216 -7.25323,1.9244 -2.59472,0.2468 -5.28807,0 -8.20483,-0.7648 -25.18998,-6.5763 -39.26218,-18.5008 -41.8308,-35.4345 -0.71769,-4.7292 -0.56664,-9.8838 0.45342,-15.3284 0.5968,-3.2398 1.51051,-6.644 2.72713,-10.1352 z m 257.07745,-305.8734 c 53.91575,43.6838 -0.91836,115.2296 -37.20239,162.5787 l -0.16448,0.1919 c -4.3895,5.735 -8.53747,11.1508 -12.04314,15.957 -1.56259,-0.5017 -3.10544,-0.9376 -4.5781,-1.2584 -45.91882,-10.2993 -95.73494,11.731 -129.43246,32.0304 -37.58136,22.63 -69.86885,57.3778 -82.53587,88.7506 -50.56572,-41.5091 -135.90443,-124.399 -144.29856,-216.6408 -4.042177,-44.4476 11.03846,-85.317 44.82262,-121.4865 30.11596,-32.2429 63.64297,-46.9427 99.63346,-43.7129 52.91083,4.7969 110.33219,49.2352 153.61364,118.8756 l 4.65752,7.4854 4.82484,-7.4177 c 13.23279,-20.3574 34.38803,-45.4536 60.00846,-49.3605 14.1784,-2.1657 28.53306,2.5522 42.68076,14.0034 z m 1791.26327,404.3626 c -45.3956,-70.9076 -97.0388,-138.2755 -153.488,-200.2277 -36.8464,-40.444 -87.3096,-95.8393 -158.0818,-102.9764 -0.2193,-0.028 -0.4551,-0.055 -0.6771,-0.055 10.3868,-48.413 -6.8567,-137.086 -19.0999,-171.2728 -5.8801,-16.4308 -11.1605,-24.042 -17.0309,-24.5256 55.7823,-66.2943 85.2592,-149.6869 85.2592,-241.2616 0,-11.4405 -0.7045,-38.3936 -1.8476,-70.4432 4.5164,0.5894 8.9168,0.9101 13.0752,0.9101 25.5604,0 48.3644,-10.5124 67.7935,-31.2566 44.0997,-47.0587 59.7375,-133.88465 59.7375,-193.94136 0,-23.18136 -2.2342,-43.89656 -6.46,-59.8925 -20.667,-77.94773 -99.9204,-131.02215 -163.5941,-173.66124 -5.1256,-3.42315 -10.1351,-6.79834 -15.0578,-10.1154 -9.6225,-6.51817 -19.5063,-12.94943 -29.3415,-19.11946 -25.957,-116.68036 -75.8495,-284.15241 -208.9317,-392.77669 35.473,-35.65681 55.0182,-82.88029 55.0182,-133.082296 0,-104.069221 -84.679,-188.748134 -188.7581,-188.748134 -104.0884,0 -188.7577,84.678913 -188.7577,188.748134 0,16.576284 2.1574,33.016866 6.4118,48.877096 -48.9061,9.15839 -96.3035,27.57194 -140.8772,54.72801 -45.8692,27.94915 -87.551,64.45715 -123.8558,108.49873 -69.9599,84.85299 -111.0422,185.62433 -135.8589,254.13351 -51.9435,24.12904 -96.8343,52.57137 -133.42157,84.5339 -35.05727,30.61843 -57.38358,71.35254 -72.38906,132.08609 -26.85917,108.77888 43.50867,189.42526 107.38273,237.97336 -4.6587,61.43015 -7.4428,112.98615 -7.4428,137.93705 0,114.6009 23.7131,201.601 72.4644,265.9324 -2.2918,0.3097 -4.6014,1.653 -6.9398,4.0037 -20.7511,20.8699 -62.8343,148.0334 -49.7146,193.806 1.2172,4.2745 2.9089,7.9011 5.0135,10.7831 -1.039,1.3433 -2.078,2.6892 -3.117,4.0328 -2.607,3.4043 -5.0241,6.5859 -7.3858,9.7483 -48.54348,16.7405 -106.93561,52.8713 -164.4442,101.7581 -55.37004,47.0685 -106.87172,103.1115 -145.10981,157.8976 -0.97592,-2.3876 -2.19036,-5.0868 -3.70606,-8.0848 -31.33173,-51.4303 -71.65876,-96.9611 -119.87436,-135.3453 1.01981,-2.6207 1.59823,-5.435 1.6887,-8.404 0.49619,-17.4076 -16.91264,-40.7921 -38.89959,-52.4167 3.10928,-4.1971 6.58123,-8.752 10.79775,-14.2162 36.38682,-47.4941 97.30239,-126.9797 35.41583,-177.1043 -16.74707,-13.5684 -34.08627,-19.0904 -51.53925,-16.3923 -27.22677,4.1682 -49.14116,27.7554 -62.86136,47.1071 -44.45262,-68.2188 -103.27142,-111.8544 -157.46364,-116.7767 -39.67708,-3.5976 -76.32849,12.2821 -108.96045,47.2232 -35.94504,38.4809 -51.970127,82.097 -47.655977,129.62 4.41995,48.4323 29.458717,99.611 74.402207,152.1243 27.65256,32.2912 57.2399,58.335 77.3033,74.5728 -2.172,8.433 -2.73097,16.3825 -1.62371,23.6358 2.24765,14.7966 12.71923,34.477 49.87316,44.1767 3.01058,0.784 5.97957,1.22 8.79478,1.2776 0.23301,0.011 0.47974,0.011 0.71741,0.011 1.60535,0 3.19916,-0.137 4.76681,-0.3783 16.6602,41.4982 47.79974,80.3753 72.84656,111.6318 37.67131,47.0397 79.26429,90.8685 123.62578,130.2681 10.50962,9.342 22.42803,19.9318 35.79334,29.6027 l 0.0823,0.055 c 26.6067,22.166 56.86628,33.4038 89.93989,33.4038 30.65709,0 63.68134,-9.2648 100.9224,-28.2683 -19.30422,102.7065 -31.22263,215.1131 -35.42763,334.1298 -7.86528,223.139 46.85478,396.8124 162.64256,516.18 130.77266,134.7936 341.87536,203.1399 627.43956,203.1399 2.9012,0 5.8315,-0.015 8.7521,-0.021 253.4858,-1.2392 426.7799,-51.6341 545.3653,-158.6037 121.6992,-109.7771 184.7347,-283.6804 192.7324,-531.643 1.8285,-56.8583 -0.5894,-117.4529 -7.1659,-180.1216 34.206,-25.1746 67.0293,-52.5067 97.5702,-81.2363 l 0.1644,-0.1645 c 10.2415,-9.6447 21.8661,-20.5806 32.6106,-32.9496 v 0 c 24.4578,-24.5354 38.3548,-53.6645 41.295,-86.5942 7.1276,-79.4758 -49.5057,-167.907 -90.8393,-232.4801"
         style="fill:#000000;fill-opacity:1;fill-rule:nonzero;stroke:#000000;stroke-width:7.67663145;stroke-miterlimit:4;stroke-dasharray:none;stroke-opacity:1"
         id="path14" />
      <path
         inkscape:connector-curvature="0"
         d="m 1212.0705,902.80258 c -0.4057,3.33652 -3.8006,5.09673 -6.8953,4.9517 -3.3462,-0.16444 -5.9187,-2.53298 -5.6382,-5.98658 0.1919,-2.73588 1.8476,-4.46789 3.9265,-5.06743 0.021,-0.008 0.028,-0.0216 0.055,-0.0216 0.011,-0.008 0.021,-0.008 0.028,-0.008 0.7538,-0.19189 1.568,-0.27414 2.3986,-0.16448 3.4525,0.16448 6.6245,2.14649 6.1218,6.28625 z m 11.9727,-22.11742 c -22.7559,0 -41.2758,18.51031 -41.2758,41.26592 0,22.74633 18.5199,41.2563 41.2758,41.2563 22.7461,0 41.2564,-18.50997 41.2564,-41.2563 0,-22.75561 -18.5103,-41.26592 -41.2564,-41.26592"
         style="fill:#000000;fill-opacity:1;fill-rule:nonzero;stroke:none;stroke-width:0.96709663"
         id="path16" />
      <path
         inkscape:connector-curvature="0"
         d="m 1233.7335,981.01184 c 5.6576,-4.27466 12.3304,-6.35396 20.4156,-6.35396 15.7151,0 33.2001,7.91075 48.6157,14.90295 4.7291,2.13829 8.9457,4.03287 12.8142,5.58999 10.2608,4.16825 21.4791,8.20078 31.3823,11.75968 l 0.1645,0.055 c 23.1619,8.3268 47.0974,16.9435 67.4066,29.1967 4.5066,2.7276 18.4136,14.7387 23.036,33.5873 3.6461,14.8255 0.6197,30.3473 -8.9647,46.1209 -14.7676,24.2933 -38.9162,30.6472 -56.5947,31.6917 -21.2665,1.2856 -43.3935,-5.8413 -62.2906,-20.0672 -25.6667,-19.3034 -71.0042,-58.5288 -86.2264,-104.3691 -4.5551,-13.6844 -3.143,-32.011 10.2319,-42.11711 z m -5.5897,-7.39843 c -17.0404,12.87213 -19.0326,35.61819 -13.4426,52.44559 16.0052,48.1807 62.9093,88.8762 89.4468,108.8468 18.9258,14.2356 41.3141,22.0692 63.045,22.0692 1.9436,0 3.7039,-0.055 5.3865,-0.1644 28.0942,-1.6641 50.8018,-14.4967 63.9541,-36.1212 10.909,-17.9784 14.2938,-35.86 10.0386,-53.1515 -2.3411,-9.5551 -6.8665,-18.5007 -13.4716,-26.605 -5.2224,-6.402 -10.6865,-10.8507 -13.7716,-12.7172 -21.1793,-12.7851 -45.6083,-21.5567 -69.2246,-30.03787 -10.822,-3.89771 -21.0539,-7.57252 -31.0439,-11.61494 -3.7813,-1.54619 -7.8917,-3.39463 -12.4659,-5.46417 -23.3264,-10.55095 -55.2697,-24.9994 -78.4508,-7.49486"
         style="fill:#000000;fill-opacity:1;fill-rule:nonzero;stroke:#000000;stroke-width:7.67663145;stroke-miterlimit:4;stroke-dasharray:none;stroke-opacity:1"
         id="path18" />
      <path
         inkscape:connector-curvature="0"
         d="m 1059.6561,1193.5504 c 9.7388,4.739 27.2432,6.0542 37.6879,6.828 3.6071,0.2797 7.0113,0.5319 7.4176,0.7265 31.3434,36.208 71.1589,64.6018 118.3436,84.4175 44.2252,18.5683 92.9378,28.8583 144.8033,30.5796 4.9514,0.1646 9.9224,0.2467 14.9128,0.2467 44.9794,0 90.8971,-6.6727 133.701,-19.4967 49.0027,-14.6802 92.6669,-36.585 129.7746,-65.0854 0.011,0 0.028,0 0.028,0 0.9376,0 5.2223,1.7901 9.3615,3.5106 9.4002,3.936 23.6069,9.8643 33.4615,10.638 7.843,0.6277 11.8276,-4.913 12.2822,-10.6671 0.5318,-6.6922 -3.5588,-14.1874 -12.195,-14.8738 -10.0674,-0.7924 -18.5008,-5.619 -23.7521,-13.588 -5.6765,-8.6166 -6.8856,-19.6126 -3.3075,-30.1636 1.431,-4.1974 0.7539,-8.172 -1.8751,-11.1795 -3.0367,-3.4721 -8.3362,-5.1645 -13.1814,-4.1974 -4.6033,0.9183 -7.9883,3.9459 -9.5551,8.5201 -2.7753,8.2012 -3.3751,20.8411 -3.8198,30.0768 -0.2193,4.7582 -0.455,9.6612 -0.9293,10.2512 -133.2273,105.9166 -384.9237,117.2121 -509.8436,-26.8658 0.022,-0.8498 0.976,-4.9032 1.9738,-9.1874 2.3493,-10.0579 5.8991,-25.2608 6.4215,-34.69 0.2466,-4.429 -1.4667,-8.0846 -4.8235,-10.2894 -3.878,-2.5331 -9.4292,-2.736 -13.8294,-0.5127 -4.178,2.1081 -6.6245,5.9187 -6.8858,10.7442 l -0.1371,2.2233 c -0.4852,9.3325 -1.0526,19.9125 -6.6632,27.5914 -5.6188,7.6786 -14.0711,8.4235 -26.5856,2.3494 -4.4195,-2.1383 -9.0421,-1.8367 -13.0168,0.8497 -4.1151,2.7854 -6.6567,7.7077 -6.3249,12.2436 0.2741,3.8972 2.596,7.0987 6.5376,9.0035"
         style="fill:#000000;fill-opacity:1;fill-rule:nonzero;stroke:#000000;stroke-width:7.67663145;stroke-miterlimit:4;stroke-dasharray:none;stroke-opacity:1"
         id="path20" />
      <path
         inkscape:connector-curvature="0"
         d="m 1382.1152,2154.2255 c -39.9894,0 -72.5418,32.5526 -72.5418,72.5418 0,40.0087 32.5524,72.5497 72.5418,72.5497 40.0086,0 72.5515,-32.541 72.5515,-72.5497 0,-39.9892 -32.5429,-72.5418 -72.5515,-72.5418"
         style="fill:#000000;fill-opacity:1;fill-rule:nonzero;stroke:none;stroke-width:0.96709663"
         id="path22" />
      <path
         inkscape:connector-curvature="0"
         d="m 1385.1517,2475.4844 c -34.1479,0 -61.9329,27.7846 -61.9329,61.9426 0,34.1586 27.785,61.9432 61.9329,61.9432 34.1578,0 61.9428,-27.7846 61.9428,-61.9432 0,-34.158 -27.785,-61.9426 -61.9428,-61.9426"
         style="fill:#000000;fill-opacity:1;fill-rule:nonzero;stroke:none;stroke-width:0.96709663"
         id="path24" />
      <path
         inkscape:connector-curvature="0"
         d="m 1536.8217,917.45416 c -0.4058,3.32694 -3.7911,5.0869 -6.8954,4.94187 -3.3365,-0.16454 -5.909,-2.52477 -5.6382,-5.97679 0.2193,-2.7359 1.8476,-4.47751 3.9361,-5.07724 0.021,0 0.028,-0.0213 0.055,-0.0213 0.011,0 0.021,0 0.028,0 0.7539,-0.21939 1.5681,-0.27414 2.3987,-0.16454 3.4525,0.16454 6.6245,2.14655 6.1119,6.29582 z m 11.9823,-22.12732 c -22.7655,0 -41.2759,18.51033 -41.2759,41.2662 0,22.75567 18.5104,41.2563 41.2759,41.2563 22.746,0 41.2563,-18.50063 41.2563,-41.2563 0,-22.75587 -18.5103,-41.2662 -41.2563,-41.2662"
         style="fill:#000000;fill-opacity:1;fill-rule:nonzero;stroke:none;stroke-width:0.96709663"
         id="path26" />
    </g>
  </g>
</svg>
