<?xml version="1.0" encoding="UTF-8" standalone="no"?>
<svg
   width="417.923"
   height="243.02"
   viewBox="0 0 110.575 64.299"
   version="1.1"
   id="svg30"
   sodipodi:docname="tractor.svg"
   inkscape:version="1.3 (0e150ed6c4, 2023-07-21)"
   xmlns:inkscape="http://www.inkscape.org/namespaces/inkscape"
   xmlns:sodipodi="http://sodipodi.sourceforge.net/DTD/sodipodi-0.dtd"
   xmlns="http://www.w3.org/2000/svg"
   xmlns:svg="http://www.w3.org/2000/svg">
  <defs
     id="defs30" />
  <sodipodi:namedview
     id="namedview30"
     pagecolor="#ffffff"
     bordercolor="#000000"
     borderopacity="0.25"
     inkscape:showpageshadow="2"
     inkscape:pageopacity="0.0"
     inkscape:pagecheckerboard="0"
     inkscape:deskcolor="#d1d1d1"
     inkscape:zoom="2.277371"
     inkscape:cx="180.03215"
     inkscape:cy="72.671515"
     inkscape:window-width="2560"
     inkscape:window-height="1351"
     inkscape:window-x="1191"
     inkscape:window-y="187"
     inkscape:window-maximized="1"
     inkscape:current-layer="svg30" />
  <g
     stroke="#000"
     id="g30">
    <g
       fill="#fff"
       stroke-width="2"
       stroke-miterlimit="10"
       id="g2">
      <path
         d="M35.808 23.722v-2.578c0-.226.24-.37.44-.263l.923.496c.27.145.44.428.44.734v2.007zM40.942 34.272h1.952v-.98a.976.976 0 00-1.952 0v.98zM36.78 24.12a.98.98 0 00-.977.977v11.37h1.953c0-6.296-.072-3.542-.072-10.708.058-.293-.645-1.64-.905-1.639z"
         stroke-width=".52916"
         id="path1" />
      <path
         d="M34.766 24.57c0-.574.465-1.038 1.038-1.038h1.95c.573 0 1.039.464 1.039 1.037v7.32c0 .572-.466 1.037-1.038 1.037h-1.951a1.038 1.038 0 01-1.038-1.037z"
         stroke-width=".52916"
         id="path2" />
    </g>
    <path
       fill="#fff"
       stroke-width=".52916"
       stroke-miterlimit="10"
       d="M91.42 18.954l1.612-.715 8.077 18.198-1.612.715z"
       id="path3" />
    <path
       d="M90.95 19.913c.232.523.845.76 1.369.527l1.213-.54c.524-.232.76-.845.526-1.369L88.823 6.745a1.036 1.036 0 00-1.369-.527l-1.213.539c-.524.232-.76.845-.527 1.37z"
       fill="#fff"
       stroke-width=".52916"
       stroke-miterlimit="10"
       id="path4" />
    <path
       d="M68.422 33.311c-.297.49-.14 1.129.35 1.426l2.537 1.536c.49.297 1.128.14 1.425-.35L88.832 9.326l-4.313-2.61z"
       fill="#fff"
       stroke-width=".52916"
       stroke-miterlimit="10"
       id="path5" />
    <path
       d="M88.34 16.134a.883.883 0 00-1.41-1.064l-8.088 10.185 1.408 1.063zM102.241 36.41a.819.819 0 00-1.08-.416l-5.701 2.532.665 1.497 5.7-2.532a.819.819 0 00.416-1.081z"
       fill="#fff"
       stroke-width=".52916"
       stroke-miterlimit="10"
       id="path6" />
    <path
       d="M95.544 39.767l-4.927 1.067-7.35-34.033a1.038 1.038 0 01.796-1.234l2.898-.627a1.036 1.036 0 011.233.794z"
       fill="#fff"
       stroke-width=".52916"
       stroke-miterlimit="10"
       id="path7" />
    <path
       d="M96.445 37.782a.833.833 0 00-1.155-.595l-13.115 5.825 3.181 2.75a4.685 4.685 0 001.783.962l3.536 1.005a2.868 2.868 0 001.946-.138l4.388-1.949c.553-.245.862-.845.742-1.437zM83.145 40.54a1.038 1.038 0 00-1.37-.528l-.778.347 1.176 2.649 1.728-.768z"
       fill="#fff"
       stroke-width=".52916"
       stroke-miterlimit="10"
       id="path8" />
    <path
       d="M86.384 40.354a1.038 1.038 0 00-1.37-.527l-.549.244.716 1.612 1.498-.665zM80.659 27.137a1.037 1.037 0 00-.204-1.454l-1.06-.799a1.037 1.037 0 00-1.453.203l-7.26 9.603a1.038 1.038 0 00.204 1.453l1.06.8a1.037 1.037 0 001.452-.203z"
       fill="#fff"
       stroke-width=".52916"
       stroke-miterlimit="10"
       id="path9" />
    <g
       fill="#fff"
       stroke-width="2"
       stroke-miterlimit="10"
       id="g11">
      <path
         d="M18.104 52.207a.573.573 0 11-.386-1.08l3.554-1.3.387 1.08z"
         stroke-width=".52916"
         id="path10" />
      <path
         d="M22.088 51.319a.674.674 0 01-.862-.408l-.292-.813a.675.675 0 01.408-.862l4.58-1.636a.674.674 0 01.862.409l.292.811a.675.675 0 01-.407.864z"
         stroke-width=".52916"
         id="path11" />
    </g>
    <g
       fill="#fff"
       stroke-width="2"
       stroke-miterlimit="10"
       id="g15">
      <path
         d="M79.282 48.464c0 6.03-4.889 10.919-10.92 10.919-6.03 0-10.919-4.889-10.919-10.919s4.889-10.92 10.92-10.92c6.03 0 10.919 4.89 10.919 10.92z"
         stroke-width=".52916"
         id="path12" />
      <path
         d="M74.327 48.464a5.964 5.964 0 11-11.929 0 5.964 5.964 0 0111.93 0z"
         stroke-width=".52916"
         id="path14" />
      <path
         d="M71.81 48.464a3.447 3.447 0 11-6.894 0 3.447 3.447 0 016.894 0z"
         stroke-width=".52916"
         id="path15" />
    </g>
    <path
       d="m 75.479,38.407 v -6.473 c 0,-0.573 -0.465,-1.037 -1.038,-1.037 H 68.06 v 5.253 c 0.101,-0.003 0.202,-0.008 0.304,-0.008 2.651,0 5.106,0.84 7.116,2.265 z M 23.325842,36.73042 c 0,-0.556 1.83878,-1.017269 1.83878,-1.017269 v 0 L 25.37,39.931 v 0 c -0.556,0 -2.044158,-0.501344 -2.044158,-1.057344 z"
       fill="#ffffff"
       stroke-width="0.52916"
       stroke-miterlimit="10"
       id="path16"
       sodipodi:nodetypes="cssccsccssccsss" />
    <path
       d="M67.657 19.086a1.26 1.26 0 00-1.234-1.018H48.216a.821.821 0 100 1.642h.925l-3.89 14.634H26.224c-.571 0-1.033.467-1.027 1.037l.05 4.764 1.03 8.358c.033-.034 29.903 0 29.903 0-.001-.062-.004-.122-.004-.183 0-6.536 5.297-11.834 11.832-11.834 1.073 0 2.08-.023 3.07.245z"
       fill="#fff"
       stroke-width=".52916"
       stroke-miterlimit="10"
       id="path17" />
    <path
       d="M48.85 42.04c0 .573.465 1.037 1.038 1.037h1.78a1.55 1.55 0 001.43-.959l2.28-5.547a.695.695 0 00-.643-.96h-4.847c-.573 0-1.038.465-1.038 1.038zM21.821 47.452c0 .572.465 1.037 1.038 1.037h4.807c.573 0 1.037-.465 1.037-1.037v-2.318c0-.573-.464-1.037-1.037-1.037h-4.807c-.573 0-1.038.464-1.038 1.037z"
       fill="#fff"
       stroke-width=".52916"
       stroke-miterlimit="10"
       id="path18" />
    <path
       d="M46.066 45.65c0 .574-.464 1.038-1.037 1.038h-32.36v-2.59h32.36c.573 0 1.037.463 1.037 1.037z"
       fill="#fff"
       stroke-width=".52916"
       stroke-miterlimit="10"
       id="path19" />
    <g
       fill="#fff"
       stroke-width="2"
       stroke-miterlimit="10"
       id="g23">
      <path
         d="M39.266 52.307a7.076 7.076 0 11-14.153 0 7.076 7.076 0 0114.153 0z"
         stroke-width=".52916"
         id="path20" />
      <path
         d="M36.986 52.307a4.797 4.797 0 11-9.595 0 4.797 4.797 0 019.595 0z"
         stroke-width=".52916"
         id="path21" />
      <path
         d="M34.423 52.307a2.234 2.234 0 11-4.468 0 2.234 2.234 0 014.468 0z"
         stroke-width=".52916"
         id="path23" />
    </g>
    <path
       d="M13.047 41.193a.455.455 0 01.833.042l6.217 16.36a.716.716 0 01-.67.97H8.694a.43.43 0 01-.304-.734l1.825-1.825a5.02 5.02 0 001.468-3.542v-7.502c0-.682.159-1.356.464-1.966zM77.941 39.531c-7.961-8.825-22.89-3.364-22.89 8.815 0 1.485.249 2.911.703 4.242.136.397.526.645.945.645a.47.47 0 00.44-.638 11.8 11.8 0 01-.788-4.25c0-11.08 13.906-16.082 20.95-7.563.218.264.636.26.794-.043a1.07 1.07 0 00-.154-1.208z"
       fill="#fff"
       stroke-width=".52916"
       stroke-miterlimit="10"
       id="path24" />
    <g
       fill="#fff"
       stroke-width="2"
       stroke-miterlimit="10"
       id="g27">
      <path
         d="M29.601 40.447c.102.59.615 1.023 1.213 1.023h13.298c.573 0 1.037-.465 1.037-1.038v-2.195c0-.573-.464-1.038-1.037-1.038h-14.03a.875.875 0 00-.862 1.023z"
         stroke-width=".52916"
         id="path25" />
      <g
         stroke-linecap="round"
         id="g26">
        <path
           d="M31.203 40.507v-2.345M32.962 40.507v-2.345M34.72 40.507v-2.345M36.478 40.507v-2.345M38.237 40.507v-2.345M39.995 40.507v-2.345M41.753 40.507v-2.345M43.512 40.507v-2.345"
           stroke-width=".52916"
           id="path26" />
      </g>
    </g>
    <g
       stroke-width="2"
       stroke-miterlimit="10"
       id="g29">
      <path
         d="M49.361 33.027a.854.854 0 00.838 1.018h8.169c.573 0 1.037-.464 1.037-1.037V21.875c0-.574-.464-1.038-1.037-1.038H52.85c-.602 0-1.121.427-1.237 1.018z"
         fill="#fff"
         stroke-width=".52916"
         id="path27" />
      <path
         d="M60.731 20.748c0-.573-.464-1.038-1.037-1.038h-7.807a1.28 1.28 0 00-1.25 1.016l-2.904 13.831a9.963 9.963 0 00-.214 2.053v6.831c0 .573.465 1.038 1.038 1.038h4.269a1.55 1.55 0 001.432-.96l2.847-6.928a1.55 1.55 0 011.432-.96h1.157c.573 0 1.037-.464 1.037-1.037z"
         fill="none"
         stroke-width=".52916"
         id="path28" />
      <path
         d="M67.357 29.668a.887.887 0 01-.877 1.025h-3.41a1.038 1.038 0 01-1.038-1.037v-7.782c0-.573.465-1.037 1.037-1.037h1.857c.597 0 1.106.435 1.199 1.024z"
         fill="#fff"
         stroke-width=".52916"
         id="path29" />
    </g>
  </g>
</svg>
