<?xml version="1.0" encoding="UTF-8" standalone="no"?>
<svg
   width="245.74"
   height="178.159"
   viewBox="0 0 65.019 47.138"
   version="1.1"
   id="svg22"
   sodipodi:docname="tractor2.svg"
   inkscape:version="1.3 (0e150ed6c4, 2023-07-21)"
   xmlns:inkscape="http://www.inkscape.org/namespaces/inkscape"
   xmlns:sodipodi="http://sodipodi.sourceforge.net/DTD/sodipodi-0.dtd"
   xmlns="http://www.w3.org/2000/svg"
   xmlns:svg="http://www.w3.org/2000/svg">
  <defs
     id="defs22" />
  <sodipodi:namedview
     id="namedview22"
     pagecolor="#ffffff"
     bordercolor="#000000"
     borderopacity="0.25"
     inkscape:showpageshadow="2"
     inkscape:pageopacity="0.0"
     inkscape:pagecheckerboard="0"
     inkscape:deskcolor="#d1d1d1"
     inkscape:zoom="2.7386668"
     inkscape:cx="151.16844"
     inkscape:cy="92.928427"
     inkscape:window-width="2560"
     inkscape:window-height="1351"
     inkscape:window-x="1191"
     inkscape:window-y="187"
     inkscape:window-maximized="1"
     inkscape:current-layer="svg22" />
  <g
     stroke="#000"
     id="g22">
    <g
       fill="#fff"
       stroke-width="2"
       stroke-miterlimit="10"
       id="g2">
      <path
         d="M18.753 9.24V6.783c0-.215.23-.352.419-.25l.88.472a.795.795 0 01.418.7v1.912zM23.644 19.29h1.86v-.933a.93.93 0 10-1.86 0v.933zM19.679 9.62a.934.934 0 00-.93.93v10.832h1.86c0-5.998-.07-3.375-.07-10.202.057-.279-.613-1.563-.86-1.56z"
         stroke-width=".52916"
         id="path1" />
      <path
         d="M17.761 10.047c0-.546.443-.988.988-.988h1.859c.545 0 .988.442.988.988v6.973a.988.988 0 01-.988.988h-1.859a.988.988 0 01-.988-.988z"
         stroke-width=".52916"
         id="path2" />
    </g>
    <path
       d="M56.161 23.265V17.1a.988.988 0 00-.988-.988h-6.08v5.003c.096-.002.192-.007.29-.007 2.525 0 4.863.8 6.778 2.157z"
       fill="#fff"
       stroke-width=".52916"
       stroke-miterlimit="10"
       id="path3" />
    <g
       fill="#fff"
       stroke-width="2"
       stroke-miterlimit="10"
       id="g7">
      <path
         d="M59.754 32.847c0 5.745-4.657 10.402-10.401 10.402-5.746 0-10.403-4.657-10.403-10.402 0-5.745 4.658-10.403 10.403-10.403 5.744 0 10.401 4.658 10.401 10.403z"
         stroke-width=".52916"
         id="path4" />
      <path
         d="M55.034 32.847a5.683 5.683 0 11-11.364-.003 5.683 5.683 0 0111.364.003z"
         stroke-width=".52916"
         id="path6" />
      <path
         d="M52.636 32.847a3.284 3.284 0 11-6.568 0 3.284 3.284 0 016.568 0z"
         stroke-width=".52916"
         id="path7" />
    </g>
    <path
       d="m 5.264,32.035 c 0,0.462 0.375,0.836 0.836,0.836 h 2.455 c 0.4615486,0 0.8355528,-0.374452 0.835,-0.836 v -1.866 c 0,-0.461158 -0.3738422,-0.835 -0.835,-0.835 H 6.1 C 5.6384518,29.333447 5.2639997,29.707451 5.264,30.169 Z M 6.6930844,21.631236 C 6.689049,21.102251 7.866,20.622 8.394,20.622 v 0 4.096 0 C 7.864978,24.716898 6.7107128,24.399033 6.7101629,23.87001 Z"
       fill="#ffffff"
       stroke-width="0.529"
       stroke-miterlimit="10"
       id="path8"
       sodipodi:nodetypes="ssscsscssssccscs" />
    <path
       d="M48.68 4.86a1.2 1.2 0 00-1.176-.97H30.16a.782.782 0 100 1.564h.88l-3.008 13.942H9.209a.978.978 0 00-.978.988l.048 4.538 1.206 8.086c.031-.032 11.629-.124 11.629-.124h16.633c-.001-.058-.004-.116-.004-.174 0-6.226 5.047-11.273 11.272-11.273 1.022 0 2.012.138 2.953.392z"
       fill="#fff"
       stroke-width=".529"
       stroke-miterlimit="10"
       id="path9" />
    <path
       d="M30.763 26.727c0 .546.443.989.989.989h1.695c.596 0 1.137-.363 1.364-.915l2.171-5.284a.662.662 0 00-.612-.914h-4.618a.989.989 0 00-.989.988z"
       fill="#fff"
       stroke-width=".529"
       stroke-miterlimit="10"
       id="path10" />
    <g
       fill="#fff"
       stroke-width="2"
       stroke-miterlimit="10"
       id="g14">
      <path
         d="M21.632 36.508a6.741 6.741 0 11-13.482 0 6.741 6.741 0 0113.482 0z"
         stroke-width=".52916"
         id="path11" />
      <path
         d="M19.461 36.508a4.57 4.57 0 11-9.14 0 4.57 4.57 0 019.14 0z"
         stroke-width=".52916"
         id="path12" />
      <path
         d="M17.02 36.508a2.129 2.129 0 11-4.257 0 2.129 2.129 0 014.257 0z"
         stroke-width=".52916"
         id="path14" />
    </g>
    <path
       d="M58.338 24.356c-7.585-8.407-21.806-3.205-21.806 8.397 0 1.415.237 2.773.668 4.041.13.38.502.615.902.615a.448.448 0 00.418-.608 11.24 11.24 0 01-.75-4.048c0-10.557 13.247-15.321 19.959-7.205.207.25.605.247.755-.041a1.02 1.02 0 00-.146-1.151z"
       fill="#fff"
       stroke-width=".529"
       stroke-miterlimit="10"
       id="path15" />
    <path
       d="m 56.153,21.98 v 0 c 0.417527,0 1.417282,-0.200473 1.444351,-0.617122 L 57.712076,19.597 C 57.739145,19.180351 56.570527,18.841 56.153,18.841 v 0 z"
       fill="#ffffff"
       stroke-width="0.529"
       stroke-miterlimit="10"
       id="path16"
       sodipodi:nodetypes="csssscc" />
    <g
       fill="#fff"
       stroke-width="2"
       stroke-miterlimit="10"
       id="g19">
      <path
         d="M12.283 25.18c.097.563.586.975 1.155.975h12.668a.988.988 0 00.989-.988v-2.091a.988.988 0 00-.989-.989H12.742a.833.833 0 00-.822.975z"
         stroke-width=".52916"
         id="path17" />
      <g
         stroke-linecap="round"
         id="g18">
        <path
           d="M13.81 25.238v-2.234M15.485 25.238v-2.234M17.16 25.238v-2.234M18.835 25.238v-2.234M20.51 25.238v-2.234M22.185 25.238v-2.234M23.86 25.238v-2.234M25.535 25.238v-2.234"
           stroke-width=".52916"
           id="path18" />
      </g>
    </g>
    <g
       stroke-width="2"
       stroke-miterlimit="10"
       id="g21">
      <path
         d="M31.25 17.799a.813.813 0 00.798.969h7.782a.988.988 0 00.989-.988V7.173a.988.988 0 00-.989-.988h-5.255c-.573 0-1.068.407-1.178.97z"
         fill="#fff"
         stroke-width=".52916"
         id="path19" />
      <path
         d="M42.082 6.1a.989.989 0 00-.988-.988h-7.437a1.22 1.22 0 00-1.192.967l-2.766 13.177a9.508 9.508 0 00-.204 1.956v6.508c0 .545.443.988.988.988h4.068c.596 0 1.137-.362 1.364-.915l2.712-6.6a1.477 1.477 0 011.364-.913h1.102a.989.989 0 00.989-.989V6.1z"
         fill="none"
         stroke-width=".52916"
         id="path20" />
      <path
         d="M48.394 14.598a.844.844 0 01-.835.977h-3.25a.988.988 0 01-.987-.988V7.173c0-.546.442-.988.988-.988h1.769c.568 0 1.054.415 1.142.977z"
         fill="#fff"
         stroke-width=".52916"
         id="path21" />
    </g>
  </g>
</svg>
