<?xml version="1.0" encoding="UTF-8" standalone="no"?>
<!-- Created with Inkscape (http://www.inkscape.org/) -->

<svg
   width="110.57549mm"
   height="64.299004mm"
   viewBox="0 0 110.57548 64.299003"
   version="1.1"
   id="svg1"
   inkscape:version="1.3 (0e150ed6c4, 2023-07-21)"
   sodipodi:docname="tractor.svg"
   xmlns:inkscape="http://www.inkscape.org/namespaces/inkscape"
   xmlns:sodipodi="http://sodipodi.sourceforge.net/DTD/sodipodi-0.dtd"
   xmlns="http://www.w3.org/2000/svg"
   xmlns:svg="http://www.w3.org/2000/svg">
  <sodipodi:namedview
     id="namedview1"
     pagecolor="#ffffff"
     bordercolor="#000000"
     borderopacity="0.25"
     inkscape:showpageshadow="2"
     inkscape:pageopacity="0.0"
     inkscape:pagecheckerboard="0"
     inkscape:deskcolor="#d1d1d1"
     inkscape:document-units="mm"
     inkscape:zoom="2.0257997"
     inkscape:cx="119.70581"
     inkscape:cy="191.77612"
     inkscape:window-width="2560"
     inkscape:window-height="1351"
     inkscape:window-x="1191"
     inkscape:window-y="187"
     inkscape:window-maximized="1"
     inkscape:current-layer="layer1" />
  <defs
     id="defs1" />
  <g
     inkscape:label="Layer 1"
     inkscape:groupmode="layer"
     id="layer1"
     transform="translate(-51.954154,-64.008949)">
    <g
       id="g94"
       style="stroke:#000000;stroke-opacity:1"
       transform="matrix(0.26458333,0,0,0.26458333,-58.358476,24.356187)">
      <g
         id="g55"
         style="stroke:#000000;stroke-opacity:1">
        <path
           style="fill:#ffffff;stroke:#000000;stroke-width:2;stroke-miterlimit:10;stroke-opacity:1"
           d="m 552.268,239.528 v -9.746 c 0,-0.853 0.908,-1.396 1.66,-0.994 l 3.492,1.875 c 1.02,0.547 1.66,1.617 1.66,2.773 v 7.588 z"
           id="path52" />
        <path
           style="fill:#ffffff;stroke:#000000;stroke-width:2;stroke-miterlimit:10;stroke-opacity:1"
           d="m 571.67,279.399 h 7.379 v -3.703 c 0,-2.035 -1.652,-3.688 -3.689,-3.688 -2.036,0 -3.689,1.652 -3.689,3.688 v 3.703 z"
           id="path53" />
        <path
           style="fill:#ffffff;stroke:#000000;stroke-width:2;stroke-miterlimit:10;stroke-opacity:1"
           d="m 555.938,241.032 c -2.037,0.022 -3.689,1.652 -3.689,3.691 0,27.092 0,19.188 0,42.975 h 7.379 c 0,-23.797 -0.271,-13.387 -0.271,-40.473 0.221,-1.107 -2.437,-6.201 -3.419,-6.193 z"
           id="path54" />
        <path
           style="fill:#ffffff;stroke:#000000;stroke-width:2;stroke-miterlimit:10;stroke-opacity:1"
           d="m 548.33,242.729 c 0,-2.166 1.756,-3.922 3.922,-3.922 h 7.373 c 2.164,0 3.922,1.756 3.922,3.922 v 27.664 c 0,2.164 -1.758,3.92 -3.922,3.92 h -7.373 c -2.166,0 -3.922,-1.756 -3.922,-3.92 z"
           id="path55" />
      </g>
      <rect
         x="777.43103"
         y="216.89301"
         transform="matrix(0.914,-0.4057,0.4057,0.914,-36.1149,338.6707)"
         style="fill:#ffffff;stroke:#000000;stroke-width:2;stroke-miterlimit:10;stroke-opacity:1"
         width="6.6680002"
         height="75.251999"
         id="rect55" />
      <path
         style="fill:#ffffff;stroke:#000000;stroke-width:2;stroke-miterlimit:10;stroke-opacity:1"
         d="m 760.675,225.129 c 0.878,1.979 3.197,2.871 5.175,1.992 l 4.586,-2.037 c 1.979,-0.879 2.871,-3.195 1.99,-5.176 l -19.787,-44.547 c -0.878,-1.979 -3.195,-2.871 -5.174,-1.99 l -4.586,2.035 c -1.979,0.879 -2.871,3.195 -1.991,5.176 z"
         id="path56" />
      <path
         style="fill:#ffffff;stroke:#000000;stroke-width:2;stroke-miterlimit:10;stroke-opacity:1"
         d="m 675.532,275.77 c -1.121,1.854 -0.528,4.264 1.322,5.387 l 9.59,5.805 c 1.852,1.123 4.264,0.529 5.385,-1.322 l 60.843,-100.523 -16.299,-9.865 z"
         id="path57" />
      <path
         style="fill:#ffffff;stroke:#000000;stroke-width:2;stroke-miterlimit:10;stroke-opacity:1"
         d="m 750.811,210.846 c 1.107,-1.471 0.816,-3.561 -0.654,-4.67 -1.469,-1.107 -3.561,-0.816 -4.67,0.652 l -30.57,38.492 5.321,4.018 z"
         id="path58" />
      <path
         style="fill:#ffffff;stroke:#000000;stroke-width:2;stroke-miterlimit:10;stroke-opacity:1"
         d="m 803.353,287.481 c -0.692,-1.563 -2.523,-2.266 -4.085,-1.572 l -21.545,9.57 2.514,5.658 21.545,-9.57 c 1.562,-0.693 2.266,-2.524 1.571,-4.086 z"
         id="path59" />
      <path
         style="fill:#ffffff;stroke:#000000;stroke-width:2;stroke-miterlimit:10;stroke-opacity:1"
         d="m 778.04,300.17 -18.62,4.033 -27.777,-128.629 c -0.459,-2.117 0.887,-4.205 3.004,-4.664 l 10.953,-2.371 c 2.119,-0.459 4.204,0.885 4.661,3.002 z"
         id="path60" />
      <path
         style="fill:#ffffff;stroke:#000000;stroke-width:2;stroke-miterlimit:10;stroke-opacity:1"
         d="m 781.445,292.667 c -0.401,-1.975 -2.522,-3.068 -4.365,-2.25 l -49.566,22.016 12.022,10.393 c 1.952,1.688 4.256,2.932 6.738,3.637 l 13.365,3.799 c 2.432,0.691 5.045,0.508 7.355,-0.52 l 16.585,-7.367 c 2.09,-0.928 3.258,-3.193 2.803,-5.434 z"
         id="path61" />
      <path
         style="fill:#ffffff;stroke:#000000;stroke-width:2;stroke-miterlimit:10;stroke-opacity:1"
         d="m 731.179,303.088 c -0.879,-1.979 -3.196,-2.869 -5.175,-1.992 l -2.945,1.309 4.445,10.012 6.53,-2.9 z"
         id="path62" />
      <path
         style="fill:#ffffff;stroke:#000000;stroke-width:2;stroke-miterlimit:10;stroke-opacity:1"
         d="m 743.419,302.387 c -0.88,-1.977 -3.196,-2.869 -5.175,-1.99 l -2.075,0.92 2.706,6.094 5.659,-2.512 z"
         id="path63" />
      <path
         style="fill:#ffffff;stroke:#000000;stroke-width:2;stroke-miterlimit:10;stroke-opacity:1"
         d="m 721.781,252.432 c 1.305,-1.73 0.96,-4.188 -0.77,-5.492 l -4.004,-3.021 c -1.728,-1.305 -4.187,-0.963 -5.492,0.768 l -27.438,36.295 c -1.304,1.729 -0.96,4.188 0.768,5.492 l 4.004,3.023 c 1.729,1.305 4.188,0.961 5.492,-0.768 z"
         id="path64" />
      <g
         id="g66"
         style="stroke:#000000;stroke-opacity:1">
        <path
           style="fill:#ffffff;stroke:#000000;stroke-width:2;stroke-miterlimit:10;stroke-opacity:1"
           d="m 485.355,347.186 c -1.127,0.404 -2.368,-0.184 -2.771,-1.311 -0.404,-1.127 0.182,-2.367 1.31,-2.771 l 13.435,-4.914 1.463,4.082 z"
           id="path65" />
        <path
           style="fill:#ffffff;stroke:#000000;stroke-width:2;stroke-miterlimit:10;stroke-opacity:1"
           d="m 500.412,343.829 c -1.326,0.475 -2.786,-0.215 -3.26,-1.541 l -1.102,-3.072 c -0.475,-1.322 0.215,-2.783 1.541,-3.26 l 17.312,-6.18 c 1.324,-0.475 2.784,0.215 3.259,1.543 l 1.102,3.068 c 0.475,1.328 -0.215,2.785 -1.54,3.262 z"
           id="path66" />
      </g>
      <g
         id="g70"
         style="stroke:#000000;stroke-opacity:1">
        <path
           style="fill:#ffffff;stroke:#000000;stroke-width:2;stroke-miterlimit:10;stroke-opacity:1"
           d="m 716.578,333.04 c 0,22.793 -18.477,41.267 -41.27,41.267 -22.793,0 -41.271,-18.475 -41.271,-41.267 0,-22.793 18.478,-41.27 41.271,-41.27 22.794,0 41.27,18.477 41.27,41.27 z"
           id="path67" />
        <path
           style="fill:#ffffff;stroke:#000000;stroke-width:2;stroke-miterlimit:10;stroke-opacity:1"
           d="m 703.287,333.04 c 0,15.451 -12.527,27.975 -27.979,27.975 -15.451,0 -27.979,-12.523 -27.979,-27.975 0,-15.453 12.527,-27.979 27.979,-27.979 15.452,0 27.979,12.525 27.979,27.979 z"
           id="path68" />
        <path
           style="fill:#ffffff;stroke:#000000;stroke-width:2;stroke-miterlimit:10;stroke-opacity:1"
           d="m 697.852,333.04 c 0,12.449 -10.094,22.541 -22.543,22.541 -12.449,0 -22.543,-10.092 -22.543,-22.541 0,-12.451 10.094,-22.543 22.543,-22.543 12.449,0 22.543,10.091 22.543,22.543 z"
           id="path69" />
        <path
           style="fill:#ffffff;stroke:#000000;stroke-width:2;stroke-miterlimit:10;stroke-opacity:1"
           d="m 688.338,333.04 c 0,7.197 -5.833,13.029 -13.029,13.029 -7.195,0 -13.031,-5.832 -13.031,-13.029 0,-7.197 5.836,-13.033 13.031,-13.033 7.196,-0.001 13.029,5.835 13.029,13.033 z"
           id="path70" />
      </g>
      <g
         id="g71"
         style="stroke:#000000;stroke-opacity:1">
        <path
           style="fill:#ffffff;stroke:#000000;stroke-width:2;stroke-miterlimit:10;stroke-opacity:1"
           d="m 702.204,295.028 v -24.463 c 0,-2.166 -1.757,-3.92 -3.921,-3.92 H 674.16 v 19.852 c 0.384,-0.01 0.764,-0.029 1.148,-0.029 10.022,-0.001 19.299,3.175 26.896,8.56 z"
           id="path71" />
      </g>
      <path
         style="fill:#ffffff;stroke:#000000;stroke-width:2;stroke-miterlimit:10;stroke-opacity:1"
         d="m 509.012,288.342 c 0,-2.1 1.704,-3.805 3.805,-3.805 v 0 16.254 0 c -2.101,0 -3.805,-1.701 -3.805,-3.805 z"
         id="path72" />
      <path
         style="fill:#ffffff;stroke:#000000;stroke-width:2;stroke-miterlimit:10;stroke-opacity:1"
         d="m 672.643,222.006 c -0.432,-2.232 -2.394,-3.85 -4.666,-3.85 h -68.812 c -1.714,0 -3.104,1.389 -3.104,3.104 0,1.715 1.39,3.104 3.104,3.104 h 3.496 l -14.706,55.31 h -71.907 c -2.159,0 -3.903,1.762 -3.88,3.92 l 0.189,18.004 3.891,31.588 c 0.123,-0.129 113.018,0 113.018,0 -0.004,-0.232 -0.015,-0.459 -0.015,-0.689 0,-24.703 20.023,-44.727 44.72,-44.727 4.055,0 7.864,-0.09 11.601,0.924 z"
         id="path73" />
      <path
         style="fill:#ffffff;stroke:#000000;stroke-width:2;stroke-miterlimit:10;stroke-opacity:1"
         d="m 601.561,308.76 c 0,2.166 1.756,3.92 3.921,3.92 h 6.726 c 2.365,0 4.512,-1.436 5.41,-3.625 l 8.617,-20.965 c 0.71,-1.73 -0.561,-3.627 -2.433,-3.627 h -18.32 c -2.165,0 -3.921,1.756 -3.921,3.92 z"
         id="path74" />
      <path
         style="fill:#ffffff;stroke:#000000;stroke-width:2;stroke-miterlimit:10;stroke-opacity:1"
         d="m 499.403,329.213 c 0,2.164 1.756,3.92 3.921,3.92 h 18.17 c 2.164,0 3.921,-1.756 3.921,-3.92 v -8.758 c 0,-2.166 -1.757,-3.92 -3.921,-3.92 h -18.17 c -2.165,0 -3.921,1.754 -3.921,3.92 z"
         id="path75" />
      <path
         style="fill:#ffffff;stroke:#000000;stroke-width:2;stroke-miterlimit:10;stroke-opacity:1"
         d="m 591.037,322.405 c 0,2.168 -1.755,3.922 -3.92,3.922 H 464.816 v -9.791 h 122.301 c 2.165,0 3.92,1.754 3.92,3.92 z"
         id="path76" />
      <g
         id="g80"
         style="stroke:#000000;stroke-opacity:1">
        <path
           style="fill:#ffffff;stroke:#000000;stroke-width:2;stroke-miterlimit:10;stroke-opacity:1"
           d="m 565.335,347.563 c 0,14.77 -11.974,26.744 -26.743,26.744 -14.771,0 -26.746,-11.975 -26.746,-26.744 0,-14.769 11.975,-26.744 26.746,-26.744 14.769,0 26.743,11.974 26.743,26.744 z"
           id="path77" />
        <path
           style="fill:#ffffff;stroke:#000000;stroke-width:2;stroke-miterlimit:10;stroke-opacity:1"
           d="m 556.721,347.563 c 0,10.014 -8.117,18.129 -18.129,18.129 -10.014,0 -18.133,-8.115 -18.133,-18.129 0,-10.014 8.119,-18.131 18.133,-18.131 10.012,0 18.129,8.117 18.129,18.131 z"
           id="path78" />
        <path
           style="fill:#ffffff;stroke:#000000;stroke-width:2;stroke-miterlimit:10;stroke-opacity:1"
           d="m 553.199,347.563 c 0,8.068 -6.541,14.609 -14.607,14.609 -8.068,0 -14.609,-6.541 -14.609,-14.609 0,-8.066 6.541,-14.607 14.609,-14.607 8.066,0 14.607,6.541 14.607,14.607 z"
           id="path79" />
        <path
           style="fill:#ffffff;stroke:#000000;stroke-width:2;stroke-miterlimit:10;stroke-opacity:1"
           d="m 547.033,347.563 c 0,4.664 -3.779,8.445 -8.441,8.445 -4.664,0 -8.445,-3.781 -8.445,-8.445 0,-4.664 3.781,-8.445 8.445,-8.445 4.662,0 8.441,3.781 8.441,8.445 z"
           id="path80" />
      </g>
      <path
         style="fill:#ffffff;stroke:#000000;stroke-width:2;stroke-miterlimit:10;stroke-opacity:1"
         d="m 466.243,305.557 c 0.669,-1.34 2.613,-1.242 3.146,0.16 l 23.498,61.832 c 0.672,1.774 -0.635,3.666 -2.529,3.666 h -40.573 c -1.446,0 -2.172,-1.748 -1.149,-2.772 l 6.898,-6.898 c 3.544,-3.543 5.547,-8.379 5.547,-13.389 v -28.354 c 0,-2.574 0.601,-5.123 1.753,-7.428 z"
         id="path81" />
      <path
         style="fill:#ffffff;stroke:#000000;stroke-width:2;stroke-miterlimit:10;stroke-opacity:1"
         d="m 711.511,299.278 c -30.091,-33.354 -86.513,-12.715 -86.513,33.316 0,5.611 0.939,11.002 2.654,16.031 0.514,1.502 1.988,2.441 3.574,2.441 1.248,0 2.109,-1.25 1.661,-2.414 -1.919,-4.984 -2.977,-10.397 -2.977,-16.059 0,-41.883 52.557,-60.785 79.182,-28.586 0.823,0.996 2.403,0.982 2.999,-0.164 0.774,-1.491 0.546,-3.317 -0.58,-4.565 z"
         id="path82" />
      <g
         id="g91"
         style="stroke:#000000;stroke-opacity:1">
        <path
           style="fill:#ffffff;stroke:#000000;stroke-width:2;stroke-miterlimit:10;stroke-opacity:1"
           d="m 528.809,302.741 c 0.383,2.229 2.322,3.863 4.583,3.863 h 50.259 c 2.166,0 3.92,-1.756 3.92,-3.92 v -8.297 c 0,-2.166 -1.754,-3.922 -3.92,-3.922 h -53.024 c -2.051,0 -3.605,1.844 -3.259,3.865 z"
           id="path83" />
        <g
           id="g90"
           style="stroke:#000000;stroke-opacity:1">
          <line
             style="fill:#ffffff;stroke:#000000;stroke-width:2;stroke-linecap:round;stroke-miterlimit:10;stroke-opacity:1"
             x1="534.86298"
             y1="302.965"
             x2="534.86298"
             y2="294.104"
             id="line83" />
          <line
             style="fill:#ffffff;stroke:#000000;stroke-width:2;stroke-linecap:round;stroke-miterlimit:10;stroke-opacity:1"
             x1="541.51001"
             y1="302.965"
             x2="541.51001"
             y2="294.104"
             id="line84" />
          <line
             style="fill:#ffffff;stroke:#000000;stroke-width:2;stroke-linecap:round;stroke-miterlimit:10;stroke-opacity:1"
             x1="548.15503"
             y1="302.965"
             x2="548.15503"
             y2="294.104"
             id="line85" />
          <line
             style="fill:#ffffff;stroke:#000000;stroke-width:2;stroke-linecap:round;stroke-miterlimit:10;stroke-opacity:1"
             x1="554.80103"
             y1="302.965"
             x2="554.80103"
             y2="294.104"
             id="line86" />
          <line
             style="fill:#ffffff;stroke:#000000;stroke-width:2;stroke-linecap:round;stroke-miterlimit:10;stroke-opacity:1"
             x1="561.44702"
             y1="302.965"
             x2="561.44702"
             y2="294.104"
             id="line87" />
          <line
             style="fill:#ffffff;stroke:#000000;stroke-width:2;stroke-linecap:round;stroke-miterlimit:10;stroke-opacity:1"
             x1="568.09302"
             y1="302.965"
             x2="568.09302"
             y2="294.104"
             id="line88" />
          <line
             style="fill:#ffffff;stroke:#000000;stroke-width:2;stroke-linecap:round;stroke-miterlimit:10;stroke-opacity:1"
             x1="574.73798"
             y1="302.965"
             x2="574.73798"
             y2="294.104"
             id="line89" />
          <line
             style="fill:#ffffff;stroke:#000000;stroke-width:2;stroke-linecap:round;stroke-miterlimit:10;stroke-opacity:1"
             x1="581.38501"
             y1="302.965"
             x2="581.38501"
             y2="294.104"
             id="line90" />
        </g>
      </g>
      <g
         id="g93"
         style="stroke:#000000;stroke-opacity:1">
        <path
           style="fill:#ffffff;stroke:#000000;stroke-width:2;stroke-miterlimit:10;stroke-opacity:1"
           d="m 603.491,274.696 c -0.391,1.994 1.134,3.848 3.167,3.848 h 30.874 c 2.165,0 3.921,-1.756 3.921,-3.92 v -42.08 c 0,-2.166 -1.756,-3.922 -3.921,-3.922 h -20.851 c -2.274,0 -4.237,1.615 -4.676,3.848 z"
           id="path91" />
        <path
           style="fill:none;stroke:#000000;stroke-width:2;stroke-miterlimit:10;stroke-opacity:1"
           d="m 646.465,228.286 c 0,-2.166 -1.756,-3.922 -3.922,-3.922 h -29.505 c -2.282,0 -4.259,1.605 -4.727,3.838 l -10.974,52.277 c -0.537,2.551 -0.808,5.15 -0.808,7.758 v 25.818 c 0,2.166 1.757,3.922 3.922,3.922 h 16.136 c 2.366,0 4.513,-1.438 5.411,-3.627 l 10.762,-26.185 c 0.898,-2.19 3.045,-3.627 5.411,-3.627 h 4.372 c 2.166,0 3.922,-1.756 3.922,-3.92 z"
           id="path92" />
        <path
           style="fill:#ffffff;stroke:#000000;stroke-width:2;stroke-miterlimit:10;stroke-opacity:1"
           d="m 671.506,262 c 0.321,2.037 -1.25,3.875 -3.312,3.875 h -12.892 c -2.164,0 -3.92,-1.756 -3.92,-3.922 v -29.41 c 0,-2.166 1.756,-3.922 3.92,-3.922 h 7.018 c 2.254,0 4.18,1.645 4.531,3.873 z"
           id="path93" />
      </g>
    </g>
  </g>
</svg>
