<?xml version="1.0" encoding="UTF-8" standalone="no"?>
<!-- Created with Inkscape (http://www.inkscape.org/) -->

<svg
   width="65.01873mm"
   height="47.138mm"
   viewBox="0 0 65.018728 47.138"
   version="1.1"
   id="svg1"
   inkscape:version="1.3 (0e150ed6c4, 2023-07-21)"
   sodipodi:docname="tractor2.svg"
   xmlns:inkscape="http://www.inkscape.org/namespaces/inkscape"
   xmlns:sodipodi="http://sodipodi.sourceforge.net/DTD/sodipodi-0.dtd"
   xmlns="http://www.w3.org/2000/svg"
   xmlns:svg="http://www.w3.org/2000/svg">
  <sodipodi:namedview
     id="namedview1"
     pagecolor="#ffffff"
     bordercolor="#000000"
     borderopacity="0.25"
     inkscape:showpageshadow="2"
     inkscape:pageopacity="0.0"
     inkscape:pagecheckerboard="0"
     inkscape:deskcolor="#d1d1d1"
     inkscape:document-units="mm"
     inkscape:zoom="2.0257997"
     inkscape:cx="227.81127"
     inkscape:cy="144.88106"
     inkscape:window-width="2560"
     inkscape:window-height="1351"
     inkscape:window-x="1191"
     inkscape:window-y="187"
     inkscape:window-maximized="1"
     inkscape:current-layer="layer1" />
  <defs
     id="defs1" />
  <g
     inkscape:label="Layer 1"
     inkscape:groupmode="layer"
     id="layer1"
     transform="translate(-47.919772,-60.250865)">
    <g
       id="g1"
       transform="translate(4.9998427,3.6248414)">
      <g
         id="g133"
         style="stroke:#000000;stroke-opacity:1"
         transform="matrix(0.26458333,0,0,0.26458333,39.486443,-57.359071)">
        <path
           style="fill:#ffffff;stroke:#000000;stroke-width:2;stroke-miterlimit:10;stroke-opacity:1"
           d="m 83.856,465.733 v -9.285 c 0,-0.813 0.865,-1.331 1.582,-0.946 l 3.325,1.785 c 0.972,0.52 1.582,1.542 1.582,2.644 v 7.227 z"
           id="path130" />
        <path
           style="fill:#ffffff;stroke:#000000;stroke-width:2;stroke-miterlimit:10;stroke-opacity:1"
           d="m 102.341,503.716 h 7.028 v -3.526 c 0,-1.941 -1.573,-3.515 -3.514,-3.515 -1.941,0 -3.515,1.574 -3.515,3.515 v 3.526 z"
           id="path131" />
        <path
           style="fill:#ffffff;stroke:#000000;stroke-width:2;stroke-miterlimit:10;stroke-opacity:1"
           d="m 87.353,467.167 c -1.94,0.021 -3.515,1.573 -3.515,3.515 0,25.81 0,18.28 0,40.942 h 7.028 c 0,-22.671 -0.258,-12.755 -0.258,-38.558 0.213,-1.054 -2.32,-5.909 -3.255,-5.899 z"
           id="path132" />
        <path
           style="fill:#ffffff;stroke:#000000;stroke-width:2;stroke-miterlimit:10;stroke-opacity:1"
           d="m 80.105,468.782 c 0,-2.063 1.673,-3.735 3.736,-3.735 h 7.023 c 2.063,0 3.736,1.672 3.736,3.735 v 26.354 c 0,2.063 -1.674,3.734 -3.736,3.734 h -7.023 c -2.063,0 -3.736,-1.671 -3.736,-3.734 z"
           id="path133" />
      </g>
      <g
         id="g142"
         style="stroke:#000000;stroke-opacity:1"
         transform="matrix(0.26458333,0,0,0.26458333,39.486443,-57.359071)">
        <path
           style="fill:#ffffff;stroke:#000000;stroke-width:2;stroke-miterlimit:10;stroke-opacity:1"
           d="M 225.24,518.742 V 495.44 c 0,-2.064 -1.673,-3.736 -3.735,-3.736 h -22.98 v 18.912 c 0.364,-0.01 0.727,-0.029 1.094,-0.029 9.547,-10e-4 18.383,3.025 25.621,8.155 z"
           id="path142" />
      </g>
      <g
         id="g146"
         style="stroke:#000000;stroke-opacity:1"
         transform="matrix(0.26458333,0,0,0.26458333,39.486443,-57.359071)">
        <path
           style="fill:#ffffff;stroke:#000000;stroke-width:2;stroke-miterlimit:10;stroke-opacity:1"
           d="m 238.82,554.956 c 0,21.712 -17.602,39.313 -39.313,39.313 -21.715,0 -39.318,-17.601 -39.318,-39.313 0,-21.715 17.604,-39.317 39.318,-39.317 21.712,0 39.313,17.602 39.313,39.317 z"
           id="path143" />
        <path
           style="fill:#ffffff;stroke:#000000;stroke-width:2;stroke-miterlimit:10;stroke-opacity:1"
           d="m 226.159,554.956 c 0,14.719 -11.935,26.651 -26.652,26.651 -14.72,0 -26.655,-11.933 -26.655,-26.651 0,-14.721 11.936,-26.655 26.655,-26.655 14.718,0 26.652,11.934 26.652,26.655 z"
           id="path144" />
        <path
           style="fill:#ffffff;stroke:#000000;stroke-width:2;stroke-miterlimit:10;stroke-opacity:1"
           d="m 220.98,554.956 c 0,11.858 -9.614,21.473 -21.474,21.473 -11.86,0 -21.479,-9.614 -21.479,-21.473 0,-11.861 9.618,-21.476 21.479,-21.476 11.86,10e-4 21.474,9.615 21.474,21.476 z"
           id="path145" />
        <path
           style="fill:#ffffff;stroke:#000000;stroke-width:2;stroke-miterlimit:10;stroke-opacity:1"
           d="m 211.917,554.956 c 0,6.855 -5.556,12.413 -12.41,12.413 -6.857,0 -12.415,-5.558 -12.415,-12.413 0,-6.858 5.558,-12.416 12.415,-12.416 6.854,0 12.41,5.559 12.41,12.416 z"
           id="path146" />
      </g>
      <path
         style="fill:#ffffff;stroke:#000000;stroke-width:0.529167;stroke-miterlimit:10;stroke-opacity:1"
         d="m 48.184355,88.661029 c 0,0.461698 0.374121,0.835554 0.83529,0.835554 h 2.455069 c 0.461698,0 0.835554,-0.373856 0.835554,-0.835554 v -1.865577 c 0,-0.461433 -0.373856,-0.835289 -0.835554,-0.835289 h -2.455069 c -0.461169,0 -0.83529,0.373856 -0.83529,0.835289 z"
         id="path147" />
      <path
         style="fill:#ffffff;stroke:#000000;stroke-width:0.529167;stroke-miterlimit:10;stroke-opacity:1"
         d="m 50.355791,78.206548 c 0,-0.529431 0.429683,-0.95885 0.958585,-0.95885 v 0 4.096808 0 c -0.528902,0 -0.958585,-0.429418 -0.958585,-0.959114 z"
         id="path148" />
      <path
         style="fill:#ffffff;stroke:#000000;stroke-width:0.529167;stroke-miterlimit:10;stroke-opacity:1"
         d="M 91.600628,61.48594 C 91.491355,60.923171 90.997113,60.515448 90.42429,60.515448 H 73.079795 c -0.43233,0 -0.782373,0.350309 -0.782373,0.782373 0,0.432329 0.350043,0.782373 0.782373,0.782373 h 0.881062 L 70.951486,76.021619 H 52.129293 c -0.544513,0 -0.983721,0.444235 -0.978165,0.987954 l 0.04763,4.538398 1.206236,8.086196 c 0.03122,-0.03202 11.628437,-0.124619 11.628437,-0.124619 h 16.633825 c -0.0013,-0.05794 -0.0042,-0.115888 -0.0042,-0.173831 0,-6.226175 5.046663,-11.273102 11.272309,-11.273102 1.021556,0 2.011098,0.138112 2.95275,0.392906 z"
         id="path149" />
      <path
         style="fill:#ffffff;stroke:#000000;stroke-width:0.529167;stroke-miterlimit:10;stroke-opacity:1"
         d="m 73.683045,83.353223 c 0,0.5461 0.442912,0.988483 0.988483,0.988483 h 1.694921 c 0.5969,0 1.137444,-0.362479 1.364191,-0.914664 l 2.171436,-5.283729 C 80.081463,77.70675 79.761053,77.228648 79.28983,77.228648 h -4.618302 c -0.545835,0 -0.988483,0.442913 -0.988483,0.988219 z"
         id="path150" />
      <g
         id="g154"
         style="stroke:#000000;stroke-opacity:1"
         transform="matrix(0.26458333,0,0,0.26458333,39.486443,-57.359071)">
        <path
           style="fill:#ffffff;stroke:#000000;stroke-width:2;stroke-miterlimit:10;stroke-opacity:1"
           d="m 94.737,568.792 c 0,14.071 -11.405,25.477 -25.477,25.477 -14.072,0 -25.48,-11.406 -25.48,-25.477 0,-14.071 11.407,-25.479 25.48,-25.479 14.073,0 25.477,11.408 25.477,25.479 z"
           id="path151" />
        <path
           style="fill:#ffffff;stroke:#000000;stroke-width:2;stroke-miterlimit:10;stroke-opacity:1"
           d="m 86.532,568.792 c 0,9.539 -7.734,17.271 -17.272,17.271 -9.539,0 -17.273,-7.732 -17.273,-17.271 0,-9.539 7.733,-17.273 17.273,-17.273 9.538,0 17.272,7.734 17.272,17.273 z"
           id="path152" />
        <path
           style="fill:#ffffff;stroke:#000000;stroke-width:2;stroke-miterlimit:10;stroke-opacity:1"
           d="m 83.176,568.792 c 0,7.685 -6.23,13.919 -13.916,13.919 -7.686,0 -13.917,-6.233 -13.917,-13.919 0,-7.686 6.231,-13.916 13.917,-13.916 7.685,0 13.916,6.23 13.916,13.916 z"
           id="path153" />
        <path
           style="fill:#ffffff;stroke:#000000;stroke-width:2;stroke-miterlimit:10;stroke-opacity:1"
           d="m 77.304,568.792 c 0,4.442 -3.602,8.044 -8.044,8.044 -4.442,0 -8.046,-3.602 -8.046,-8.044 0,-4.442 3.603,-8.047 8.046,-8.047 4.442,0 8.044,3.605 8.044,8.047 z"
           id="path154" />
      </g>
      <path
         style="fill:#ffffff;stroke:#000000;stroke-width:0.529167;stroke-miterlimit:10;stroke-opacity:1"
         d="M 101.25792,80.982027 C 93.673109,72.574892 79.45149,77.7766 79.45149,89.379373 c 0,1.414727 0.237067,2.773098 0.668867,4.040717 0.129646,0.379412 0.501121,0.615156 0.901171,0.615156 0.314854,0 0.531548,-0.31459 0.418835,-0.608013 -0.483923,-1.25677 -0.750623,-2.620962 -0.750623,-4.04786 0,-10.557139 13.247159,-15.321756 19.95884,-7.205662 0.20691,0.25056 0.60537,0.24765 0.75539,-0.04075 0.19526,-0.375973 0.13785,-0.836877 -0.14605,-1.150938 z"
         id="path155" />
      <path
         style="fill:#ffffff;stroke:#000000;stroke-width:0.529167;stroke-miterlimit:10;stroke-opacity:1"
         d="m 99.072726,78.60554 v 0 c 0.417512,0 0.756179,-0.337873 0.756179,-0.755386 v -1.626923 c 0,-0.417512 -0.338402,-0.755914 -0.756179,-0.755914 v 0 z"
         id="path156" />
      <g
         id="g165"
         style="stroke:#000000;stroke-opacity:1"
         transform="matrix(0.26458333,0,0,0.26458333,39.486443,-57.359071)">
        <path
           style="fill:#ffffff;stroke:#000000;stroke-width:2;stroke-miterlimit:10;stroke-opacity:1"
           d="m 59.402,525.981 c 0.364,2.124 2.213,3.682 4.366,3.682 h 47.879 c 2.063,0 3.736,-1.673 3.736,-3.734 v -7.904 c 0,-2.064 -1.673,-3.736 -3.736,-3.736 H 61.134 c -1.953,0 -3.435,1.757 -3.105,3.683 z"
           id="path157" />
        <g
           id="g164"
           style="stroke:#000000;stroke-opacity:1">
          <line
             style="fill:#ffffff;stroke:#000000;stroke-width:2;stroke-linecap:round;stroke-miterlimit:10;stroke-opacity:1"
             x1="65.170998"
             y1="526.19598"
             x2="65.170998"
             y2="517.755"
             id="line157" />
          <line
             style="fill:#ffffff;stroke:#000000;stroke-width:2;stroke-linecap:round;stroke-miterlimit:10;stroke-opacity:1"
             x1="71.501999"
             y1="526.19598"
             x2="71.501999"
             y2="517.755"
             id="line158" />
          <line
             style="fill:#ffffff;stroke:#000000;stroke-width:2;stroke-linecap:round;stroke-miterlimit:10;stroke-opacity:1"
             x1="77.833"
             y1="526.19598"
             x2="77.833"
             y2="517.755"
             id="line159" />
          <line
             style="fill:#ffffff;stroke:#000000;stroke-width:2;stroke-linecap:round;stroke-miterlimit:10;stroke-opacity:1"
             x1="84.165001"
             y1="526.19598"
             x2="84.165001"
             y2="517.755"
             id="line160" />
          <line
             style="fill:#ffffff;stroke:#000000;stroke-width:2;stroke-linecap:round;stroke-miterlimit:10;stroke-opacity:1"
             x1="90.496002"
             y1="526.19598"
             x2="90.496002"
             y2="517.755"
             id="line161" />
          <line
             style="fill:#ffffff;stroke:#000000;stroke-width:2;stroke-linecap:round;stroke-miterlimit:10;stroke-opacity:1"
             x1="96.827003"
             y1="526.19598"
             x2="96.827003"
             y2="517.755"
             id="line162" />
          <line
             style="fill:#ffffff;stroke:#000000;stroke-width:2;stroke-linecap:round;stroke-miterlimit:10;stroke-opacity:1"
             x1="103.158"
             y1="526.19598"
             x2="103.158"
             y2="517.755"
             id="line163" />
          <line
             style="fill:#ffffff;stroke:#000000;stroke-width:2;stroke-linecap:round;stroke-miterlimit:10;stroke-opacity:1"
             x1="109.489"
             y1="526.19598"
             x2="109.489"
             y2="517.755"
             id="line164" />
        </g>
      </g>
      <g
         id="g167"
         style="stroke:#000000;stroke-opacity:1"
         transform="matrix(0.26458333,0,0,0.26458333,39.486443,-57.359071)">
        <path
           style="fill:#ffffff;stroke:#000000;stroke-width:2;stroke-miterlimit:10;stroke-opacity:1"
           d="m 131.088,498.08 c -0.372,1.899 1.079,3.664 3.017,3.664 h 29.412 c 2.063,0 3.736,-1.672 3.736,-3.734 v -40.088 c 0,-2.064 -1.674,-3.735 -3.736,-3.735 h -19.861 c -2.168,0 -4.038,1.538 -4.456,3.665 z"
           id="path165" />
        <path
           style="fill:none;stroke:#000000;stroke-width:2;stroke-miterlimit:10;stroke-opacity:1"
           d="m 172.028,453.865 c 0,-2.063 -1.675,-3.736 -3.737,-3.736 h -28.108 c -2.175,0 -4.057,1.531 -4.505,3.658 l -10.454,49.801 c -0.511,2.431 -0.77,4.908 -0.77,7.392 v 24.597 c 0,2.063 1.675,3.736 3.736,3.736 h 15.373 c 2.254,0 4.299,-1.37 5.155,-3.457 l 10.251,-24.944 c 0.857,-2.087 2.901,-3.455 5.156,-3.455 h 4.165 c 2.063,0 3.737,-1.673 3.737,-3.735 v -49.857 z"
           id="path166" />
        <path
           style="fill:#ffffff;stroke:#000000;stroke-width:2;stroke-miterlimit:10;stroke-opacity:1"
           d="m 195.882,485.985 c 0.307,1.939 -1.19,3.69 -3.154,3.69 h -12.281 c -2.062,0 -3.734,-1.672 -3.734,-3.735 v -28.018 c 0,-2.064 1.673,-3.735 3.734,-3.735 h 6.685 c 2.147,0 3.984,1.567 4.318,3.691 z"
           id="path167" />
      </g>
    </g>
  </g>
</svg>
