<?xml version="1.0" encoding="UTF-8" standalone="no"?>
<!-- Created with Inkscape (http://www.inkscape.org/) -->

<svg
   width="120.35384mm"
   height="60.215mm"
   viewBox="0 0 120.35385 60.215001"
   version="1.1"
   id="svg1"
   inkscape:version="1.3 (0e150ed6c4, 2023-07-21)"
   sodipodi:docname="trolleybus.svg"
   xmlns:inkscape="http://www.inkscape.org/namespaces/inkscape"
   xmlns:sodipodi="http://sodipodi.sourceforge.net/DTD/sodipodi-0.dtd"
   xmlns="http://www.w3.org/2000/svg"
   xmlns:svg="http://www.w3.org/2000/svg">
  <sodipodi:namedview
     id="namedview1"
     pagecolor="#ffffff"
     bordercolor="#000000"
     borderopacity="0.25"
     inkscape:showpageshadow="2"
     inkscape:pageopacity="0.0"
     inkscape:pagecheckerboard="0"
     inkscape:deskcolor="#d1d1d1"
     inkscape:document-units="mm"
     inkscape:zoom="1.0128998"
     inkscape:cx="179.1885"
     inkscape:cy="272.97863"
     inkscape:window-width="2560"
     inkscape:window-height="1351"
     inkscape:window-x="1191"
     inkscape:window-y="187"
     inkscape:window-maximized="1"
     inkscape:current-layer="layer1" />
  <defs
     id="defs1" />
  <g
     inkscape:label="Layer 1"
     inkscape:groupmode="layer"
     id="layer1"
     transform="translate(-57.589391,-76.334783)">
    <g
       id="g93"
       transform="matrix(0.26458333,0,0,0.26458333,-36.829198,-9.4322509)"
       style="stroke:#000000;stroke-opacity:1">
      <path
         style="fill:#ffffff;stroke:#000000;stroke-width:3;stroke-miterlimit:10;stroke-opacity:1"
         d="m 609.229,346.408 c 0.588,-0.745 0.058,-1.84 -0.89,-1.84 -1.479,0 -2.883,0.681 -3.8,1.84 l -36.875,46.709 c -0.588,0.745 -0.058,1.84 0.893,1.84 1.476,0 2.88,-0.681 3.796,-1.84 z"
         id="path64" />
      <path
         style="fill:#ffffff;stroke:#000000;stroke-width:3;stroke-miterlimit:10;stroke-opacity:1"
         d="m 412.385,407.733 c 2.015,-1.384 4.413,-2.128 6.859,-2.128 h 248.634 96.134 c 2.077,0 3.759,1.683 3.759,3.759 v 58.786 39.117 c 0,2.076 -1.682,3.758 -3.759,3.758 h -94.67 c -2.037,0 -3.717,-1.614 -3.768,-3.651 -0.071,-2.732 -0.299,-6.454 -0.985,-9.195 -2.817,-11.271 -15.142,-20.12 -28.093,-20.12 -18.623,0 -32.19,17.513 -27.673,35.476 0.132,0.523 0.194,1.067 0.112,1.6 -0.065,0.425 -0.423,0.751 -0.854,0.751 H 527 c -0.432,0 -0.79,-0.326 -0.852,-0.752 -0.075,-0.482 -0.05,-0.974 0.07,-1.446 0.583,-2.266 0.911,-4.635 0.911,-7.083 0,-15.767 -12.777,-28.546 -28.543,-28.546 -14.616,0 -26.665,10.984 -28.344,25.147 -0.066,0.557 -0.096,2.695 -0.109,4.692 -0.014,2.103 -1.666,3.857 -3.768,3.857 h -62.294 c -2.079,0 -3.77,-1.679 -3.782,-3.758 l -0.051,-8.18 v -54.43 l 3.515,-28.316 c 0.296,-2.367 1.596,-4.508 3.562,-5.858 z"
         id="path65" />
      <g
         id="g66"
         style="stroke:#000000;stroke-opacity:1">
        <path
           style="fill:#ffffff;stroke:#000000;stroke-width:3;stroke-miterlimit:10;stroke-opacity:1"
           d="m 582.704,508.409 h -10.971 c -2.438,0 -4.421,-1.983 -4.421,-4.422 v -88.83 c 0,-2.439 1.982,-4.422 4.421,-4.422 h 10.971 c 2.438,0 4.421,1.983 4.421,4.422 v 88.83 c 0,2.439 -1.983,4.422 -4.421,4.422 z"
           id="path66" />
      </g>
      <g
         id="g67"
         style="stroke:#000000;stroke-opacity:1">
        <path
           style="fill:#ffffff;stroke:#000000;stroke-width:3;stroke-miterlimit:10;stroke-opacity:1"
           d="m 557.327,508.409 h -10.969 c -2.438,0 -4.421,-1.983 -4.421,-4.422 v -88.83 c 0,-2.439 1.982,-4.422 4.421,-4.422 h 10.969 c 2.439,0 4.423,1.983 4.423,4.422 v 88.83 c 0,2.439 -1.983,4.422 -4.423,4.422 z"
           id="path67" />
      </g>
      <g
         id="g68"
         style="stroke:#000000;stroke-opacity:1">
        <path
           style="fill:#ffffff;stroke:#000000;stroke-width:3;stroke-miterlimit:10;stroke-opacity:1"
           d="m 462.215,504.349 h -10.97 c -2.44,0 -4.423,-1.983 -4.423,-4.421 v -84.77 c 0,-2.439 1.983,-4.422 4.423,-4.422 h 10.97 c 2.439,0 4.423,1.983 4.423,4.422 v 84.77 c 0,2.437 -1.984,4.421 -4.423,4.421 z"
           id="path68" />
      </g>
      <g
         id="g69"
         style="stroke:#000000;stroke-opacity:1">
        <path
           style="fill:#ffffff;stroke:#000000;stroke-width:3;stroke-miterlimit:10;stroke-opacity:1"
           d="M 437.652,504.349 H 426.68 c -2.438,0 -4.421,-1.983 -4.421,-4.421 v -84.77 c 0,-2.439 1.983,-4.422 4.421,-4.422 h 10.972 c 2.438,0 4.422,1.983 4.422,4.422 v 84.77 c 0,2.437 -1.984,4.421 -4.422,4.421 z"
           id="path69" />
      </g>
      <g
         id="g70"
         style="stroke:#000000;stroke-opacity:1">
        <path
           style="fill:#ffffff;stroke:#000000;stroke-width:3;stroke-miterlimit:10;stroke-opacity:1"
           d="m 709.905,504.349 h -10.972 c -2.438,0 -4.421,-1.983 -4.421,-4.421 v -84.77 c 0,-2.439 1.983,-4.422 4.421,-4.422 h 10.972 c 2.44,0 4.422,1.983 4.422,4.422 v 84.77 c 0,2.437 -1.982,4.421 -4.422,4.421 z"
           id="path70" />
      </g>
      <g
         id="g71"
         style="stroke:#000000;stroke-opacity:1">
        <path
           style="fill:#ffffff;stroke:#000000;stroke-width:3;stroke-miterlimit:10;stroke-opacity:1"
           d="m 685.343,504.349 h -10.972 c -2.438,0 -4.423,-1.983 -4.423,-4.421 v -84.77 c 0,-2.439 1.985,-4.422 4.423,-4.422 h 10.972 c 2.437,0 4.421,1.983 4.421,4.422 v 84.77 c 0,2.437 -1.985,4.421 -4.421,4.421 z"
           id="path71" />
      </g>
      <path
         style="fill:#ffffff;stroke:#000000;stroke-width:3;stroke-miterlimit:10;stroke-opacity:1"
         d="m 436.94,485.233 c 0,2.075 -1.684,3.758 -3.761,3.758 h -2.024 c -2.077,0 -3.76,-1.683 -3.76,-3.758 v -65.295 c 0,-2.076 1.683,-3.759 3.76,-3.759 h 2.024 c 2.077,0 3.761,1.683 3.761,3.759 z"
         id="path72" />
      <path
         style="fill:#ffffff;stroke:#000000;stroke-width:3;stroke-miterlimit:10;stroke-opacity:1"
         d="m 461.502,485.233 c 0,2.075 -1.683,3.758 -3.759,3.758 h -2.026 c -2.075,0 -3.759,-1.683 -3.759,-3.758 v -65.295 c 0,-2.076 1.684,-3.759 3.759,-3.759 h 2.026 c 2.076,0 3.759,1.683 3.759,3.759 z"
         id="path73" />
      <path
         style="fill:#ffffff;stroke:#000000;stroke-width:3;stroke-miterlimit:10;stroke-opacity:1"
         d="m 581.99,485.233 c 0,2.075 -1.682,3.758 -3.76,3.758 h -2.024 c -2.077,0 -3.759,-1.683 -3.759,-3.758 v -65.295 c 0,-2.076 1.682,-3.759 3.759,-3.759 h 2.024 c 2.078,0 3.76,1.683 3.76,3.759 z"
         id="path74" />
      <path
         style="fill:#ffffff;stroke:#000000;stroke-width:3;stroke-miterlimit:10;stroke-opacity:1"
         d="m 684.628,485.233 c 0,2.075 -1.683,3.758 -3.759,3.758 h -2.026 c -2.075,0 -3.759,-1.683 -3.759,-3.758 v -65.295 c 0,-2.076 1.684,-3.759 3.759,-3.759 h 2.026 c 2.076,0 3.759,1.683 3.759,3.759 z"
         id="path75" />
      <path
         style="fill:#ffffff;stroke:#000000;stroke-width:3;stroke-miterlimit:10;stroke-opacity:1"
         d="m 709.192,485.233 c 0,2.075 -1.684,3.758 -3.761,3.758 h -2.024 c -2.077,0 -3.76,-1.683 -3.76,-3.758 v -65.295 c 0,-2.076 1.683,-3.759 3.76,-3.759 h 2.024 c 2.077,0 3.761,1.683 3.761,3.759 z"
         id="path76" />
      <path
         style="fill:#ffffff;stroke:#000000;stroke-width:3;stroke-miterlimit:10;stroke-opacity:1"
         d="m 556.615,485.233 c 0,2.075 -1.683,3.758 -3.76,3.758 h -2.024 c -2.077,0 -3.761,-1.683 -3.761,-3.758 v -65.295 c 0,-2.076 1.684,-3.759 3.761,-3.759 h 2.024 c 2.077,0 3.76,1.683 3.76,3.759 z"
         id="path77" />
      <path
         style="fill:#ffffff;stroke:#000000;stroke-width:3;stroke-miterlimit:10;stroke-opacity:1"
         d="m 531.511,453.573 c 0,2.076 -1.681,3.759 -3.758,3.759 h -46.931 c -2.075,0 -3.759,-1.683 -3.759,-3.759 v -28.419 c 0,-2.075 1.684,-3.758 3.759,-3.758 h 46.931 c 2.077,0 3.758,1.683 3.758,3.758 z"
         id="path78" />
      <path
         style="fill:#ffffff;stroke:#000000;stroke-width:3;stroke-miterlimit:10;stroke-opacity:1"
         d="m 659.93,453.573 c 0,2.076 -1.682,3.759 -3.76,3.759 h -55.266 c -2.076,0 -3.76,-1.683 -3.76,-3.759 v -28.419 c 0,-2.075 1.684,-3.758 3.76,-3.758 h 55.266 c 2.078,0 3.76,1.683 3.76,3.758 z"
         id="path79" />
      <path
         style="fill:#ffffff;stroke:#000000;stroke-width:3;stroke-miterlimit:10;stroke-opacity:1"
         d="m 761.683,453.573 c 0,2.076 -1.684,3.759 -3.759,3.759 h -28.859 c -2.079,0 -3.761,-1.683 -3.761,-3.759 v -28.419 c 0,-2.075 1.682,-3.758 3.761,-3.758 h 28.859 c 2.075,0 3.759,1.683 3.759,3.758 z"
         id="path80" />
      <path
         style="fill:#ffffff;stroke:#000000;stroke-width:3;stroke-miterlimit:10;stroke-opacity:1"
         d="m 769.539,494.332 c 0,1.275 -1.037,2.309 -2.313,2.309 -1.273,0 -2.309,-1.034 -2.309,-2.309 v -8.315 c 0,-1.275 1.036,-2.309 2.309,-2.309 1.275,0 2.313,1.034 2.313,2.309 z"
         id="path81" />
      <path
         style="fill:#ffffff;stroke:#000000;stroke-width:3;stroke-miterlimit:10;stroke-opacity:1"
         d="m 757.512,510.609 c 0,2.076 1.682,3.758 3.761,3.758 h 7.412 c 2.075,0 3.759,-1.683 3.759,-3.758 v -5.202 c 0,-2.075 -1.684,-3.758 -3.759,-3.758 h -7.412 c -2.079,0 -3.761,1.683 -3.761,3.758 z"
         id="path82" />
      <path
         style="fill:#ffffff;stroke:#000000;stroke-width:3;stroke-miterlimit:10;stroke-opacity:1"
         d="m 396.152,510.649 c 0,2.075 1.683,3.758 3.76,3.758 h 5.006 c 2.075,0 3.759,-1.683 3.759,-3.758 v -5.202 c 0,-2.076 -1.684,-3.758 -3.759,-3.758 h -5.006 c -2.077,0 -3.76,1.683 -3.76,3.758 z"
         id="path83" />
      <path
         style="fill:#ffffff;stroke:#000000;stroke-width:3;stroke-miterlimit:10;stroke-opacity:1"
         d="m 407.012,496.767 c 0,2.076 -1.683,3.758 -3.76,3.758 h -1.323 c -2.074,0 -3.758,-1.683 -3.758,-3.758 v -13.103 c 0,-2.076 1.684,-3.759 3.758,-3.759 h 1.323 c 2.077,0 3.76,1.683 3.76,3.759 z"
         id="path84" />
      <path
         style="fill:#ffffff;stroke:#000000;stroke-width:3;stroke-miterlimit:10;stroke-opacity:1"
         d="m 415.26,417.505 c 0,-2.076 -1.683,-3.759 -3.76,-3.759 h -3.748 c -2.143,0 -3.95,1.606 -4.202,3.733 l -3.311,27.908 0.127,27.684 c 0.008,2.079 1.696,3.759 3.776,3.759 h 7.358 c 2.077,0 3.76,-1.683 3.76,-3.759 z"
         id="path85" />
      <path
         style="fill:#ffffff;stroke:#000000;stroke-width:3;stroke-miterlimit:10;stroke-opacity:1"
         d="m 625.885,401.807 c 0,2.076 -1.684,3.759 -3.76,3.759 h -91.272 c -2.074,0 -3.759,-1.683 -3.759,-3.759 v -4.417 c 0,-2.076 1.685,-3.759 3.759,-3.759 h 91.272 c 2.076,0 3.76,1.683 3.76,3.759 z"
         id="path86" />
      <g
         id="g89"
         style="stroke:#000000;stroke-opacity:1">
        <path
           style="fill:#ffffff;stroke:#000000;stroke-width:3;stroke-miterlimit:10;stroke-opacity:1"
           d="m 521.894,507.863 c 0,12.962 -10.509,23.471 -23.472,23.471 -12.959,0 -23.468,-10.508 -23.468,-23.471 0,-12.963 10.509,-23.471 23.468,-23.471 12.963,0 23.472,10.508 23.472,23.471 z"
           id="path87" />
        <path
           style="fill:#ffffff;stroke:#000000;stroke-width:3;stroke-miterlimit:10;stroke-opacity:1"
           d="m 511.244,507.863 c 0,7.081 -5.74,12.82 -12.822,12.82 -7.08,0 -12.818,-5.74 -12.818,-12.82 0,-7.081 5.738,-12.82 12.818,-12.82 7.082,0 12.822,5.739 12.822,12.82 z"
           id="path88" />
        <path
           style="fill:#ffffff;stroke:#000000;stroke-width:3;stroke-miterlimit:10;stroke-opacity:1"
           d="m 505.836,507.863 c 0,4.092 -3.319,7.411 -7.414,7.411 -4.092,0 -7.408,-3.319 -7.408,-7.411 0,-4.093 3.316,-7.411 7.408,-7.411 4.095,0 7.414,3.318 7.414,7.411 z"
           id="path89" />
      </g>
      <g
         id="g92"
         style="stroke:#000000;stroke-opacity:1">
        <path
           style="fill:#ffffff;stroke:#000000;stroke-width:3;stroke-miterlimit:10;stroke-opacity:1"
           d="m 660.863,507.863 c 0,12.962 -10.509,23.471 -23.473,23.471 -12.961,0 -23.47,-10.508 -23.47,-23.471 0,-12.963 10.509,-23.471 23.47,-23.471 12.964,0 23.473,10.508 23.473,23.471 z"
           id="path90" />
        <path
           style="fill:#ffffff;stroke:#000000;stroke-width:3;stroke-miterlimit:10;stroke-opacity:1"
           d="m 650.212,507.863 c 0,7.081 -5.738,12.82 -12.821,12.82 -7.08,0 -12.818,-5.74 -12.818,-12.82 0,-7.081 5.738,-12.82 12.818,-12.82 7.083,0 12.821,5.739 12.821,12.82 z"
           id="path91" />
        <path
           style="fill:#ffffff;stroke:#000000;stroke-width:3;stroke-miterlimit:10;stroke-opacity:1"
           d="m 644.804,507.863 c 0,4.092 -3.319,7.411 -7.413,7.411 -4.093,0 -7.409,-3.319 -7.409,-7.411 0,-4.093 3.316,-7.411 7.409,-7.411 4.093,0 7.413,3.318 7.413,7.411 z"
           id="path92" />
      </g>
    </g>
  </g>
</svg>
