<svg width="454.881" height="227.584" viewBox="0 0 120.354 60.215" xmlns="http://www.w3.org/2000/svg"><g stroke="#000"><path d="M66.773 5.887a.3.3 0 00-.235-.487c-.392 0-.763.18-1.006.487l-9.756 12.358a.3.3 0 00.236.487c.39 0 .762-.18 1.004-.487zM14.692 22.112a3.21 3.21 0 011.814-.563h91.22c.55 0 .995.446.995.995v25.904c0 .549-.445.994-.995.994H82.678a.995.995 0 01-.997-.966c-.019-.723-.079-1.708-.26-2.433-.746-2.982-4.007-5.324-7.433-5.324-4.928 0-8.517 4.634-7.322 9.387.035.138.051.282.03.423a.231.231 0 01-.226.199H45.017a.23.23 0 01-.226-.2.956.956 0 01.019-.382c.154-.6.241-1.226.241-1.874a7.552 7.552 0 00-15.051-.9c-.018.148-.026.714-.03 1.242-.003.557-.44 1.02-.996 1.02H12.492a1 1 0 01-1-.993l-.014-2.165V32.075l.93-7.492a2.217 2.217 0 01.942-1.55z" fill="#fff" stroke-width=".7937399999999999" stroke-miterlimit="10"/><path d="M59.755 48.75h-2.903c-.645 0-1.17-.525-1.17-1.17V24.077c0-.646.525-1.17 1.17-1.17h2.903c.645 0 1.17.524 1.17 1.17V47.58c0 .645-.525 1.17-1.17 1.17zM53.04 48.75H50.14c-.645 0-1.17-.525-1.17-1.17V24.077c0-.646.524-1.17 1.17-1.17h2.902c.645 0 1.17.524 1.17 1.17V47.58c0 .645-.525 1.17-1.17 1.17zM27.876 47.675h-2.903c-.645 0-1.17-.524-1.17-1.17V24.078c0-.645.525-1.17 1.17-1.17h2.903c.645 0 1.17.525 1.17 1.17v22.429c0 .644-.525 1.17-1.17 1.17zM21.377 47.675h-2.903c-.645 0-1.17-.524-1.17-1.17V24.078c0-.645.525-1.17 1.17-1.17h2.903c.645 0 1.17.525 1.17 1.17v22.429c0 .644-.525 1.17-1.17 1.17zM93.41 47.675h-2.903c-.645 0-1.17-.524-1.17-1.17V24.078c0-.645.525-1.17 1.17-1.17h2.903c.646 0 1.17.525 1.17 1.17v22.429c0 .644-.524 1.17-1.17 1.17zM86.912 47.675h-2.903c-.645 0-1.17-.524-1.17-1.17V24.078c0-.645.525-1.17 1.17-1.17h2.903c.645 0 1.17.525 1.17 1.17v22.429c0 .644-.526 1.17-1.17 1.17z" fill="#fff" stroke-width=".7937399999999999" stroke-miterlimit="10"/><path d="M21.188 42.618a.995.995 0 01-.995.994h-.535a.995.995 0 01-.995-.994V25.342c0-.55.445-.995.995-.995h.535c.55 0 .995.445.995.995zM27.687 42.618a.995.995 0 01-.994.994h-.536a.995.995 0 01-.995-.994V25.342c0-.55.446-.995.995-.995h.536c.549 0 .994.445.994.995zM59.566 42.618a.994.994 0 01-.995.994h-.535a.994.994 0 01-.995-.994V25.342c0-.55.445-.995.995-.995h.535c.55 0 .995.445.995.995zM86.723 42.618a.995.995 0 01-.995.994h-.536a.995.995 0 01-.995-.994V25.342c0-.55.446-.995.995-.995h.536c.55 0 .995.445.995.995zM93.222 42.618a.995.995 0 01-.995.994h-.536a.995.995 0 01-.995-.994V25.342c0-.55.446-.995.995-.995h.536c.55 0 .995.445.995.995zM52.852 42.618a.995.995 0 01-.994.994h-.536a.995.995 0 01-.995-.994V25.342c0-.55.446-.995.995-.995h.536c.55 0 .994.445.994.995zM46.21 34.24c0 .55-.444.995-.994.995H32.8a.995.995 0 01-.995-.994v-7.52c0-.548.446-.994.995-.994h12.417c.55 0 .994.446.994.995zM80.188 34.24c0 .55-.445.995-.995.995H64.571a.995.995 0 01-.995-.994v-7.52c0-.548.445-.994.995-.994h14.622c.55 0 .995.446.995.995zM107.11 34.24c0 .55-.446.995-.995.995H98.48a.995.995 0 01-.995-.994v-7.52c0-.548.445-.994.995-.994h7.635c.55 0 .995.446.995.995zM109.189 45.025a.612.612 0 01-1.223 0v-2.2a.611.611 0 011.223 0zM106.006 49.332c0 .549.445.994.996.994h1.96a.995.995 0 00.995-.994v-1.377a.995.995 0 00-.994-.994h-1.961a.994.994 0 00-.996.994zM10.397 49.342c0 .55.445.994.994.994h1.325a.995.995 0 00.995-.994v-1.376a.995.995 0 00-.995-.994h-1.325a.995.995 0 00-.994.994zM13.27 45.67c0 .549-.445.994-.995.994h-.35a.995.995 0 01-.994-.995v-3.467c0-.549.445-.994.994-.994h.35c.55 0 .995.445.995.994zM15.452 24.698a.995.995 0 00-.995-.995h-.991a1.12 1.12 0 00-1.112.988l-.876 7.384.034 7.325a.999.999 0 00.999.994h1.946c.55 0 .995-.445.995-.994zM71.18 20.544c0 .55-.445.995-.995.995H46.036a.995.995 0 01-.994-.995v-1.168c0-.55.446-.995.994-.995h24.15c.549 0 .994.445.994.995z" fill="#fff" stroke-width=".7937399999999999" stroke-miterlimit="10"/><g fill="#fff" stroke-width="3" stroke-miterlimit="10"><path d="M43.666 48.605a6.21 6.21 0 11-12.42 0 6.21 6.21 0 0112.42 0z" stroke-width=".7937399999999999"/><path d="M40.848 48.605a3.392 3.392 0 11-6.784 0 3.392 3.392 0 016.784 0z" stroke-width=".7937399999999999"/><path d="M39.417 48.605a1.961 1.961 0 11-3.922-.001 1.961 1.961 0 013.922.001z" stroke-width=".7937399999999999"/></g><g fill="#fff" stroke-width="3" stroke-miterlimit="10"><path d="M80.435 48.605a6.21 6.21 0 11-12.421 0 6.21 6.21 0 0112.42 0z" stroke-width=".7937399999999999"/><path d="M77.617 48.605a3.392 3.392 0 11-6.784 0 3.392 3.392 0 016.784 0z" stroke-width=".7937399999999999"/><path d="M76.186 48.605a1.961 1.961 0 11-3.923 0 1.961 1.961 0 013.923 0z" stroke-width=".7937399999999999"/></g></g></svg>