<?xml version="1.0" encoding="utf-8"?>
<!-- Generator: Adobe Illustrator 27.5.0, SVG Export Plug-In . SVG Version: 6.00 Build 0)  -->
<svg version="1.1" xmlns="http://www.w3.org/2000/svg" xmlns:xlink="http://www.w3.org/1999/xlink" x="0px" y="0px"
	 viewBox="0 0 500 499.999" style="enable-background:new 0 0 500 499.999;" xml:space="preserve">
<g id="BACKGROUND">
	<rect x="0" y="-0.001" style="fill-rule:evenodd;clip-rule:evenodd;fill:#FFFFFF;" width="500" height="499.999"/>
</g>
<g id="OBJECTS">
	<g>
		<path d="M416.827,224.925c0.027,0,2.721,0.048,3.298,1.778c0.244,0.733,0.928,1.197,1.66,1.197c0.184,0,0.37-0.029,0.554-0.09
			c0.917-0.306,1.412-1.297,1.106-2.214c-1.099-3.292-4.677-4.171-6.618-4.171c-0.967,0-1.75,0.784-1.75,1.75
			C415.077,224.141,415.86,224.925,416.827,224.925z"/>
		<path d="M428.231,224.925c0.306,0,0.616-0.081,0.898-0.25c0.829-0.497,1.098-1.572,0.601-2.401
			c-0.772-1.287,0.138-3.509,0.518-4.186c0.476-0.838,0.184-1.904-0.654-2.382c-0.839-0.48-1.908-0.189-2.388,0.651
			c-0.255,0.446-2.436,4.454-0.478,7.718C427.057,224.622,427.637,224.925,428.231,224.925z"/>
		<path d="M328.721,116.529c3.854,17.481,19.626,30.169,37.501,30.169c2.778,0,5.575-0.306,8.312-0.91
			c10.026-2.211,18.592-8.194,24.118-16.847c5.526-8.653,7.352-18.94,5.141-28.966c-3.854-17.481-19.626-30.169-37.501-30.169
			c-2.778,0-5.575,0.306-8.313,0.91c-10.026,2.211-18.591,8.194-24.117,16.847C328.336,96.215,326.51,106.502,328.721,116.529z
			 M336.812,89.446c5.023-7.865,12.808-13.303,21.921-15.313c2.49-0.549,5.033-0.828,7.559-0.828
			c16.246,0,30.58,11.533,34.083,27.423c2.01,9.113,0.35,18.463-4.673,26.329c-5.023,7.865-12.808,13.303-21.922,15.313
			c-2.49,0.549-5.033,0.828-7.558,0.828c-16.245,0-30.579-11.533-34.083-27.423C330.129,106.662,331.789,97.312,336.812,89.446z"/>
		<path d="M356.266,65.354c0.175,0,0.349-0.019,0.518-0.056c2.035-0.448,2.833-2.908,2.756-8.491
			c-0.049-3.551-0.501-7.838-1.125-10.668c-1.229-5.577-3.908-9.042-6.99-9.042c-0.281,0-0.563,0.03-0.837,0.091
			c-1.018,0.225-2.834,1.068-3.563,4.197c-0.459,1.969-0.381,4.464,0.226,7.215C347.287,48.768,351.507,65.354,356.266,65.354z
			 M350.432,42.179c0.233-1,0.624-1.511,0.992-1.582c0.761,0,2.591,1.847,3.572,6.296c0.962,4.364,1.316,11.245,0.848,14.138
			c-1.641-2.428-4.214-8.819-5.176-13.184C350.18,45.634,350.096,43.622,350.432,42.179z"/>
		<path d="M376.247,151.15c-0.175,0-0.349,0.019-0.518,0.056c-2.035,0.448-2.833,2.908-2.755,8.491
			c0.049,3.551,0.503,7.838,1.126,10.667c1.229,5.578,3.907,9.042,6.988,9.042c0.282,0,0.564-0.031,0.838-0.091
			c1.018-0.224,2.835-1.068,3.564-4.196c0.459-1.969,0.381-4.464-0.226-7.216C385.227,167.736,381.006,151.15,376.247,151.15z
			 M382.082,174.325c-0.233,0.999-0.624,1.51-0.909,1.573c-0.028,0.006-0.056,0.009-0.085,0.009c-0.761,0-2.589-1.847-3.57-6.296
			c-0.963-4.364-1.317-11.244-0.849-14.137c1.642,2.428,4.215,8.819,5.177,13.184C382.334,170.869,382.417,172.882,382.082,174.325z
			"/>
		<path d="M310.637,79.512c3.926,2.507,12.254,6.299,15.858,6.299c1.572,0,2.331-0.67,2.692-1.235
			c2.799-4.384-12.242-14.601-12.396-14.7c-2.788-1.78-5.534-2.761-7.732-2.761c-1.854,0-3.321,0.699-4.131,1.967
			c-0.561,0.878-1.25,2.759,0.448,5.487C306.443,76.287,308.263,77.995,310.637,79.512z M307.876,70.967
			c0.139-0.217,0.592-0.352,1.182-0.352c1.517,0,3.648,0.806,5.849,2.212c3.754,2.397,8.847,6.989,10.579,9.373
			c-3.151-0.59-9.465-3.402-12.965-5.637c-1.909-1.22-3.392-2.584-4.175-3.842C307.804,71.85,307.719,71.212,307.876,70.967z"/>
		<path d="M421.878,136.991c-3.927-2.507-12.254-6.298-15.858-6.298c-1.572,0-2.332,0.671-2.692,1.235
			c-2.797,4.381,12.241,14.6,12.396,14.699c2.789,1.781,5.535,2.762,7.733,2.762c1.853,0,3.319-0.698,4.13-1.967
			c0.562-0.878,1.25-2.76-0.447-5.488C426.072,140.217,424.252,138.508,421.878,136.991z M424.638,145.537
			c-0.139,0.217-0.591,0.351-1.181,0.351c-1.517,0-3.648-0.806-5.85-2.211c-3.753-2.398-8.846-6.989-10.578-9.372
			c3.15,0.59,9.466,3.402,12.964,5.637c1.91,1.219,3.393,2.583,4.175,3.841C424.71,144.654,424.794,145.292,424.638,145.537z"/>
		<path d="M302.189,127.78c1.363,0,2.849-0.175,4.415-0.521c0.18-0.04,17.817-4.456,16.698-9.536
			c-0.426-1.934-2.772-2.759-7.843-2.759c-3.645,0-8.298,0.465-11.315,1.131c-2.751,0.606-5.047,1.584-6.642,2.828
			c-2.533,1.978-2.535,3.98-2.311,4.999C295.726,126.338,298.341,127.78,302.189,127.78z M299.656,121.683
			c1.168-0.912,3.029-1.682,5.242-2.169c2.753-0.608,7.195-1.049,10.561-1.049c1.7,0,2.819,0.105,3.54,0.224
			c-2.454,1.642-8.805,4.195-13.149,5.153c-1.319,0.291-2.551,0.439-3.662,0.439c-2.299,0-3.478-0.65-3.579-1.111
			C298.548,122.884,298.847,122.315,299.656,121.683z"/>
		<path d="M417.057,101.539c3.642,0,8.294-0.464,11.313-1.129c2.753-0.608,5.05-1.587,6.643-2.831
			c2.531-1.977,2.532-3.98,2.308-4.997c-0.532-2.416-3.148-3.857-6.997-3.857c-1.363,0-2.849,0.175-4.416,0.521
			c-0.18,0.04-17.816,4.458-16.696,9.536C409.638,100.714,411.983,101.539,417.057,101.539z M426.661,92.662
			c1.32-0.291,2.552-0.438,3.662-0.438c2.3,0,3.477,0.65,3.579,1.112c0.063,0.284-0.235,0.854-1.044,1.485
			c-1.167,0.912-3.029,1.683-5.241,2.171c-2.756,0.607-7.197,1.047-10.56,1.047c-1.701,0-2.821-0.105-3.543-0.224
			C415.968,96.173,422.317,93.62,426.661,92.662z"/>
		<path d="M341.22,144.937c-3.882,0-11.61,10.075-13.337,12.781c-1.517,2.373-2.449,4.689-2.696,6.696
			c-0.392,3.189,1.023,4.607,1.902,5.168c0.646,0.412,1.38,0.621,2.184,0.621c2.669,0,5.674-2.308,8.244-6.332
			c1.56-2.442,3.46-6.312,4.728-9.628c1.995-5.215,2.091-7.8,0.336-8.92C342.186,145.071,341.715,144.937,341.22,144.937z
			 M334.567,161.988c-2.07,3.24-4.196,4.716-5.295,4.716c-0.17,0-0.253-0.041-0.301-0.071c-0.246-0.157-0.437-0.771-0.311-1.79
			c0.182-1.471,0.953-3.332,2.172-5.241c2.423-3.795,7.089-8.959,9.403-10.631C339.695,151.831,336.983,158.206,334.567,161.988z"/>
		<path d="M389.933,71.181c0.395,0.252,0.865,0.385,1.36,0.385c3.88,0,11.61-10.075,13.339-12.781
			c1.517-2.376,2.449-4.691,2.696-6.697c0.393-3.188-1.023-4.605-1.902-5.166c-0.646-0.413-1.382-0.622-2.185-0.622
			c-2.67,0-5.675,2.308-8.244,6.332C394.897,52.787,385.553,68.384,389.933,71.181z M397.946,54.515
			c2.068-3.239,4.194-4.715,5.294-4.715c0.17,0,0.254,0.041,0.303,0.072c0.245,0.157,0.436,0.77,0.311,1.788
			c-0.181,1.469-0.952,3.331-2.171,5.241c-2.406,3.767-7.021,8.881-9.397,10.596C392.842,64.62,395.542,58.282,397.946,54.515z"/>
		<path d="M486.888,416.109c-0.045-8.959-0.105-21.228-9.048-24.053c-3.945-1.246-5.88-2.946-7.928-4.746
			c-0.849-0.746-1.707-1.498-2.696-2.226c0.271-3.646,1.679-19.075,6.756-31.345c5.802-14.021,12.158-23.386,12.222-23.479
			c0.434-0.634,0.403-1.477-0.075-2.078c-0.479-0.601-1.291-0.821-2.008-0.54c-0.939,0.369-20.652,8.232-30.453,22.406
			c0.061-5.571,0.544-13.903,2.539-21.314c3.36-12.484,13.083-28.126,13.181-28.283c0.388-0.621,0.348-1.417-0.1-1.997
			c-0.447-0.58-1.208-0.82-1.906-0.601c-0.67,0.209-16.492,5.247-24.668,15.979c-4.021,5.278-7.268,11.832-9.531,17.142
			c-0.194-5.19-0.884-11.707-2.769-18.066c-3.789-12.791-13.102-23.605-14.578-25.266c6.921-11.393,15.147-25.104,18.039-34.192
			c3.275-10.295,6.537-35.758-4.29-48.751c-10.941-13.131-38.724-3.723-60.105,6.482c-14.724,7.027-21.452,19.461-25.777,30.572
			c-1.798-4.244-6.005-14.27-9.018-22.179c-1.553-4.077-16.569-40.38-64.948-59.507c-41.301-16.327-90.509-1.858-104.491,4.497
			c-11.071,5.032-33.118,24.908-41.386,37.311c-7.862,11.793-20.762,35.452-27.433,51.874c-3.246,7.99-4.484,20.318-5.681,32.239
			c-0.276,2.747-0.554,5.517-0.857,8.172c-0.038,0.166-0.08,0.336-0.116,0.5c-3.257-1.343-10.079-4.561-15.277-9.759
			c-6.88-6.88-7.92-14.281-7.929-14.35c-0.099-0.792-0.721-1.417-1.513-1.518c-0.79-0.097-1.552,0.345-1.849,1.086
			c-0.084,0.21-8.04,21.001,14.996,37.416c-4.232,4.071-7.138,9.789-4.607,16.872c1.641,4.593,5.764,9.687,11.572,14.593
			c-0.769,2.308-2.303,8.332-0.192,15.088c1.845,5.903,2.336,10.482,1.572,14.781c-0.081-0.106-0.171-0.206-0.278-0.294
			c-13.265-10.897-22.126-47.763-22.214-48.134c-0.186-0.786-0.885-1.342-1.692-1.347c-0.827,0.003-1.513,0.543-1.708,1.326
			c-0.145,0.58-3.525,14.388-1.527,31.368c1.025,8.717,2.436,15.321,3.58,19.721c-2.523-2.6-6.217-6.599-11.424-12.639
			c-12.021-13.944-21.875-43.724-21.973-44.023c-0.229-0.699-0.872-1.18-1.608-1.204c-0.739-0.022-1.407,0.415-1.681,1.099
			c-4.154,10.386,2.956,40.994,6.056,53.143c-7.009-3.777-14.707-0.914-18.321,1.599c-0.534,0.371-0.817,1.008-0.736,1.653
			c0.08,0.645,0.512,1.193,1.12,1.422c0.076,0.029,7.664,2.927,13.26,8.523c5.568,5.568,9.44,17.987,9.481,18.117
			c-2.559,1.942-4.659,4.5-5.485,8.009c-1.65,7.013,5.545,10.241,10.799,12.597c2.013,0.903,4.295,1.927,4.85,2.703
			c3.009,4.212,5.787,4.717,14.114,5.679c1.242,0.144,2.426,0.207,3.558,0.207c5.444,0,9.663-1.479,13.172-2.71
			c3.682-1.292,6.59-2.309,9.818-1.505c6.939,1.736,16.64,3.175,23.048,2.008c2.913-0.528,6.174-0.452,8.447-0.288
			c-0.226,0.102-0.451,0.203-0.676,0.304c-3.448,1.543-7.355,3.291-7.355,7.188c0,4.599,0.925,19.779,12.826,22.046
			c5.625,1.071,14.639,0.376,24.182-0.359c8.346-0.645,16.977-1.309,22.532-0.615c4.96,0.62,11.547,2.196,18.52,3.864
			c9.406,2.251,19.132,4.578,25.326,4.578c4.743,0,10.749-1.404,17.108-2.892c7.645-1.787,15.549-3.636,20.191-2.605
			c6.878,1.53,12.312-1.89,16.279-4.386c1.497-0.942,2.911-1.832,3.861-2.069c0.951-0.241,4.881,0.689,8.678,1.586
			c9.086,2.146,24.306,5.72,42.491,5.407c27.686-0.504,42.442-2.19,49.338-5.639c1.583-0.792,2.967-1.581,4.305-2.345
			c3.637-2.074,6.509-3.712,10.841-3.87c4.732-0.174,9.832,0.056,13.931,0.242c2.482,0.111,4.625,0.208,6.333,0.208
			c4.609,0,15.538-1.564,26.106-3.078c9.072-1.299,18.453-2.643,23.065-2.873c8.07-0.404,21.061-5.299,26.8-11.676
			c2.211-2.458,3.26-4.988,3.119-7.522C486.905,419.832,486.896,418.023,486.888,416.109z M429.463,340.992
			c-0.092,0.894,0.509,1.712,1.389,1.894c0.881,0.182,1.755-0.335,2.022-1.191c0.049-0.156,4.964-15.7,12.612-25.739
			c4.919-6.456,13.195-10.776,18.344-12.995c-3.223,5.67-8.596,15.886-11.013,24.866c-3.506,13.02-2.578,28.188-2.536,28.828
			c0.052,0.808,0.651,1.475,1.449,1.612c0.798,0.137,1.586-0.29,1.905-1.035c5.033-11.744,18.912-20.079,26.549-23.929
			c-2.453,4.192-6.017,10.809-9.447,19.1c-4.725,11.418-6.367,25.042-6.872,30.677c-1.594-0.756-3.53-1.432-6.012-1.971
			c-3.464-0.753-6.156-1.28-8.24-1.65c-0.647-1.95-3.997-12.09-5.317-16.932c-1.599-5.86-8.595-10.349-15.229-13.966
			c-4.985-2.72-14.331-1.754-17.45-1.333c-1.188-1.558-2.271-3.407-3.227-5.261c3.907-16.113,3.369-43.233,3.259-47.428
			c0.722-1.201,1.483-2.457,2.265-3.745c2.526,3.003,9.98,12.468,13.134,23.113C430.864,326.785,429.478,340.852,429.463,340.992z
			 M399.65,377.244c-0.117-2.206,0.092-6.238,2.095-7.239c1.203-0.591,3.939,2.478,5.891,5.882
			C405.185,376.513,402.488,376.973,399.65,377.244z M411.625,374.634c0.091-3.362,0.834-8.376,3.077-9.623
			c0.646-0.358,0.958-0.221,1.109-0.155c1.217,0.536,2.381,3.288,2.783,4.976c0.009,0.037,0.025,0.068,0.036,0.104
			c-0.315,0.463-0.705,0.918-1.184,1.36C416.049,372.589,414.039,373.708,411.625,374.634z M417.228,361.656
			c-0.938-0.414-2.433-0.7-4.225,0.296c-2.888,1.604-4.089,5.463-4.574,8.813c-0.045-0.059-0.091-0.118-0.137-0.177
			c-3.596-4.624-6.397-4.571-8.113-3.713c-4.077,2.039-4.177,8.051-4.024,10.606c-3.237,0.127-6.577,0.019-9.862-0.368
			c-11.208-1.318-13.335-6.487-15.587-11.959l-0.354-0.858c-1.484-3.561-6.302-5.142-11.881-6.973
			c-5.353-1.756-11.405-3.748-14.501-7.652c10.74-2.579,24.74-11.913,24.024-17.641c-0.01-0.083-0.033-0.16-0.055-0.238
			c4.76-1.912,8.952-3.841,12.014-5.428c2.925-1.517,5.758-3.288,8.498-5.297c1.889,1.359,10.491,7.826,13.372,14.821l0.073,0.176
			c0.672,1.631,1.619,3.924,2.798,6.333c-0.114,0.75,0.265,1.482,0.929,1.82c1.14,2.14,2.451,4.267,3.916,6.011
			c1.707,2.033,3.295,3.312,4.696,4.44c2.56,2.06,4.281,3.458,4.989,8.536C418.657,362.553,417.998,361.997,417.228,361.656z
			 M343.365,372.521c-1.369,3.279-1.83,4.384-4.384,5.15c-3.857,1.157-12.239,5.131-15.644,9.631
			c-1.363-3.829-3.431-6.997-5.52-8.788c-0.845-0.724-1.054-5.334-1.206-8.7c-0.042-0.917-0.086-1.88-0.141-2.873
			c4.721-1.239,23.471-6.406,28.679-11.548c2.986,2.005,6.581,3.365,10.067,4.539c-3.229,1.021-7.039,2.878-8.841,6.182
			C344.942,368.744,344.068,370.838,343.365,372.521z M321.378,397.575c-0.102,1.526-1.327,2.927-3.441,4.142
			c0.31-3.229,1.375-7.725,2.984-10.024C321.322,393.605,321.509,395.605,321.378,397.575z M175.277,401.44
			c-0.94-0.216-1.88,0.37-2.099,1.312c-0.397,1.719-1.668,6.581-2.77,8.417c-0.169,0.282-0.243,0.591-0.243,0.897
			c-0.245,0.178-0.483,0.372-0.732,0.542c-0.839,0.574-1.798,1.071-2.841,1.503c0.733-2.477,1.613-5.969,1.613-8.487
			c0-1.157-0.378-2.318-1.026-3.501c1.487-3.156,2.439-7.849,2.479-8.054c0.19-0.948-0.425-1.87-1.372-2.059
			c-0.944-0.189-1.87,0.425-2.059,1.372c-0.007,0.037-0.579,2.855-1.468,5.397c-1.3-1.504-2.866-3.062-4.521-4.708
			c-1.455-1.446-2.96-2.941-4.391-4.503c-5.727-6.247-14.815-8.825-15.2-8.932c-0.23-0.064-0.462-0.078-0.686-0.05
			c-0.384-1.182-1.028-2.323-1.924-3.369c-0.579-0.676-0.953-2.246-1.177-4.256c1.64-1.897,7.547-3.1,11.815-3.268
			c0.236-0.009,0.459-0.066,0.661-0.159c7.954,1.805,18.869,3.357,32.518,3.135c6.732-0.112,13.155-0.072,19.123,0.032
			c0.196,0.179,0.43,0.321,0.702,0.398c5.963,1.677,16.279,5.192,18.572,7.485c2.678,2.678,6.057,3.319,9.037,3.885
			c1.43,0.272,2.78,0.528,3.981,0.978c4.404,1.651,13.28,6.641,15.33,8.958c-0.629,0.097-1.26,0.196-1.893,0.299
			c-0.695,0.113-1.264,0.205-1.668,0.263c-3.163,0.452-14.004,0.979-19.934,0.484c-2.543-0.212-5.036-0.247-7.922-0.289
			c-4.07-0.058-9.135-0.13-16.883-0.704c-10.151-0.752-16.722,5.462-23.067,11.473c-0.573,0.543-1.138,1.075-1.701,1.601
			c0.579-1.946,0.979-3.65,1.059-3.994C176.806,402.597,176.219,401.657,175.277,401.44z M105.133,391.933
			c-0.261-1.792-0.507-5.732,0.841-7.502c0.407-0.535,0.909-0.8,1.629-0.86c2.87-0.231,5.978,4.998,7.713,8.958
			C111.943,392.582,108.45,392.396,105.133,391.933z M119.588,392.326c0.07-3.652,0.902-8.127,2.861-8.861
			c1.547-0.579,2.805-0.563,3.842,0.047c2.108,1.243,3.047,4.754,3.231,5.998c0.047,0.33,0.188,0.624,0.387,0.865
			C127.265,391.332,123.628,392.007,119.588,392.326z M132.993,388.815c-0.024-1.843,0.275-6.183,1.978-7.965
			c0.29-0.304,0.609-0.499,0.965-0.617c0.615,0.93,1.113,2.165,0.889,3.598C136.55,385.583,135.223,387.294,132.993,388.815z
			 M139.039,361.259c3.767,0.319,7.678,0.507,11.683,0.581c0.474,1.101,1.552,3.145,3.597,5.12
			c-9.131-1.716-15.121-3.96-17.564-4.986c0.019-0.319,0.04-0.632,0.062-0.943C137.557,361.115,138.298,361.196,139.039,361.259z
			 M231.382,352.504c0.633,2.842,2.838,10.311,9.474,17.175c-1.631,0.138-3.484,0.215-5.532,0.248
			c-0.129-0.188-0.298-0.354-0.502-0.484c-3.683-2.344-7.034-11.389-8.367-15.794C227.983,353.308,229.632,352.925,231.382,352.504z
			 M223.02,354.386c0.83,2.8,3.451,10.89,7.267,15.545c-3.952-0.043-8.41-0.176-13.28-0.323c-1.428-0.043-2.922-0.087-4.449-0.131
			c-0.012-0.008-0.022-0.02-0.035-0.028c-5.83-3.772-7.486-9.283-7.949-11.744C211.244,356.678,217.485,355.543,223.02,354.386z
			 M201.114,358.225c0.438,2.382,1.783,7.023,5.776,11.102c-6.255-0.152-13.122-0.261-20.434-0.211
			c-0.08-0.071-0.166-0.137-0.26-0.194c-3.012-1.807-5.278-5.854-6.404-8.215C187.09,360.07,194.29,359.213,201.114,358.225z
			 M176.082,361.008c0.708,1.649,2.45,5.281,5.07,8.166c-5.707,0.07-10.926-0.185-15.634-0.64c-0.225-0.169-0.488-0.292-0.786-0.337
			c-5.831-0.875-8.746-4.176-10.057-6.32c0.039,0,0.077,0.001,0.116,0.001C161.754,361.878,168.939,361.553,176.082,361.008z
			 M136.607,365.707c1.106,0.438,2.554,0.969,4.326,1.541c-1.513,0.382-3.025,0.9-4.322,1.603
			C136.589,367.824,136.587,366.768,136.607,365.707z M252.3,393.873c-1.807-4.594-16.14-11.078-17.803-11.702
			c-1.482-0.556-3.045-0.853-4.557-1.139c-2.726-0.517-5.3-1.006-7.215-2.921c-1.74-1.741-5.944-3.6-10.073-5.128
			c1.458,0.042,2.883,0.085,4.249,0.126c6.117,0.185,11.437,0.345,15.957,0.345c4.653,0,8.448-0.173,11.396-0.663
			c1.095,0.889,2.274,1.753,3.556,2.576c1.956,1.258,3.726,2.378,5.324,3.39c9.806,6.207,12.385,7.982,12.719,11.657
			c0.102,1.119,0.279,2.177,0.494,3.206C262.939,392.817,257.859,393.137,252.3,393.873z M269.338,390.096
			c-0.504-5.545-4.27-7.929-14.332-14.298c-1.592-1.008-3.355-2.124-5.304-3.376c-1.316-0.846-2.514-1.741-3.614-2.666
			c-0.108-0.121-0.229-0.227-0.366-0.314c-7.898-6.823-10.336-15.151-10.932-17.771c17.674-4.404,42.902-11.773,55.782-16.685
			c1.66,0.641,11.322,4.663,17.741,13.647c4.094,5.732,4.486,14.386,4.801,21.339c0.25,5.509,0.43,9.489,2.424,11.199
			c1.569,1.345,3.132,3.766,4.252,6.678c-2.234,1.698-3.568,5.033-4.345,7.997c-1.602-2.596-3.977-5.01-7.081-4.326
			c-3.387,0.753-4.663,5.288-5.121,9.27c-2.567-3.488-6.41-7.209-10.466-5.735c-1.557,0.566-2.75,1.663-3.452,3.173
			c-1.203,2.591-0.774,5.929-0.255,8.148c-0.366-0.007-0.73-0.013-1.099-0.023C276.559,406.027,270.289,400.558,269.338,390.096z
			 M306.59,327.347c0.869,2.608,8.112,8.234,19.451,12.014c2.087,0.696,4.558,1.003,7.288,1.003c9.049,0,20.93-3.379,31.042-7.184
			c-1.32,3.098-11.152,10.91-21.786,13.222c-7.925,1.721-25.384-2.198-33.717-9.061c-6.651-5.477-5.212-8.402-5.126-8.561
			c0.189-0.273,0.286-0.584,0.303-0.896c0.815-0.505,1.662-1.037,2.534-1.594C306.476,326.625,306.471,326.991,306.59,327.347z
			 M300.041,330.338c0.195,2.306,1.639,5.62,6.601,9.706c7.106,5.852,21.332,10.273,31.459,10.273c0.925,0,1.813-0.039,2.661-0.115
			c-0.112,0.49-0.022,1.023,0.308,1.453c0.416,0.544,0.875,1.05,1.359,1.53c-3.684,3.365-17.164,7.799-26.21,10.204
			c-0.512-5.774-1.683-12.066-5.057-16.789c-5.131-7.184-11.984-11.395-16.109-13.449c1.163-0.525,2.1-1.003,2.741-1.414
			C298.428,331.328,299.188,330.859,300.041,330.338z M292.69,406.391c-0.496-1.815-1.037-4.86-0.189-6.689
			c0.314-0.675,0.781-1.106,1.473-1.358c2.382-0.867,6.081,3.523,8.381,7.475C299.36,406.152,296.111,406.348,292.69,406.391z
			 M306.505,405.245c-0.003-4.834,0.984-9.944,2.62-10.308c2.036-0.451,4.515,4.497,5.389,7.249
			c0.111,0.349,0.335,0.628,0.608,0.839C312.777,403.928,309.862,404.682,306.505,405.245z M408.221,299.946
			c0.041,8.502-0.204,24.614-2.303,36.675c-0.293-0.692-0.559-1.334-0.787-1.89l-0.072-0.176
			c-2.937-7.133-10.652-13.418-13.729-15.72C397.487,313.808,403.135,307.498,408.221,299.946z M370.977,214.342
			c16.586-7.917,45.906-19.404,55.908-7.4c5.274,6.329,6.92,16.839,6.6,26.855c-0.102,0.095-0.197,0.2-0.276,0.322
			c-5.751,8.847-18.986,7.17-19.119,7.152c-0.958-0.13-1.837,0.539-1.97,1.495c-0.132,0.957,0.537,1.841,1.494,1.973
			c0.174,0.025,1.433,0.188,3.312,0.188c4.059,0,11.006-0.771,16.157-5.35c-0.512,4.815-1.43,9.283-2.554,12.814
			c-2.889,9.079-11.589,23.392-18.579,34.893c-1.25,2.057-2.451,4.033-3.564,5.888c-8.383,13.973-18.491,24.095-30.044,30.085
			c-14.691,7.617-40.655,16.293-51.194,12.784c-11.239-3.747-16.678-8.73-17.252-9.844c-0.23-0.636-0.797-1.054-1.43-1.134
			c8.836-5.826,19.208-14.007,21.321-23.161c0.048-0.209,0.051-0.416,0.025-0.617c0.144-0.713,1.709-8.42,3.901-17.46
			c0.167-0.333,0.317-0.663,0.451-0.989c0.145-0.354,0.162-0.744,0.064-1.111c2.032-8.195,4.508-17.087,6.869-22.668
			c1.055-2.493,2.03-5.311,3.063-8.295C348.522,238.156,353.952,222.468,370.977,214.342z M93.336,294.728
			c2.57-10.995,10.898-26.896,13.119-31.022c4.795,4.754,16.393,12.515,24.781,14.764c-3.381,7.485-14.812,33.653-15.575,46.883
			c-3.778-1.805-7.102-3.568-9.841-5.021l-1.015-0.539c-6.508-3.445-12.176-8.483-14.177-10.354
			C91.867,305.821,92.655,300.668,93.336,294.728z M104.54,256.707c-2.033-2.451-2.822-5.206-2.832-5.242
			c-0.059-0.214-0.159-0.404-0.283-0.573c2.454-5.616,5.496-11.887,8.714-18.111C107.734,241.828,105.388,251.295,104.54,256.707z
			 M135.056,278.529c6.079,1.98,25.606,7.495,49.672,5.627c-2.893,8.403-11.621,35.084-12.069,52.202
			c-10.401,0.055-20.309-0.386-27.275-1.381c-9.683-1.383-18.703-4.642-26.262-8.026
			C118.889,314.384,132.961,283.109,135.056,278.529z M152.47,218.721c0.026-0.016,0.057-0.022,0.083-0.039
			c1.36-0.907,22.052-19.181,29.849-26.077c1.515,5.177,4.917,16.542,7.218,22.296c2.576,6.44,6.673,15.561,7.716,17.87
			l-11.465,47.773c-24.185,2.158-44.39-3.621-49.984-5.435L152.47,218.721z M247.614,206.666
			c1.701,4.172,7.522,18.384,10.463,24.686c2.971,6.366,8.209,19.128,9.556,22.425l-15.146,26.032l-23.729,10.441l-39.369-9.374
			l11.293-47.054c5.299-2.484,35.353-16.717,43.282-23.714C244.946,209.243,246.184,208.067,247.614,206.666z M188.407,284.241
			l38.657,9.204c-0.383,5.217-1.493,23.021-0.022,37.18c-5.897,1.147-11.189,2.13-15.287,2.875
			c-9.018,1.64-22.477,2.616-35.59,2.823C176.659,319.101,186.084,290.936,188.407,284.241z M230.488,329.95
			c-1.438-14.257-0.239-32.241,0.098-36.681l22.21-9.772c3.023,7.067,13.498,31.103,18.673,37.221
			C259.298,324.018,243.717,327.337,230.488,329.95z M275.158,319.689c-0.109-0.267-0.278-0.514-0.52-0.707
			c-3.293-2.634-13.227-24.158-18.972-37.677l14.898-25.606c3.498,0.124,15.052,0.541,23.721,0.954
			c8.872,0.422,21.152,1.583,24.383,1.897c1.322,1.955,5.26,7.907,7.324,12.448c1.896,4.169,3.81,8.974,4.572,10.915
			c-0.058,0.235-0.113,0.466-0.17,0.7c-3.948,7.347-18.677,18.813-40.874,31.762C286.682,316.031,281.55,317.845,275.158,319.689z
			 M342.11,246.018c-0.439,1.232-0.856,2.436-1.258,3.599c-1.013,2.927-1.97,5.691-2.979,8.077
			c-2.001,4.73-4.047,11.601-5.85,18.469c-0.844-2.048-1.845-4.414-2.844-6.612c-2.16-4.751-6.088-10.711-7.536-12.852
			c3.908-8.98,10.073-21.967,13.461-26.509c3.165,7.804,6.201,14.894,6.243,14.993C341.506,245.555,341.782,245.836,342.11,246.018z
			 M331.404,220.823c0.696,1.827,1.456,3.767,2.234,5.721c-4.281,4.193-12.739,23.123-15.082,28.479
			c-3.834-0.369-15.534-1.458-24.104-1.866c-8.619-0.411-20.078-0.825-23.68-0.953c-1.502-3.674-6.592-16.052-9.522-22.333
			c-3.412-7.311-10.797-25.516-10.872-25.698c-0.024-0.059-0.058-0.11-0.087-0.165c1.861-1.866,3.918-3.956,6.114-6.188
			c8.757-8.902,24.854-25.265,28.881-26.383C312.421,187.044,326.839,208.841,331.404,220.823z M268.439,163.325
			c4.705,1.86,9.122,3.92,13.265,6.127c-5.688,3.643-15.41,13.324-27.795,25.914c-5.198,5.284-9.687,9.847-12.261,12.119
			c-7.132,6.293-34.65,19.483-41.607,22.77c-1.487-3.311-4.921-11.027-7.172-16.654c-2.529-6.322-6.58-20.144-7.624-23.748
			l26.695-33.004c0.017-0.021,0.027-0.044,0.043-0.066C229.702,155.061,249.897,155.994,268.439,163.325z M166.684,167.753
			c6.746-3.067,21.905-8.068,40.362-10.417l-25.002,30.912c-10.59,9.376-26.024,22.974-30.341,26.628
			c-2.16-3.46-7.488-15.065-12.099-25.907C148.876,179.78,160.046,170.77,166.684,167.753z M126.761,203.818
			c2.368-3.551,5.994-7.81,10.184-12.156c7.206,16.885,10.581,23.222,12.29,25.655l-17.002,57.805
			c-9.482-2.42-23.409-12.885-24.581-15.268c-0.231-2.637,4.582-21.895,9.422-39.182c0.077-0.273,0.077-0.548,0.025-0.809
			C120.646,213.547,124.047,207.889,126.761,203.818z M99.538,255.387c0.871,1.733,2.276,3.898,4.394,5.63
			c-0.377,0.679-5.014,9.085-9.009,18.487C95.9,270.5,97.175,261.405,99.538,255.387z M80.692,305.03
			c-13.823-9.616-15.837-20.572-15.462-27.295c1.323,2.858,3.435,6.296,6.78,9.642c6.24,6.24,14.352,9.746,17.357,10.901
			c-0.14,1.038-0.288,2.039-0.442,3.001c-0.302-0.055-0.62-0.037-0.928,0.08c-2.094,0.792-4.647,2.1-7.066,3.876
			C80.859,305.162,80.781,305.092,80.692,305.03z M76.879,323.231c-3.74-10.472,7.753-16.559,11.342-18.169
			c-0.639,2.909-1.406,5.116-2.377,6.168c-0.655,0.71-0.611,1.817,0.099,2.473c0.336,0.311,0.762,0.464,1.187,0.464
			c0.471,0,0.941-0.189,1.286-0.563c0.228-0.247,0.444-0.53,0.652-0.839c2.596,2.358,7.915,6.849,14.1,10.123l1.012,0.536
			c8.875,4.71,23.729,12.593,40.71,15.019c6.703,0.958,16.076,1.413,26.021,1.413c14.902-0.001,31.085-1.023,41.47-2.911
			c24.631-4.478,67.634-12.972,78.903-19.545c13.115-7.651,28.656-17.681,37.199-26.608c-1.233,5.486-2.03,9.444-2.117,9.88
			c-0.037,0.183-0.035,0.364-0.015,0.54c-2.509,10.515-18.545,20.294-27.175,25.556c-1.278,0.779-2.391,1.458-3.274,2.026
			c-6.286,4.042-49.323,16.858-70.822,21.578c-22.241,4.882-58.041,9.753-85.744,7.402c-1.172-0.099-2.347-0.237-3.524-0.393
			c-0.136-0.049-0.277-0.087-0.428-0.102c-0.1-0.009-0.196-0.004-0.292,0.003C108.546,353.53,81.482,336.12,76.879,323.231z
			 M133.337,360.572c-0.033,0.452-0.067,0.956-0.1,1.511c-0.025,0.042-0.056,0.079-0.078,0.124c-0.251,0.504-0.23,1.067-0.004,1.538
			c-0.104,2.535-0.128,5.613,0.124,8.438c-0.114,0.279-0.21,0.567-0.271,0.872c-0.13,0.649,0.123,1.28,0.596,1.678
			c0.152,0.881,0.343,1.704,0.582,2.435c-0.64,0.304-1.229,0.723-1.747,1.265c-1.039,1.088-1.716,2.546-2.155,4.045
			c-0.6-0.763-1.326-1.453-2.201-1.972c-1.983-1.175-4.291-1.282-6.863-0.318c-2.713,1.017-4.011,4.064-4.62,7.08
			c-2.13-3.691-5.315-7.513-9.289-7.186c-1.697,0.142-3.124,0.914-4.126,2.233c-1.942,2.557-1.887,6.638-1.655,8.986
			c-1.551-0.333-3.032-0.734-4.405-1.212c-7.36-2.56-8.74-8.313-8.62-12.644c0.194-0.249,0.329-0.549,0.365-0.886
			c0.04-0.375-0.044-0.733-0.215-1.039c0.183-1.429,0.479-2.55,0.647-3.108c1.712-5.708,1.405-11.682-0.998-19.369
			c-1.496-4.786-0.816-9.224-0.188-11.678C99.634,350.144,116.294,357.928,133.337,360.572z M62.591,351.378
			c-1.034-8.79-0.543-16.81,0.135-22.359c3.443,11.82,10.957,33.756,21.31,42.26c0.55,0.452,1.292,0.51,1.89,0.212
			c-0.285,0.962-0.514,1.964-0.677,2.99c-3.615-0.181-11.221-0.18-17.284,2.376c-0.013-0.042-0.01-0.085-0.026-0.127
			C67.904,376.643,64.52,367.768,62.591,351.378z M29.864,378.605c-3.738-3.738-8.17-6.332-11.144-7.819
			c3.594-1.487,9.805-2.746,15.082,2.823c0.553,0.583,1.434,0.715,2.132,0.32c0.7-0.396,1.04-1.217,0.825-1.992
			c-2.862-10.304-8.962-35.935-8.518-49.606c3.64,9.758,11.288,28.275,20.38,38.823c10.55,12.237,15.078,16.314,16.289,17.329
			c-1.361,0.903-2.563,1.995-3.502,3.326c-5.807,8.226-7.609,9.501-11.676,11.309c-0.71,0.315-1.615,0.652-2.663,1.042
			c-2.14,0.796-4.704,1.756-7.15,3.089C38.873,394.125,35.177,383.918,29.864,378.605z M122.597,422.734
			c-0.271-0.042-6.577-0.985-12.186-0.039c-5.539-0.533-8.184-8.54-8.227-8.675c-0.292-0.921-1.274-1.434-2.195-1.141
			c-0.922,0.291-1.433,1.274-1.142,2.196c0.09,0.284,1.554,4.79,4.847,7.988c-4.456-0.165-9.839-0.954-15.148-2.282
			c-4.245-1.057-7.927,0.23-11.826,1.598c-4.102,1.439-8.753,3.067-15.17,2.329c-8.362-0.966-9.67-1.441-11.667-4.237
			c-1.105-1.547-3.496-2.619-6.265-3.861c-5.56-2.493-9.74-4.711-8.824-8.602c1.431-6.081,8.691-8.781,13.495-10.568
			c1.102-0.41,2.055-0.764,2.864-1.124c4.928-2.19,7.116-3.991,13.114-12.488c4.214-5.97,16.016-6.063,20.71-5.847
			c0.018,6.232,2.85,12.58,10.999,15.414c5.052,1.757,11.782,2.608,18.327,2.608c1.105,0,2.204-0.026,3.29-0.075
			c0.092,0.015,0.181,0.043,0.275,0.043c0.112,0,0.227-0.011,0.341-0.034c0.058-0.012,0.111-0.032,0.167-0.049
			c6.522-0.362,12.446-1.596,15.779-3.647c4.477-2.755,5.803-5.799,6.127-7.868c0.009-0.06,0.009-0.121,0.018-0.181
			c1.989,0.646,8.692,3.078,12.967,7.741c1.486,1.622,3.02,3.146,4.504,4.621c3.409,3.389,6.935,6.894,6.935,9.07
			c0,3.008-1.626,8.098-2.187,9.764c-9.983,2.352-23.463,0.913-23.635,0.893c-0.123-0.014-0.246-0.016-0.367-0.002
			c-1.099,0.109-10.835,1.217-14.173,6.224c-0.189,0.284-0.438,0.549-0.713,0.804C123.371,423.011,123.016,422.798,122.597,422.734z
			 M481.271,426.573c-5.016,5.574-17.005,10.152-24.374,10.52c-4.772,0.239-13.813,1.534-23.385,2.904
			c-10.447,1.496-21.251,3.043-25.61,3.043c-1.629,0-3.735-0.095-6.175-0.205c-4.161-0.188-9.337-0.422-14.216-0.243
			c-5.191,0.189-8.554,2.107-12.447,4.328c-1.297,0.74-2.639,1.505-4.136,2.254c-6.314,3.157-21.067,4.783-47.836,5.27
			c-17.751,0.334-32.696-3.206-41.622-5.313c-5.93-1.4-8.622-2.002-10.332-1.575c-1.492,0.373-3.06,1.359-4.876,2.502
			c-3.645,2.295-8.18,5.15-13.656,3.933c-5.421-1.208-13.721,0.735-21.748,2.612c-5.886,1.377-11.973,2.8-16.311,2.8
			c-1.44,0-3.113-0.142-4.955-0.388c0.049-0.089,0.108-0.17,0.143-0.269c0.315-0.904-0.176-1.9-1.076-2.228
			c-1.191-0.433-5.416-4.068-5.749-5.345c-0.033-0.938-0.803-1.688-1.749-1.688c-0.966,0-1.75,0.783-1.75,1.75
			c0,2.226,3.082,5.197,5.532,7.015c-4.606-0.866-9.804-2.109-14.907-3.33c-7.07-1.692-13.748-3.29-18.9-3.934
			c-5.905-0.739-14.715-0.06-23.235,0.598c-8.894,0.686-18.09,1.395-23.258,0.412c-9.008-1.717-9.98-13.585-9.98-18.608
			c0-1.515,2.092-2.565,5.284-3.992c2.81-1.257,5.715-2.557,7.312-4.953c2.011-3.018,8.768-4.366,11.434-4.664
			c2.383,0.249,23.245,2.2,32.719-4.282c2.927-2.003,5.622-4.556,8.228-7.024c6.06-5.741,11.787-11.161,20.401-10.524
			c7.852,0.582,12.975,0.655,17.092,0.714c2.938,0.042,5.259,0.075,7.681,0.277c6.265,0.522,17.339-0.024,20.72-0.507
			c0.42-0.06,1.01-0.155,1.732-0.272c11.199-1.812,17.852-1.999,19.777-0.556c0.192,0.144,0.404,0.242,0.623,0.297
			c3.163,7.475,10.108,11.663,20.209,11.951c1.131,0.032,2.264,0.048,3.394,0.048c16.833,0,33.038-3.628,33.602-12.093
			c0.127-1.903,0.01-3.789-0.28-5.607c0.413-0.277,0.709-0.724,0.768-1.257c0.345-3.104,9.231-8.301,14.629-9.92
			c1.276-0.383,2.251-0.872,3.034-1.469c0.119,0.03,0.243,0.05,0.371,0.054c3.961,0.132,14.958,1.112,18.231,4.021
			c1.276,1.134,2.162,2.232,3.02,3.293c2.03,2.514,3.947,4.889,9.698,6.039c6.671,1.334,8.83,3.832,11.145,8.924
			c1.997,4.394,4.91,9.364,7.037,12.994c0.554,0.945,1.053,1.798,1.466,2.52c0.323,0.565,0.914,0.882,1.521,0.882
			c0.294,0,0.593-0.074,0.867-0.23c0.839-0.479,1.131-1.549,0.651-2.388c-0.419-0.732-0.924-1.595-1.485-2.553
			c-2.088-3.563-4.948-8.443-6.87-12.672c-2.712-5.967-5.567-9.292-13.645-10.907c-4.51-0.902-5.764-2.455-7.662-4.806
			c-0.902-1.118-1.926-2.385-3.417-3.711c-3.9-3.466-13.921-4.503-18.384-4.797c0.348-0.715,0.675-1.496,1.031-2.348
			c0.671-1.608,1.507-3.609,2.854-6.079c2.069-3.793,9.025-5.287,11.53-5.542c0.206-0.021,0.396-0.083,0.573-0.167
			c2.738,1.026,4.983,2.157,5.569,3.561l0.349,0.844c2.42,5.88,5.163,12.544,18.414,14.103c2.587,0.305,5.191,0.451,7.759,0.451
			c11.036,0,21.346-2.704,26.181-7.173c2.2-2.034,3.311-4.448,3.215-6.981c-0.364-9.449-2.748-11.834-6.608-14.942
			c-0.599-0.482-1.208-0.976-1.831-1.529c4.056-0.352,9.803-0.413,12.793,1.217c5.637,3.074,12.268,7.195,13.527,11.815
			c1.125,4.122,3.6,11.736,4.803,15.393c-1.752-0.235-2.474-0.251-2.618-0.251c-0.962,0-1.736,0.776-1.744,1.737
			c-0.007,0.961,0.77,1.748,1.73,1.763c0.03,0,3.132,0.072,14.02,2.439c5.759,1.252,8.059,3.272,10.492,5.412
			c2.23,1.96,4.536,3.986,9.184,5.455c6.51,2.055,6.56,12.411,6.603,20.731c0.01,1.96,0.019,3.812,0.11,5.46
			C483.585,423.156,482.836,424.832,481.271,426.573z"/>
		<path d="M121.486,414.422c-1.52-0.349-2.77-3.617-3.136-5.717c-0.163-0.952-1.066-1.595-2.02-1.429
			c-0.953,0.163-1.593,1.067-1.43,2.02c0.131,0.768,1.411,7.532,5.804,8.539c0.132,0.03,0.263,0.044,0.393,0.044
			c0.798,0,1.519-0.549,1.704-1.359C123.017,415.578,122.428,414.638,121.486,414.422z"/>
		<path d="M402.512,413.245c-0.717-0.648-1.823-0.597-2.472,0.12c-0.649,0.715-0.596,1.822,0.12,2.472
			c0.036,0.032,3.597,3.36,3.159,6.4c-0.138,0.957,0.526,1.845,1.482,1.982c0.085,0.012,0.169,0.018,0.252,0.018
			c0.856,0,1.604-0.629,1.73-1.5C407.489,417.827,402.715,413.429,402.512,413.245z"/>
		<path d="M410.597,410.966c-0.88-0.39-1.906,0.004-2.303,0.882c-0.396,0.878-0.003,1.912,0.873,2.313
			c0.035,0.017,3.561,1.664,3.938,5.042c0.1,0.895,0.857,1.557,1.737,1.557c0.064,0,0.13-0.003,0.195-0.011
			c0.961-0.106,1.652-0.972,1.546-1.933C415.982,413.419,410.816,411.064,410.597,410.966z"/>
		<path d="M218.078,454.535c-1.191-0.433-5.415-4.069-5.749-5.345c-0.033-0.938-0.803-1.688-1.749-1.688
			c-0.966,0-1.75,0.783-1.75,1.75c0,3.242,6.542,8.069,8.137,8.602c0.182,0.06,0.367,0.09,0.547,0.09
			c0.721,0,1.387-0.459,1.639-1.182C219.469,455.858,218.979,454.862,218.078,454.535z"/>
		<path d="M54.175,136.559c0.002,0,0.002,0,0.004,0c7.188,0,14.249-0.787,17.747-1.245c0.086,0.5,0.266,1.039,0.587,1.594
			c2.039,3.523,8.44,5.235,19.572,5.235c0.572,0,1.16-0.004,1.766-0.014c30.486-0.477,44.484-3.259,46.876-9.496
			c5.668-0.1,24.538-0.913,30.314-7.237c1.37-1.5,1.978-3.211,1.807-5.088c-0.844-9.281-11.954-11.398-17.146-11.88
			c0.457-1.759,0.622-4.377-0.467-7.915c-2.659-8.641-31.232-8.891-34.481-8.891c-1.328,0-2.596,0.024-3.769,0.071
			c-1.375,0.055-3.307,0.093-5.619,0.139c-18.288,0.361-38.33,1.144-44.67,5.9c-2.732,2.048-4.187,4.428-4.326,7.071
			c-0.1,1.89,0.517,3.563,1.238,4.844c-8.747,1.314-31.721,5.88-31.273,17.525C32.575,133.399,39.923,136.558,54.175,136.559z
			 M66.998,112.723c0.676-0.078,1.243-0.543,1.458-1.188c0.215-0.646,0.034-1.36-0.46-1.828c-0.023-0.021-2.274-2.182-2.128-4.741
			c0.088-1.552,1.074-3.044,2.929-4.436c5.969-4.477,30.736-4.965,42.639-5.2c2.341-0.046,4.297-0.085,5.689-0.141
			c1.127-0.045,2.348-0.068,3.629-0.068c15.807,0,30.065,2.94,31.136,6.42c1.552,5.043-0.1,7.31-0.146,7.373
			c-0.435,0.521-0.528,1.247-0.24,1.861c0.287,0.615,0.904,1.008,1.583,1.009c0.155,0.001,15.483,0.126,16.276,8.839
			c0.08,0.881-0.207,1.647-0.905,2.411c-4.574,5.009-22.57,6.11-29.118,6.112c-0.915,0-1.675,0.704-1.745,1.616
			c-0.253,3.281-8.056,7.309-43.798,7.867c-0.588,0.009-1.157,0.014-1.711,0.014c-13.319,0-16.005-2.629-16.511-3.436
			c-0.354-0.565-0.163-1.028-0.146-1.068c0.336-0.584,0.307-1.309-0.075-1.864c-0.33-0.479-0.871-0.758-1.441-0.758
			c-0.09,0-0.181,0.007-0.271,0.021c-0.097,0.015-9.811,1.52-19.46,1.52c-0.001,0-0.002,0-0.004,0
			c-6.764,0-18.141-0.783-18.342-6.022C35.497,118.306,58.806,113.661,66.998,112.723z"/>
		<path d="M180.145,76.146c-0.332,1.46-0.434,3.399,0.494,5.293c1.366,2.788,4.472,4.572,9.232,5.304
			c2.753,0.424,6.999,0.647,12.278,0.647c10.805,0,39.921-1.312,44.831-7.301c0.943-1.151,0.966-2.269,0.819-3.005
			c-0.327-1.635-1.028-3.036-2.067-4.174c2.978-0.179,6.159-0.515,9.049-1.117c7.03-1.464,10.595-4.194,10.595-8.115
			c0-3.009-3.269-5.05-10.445-6.406c2.207-1.566,3.16-3.47,2.842-5.695c-1.05-7.347-24.087-8.143-33.911-8.139
			c0,0-0.606-0.022-1.625-0.022c-6.669,0-18.413,0.781-22.13,6.01c-1.229,1.728-1.504,3.809-0.803,6.033
			c-2.826,0.088-5.651,0.192-8.293,0.307l-1.604,0.066c-8.744,0.347-21.958,0.873-25.058,8.105c-0.895,2.087-0.79,4.122,0.304,5.885
			C167.382,74.223,175.538,75.673,180.145,76.146z M167.565,65.315c2.229-5.202,14.593-5.693,21.98-5.987l1.616-0.066
			c3.431-0.149,7.174-0.281,10.822-0.381c0.613-0.017,1.173-0.354,1.475-0.887c0.302-0.534,0.303-1.186,0.002-1.721
			c-0.304-0.539-0.554-1.097-0.766-1.705c-0.574-1.651-0.124-2.568,0.264-3.115c2.379-3.346,11.518-4.538,19.278-4.538
			c0.927,0,1.484,0.02,1.563,0.021c15.861,0.001,30.118,2.401,30.508,5.135c0.308,2.154-3.634,3.676-6.011,4.391
			c-0.795,0.239-1.313,1.005-1.239,1.832c0.074,0.827,0.72,1.488,1.545,1.583c12.912,1.474,13.273,3.777,13.273,3.8
			c0,2.665-4.892,4.082-7.808,4.689c-4.876,1.015-10.715,1.229-14.755,1.229c0,0-0.001,0-0.001,0l-1.032-0.005
			c-0.005,0-0.011,0-0.017,0c-0.921,0-1.686,0.716-1.746,1.637c-0.06,0.927,0.616,1.74,1.538,1.85
			c3.654,0.439,5.778,2.018,6.316,4.644c-0.008,0.024-0.908,2.404-14.752,4.361c-8.002,1.132-18.271,1.807-27.469,1.807
			c-5.031,0-9.203-0.215-11.746-0.606c-3.498-0.539-5.785-1.702-6.612-3.366c-1.011-2.033,0.281-4.47,0.29-4.485
			c0.292-0.527,0.293-1.167,0.002-1.695c-0.291-0.528-0.833-0.869-1.435-0.902c-7.439-0.414-13.476-2.367-15.021-4.859
			C167.322,67.485,166.983,66.674,167.565,65.315z"/>
		<g>
			<path d="M401.457,236.313c0,5.065-4.107,9.172-9.172,9.172c-5.065,0-9.172-4.107-9.172-9.172s4.107-9.172,9.172-9.172
				C397.351,227.141,401.457,231.248,401.457,236.313z"/>
		</g>
		<g>
			<circle style="fill:#FFFFFF;" cx="393.029" cy="232.595" r="2.975"/>
		</g>
	</g>
</g>
</svg>
