<?xml version="1.0" encoding="UTF-8" standalone="no"?>
<svg
   xmlns:dc="http://purl.org/dc/elements/1.1/"
   xmlns:cc="http://creativecommons.org/ns#"
   xmlns:rdf="http://www.w3.org/1999/02/22-rdf-syntax-ns#"
   xmlns:svg="http://www.w3.org/2000/svg"
   xmlns="http://www.w3.org/2000/svg"
   viewBox="0 0 363.13333 471.05334"
   height="471.05334"
   width="363.13333"
   xml:space="preserve"
   id="svg2"
   version="1.1"><metadata
     id="metadata8"><rdf:RDF><cc:Work
         rdf:about=""><dc:format>image/svg+xml</dc:format><dc:type
           rdf:resource="http://purl.org/dc/dcmitype/StillImage" /></cc:Work></rdf:RDF></metadata><defs
     id="defs6"><clipPath
       id="clipPath70"
       clipPathUnits="userSpaceOnUse"><path
         id="path68"
         d="m 623.801,2333.27 c -0.317,-8.65 -1.281,-17.11 -10.543,-20.3 -6.203,-2.13 -12.93,-2.68 -19.391,-3.5 -6.527,-0.83 -13.008,-1.91 -19.57,-2.45 -14.359,-1.17 -30.117,-1.03 -43.317,5.48 -10.531,5.19 -18.347,14.25 -24.394,24.11 -12.938,21.08 -19.227,46.21 -27.16,69.45 -10.676,31.29 -20.852,62.72 -28.102,95 -4.281,19.07 -7.851,38.89 -6.402,58.33 0.707,2.31 1.578,4.56 2.539,6.75 1.957,6.28 5.816,11.28 10.863,15.04 l 0.012,0.07 0.418,0.38 c 2.016,1.56 4.172,2.71 6.391,3.6 9.957,4.68 22.253,5.99 33.101,4.17 25.317,-4.26 46.934,-22.76 62.899,-41.91 16.414,-19.68 28.324,-42.59 37.261,-66.52 9.227,-24.68 15.262,-50.47 19.684,-76.42 2.148,-12.58 3.926,-25.24 5.711,-37.88 1.554,-11.05 2.648,-22.51 0,-33.4 z" /></clipPath></defs><g
     transform="matrix(1.3333333,0,0,-1.3333333,0,471.05333)"
     id="g10"><g
       transform="scale(0.1)"
       id="g12"><path
         id="path14"
         style="fill:#000000;fill-opacity:1;fill-rule:nonzero;stroke:none"
         d="m 1244.71,817.559 -0.29,2.589 0.42,-2.628 z" /><path
         id="path16"
         style="fill:#000000;fill-opacity:1;fill-rule:nonzero;stroke:none"
         d="m 2009.17,371.672 c -2.18,23.129 -3.5,46.34 -4.22,69.547 -1.48,47.75 -0.29,95.523 1.99,143.211 1.16,24.172 2.59,48.332 4.05,72.48 1.26,20.59 3.39,41.262 3.14,61.922 -0.27,22.129 -4.15,42.977 -15.99,61.949 -5.28,8.481 -11.46,16.86 -19.27,23.199 -2.03,1.649 -4.2,3.129 -6.41,4.551 -4.73,4.071 -9.58,8 -14.05,12.36 -7.83,7.668 -14.19,16.711 -18.77,26.668 -19.56,42.562 -5.9,89.222 -1.05,133.351 2.65,24.13 4.86,48.41 6.62,72.62 1.74,23.98 2.49,48.13 0.31,72.11 -3.05,33.56 -11.22,66.82 -23.9,98.04 -24.33,59.91 -67.39,115.6 -128.56,140.74 -66.78,27.45 -145.76,14.99 -202.97,-28.26 -30.71,-23.21 -52.68,-54.62 -67.48,-89.92 -13.15,-31.35 -22.15,-65.71 -24.99,-99.93 -4.63,-25.55 -6.74,-51.54 -6.05,-77.47 1.01,-38.19 8.18,-76.621 23.88,-111.59 16.17,-36 41.24,-64.828 70.82,-90.508 29.88,-25.953 62.55,-49.41 87.27,-80.683 26.91,-34.059 43.41,-76.61 53.34,-118.52 10.49,-44.309 13.09,-90.039 9.91,-135.379 -3.4,-48.449 -13.24,-96.219 -30.37,-141.668 -8,-21.211 -16.73,-42.183 -23.36,-63.871 -5.57,-18.23 -10.8,-38.152 -10.2,-57.391 0.5,-16.171 7.14,-30.742 21.52,-39.031 17.75,-10.23 39.54,-9.629 58.99,-5.648 2.46,0.5 4.9,1.07 7.31,1.699 3.89,-7.371 10.3,-12.02 18.5,-14.098 14.99,-3.8 31.02,-4.043 46.36,-2.871 33.35,2.528 66.06,11.981 97.42,23.211 14.26,5.11 28.68,10.25 42.64,16.149 12.9,5.449 28.93,12.808 34.42,26.75 l 0.21,0.668 c 11.18,15.562 12.06,40.39 11.71,57.652 -0.26,12.699 -1.58,25.32 -2.77,37.961" /><path
         id="path18"
         style="fill:#ffffff;fill-opacity:1;fill-rule:nonzero;stroke:none"
         d="m 1999.31,349.789 c 2.08,-25.23 5.74,-62.25 -17.64,-79.18 -1.34,-0.957 -1.95,-2.507 -1.94,-3.929 -5.26,-3.391 -11.24,-5.95 -16.46,-8.129 -11.29,-4.699 -22.9,-8.801 -34.37,-13.02 -28.51,-10.519 -57.98,-19.722 -88.18,-23.781 -14.62,-1.969 -29.58,-2.828 -44.26,-0.961 -2.51,0.332 -5.09,0.68 -7.62,1.172 -7.72,3.859 -14.74,11.379 -17.54,17.68 -4.09,9.211 -3.8,19.691 -2.49,29.711 1.15,5.73 2.62,11.207 3.94,15.968 0.59,2.121 1.24,4.211 1.88,6.309 1.16,4.262 2.38,8.492 3.69,12.691 3.15,10.121 6.59,20.239 10.43,30.2 4.03,7.031 8.96,13.5 15.29,18.269 1.38,1.043 0.31,2.5 -1.14,1.641 -28.6,-16.899 -39.2,-51.68 -43.88,-82.7 -0.16,-1.039 -0.31,-2.121 -0.45,-3.199 -2.49,-10.992 -3.7,-22.461 -1.32,-32.851 -11.8,-2.559 -23.87,-3.711 -35.73,-1.809 -17.14,2.75 -32.31,12.328 -35.91,30.16 -3.4,16.821 1.34,35.571 5.61,51.809 5.85,22.262 14.44,43.629 22.67,65.082 16.73,43.629 27.84,88.207 32.77,134.719 4.7,44.308 4.16,89.039 -3.53,132.988 -7.34,41.98 -20.84,82.93 -42.34,119.851 -20.02,34.391 -49.2,60.192 -79.51,85.321 -29.73,24.648 -59.81,49.551 -80.54,82.64 -19.73,31.489 -31.11,68.039 -35.81,104.749 -9.67,75.46 6.73,152.05 38.05,220.72 3.69,8.1 7.99,15.95 12.45,23.65 0.54,0.94 -0.03,1.48 -0.78,1.56 7.21,10.28 15.27,19.97 24.51,28.67 51.65,48.63 129.34,66.18 196.68,43.31 61.32,-20.83 105.82,-73.59 131.41,-131.37 12.98,-29.33 21.85,-60.61 26.06,-92.41 6.06,-45.78 0.68,-91.83 -3.69,-137.488 -2.18,-22.902 -5.94,-45.453 -8.96,-68.242 -2.83,-21.36 -4.1,-42.871 0.17,-64.129 3.97,-19.82 13.17,-38.68 27.74,-52.871 7.21,-7.02 15.48,-12.86 22.52,-20.07 7.27,-7.45 13.24,-15.93 18.04,-25.161 4.13,-7.949 7.5,-16.328 10.91,-24.617 0.83,-4.012 1.48,-8.09 1.86,-12.312 1.77,-19.621 0.05,-39.328 -1.3,-58.91 -1.56,-22.528 -2.82,-45.098 -4.05,-67.649 -2.5,-45.871 -4.29,-91.812 -3.85,-137.762 0.38,-38.957 3.41,-77.527 6.61,-116.32" /><path
         id="path20"
         style="fill:#000000;fill-opacity:1;fill-rule:nonzero;stroke:none"
         d="m 2676.92,1489.99 -0.14,0.81 c -4.17,63.39 -24.2,125.89 -53.81,181.6 -19.39,36.48 -43.19,70.64 -73.24,99.17 -29.03,27.55 -62.13,51.1 -97.84,69.19 -35.42,17.94 -73.48,30.53 -112.95,35.4 -35.83,4.42 -72.57,3.42 -108.29,-1.47 -71.57,-9.79 -142.85,-37.92 -194.64,-89.52 -28.21,-28.11 -49.5,-63.13 -62.68,-100.65 -5.63,-16.06 -8.94,-32.54 -11.95,-49.25 -2.6,-14.4 -4.77,-29.59 -2.49,-44.18 0.47,-3.01 1.23,-5.96 2.41,-8.72 3.57,-21.67 12.97,-41.84 24.51,-61.06 26.24,-43.71 71.69,-91.87 127.9,-81.01 33.67,6.49 61.92,27.39 92.24,42.06 32.72,15.84 71.05,22.75 106.5,12.27 58.78,-17.37 92.67,-72.46 106.31,-129.06 7.72,-32.01 8.97,-63.9 -3.77,-94.86 -5.82,-14.12 -14.39,-27.53 -25.93,-37.67 -10.4,-9.14 -24.3,-17.76 -38.59,-17.82 -7.19,-0.02 -13.46,2.71 -18.81,7.39 -2.14,1.88 -6.63,-1.15 -6.52,-3.7 0.56,-13.81 12.54,-22.52 23.75,-28.6 11.44,-6.19 24.02,-9.51 37.05,-9.37 8.37,0.1 16.69,1.56 24.48,4.3 -12.96,-13.36 -26.92,-25.77 -40.66,-38.33 -22.51,-20.58 -44.15,-43.55 -54.03,-73.08 -10.27,-30.72 -6.98,-64.5 3.67,-94.65 10.38,-29.36 31.45,-57.75 60.38,-70.891 2.65,-1.199 8.06,2.672 6.72,5.731 -2.87,6.519 -6.39,12.769 -9.14,19.351 -2.89,6.91 -4.6,14.418 -5.71,21.809 -1,6.59 -1.31,13.3 -1.21,20.019 1.93,-5.199 4.25,-10.25 6.89,-15.16 7.45,-21.398 19.32,-41.039 33.64,-58.93 18.35,-22.929 41.65,-43.539 52.15,-71.679 4.73,-12.688 7.83,-26.371 8.21,-39.93 0.37,-12.93 -1.51,-27.129 -11.39,-36.41 -4.57,-4.281 1.13,-8.61 5.64,-5.531 29.16,19.933 57.04,42.402 79.28,70.043 23.27,28.898 38.65,62.796 48.98,98.32 5.69,19.558 8.54,40.328 2.7,59.976 9.85,-0.906 19.94,-0.187 29.89,1.993 2.91,0.64 7.8,5.589 3.95,8.179 -15.91,10.692 -27.11,25.88 -32.26,44.36 -5.16,18.49 -4.75,37.95 -2.08,56.82 5.8,40.83 21.81,79.86 38.24,117.41 8.38,19.13 16.98,38.1 23.7,57.91 8.24,24.33 14.35,49.4 18.46,74.76 8.16,50.44 8.2,102.16 0.48,152.66" /><path
         id="path22"
         style="fill:#ffffff;fill-opacity:1;fill-rule:nonzero;stroke:none"
         d="m 2671.72,1395.39 c -0.48,-14.43 -1.58,-28.82 -3.37,-43.15 -5.98,-47.66 -19.94,-92.73 -39.37,-136.53 -16.01,-36.1 -31.72,-72.83 -40.12,-111.58 -7.69,-35.46 -10.51,-77.56 13.71,-107.63 3.53,-4.379 7.56,-8.289 11.9,-11.828 -17.95,-1.473 -35.74,3.039 -50.54,14.168 -15.93,11.96 -28.64,31.15 -34.58,50.43 -1.5,-14.29 3.02,-29.3 10.67,-42.35 5.07,-6.34 10.92,-12.061 17.53,-16.779 8.38,-5.981 17.53,-9.981 27.07,-12.27 l 0.1,-0.379 c 7.37,-18.672 5.83,-38.492 0.71,-57.551 -4.71,-17.48 -11.18,-35 -18.63,-51.5 -13.78,-30.519 -35.16,-56.839 -59.92,-79.16 -9.19,-8.293 -18.91,-15.972 -28.89,-23.281 5.48,15.281 3.91,33.59 0.63,48.879 -2.48,11.512 -6.32,22.769 -11.94,33.152 -7.23,13.391 -17.06,25.168 -26.99,36.629 -13.01,15.02 -26.05,30.309 -36.66,47.082 l 0.07,1.289 c -4.48,14.41 -12.92,26.938 -19.09,40.578 -7.54,26.931 -7.38,55.791 -0.64,82.891 6.14,24.69 17.21,48.89 31.27,70.65 2.35,3.21 4.75,6.4 7.27,9.49 12.38,15.16 26.37,28.68 39.95,42.73 0.91,0.95 -0.24,1.88 -1.21,1.18 -29.13,-20.83 -55.23,-47.69 -72.31,-79.35 -9.42,-17.46 -16.21,-36.42 -20.37,-55.82 -3.55,-16.52 -5.23,-33.84 -2.67,-50.63 -3.25,-13.199 -3.83,-26.551 -2.2,-40.199 0.93,-7.77 2.56,-15.629 5.31,-22.981 0.73,-1.941 1.59,-3.828 2.48,-5.699 -17.82,14.359 -31.26,32.668 -39.65,54.77 -11.37,29.949 -15.34,64.219 -4.44,94.879 10.28,28.92 32.84,50.49 55.08,70.57 19.63,17.73 39.07,35.66 55.45,56.49 2.91,3.13 5.52,6.56 7.72,10.33 7.72,11.07 14.48,23.19 18.08,36.13 4.22,15.14 3.56,28.87 -1.14,43.75 -0.31,0.98 -1.84,0.09 -1.71,-0.75 4.73,-29.95 -11.48,-60.39 -29.2,-83.25 -1.9,-2.46 -3.87,-4.85 -5.87,-7.22 -10.53,-8.13 -23.98,-12.37 -37.82,-12.28 -10.88,0.08 -21.6,2.69 -31.27,7.67 -5.52,2.84 -13.74,7.44 -18.86,13.34 20.98,-7.36 46.46,7.77 61.5,22.03 23.21,21.98 35.19,54.54 36.41,86.04 1.18,30.38 -7.15,62.43 -18.84,90.29 -11.1,26.46 -27.23,50.81 -49.64,69.03 -25.9,21.05 -58.45,32.21 -91.85,31.03 -18.15,-0.65 -36.08,-4.4 -53.12,-10.64 -16.74,-6.13 -32.25,-15.05 -47.79,-23.66 -27.47,-15.22 -58.39,-32.34 -90.8,-24.57 -27.5,6.58 -50.12,26.5 -67.63,47.85 -2.63,3.22 -5.23,6.55 -7.77,9.94 11.34,22.53 20.47,46.22 34.82,67.09 13.65,19.85 30.33,37.89 48.35,53.81 35.35,31.24 78.02,53.33 123.93,64.13 101.85,23.96 213.08,-5.46 296.96,-66.16 40.86,-29.57 72.38,-68.6 94.67,-113.73 0.52,-1.04 2.75,0.29 2.3,1.29 -38.89,88.16 -119.26,147.64 -208.94,177.99 -101.71,34.42 -218.03,20.32 -302.66,-47.96 -20.85,-16.83 -39.28,-36.38 -55.29,-57.84 -17.19,-23.03 -28.49,-48.97 -35.64,-76.6 -8.6,11.7 -16.48,24.39 -22.83,37.58 l 0.9,2.17 c -2.01,9.14 -0.01,19.05 1.57,28.13 1.71,9.85 3.63,19.74 6.06,29.44 5.04,20.12 12.72,39.45 22.73,57.61 19.51,35.38 46.61,66.99 78.71,91.54 65.23,49.86 150.21,69.92 231.33,61.85 25.83,-2.57 52.33,-7.45 76.62,-16.81 23.27,-8.96 45.12,-21.7 67.16,-33.28 l 1.25,1.31 c -19.72,10.6 -37.93,23.76 -58.27,33.25 -21.4,9.99 -44.76,16.05 -68,19.85 -44.82,7.33 -90.87,5.86 -135.1,-4.52 -80.96,-19.01 -151.9,-69.31 -195.3,-140.48 -12.45,-20.42 -22.44,-42.51 -28.65,-65.64 -3.02,-11.28 -4.56,-22.52 -5.6,-34.1 -0.52,-5.76 -1.08,-11.85 -0.89,-17.84 -1.5,3.85 -2.91,7.72 -4.09,11.63 -4.34,14.27 -5.41,28.57 -4.33,42.75 -0.11,25.87 5.92,51.75 16.15,75.89 -0.65,-1.22 -1.35,-2.41 -1.99,-3.65 10.88,29.04 26.42,56.44 46.64,79.94 45.84,53.28 113.14,83.38 181.25,95.81 34.23,6.24 69.24,8.17 103.96,5.97 38.02,-2.41 75,-11.9 109.89,-27.13 71.09,-31.05 132.15,-83.18 172.83,-149.18 15.18,-15.31 23.25,-37.76 31.25,-57.09 23.2,-56.02 37.36,-116.13 41.36,-176.66 1.38,-20.83 2.05,-41.78 0.88,-62.61" /><path
         id="path24"
         style="fill:#000000;fill-opacity:1;fill-rule:nonzero;stroke:none"
         d="m 2600.8,1333.99 c -2.52,44.85 -11.65,88.38 -31.37,128.96 -19.59,40.32 -48.35,76.96 -83.74,104.57 -36.06,28.12 -78.85,47.11 -123.5,56.56 -29.02,6.15 -58.71,8.61 -88.34,7.44 -27.51,-1.1 -52.76,-8.67 -78.73,-17.11 l 0.04,-0.54 c 48.03,15.22 98.85,15.95 148.22,6.88 44.38,-8.14 87.05,-25.36 123.98,-51.42 72.19,-50.96 116.15,-134.82 123.27,-222.18 4.24,-52.14 3.69,-106.61 -14.42,-156.29 -1.23,-3.39 3.89,-2.29 4.92,-0.09 20.75,44.33 22.37,95.17 19.67,143.22" /><path
         id="path26"
         style="fill:#000000;fill-opacity:1;fill-rule:nonzero;stroke:none"
         d="m 2412.3,360.609 c -2.18,23.133 -3.5,46.34 -4.22,69.551 -1.48,47.738 -0.28,95.512 2,143.211 1.16,24.168 2.58,48.32 4.05,72.469 1.25,20.601 3.38,41.269 3.13,61.93 -0.27,22.132 -4.14,42.98 -15.98,61.941 -5.29,8.48 -11.47,16.871 -19.27,23.211 -1.86,1.508 -3.83,2.859 -5.83,4.16 -22.79,23.188 -46.2,46.348 -63.62,74.008 -19.73,31.34 -27.78,67.101 -31.73,103.551 -4.32,39.769 -3.67,79.849 -3.69,119.799 -0.03,40.11 -1.51,80.25 -3.75,120.3 -4.24,76.07 -14.51,151.48 -43.06,222.58 -22.43,55.87 -53.26,110.36 -96.38,152.92 -21.06,20.79 -45.28,38.75 -72.38,50.87 -30.27,13.54 -63.21,20.07 -96.15,22.49 -69.98,5.13 -139.49,-6.79 -209.21,-10.43 -62.78,-3.27 -127.46,-3.62 -189.33,8.74 -63.83,12.75 -121.99,42.12 -164.93,91.8 -73.63,85.19 -84.83,200.66 -83.69,310.02 1.12,0.76 2.05,1.93 2.09,3.12 0.47,13.1 2.68,26.43 4.43,39.43 1.79,13.3 2.85,26.82 2.16,40.25 -1.17,22.51 -8.48,44.99 -28.89,56.92 -17.84,10.43 -40.05,11.81 -60.21,10.61 -25.79,-1.54 -51.24,-7.91 -75.47,-16.68 -54.19,-19.62 -103.16,-50.81 -150.51,-83.12 -37.934,-25.88 -78.329,-53.69 -104.797,-92 -15.946,-23.09 -23.696,-48.61 -18.458,-76.65 3.481,-18.68 11.176,-36.17 17.766,-53.97 15.984,-58.14 29.352,-117.18 31.875,-177.63 2.652,-63.65 -10.101,-124.28 -28.562,-184.83 -35.411,-116.14 -87.395,-230.56 -85,-354.35 1.238,-64.14 14.488,-127.36 31.195,-189.068 8.57,-31.672 18.777,-62.903 26.531,-94.782 7.949,-32.648 13.711,-65.789 17.828,-99.14 C 916.199,662.5 914.293,529.281 893.281,400.672 883.145,338.641 860.484,279.91 843.523,219.629 836.316,194 823.578,163.012 832.766,136.441 c 7.461,-21.601 28.23,-35.031 48.804,-42.3199 10.039,-3.5625 20.285,-5.6797 30.809,-6.9492 0.988,-1.8516 2.137,-3.6211 3.66,-5.1914 9.918,-10.2305 26.481,-10.3985 39.723,-10.9297 35.843,-1.4492 72.248,5.2305 106.328,16 29.64,9.3711 60.86,22.2382 84.17,43.4102 21.09,19.141 31.59,44.969 29.13,73.449 -1.75,20.211 -9.23,39.16 -13.7,58.801 -4.89,21.5 -6.5,43.891 -6.55,65.891 -0.15,84.769 22.42,168.878 44.63,250.058 9.73,35.57 20.86,70.77 30.06,106.481 9.25,35.879 16.89,72.949 16.48,110.179 -0.04,3.41 -0.23,6.809 -0.44,10.211 l 0.93,-0.289 c 2.33,-15.512 4.27,-31.062 5.97,-46.551 4.67,-42.57 6.91,-85.359 8.21,-128.16 2.41,-79.761 2.11,-159.812 -5.95,-239.269 -4.04,-39.793 -10.1,-79.422 -18.83,-118.453 -4.25,-19.028 -9.15,-37.918 -14.8,-56.579 -5.41,-17.898 -12.13,-35.32 -17.84,-53.109 -8.35,-25.992 -15.93,-63.4687 12.51,-79.9101 19.41,-11.2187 44.53,-11.0117 66.72,-9.6523 2.49,-6.9883 7.3,-12.6797 15.33,-16.0273 13.63,-5.6797 29.51,-4.9219 43.92,-3.5704 16.06,1.5079 32.07,3.8594 48.11,5.6602 20.31,2.2891 40.62,4.8008 60.66,8.918 39.93,8.2226 77.96,24.3593 104.5,56.3829 11.76,14.199 21.24,31.328 19.91,50.328 -0.79,11.359 -5.37,21.699 -9.64,32.102 -4.89,11.89 -9.96,23.707 -14.69,35.668 -9.56,24.152 -16.81,48.66 -20.13,74.472 -3.26,25.348 -3.63,50.996 -2.86,76.508 0.76,25.602 2.72,51.141 4.27,76.691 1.58,25.95 2.52,51.918 4.5,77.848 4.02,52.531 10.77,104.82 20.33,156.621 5.19,28.09 10.42,56.172 15.57,84.25 61.24,8.66 121.74,23.031 180.31,42.531 62.73,20.879 126.45,47.579 180.58,86.821 15.09,-23.762 34.29,-44.27 55.94,-63.082 29.88,-25.95 62.56,-49.41 87.27,-80.688 26.91,-34.051 43.41,-76.601 53.34,-118.523 10.49,-44.297 13.09,-90.028 9.91,-135.367 -3.4,-48.454 -13.24,-96.211 -30.37,-141.68 -7.99,-21.203 -16.72,-42.172 -23.35,-63.863 -5.58,-18.227 -10.81,-38.149 -10.21,-57.387 0.51,-16.172 7.15,-30.742 21.52,-39.031 17.75,-10.231 39.55,-9.629 58.99,-5.661 2.46,0.512 4.9,1.079 7.32,1.711 3.89,-7.371 10.3,-12.019 18.49,-14.101 14.99,-3.809 31.02,-4.039 46.36,-2.871 33.36,2.523 66.06,11.98 97.42,23.211 14.27,5.109 28.68,10.25 42.64,16.152 12.9,5.449 28.94,12.809 34.43,26.75 l 0.21,0.668 c 11.17,15.559 12.05,40.391 11.7,57.641 -0.26,12.711 -1.57,25.328 -2.77,37.968" /><path
         id="path28"
         style="fill:#ffffff;fill-opacity:1;fill-rule:nonzero;stroke:none"
         d="m 2402.44,338.719 c 2.08,-25.219 5.74,-62.239 -17.64,-79.168 -1.33,-0.961 -1.95,-2.512 -1.93,-3.93 -5.27,-3.391 -11.25,-5.949 -16.47,-8.129 -11.28,-4.703 -22.9,-8.801 -34.36,-13.031 -28.51,-10.512 -57.99,-19.711 -88.18,-23.77 -14.62,-1.972 -29.58,-2.832 -44.26,-0.961 -4.28,0.551 -8.76,1.141 -12.87,2.461 -3,0.68 -5.53,2.071 -7.63,3.989 -1.04,0.832 -2.02,1.742 -2.9,2.832 l 0.28,0.097 c -1.54,2.133 -2.71,4.633 -3.65,7.301 -1.6,7.262 -2.14,14.578 -1.36,22.481 1.24,12.519 5.24,24.281 8.65,36.308 3.25,11.492 7.38,22.473 12.5,33.242 3.51,7.36 8.48,19.899 16.72,23.141 0.73,0.289 1.29,1.738 0.1,1.75 -8.93,0.129 -15.92,-11.672 -20.13,-18.133 -7.34,-11.269 -13.24,-23.187 -17.64,-35.91 -0.47,-1.34 -0.94,-2.699 -1.4,-4.047 -0.68,-1.84 -1.42,-3.672 -2.05,-5.523 -5.56,-16.219 -11.92,-37.289 -7.83,-55.098 -11.81,-2.562 -23.88,-3.711 -35.73,-1.812 -17.15,2.75 -32.32,12.332 -35.92,30.152 -3.4,16.828 1.34,35.578 5.61,51.809 5.85,22.261 14.45,43.64 22.67,65.089 16.73,43.629 27.84,88.2 32.77,134.723 4.7,44.309 4.16,89.039 -3.53,132.988 -7.33,41.981 -20.84,82.93 -42.33,119.852 -20.02,34.387 -49.21,60.187 -79.51,85.32 -28.19,23.379 -56.6,47.059 -77.15,77.649 -4.69,6.398 -8.76,13.23 -12.06,20.55 -1.02,1.981 -2.1,3.938 -3.08,5.95 -1.83,3.468 -3.58,7 -5.14,10.648 -4.78,11.16 -8.5,22.813 -11.51,34.652 -2.54,9.559 -4.54,19.249 -6.08,28.969 -0.22,1.28 -0.45,2.55 -0.66,3.82 -4.4,26.53 -4.5,53.6 -2.18,80.34 0.25,2.85 0.63,5.7 0.93,8.56 l 0.21,1.97 c 4.54,41.93 14.33,83.36 27.74,123.4 -28.12,-55.9 -42.4,-118.9 -40.74,-181.47 1.02,-38.2 8.19,-76.628 23.89,-111.6 2.96,-6.578 6.31,-12.848 9.83,-18.989 -45.18,-32.699 -96.82,-56.66 -149.21,-75.781 -66.17,-24.148 -134.94,-41.508 -204.71,-51.449 3.73,20.437 7.42,40.891 10.98,61.371 7.76,44.629 16.22,90.797 9.22,136.027 -5.02,11.711 -11.73,22.861 -20.8,31.471 16.6,-42.709 13.28,-89.451 6.37,-134.041 -4.98,-32.168 -10.55,-64.258 -16.43,-96.277 l -0.51,-0.071 c -0.74,-3.562 -1.61,-7.101 -2.55,-10.621 l 1.14,0.141 c -2.49,-13.422 -5.03,-26.82 -7.61,-40.219 -9.6,-49.773 -18.39,-99.531 -24.01,-149.933 -5.5,-49.329 -7.38,-98.797 -10.59,-148.289 -3.17,-48.778 -6.68,-98.278 1.42,-146.778 4.02,-24.121 11.46,-46.992 20.61,-69.613 4.68,-11.59 9.63,-23.059 14.37,-34.629 3.94,-9.629 8.06,-19.141 8.19,-29.719 0.23,-18.98 -12.32,-35.621 -25.1,-48.492 -13.59,-13.707 -30.48,-23.7304 -48.42,-30.6796 -36.76,-14.2305 -76.54,-17.5 -115.35,-22.0781 -14.1,-1.6602 -28.16,-4.1211 -42.37,-4.7305 -12.04,-0.5117 -28.48,-0.4414 -37.34,9.2695 -0.44,3.4219 -1.26,6.7695 -2.08,10.25 -1.44,6.1485 -1.73,12.0586 -1.44,18.3517 0.53,11.5 3.06,22.707 5.56,33.898 2.09,9.379 4.27,18.782 7.29,27.91 3.02,9.071 7.17,19.879 14.81,26.079 1.1,0.902 0.2,2.273 -0.97,1.39 -17.54,-13.148 -25.12,-32.89 -29.93,-53.738 -1.18,-5.129 -2.38,-10.301 -3.46,-15.492 -2.75,-10.707 -4.69,-21.6682 -4.87,-32.6174 -0.02,-1.7032 0.03,-3.3828 0.17,-5.0118 -15.51,-0.6796 -31.12,-0.121 -45.83,4.1797 -10.38,3.0313 -20.67,8.9805 -25.17,19.2895 -7.07,16.211 -2.5,35.761 2.32,51.921 5.2,17.489 12.04,34.461 17.48,51.872 5.82,18.597 10.89,37.418 15.3,56.398 8.93,38.441 15.09,77.469 19.36,116.691 8.59,78.797 9.39,158.258 7.25,237.438 -1.58,58.269 -4.73,116.832 -12.92,174.621 -2.22,8.449 -3.59,17.172 -4,25.859 -2.97,17.481 -6.43,34.883 -10.56,52.172 -4.82,20.18 -11.34,39.91 -19.09,59.16 -5.52,13.719 -11.6,27.161 -16.81,41.008 -4.78,12.75 -9.87,25.531 -16.07,37.661 -4.35,8.5 -9.07,17.24 -15.41,24.5 1.92,-8.67 4.2,-17.23 6.6,-25.77 4.51,-9.77 8.27,-19.91 11.86,-30.02 11.11,-31.281 25.13,-61.461 34.43,-93.379 6.15,-21.121 10.83,-42.742 14.56,-64.531 -1.37,4.992 -8.34,2.84 -10.62,-1.129 -68.36,21.801 -134.28,56.52 -185.61,106.36 -33.06,32.089 -59.647,71.461 -80.78,112.239 -3.031,5.84 -5.883,11.78 -8.668,17.75 -14.809,23.36 -27.801,48.19 -36.938,74.07 l 0.204,-0.85 c 5.144,-20.54 12.917,-40.17 20.48,-59.9 17.184,-44.81 42.156,-88.04 72.832,-125.001 55.1,-66.429 134.68,-109.89 216.01,-135.699 l 2.61,-0.781 c 5.76,-67.059 -17.39,-133.821 -35.8,-197.34 -21.76,-75.098 -42.32,-151.649 -50.97,-229.52 -4.5,-40.418 -5.42,-81.687 2.72,-121.73 6.47,-31.859 22.93,-64.879 9.24,-97.238 -10.42,-24.629 -34.61,-39.52 -57.76,-50.602 -31.02,-14.8593 -65.14,-24.2382 -99.2,-28.6679 -16.412,-2.1289 -33.112,-3.1797 -49.639,-1.9922 -10.066,0.7227 -22.836,1.7422 -28.953,10.4609 l 0.711,1.629 c -0.024,9.5312 -2.172,18.7812 -1.508,28.4802 0.641,9.371 1.758,18.992 4.078,28.102 l 0.629,2.16 c 1.52,4.84 3.184,9.641 5.082,14.34 l 0.023,0.289 c 5.215,12.5 12.051,24.332 18.586,36.242 1.051,1.91 -1.695,2.148 -2.558,0.738 -5.621,-9.199 -13.77,-16.718 -19.602,-25.84 -5.547,-8.679 -9.469,-18.589 -11.976,-28.601 -3.895,-11.547 -6.403,-23.5 -7.559,-34.859 -0.555,-5.481 -0.918,-11.551 -0.148,-17.3403 -19.231,4.1993 -38.996,11.1993 -52.942,25.0003 -23.871,23.621 -13.152,54.672 -5.664,82.992 15.707,59.41 38.445,116.937 50.453,177.328 24.899,125.25 25.992,257.34 13.649,384.09 -6.231,64.019 -19.516,125.621 -37.426,187.312 -18.121,62.388 -34.348,125.828 -39.621,190.778 -5.16,63.52 3.019,125.24 19.445,186.59 15.531,58.04 36.473,114.41 54.805,171.59 18.406,57.42 34.973,115.96 36.683,176.61 1.715,60.73 -8.832,120.82 -26.839,178.65 -1.211,3.89 -2.543,7.71 -3.825,11.57 -2.379,21.21 -10.007,41.44 -15.57,62.11 -3.457,12.84 -5.898,25.99 -5.098,39.35 0.704,11.76 4.504,22.94 10.008,33.28 10.375,19.5 26.016,36.02 42.313,50.7 16.836,15.18 35.054,28.75 53.633,41.73 42.81,29.9 86.93,58.88 134.8,80.09 25.52,11.31 52.48,20.39 80.18,24.33 19.3,2.76 39.71,3.63 58.61,-1.89 10.14,-2.96 19.75,-8.28 26.53,-16.51 8.28,-10.04 11.56,-23.34 12.65,-36.06 0.4,-4.68 0.5,-9.35 0.5,-14.03 -2.35,-23.57 -5.03,-47.06 -6.03,-70.81 -1.34,-31.95 -1.33,-63.89 1.14,-95.8 4.82,-62.15 18.93,-124.22 50.69,-178.42 32.45,-55.39 82.35,-98.15 142.47,-120.79 58.87,-22.18 122.53,-26.65 184.91,-26.55 32.82,0.05 65.6,1.18 98.31,3.88 35.27,2.91 70.46,6.8 105.81,8.5 67.24,3.23 137.18,-2.08 194.39,-40.97 51.18,-34.8 88.08,-88.2 114.9,-143.12 32.26,-66.04 49.11,-136.56 55.94,-209.56 3.71,-39.62 5.14,-79.42 6.54,-119.19 1.44,-40.75 0.03,-81.53 1.34,-122.27 1.22,-37.909 4.16,-77.409 16.41,-113.569 10.48,-30.961 29.42,-57.68 51.16,-81.742 10.87,-12.02 22.32,-23.52 33.67,-35.09 1.06,-1.078 2.46,-1.367 3.88,-1.141 5.03,-4.66 9.39,-9.918 13.48,-15.507 11.52,-15.7 17.98,-32.61 19.73,-52.032 1.77,-19.609 0.05,-39.32 -1.3,-58.898 -1.55,-22.539 -2.82,-45.102 -4.05,-67.652 -2.5,-45.868 -4.29,-91.809 -3.85,-137.758 0.38,-38.961 3.42,-77.539 6.61,-116.332" /><path
         id="path30"
         style="fill:#000000;fill-opacity:1;fill-rule:nonzero;stroke:none"
         d="m 366.461,3368.58 c 8.551,17.93 18.418,35.17 27.211,52.99 7.828,15.84 16.012,32.54 28.371,45.42 11.824,12.33 26.441,17.65 41.895,7.98 8.078,-5.06 14.671,-12.41 20.707,-19.68 6.445,-7.77 12.988,-15.43 19.464,-23.16 33.336,-39.79 59.606,-84.64 81.758,-131.45 22.121,-46.74 39.735,-95.75 49.852,-146.53 9.832,-49.35 12.09,-100.79 2.008,-150.31 -8.036,-39.41 -28.797,-77.87 -26.34,-118.95 0.367,-6.15 1.422,-12.41 3.203,-18.4 0.371,-0.98 0.691,-1.97 0.961,-2.99 0.484,-1.38 1.012,-2.74 1.574,-4.08 -6.758,0.37 -13.391,1.47 -20.133,3.3 -8.855,2.41 -18.082,6 -27.344,6.19 -15.257,0.33 -26.027,-11.03 -36.914,-20.03 -7.265,-6.01 -15.433,-10.81 -23.918,-14.88 -7.8,-3.74 -16.671,-8.11 -25.332,-9.26 -5.812,-0.77 -11.464,-0.72 -15.843,-5.08 -4.286,-4.28 -6.895,-9.79 -8.989,-15.39 -1.66,-4.44 -3.05,-8.98 -4.82,-13.2 l -0.605,1.15 c -1.039,0.66 -1.918,1.52 -2.368,2.49 -5.683,12.38 -7.562,25.52 -11.449,38.46 -3.937,13.1 -11.109,24.59 -18.656,35.87 -15.086,22.55 -31.57,44.27 -45.883,67.3 -26.535,42.73 -43.941,91.71 -52.84,141.08 -17.832,98.94 1.477,201.1 44.43,291.16" /><path
         id="path32"
         style="fill:#ffffff;fill-opacity:1;fill-rule:nonzero;stroke:none"
         d="m 390.941,3388.27 c 7.758,14.25 14.579,28.99 22.434,43.19 7.207,13.02 16.496,30.21 30.871,36.51 16.152,7.08 30.168,-15.76 38.645,-26.22 15.207,-18.75 30.683,-36.82 44.156,-56.94 27.976,-41.79 50.703,-87.47 68.808,-134.35 18.032,-46.7 31.157,-95.65 35.204,-145.66 2.031,-25.14 1.914,-50.48 -1.286,-75.51 -2.543,-19.95 -7.71,-38.89 -13.457,-58.11 -5.89,-19.73 -11.652,-39.8 -13.722,-60.36 -0.985,-9.74 -1.156,-19.56 0.359,-29.02 l -0.703,-1.32 1.336,-2.07 c 0.93,-4.46 2.297,-8.81 4.184,-13.02 0.39,-8.01 -3.059,-15.85 -9.016,-23.21 -8.856,-10.96 -21.191,-18.91 -33.219,-25.96 -12.289,-7.22 -25.246,-13.44 -38.48,-18.72 -10.297,-4.11 -20.922,-7.51 -31.86,-9.42 -7.398,-1.29 -16.097,-2.7 -23.586,-1.04 -4.207,0.92 -6.398,3.07 -8.089,7.01 -2.754,6.41 -4.071,13.4 -6.707,19.91 -0.258,0.64 -1.083,1.44 -2.04,2.07 -1.019,5.11 -2.07,10.23 -3.48,15.26 -6.824,24.34 -23.418,45.62 -37.707,66.06 -15.18,21.7 -30.523,42.98 -42.508,66.68 -22.215,43.96 -36.269,91.97 -41.465,140.93 -10.398,98.07 14.485,197.25 61.328,283.31" /><path
         id="path34"
         style="fill:#000000;fill-opacity:1;fill-rule:nonzero;stroke:none"
         d="m 364.941,3211.71 c 5.071,37.03 15.348,72.79 24.008,109.04 0.266,1.11 2.149,0.12 1.965,-0.86 -5.965,-31.23 -10.559,-62.91 -14.637,-94.43 -4.105,-31.78 -6.992,-63.68 -5.961,-95.75 1.012,-31.35 5.922,-62.53 16.289,-92.2 9.372,-26.81 23.317,-52.46 38.7,-76.28 15.808,-24.49 35.593,-48.98 61.101,-64 -0.015,5.08 0.203,10.13 0.614,15.06 1.593,19.09 6.128,37.77 12.878,55.69 7.282,19.32 16.684,37.85 24.497,56.97 7.578,18.53 14.378,37.5 18.925,57.01 9.821,42.17 5.875,84.24 -9.722,124.5 -15.086,38.95 -37.918,74.39 -55.899,112 -9.336,19.53 -18.035,39.48 -23.992,60.33 -5.699,19.96 -9.66,40.98 -4.309,61.43 0.293,1.12 2.11,0.2 2.118,-0.68 0.16,-39.83 16.371,-77.36 33.203,-112.68 17.504,-36.73 39.492,-71.23 55.664,-108.59 16.508,-38.14 24.426,-78.75 18.789,-120.19 -5.418,-39.73 -21.899,-76.64 -38.59,-112.71 -9.254,-19.99 -17.637,-39.79 -22.328,-61.42 -4.813,-22.18 -4.719,-43.46 1,-65.41 0.859,-3.29 -3.832,-2.99 -4.945,-0.72 -4.746,9.67 -6.903,20.44 -7.61,31.33 -25.277,12.65 -44.668,32.99 -61.07,55.71 -16.66,23.07 -31.043,48.64 -42.375,74.74 -26.281,60.56 -27.141,127.68 -18.313,192.11" /><path
         id="path36"
         style="fill:#000000;fill-opacity:1;fill-rule:nonzero;stroke:none"
         d="m 1636.41,2709.75 c -5.19,37.79 -15.14,74.96 -30.32,109.98 -15.97,36.83 -37.94,69.58 -62.73,101.01 -26.38,33.45 -55.31,64.86 -86.41,93.98 -30.86,28.91 -63.64,55.97 -99.84,77.97 -69.8,42.44 -149.39,66.74 -230.4,75.26 -88.75,9.34 -179.429,-2.99 -265.269,-25.85 -79.656,-21.21 -158.765,-50.8 -229.472,-93.55 -41.094,-24.85 -78.762,-55.28 -110.715,-90.84 12.844,19.36 26.973,38.19 43.144,54.68 1.247,1.27 -0.609,2.21 -1.671,1.15 -17.762,-17.76 -34.383,-36.08 -49,-56.54 -10.133,-14.19 -19.325,-29.06 -27.813,-44.32 -7.5,-11.02 -14.527,-22.39 -20.937,-34.18 -18.782,-34.56 -32.539,-71.7 -40.653,-110.19 -9.32,-44.26 -13.418,-90.22 -14.758,-135.37 -0.187,-6.33 0.075,-12.62 0.516,-18.89 0,-7.72 0.098,-15.44 0.41,-23.15 1.238,-31.03 6.231,-61.68 14.297,-91.66 8.078,-30.01 18.395,-59.98 32.082,-87.91 14.981,-30.58 34.379,-59.18 45.578,-91.51 5.727,-16.52 10.11,-35.37 9.742,-53.69 -9.636,-4.27 -19.199,-8.93 -28.152,-14.38 -6.875,-3.57 -13.57,-7.49 -19.914,-12.08 -2.02,-1.46 -4.16,-3.12 -6.305,-4.89 -4.718,-4.95 -8.98,-10.3 -12.433,-16.26 -9.125,-15.73 -9.844,-33.98 -9.016,-51.74 0.055,-1.18 0.152,-2.35 0.231,-3.54 11.074,-57.64 36,-111.36 72.546,-156.27 28.122,-28.39 60.95,-51.62 97.067,-68.73 72.832,-34.51 154.945,-44.72 234.805,-39.36 40.441,2.72 80.605,9.2 119.918,19.04 49.332,12.35 96.242,31.05 142.112,52.84 43.41,20.62 86.76,41.76 129.12,64.49 36.72,26.7 74.15,52.38 111.73,77.85 22.51,18.72 44.87,37.64 66.24,57.66 31.53,29.54 59.5,62.3 85.78,96.45 6.81,7.58 13.66,15.23 19.98,23.21 l 0.36,-1.39 c 43.43,59.05 78.99,124.3 100.46,194.54 22.28,72.86 30.09,150.57 19.69,226.18" /><path
         id="path38"
         style="fill:#ffffff;fill-opacity:1;fill-rule:nonzero;stroke:none"
         d="m 1616.82,2536.53 c -14.76,-74.44 -46,-144.66 -87.28,-208.09 l -0.55,-0.78 c -18.79,-26.02 -38.2,-51.56 -58.25,-76.63 l -0.5,-0.61 c -13.57,-14.57 -27.44,-28.86 -41.51,-42.92 -21.29,-21.28 -43.79,-41.19 -66.24,-61.22 -10.82,-9.65 -21.43,-19.54 -32.53,-28.87 -11.03,-9.25 -22.68,-17.4 -34.53,-25.56 -17.07,-11.75 -33.87,-23.93 -51.18,-35.32 -36.02,-20.06 -73.07,-38.46 -110.16,-56.69 -46.79,-23 -94.1,-45.72 -144.266,-60.48 -37.488,-11.03 -75.937,-19.02 -114.761,-23.55 -77.469,-9.04 -158.145,-3.99 -231.508,23.9 -36.071,13.71 -69.864,33.23 -99.414,58.08 -15.426,12.97 -29.571,27.37 -42.36,42.95 -4.422,5.38 -8.773,10.89 -12.996,16.51 -18.543,24.67 -39.867,66.8 -42.73,105.3 1.621,7.42 2.593,14.75 3.34,22.42 0.921,9.46 3.339,18.57 8.109,26.84 2.969,5.15 6.605,9.78 10.68,14 4.199,3.82 8.664,7.38 13.414,10.62 3.363,2.67 6.882,5.17 10.445,7.61 l 1.004,0.61 c 5.168,2.98 10.512,5.62 15.914,8.15 6.625,2.72 13.082,5.29 18.945,7.85 3.739,1.63 7.446,3.35 11.11,5.15 l 0.418,0.18 c 19,8.1 37.949,16.4 56.191,26.12 17.449,9.29 34.691,19.38 49.988,31.96 -12.168,-5.71 -24.574,-10.94 -36.984,-16.07 -11.852,-4.91 -23.762,-9.68 -35.477,-14.91 -6.066,-2.71 -12.168,-5.44 -18.422,-7.7 -2.136,-1.29 -4.281,-2.57 -6.464,-3.78 -4.496,-1.96 -8.957,-3.99 -13.493,-5.89 -3.66,-1.54 -7.386,-3.09 -11.128,-4.66 0.21,2.17 0.402,4.34 0.691,6.51 -0.395,9.6 -1.785,19.21 -3.953,28.48 -6.414,27.45 -19.555,52.5 -33.035,77.03 -7.254,13.22 -14.645,26.38 -21.114,40.01 -6.918,14.57 -12.539,29.81 -17.812,45.05 -10.402,30.07 -18.449,61.02 -22.609,92.6 -6.829,51.82 -3.329,105.66 4.972,157.1 8.301,51.42 22.469,101.98 42.469,150.08 2.016,4.85 4.18,9.63 6.332,14.42 28.125,48.76 66.355,91.63 111.234,125.66 64.004,48.54 139,80.73 214.864,105.76 82.214,27.12 168.804,44.65 255.596,44.87 81.27,0.21 163.55,-16.45 237.38,-50.77 74.72,-34.73 138.42,-89.41 193.57,-149.96 27.57,-30.26 54.32,-62.52 75.87,-97.42 19.52,-31.61 34,-66.09 43.68,-101.95 19.49,-72.22 19.53,-148.86 5.04,-221.99" /><path
         id="path40"
         style="fill:#000000;fill-opacity:1;fill-rule:nonzero;stroke:none"
         d="m 1356.33,2469.18 c -10.44,-34.85 -28.78,-67.2 -53.98,-93.49 -12.81,-13.35 -27.39,-25.66 -43.51,-34.84 -16.99,-9.69 -35.86,-15.73 -54.85,-20.09 -41.14,-9.42 -84.1,-14.03 -126.28,-13.18 -12.29,0.24 -24.56,0.93 -36.79,2.04 -6.47,0.58 -12.94,1.24 -19.39,2 -3.02,0.36 -6.04,0.76 -9.06,1.15 -1.42,0.18 -4.16,-0.04 -5.51,0.56 -1.18,0.53 -0.54,-0.43 -1.05,1.69 -0.56,2.37 -0.6,4.88 -0.49,7.29 0.23,5.36 1.05,10.58 0.97,15.97 -0.03,2.3 -0.15,4.6 -0.27,6.9 0.1,5.07 0.17,10.14 0.33,15.22 0.77,24.4 3.8,48.95 7.04,73.13 7.02,32.24 14.14,64.45 33.57,92 21.25,30.14 54.76,51.35 89.69,62.04 68.13,20.85 140.85,8.23 210.76,11.56 6.9,0.33 13.87,0.75 20.84,1.33 -0.12,-44.01 0.74,-88.69 -12.02,-131.28 z m 101.21,181.92 c -10.61,-4.44 -20.94,-9.96 -32.05,-13.09 -12.28,-3.46 -25.39,-4.24 -38.08,-4.59 -4.38,-0.13 -8.76,-0.15 -13.14,-0.14 2.33,1.03 4.63,2.1 6.91,3.29 17.51,9.12 39.59,22.22 45.03,42.58 2.38,3.54 3.56,7.27 2.1,10.89 l -1.64,-0.53 c -0.25,-6.56 -8.11,-11.38 -12.99,-14.64 -4.54,-3.04 -9.19,-5.9 -13.7,-8.99 -16.1,-11.02 -34.98,-17.42 -53.73,-22.31 -7.14,-1.86 -14.36,-3.4 -21.62,-4.77 16,8.68 31.95,19.31 39.77,35.72 l 0.18,0.88 c 0.9,1.43 1.78,2.89 2.62,4.44 0.83,1.51 -1.35,1.72 -2.03,0.59 -0.85,-1.43 -1.9,-2.75 -3.03,-4.03 l -1.5,-0.78 c -1.09,-1.37 -2.29,-2.63 -3.46,-3.91 -5.88,-4.69 -13.1,-8.27 -19.24,-11.25 -9.73,-4.71 -19.84,-8.42 -30.1,-11.82 -11.29,-3.75 -22.78,-6.84 -34.36,-9.53 -37.52,2.44 -75.45,2.94 -111.68,-7.68 -39.38,-11.56 -78.35,-32.84 -105.39,-64.25 -29.24,-33.95 -43.93,-77.07 -50.99,-120.72 -4.43,-27.33 -7.334,-55.61 -7.67,-83.29 -0.137,-11.05 0.438,-22.14 0.746,-33.19 0.027,-1.11 0.055,-2.31 0.082,-3.55 -1.043,-5.7 -1.894,-11.56 -0.101,-16.62 1.853,-5.23 9.823,-4.45 14.263,-5.1 11.5,-1.66 23.04,-2.94 34.62,-3.78 46.18,-3.37 92.1,0.24 137.61,8.39 20.18,3.61 40.3,8.52 59.22,16.54 18.25,7.73 34.51,18.8 49.4,31.79 29.03,25.32 51.3,57.94 65.11,93.86 18.46,48.06 18.34,99.08 18.08,149.79 12.51,1.39 24.92,3.58 36.81,7.41 9.72,3.13 18.42,7.6 26.15,14.31 7.96,6.89 14.46,15.19 21.22,23.2 2.5,2.98 0.39,6.47 -3.42,4.88" /><path
         id="path42"
         style="fill:#000000;fill-opacity:1;fill-rule:nonzero;stroke:none"
         d="m 1298.36,2693.17 c -17.61,-0.02 -35.01,1.01 -52.63,-0.29 -17.21,-1.28 -34.38,-3.86 -51.15,-7.93 -31.85,-7.72 -63.73,-18.68 -91.95,-35.56 -50.96,-30.46 -87.43,-81.92 -103.431,-138.66 -9.984,-35.42 -17.051,-74.37 -14.547,-111.24 0.149,-2.16 3.399,-0.98 3.446,0.72 0.82,33.53 6.711,66.28 16.032,98.47 7.82,27.02 18.72,53.52 34.11,77.15 15.37,23.6 35.32,44.38 58.6,60.29 26.14,17.87 56.36,29.33 86.64,37.99 17.77,5.07 35.9,8.73 54.25,10.89 19.52,2.31 39.67,4.36 59.33,4.39 2.13,0 4.12,3.78 1.3,3.78" /><path
         id="path44"
         style="fill:#000000;fill-opacity:1;fill-rule:nonzero;stroke:none"
         d="m 1233.31,2733.29 c -4.33,9.03 -8.71,18.25 -15.27,25.92 -6.97,8.14 -15.75,13.53 -25.63,17.48 -21.95,8.76 -46.76,8.87 -69.44,2.95 -40.45,-10.57 -75.84,-36.6 -101.14,-69.51 -13.21,-17.17 -23.236,-36.49 -28.767,-57.43 -1.415,-2.46 -2.821,-4.93 -4.223,-7.38 -3.996,-6.94 5.496,-9.34 9.578,-4.45 25.972,31.1 59.532,54.67 97.322,69.24 20.72,7.99 42.44,13.18 64.37,16.59 11.77,1.82 23.74,3.28 35.68,2.59 10.23,-0.59 19.64,-5.22 29.91,-5.68 4.8,-0.21 9.84,5.01 7.61,9.68" /><path
         id="path46"
         style="fill:#3b3b3b;fill-opacity:1;fill-rule:nonzero;stroke:none"
         d="m 1322.07,2458.54 c 0,-76.9 -62.34,-139.25 -139.25,-139.25 -76.9,0 -139.25,62.35 -139.25,139.25 0,76.91 62.35,139.26 139.25,139.26 76.91,0 139.25,-62.35 139.25,-139.26" /><path
         id="path48"
         style="fill:#0a0a0a;fill-opacity:1;fill-rule:nonzero;stroke:none"
         d="m 1274.73,2458.02 c 0,-45.96 -37.25,-83.2 -83.2,-83.2 -45.95,0 -83.2,37.24 -83.2,83.2 0,45.94 37.25,83.19 83.2,83.19 45.95,0 83.2,-37.25 83.2,-83.19" /><path
         id="path50"
         style="fill:#fdfdfd;fill-opacity:1;fill-rule:nonzero;stroke:none"
         d="m 1145.79,2484.78 c 0,-16.68 -13.52,-30.19 -30.19,-30.19 -16.68,0 -30.19,13.51 -30.19,30.19 0,16.67 13.51,30.19 30.19,30.19 16.67,0 30.19,-13.52 30.19,-30.19" /><path
         id="path52"
         style="fill:#fdfdfd;fill-opacity:1;fill-rule:nonzero;stroke:none"
         d="m 1143.29,2413.31 c 0,-10.87 -8.82,-19.68 -19.69,-19.68 -10.87,0 -19.69,8.81 -19.69,19.68 0,10.88 8.82,19.69 19.69,19.69 10.87,0 19.69,-8.81 19.69,-19.69" /><path
         id="path54"
         style="fill:#000000;fill-opacity:1;fill-rule:nonzero;stroke:none"
         d="m 1979.23,2639.76 c -2.17,37.03 -7.42,73.99 -17.54,109.72 -10.03,35.45 -25.55,68.48 -43.95,100.3 -18.78,32.48 -40.2,63.63 -64.83,91.97 -24.59,28.29 -52.86,52.24 -83.7,73.46 -31.95,21.99 -66.08,40.83 -101.66,56.27 -37.27,16.18 -76.61,23.68 -116.22,31.48 -10.08,1.98 -20.2,3.72 -30.27,5.72 l 0.41,2.21 c -3.81,5.64 -10.12,-1.73 -12.23,-5.16 -5.48,-8.89 -8.1,-19.92 -10.85,-29.87 -7.44,-27.04 -14.2,-55.67 -13.56,-83.79 0.47,-20.85 6.07,-40.02 15.36,-58.59 9.39,-18.79 21.28,-36.16 32.28,-54.01 22.34,-36.24 36.15,-75.56 44.9,-117.09 17.65,-83.81 24.79,-175.12 -3.46,-257.46 -12.42,-36.18 -32.05,-68.79 -53.97,-99.94 -20.16,-28.65 -41.24,-56.38 -65.08,-82.09 -23.19,-25.02 -47.4,-49.2 -68.57,-76.02 -19.61,-24.86 -38.14,-52.94 -45.07,-84.3 -1.21,-5.47 -1.98,-11.05 -2.42,-16.64 -34.54,-27.45 -65.48,-58.15 -90.79,-94.8 -14.95,-21.66 -29.39,-44.23 -38.42,-69.09 -8.34,-22.94 -12.24,-50.68 1.77,-72.19 -5.02,-11.27 -9.1,-22.96 -12.42,-34.78 -7.08,-25.26 -11.32,-51.24 -11.21,-77.5 0.4,-90.76 47.29,-176.23 36.63,-267.64 -3.34,-28.59 -13.2,-75.49 -49.67,-76.06 -1.65,3.39 -8.88,-0.84 -9.24,-4.18 -2.85,-26.88 42.06,-20.7 57.21,-17.51 31.67,6.66 60.73,25.06 81.1,50.04 7.92,9.72 14.57,20.14 20.47,30.98 1.07,-14.53 3.31,-29.02 6.97,-43.33 11.61,-45.36 35.11,-88.25 69.24,-120.55 34.44,-32.59 79.56,-50.42 127.02,-49.54 24.7,0.45 50.01,5.31 74.1,10.6 23.35,5.14 46.69,14.2 62.78,32.63 2.77,3.18 1.63,8.11 -3.29,7.09 -40.17,-8.34 -80.4,5.59 -109.23,34.29 -7.25,7.2 -13.74,15.18 -19.45,23.72 22.76,-8.23 49.74,-6.76 71.78,0.76 16.59,5.66 30.71,16.56 41.71,30.06 1.89,2.31 2.02,5.66 -1.62,6 -12.31,1.14 -25.06,-1.71 -37.22,0.94 -13.19,2.86 -23.04,12.58 -30.24,23.51 -13.98,21.21 -19.66,46.64 -15.21,71.67 8.87,49.85 51.28,86.27 85.53,119.99 39.97,39.33 79.31,79.9 110.35,126.85 32.79,49.63 55.84,107.05 65.66,165.77 5.65,33.79 6.72,68.91 -0.36,102.56 -2.85,13.52 -6.78,26.81 -12.46,39.4 -2.89,6.42 -6.16,12.64 -9.23,18.96 29.76,36.23 54.29,76.57 71.56,120.64 19.77,24.41 35.92,52.36 49.92,80.15 16.31,32.35 29.34,66.32 38.33,101.42 9.2,35.93 13.54,72.66 16.48,109.57 3,37.7 4.09,75.62 1.88,113.4" /><path
         id="path56"
         style="fill:#ffffff;fill-opacity:1;fill-rule:nonzero;stroke:none"
         d="m 1968.51,2553.45 c -1.87,-36.17 -4.91,-72.72 -11.74,-108.32 -12.36,-64.41 -38.8,-123.81 -73.44,-178.91 10,33.08 15.97,67.15 19.1,101.69 5.18,57.16 5.83,114.66 0.6,171.84 -2.61,28.5 -7.09,56.77 -12.85,84.79 -5.59,27.1 -11.67,54.37 -19.64,80.89 -14.08,46.82 -37.95,87.99 -65.78,127.84 -3.91,5.59 -7.93,11.09 -11.91,16.62 -1.17,0.9 -2.36,1.77 -3.56,2.63 23.75,-37.94 45.81,-77.14 61.53,-119.14 9.22,-24.65 15.23,-50.18 21.01,-75.81 6.23,-27.64 11.66,-55.47 15.67,-83.51 8.16,-56.94 9.24,-114.89 5.93,-172.26 -2.74,-47.35 -8.18,-94.29 -22.59,-139.65 -3.74,-11.76 -8.06,-23.25 -12.8,-34.52 l -1.7,-2.62 c -0.64,-1.02 -0.71,-1.84 -0.47,-2.47 -27.16,-62.22 -69.13,-116.79 -120.35,-161.87 -35.25,-31.02 -74.54,-56.69 -114.77,-80.72 -47.8,-28.55 -97.01,-54.65 -145.93,-81.2 -67.45,-36.61 -149.65,-66.56 -182.82,-141.88 -2.29,-5.2 -4.26,-10.51 -5.99,-15.9 8.53,18.2 21.46,33.93 36.59,47.78 10.54,12.78 22.85,24.24 36.62,34.35 32.2,23.66 68.88,40.21 104.1,58.71 48.17,25.29 96.07,51.4 143.14,78.68 42.35,24.55 84.13,50.38 121.96,81.58 23.88,19.7 46.1,41.31 66.13,64.7 1.77,-4.72 3.65,-9.4 5.44,-14.1 4.06,-10.7 7.18,-21.49 9.65,-32.68 7.01,-31.75 7.72,-63.62 3.49,-95.83 -7.95,-60.73 -31.22,-120.51 -64.71,-171.66 -31.48,-48.05 -72.04,-89.18 -112.88,-129.24 -34.99,-34.3 -75.27,-71.2 -85.47,-121.36 -5.68,-27.92 0.18,-56.29 16.17,-79.91 7.93,-11.73 18.94,-22.22 33.17,-25.31 11.42,-2.49 23.09,-0.56 34.67,0.1 -25.07,-24.09 -65.94,-29.85 -97.85,-16.78 -5.76,2.36 -11.03,5.45 -15.76,9.17 -9.44,19.94 -15.02,41.77 -16.02,63.58 -0.4,8.76 -0.07,17.57 0.97,26.31 -9.46,-37.85 -3.45,-78.78 13.42,-114.22 16.32,-26.45 40.01,-48.04 69.22,-59.29 18.89,-7.28 39.2,-9.33 59.13,-6.93 -12.22,-9.21 -27.26,-13.91 -42.39,-17.26 -20.18,-4.46 -41.45,-8.3 -62.06,-9.87 -44.86,-3.44 -88.21,9.76 -122.99,38.43 -34.18,28.16 -58.47,67.88 -71.96,109.77 -8.15,25.28 -11.99,51.26 -11.91,77.41 5.48,12.44 10.4,25.18 15.3,37.88 15.87,41.17 38.66,79.56 69.53,111.27 17.56,18.04 37.37,33.73 57.58,48.69 10,7.4 20.13,14.63 30.11,22.06 l 0.35,0.27 c 5.08,5.38 10.08,10.83 14.93,16.4 -13.43,-8.71 -27.39,-16.75 -40.62,-25.7 -17.43,-11.79 -34.52,-23.99 -50.5,-37.7 -32,-27.46 -57.95,-60.48 -77.12,-98.05 -6.09,-11.95 -11.22,-24.32 -16.16,-36.76 -4.16,-12.25 -9.01,-24.18 -15.52,-35.32 -0.03,-1.05 -0.13,-2.1 -0.15,-3.15 -3.83,-8.66 -7.98,-17.18 -12.72,-25.43 -15.95,-27.75 -38.18,-50.22 -68.26,-62.19 -5.64,-2.24 -11.43,-4.02 -17.3,-5.43 19.29,10.04 35.2,29.18 43.96,49.69 0.51,1.19 0.41,2.06 0.03,2.7 -7.02,-9.7 -15.29,-18.42 -24.75,-25.73 -5.24,-6.14 -11.14,-11.67 -17.88,-16.04 -11.27,-7.31 -23.77,-9.45 -35.97,-6.76 21.63,9.39 34.22,33.42 40.32,56.61 7.49,28.49 8.53,58 5.74,87.18 l 0.71,1.68 c -2.38,14.97 -3.5,30.14 -5.09,45.2 -1.53,14.5 -3.12,29.02 -4.06,43.58 -1.61,25.09 -1.96,50.34 2.32,75.19 8.37,48.49 37.39,90.28 71.13,124.92 62.88,64.55 144.59,105.72 215.2,160.62 39.06,30.37 73.93,64.55 100.09,106.79 0.79,1.27 -1.12,1.43 -1.74,0.51 -51.69,-76.5 -134.23,-123.69 -209.27,-173.84 -37.8,-25.26 -75,-51.91 -107.35,-84.03 -33.98,-33.74 -64.38,-74.53 -76.32,-121.59 -6.85,-27.01 -7.67,-55.27 -4.16,-82.85 l 0.18,-1.24 c -5.94,24.7 -11.77,49.41 -15.17,74.61 -7.09,52.43 -0.49,108.13 23.45,155.79 13.48,26.81 33.61,48.13 56.34,67.38 11.08,9.38 22.65,18.36 33.84,27.76 6.66,8.17 13.33,16.33 19.87,24.6 -36.59,-29.21 -77.95,-54.36 -105.81,-92.55 -4.93,-6.76 -9.29,-13.92 -13.22,-21.3 -5.15,19.43 -3.31,38.74 3.64,58.16 7.93,22.2 20.59,42.43 33.78,61.82 13.99,20.56 29.12,39.84 46.75,57.43 13.58,13.55 28.13,26.05 43.2,37.91 l 1.59,1.26 c 4.88,3.82 9.79,7.57 14.75,11.26 41.38,30.81 86.15,57.17 126.16,89.79 38.42,31.32 72.34,68.15 99.46,109.69 14.99,22.96 28.05,47.68 37.74,73.35 2.64,7 4.92,14.02 6.96,21.07 2.29,11.62 3.79,23.34 4.23,35.08 -4.96,-17.65 -11.65,-35.04 -18.68,-51.67 -9.83,-23.31 -21.38,-45.85 -35.01,-67.18 -26.83,-41.99 -60.39,-79.47 -98.92,-111.07 -40.41,-33.12 -85.81,-59.69 -127.72,-90.82 -1.94,-1.44 -3.83,-2.94 -5.76,-4.41 10.65,59.12 58.04,105.68 97.69,147.68 22.48,23.81 43.43,48.15 62.96,74.45 21.85,29.42 42.72,59.53 58.63,92.66 35.55,74.01 38.86,157.49 28.43,237.72 -5.26,40.43 -12.81,81.26 -26.89,119.63 -6.87,18.73 -15.53,36.67 -25.84,53.76 -10.47,17.37 -22.04,34.07 -31.75,51.9 -10.2,18.71 -17.35,38.25 -18.2,59.73 -0.36,8.98 0.15,17.97 1.15,26.92 1.58,-1.24 3.27,-2.24 5.02,-3.27 l 1.06,0.55 c 4.63,-2.26 9.08,-4.69 13.43,-7.89 7.75,-5.7 14.86,-12.37 21.62,-19.2 12.51,-12.66 24.1,-26.29 35.67,-39.82 31.38,-36.69 56.19,-78.43 75.92,-122.41 21.62,-48.19 37.96,-98.47 50.46,-149.74 13.04,-53.51 24.29,-107.66 26.92,-162.81 1.43,-30.18 0.27,-60.25 -4.75,-90.08 -3.95,-23.41 -9.52,-46.49 -15.25,-69.53 3.41,5.53 6.16,11.56 8.62,17.18 1.14,2.59 2.2,5.22 3.24,7.86 9.33,38.27 16.89,76.91 17.07,116.52 0.27,56.87 -8.34,112.95 -20.89,168.29 -22.75,100.34 -58.83,203.12 -125.06,283.45 -13.42,16.27 -27.63,32.14 -42.78,46.82 -7.93,7.67 -16.25,15.04 -25.55,21.04 -6.64,4.28 -15.07,8.77 -23.25,7.93 l -0.94,-0.33 c 1.08,8.32 2.53,16.59 4.13,24.78 3.65,18.78 7.3,38.33 14.59,56.08 0.42,1.02 0.86,3.11 1.79,3.82 0.7,0.53 -0.26,0.73 0.91,-0.23 l 0.32,-0.16 c -0.49,-0.65 -0.57,-1.41 0.39,-1.68 37.35,-10.69 75.66,-18.31 112.48,-30.82 36.79,-12.51 71.99,-30.75 104.94,-51.24 31.48,-19.57 62.22,-41.78 88.36,-68.17 25.89,-26.13 48.25,-55.74 68.05,-86.69 19.63,-30.68 37.65,-62.99 50.07,-97.3 12.45,-34.44 19.82,-70.56 23.66,-106.94 3.91,-37 4.11,-74.37 2.19,-111.5" /><path
         id="path58"
         style="fill:#000000;fill-opacity:1;fill-rule:nonzero;stroke:none"
         d="m 502.426,2721.61 c -8.383,6.86 -17.774,11.76 -28.848,10.45 -10.949,-1.29 -21.523,-7.49 -29.09,-15.35 -7.187,-7.47 -13.105,-17.99 -10.488,-28.42 -1.203,-4.61 4.922,-5.67 7.938,-3.26 14.316,11.47 33.652,11.68 50.07,4.47 7.558,-3.31 14.453,-8.53 19.043,-15.42 4.371,-6.56 7.523,-13.79 13.652,-18.99 3.551,-3.01 9.527,1.89 9.867,5.61 2.16,23.18 -15.113,46.97 -32.144,60.91" /><path
         id="path60"
         style="fill:#000000;fill-opacity:1;fill-rule:nonzero;stroke:none"
         d="m 638.777,2338.12 c -0.168,11.97 -0.964,23.84 -2.254,35.74 -2.73,25.21 -7.339,50.25 -13.343,74.89 -3.535,14.52 -8.063,28.98 -13.512,43.14 -3.059,9.58 -7.32,18.81 -11.309,28.05 -6.093,14.1 -13.031,28.22 -20.781,41.48 -6.996,11.97 -15.797,23.25 -25.894,32.75 -2.168,2.04 -4.344,3.92 -6.551,5.69 -17.738,17.66 -40.207,31.06 -65.153,30.6 -9.382,-0.17 -17.214,-3.45 -24.835,-8.8 -3.364,-2.36 -6.469,-5.27 -9.61,-8.11 -1.875,-2.89 -3.492,-5.92 -4.922,-9.03 10.395,3.54 18.434,13.84 29.399,16.34 17.758,4.05 38.703,-6.05 52.722,-16.14 1.829,-1.31 3.536,-2.81 5.293,-4.23 1.524,-1.98 2.993,-3.92 4.399,-5.64 2.601,-3.2 5.195,-6.41 7.754,-9.63 -3.598,3.41 -7.414,6.6 -11.563,9.44 -16.355,11.19 -37.527,15.22 -56.601,9.12 -11.942,-3.82 -21.797,-11.66 -30.918,-20.12 l -1.52,0.04 c -6.07,0.43 -12.101,1.89 -17.414,4.91 l -1.605,-1.38 c 4.113,-4.37 9.086,-7.37 14.851,-8.96 l -2.015,-1.93 c -2.09,-2.03 -4.192,-3.98 -6.321,-5.85 -2.511,-0.38 -5.058,-0.6 -7.636,-0.61 -5.012,-0.03 -10.145,0.39 -15.036,1.55 -4.828,1.16 -9.949,2.68 -13.855,5.82 l -1.238,-1.3 c 3.961,-3.37 7.754,-6.49 12.554,-8.59 5.047,-2.22 10.321,-3.44 15.805,-3.85 l 0.418,-0.01 c -5.789,-3.87 -11.957,-6.56 -18.777,-7.32 -3.7,1.37 -7.329,3.01 -10.786,4.78 -2.507,1.29 -5.226,2.66 -7.777,4.25 1.867,-6.03 5.266,-11.74 9.348,-16.26 1.902,-2.11 3.992,-4.06 6.234,-5.76 1.445,-0.59 2.918,-1.12 4.426,-1.58 6.809,-2.06 14.516,-2.36 21.371,-0.34 4.254,1.25 8.859,3.53 12.617,6.65 -0.726,-14.34 1.606,-29.28 4.024,-42.03 6.808,-35.88 18.285,-71.21 30.867,-105.44 9.262,-25.19 16.672,-53.22 32.539,-75.25 7.637,-10.6 17.598,-19.01 30.137,-23.11 14.195,-4.64 29.668,-4.3 44.339,-2.75 4.309,0.45 8.618,1 12.922,1.58 16.387,4.01 32.266,9.68 47.246,18.24 2.106,5.97 2.051,12.74 1.961,18.96" /><path
         id="path62"
         style="fill:#ffffff;fill-opacity:1;fill-rule:nonzero;stroke:none"
         d="m 623.801,2333.27 c -0.317,-8.65 -1.281,-17.11 -10.543,-20.3 -6.203,-2.13 -12.93,-2.68 -19.391,-3.5 -6.527,-0.83 -13.008,-1.91 -19.57,-2.45 -14.359,-1.17 -30.117,-1.03 -43.317,5.48 -10.531,5.19 -18.347,14.25 -24.394,24.11 -12.938,21.08 -19.227,46.21 -27.16,69.45 -10.676,31.29 -20.852,62.72 -28.102,95 -4.281,19.07 -7.851,38.89 -6.402,58.33 0.707,2.31 1.578,4.56 2.539,6.75 1.957,6.28 5.816,11.28 10.863,15.04 l 0.012,0.07 0.418,0.38 c 2.016,1.56 4.172,2.71 6.391,3.6 9.957,4.68 22.253,5.99 33.101,4.17 25.317,-4.26 46.934,-22.76 62.899,-41.91 16.414,-19.68 28.324,-42.59 37.261,-66.52 9.227,-24.68 15.262,-50.47 19.684,-76.42 2.148,-12.58 3.926,-25.24 5.711,-37.88 1.554,-11.05 2.648,-22.51 0,-33.4" /><g
         id="g64"><g
           clip-path="url(#clipPath70)"
           id="g66"><path
             id="path72"
             style="fill:#3b3b3b;fill-opacity:1;fill-rule:nonzero;stroke:none"
             d="m 704.48,2476.05 c 13.739,-75.09 -25.714,-145.21 -88.117,-156.62 -62.398,-11.41 -124.117,40.21 -137.851,115.29 -13.731,75.09 25.718,145.21 88.121,156.63 62.394,11.41 124.113,-40.21 137.847,-115.3" /><path
             id="path74"
             style="fill:#0a0a0a;fill-opacity:1;fill-rule:nonzero;stroke:none"
             d="m 666.168,2468.51 c 8.203,-44.86 -15.367,-86.76 -52.652,-93.58 -37.282,-6.82 -74.157,24.02 -82.364,68.89 -8.203,44.86 15.368,86.75 52.649,93.57 37.285,6.82 74.16,-24.02 82.367,-68.88" /><path
             id="path76"
             style="fill:#fdfdfd;fill-opacity:1;fill-rule:nonzero;stroke:none"
             d="m 556.762,2475.51 c 2.98,-16.28 -5.574,-31.49 -19.106,-33.96 -13.523,-2.48 -26.902,8.72 -29.883,25 -2.976,16.27 5.579,31.48 19.102,33.95 13.531,2.48 26.91,-8.72 29.887,-24.99" /><path
             id="path78"
             style="fill:#fdfdfd;fill-opacity:1;fill-rule:nonzero;stroke:none"
             d="m 567.5,2405.36 c 1.938,-10.62 -3.637,-20.53 -12.461,-22.14 -8.824,-1.62 -17.551,5.68 -19.488,16.29 -1.942,10.62 3.633,20.54 12.457,22.15 8.824,1.61 17.551,-5.69 19.492,-16.3" /></g></g><path
         id="path80"
         style="fill:#000000;fill-opacity:1;fill-rule:nonzero;stroke:none"
         d="m 1409.71,3151.63 c 3.38,26.93 2.91,54.26 -2.55,80.95 -12.65,61.76 -52.39,117.7 -105.61,151.13 -49.78,31.26 -109.39,45.39 -167.63,48.34 -57.32,2.9 -116.36,-4.19 -171.443,-20.32 -54.262,-15.88 -108.082,-42.77 -143.368,-88.31 -1.668,-2.16 -3.234,-4.37 -4.808,-6.59 -65.332,-17.5 -128.321,-49.78 -174.922,-98.59 -23.617,-24.74 -42.488,-53.09 -60.008,-82.29 -11.933,-3.5 -23.683,-7.58 -35.172,-12 -37.582,-14.47 -74.48,-32.55 -107.488,-55.73 -65.34,-45.87 -113.012,-115.36 -141.398,-189.32 -14.243,-37.1 -23.672,-76.22 -27.172,-115.83 -3.883,-43.93 -1.129,-89.12 3.613,-132.88 5.07,-46.87 16.961,-92.69 16.051,-140.13 -0.407,-21.16 -2.274,-42.45 -9.567,-62.45 -6.855,-18.79 -17.414,-36.22 -30.136,-51.61 -23.204,-28.07 -56.27,-55.38 -92.793,-62.97 -17.106,-3.55 -36.161,-2.46 -50.836,7.86 -15.4652,10.87 -24.6878,30.41 -20.18,49.16 2.2109,9.21 7.1797,17.29 13.4804,24.25 1.8164,2.02 2.3246,6.87 -1.7461,6.47 l -2.1132,-0.3 c -1.1914,0.47 -2.7461,0.4 -4.1485,-0.59 l -0.3164,-0.26 c -22.2031,-5.33 -35.7422,-25.7 -42.2304,-47.12 -6.9688,-22.99 -9.2891,-51.07 -1.4415,-74.17 5.4571,-16.06 16.7071,-29.17 29.836,-39.57 14.9922,-11.88 32.3747,-22.32 49.6797,-30.41 36.133,-16.89 80.105,-24.07 119.199,-14.2 14.871,3.76 28.738,9.8 41.758,17.38 45.816,-12.43 91.563,24.2 121.273,54.83 28.305,29.17 50.508,63.85 62.614,102.38 1.406,6.51 3.168,12.96 5.066,19.36 -1.301,3.43 -2.59,6.86 -3.777,10.34 -0.844,2.47 -1.645,4.98 -2.418,7.51 -3.578,8.23 -7.059,16.51 -10.274,24.97 -9.636,25.43 -18.285,51.46 -24.98,77.83 -13.641,53.74 -18.563,110.4 -8.859,165.26 4.71,26.65 12.972,53.3 25.835,77.19 11.536,21.4 26.79,40.46 44.352,57.22 17.191,16.39 36.461,30.49 56.523,43.15 20.489,12.93 42.094,23.7 63.231,35.48 24.066,13.41 50.148,29.01 71.258,48.82 -16.367,-60.16 -14.711,-126.25 -47.692,-180.57 -14.507,-23.89 -35.957,-47.59 -64.609,-53.05 -23.922,-4.55 -56.586,4.12 -62.973,30.98 -1.722,7.26 -1.011,14.45 1.11,21.53 0.898,3 -2.746,3.78 -4.707,2.22 -22.575,-17.91 -24.317,-54.65 -13.571,-79.51 12.254,-28.34 39.688,-47.03 67.133,-58.88 64.61,-27.89 138.918,-23.64 204.188,-0.44 70.586,25.08 134.832,71.55 185.461,126.35 44.406,48.05 79.036,107.21 134.066,144.47 28.55,19.33 61.53,29.41 95.39,34.56 24.55,3.73 50.72,4.89 75.5,0.13 42.94,-3.52 89.88,-19.24 109.6,-57.24 0.99,0.6 1.83,1.35 2.22,2.15 7.89,15.99 15.91,31.92 21.08,49.06 5.47,18.1 8.61,36.83 11.99,55.42 6.91,38.1 8.95,76.18 9.05,114.83 0.02,10.48 0.18,20.86 0.91,31.33 0.72,10.33 2.47,21.68 -0.22,31.81 l -0.31,0.61" /><path
         id="path82"
         style="fill:#ffffff;fill-opacity:1;fill-rule:nonzero;stroke:none"
         d="m 1403.27,3107.8 c -0.24,-4.36 -0.59,-8.71 -0.98,-13.04 -0.11,-5.81 -0.21,-11.62 -0.38,-17.43 -0.71,-23.52 -2.79,-47.33 -5.69,-70.67 -2.92,-23.51 -7.13,-47.12 -12.37,-70.22 -4.41,-19.39 -11.47,-37.12 -19.91,-54.76 -4.31,7.36 -10.96,13.42 -17.66,18.54 -1.34,1.03 -2.73,1.99 -4.11,2.97 -3.96,1.48 -7.75,3.59 -11.26,5.78 -3.38,2.12 -6.61,4.45 -9.8,6.85 -2.6,1.3 -5.24,2.55 -7.91,3.66 -12.34,5.1 -25.37,8.34 -38.53,10.43 -4.25,1.07 -8.53,2.07 -12.84,2.89 -16.64,3.13 -33.5,3.31 -50.37,2.43 -34.97,-1.84 -69.57,-9.09 -101.99,-22.44 l -2.34,-0.31 c -7.27,-3.52 -14.4,-7.28 -21.26,-11.46 -43.52,-27.56 -76.2,-69.82 -108.413,-109.85 -21.305,-26.47 -43.57,-51.7 -68.887,-74.44 -27.972,-25.14 -58.687,-47.66 -91.761,-65.63 -63.25,-34.36 -137.204,-52.31 -208.621,-36.64 -30.223,6.63 -61.055,18.53 -84.012,39.9 -21.688,20.19 -33.696,51.55 -24.641,80.82 1.07,3.46 2.508,6.7 4.332,9.68 -0.781,-8.89 0.524,-17.72 5.113,-25.82 5.926,-10.46 16.211,-17.45 27.215,-21.73 25.989,-10.1 54.364,-2.93 75.793,13.86 23.129,18.12 39.848,44.35 50.59,71.44 13.738,34.63 17.781,72.41 24.168,108.84 3.684,21.02 8.496,41.71 15.395,61.72 l 1.41,1.85 c 1.469,4.5 3.183,8.91 5.125,13.24 l 0.035,0.12 c 0.691,2.23 1.461,4.48 2.281,6.72 l -0.722,-1.05 c 0.609,1.41 1.312,2.79 1.949,4.19 1.914,4.82 4.121,9.56 6.812,13.97 12.274,23.23 27.532,44.81 45.192,64.25 38.781,42.7 88.047,75.02 141.172,97.02 45.543,18.86 94.745,30.59 144.115,33.98 -5.85,0.83 -11.78,1.24 -17.62,1.47 -9.66,0.37 -19.35,0.34 -29.02,-0.06 -23.53,-3.37 -46.78,-8.79 -69.491,-16.18 -53.633,-17.45 -103.91,-44.94 -146.563,-81.94 -41.664,-36.16 -75.234,-81.98 -94.195,-133.98 -0.629,-1.74 -1.16,-3.51 -1.758,-5.26 -22.133,-22.24 -49.023,-39.81 -76.703,-54.92 -42.562,-23.22 -85.394,-45.07 -121.605,-77.93 -38.617,-35.05 -64.137,-79.64 -75.813,-130.43 -12.465,-54.21 -10.215,-110.88 1.211,-165.06 2.762,-13.07 6.113,-26.03 9.86,-38.88 -5.938,7.49 -11.836,15.01 -17.208,22.93 -11.425,16.85 -21.195,34.78 -29.226,53.48 -15.973,37.18 -24.938,77.34 -27.672,117.65 -5.516,81.33 10.887,166.5 63.523,230.72 14.899,18.17 31.692,34.82 50.325,49.15 19.968,15.36 42.867,25.77 65.023,37.51 1.738,0.92 1.477,3.69 -0.668,2.62 -20.086,-10 -41.144,-17.64 -59.93,-30.14 -17.863,-11.88 -34.414,-26.14 -49.128,-41.74 -28.86,-30.6 -50.762,-66.77 -63.579,-106.86 -12.902,-40.34 -17.765,-83.25 -16.968,-125.5 0.781,-41.55 7.84,-83.14 22.269,-122.17 7.989,-21.62 18.207,-42.57 31.106,-61.7 11.66,-17.3 26,-32.36 39.125,-48.45 3.191,-9.7 6.562,-19.35 10.074,-28.91 5.805,-15.81 12.246,-32.17 20.066,-47.71 -3.793,-15.55 -9.09,-30.71 -16.172,-45.14 -19.843,-40.47 -51.394,-77.89 -89.371,-102.51 -17.738,-11.5 -38.734,-20.37 -59.953,-17.62 17.797,12.24 33.953,27.11 48.848,42.6 4.281,4.46 -2.141,7.7 -5.817,3.97 -16.511,-16.75 -34.359,-32.75 -54.445,-45.05 -1.16,-0.39 -2.269,-1.1 -3.207,-1.98 -7.89,-4.62 -16.105,-8.69 -24.769,-11.93 -35.164,-13.16 -74.625,-10.13 -109.743,1.7 -18.046,6.09 -34.425,15.44 -50.4801,25.54 -14.1523,8.9 -27.9023,19.1 -37.1601,33.28 -12.0703,18.51 -13.3242,41.92 -10.5703,63.43 -1.7774,-25.99 6.9179,-52.82 26.3515,-72.61 42.602,-43.37 108.551,-36.06 159.098,-11.91 28.621,13.67 53.675,32.59 74.906,56.11 1.492,1.66 -0.762,2.75 -2.094,1.43 -18.101,-17.98 -40.582,-32.34 -63.277,-43.78 -23.692,-11.95 -49.688,-20.91 -76.309,-22.68 -25.629,-1.71 -51.289,3.9 -72.0115,19.59 -20.2968,15.37 -33.6093,38.94 -35.4453,64.43 -1.375,19.13 3.6211,37.22 13.4766,52.69 -2.6836,-7.59 -3.836,-15.68 -2.7344,-24.07 2.3477,-17.89 15.1719,-34.08 31.2816,-41.77 32.777,-15.64 70.789,-0.53 98.984,17.76 32.938,21.36 61,52.18 77.965,87.67 18.808,39.35 18.683,84.72 13.969,127.24 -2.668,24.04 -7.805,47.69 -11.106,71.64 -3.297,23.89 -5.379,47.92 -6.488,72 -2.024,43.78 -1.359,87.19 8.043,130.17 17.484,79.93 57.887,157.44 116.918,214.56 29.976,29.01 65.566,50.54 102.945,68.61 21.641,10.47 43.926,19.84 66.785,27.35 l -1.066,-1.85 c 3.379,1.73 6.844,3.31 10.371,4.78 l 0.047,0.07 0.461,0.14 c 7.215,2.97 14.672,5.49 22.347,7.54 16.04,4.26 32.383,7.18 48.5,11.03 -21.871,0.08 -43.617,-3.34 -64.847,-8.91 14.051,21.22 28.594,42.11 45.387,61.2 26.511,30.15 58.082,54.78 93.578,73.49 24.851,13.1 51.238,23.74 78.453,31.8 l -0.063,-1.27 c 1.379,0.55 2.739,1.14 4.129,1.65 l 0.731,1.02 c 30.281,8.59 61.539,13.88 92.851,15.72 27.153,2.97 54.696,5.01 82.028,4.83 -4.036,0.71 -8.079,1.37 -12.145,1.92 -40.164,5.38 -81.012,3.59 -120.848,-3.5 -11.011,-1.96 -22.023,-4.37 -32.988,-7.15 32.25,39.77 78.359,65.69 126.899,81.24 52.554,16.84 109.472,24.33 164.592,23.36 56.23,-0.99 113.87,-11.3 164.05,-37.62 54.32,-28.47 96.26,-77.19 114.93,-135.88 8.74,-27.5 11.54,-56 10.19,-84.59 1.5,-19 3.35,-37.95 2.32,-57.11" /><path
         id="path84"
         style="fill:#000000;fill-opacity:1;fill-rule:nonzero;stroke:none"
         d="m 886.941,2970.12 c -5.82,19.3 -17.371,34.81 -31.339,49.04 -7.243,7.37 -14.918,14.26 -22.454,21.32 -3.425,3.22 -6.742,6.45 -10.507,9.28 l -2.399,1.55 c -2.609,2.37 -5.226,4.73 -7.82,7.12 -8.184,7.55 -16.145,15.35 -24.484,22.72 -16.106,14.24 -32.586,28.11 -49.27,41.66 -34.52,28.05 -69.879,55.09 -105.008,82.37 -35.269,27.4 -70.629,54.7 -105.965,82.02 -34.582,26.73 -68.679,54.19 -105.132,78.37 -10.083,6.68 -20.446,12.93 -30.942,18.93 -6.855,3.92 -14.504,8.15 -22.703,6.38 l -1.539,-0.54 c -0.402,1.25 -1.68,2.05 -3.535,1.02 -10.715,-5.93 -9.961,-18.05 -7.02,-28.44 4.094,-14.43 11.821,-27.83 19.586,-40.55 23.024,-37.71 46.656,-74.94 70.848,-111.91 30.215,-46.19 59.019,-93.21 89.64,-139.14 30.829,-46.24 59.801,-93.65 90.422,-140.02 16.825,-25.49 32.426,-51.7 49.059,-77.3 12.117,-18.66 25.18,-36.71 37.094,-55.49 2.699,-5.02 5.25,-10.12 7.41,-15.36 5.328,-12.93 9.879,-26.04 24.644,-30.43 27.286,-8.1 54.723,17.43 73.063,34.16 25.469,23.24 45.765,52.76 58.949,84.57 12.828,30.94 19.274,65.94 9.402,98.67" /><path
         id="path86"
         style="fill:#ffffff;fill-opacity:1;fill-rule:nonzero;stroke:none"
         d="m 433.922,3251.52 c -13.391,20.51 -26.09,41.37 -39.024,62.16 -7.5,12.04 -15.652,23.66 -22.293,36.23 -2.886,5.47 -10.812,18.87 -10.664,28.42 0.516,1.68 1.301,3.16 2.454,4.29 5.168,5 14.445,-0.58 19.136,-3.46 14.711,-9.04 29.082,-18.72 43.215,-28.66 l 0.156,-0.29 c 2.528,-5.48 4.489,-11.25 6.102,-17.06 3.269,-11.82 4.992,-24.13 6.609,-36.27 1.485,-11.11 2.692,-22.24 5.032,-33.2 2.503,-11.74 3.621,-23.53 4.503,-35.39 -5.078,7.75 -10.168,15.48 -15.226,23.23" /><path
         id="path88"
         style="fill:#ffffff;fill-opacity:1;fill-rule:nonzero;stroke:none"
         d="m 477.043,3185.13 c -6.336,10.09 -12.82,20.08 -19.332,30.05 1.66,29.37 -4.434,57.76 -8.68,86.68 -1.886,12.86 -4.168,25.69 -8.633,37.94 l -0.464,1.23 c 21.16,-15.34 41.804,-31.42 62.421,-47.52 4.301,-6.13 8.25,-12.47 11.875,-19.03 9.254,-16.76 16.922,-34.2 22.59,-52.51 5.891,-19.04 9.567,-38.56 12.657,-58.23 3.277,-20.83 6.093,-41.76 7.086,-62.85 0.445,-9.51 0.457,-19.01 0.996,-28.52 0.211,-3.79 0.625,-8.16 0.515,-12.44 -27.394,41.5 -54.594,83.06 -81.031,125.2" /><path
         id="path90"
         style="fill:#ffffff;fill-opacity:1;fill-rule:nonzero;stroke:none"
         d="m 639.703,2932.68 c -10.371,16.04 -20.875,32.01 -30.992,48.23 -14.398,23.1 -28.91,46.11 -43.922,68.82 l -0.371,0.57 c 4.523,11.65 1.172,26.64 1.086,38.54 -0.168,22.16 -2.453,44.21 -5.586,66.13 -5.98,41.83 -14.59,83.42 -36.008,120.41 l -1.453,2.48 c 2.414,-1.88 4.828,-3.77 7.25,-5.64 25.121,-19.4 50.293,-38.75 75.445,-58.13 1.961,-5.37 3.95,-10.7 6.707,-15.88 4.489,-8.45 9.102,-16.83 13.145,-25.5 8.309,-17.83 12.441,-37.68 15.098,-57.08 2.765,-20.15 3.398,-40.49 3.394,-60.81 -0.004,-20.96 1.035,-41.92 1.047,-62.88 0.008,-20.05 -1.355,-39.68 -4.84,-59.26" /><path
         id="path92"
         style="fill:#ffffff;fill-opacity:1;fill-rule:nonzero;stroke:none"
         d="m 731.199,2789.85 c -8.711,14.11 -20.004,26.51 -29.539,40.11 -3.113,5.45 -6.308,10.85 -9.551,16.2 -13.539,22.31 -26.179,45.18 -40.093,67.26 -1.778,2.82 -3.582,5.62 -5.379,8.43 11.492,40.7 7.058,84.38 6.511,126.07 -0.531,40.19 -0.46,82.13 -15.699,120.07 -4.058,10.11 -9.582,19.48 -15.5,28.61 -2.027,3.12 -4.101,6.2 -6.168,9.29 36.657,-28.29 73.211,-56.71 109.34,-85.65 1.117,-0.9 2.207,-1.83 3.324,-2.73 1.727,-3.3 3.379,-6.64 4.774,-10.12 3.711,-9.25 6.64,-18.81 9.254,-28.42 5.882,-21.63 12.168,-42.95 14.984,-65.27 6.484,-51.38 2.012,-104.98 -6.516,-155.86 -2.203,-13.15 -4.91,-26.21 -7.546,-39.27 -2.227,-11.07 -4.75,-22.41 -10.016,-32.48 -0.703,1.28 -1.422,2.54 -2.18,3.76" /><path
         id="path94"
         style="fill:#ffffff;fill-opacity:1;fill-rule:nonzero;stroke:none"
         d="m 824.281,2805.16 c -9.347,-9.8 -19.703,-18.82 -30.593,-26.88 -9.875,-7.31 -21.825,-15.35 -34.602,-15.28 -11.742,0.05 -17.234,7.73 -22.039,16.38 l 1.93,1.56 c 12.808,17.75 14.941,43 18.957,63.95 5.363,27.96 8.8,56.27 10.589,84.67 1.653,26.15 1.946,52.4 -0.578,78.5 -2.347,24.28 -8.476,47.32 -15.609,70.56 -2.856,9.27 -5.891,18.53 -9.871,27.39 11.402,-9.43 22.723,-18.96 33.898,-28.66 8.715,-7.56 17.637,-14.88 26.45,-22.32 7.074,-5.99 13.867,-12.33 21.039,-18.19 l 0.836,-1.02 c 5.464,-6.42 11.406,-12.36 17.32,-18.35 l 2.562,-2.63 c 0.766,-1.52 1.493,-3.03 2.172,-4.43 2.899,-5.97 5.172,-12.12 7.102,-18.46 4.008,-13.23 6.195,-27.11 7.48,-40.85 2.332,-25.08 1.805,-51.19 -0.801,-76.23 -0.804,-7.77 -1.984,-15.52 -4.168,-23.02 -0.789,-2.74 -1.765,-5.44 -2.91,-8.06 -8.257,-13.94 -18.047,-26.97 -29.164,-38.63" /><path
         id="path96"
         style="fill:#ffffff;fill-opacity:1;fill-rule:nonzero;stroke:none"
         d="m 872.98,2886.55 c -1.003,-3.01 -2.121,-6 -3.257,-8.98 1.093,10.72 1.394,21.52 1.757,32.3 0.915,27.58 -0.195,56.03 -9.019,82.42 -0.398,1.19 -0.852,2.39 -1.289,3.59 4.32,-5.76 8.176,-11.86 11.164,-18.54 12.883,-28.84 10.355,-61.46 0.644,-90.79" /><path
         id="path98"
         style="fill:#000000;fill-opacity:1;fill-rule:nonzero;stroke:none"
         d="m 905.129,2084.22 -1.453,-1.33 c -2.324,-0.15 -4.946,-1.7 -5.5,-4.11 l -0.254,-1.14 c -13.762,-12.5 -28.141,-24.21 -43.938,-34.13 -18.949,-11.91 -39.097,-21.73 -60.019,-29.65 -43.543,-16.51 -92.535,-27.52 -139.223,-22.72 -12.304,1.26 -24.574,3.56 -36.652,6.26 -9.356,2.08 -22.836,4.4 -28.289,13.19 -0.801,1.29 -3.363,-0.49 -2.578,-1.81 9.734,-16.45 31.527,-20.62 48.832,-24.29 17.535,-3.73 35.465,-4.52 53.297,-3.42 15.554,-2.37 30.961,-5.34 46.109,-10.05 11.879,-3.7 23.484,-8.34 34.504,-14.12 9.101,-4.78 17.664,-9.97 27.801,-12.33 38.496,-8.94 72.222,18.56 87.777,51.8 5.68,12.15 8.871,25.26 12.047,38.24 3.566,14.59 6.683,29.29 9.769,44 l 0.012,1.08 1.992,2.56 c 2.196,3.06 -2.398,3.7 -4.234,1.97" /><path
         id="path100"
         style="fill:#ffffff;fill-opacity:1;fill-rule:nonzero;stroke:none"
         d="m 880.824,2007.89 c -6.074,-17.62 -16.758,-34.38 -32.117,-45.28 -14.902,-10.59 -33.125,-13.78 -50.625,-8.27 -9.984,3.14 -18.695,9.16 -28.105,13.62 -10.106,4.78 -20.551,8.83 -31.266,12.02 -6.199,1.84 -12.535,3.41 -18.941,4.67 45.906,7.72 91.148,23.09 131.171,46.99 15.86,9.47 31.301,20.7 44.352,34.04 -4.156,-19.42 -8.012,-39.07 -14.469,-57.79" /><path
         id="path102"
         style="fill:#000000;fill-opacity:1;fill-rule:nonzero;stroke:none"
         d="m 1606.24,3368.58 c -8.55,17.93 -18.42,35.17 -27.22,52.99 -7.82,15.84 -16.01,32.54 -28.37,45.42 -11.82,12.33 -26.44,17.65 -41.89,7.98 -8.08,-5.06 -14.67,-12.41 -20.7,-19.68 -6.45,-7.77 -12.99,-15.43 -19.47,-23.16 -33.34,-39.79 -59.61,-84.64 -81.76,-131.45 -22.12,-46.74 -39.73,-95.75 -49.85,-146.53 -9.83,-49.35 -12.09,-100.79 -2,-150.31 8.03,-39.41 28.79,-77.87 26.33,-118.95 -0.36,-6.15 -1.42,-12.41 -3.2,-18.4 -0.37,-0.98 -0.7,-1.97 -0.96,-2.99 -0.48,-1.38 -1.01,-2.74 -1.57,-4.08 6.75,0.37 13.38,1.47 20.13,3.3 8.86,2.41 18.07,6 27.34,6.19 15.26,0.33 26.03,-11.03 36.92,-20.03 7.26,-6.01 15.43,-10.81 23.91,-14.88 7.8,-3.74 16.68,-8.11 25.33,-9.26 5.82,-0.77 11.47,-0.72 15.84,-5.08 4.3,-4.28 6.9,-9.79 8.99,-15.39 1.66,-4.44 3.06,-8.98 4.82,-13.2 l 0.61,1.15 c 1.04,0.66 1.92,1.52 2.37,2.49 5.68,12.38 7.56,25.52 11.45,38.46 3.93,13.1 11.1,24.59 18.65,35.87 15.09,22.55 31.58,44.27 45.89,67.3 26.53,42.73 43.94,91.71 52.84,141.08 17.83,98.94 -1.48,201.1 -44.43,291.16" /><path
         id="path104"
         style="fill:#ffffff;fill-opacity:1;fill-rule:nonzero;stroke:none"
         d="m 1643.09,3104.96 c -5.2,-48.96 -19.25,-96.97 -41.47,-140.93 -11.98,-23.7 -27.33,-44.98 -42.5,-66.68 -14.3,-20.44 -30.89,-41.72 -37.72,-66.06 -1.4,-5.03 -2.45,-10.15 -3.48,-15.26 -0.96,-0.63 -1.77,-1.43 -2.03,-2.07 -2.64,-6.51 -3.96,-13.5 -6.72,-19.91 -1.68,-3.94 -3.87,-6.09 -8.08,-7.01 -7.49,-1.66 -16.19,-0.25 -23.59,1.04 -10.93,1.91 -21.56,5.31 -31.86,9.42 -13.23,5.28 -26.19,11.5 -38.48,18.72 -12.03,7.05 -24.36,15 -33.21,25.96 -5.96,7.36 -9.41,15.2 -9.02,23.21 1.89,4.21 3.25,8.56 4.18,13.02 l 1.33,2.07 -0.69,1.32 c 1.51,9.46 1.34,19.28 0.36,29.02 -2.07,20.56 -7.84,40.63 -13.73,60.36 -5.74,19.22 -10.91,38.16 -13.46,58.11 -3.19,25.03 -3.31,50.37 -1.28,75.51 4.04,50.01 17.17,98.96 35.21,145.66 18.1,46.88 40.83,92.56 68.8,134.35 13.48,20.12 28.95,38.19 44.15,56.94 8.49,10.46 22.5,33.3 38.65,26.22 14.38,-6.3 23.67,-23.49 30.88,-36.51 7.85,-14.2 14.67,-28.94 22.42,-43.19 46.85,-86.06 71.73,-185.24 61.34,-283.31" /><path
         id="path106"
         style="fill:#000000;fill-opacity:1;fill-rule:nonzero;stroke:none"
         d="m 1607.76,3211.71 c -5.07,37.03 -15.35,72.79 -24.01,109.04 -0.27,1.11 -2.15,0.12 -1.96,-0.86 5.96,-31.23 10.55,-62.91 14.63,-94.43 4.11,-31.78 6.99,-63.68 5.96,-95.75 -1.01,-31.35 -5.92,-62.53 -16.29,-92.2 -9.37,-26.81 -23.31,-52.46 -38.7,-76.28 -15.8,-24.49 -35.59,-48.98 -61.1,-64 0.02,5.08 -0.21,10.13 -0.62,15.06 -1.58,19.09 -6.12,37.77 -12.87,55.69 -7.28,19.32 -16.68,37.85 -24.5,56.97 -7.57,18.53 -14.38,37.5 -18.92,57.01 -9.82,42.17 -5.87,84.24 9.72,124.5 15.08,38.95 37.92,74.39 55.9,112 9.34,19.53 18.04,39.48 23.99,60.33 5.7,19.96 9.66,40.98 4.31,61.43 -0.3,1.12 -2.11,0.2 -2.11,-0.68 -0.16,-39.83 -16.38,-77.36 -33.21,-112.68 -17.5,-36.73 -39.49,-71.23 -55.67,-108.59 -16.5,-38.14 -24.42,-78.75 -18.78,-120.19 5.42,-39.73 21.89,-76.64 38.59,-112.71 9.25,-19.99 17.64,-39.79 22.33,-61.42 4.81,-22.18 4.72,-43.46 -1,-65.41 -0.86,-3.29 3.83,-2.99 4.94,-0.72 4.74,9.67 6.9,20.44 7.61,31.33 25.27,12.65 44.67,32.99 61.07,55.71 16.66,23.07 31.05,48.64 42.37,74.74 26.28,60.56 27.14,127.68 18.32,192.11" /></g></g></svg>