<?xml version="1.0" encoding="UTF-8" standalone="no"?>
<!-- Created with Inkscape (http://www.inkscape.org/) -->

<svg
   version="1.1"
   id="svg2"
   width="666.66669"
   height="666.66669"
   viewBox="0 0 666.66669 666.66669"
   sodipodi:docname="8433448.ai"
   xmlns:inkscape="http://www.inkscape.org/namespaces/inkscape"
   xmlns:sodipodi="http://sodipodi.sourceforge.net/DTD/sodipodi-0.dtd"
   xmlns="http://www.w3.org/2000/svg"
   xmlns:svg="http://www.w3.org/2000/svg">
  <defs
     id="defs6">
    <clipPath
       clipPathUnits="userSpaceOnUse"
       id="clipPath18">
      <path
         d="M 0,500 H 500 V 0 H 0 Z"
         id="path16" />
    </clipPath>
  </defs>
  <sodipodi:namedview
     id="namedview4"
     pagecolor="#ffffff"
     bordercolor="#000000"
     borderopacity="0.25"
     inkscape:showpageshadow="2"
     inkscape:pageopacity="0.0"
     inkscape:pagecheckerboard="0"
     inkscape:deskcolor="#d1d1d1" />
  <g
     id="g8"
     inkscape:groupmode="layer"
     inkscape:label="8433448"
     transform="matrix(1.3333333,0,0,-1.3333333,0,666.66667)">
    <path
       d="M 0,0 H 500 V 500 H 0 Z"
       style="fill:#ffffff;fill-opacity:1;fill-rule:nonzero;stroke:none"
       id="path10" />
    <g
       id="g12">
      <g
         id="g14"
         clip-path="url(#clipPath18)">
        <g
           id="g20"
           transform="translate(309.5918,122.7051)">
          <path
             d="m 0,0 c 6.678,-6.498 10.219,-16.53 9.46,-26.79 2.982,2.426 6.516,4.335 10.304,4.959 7.492,1.234 14.569,-0.458 20.194,-5.677 1.162,-1.079 2.133,-2.354 2.97,-3.708 3.346,-5.416 3.877,-12.541 1.698,-19.732 3.61,2.304 8.734,2.432 11.992,-0.351 3.257,-2.783 3.666,-8.555 0.938,-12.745 3.489,0.918 7.333,1.031 10.59,-0.519 3.259,-1.551 5.74,-5.031 5.368,-8.62 -0.346,-3.343 -3.023,-6.08 -6.089,-7.454 -3.067,-1.373 -6.5,-1.629 -9.855,-1.843 -45.165,-2.903 -90.479,-1.146 -139.049,-1.811 -26.171,-0.358 -52.341,-0.718 -78.512,-1.076 -5.392,-0.074 -10.948,-0.119 -15.96,1.876 -5.01,1.995 -9.397,6.563 -9.473,11.957 -0.052,3.647 1.998,7.251 5.159,9.073 3.161,1.82 7.307,1.786 11.561,0.548 -2.391,8.04 -0.475,17.227 4.93,23.642 5.405,6.415 14.134,9.859 23.429,8.366 0.187,0.751 0.429,1.486 0.662,2.223 3.83,12.108 21.704,26.402 39.702,14.82 2.178,-1.402 4.385,-2.915 6.36,-4.866 1.769,7.762 5.189,15.288 10.728,21.005 5.537,5.717 13.339,9.468 21.293,9.171 7.954,-0.298 15.834,-5.043 21.533,-12.206 4.587,4.359 10.658,7.055 16.95,7.641 C -15.886,8.556 -5.735,5.58 0,0"
             style="fill:#ffffff;fill-opacity:1;fill-rule:nonzero;stroke:none"
             id="path22" />
        </g>
        <g
           id="g24"
           transform="translate(309.5918,122.7051)">
          <path
             d="m 0,0 c 6.678,-6.498 10.219,-16.53 9.46,-26.79 2.982,2.426 6.516,4.335 10.304,4.959 7.492,1.234 14.569,-0.458 20.194,-5.677 1.162,-1.079 2.133,-2.354 2.97,-3.708 3.346,-5.416 3.877,-12.541 1.698,-19.732 3.61,2.304 8.734,2.432 11.992,-0.351 3.257,-2.783 3.666,-8.555 0.938,-12.745 3.489,0.918 7.333,1.031 10.59,-0.519 3.259,-1.551 5.74,-5.031 5.368,-8.62 -0.346,-3.343 -3.023,-6.08 -6.089,-7.454 -3.067,-1.373 -6.5,-1.629 -9.855,-1.843 -45.165,-2.903 -90.479,-1.146 -139.049,-1.811 -26.171,-0.358 -52.341,-0.718 -78.512,-1.076 -5.392,-0.074 -10.948,-0.119 -15.96,1.876 -5.01,1.995 -9.397,6.563 -9.473,11.957 -0.052,3.647 1.998,7.251 5.159,9.073 3.161,1.82 7.307,1.786 11.561,0.548 -2.391,8.04 -0.475,17.227 4.93,23.642 5.405,6.415 14.134,9.859 23.429,8.366 0.187,0.751 0.429,1.486 0.662,2.223 3.83,12.108 21.704,26.402 39.702,14.82 2.178,-1.402 4.385,-2.915 6.36,-4.866 1.769,7.762 5.189,15.288 10.728,21.005 5.537,5.717 13.339,9.468 21.293,9.171 7.954,-0.298 15.834,-5.043 21.533,-12.206 4.587,4.359 10.658,7.055 16.95,7.641 C -15.886,8.556 -5.735,5.58 0,0 Z"
             style="fill:none;stroke:#000000;stroke-width:1.8;stroke-linecap:round;stroke-linejoin:round;stroke-miterlimit:10;stroke-dasharray:none;stroke-opacity:1"
             id="path26" />
        </g>
        <g
           id="g28"
           transform="translate(369.9131,168.4473)">
          <path
             d="M 0,0 C 1.565,62.597 -24.629,138.716 -104.662,151.134 -184.696,163.553 -227.27,72.771 -224.57,10.553 l -66.169,-5.479 c -4.67,47.634 9.417,112.043 36.222,152.101 24.43,36.508 94.213,70.545 134.11,75.041 50.693,5.713 103.535,-13.697 139.374,-49.204 C 41.273,160.915 56.788,132.831 66.121,103.136 78.655,63.258 78.159,0 78.159,0 78.159,0 60.022,-11.695 37.739,-11.038 15.456,-10.382 0,0 0,0"
             style="fill:#ffffff;fill-opacity:1;fill-rule:nonzero;stroke:none"
             id="path30" />
        </g>
        <g
           id="g32"
           transform="translate(147.0283,205.5615)">
          <path
             d="M 0,0 C 3.247,23.968 11.197,47.127 24.597,66.708"
             style="fill:none;stroke:#000000;stroke-width:1.8;stroke-linecap:round;stroke-linejoin:round;stroke-miterlimit:10;stroke-dasharray:none;stroke-opacity:1"
             id="path34" />
        </g>
        <g
           id="g36"
           transform="translate(407.6523,157.4092)">
          <path
             d="m 0,0 c 4.87,46.495 1.523,96.95 -29.755,143.5 -19.487,29.003 -50.35,50.146 -84.282,58.342 -11.518,2.785 -23.325,4.143 -35.079,3.533 -72.948,-3.78 -112.58,-52.828 -132.067,-89.021 -14.01,-26.021 -19.136,-56.945 -16.765,-86.563 0.34,-4.248 0.673,-7.916 0.989,-11.069"
             style="fill:none;stroke:#000000;stroke-width:1.2;stroke-linecap:round;stroke-linejoin:round;stroke-miterlimit:10;stroke-dasharray:none;stroke-opacity:1"
             id="path38" />
        </g>
        <g
           id="g40"
           transform="translate(428.3867,160.0771)">
          <path
             d="m 0,0 c 6.04,42.121 -1.948,109.775 -32.242,149.994 -27.643,36.698 -67.774,65.396 -113.543,71.019 -11.461,1.407 -23.089,1.967 -34.491,0.368 -57.497,-8.064 -109.871,-44.517 -137.338,-100.495 -13.505,-27.523 -19.798,-60.198 -17.682,-91.648 0.347,-5.15 0.737,-10.189 1.098,-14.55"
             style="fill:none;stroke:#000000;stroke-width:1.2;stroke-linecap:round;stroke-linejoin:round;stroke-miterlimit:10;stroke-dasharray:none;stroke-opacity:1"
             id="path42" />
        </g>
        <g
           id="g44"
           transform="translate(386.2344,161.0898)">
          <path
             d="m 0,0 c 8.104,51.351 -6.539,100.084 -30.557,133.343 -8.192,11.344 -17.805,21.643 -29.47,29.555 -10.599,7.188 -22.309,13.44 -35.04,15.199 -71.833,9.926 -96.689,-10.97 -126.685,-44.797 -5.961,-6.722 -11.026,-14.191 -15.5,-21.913 -14.803,-25.555 -22.318,-54.866 -22.778,-84.268 -0.063,-4.003 -0.026,-7.609 0.067,-10.788"
             style="fill:none;stroke:#000000;stroke-width:1.2;stroke-linecap:round;stroke-linejoin:round;stroke-miterlimit:10;stroke-dasharray:none;stroke-opacity:1"
             id="path46" />
        </g>
        <g
           id="g48"
           transform="translate(369.9131,168.4473)">
          <path
             d="M 0,0 C 1.565,62.597 -24.629,138.716 -104.662,151.134 -184.696,163.553 -227.27,72.771 -224.57,10.553 l -66.169,-5.479 c -4.67,47.634 9.417,112.043 36.222,152.101 24.43,36.508 94.213,70.545 134.11,75.041 50.693,5.713 103.535,-13.697 139.374,-49.204 C 41.273,160.915 56.788,132.831 66.121,103.136 78.655,63.258 78.159,0 78.159,0 78.159,0 60.022,-11.695 37.739,-11.038 15.456,-10.382 0,0 0,0 Z"
             style="fill:none;stroke:#000000;stroke-width:1.8;stroke-linecap:round;stroke-linejoin:round;stroke-miterlimit:10;stroke-dasharray:none;stroke-opacity:1"
             id="path50" />
        </g>
        <g
           id="g52"
           transform="translate(160.3423,122.8008)">
          <path
             d="m 0,0 c -2.777,-0.121 -5.591,-0.1 -8.443,-0.06 -33.036,0.445 -65.216,0.027 -98.557,0.479 -2.071,0.026 -4.222,0.235 -5.781,1.594 -1.567,1.349 -2.464,3.43 -2.394,5.494 0.088,2.507 1.541,4.806 3.422,6.451 1.889,1.655 4.179,2.753 7.113,4.711 -3.169,2.918 -4.379,7.784 -2.934,11.833 1.437,4.058 5.442,7.07 10.109,6.905 -0.261,2.934 1.306,5.955 3.849,7.445 2.542,1.48 5.947,1.349 8.977,-0.219 0.513,2.769 1.35,5.494 2.542,8.055 1.507,3.265 3.57,6.26 6.2,8.715 2.455,2.299 5.441,4.076 8.646,5.112 2.881,0.958 5.946,1.298 8.959,0.888 2.726,-0.375 5.364,-1.42 7.654,-3.004 3.055,-2.108 5.494,-5.181 6.704,-8.924 0.924,4.84 4.99,8.907 9.796,9.934 0.374,0.077 0.766,0.14 1.149,0.183 1.982,0.216 3.992,-0.102 5.858,-0.905 0,0 8.638,14.652 26.116,2.886 C 16.462,55.808 13.85,39.96 13.85,39.96 c 0,0 10.242,7.826 16.308,-3.13 6.065,-10.957 -3.862,-27.978 -3.862,-27.978 0,0 6.112,1.076 6.699,-4.5 C 33.582,-1.225 10.147,0.442 0,0"
             style="fill:#ffffff;fill-opacity:1;fill-rule:nonzero;stroke:none"
             id="path54" />
        </g>
        <g
           id="g56"
           transform="translate(160.3423,122.8008)">
          <path
             d="m 0,0 c -2.777,-0.121 -5.591,-0.1 -8.443,-0.06 -33.036,0.445 -65.216,0.027 -98.557,0.479 -2.071,0.026 -4.222,0.235 -5.781,1.594 -1.567,1.349 -2.464,3.43 -2.394,5.494 0.088,2.507 1.541,4.806 3.422,6.451 1.889,1.655 4.179,2.753 7.113,4.711 -3.169,2.918 -4.379,7.784 -2.934,11.833 1.437,4.058 5.442,7.07 10.109,6.905 -0.261,2.934 1.306,5.955 3.849,7.445 2.542,1.48 5.947,1.349 8.977,-0.219 0.513,2.769 1.35,5.494 2.542,8.055 1.507,3.265 3.57,6.26 6.2,8.715 2.455,2.299 5.441,4.076 8.646,5.112 2.881,0.958 5.946,1.298 8.959,0.888 2.726,-0.375 5.364,-1.42 7.654,-3.004 3.055,-2.108 5.494,-5.181 6.704,-8.924 0.924,4.84 4.99,8.907 9.796,9.934 0.374,0.077 0.766,0.14 1.149,0.183 1.982,0.216 3.992,-0.102 5.858,-0.905 0,0 8.638,14.652 26.116,2.886 C 16.462,55.808 13.85,39.96 13.85,39.96 c 0,0 10.242,7.826 16.308,-3.13 6.065,-10.957 -3.862,-27.978 -3.862,-27.978 0,0 6.112,1.076 6.699,-4.5 C 33.582,-1.225 10.147,0.442 0,0 Z"
             style="fill:none;stroke:#000000;stroke-width:1.8;stroke-linecap:round;stroke-linejoin:round;stroke-miterlimit:10;stroke-dasharray:none;stroke-opacity:1"
             id="path58" />
        </g>
        <g
           id="g60"
           transform="translate(443.9043,179.9844)">
          <path
             d="m 0,0 c 0.726,-0.224 1.435,-0.514 2.029,-0.991 1.904,-1.53 2.562,-4.415 2.985,-7.202 5.339,1.614 11.647,-1.108 14.136,-6.099 2.491,-4.991 0.871,-11.667 -3.718,-15.045 3.979,1.218 8.287,-2.494 8.621,-6.642 0.334,-4.147 -2.445,-8.064 -6.008,-10.212 -3.563,-2.147 -7.796,-2.842 -11.932,-3.307 -9.824,-1.103 -22.173,-1.375 -34.945,-1.513 -8.45,-0.092 -24.185,0.388 -36.532,0.525 H -82.06 c -15.018,-0.194 -19.15,12.941 -8.801,16.45 1.234,0.418 2.651,0.532 4.156,0.576 -1.156,2.644 -0.904,5.858 0.651,8.29 1.199,1.874 3.143,3.24 5.291,3.797 0,0 -2.228,14.812 9.903,16.183 12.13,1.369 13.108,-5.968 13.108,-5.968 0,0 2.152,15.456 14.38,16.924 12.228,1.467 20.055,-12.816 20.055,-12.816 0,0 9.656,11.262 23.317,7.05"
             style="fill:#ffffff;fill-opacity:1;fill-rule:nonzero;stroke:none"
             id="path62" />
        </g>
        <g
           id="g64"
           transform="translate(443.9043,179.9844)">
          <path
             d="m 0,0 c 0.726,-0.224 1.435,-0.514 2.029,-0.991 1.904,-1.53 2.562,-4.415 2.985,-7.202 5.339,1.614 11.647,-1.108 14.136,-6.099 2.491,-4.991 0.871,-11.667 -3.718,-15.045 3.979,1.218 8.287,-2.494 8.621,-6.642 0.334,-4.147 -2.445,-8.064 -6.008,-10.212 -3.563,-2.147 -7.796,-2.842 -11.932,-3.307 -9.824,-1.103 -22.173,-1.375 -34.945,-1.513 -8.45,-0.092 -24.185,0.388 -36.532,0.525 H -82.06 c -15.018,-0.194 -19.15,12.941 -8.801,16.45 1.234,0.418 2.651,0.532 4.156,0.576 -1.156,2.644 -0.904,5.858 0.651,8.29 1.199,1.874 3.143,3.24 5.291,3.797 0,0 -2.228,14.812 9.903,16.183 12.13,1.369 13.108,-5.968 13.108,-5.968 0,0 2.152,15.456 14.38,16.924 12.228,1.467 20.055,-12.816 20.055,-12.816 0,0 9.656,11.262 23.317,7.05 z"
             style="fill:none;stroke:#000000;stroke-width:1.8;stroke-linecap:round;stroke-linejoin:round;stroke-miterlimit:10;stroke-dasharray:none;stroke-opacity:1"
             id="path66" />
        </g>
        <g
           id="g68"
           transform="translate(458.8193,341.2119)">
          <path
             d="m 0,0 c 0.72,-3.122 1.44,-6.244 2.16,-9.365 0.216,-0.93 0.383,-2.044 -0.291,-2.72 -0.528,-0.531 -1.412,-0.557 -2.1,-0.263 -0.69,0.294 -1.233,0.845 -1.756,1.383 -2.317,2.384 -4.632,4.768 -6.95,7.152 -2.685,-1.566 -5.517,-3.483 -8.504,-5.118 -0.677,-0.371 -1.382,-0.734 -2.148,-0.825 -0.765,-0.092 -1.615,0.138 -2.072,0.76 -0.641,0.872 -0.298,2.093 0.078,3.106 1.137,3.069 2.357,6.106 4.192,9.547 -1.921,2.683 -3.533,5.589 -4.791,8.639 -0.371,0.903 -0.699,1.987 -0.168,2.807 0.703,1.086 2.329,0.909 3.566,0.53 2.657,-0.814 5.21,-1.965 7.532,-3.149 1.522,3.036 3.462,5.862 5.747,8.373 0.685,0.751 1.712,1.535 2.613,1.068 0.78,-0.404 0.876,-1.46 0.872,-2.337 C -2.031,16.46 -2.044,13.332 -1.374,9.943 1.912,9.865 5.199,9.787 8.486,9.709 9.495,9.685 10.688,9.557 11.183,8.678 11.503,8.107 11.403,7.373 11.084,6.801 10.766,6.228 10.262,5.787 9.755,5.372 7.13,3.219 4.199,1.441 0,0 Z"
             style="fill:none;stroke:#000000;stroke-width:1.8;stroke-linecap:round;stroke-linejoin:round;stroke-miterlimit:10;stroke-dasharray:none;stroke-opacity:1"
             id="path70" />
        </g>
        <g
           id="g72"
           transform="translate(77.5728,412.3931)">
          <path
             d="m 0,0 c 2.356,-2.171 4.711,-4.343 7.066,-6.515 0.702,-0.647 1.468,-1.473 1.292,-2.41 -0.136,-0.738 -0.851,-1.257 -1.587,-1.403 -0.735,-0.146 -1.493,0.004 -2.228,0.153 -3.257,0.662 -6.515,1.325 -9.772,1.987 -1.335,-2.809 -2.594,-5.989 -4.138,-9.023 -0.35,-0.688 -0.727,-1.384 -1.307,-1.892 -0.581,-0.508 -1.413,-0.797 -2.141,-0.542 -1.02,0.36 -1.426,1.561 -1.688,2.61 -0.791,3.176 -1.496,6.372 -1.921,10.248 -3.099,1.133 -6.068,2.624 -8.828,4.434 -0.817,0.536 -1.698,1.246 -1.723,2.222 -0.031,1.294 1.411,2.064 2.646,2.448 2.654,0.827 5.411,1.316 7.996,1.647 -0.454,3.366 -0.445,6.793 0.027,10.157 0.14,1.005 0.546,2.233 1.555,2.354 0.87,0.107 1.546,-0.709 2.038,-1.436 1.754,-2.591 3.507,-5.182 5.972,-7.602 2.758,1.789 5.516,3.578 8.275,5.367 0.846,0.55 1.904,1.116 2.808,0.669 C 4.929,13.183 5.26,12.519 5.319,11.867 5.379,11.215 5.211,10.566 5.027,9.937 4.074,6.679 2.655,3.559 0,0 Z"
             style="fill:none;stroke:#000000;stroke-width:1.8;stroke-linecap:round;stroke-linejoin:round;stroke-miterlimit:10;stroke-dasharray:none;stroke-opacity:1"
             id="path74" />
        </g>
        <g
           id="g76"
           transform="translate(64.5332,252.8809)">
          <path
             d="M 0,0 C 2.578,-1.182 5.495,-2.82 7.514,-4.812 8.187,-5.476 8.87,-6.404 8.521,-7.284 8.139,-8.253 6.836,-8.382 5.797,-8.31 c -2.685,0.189 -5.35,0.663 -7.935,1.412 -0.587,-2.545 -1.425,-5.034 -2.498,-7.416 -0.43,-0.953 -1.128,-2.037 -2.173,-1.986 -1.184,0.056 -1.724,1.477 -1.974,2.637 -0.54,2.507 -1.081,5.016 -2.191,7.97 -3.255,-0.377 -6.579,-0.146 -9.749,0.677 -0.54,0.141 -1.091,0.307 -1.517,0.665 -0.427,0.358 -0.697,0.958 -0.514,1.484 0.173,0.498 0.682,0.787 1.154,1.026 2.919,1.471 5.969,2.686 9.277,4.427 -1.06,3.368 -1.824,6.829 -2.282,10.329 -0.119,0.911 -0.069,2.088 0.787,2.42 0.72,0.278 1.473,-0.274 2.035,-0.802 2.395,-2.255 4.761,-5.213 7.095,-8.168 2.071,1.712 4.25,3.294 6.519,4.734 0.437,0.278 0.936,0.563 1.445,0.46 C 3.792,11.456 4.16,10.962 4.268,10.447 4.375,9.933 4.27,9.399 4.14,8.889 3.381,5.9 1.786,3.202 0,0 Z"
             style="fill:none;stroke:#000000;stroke-width:1.8;stroke-linecap:round;stroke-linejoin:round;stroke-miterlimit:10;stroke-dasharray:none;stroke-opacity:1"
             id="path78" />
        </g>
        <g
           id="g80"
           transform="translate(429.4102,60.29)">
          <path
             d="m 0,0 c 0.694,-2.75 1.246,-6.05 0.958,-8.87 -0.097,-0.942 -0.393,-2.055 -1.296,-2.335 -0.994,-0.31 -1.911,0.625 -2.508,1.481 -1.534,2.21 -2.834,4.584 -3.87,7.069 -2.351,-1.137 -4.816,-2.042 -7.345,-2.699 -1.012,-0.263 -2.294,-0.397 -2.91,0.449 -0.698,0.959 0.073,2.268 0.819,3.189 1.617,1.993 3.232,3.987 4.839,6.702 -2.333,2.301 -4.235,5.036 -5.579,8.024 -0.228,0.509 -0.445,1.042 -0.431,1.598 0.011,0.558 0.308,1.145 0.833,1.33 0.498,0.178 1.042,-0.038 1.522,-0.255 2.978,-1.354 5.835,-2.97 9.264,-4.457 1.96,2.935 4.179,5.699 6.621,8.249 0.635,0.663 1.584,1.362 2.379,0.902 0.668,-0.386 0.709,-1.319 0.65,-2.088 C 3.689,15.01 2.865,11.313 2.024,7.642 4.656,7.101 7.255,6.394 9.799,5.526 10.289,5.359 10.824,5.148 11.063,4.688 11.305,4.222 11.151,3.626 10.817,3.219 10.482,2.813 10.002,2.56 9.523,2.342 6.717,1.061 3.614,0.614 0,0 Z"
             style="fill:none;stroke:#000000;stroke-width:1.8;stroke-linecap:round;stroke-linejoin:round;stroke-miterlimit:10;stroke-dasharray:none;stroke-opacity:1"
             id="path82" />
        </g>
        <g
           id="g84"
           transform="translate(277.3594,435.6587)">
          <path
             d="m 0,0 c 1.875,-2.128 3.876,-4.811 4.911,-7.45 0.345,-0.882 0.592,-2.007 -0.083,-2.67 -0.744,-0.73 -1.986,-0.318 -2.907,0.171 -2.377,1.262 -4.62,2.779 -6.677,4.514 -1.571,-2.087 -3.347,-4.02 -5.297,-5.76 -0.779,-0.698 -1.857,-1.404 -2.791,-0.932 -1.06,0.532 -0.975,2.049 -0.733,3.21 0.525,2.512 1.051,5.024 1.237,8.174 -3.126,0.978 -6.07,2.539 -8.633,4.58 -0.435,0.348 -0.872,0.724 -1.116,1.224 -0.243,0.501 -0.247,1.159 0.133,1.565 0.362,0.384 0.943,0.441 1.472,0.468 3.265,0.159 6.546,0.03 10.275,0.276 0.4,3.507 1.108,6.98 2.113,10.365 0.261,0.88 0.784,1.936 1.702,1.89 0.771,-0.037 1.235,-0.848 1.534,-1.559 1.272,-3.032 2.231,-6.697 3.163,-10.346 2.589,0.722 5.222,1.282 7.88,1.676 C 6.697,9.472 7.269,9.529 7.691,9.229 8.121,8.926 8.257,8.325 8.146,7.811 8.034,7.296 7.722,6.851 7.396,6.438 5.488,4.015 2.933,2.199 0,0 Z"
             style="fill:none;stroke:#000000;stroke-width:1.8;stroke-linecap:round;stroke-linejoin:round;stroke-miterlimit:10;stroke-dasharray:none;stroke-opacity:1"
             id="path86" />
        </g>
        <g
           id="g88"
           transform="translate(76.2061,72.7637)">
          <path
             d="m 0,0 c 2.506,-1.326 5.327,-3.127 7.229,-5.229 0.635,-0.702 1.264,-1.667 0.868,-2.526 -0.437,-0.946 -1.745,-1 -2.779,-0.869 -2.671,0.339 -5.303,0.962 -7.842,1.857 -0.73,-2.509 -1.707,-4.946 -2.913,-7.263 -0.483,-0.928 -1.241,-1.969 -2.282,-1.861 -1.179,0.124 -1.638,1.572 -1.822,2.744 -0.398,2.535 -0.796,5.07 -1.737,8.083 -3.27,-0.194 -6.576,0.224 -9.696,1.227 -0.53,0.17 -1.071,0.367 -1.477,0.748 -0.405,0.382 -0.642,0.995 -0.429,1.511 0.202,0.488 0.725,0.747 1.21,0.958 2.998,1.306 6.112,2.346 9.512,3.897 -0.867,3.421 -1.436,6.92 -1.694,10.441 -0.068,0.917 0.049,2.089 0.923,2.372 0.734,0.237 1.455,-0.357 1.985,-0.915 2.265,-2.387 4.459,-5.474 6.622,-8.557 2.166,1.593 4.43,3.049 6.776,4.359 0.453,0.252 0.967,0.509 1.47,0.378 C 4.432,11.223 4.772,10.709 4.851,10.188 4.929,9.669 4.794,9.141 4.636,8.64 3.708,5.697 1.963,3.094 0,0 Z"
             style="fill:none;stroke:#000000;stroke-width:1.8;stroke-linecap:round;stroke-linejoin:round;stroke-miterlimit:10;stroke-dasharray:none;stroke-opacity:1"
             id="path90" />
        </g>
        <g
           id="g92"
           transform="translate(369.418,403.9648)">
          <path
             d="m 0,0 c -1.864,1.025 -4.48,0.331 -5.589,-1.487 -1.108,-1.816 -0.53,-4.46 1.235,-5.648 1.766,-1.188 4.433,-0.729 5.699,0.981 C 2.611,-4.443 2.518,-1.385 0,0 Z"
             style="fill:none;stroke:#000000;stroke-width:1.8;stroke-linecap:round;stroke-linejoin:round;stroke-miterlimit:10;stroke-dasharray:none;stroke-opacity:1"
             id="path94" />
        </g>
        <g
           id="g96"
           transform="translate(52.603,339.2744)">
          <path
             d="m 0,0 c -1.864,1.025 -4.48,0.33 -5.589,-1.487 -1.108,-1.816 -0.53,-4.46 1.236,-5.649 1.765,-1.187 4.433,-0.728 5.698,0.982 C 2.611,-4.443 2.517,-1.386 0,0 Z"
             style="fill:none;stroke:#000000;stroke-width:1.8;stroke-linecap:round;stroke-linejoin:round;stroke-miterlimit:10;stroke-dasharray:none;stroke-opacity:1"
             id="path98" />
        </g>
        <g
           id="g100"
           transform="translate(116.6113,88.834)">
          <path
             d="m 0,0 c -1.864,1.027 -4.479,0.331 -5.588,-1.486 -1.108,-1.817 -0.53,-4.46 1.235,-5.649 1.766,-1.188 4.433,-0.728 5.699,0.982 C 2.611,-4.443 2.517,-1.384 0,0 Z"
             style="fill:none;stroke:#000000;stroke-width:1.8;stroke-linecap:round;stroke-linejoin:round;stroke-miterlimit:10;stroke-dasharray:none;stroke-opacity:1"
             id="path102" />
        </g>
        <g
           id="g104"
           transform="translate(48.4541,200.3076)">
          <path
             d="m 0,0 c -1.864,1.026 -4.48,0.33 -5.588,-1.486 -1.108,-1.817 -0.53,-4.46 1.235,-5.65 1.766,-1.187 4.433,-0.728 5.699,0.982 C 2.611,-4.443 2.518,-1.384 0,0 Z"
             style="fill:none;stroke:#000000;stroke-width:1.8;stroke-linecap:round;stroke-linejoin:round;stroke-miterlimit:10;stroke-dasharray:none;stroke-opacity:1"
             id="path106" />
        </g>
        <g
           id="g108"
           transform="translate(380.9512,92.334)">
          <path
             d="m 0,0 c -1.864,1.027 -4.479,0.331 -5.587,-1.486 -1.108,-1.817 -0.53,-4.46 1.234,-5.649 1.766,-1.188 4.433,-0.728 5.7,0.982 C 2.612,-4.443 2.519,-1.384 0,0 Z"
             style="fill:none;stroke:#000000;stroke-width:1.8;stroke-linecap:round;stroke-linejoin:round;stroke-miterlimit:10;stroke-dasharray:none;stroke-opacity:1"
             id="path110" />
        </g>
        <g
           id="g112"
           transform="translate(165.0684,465.4717)">
          <path
             d="m 0,0 c -1.864,1.025 -4.48,0.33 -5.588,-1.487 -1.108,-1.816 -0.53,-4.46 1.235,-5.649 1.766,-1.187 4.433,-0.729 5.699,0.982 C 2.611,-4.443 2.517,-1.386 0,0 Z"
             style="fill:none;stroke:#000000;stroke-width:1.8;stroke-linecap:round;stroke-linejoin:round;stroke-miterlimit:10;stroke-dasharray:none;stroke-opacity:1"
             id="path114" />
        </g>
        <g
           id="g116"
           transform="translate(452.0771,106.0137)">
          <path
             d="m 0,0 c -1.864,1.025 -4.479,0.329 -5.588,-1.488 -1.109,-1.816 -0.53,-4.46 1.235,-5.649 1.765,-1.187 4.432,-0.728 5.699,0.982 C 2.611,-4.444 2.518,-1.386 0,0 Z"
             style="fill:none;stroke:#000000;stroke-width:1.8;stroke-linecap:round;stroke-linejoin:round;stroke-miterlimit:10;stroke-dasharray:none;stroke-opacity:1"
             id="path118" />
        </g>
        <g
           id="g120"
           transform="translate(471.6729,283.3408)">
          <path
             d="m 0,0 c -1.864,1.025 -4.48,0.33 -5.589,-1.487 -1.108,-1.817 -0.53,-4.46 1.236,-5.649 1.765,-1.188 4.433,-0.729 5.698,0.982 C 2.611,-4.444 2.518,-1.385 0,0 Z"
             style="fill:none;stroke:#000000;stroke-width:1.8;stroke-linecap:round;stroke-linejoin:round;stroke-miterlimit:10;stroke-dasharray:none;stroke-opacity:1"
             id="path122" />
        </g>
        <g
           id="g124"
           transform="translate(432.4922,442.9937)">
          <path
             d="m 0,0 c -1.864,1.025 -4.481,0.329 -5.589,-1.487 -1.108,-1.817 -0.53,-4.46 1.235,-5.649 1.765,-1.188 4.433,-0.729 5.699,0.982 C 2.611,-4.444 2.518,-1.386 0,0 Z"
             style="fill:none;stroke:#000000;stroke-width:1.8;stroke-linecap:round;stroke-linejoin:round;stroke-miterlimit:10;stroke-dasharray:none;stroke-opacity:1"
             id="path126" />
        </g>
        <g
           id="g128"
           transform="translate(178.5601,138.2324)">
          <path
             d="m 0,0 c -2.92,12.55 -8.315,24.179 -15.681,34.751 3.27,2.491 6.671,5.126 9.333,8.257 2.856,-3.5 5.933,-6.644 9.583,-9.312 C 0.489,22.556 -1.111,11.267 0,0 m 276.887,67.734 c -3.794,4.738 -4.987,11.06 -5.147,17.126 -0.159,6.068 0.585,12.149 0.109,18.199 -1.091,13.865 -8.839,26.895 -20.026,35.159 -11.188,8.263 -25.557,11.839 -39.412,10.633 -0.132,-0.012 -0.263,-0.023 -0.395,-0.036 6.505,7.149 9.972,17.249 8.817,26.845 -4.823,-7.086 -13.083,-10.685 -21.158,-12.892 -8.073,-2.205 -16.531,-3.429 -23.973,-7.26 -7.111,-3.66 -12.992,-9.661 -16.508,-16.844 -3.516,-7.184 -4.86,-15.51 -3.386,-23.371 -1.652,0.752 -3.337,1.423 -5.04,2.013 -9.499,3.294 -19.788,3.773 -29.53,1.291 2.845,4.871 4.285,10.52 3.659,16.098 -2.074,-3.645 -5.753,-6.516 -9.926,-6.945 -4.173,-0.427 -8.664,1.971 -10.046,5.932 -0.603,1.731 -0.612,3.609 -1.022,5.395 -0.41,1.787 -1.281,3.59 -3.01,4.196 0.38,0.094 0.759,0.194 1.135,0.302 9.207,2.626 17.16,9.35 20.626,18.205 -3.519,-0.941 -7.101,-1.823 -10.743,-1.809 -3.642,0.015 -7.401,1.015 -10.119,3.439 -4.14,3.69 -5.04,9.695 -5.98,15.16 -0.939,5.465 -2.714,12.081 -7.542,14.81 0.895,-0.505 1.818,-0.953 2.786,-1.32 4.831,-1.828 10.488,-1.311 14.909,1.36 4.421,2.671 7.509,7.44 8.115,12.867 -6.544,-3.716 -15.117,-2.474 -21.37,1.711 -6.254,4.185 -10.458,10.862 -13.271,17.841 -1.314,3.259 -2.378,6.649 -4.227,9.636 -1.848,2.986 -4.794,5.342 -8.247,5.981 1.007,0.594 1.971,1.26 2.878,2.005 3.854,3.161 6.602,7.848 6.618,12.517 -7.663,-4.247 -17.874,-4.306 -24.794,1.066 -5.76,4.474 -8.563,11.835 -13.912,16.79 -4.498,4.166 -10.605,6.37 -16.722,6.742 -6.119,0.372 -12.383,-0.986 -18.078,-3.252 -2.085,2.428 -4.678,4.392 -7.241,6.327 -1.556,1.174 -3.113,2.349 -4.668,3.523 -0.375,0.283 -0.81,0.581 -1.273,0.502 -0.65,-0.113 -0.936,-0.872 -1.087,-1.515 -0.562,-2.373 -0.962,-4.784 -1.202,-7.21 -3.601,1.302 -7.789,2.006 -11.616,2.067 -3.825,3.344 -10.138,3.649 -14.868,1.793 -4.729,-1.857 -8.587,-5.09 -11.618,-9.167 -11.187,17.737 -23.205,34.607 -36.304,51.027 -0.409,0.512 -0.897,1.065 -1.55,1.098 -0.787,0.038 -1.414,-0.759 -1.483,-1.544 -0.068,-0.786 0.263,-1.546 0.586,-2.265 l 27.685,-61.479 c -3.507,-3.8 -5.633,-9.002 -9.719,-12.173 -4.25,-3.299 -10.376,-3.981 -15.249,-1.701 1.154,-6.357 4.647,-12.332 9.946,-15.773 -4.702,-1.533 -9.819,-1.796 -14.609,-0.546 1.877,-7.359 6.674,-13.181 12.935,-16.191 1.04,-0.499 2.117,-0.919 3.22,-1.256 -2.418,-1.879 -3.058,-5.288 -3.001,-8.35 0.057,-3.062 0.756,-6.107 0.536,-9.161 -0.22,-3.054 -1.646,-6.315 -4.201,-7.655 6.388,-2.209 14.173,0.431 18.758,5.399 0.232,-6.278 -0.572,-12.699 -3.247,-18.384 -1.651,-3.514 -3.991,-6.696 -5.371,-10.325 -3.205,-8.426 -0.351,-18.775 6.719,-24.367 7.071,-5.593 17.799,-5.986 25.26,-0.926 4.395,2.981 7.399,7.359 9.595,12.244 7.874,2.154 16.02,4.47 23.476,7.721 2.761,-14.765 -0.965,-29.993 -5.056,-44.445 -4.013,-14.177 -8.267,-28.79 -6.619,-43.404 -4.373,-1.663 -9.384,-2.484 -13.791,-4.056 -4.408,-1.572 -8.734,-4.074 -11.107,-8.108 -2.634,-4.476 -2.42,-10.159 -0.79,-15.09 1.632,-4.93 4.534,-9.321 7.168,-13.796 12.669,-21.512 18.066,-46.342 26.437,-69.078 1.868,-5.073 4.401,-9.887 7.102,-14.57 1.049,-1.82 2.436,-3.778 4.518,-4.065 1.694,-0.233 3.367,0.781 4.397,2.146 1.028,1.366 1.898,3.729 2.39,5.366 -0.088,-8.867 -0.548,-17.767 0.665,-26.535 0.239,-1.722 0.609,-3.566 1.884,-4.749 2.19,-2.028 5.687,-1.071 8.474,0 3.811,1.469 7.873,3.134 10.089,6.563 1.931,2.988 2.082,6.748 2.172,10.305 0.539,21.27 1.022,42.963 -4.355,63.467 2.466,5.862 4.6,12.417 6.858,18.362 24.717,-6.387 51.184,-5.877 76.056,-0.157 2.013,-3.184 2.539,-7.448 2.059,-11.184 -0.483,-3.738 -1.784,-7.31 -2.988,-10.88 -6.467,-19.173 -10.337,-39.221 -11.471,-59.424 -0.154,-2.708 -0.101,-5.806 1.928,-7.604 2.169,-1.922 5.608,-1.381 8.154,0 4.651,2.523 7.743,7.264 9.558,12.234 1.815,4.971 2.527,10.261 3.606,15.439 3.634,17.451 11.81,33.756 23.203,47.464 0.883,-1.117 1.746,-2.251 2.577,-3.409 4.368,-6.088 7.881,-13.125 8.069,-20.615 0.295,-11.806 -7.189,-22.231 -10.727,-33.863 -2.543,-8.358 -5.547,-16.569 -8.321,-24.852 -0.466,-1.393 -0.939,-2.859 -0.676,-4.304 0.373,-2.058 2.215,-3.616 4.223,-4.204 2.008,-0.586 4.159,-0.367 6.22,-0.002 3.45,0.612 6.938,1.675 9.61,3.941 3.603,3.054 5.203,7.795 6.643,12.292 2.341,7.302 5.451,14.367 7.685,22.982 2.149,8.292 6.402,15.781 10.067,23.523 3.664,7.742 5.947,17.14 1.852,24.665 -3.117,5.728 -9.559,9.586 -11.05,15.935 -0.935,3.972 0.33,8.167 2.295,11.741 1.966,3.576 4.616,6.728 6.772,10.192 3.35,5.381 5.441,11.452 6.398,17.726 -1.167,-9.327 -3.881,-24.902 -1.236,-33.743 3.377,-11.28 13.988,-19.658 15.929,-31.272 1.198,-7.165 -1,-15.158 2.749,-21.978 1.485,5.179 5.77,9.13 10.463,11.775 4.694,2.643 9.895,4.236 14.804,6.454 12.75,5.758 23.481,15.882 29.969,28.275 6.489,12.394 8.697,26.98 6.165,40.738 -1.403,7.629 -4.176,14.857 -7.217,22.013 4.388,-6.204 12.285,-10.53 19.719,-9.514"
             style="fill:#ffffff;fill-opacity:1;fill-rule:nonzero;stroke:none"
             id="path130" />
        </g>
        <g
           id="g132"
           transform="translate(113.7383,406.6445)">
          <path
             d="M 0,0 C 5.155,-0.599 10.515,0.776 14.744,3.785"
             style="fill:none;stroke:#000000;stroke-width:1.2;stroke-linecap:round;stroke-linejoin:round;stroke-miterlimit:10;stroke-dasharray:none;stroke-opacity:1"
             id="path134" />
        </g>
        <g
           id="g136"
           transform="translate(109.8926,415.1777)">
          <path
             d="M 0,0 C 4.714,-0.592 9.62,0.492 13.648,3.012"
             style="fill:none;stroke:#000000;stroke-width:1.2;stroke-linecap:round;stroke-linejoin:round;stroke-miterlimit:10;stroke-dasharray:none;stroke-opacity:1"
             id="path138" />
        </g>
        <g
           id="g140"
           transform="translate(105.5894,423.7861)">
          <path
             d="M 0,0 C 4.166,-0.017 8.33,1.145 11.887,3.313"
             style="fill:none;stroke:#000000;stroke-width:1.2;stroke-linecap:round;stroke-linejoin:round;stroke-miterlimit:10;stroke-dasharray:none;stroke-opacity:1"
             id="path142" />
        </g>
        <g
           id="g144"
           transform="translate(101.7896,432.4653)">
          <path
             d="M 0,0 C 3.673,-0.585 7.549,0.202 10.704,2.172"
             style="fill:none;stroke:#000000;stroke-width:1.2;stroke-linecap:round;stroke-linejoin:round;stroke-miterlimit:10;stroke-dasharray:none;stroke-opacity:1"
             id="path146" />
        </g>
        <g
           id="g148"
           transform="translate(98.0786,441.0435)">
          <path
             d="M 0,0 C 2.92,-0.53 6.055,0.265 8.369,2.123"
             style="fill:none;stroke:#000000;stroke-width:1.2;stroke-linecap:round;stroke-linejoin:round;stroke-miterlimit:10;stroke-dasharray:none;stroke-opacity:1"
             id="path150" />
        </g>
        <g
           id="g152"
           transform="translate(94.2168,449.4824)">
          <path
             d="M 0,0 C 2.261,-0.136 4.558,0.378 6.545,1.464"
             style="fill:none;stroke:#000000;stroke-width:1.2;stroke-linecap:round;stroke-linejoin:round;stroke-miterlimit:10;stroke-dasharray:none;stroke-opacity:1"
             id="path154" />
        </g>
        <g
           id="g156"
           transform="translate(91.2012,456.8882)">
          <path
             d="M 0,0 C 1.419,-0.13 2.87,0.071 4.201,0.582"
             style="fill:none;stroke:#000000;stroke-width:1.2;stroke-linecap:round;stroke-linejoin:round;stroke-miterlimit:10;stroke-dasharray:none;stroke-opacity:1"
             id="path158" />
        </g>
        <g
           id="g160"
           transform="translate(138.2393,373.1558)">
          <path
             d="m 0,0 c 4.24,5.285 5.496,12.336 8.813,18.242 4.006,7.131 11.151,12.423 19.139,14.175"
             style="fill:none;stroke:#000000;stroke-width:1.2;stroke-linecap:round;stroke-linejoin:round;stroke-miterlimit:10;stroke-dasharray:none;stroke-opacity:1"
             id="path162" />
        </g>
        <g
           id="g164"
           transform="translate(136.7754,378.8706)">
          <path
             d="m 0,0 c -0.283,8.164 2.637,16.396 8,22.557 5.364,6.161 13.116,10.187 21.241,11.03"
             style="fill:none;stroke:#000000;stroke-width:1.2;stroke-linecap:round;stroke-linejoin:round;stroke-miterlimit:10;stroke-dasharray:none;stroke-opacity:1"
             id="path166" />
        </g>
        <g
           id="g168"
           transform="translate(87.3721,368.0889)">
          <path
             d="m 0,0 c 3.821,-4.539 9.307,-7.754 15.203,-8.404 5.898,-0.65 12.132,1.412 16.159,5.771 3.744,4.054 5.349,9.632 6.247,15.078 0.9,5.446 1.227,11.029 2.957,16.271 2.285,6.921 7.043,12.996 13.217,16.871 6.173,3.875 13.712,5.521 20.938,4.569"
             style="fill:none;stroke:#000000;stroke-width:1.2;stroke-linecap:round;stroke-linejoin:round;stroke-miterlimit:10;stroke-dasharray:none;stroke-opacity:1"
             id="path170" />
        </g>
        <g
           id="g172"
           transform="translate(106.7227,350.5132)">
          <path
             d="m 0,0 c 5.885,1.103 11.958,3.094 15.897,7.604 3.143,3.596 4.555,8.39 5.273,13.111 0.719,4.721 0.834,9.532 1.815,14.205 0.982,4.673 2.965,9.347 6.663,12.369"
             style="fill:none;stroke:#000000;stroke-width:1.2;stroke-linecap:round;stroke-linejoin:round;stroke-miterlimit:10;stroke-dasharray:none;stroke-opacity:1"
             id="path174" />
        </g>
        <g
           id="g176"
           transform="translate(92.6587,383.6968)">
          <path
             d="m 0,0 c 2.739,-2.092 5.854,-3.816 9.256,-4.37 3.402,-0.553 7.125,0.194 9.671,2.517 3.492,3.188 4.207,8.617 7.696,11.81"
             style="fill:none;stroke:#000000;stroke-width:1.2;stroke-linecap:round;stroke-linejoin:round;stroke-miterlimit:10;stroke-dasharray:none;stroke-opacity:1"
             id="path178" />
        </g>
        <g
           id="g180"
           transform="translate(117.2603,398.3687)">
          <path
             d="M 0,0 C 2.663,0.202 5.285,0.917 7.68,2.097"
             style="fill:none;stroke:#000000;stroke-width:1.2;stroke-linecap:round;stroke-linejoin:round;stroke-miterlimit:10;stroke-dasharray:none;stroke-opacity:1"
             id="path182" />
        </g>
        <g
           id="g184"
           transform="translate(97.6406,326.5674)">
          <path
             d="m 0,0 c 4.003,0.354 7.777,2.72 9.839,6.168 2.292,3.832 2.604,8.874 5.867,11.923"
             style="fill:none;stroke:#000000;stroke-width:1.2;stroke-linecap:round;stroke-linejoin:round;stroke-miterlimit:10;stroke-dasharray:none;stroke-opacity:1"
             id="path186" />
        </g>
        <g
           id="g188"
           transform="translate(100.9756,337.019)">
          <path
             d="m 0,0 c 2.028,1.498 2.788,4.133 3.413,6.576 0.623,2.444 1.358,5.08 3.362,6.609"
             style="fill:none;stroke:#000000;stroke-width:1.2;stroke-linecap:round;stroke-linejoin:round;stroke-miterlimit:10;stroke-dasharray:none;stroke-opacity:1"
             id="path190" />
        </g>
        <g
           id="g192"
           transform="translate(186.4966,405.7339)">
          <path
             d="m 0,0 c 2.697,-0.08 5.267,-1.237 7.491,-2.766 2.224,-1.527 4.164,-3.425 6.188,-5.209 6.236,-5.492 13.544,-10.021 21.669,-11.766 8.125,-1.744 17.137,-0.428 23.674,4.702"
             style="fill:none;stroke:#000000;stroke-width:1.2;stroke-linecap:round;stroke-linejoin:round;stroke-miterlimit:10;stroke-dasharray:none;stroke-opacity:1"
             id="path194" />
        </g>
        <g
           id="g196"
           transform="translate(183.667,412.9941)">
          <path
             d="m 0,0 c 5.538,0.692 11.322,-0.848 15.783,-4.199 5.461,-4.104 8.94,-10.715 15.059,-13.75 4.723,-2.343 10.642,-2.079 15.139,0.675"
             style="fill:none;stroke:#000000;stroke-width:1.2;stroke-linecap:round;stroke-linejoin:round;stroke-miterlimit:10;stroke-dasharray:none;stroke-opacity:1"
             id="path198" />
        </g>
        <g
           id="g200"
           transform="translate(199.5024,418.5835)">
          <path
             d="m 0,0 c 3.353,-0.99 6.117,-3.368 8.493,-5.931 2.378,-2.563 4.494,-5.387 7.146,-7.663 2.654,-2.277 6.006,-4.003 9.496,-3.811"
             style="fill:none;stroke:#000000;stroke-width:1.2;stroke-linecap:round;stroke-linejoin:round;stroke-miterlimit:10;stroke-dasharray:none;stroke-opacity:1"
             id="path202" />
        </g>
        <g
           id="g204"
           transform="translate(242.0342,377.9707)">
          <path
             d="m 0,0 c 4.043,-2.476 6.259,-7.081 7.653,-11.611 1.395,-4.531 2.212,-9.298 4.458,-13.473 2.573,-4.779 6.938,-8.494 11.925,-10.634 4.988,-2.138 10.566,-2.749 15.958,-2.136 3.397,0.387 6.864,1.312 9.474,3.523"
             style="fill:none;stroke:#000000;stroke-width:1.2;stroke-linecap:round;stroke-linejoin:round;stroke-miterlimit:10;stroke-dasharray:none;stroke-opacity:1"
             id="path206" />
        </g>
        <g
           id="g208"
           transform="translate(229.2412,375.3774)">
          <path
             d="m 0,0 c 1.915,-8.392 6.535,-16.144 13.005,-21.82 2.633,-2.311 5.553,-4.278 8.18,-6.595 2.628,-2.316 5.008,-5.065 6.147,-8.377"
             style="fill:none;stroke:#000000;stroke-width:1.2;stroke-linecap:round;stroke-linejoin:round;stroke-miterlimit:10;stroke-dasharray:none;stroke-opacity:1"
             id="path210" />
        </g>
        <g
           id="g212"
           transform="translate(220.71,376.3672)">
          <path
             d="M 0,0 C 1.27,-13.671 9.392,-26.533 21.189,-33.558"
             style="fill:none;stroke:#000000;stroke-width:1.2;stroke-linecap:round;stroke-linejoin:round;stroke-miterlimit:10;stroke-dasharray:none;stroke-opacity:1"
             id="path214" />
        </g>
        <g
           id="g216"
           transform="translate(227.4321,345.9771)">
          <path
             d="M 0,0 C -9.407,8.422 -15.469,20.484 -16.619,33.058"
             style="fill:none;stroke:#000000;stroke-width:1.2;stroke-linecap:round;stroke-linejoin:round;stroke-miterlimit:10;stroke-dasharray:none;stroke-opacity:1"
             id="path218" />
        </g>
        <g
           id="g220"
           transform="translate(257.6377,337.771)">
          <path
             d="m 0,0 c 3.602,-3.593 5.594,-8.496 6.889,-13.417 1.296,-4.918 1.987,-9.991 3.476,-14.855 1.489,-4.866 3.896,-9.641 7.899,-12.781 3.593,-2.82 8.335,-4.107 12.872,-3.566 4.535,0.54 8.817,2.885 11.775,6.367"
             style="fill:none;stroke:#000000;stroke-width:1.2;stroke-linecap:round;stroke-linejoin:round;stroke-miterlimit:10;stroke-dasharray:none;stroke-opacity:1"
             id="path222" />
        </g>
        <g
           id="g224"
           transform="translate(242.6572,342.5029)">
          <path
             d="m 0,0 c 4.316,-2.887 6.972,-7.731 8.475,-12.703 1.503,-4.971 2.005,-10.179 2.986,-15.278 1.581,-8.227 4.574,-16.463 10.378,-22.502 5.807,-6.038 15.382,-9.739 23.349,-7.147"
             style="fill:none;stroke:#000000;stroke-width:1.2;stroke-linecap:round;stroke-linejoin:round;stroke-miterlimit:10;stroke-dasharray:none;stroke-opacity:1"
             id="path226" />
        </g>
        <g
           id="g228"
           transform="translate(233.1875,344.3887)">
          <path
             d="m 0,0 c 2.727,-3.896 4.008,-8.626 4.715,-13.329 0.707,-4.703 0.888,-9.476 1.668,-14.167 2.217,-13.312 9.426,-25.733 19.886,-34.261"
             style="fill:none;stroke:#000000;stroke-width:1.2;stroke-linecap:round;stroke-linejoin:round;stroke-miterlimit:10;stroke-dasharray:none;stroke-opacity:1"
             id="path230" />
        </g>
        <g
           id="g232"
           transform="translate(222.3159,348.6733)">
          <path
             d="M 0,0 C 6.17,-12.157 9.569,-25.709 9.866,-39.338"
             style="fill:none;stroke:#000000;stroke-width:1.2;stroke-linecap:round;stroke-linejoin:round;stroke-miterlimit:10;stroke-dasharray:none;stroke-opacity:1"
             id="path234" />
        </g>
        <g
           id="g236"
           transform="translate(263.3232,280.8218)">
          <path
             d="m 0,0 c 0.271,-3.626 0.761,-7.262 1.907,-10.712 1.148,-3.45 2.983,-6.725 5.651,-9.196 4.919,-4.556 12.488,-5.859 18.791,-3.57 6.302,2.29 11.181,7.932 12.926,14.406"
             style="fill:none;stroke:#000000;stroke-width:1.2;stroke-linecap:round;stroke-linejoin:round;stroke-miterlimit:10;stroke-dasharray:none;stroke-opacity:1"
             id="path238" />
        </g>
        <g
           id="g240"
           transform="translate(247.3325,290.4355)">
          <path
             d="m 0,0 c 0.244,-6.166 0.494,-12.38 1.951,-18.376 1.457,-5.996 4.222,-11.832 8.797,-15.974 4.166,-3.77 9.593,-5.92 15.109,-6.987 7.842,-1.516 17.329,-0.538 23.96,3.914"
             style="fill:none;stroke:#000000;stroke-width:1.2;stroke-linecap:round;stroke-linejoin:round;stroke-miterlimit:10;stroke-dasharray:none;stroke-opacity:1"
             id="path242" />
        </g>
        <g
           id="g244"
           transform="translate(234.9819,305.7944)">
          <path
             d="m 0,0 c -1.556,-9.549 -3.112,-19.307 -1.5,-28.848 1.411,-8.351 5.286,-16.27 11.015,-22.507 5.729,-6.237 13.29,-10.771 21.491,-12.884"
             style="fill:none;stroke:#000000;stroke-width:1.2;stroke-linecap:round;stroke-linejoin:round;stroke-miterlimit:10;stroke-dasharray:none;stroke-opacity:1"
             id="path246" />
        </g>
        <g
           id="g248"
           transform="translate(174.1919,98.2256)">
          <path
             d="M 0,0 C 2.373,-5.721 4.301,-11.626 5.765,-17.645"
             style="fill:none;stroke:#000000;stroke-width:1.2;stroke-linecap:round;stroke-linejoin:round;stroke-miterlimit:10;stroke-dasharray:none;stroke-opacity:1"
             id="path250" />
        </g>
        <g
           id="g252"
           transform="translate(179.2319,100.3301)">
          <path
             d="M 0,0 C 2.286,-5.187 4.159,-10.558 5.594,-16.042"
             style="fill:none;stroke:#000000;stroke-width:1.2;stroke-linecap:round;stroke-linejoin:round;stroke-miterlimit:10;stroke-dasharray:none;stroke-opacity:1"
             id="path254" />
        </g>
        <g
           id="g256"
           transform="translate(191.4463,72.3223)">
          <path
             d="M 0,0 C -0.057,-5.451 0.464,-10.908 1.55,-16.25"
             style="fill:none;stroke:#000000;stroke-width:1.2;stroke-linecap:round;stroke-linejoin:round;stroke-miterlimit:10;stroke-dasharray:none;stroke-opacity:1"
             id="path258" />
        </g>
        <g
           id="g260"
           transform="translate(197.9673,57.1113)">
          <path
             d="M 0,0 C -0.904,5.152 -1.355,10.385 -1.344,15.617"
             style="fill:none;stroke:#000000;stroke-width:1.2;stroke-linecap:round;stroke-linejoin:round;stroke-miterlimit:10;stroke-dasharray:none;stroke-opacity:1"
             id="path262" />
        </g>
        <g
           id="g264"
           transform="translate(202.2451,73.7988)">
          <path
             d="M 0,0 C -0.026,-4.73 0.311,-9.461 1.006,-14.14"
             style="fill:none;stroke:#000000;stroke-width:1.2;stroke-linecap:round;stroke-linejoin:round;stroke-miterlimit:10;stroke-dasharray:none;stroke-opacity:1"
             id="path266" />
        </g>
        <g
           id="g268"
           transform="translate(207.9404,63.7939)">
          <path
             d="M 0,0 C -0.493,3.128 -0.795,6.286 -0.903,9.45"
             style="fill:none;stroke:#000000;stroke-width:1.2;stroke-linecap:round;stroke-linejoin:round;stroke-miterlimit:10;stroke-dasharray:none;stroke-opacity:1"
             id="path270" />
        </g>
        <g
           id="g272"
           transform="translate(281.1494,83.9365)">
          <path
             d="M 0,0 C -1.374,-5.995 -2.17,-12.123 -2.369,-18.271"
             style="fill:none;stroke:#000000;stroke-width:1.2;stroke-linecap:round;stroke-linejoin:round;stroke-miterlimit:10;stroke-dasharray:none;stroke-opacity:1"
             id="path274" />
        </g>
        <g
           id="g276"
           transform="translate(282.2969,65.1924)">
          <path
             d="M 0,0 C 0.409,6.146 1.311,12.257 2.692,18.258"
             style="fill:none;stroke:#000000;stroke-width:1.2;stroke-linecap:round;stroke-linejoin:round;stroke-miterlimit:10;stroke-dasharray:none;stroke-opacity:1"
             id="path278" />
        </g>
        <g
           id="g280"
           transform="translate(289.7471,83.2988)">
          <path
             d="M 0,0 C -1.061,-5.22 -1.9,-10.484 -2.515,-15.775"
             style="fill:none;stroke:#000000;stroke-width:1.2;stroke-linecap:round;stroke-linejoin:round;stroke-miterlimit:10;stroke-dasharray:none;stroke-opacity:1"
             id="path282" />
        </g>
        <g
           id="g284"
           transform="translate(315.5645,51.3018)">
          <path
             d="M 0,0 C 2.069,6.681 4.944,13.109 8.542,19.106"
             style="fill:none;stroke:#000000;stroke-width:1.2;stroke-linecap:round;stroke-linejoin:round;stroke-miterlimit:10;stroke-dasharray:none;stroke-opacity:1"
             id="path286" />
        </g>
        <g
           id="g288"
           transform="translate(320.1133,49.9482)">
          <path
             d="M 0,0 C 2.718,6.355 6.116,12.419 10.12,18.052"
             style="fill:none;stroke:#000000;stroke-width:1.2;stroke-linecap:round;stroke-linejoin:round;stroke-miterlimit:10;stroke-dasharray:none;stroke-opacity:1"
             id="path290" />
        </g>
        <g
           id="g292"
           transform="translate(334.5146,67.0869)">
          <path
             d="M 0,0 C -3.077,-5.285 -5.757,-10.8 -8.011,-16.485"
             style="fill:none;stroke:#000000;stroke-width:1.2;stroke-linecap:round;stroke-linejoin:round;stroke-miterlimit:10;stroke-dasharray:none;stroke-opacity:1"
             id="path294" />
        </g>
        <g
           id="g296"
           transform="translate(337.8203,252.0015)">
          <path
             d="m 0,0 c -0.462,7.453 1.303,15.03 5.01,21.513 3.705,6.482 9.342,11.846 15.998,15.229 4.812,2.445 10.07,3.849 15.251,5.363 5.18,1.514 10.392,3.187 14.943,6.088 4.552,2.902 8.436,7.199 9.778,12.427"
             style="fill:none;stroke:#000000;stroke-width:1.2;stroke-linecap:round;stroke-linejoin:round;stroke-miterlimit:10;stroke-dasharray:none;stroke-opacity:1"
             id="path298" />
        </g>
        <g
           id="g300"
           transform="translate(363.5166,279.6797)">
          <path
             d="m 0,0 c 5.095,5.85 11.791,10.292 19.161,12.709 2.762,0.907 5.617,1.535 8.31,2.628 2.693,1.094 5.276,2.722 6.861,5.158"
             style="fill:none;stroke:#000000;stroke-width:1.2;stroke-linecap:round;stroke-linejoin:round;stroke-miterlimit:10;stroke-dasharray:none;stroke-opacity:1"
             id="path302" />
        </g>
        <g
           id="g304"
           transform="translate(350.3633,258.4009)">
          <path
             d="M 0,0 C 8.026,12.319 20.895,21.594 35.411,23.928 49.929,26.261 65.53,21.698 76.075,11.452 82.433,5.274 86.815,-2.613 90.993,-10.431 95.47,-18.807 99.936,-27.716 99.7,-37.21"
             style="fill:none;stroke:#000000;stroke-width:1.2;stroke-linecap:round;stroke-linejoin:round;stroke-miterlimit:10;stroke-dasharray:none;stroke-opacity:1"
             id="path306" />
        </g>
        <g
           id="g308"
           transform="translate(406.2842,271.7485)">
          <path
             d="m 0,0 c 7.114,-0.304 13.671,-4.42 18.265,-9.863 4.593,-5.442 7.46,-12.12 9.803,-18.845 2.346,-6.725 4.244,-13.626 7.222,-20.096 2.977,-6.47 7.167,-12.596 13.116,-16.51"
             style="fill:none;stroke:#000000;stroke-width:1.2;stroke-linecap:round;stroke-linejoin:round;stroke-miterlimit:10;stroke-dasharray:none;stroke-opacity:1"
             id="path310" />
        </g>
        <g
           id="g312"
           transform="translate(382.0361,107.6436)">
          <path
             d="m 0,0 c -2.018,6.579 1.432,13.122 5.808,18.435 4.374,5.312 10.195,9.191 15.536,13.531 10.795,8.772 19.889,19.753 25.84,32.325 5.949,12.572 9.328,26.757 7.75,40.576"
             style="fill:none;stroke:#000000;stroke-width:1.2;stroke-linecap:round;stroke-linejoin:round;stroke-miterlimit:10;stroke-dasharray:none;stroke-opacity:1"
             id="path314" />
        </g>
        <g
           id="g316"
           transform="translate(378.7949,128.2031)">
          <path
             d="m 0,0 c -1.413,7.065 1.485,14.747 5.157,20.946 3.672,6.2 8.63,11.517 13.106,17.165 8.891,11.219 16.008,24.035 19.383,37.947 3.375,13.913 2.835,28.975 -2.893,42.094 -5.729,13.12 -16.68,23.431 -30.39,27.552"
             style="fill:none;stroke:#000000;stroke-width:1.2;stroke-linecap:round;stroke-linejoin:round;stroke-miterlimit:10;stroke-dasharray:none;stroke-opacity:1"
             id="path318" />
        </g>
        <g
           id="g320"
           transform="translate(368.9727,147.5439)">
          <path
             d="m 0,0 c -3.464,7.286 -0.628,16.479 3.343,23.501 3.969,7.023 9.644,12.935 13.966,19.748 8.081,12.743 11.099,28.607 8.261,43.429 -1.51,7.892 -4.802,15.723 -10.803,21.066 -4.946,4.403 -11.583,6.856 -18.205,6.726 -6.62,-0.131 -13.155,-2.843 -17.923,-7.437"
             style="fill:none;stroke:#000000;stroke-width:1.2;stroke-linecap:round;stroke-linejoin:round;stroke-miterlimit:10;stroke-dasharray:none;stroke-opacity:1"
             id="path322" />
        </g>
        <g
           id="g324"
           transform="translate(345.8242,247.915)">
          <path
             d="m 0,0 c 8.729,4.751 20.44,3.215 27.649,-3.626 4.439,-4.214 7.098,-10.03 8.447,-15.999 1.58,-6.999 1.462,-14.422 -0.7,-21.264 -2.644,-8.371 -8.142,-15.482 -12.534,-23.085 -4.389,-7.603 -7.785,-16.538 -5.628,-25.047"
             style="fill:none;stroke:#000000;stroke-width:1.2;stroke-linecap:round;stroke-linejoin:round;stroke-miterlimit:10;stroke-dasharray:none;stroke-opacity:1"
             id="path326" />
        </g>
        <g
           id="g328"
           transform="translate(111.8252,311.4912)">
          <path
             d="M 0,0 C 14.755,1.201 29.895,-6.346 37.821,-18.849"
             style="fill:none;stroke:#000000;stroke-width:1.2;stroke-linecap:round;stroke-linejoin:round;stroke-miterlimit:10;stroke-dasharray:none;stroke-opacity:1"
             id="path330" />
        </g>
        <g
           id="g332"
           transform="translate(148.4482,289.5488)">
          <path
             d="M 0,0 C 1.649,3.669 2.842,7.625 3.826,11.491"
             style="fill:none;stroke:#000000;stroke-width:1.8;stroke-linecap:round;stroke-linejoin:round;stroke-miterlimit:10;stroke-dasharray:none;stroke-opacity:1"
             id="path334" />
        </g>
        <g
           id="g336"
           transform="translate(112.8135,349.9424)">
          <path
             d="M 0,0 C 1.223,-6.163 2.448,-12.357 2.679,-18.636"
             style="fill:none;stroke:#000000;stroke-width:1.8;stroke-linecap:round;stroke-linejoin:round;stroke-miterlimit:10;stroke-dasharray:none;stroke-opacity:1"
             id="path338" />
        </g>
        <g
           id="g340"
           transform="translate(131.8228,274.2983)">
          <path
             d="M 0,0 C 4.737,4.9 7.523,11.576 7.627,18.392"
             style="fill:none;stroke:#000000;stroke-width:1.8;stroke-linecap:round;stroke-linejoin:round;stroke-miterlimit:10;stroke-dasharray:none;stroke-opacity:1"
             id="path342" />
        </g>
        <g
           id="g344"
           transform="translate(115.417,301.2998)">
          <path
             d="m 0,0 c -1.603,-0.848 -2.836,-2.371 -3.333,-4.115 -0.496,-1.744 -0.25,-3.687 0.484,-5.15 1.14,0.035 2.246,0.666 2.855,1.63 0.609,0.965 0.706,2.234 0.246,3.279 -0.457,1.044 -1.456,1.834 -2.578,2.04"
             style="fill:none;stroke:#000000;stroke-width:1.8;stroke-linecap:round;stroke-linejoin:round;stroke-miterlimit:10;stroke-dasharray:none;stroke-opacity:1"
             id="path346" />
        </g>
        <g
           id="g348"
           transform="translate(166.9414,399.1938)">
          <path
             d="m 0,0 c -5.085,-0.826 -9.191,-4.734 -11.854,-9.144 -2.664,-4.411 -4.191,-9.396 -6.295,-14.099 -2.104,-4.703 -4.979,-9.327 -9.373,-11.079 -0.659,9.069 -4.671,17.813 -4.095,26.887 0.468,7.359 4.121,14.461 9.837,19.12 5.717,4.659 13.409,6.805 20.711,5.78"
             style="fill:none;stroke:#000000;stroke-width:1.8;stroke-linecap:round;stroke-linejoin:round;stroke-miterlimit:10;stroke-dasharray:none;stroke-opacity:1"
             id="path350" />
        </g>
        <g
           id="g352"
           transform="translate(101.8545,369.0664)">
          <path
             d="m 0,0 c 4.703,1.534 8.992,4.337 12.126,8.17 6.843,8.37 7.937,20.196 14.171,29.03 4.036,5.718 10.143,9.899 16.883,11.788 3.052,0.855 6.224,1.245 9.393,1.196"
             style="fill:none;stroke:#000000;stroke-width:1.8;stroke-linecap:round;stroke-linejoin:round;stroke-miterlimit:10;stroke-dasharray:none;stroke-opacity:1"
             id="path354" />
        </g>
        <g
           id="g356"
           transform="translate(135.0249,386.647)">
          <path
             d="m 0,0 c -1.819,-2.537 -2.365,-5.769 -2.486,-8.888 -0.121,-3.118 0.128,-6.262 -0.323,-9.35 -1.004,-6.874 -5.658,-13.062 -11.898,-16.117 -5.202,-2.549 -11.379,-2.914 -16.918,-1.219"
             style="fill:none;stroke:#000000;stroke-width:1.8;stroke-linecap:round;stroke-linejoin:round;stroke-miterlimit:10;stroke-dasharray:none;stroke-opacity:1"
             id="path358" />
        </g>
        <g
           id="g360"
           transform="translate(127.9419,411.876)">
          <path
             d="M 0,0 C 0.653,-1.035 1.303,-2.072 1.95,-3.113"
             style="fill:none;stroke:#000000;stroke-width:1.8;stroke-linecap:round;stroke-linejoin:round;stroke-miterlimit:10;stroke-dasharray:none;stroke-opacity:1"
             id="path362" />
        </g>
        <g
           id="g364"
           transform="translate(120.5269,390.6069)">
          <path
             d="M 0,0 -3.651,8.107"
             style="fill:none;stroke:#000000;stroke-width:1.8;stroke-linecap:round;stroke-linejoin:round;stroke-miterlimit:10;stroke-dasharray:none;stroke-opacity:1"
             id="path366" />
        </g>
        <g
           id="g368"
           transform="translate(187.2295,400.0879)">
          <path
             d="m 0,0 c 4.998,-7.968 11.924,-14.797 20.232,-19.207 8.308,-4.409 18.009,-6.322 27.302,-4.868 3.764,0.59 7.493,1.749 10.761,3.676"
             style="fill:none;stroke:#000000;stroke-width:1.8;stroke-linecap:round;stroke-linejoin:round;stroke-miterlimit:10;stroke-dasharray:none;stroke-opacity:1"
             id="path370" />
        </g>
        <g
           id="g372"
           transform="translate(203.3745,382.396)">
          <path
             d="m 0,0 c 1.221,-7.46 3.408,-14.847 7.312,-21.32 3.904,-6.472 9.627,-11.997 16.638,-14.823 9.187,-3.702 19.954,-2.632 28.667,-7.344 3.829,-2.07 7.076,-5.175 10.839,-7.297"
             style="fill:none;stroke:#000000;stroke-width:1.8;stroke-linecap:round;stroke-linejoin:round;stroke-miterlimit:10;stroke-dasharray:none;stroke-opacity:1"
             id="path374" />
        </g>
        <g
           id="g376"
           transform="translate(212.8896,357.79)">
          <path
             d="m 0,0 c 0.855,-9.597 3.429,-20.234 7.564,-28.936 4.074,-8.57 9.604,-16.353 15.106,-24.086 5.004,-7.035 10.19,-14.245 17.459,-18.904 7.729,-4.955 17.524,-6.552 26.434,-4.359"
             style="fill:none;stroke:#000000;stroke-width:1.8;stroke-linecap:round;stroke-linejoin:round;stroke-miterlimit:10;stroke-dasharray:none;stroke-opacity:1"
             id="path378" />
        </g>
        <g
           id="g380"
           transform="translate(226.374,318.1284)">
          <path
             d="m 0,0 c 0.316,-11.648 -4.114,-23.077 -3.488,-34.713 0.541,-10.109 5.022,-19.886 12.026,-27.196 7.003,-7.311 16.433,-12.165 26.381,-14.046 9.942,-1.878 20.747,-0.699 29.217,4.833 3.781,2.471 6.992,5.893 9.288,9.823"
             style="fill:none;stroke:#000000;stroke-width:1.8;stroke-linecap:round;stroke-linejoin:round;stroke-miterlimit:10;stroke-dasharray:none;stroke-opacity:1"
             id="path382" />
        </g>
        <g
           id="g384"
           transform="translate(205.5024,137.2207)">
          <path
             d="M 0,0 C -0.448,1.707 -0.936,3.406 -1.468,5.097"
             style="fill:none;stroke:#000000;stroke-width:1.8;stroke-linecap:round;stroke-linejoin:round;stroke-miterlimit:10;stroke-dasharray:none;stroke-opacity:1"
             id="path386" />
        </g>
        <g
           id="g388"
           transform="translate(178.5601,138.2324)">
          <path
             d="m 0,0 c 0.136,-1.38 0.312,-2.758 0.533,-4.137 1.504,-9.421 5.007,-18.436 6.488,-27.861 0.938,-5.971 1.052,-12.01 0.992,-18.065"
             style="fill:none;stroke:#000000;stroke-width:1.8;stroke-linecap:round;stroke-linejoin:round;stroke-miterlimit:10;stroke-dasharray:none;stroke-opacity:1"
             id="path390" />
        </g>
        <g
           id="g392"
           transform="translate(189.2393,196.6465)">
          <path
             d="M 0,0 C -2.687,-8.108 -5.387,-16.371 -7.444,-24.718"
             style="fill:none;stroke:#000000;stroke-width:1.8;stroke-linecap:round;stroke-linejoin:round;stroke-miterlimit:10;stroke-dasharray:none;stroke-opacity:1"
             id="path394" />
        </g>
        <g
           id="g396"
           transform="translate(212.3599,155.582)">
          <path
             d="M 0,0 C 2.49,6.556 4.852,13.159 7.085,19.806"
             style="fill:none;stroke:#000000;stroke-width:1.8;stroke-linecap:round;stroke-linejoin:round;stroke-miterlimit:10;stroke-dasharray:none;stroke-opacity:1"
             id="path398" />
        </g>
        <g
           id="g400"
           transform="translate(186.6387,70.6309)">
          <path
             d="M 0,0 C 7.188,2.886 15.158,3.797 22.812,2.61"
             style="fill:none;stroke:#000000;stroke-width:1.8;stroke-linecap:round;stroke-linejoin:round;stroke-miterlimit:10;stroke-dasharray:none;stroke-opacity:1"
             id="path402" />
        </g>
        <g
           id="g404"
           transform="translate(172.2124,181.2402)">
          <path
             d="m 0,0 c -6.36,7.792 -10.577,17.348 -11.86,27.329 -0.037,0.284 -0.071,0.567 -0.103,0.851"
             style="fill:none;stroke:#000000;stroke-width:1.8;stroke-linecap:round;stroke-linejoin:round;stroke-miterlimit:10;stroke-dasharray:none;stroke-opacity:1"
             id="path406" />
        </g>
        <g
           id="g408"
           transform="translate(169.5869,95.7275)">
          <path
             d="M 0,0 C 5.238,2.974 10.656,5.631 16.216,7.946"
             style="fill:none;stroke:#000000;stroke-width:1.8;stroke-linecap:round;stroke-linejoin:round;stroke-miterlimit:10;stroke-dasharray:none;stroke-opacity:1"
             id="path410" />
        </g>
        <g
           id="g412"
           transform="translate(162.8789,172.9834)">
          <path
             d="M 0,0 C -0.836,1.2 -1.699,2.382 -2.586,3.544"
             style="fill:none;stroke:#000000;stroke-width:1.8;stroke-linecap:round;stroke-linejoin:round;stroke-miterlimit:10;stroke-dasharray:none;stroke-opacity:1"
             id="path414" />
        </g>
        <g
           id="g416"
           transform="translate(178.5601,138.2324)">
          <path
             d="m 0,0 c -1.111,11.267 0.489,22.556 3.235,33.696 -3.65,2.668 -6.727,5.812 -9.583,9.312 -2.662,-3.131 -6.063,-5.766 -9.333,-8.257 C -8.315,24.179 -2.92,12.55 0,0 Z"
             style="fill:none;stroke:#000000;stroke-width:1.8;stroke-linecap:round;stroke-linejoin:round;stroke-miterlimit:10;stroke-dasharray:none;stroke-opacity:1"
             id="path418" />
        </g>
        <g
           id="g420"
           transform="translate(288.416,155.4258)">
          <path
             d="M 0,0 C 6.459,1.485 12.825,3.374 19.047,5.664"
             style="fill:none;stroke:#000000;stroke-width:1.8;stroke-linecap:round;stroke-linejoin:round;stroke-miterlimit:10;stroke-dasharray:none;stroke-opacity:1"
             id="path422" />
        </g>
        <g
           id="g424"
           transform="translate(364.1016,193.2187)">
          <path
             d="m 0,0 c 0.699,4.585 0.791,9.279 0.325,13.889 -1.104,10.915 -4.666,21.725 -10.992,31.025 -4.641,6.822 -11.504,11.952 -19.066,15.393"
             style="fill:none;stroke:#000000;stroke-width:1.8;stroke-linecap:round;stroke-linejoin:round;stroke-miterlimit:10;stroke-dasharray:none;stroke-opacity:1"
             id="path426" />
        </g>
        <g
           id="g428"
           transform="translate(296.5889,191.9834)">
          <path
             d="m 0,0 c 1.637,-13.082 6.646,-25.727 14.41,-36.381 3.573,-4.902 7.705,-9.375 11.466,-14.132"
             style="fill:none;stroke:#000000;stroke-width:1.8;stroke-linecap:round;stroke-linejoin:round;stroke-miterlimit:10;stroke-dasharray:none;stroke-opacity:1"
             id="path430" />
        </g>
        <g
           id="g432"
           transform="translate(276.9238,82.9111)">
          <path
             d="M 0,0 C 6.282,2.069 13.434,1.32 19.15,-2.007"
             style="fill:none;stroke:#000000;stroke-width:1.8;stroke-linecap:round;stroke-linejoin:round;stroke-miterlimit:10;stroke-dasharray:none;stroke-opacity:1"
             id="path434" />
        </g>
        <g
           id="g436"
           transform="translate(435.7285,215.4805)">
          <path
             d="m 0,0 c -3.69,8.686 -7.778,17.269 -10.297,26.343 -1.932,6.969 -3.017,14.4 -7.074,20.389 -4.259,6.287 -11.438,10.218 -18.895,11.654 -7.457,1.435 -15.193,0.576 -22.574,-1.212 -6.907,-1.672 -13.696,-4.195 -19.513,-8.281 -5.816,-4.087 -10.621,-9.843 -12.72,-16.634"
             style="fill:none;stroke:#000000;stroke-width:1.8;stroke-linecap:round;stroke-linejoin:round;stroke-miterlimit:10;stroke-dasharray:none;stroke-opacity:1"
             id="path438" />
        </g>
        <g
           id="g440"
           transform="translate(218.7778,172.1299)">
          <path
             d="M 0,0 C 26.622,-6.125 54.961,-4.577 80.757,4.409"
             style="fill:none;stroke:#000000;stroke-width:1.2;stroke-linecap:round;stroke-linejoin:round;stroke-miterlimit:10;stroke-dasharray:none;stroke-opacity:1"
             id="path442" />
        </g>
        <g
           id="g444"
           transform="translate(187.7676,192.4375)">
          <path
             d="m 0,0 c -6.132,3.097 -10.834,8.579 -13.94,14.706 -3.107,6.127 -4.73,12.898 -5.843,19.677 -0.715,4.352 -1.45,9.157 -4.815,12.009"
             style="fill:none;stroke:#000000;stroke-width:1.2;stroke-linecap:round;stroke-linejoin:round;stroke-miterlimit:10;stroke-dasharray:none;stroke-opacity:1"
             id="path446" />
        </g>
        <g
           id="g448"
           transform="translate(390.5762,287.0479)">
          <path
             d="m 0,0 c -13.732,-1.259 -27.884,-5.886 -37.629,-15.33 -5.897,-5.715 -9.126,-13.748 -11.503,-21.609"
             style="fill:none;stroke:#000000;stroke-width:1.8;stroke-linecap:round;stroke-linejoin:round;stroke-miterlimit:10;stroke-dasharray:none;stroke-opacity:1"
             id="path450" />
        </g>
        <g
           id="g452"
           transform="translate(318.7119,72.1719)">
          <path
             d="M 0,0 C 7.072,-1.72 13.938,-4.293 20.399,-7.645"
             style="fill:none;stroke:#000000;stroke-width:1.8;stroke-linecap:round;stroke-linejoin:round;stroke-miterlimit:10;stroke-dasharray:none;stroke-opacity:1"
             id="path454" />
        </g>
        <g
           id="g456"
           transform="translate(171.9243,297.269)">
          <path
             d="m 0,0 c 3.177,1.385 6.261,2.962 9.208,4.811 9.86,6.186 18.124,15.967 19.635,27.51 1.364,10.413 -2.811,20.684 -7.174,30.238 -3.955,8.662 -8.141,17.22 -12.549,25.662"
             style="fill:none;stroke:#000000;stroke-width:1.8;stroke-linecap:round;stroke-linejoin:round;stroke-miterlimit:10;stroke-dasharray:none;stroke-opacity:1"
             id="path458" />
        </g>
        <g
           id="g460"
           transform="translate(166.0439,417.1831)">
          <path
             d="M 0,0 C -0.911,-9.217 0.492,-18.667 4.109,-27.196"
             style="fill:none;stroke:#000000;stroke-width:1.8;stroke-linecap:round;stroke-linejoin:round;stroke-miterlimit:10;stroke-dasharray:none;stroke-opacity:1"
             id="path462" />
        </g>
        <g
           id="g464"
           transform="translate(179.3135,383.4482)">
          <path
             d="M 0,0 C 3.772,4.218 6.419,9.517 7.096,15.136 7.772,20.755 6.393,26.673 2.959,31.173 2.715,31.493 2.462,31.804 2.201,32.108"
             style="fill:none;stroke:#000000;stroke-width:1.8;stroke-linecap:round;stroke-linejoin:round;stroke-miterlimit:10;stroke-dasharray:none;stroke-opacity:1"
             id="path466" />
        </g>
        <g
           id="g468"
           transform="translate(176.625,411.1489)">
          <path
             d="m 0,0 c 2.255,-4.044 3.578,-8.605 3.833,-13.229 0.114,-2.032 -0.025,-4.217 -1.247,-5.842 -1.011,-1.345 -2.996,-2.114 -4.43,-1.232 -1.306,0.803 -1.621,2.532 -1.811,4.054 -0.804,6.451 -1.608,12.902 -2.412,19.353 -0.079,0.64 -0.104,1.411 0.419,1.786 0.55,0.393 1.315,0.067 1.867,-0.324 C -2.532,3.685 -1.417,2.54 0,0 Z"
             style="fill:none;stroke:#000000;stroke-width:1.8;stroke-linecap:round;stroke-linejoin:round;stroke-miterlimit:10;stroke-dasharray:none;stroke-opacity:1"
             id="path470" />
        </g>
        <g
           id="g472"
           transform="translate(159.5811,340.7998)">
          <path
             d="m 0,0 c -2.965,1.025 -6.521,0.044 -8.526,-2.37 -2.004,-2.415 -2.309,-6.105 -0.712,-8.805 1.597,-2.701 4.993,-4.212 8.065,-3.571 3.072,0.642 5.584,3.399 5.918,6.519 C 5.079,-5.106 3.499,-1.209 0,0"
             style="fill:#000000;fill-opacity:1;fill-rule:nonzero;stroke:none"
             id="path474" />
        </g>
        <g
           id="g476"
           transform="translate(159.5811,340.7998)">
          <path
             d="m 0,0 c -2.965,1.025 -6.521,0.044 -8.526,-2.37 -2.004,-2.415 -2.309,-6.105 -0.712,-8.805 1.597,-2.701 4.993,-4.212 8.065,-3.571 3.072,0.642 5.584,3.399 5.918,6.519 C 5.079,-5.106 3.499,-1.209 0,0 Z"
             style="fill:none;stroke:#000000;stroke-width:1.8;stroke-linecap:round;stroke-linejoin:round;stroke-miterlimit:10;stroke-dasharray:none;stroke-opacity:1"
             id="path478" />
        </g>
        <g
           id="g480"
           transform="translate(155.3472,336.9219)">
          <path
             d="M 0,0 C -1.063,0.157 -2.171,-0.649 -2.366,-1.705 -2.561,-2.762 -1.828,-3.901 -0.79,-4.179 0.248,-4.456 1.441,-3.85 1.844,-2.854 2.248,-1.857 1.898,-0.281 0,0"
             style="fill:#ffffff;fill-opacity:1;fill-rule:nonzero;stroke:none"
             id="path482" />
        </g>
        <g
           id="g484"
           transform="translate(145.9473,326.5894)">
          <path
             d="m 0,0 c -0.205,4.551 0.892,9.441 4.227,12.545 2.217,2.063 5.158,3.115 7.892,4.421 2.732,1.307 5.487,3.097 6.627,5.904"
             style="fill:none;stroke:#000000;stroke-width:1.8;stroke-linecap:round;stroke-linejoin:round;stroke-miterlimit:10;stroke-dasharray:none;stroke-opacity:1"
             id="path486" />
        </g>
        <g
           id="g488"
           transform="translate(160.6509,340.4556)">
          <path
             d="M 0,0 C 2.473,0.108 4.896,1.104 6.732,2.765"
             style="fill:none;stroke:#000000;stroke-width:1.8;stroke-linecap:round;stroke-linejoin:round;stroke-miterlimit:10;stroke-dasharray:none;stroke-opacity:1"
             id="path490" />
        </g>
        <g
           id="g492"
           transform="translate(286.46,244.5713)">
          <path
             d="m 0,0 c 1.872,-4.73 6.747,-8.109 11.833,-8.203 5.087,-0.094 10.083,3.104 12.127,7.763 2.046,4.659 1.019,10.5 -2.494,14.181"
             style="fill:none;stroke:#000000;stroke-width:1.2;stroke-linecap:round;stroke-linejoin:round;stroke-miterlimit:10;stroke-dasharray:none;stroke-opacity:1"
             id="path494" />
        </g>
        <g
           id="g496"
           transform="translate(272.2432,224.3535)">
          <path
             d="m 0,0 c -6.062,1.484 -12.878,-1.916 -15.573,-7.545 -2.696,-5.629 -1.188,-12.897 3.344,-17.188 4.533,-4.291 11.682,-5.439 17.441,-3.033 3.836,1.604 7.127,4.815 8.164,8.841 1.086,4.212 -0.393,8.763 -2.961,12.273 C 7.847,-3.141 4.195,-1.026 0,0 Z"
             style="fill:none;stroke:#000000;stroke-width:1.2;stroke-linecap:round;stroke-linejoin:round;stroke-miterlimit:10;stroke-dasharray:none;stroke-opacity:1"
             id="path498" />
        </g>
        <g
           id="g500"
           transform="translate(231.7549,259.521)">
          <path
             d="m 0,0 c -3.23,-2.361 -5.543,-6.031 -5.991,-10.007 -0.448,-3.976 1.075,-8.186 4.15,-10.744 3.075,-2.561 7.66,-3.266 11.252,-1.503 3.592,1.764 5.862,6.015 5.076,9.94"
             style="fill:none;stroke:#000000;stroke-width:1.2;stroke-linecap:round;stroke-linejoin:round;stroke-miterlimit:10;stroke-dasharray:none;stroke-opacity:1"
             id="path502" />
        </g>
        <g
           id="g504"
           transform="translate(216.1475,217.2207)">
          <path
             d="m 0,0 c -3.591,-2.976 -8.049,-5.052 -12.709,-5.217 -4.66,-0.165 -9.488,1.758 -12.28,5.492 -3.121,4.174 -3.265,10.25 -0.615,14.738 2.65,4.486 7.833,7.26 13.045,7.31 5.114,0.048 10.281,-2.548 12.93,-6.922 C 3.021,11.026 4.41,3.655 0,0 Z"
             style="fill:none;stroke:#000000;stroke-width:1.2;stroke-linecap:round;stroke-linejoin:round;stroke-miterlimit:10;stroke-dasharray:none;stroke-opacity:1"
             id="path506" />
        </g>
        <g
           id="g508"
           transform="translate(171.9102,273.2544)">
          <path
             d="m 0,0 c 3.232,2.643 8.226,2.677 11.679,0.331 3.453,-2.347 5.256,-6.775 4.748,-10.92 -0.507,-4.143 -3.17,-7.891 -6.751,-10.038 -2.264,-1.359 -4.953,-2.123 -7.568,-1.758 -2.616,0.365 -5.115,1.966 -6.211,4.368"
             style="fill:none;stroke:#000000;stroke-width:1.2;stroke-linecap:round;stroke-linejoin:round;stroke-miterlimit:10;stroke-dasharray:none;stroke-opacity:1"
             id="path510" />
        </g>
        <g
           id="g512"
           transform="translate(205.8574,292.7588)">
          <path
             d="m 0,0 c -2.846,0.274 -5.789,-1.165 -7.319,-3.578 -1.533,-2.414 -1.579,-5.69 -0.119,-8.147 1.459,-2.457 4.36,-3.982 7.212,-3.791 2.147,0.144 4.194,1.207 5.647,2.795 1.745,1.907 2.639,4.627 2.129,7.16 C 7.041,-3.028 5.084,-0.489 0,0 Z"
             style="fill:none;stroke:#000000;stroke-width:1.2;stroke-linecap:round;stroke-linejoin:round;stroke-miterlimit:10;stroke-dasharray:none;stroke-opacity:1"
             id="path514" />
        </g>
        <g
           id="g516"
           transform="translate(174.1113,327.186)">
          <path
             d="m 0,0 c -3.309,0.757 -7.016,-1.45 -7.928,-4.719 -0.911,-3.27 1.119,-7.077 4.343,-8.141 3.222,-1.064 7.12,0.786 8.335,3.955 C 5.964,-5.735 4.528,-1.036 0,0 Z"
             style="fill:none;stroke:#000000;stroke-width:1.2;stroke-linecap:round;stroke-linejoin:round;stroke-miterlimit:10;stroke-dasharray:none;stroke-opacity:1"
             id="path518" />
        </g>
        <g
           id="g520"
           transform="translate(322.9736,213.3105)">
          <path
             d="m 0,0 c -3.074,0.855 -6.559,-0.713 -8.242,-3.422 -1.683,-2.71 -1.63,-6.313 -0.171,-9.151 0.654,-1.27 1.601,-2.433 2.865,-3.097 1.353,-0.709 2.969,-0.791 4.467,-0.497 3.502,0.685 6.536,3.53 7.246,7.026 C 6.874,-5.646 5.177,-1.44 0,0 Z"
             style="fill:none;stroke:#000000;stroke-width:1.2;stroke-linecap:round;stroke-linejoin:round;stroke-miterlimit:10;stroke-dasharray:none;stroke-opacity:1"
             id="path522" />
        </g>
        <g
           id="g524"
           transform="translate(344.1172,247.7949)">
          <path
             d="m 0,0 c -5.327,-2.701 -9.163,-8.375 -9.17,-14.349 -0.006,-5.973 4.113,-11.86 9.875,-13.438 5.76,-1.578 12.575,1.704 14.511,7.355"
             style="fill:none;stroke:#000000;stroke-width:1.2;stroke-linecap:round;stroke-linejoin:round;stroke-miterlimit:10;stroke-dasharray:none;stroke-opacity:1"
             id="path526" />
        </g>
        <g
           id="g528"
           transform="translate(178.5601,138.2324)">
          <path
             d="m 0,0 c -2.92,12.55 -8.315,24.179 -15.681,34.751 3.27,2.491 6.671,5.126 9.333,8.257 2.856,-3.5 5.933,-6.644 9.583,-9.312 C 0.489,22.556 -1.111,11.267 0,0 Z m 276.887,67.734 c -3.794,4.738 -4.987,11.06 -5.147,17.126 -0.159,6.068 0.585,12.149 0.109,18.199 -1.091,13.865 -8.839,26.895 -20.026,35.159 -11.188,8.263 -25.557,11.839 -39.412,10.633 -0.132,-0.012 -0.263,-0.023 -0.395,-0.036 6.505,7.149 9.972,17.249 8.817,26.845 -4.823,-7.086 -13.083,-10.685 -21.158,-12.892 -8.073,-2.205 -16.531,-3.429 -23.973,-7.26 -7.111,-3.66 -12.992,-9.661 -16.508,-16.844 -3.516,-7.184 -4.86,-15.51 -3.386,-23.371 -1.652,0.752 -3.337,1.423 -5.04,2.013 -9.499,3.294 -19.788,3.773 -29.53,1.291 2.845,4.871 4.285,10.52 3.659,16.098 -2.074,-3.645 -5.753,-6.516 -9.926,-6.945 -4.173,-0.427 -8.664,1.971 -10.046,5.932 -0.603,1.731 -0.612,3.609 -1.022,5.395 -0.41,1.787 -1.281,3.59 -3.01,4.196 0.38,0.094 0.759,0.194 1.135,0.302 9.207,2.626 17.16,9.35 20.626,18.205 -3.519,-0.941 -7.101,-1.823 -10.743,-1.809 -3.642,0.015 -7.401,1.015 -10.119,3.439 -4.14,3.69 -5.04,9.695 -5.98,15.16 -0.939,5.465 -2.714,12.081 -7.542,14.81 0.895,-0.505 1.818,-0.953 2.786,-1.32 4.831,-1.828 10.488,-1.311 14.909,1.36 4.421,2.671 7.509,7.44 8.115,12.867 -6.544,-3.716 -15.117,-2.474 -21.37,1.711 -6.254,4.185 -10.458,10.862 -13.271,17.841 -1.314,3.259 -2.378,6.649 -4.227,9.636 -1.848,2.986 -4.794,5.342 -8.247,5.981 1.007,0.594 1.971,1.26 2.878,2.005 3.854,3.161 6.602,7.848 6.618,12.517 -7.663,-4.247 -17.874,-4.306 -24.794,1.066 -5.76,4.474 -8.563,11.835 -13.912,16.79 -4.498,4.166 -10.605,6.37 -16.722,6.742 -6.119,0.372 -12.383,-0.986 -18.078,-3.252 -2.085,2.428 -4.678,4.392 -7.241,6.327 -1.556,1.174 -3.113,2.349 -4.668,3.523 -0.375,0.283 -0.81,0.581 -1.273,0.502 -0.65,-0.113 -0.936,-0.872 -1.087,-1.515 -0.562,-2.373 -0.962,-4.784 -1.202,-7.21 -3.601,1.302 -7.789,2.006 -11.616,2.067 -3.825,3.344 -10.138,3.649 -14.868,1.793 -4.729,-1.857 -8.587,-5.09 -11.618,-9.167 -11.187,17.737 -23.205,34.607 -36.304,51.027 -0.409,0.512 -0.897,1.065 -1.55,1.098 -0.787,0.038 -1.414,-0.759 -1.483,-1.544 -0.068,-0.786 0.263,-1.546 0.586,-2.265 l 27.685,-61.479 c -3.507,-3.8 -5.633,-9.002 -9.719,-12.173 -4.25,-3.299 -10.376,-3.981 -15.249,-1.701 1.154,-6.357 4.647,-12.332 9.946,-15.773 -4.702,-1.533 -9.819,-1.796 -14.609,-0.546 1.877,-7.359 6.674,-13.181 12.935,-16.191 1.04,-0.499 2.117,-0.919 3.22,-1.256 -2.418,-1.879 -3.058,-5.288 -3.001,-8.35 0.057,-3.062 0.756,-6.107 0.536,-9.161 -0.22,-3.054 -1.646,-6.315 -4.201,-7.655 6.388,-2.209 14.173,0.431 18.758,5.399 0.232,-6.278 -0.572,-12.699 -3.247,-18.384 -1.651,-3.514 -3.991,-6.696 -5.371,-10.325 -3.205,-8.426 -0.351,-18.775 6.719,-24.367 7.071,-5.593 17.799,-5.986 25.26,-0.926 4.395,2.981 7.399,7.359 9.595,12.244 7.874,2.154 16.02,4.47 23.476,7.721 2.761,-14.765 -0.965,-29.993 -5.056,-44.445 -4.013,-14.177 -8.267,-28.79 -6.619,-43.404 -4.373,-1.663 -9.384,-2.484 -13.791,-4.056 -4.408,-1.572 -8.734,-4.074 -11.107,-8.108 -2.634,-4.476 -2.42,-10.159 -0.79,-15.09 1.632,-4.93 4.534,-9.321 7.168,-13.796 12.669,-21.512 18.066,-46.342 26.437,-69.078 1.868,-5.073 4.401,-9.887 7.102,-14.57 1.049,-1.82 2.436,-3.778 4.518,-4.065 1.694,-0.233 3.367,0.781 4.397,2.146 1.028,1.366 1.898,3.729 2.39,5.366 -0.088,-8.867 -0.548,-17.767 0.665,-26.535 0.239,-1.722 0.609,-3.566 1.884,-4.749 2.19,-2.028 5.687,-1.071 8.474,0 3.811,1.469 7.873,3.134 10.089,6.563 1.931,2.988 2.082,6.748 2.172,10.305 0.539,21.27 1.022,42.963 -4.355,63.467 2.466,5.862 4.6,12.417 6.858,18.362 24.717,-6.387 51.184,-5.877 76.056,-0.157 2.013,-3.184 2.539,-7.448 2.059,-11.184 -0.483,-3.738 -1.784,-7.31 -2.988,-10.88 -6.467,-19.173 -10.337,-39.221 -11.471,-59.424 -0.154,-2.708 -0.101,-5.806 1.928,-7.604 2.169,-1.922 5.608,-1.381 8.154,0 4.651,2.523 7.743,7.264 9.558,12.234 1.815,4.971 2.527,10.261 3.606,15.439 3.634,17.451 11.81,33.756 23.203,47.464 0.883,-1.117 1.746,-2.251 2.577,-3.409 4.368,-6.088 7.881,-13.125 8.069,-20.615 0.295,-11.806 -7.189,-22.231 -10.727,-33.863 -2.543,-8.358 -5.547,-16.569 -8.321,-24.852 -0.466,-1.393 -0.939,-2.859 -0.676,-4.304 0.373,-2.058 2.215,-3.616 4.223,-4.204 2.008,-0.586 4.159,-0.367 6.22,-0.002 3.45,0.612 6.938,1.675 9.61,3.941 3.603,3.054 5.203,7.795 6.643,12.292 2.341,7.302 5.451,14.367 7.685,22.982 2.149,8.292 6.402,15.781 10.067,23.523 3.664,7.742 5.947,17.14 1.852,24.665 -3.117,5.728 -9.559,9.586 -11.05,15.935 -0.935,3.972 0.33,8.167 2.295,11.741 1.966,3.576 4.616,6.728 6.772,10.192 3.35,5.381 5.441,11.452 6.398,17.726 -1.167,-9.327 -3.881,-24.902 -1.236,-33.743 3.377,-11.28 13.988,-19.658 15.929,-31.272 1.198,-7.165 -1,-15.158 2.749,-21.978 1.485,5.179 5.77,9.13 10.463,11.775 4.694,2.643 9.895,4.236 14.804,6.454 12.75,5.758 23.481,15.882 29.969,28.275 6.489,12.394 8.697,26.98 6.165,40.738 -1.403,7.629 -4.176,14.857 -7.217,22.013 4.388,-6.204 12.285,-10.53 19.719,-9.514 z"
             style="fill:none;stroke:#000000;stroke-width:1.8;stroke-linecap:round;stroke-linejoin:round;stroke-miterlimit:10;stroke-dasharray:none;stroke-opacity:1"
             id="path530" />
        </g>
      </g>
    </g>
  </g>
</svg>
