<?xml version="1.0" encoding="UTF-8" standalone="no"?>
<!-- Created with Inkscape (http://www.inkscape.org/) -->

<svg
   version="1.1"
   id="svg2"
   width="666.66669"
   height="666.66669"
   viewBox="0 0 666.66669 666.66669"
   sodipodi:docname="7728706.ai"
   xmlns:inkscape="http://www.inkscape.org/namespaces/inkscape"
   xmlns:sodipodi="http://sodipodi.sourceforge.net/DTD/sodipodi-0.dtd"
   xmlns="http://www.w3.org/2000/svg"
   xmlns:svg="http://www.w3.org/2000/svg">
  <defs
     id="defs6">
    <clipPath
       clipPathUnits="userSpaceOnUse"
       id="clipPath38">
      <path
         d="M 0,500 H 500 V 0 H 0 Z"
         id="path36" />
    </clipPath>
  </defs>
  <sodipodi:namedview
     id="namedview4"
     pagecolor="#ffffff"
     bordercolor="#000000"
     borderopacity="0.25"
     inkscape:showpageshadow="2"
     inkscape:pageopacity="0.0"
     inkscape:pagecheckerboard="0"
     inkscape:deskcolor="#d1d1d1" />
  <g
     id="g8"
     inkscape:groupmode="layer"
     inkscape:label="7728706"
     transform="matrix(1.3333333,0,0,-1.3333333,0,666.66667)">
    <path
       d="M 0,0 H 500 V 500 H 0 Z"
       style="fill:#ffffff;fill-opacity:1;fill-rule:nonzero;stroke:none"
       id="path10" />
    <g
       id="g12"
       transform="translate(94.4617,141.5877)">
      <path
         d="M 0,0 22.688,11.928 18.355,-13.336 36.711,-31.229 11.344,-34.915 0,-57.901 l -11.345,22.986 -25.366,3.686 18.355,17.893 -4.333,25.264 z"
         style="fill:none;stroke:#000000;stroke-width:3;stroke-linecap:butt;stroke-linejoin:miter;stroke-miterlimit:10;stroke-dasharray:none;stroke-opacity:1"
         id="path14" />
    </g>
    <g
       id="g16"
       transform="translate(431.5877,317.1468)">
      <path
         d="m 0,0 8.907,-0.092 -5.491,-7.013 2.665,-8.499 -8.367,3.054 -7.259,-5.16 0.319,8.901 -7.151,5.309 8.565,2.447 2.838,8.442 z"
         style="fill:none;stroke:#000000;stroke-width:3;stroke-linecap:butt;stroke-linejoin:miter;stroke-miterlimit:10;stroke-dasharray:none;stroke-opacity:1"
         id="path18" />
    </g>
    <g
       id="g20"
       transform="translate(61.3821,343.9969)">
      <path
         d="m 0,0 8.907,-0.092 -5.491,-7.013 2.665,-8.499 -8.367,3.054 -7.259,-5.161 0.319,8.901 -7.151,5.31 8.564,2.447 2.839,8.442 z"
         style="fill:none;stroke:#000000;stroke-width:3;stroke-linecap:butt;stroke-linejoin:miter;stroke-miterlimit:10;stroke-dasharray:none;stroke-opacity:1"
         id="path22" />
    </g>
    <g
       id="g24"
       transform="translate(244.0515,434.2527)">
      <path
         d="m 0,0 14.256,-13.415 -19.319,-3.155 -8.353,-17.703 -8.971,17.398 -19.418,2.473 13.775,13.908 -3.648,19.232 17.484,-8.802 17.163,9.412 z"
         style="fill:none;stroke:#000000;stroke-width:3;stroke-linecap:butt;stroke-linejoin:miter;stroke-miterlimit:10;stroke-dasharray:none;stroke-opacity:1"
         id="path26" />
    </g>
    <g
       id="g28"
       transform="translate(439.0906,150.0984)">
      <path
         d="m 0,0 15.904,-5.082 -13.708,-9.533 0.081,-16.697 -13.301,10.091 -15.856,-5.237 5.487,15.77 -9.879,13.46 16.693,-0.344 9.748,13.555 z"
         style="fill:none;stroke:#000000;stroke-width:3;stroke-linecap:butt;stroke-linejoin:miter;stroke-miterlimit:10;stroke-dasharray:none;stroke-opacity:1"
         id="path30" />
    </g>
    <g
       id="g32">
      <g
         id="g34"
         clip-path="url(#clipPath38)">
        <g
           id="g40"
           transform="translate(312.6062,128.8367)">
          <path
             d="m 0,0 c -2.129,-0.757 -4.179,-1.694 -6.131,-2.794 -9.376,10.262 -22.581,16.665 -37.225,16.665 -3.341,0 -6.608,-0.333 -9.771,-0.97"
             style="fill:none;stroke:#000000;stroke-width:3;stroke-linecap:butt;stroke-linejoin:miter;stroke-miterlimit:10;stroke-dasharray:none;stroke-opacity:1"
             id="path42" />
        </g>
        <g
           id="g44"
           transform="translate(190.5271,126.5213)">
          <path
             d="m 0,0 c -6.217,-3.301 -11.506,-8.236 -15.353,-14.265 -2.819,1.205 -5.902,1.874 -9.136,1.874 -13.344,0 -24.161,-11.311 -24.161,-25.265 0,-13.953 10.817,-25.265 24.161,-25.265 3.234,0 6.317,0.669 9.136,1.874 7.236,-11.341 19.58,-18.814 33.596,-18.814 8.031,0 15.508,2.463 21.796,6.691 9.437,-11.23 23.264,-18.328 38.684,-18.328 14.644,0 27.849,6.403 37.225,16.665 5.691,-3.206 12.199,-5.028 19.116,-5.028 14.016,0 26.36,7.473 33.596,18.814 2.819,-1.205 5.902,-1.874 9.136,-1.874 13.344,0 24.161,11.312 24.161,25.265 0,13.954 -10.817,25.265 -24.161,25.265 -2.821,0 -5.528,-0.509 -8.045,-1.439"
             style="fill:none;stroke:#000000;stroke-width:3;stroke-linecap:butt;stroke-linejoin:miter;stroke-miterlimit:10;stroke-dasharray:none;stroke-opacity:1"
             id="path46" />
        </g>
        <g
           id="g48"
           transform="translate(340.6248,62.4021)">
          <path
             d="m 0,0 c 3.287,0.799 6.189,2.568 8.583,4.785 1.204,1.108 2.289,2.334 3.271,3.627 0.965,1.281 1.884,2.699 2.548,4.038 l 2.181,0.47 c 0.546,-0.451 1.323,-0.944 2.047,-1.354 0.745,-0.418 1.522,-0.793 2.321,-1.125 C 22.549,9.779 24.236,9.286 25.972,9 29.442,8.407 33.095,8.653 36.593,9.63 33.267,8.184 29.578,7.391 25.829,7.507 23.956,7.555 22.078,7.828 20.239,8.307 19.32,8.548 18.41,8.84 17.515,9.19 c -0.911,0.369 -1.742,0.725 -2.69,1.298 l 2.18,0.47 C 15.928,9.422 14.792,8.163 13.538,6.922 12.29,5.702 10.951,4.581 9.514,3.608 6.656,1.656 3.367,0.299 0,0"
             style="fill:#000000;fill-opacity:1;fill-rule:nonzero;stroke:none"
             id="path50" />
        </g>
        <g
           id="g52"
           transform="translate(241.6619,65.6619)">
          <path
             d="m 0,0 c 2.353,-3.277 4.908,-6.278 7.853,-8.759 1.51,-1.193 3.056,-2.313 4.72,-3.239 1.669,-0.911 3.4,-1.702 5.208,-2.294 1.789,-0.645 3.658,-1.072 5.55,-1.38 1.89,-0.346 3.818,-0.474 5.76,-0.568 3.887,-0.111 7.828,0.168 11.798,0.833 -3.624,-1.809 -7.663,-2.757 -11.751,-3.065 -4.095,-0.304 -8.304,0.142 -12.275,1.48 -1.967,0.705 -3.88,1.585 -5.665,2.679 -1.748,1.152 -3.404,2.437 -4.851,3.928 C 3.467,-7.395 1.303,-3.815 0,0"
             style="fill:#000000;fill-opacity:1;fill-rule:nonzero;stroke:none"
             id="path54" />
        </g>
        <g
           id="g56"
           transform="translate(166.7732,96.2176)">
          <path
             d="m 0,0 c 0.953,2.079 2.679,3.845 4.768,4.968 2.094,1.129 4.483,1.644 6.854,1.729 2.38,0.087 4.767,-0.301 7.042,-1.081 2.27,-0.788 4.459,-2.006 6.218,-3.971 l -2.129,-1.73 C 21.561,1.399 19.725,2.532 17.802,3.364 15.857,4.189 13.739,4.666 11.605,4.801 9.469,4.927 7.301,4.63 5.306,3.828 3.298,3.045 1.516,1.714 0,0"
             style="fill:#000000;fill-opacity:1;fill-rule:nonzero;stroke:none"
             id="path58" />
        </g>
        <g
           id="g60"
           transform="translate(267.3416,118.2449)">
          <path
             d="m 0,0 c 1.224,1.161 2.673,2.185 4.356,2.809 1.681,0.618 3.564,0.777 5.32,0.439 1.762,-0.329 3.379,-1.087 4.78,-2.096 0.701,-0.507 1.356,-1.076 1.947,-1.727 0.591,-0.654 1.134,-1.361 1.564,-2.283 l -2.256,0.596 h 10e-4 c 1.014,0.542 1.896,0.802 2.89,1.006 0.972,0.184 1.973,0.235 2.944,0.086 0.971,-0.14 1.893,-0.485 2.683,-0.982 0.791,-0.502 1.445,-1.144 1.98,-1.845 -0.711,0.524 -1.489,0.931 -2.291,1.163 -0.804,0.227 -1.621,0.277 -2.401,0.164 -0.782,-0.105 -1.528,-0.371 -2.218,-0.725 -0.668,-0.343 -1.384,-0.839 -1.814,-1.287 l -2.256,0.597 c -0.458,0.978 -1.465,2.044 -2.53,2.805 C 11.616,-0.498 10.385,0.066 9.127,0.299 7.868,0.537 6.59,0.427 5.389,-0.008 4.187,-0.454 3.073,-1.221 2.076,-2.166 Z"
             style="fill:#000000;fill-opacity:1;fill-rule:nonzero;stroke:none"
             id="path62" />
        </g>
        <g
           id="g64"
           transform="translate(278.2976,363.0789)">
          <path
             d="m 0,0 c -1.51,-4.467 -2.329,-9.252 -2.329,-14.229 0,-12.585 7.621,-26.178 16.035,-34.257"
             style="fill:none;stroke:#000000;stroke-width:3;stroke-linecap:butt;stroke-linejoin:miter;stroke-miterlimit:10;stroke-dasharray:none;stroke-opacity:1"
             id="path66" />
        </g>
        <g
           id="g68"
           transform="translate(320.364,184.99)">
          <path
             d="M 0,0 C 15.506,0 29.155,7.949 37.095,19.995"
             style="fill:none;stroke:#000000;stroke-width:3;stroke-linecap:butt;stroke-linejoin:miter;stroke-miterlimit:10;stroke-dasharray:none;stroke-opacity:1"
             id="path70" />
        </g>
        <g
           id="g72"
           transform="translate(220.3611,280.6609)">
          <path
             d="m 0,0 c -19.82,-6.269 -34.187,-24.807 -34.187,-46.7 0,-4.996 0.749,-9.819 2.139,-14.36"
             style="fill:none;stroke:#000000;stroke-width:3;stroke-linecap:butt;stroke-linejoin:miter;stroke-miterlimit:10;stroke-dasharray:none;stroke-opacity:1"
             id="path74" />
        </g>
        <g
           id="g76"
           transform="translate(302.3846,378.4471)">
          <path
             d="m 0,0 c -1.788,1.665 -3.395,3.247 -4.991,4.837 -1.603,1.571 -3.133,3.186 -4.852,4.605 -1.704,1.43 -3.526,2.71 -5.428,3.848 -1.893,1.148 -3.867,2.169 -5.926,2.987 -4.1,1.678 -8.443,2.762 -12.879,3.269 -4.439,0.52 -8.954,0.521 -13.481,0.186 h -0.002 l 1.297,1.704 c 0.969,-4.388 2.461,-8.844 4.282,-13.025 0.925,-2.097 1.952,-4.142 3.077,-6.127 1.139,-1.976 2.412,-3.864 3.775,-5.677 1.36,-1.816 2.88,-3.503 4.516,-5.06 1.619,-1.575 3.371,-3.018 5.264,-4.253 3.783,-2.519 7.878,-4.332 12.225,-6.56 -1.213,-0.052 -2.453,-0.08 -3.653,0.106 -0.603,0.086 -1.211,0.165 -1.814,0.276 -0.598,0.124 -1.185,0.292 -1.776,0.454 -1.198,0.29 -2.314,0.806 -3.457,1.261 -1.093,0.556 -2.206,1.092 -3.239,1.761 -4.227,2.528 -7.938,5.904 -10.965,9.757 -3.058,3.838 -5.485,8.13 -7.337,12.618 -1.857,4.509 -3.224,9.119 -3.866,14.038 l -0.211,1.609 1.507,0.095 h 0.002 c 4.665,0.818 9.471,1.038 14.25,0.602 4.782,-0.404 9.53,-1.587 13.98,-3.473 4.453,-1.891 8.573,-4.556 12.122,-7.815 1.764,-1.635 3.474,-3.352 4.818,-5.356 C -1.445,4.662 -0.34,2.455 0,0"
             style="fill:#000000;fill-opacity:1;fill-rule:nonzero;stroke:none"
             id="path78" />
        </g>
        <g
           id="g80"
           transform="translate(265.0603,392.1297)">
          <path
             d="M 0,0 C 0,0 23.553,-0.514 32.577,-23.036 32.577,-23.036 9.75,-29.051 0,0 Z"
             style="fill:none;stroke:#000000;stroke-width:2;stroke-linecap:butt;stroke-linejoin:miter;stroke-miterlimit:10;stroke-dasharray:none;stroke-opacity:1"
             id="path82" />
        </g>
        <g
           id="g84"
           transform="translate(324.9285,304.6873)">
          <path
             d="m 0,0 c 2.735,1.091 5.441,1.863 8.174,2.555 2.731,0.668 5.477,1.265 8.175,2.054 5.401,1.536 10.701,3.431 15.773,5.785 5.065,2.361 9.951,5.104 14.4,8.422 1.126,0.811 2.196,1.693 3.264,2.572 l 1.566,1.361 c 0.499,0.459 0.982,0.912 1.442,1.399 1.85,1.93 3.422,4.125 4.65,6.499 1.227,2.374 2.133,4.921 2.632,7.55 0.519,2.779 1.086,5.577 1.501,8.316 0.406,2.736 0.702,5.499 0.442,8.038 -0.141,1.252 -0.44,2.443 -0.988,3.308 -0.269,0.435 -0.59,0.788 -0.968,1.067 -0.192,0.136 -0.398,0.256 -0.62,0.359 l -0.872,0.361 c -1.193,0.457 -2.403,0.721 -3.649,0.826 -1.249,0.108 -2.55,10e-4 -3.982,-0.117 -1.419,-0.123 -2.992,-0.213 -4.574,-0.045 -1.585,0.175 -3.14,0.602 -4.57,1.201 -2.869,1.21 -5.304,2.961 -7.578,4.802 -2.258,1.869 -4.327,3.895 -6.328,5.966 l 2.137,2.104 c 1.995,-1.967 4.05,-3.865 6.209,-5.576 2.152,-1.703 4.419,-3.256 6.815,-4.223 1.196,-0.481 2.413,-0.792 3.656,-0.917 1.249,-0.114 2.528,-0.035 3.935,0.105 1.395,0.132 2.938,0.291 4.527,0.177 1.587,-0.101 3.183,-0.453 4.641,-1.019 0.367,-0.153 0.71,-0.281 1.096,-0.455 0.424,-0.196 0.831,-0.433 1.219,-0.711 0.771,-0.56 1.412,-1.285 1.887,-2.058 0.961,-1.563 1.306,-3.218 1.489,-4.774 0.31,-3.13 -0.046,-6.069 -0.466,-8.942 -0.439,-2.881 -1.006,-5.653 -1.531,-8.461 -0.565,-2.955 -1.584,-5.819 -2.967,-8.49 -1.375,-2.678 -3.183,-5.129 -5.287,-7.277 -0.521,-0.54 -1.08,-1.054 -1.634,-1.55 L 51.95,18.794 C 50.815,17.881 49.68,16.966 48.49,16.129 43.783,12.706 38.681,9.893 33.397,7.566 28.114,5.231 22.641,3.388 17.084,1.917 11.536,0.521 5.869,-0.977 0,0"
             style="fill:#000000;fill-opacity:1;fill-rule:nonzero;stroke:none"
             id="path86" />
        </g>
        <g
           id="g88"
           transform="translate(280.326,397.1531)">
          <path
             d="m 0,0 c 10.052,25.096 43.984,30.122 59.578,9.704 9.768,-12.788 23.454,-9.842 25.443,0.599 0,0 7.749,-13.163 -1.884,-23.634 -9.633,-10.471 -30.993,-12.041 -42.93,-1.152 -11.936,10.89 -23.925,3.689 -23.925,3.689"
             style="fill:none;stroke:#000000;stroke-width:3;stroke-linecap:butt;stroke-linejoin:miter;stroke-miterlimit:10;stroke-dasharray:none;stroke-opacity:1"
             id="path90" />
        </g>
        <g
           id="g92"
           transform="translate(337.4041,306.8753)">
          <path
             d="M 0,0 C 25.738,-31.604 30.257,-57.708 28.628,-75.539"
             style="fill:none;stroke:#000000;stroke-width:3;stroke-linecap:butt;stroke-linejoin:miter;stroke-miterlimit:10;stroke-dasharray:none;stroke-opacity:1"
             id="path94" />
        </g>
        <g
           id="g96"
           transform="translate(291.6902,314.9676)">
          <path
             d="m 0,0 c 20.467,-24.194 10.694,-44.987 10.694,-44.987 0,0 -58.783,25.869 -91.517,6.508"
             style="fill:none;stroke:#000000;stroke-width:3;stroke-linecap:butt;stroke-linejoin:miter;stroke-miterlimit:10;stroke-dasharray:none;stroke-opacity:1"
             id="path98" />
        </g>
        <g
           id="g100"
           transform="translate(189.7029,220.1707)">
          <path
             d="m 0,0 c 4.409,-10.797 8.991,-21.503 13.537,-32.271 1.124,-2.704 2.251,-5.402 3.261,-8.209 0.489,-1.425 0.99,-2.82 1.23,-4.542 0.045,-0.448 0.09,-0.907 -0.002,-1.495 -0.024,-0.269 -0.14,-0.615 -0.267,-0.93 -0.178,-0.341 -0.396,-0.669 -0.71,-0.929 -0.608,-0.51 -1.277,-0.68 -1.769,-0.745 -0.472,-0.05 -0.879,-0.079 -1.306,-0.078 -1.678,0.02 -3.201,0.346 -4.638,0.652 -1.415,0.298 -2.825,0.638 -3.96,0.607 -0.582,0.002 -1.001,-0.126 -1.277,-0.321 L 3.984,-48.324 3.896,-48.429 3.8,-48.524 3.756,-48.562 c 0.025,0.022 0.045,0.048 0.06,0.079 l 0.017,0.045 -0.005,-0.023 -0.018,-0.054 C 3.798,-48.537 3.781,-48.609 3.765,-48.676 3.73,-48.797 3.7,-48.952 3.67,-49.109 3.439,-50.397 3.32,-51.861 3.212,-53.285 2.817,-59.039 2.686,-64.876 2.561,-70.693 2.448,-76.518 2.388,-82.346 2.351,-88.176 2.282,-99.835 2.301,-111.502 2.388,-123.16 l -0.654,1.225 c 1.803,-1.169 3.86,-2.256 5.898,-3.2 2.054,-0.951 4.163,-1.793 6.311,-2.512 4.297,-1.438 8.751,-2.39 13.248,-2.788 2.249,-0.18 4.506,-0.229 6.757,-0.135 2.248,0.133 4.491,0.365 6.702,0.792 4.424,0.833 8.712,2.326 12.757,4.316 l -0.734,-1.866 -0.001,0.002 c -1.792,4.597 -3.507,9.211 -5.193,13.841 -1.677,4.631 -3.38,9.256 -4.958,13.925 -3.167,9.338 -6.303,18.68 -8.878,28.273 -0.617,2.412 -1.21,4.826 -1.631,7.351 -0.101,0.635 -0.195,1.275 -0.254,1.946 -0.061,0.67 -0.105,1.349 -0.01,2.202 0.077,0.41 0.077,0.951 0.719,1.742 0.207,0.205 0.385,0.387 0.711,0.512 0.285,0.132 0.733,0.2 0.686,0.186 l 0.389,0.051 c 0.502,0.076 0.925,0.197 1.256,0.372 1.294,0.547 1.81,2.903 1.894,5.165 0.085,2.309 -0.118,4.713 -0.425,7.106 -0.607,4.798 -1.653,9.585 -2.688,14.368 -1.012,4.794 -2.008,9.604 -2.549,14.564 2.14,-4.507 3.704,-9.2 5.006,-13.969 1.265,-4.782 2.344,-9.618 3.106,-14.566 0.369,-2.478 0.647,-4.987 0.608,-7.601 -0.04,-1.311 -0.143,-2.654 -0.552,-4.057 -0.225,-0.702 -0.522,-1.421 -0.991,-2.108 -0.471,-0.686 -1.15,-1.305 -1.905,-1.708 -0.755,-0.41 -1.537,-0.614 -2.246,-0.732 l -0.525,-0.076 c -0.203,-0.02 0.103,-0.019 0.243,0.065 0.164,0.102 0.256,0.139 0.348,0.244 0.253,0.319 0.107,0.226 0.121,0.032 -0.037,-0.37 -0.021,-0.927 0.045,-1.479 0.056,-0.554 0.147,-1.132 0.247,-1.71 0.418,-2.324 1.027,-4.686 1.661,-7.032 2.572,-9.405 5.692,-18.737 8.865,-28.026 l 4.806,-13.933 4.905,-13.898 v -0.002 l 0.475,-1.272 -1.209,-0.595 c -4.28,-2.108 -8.84,-3.696 -13.541,-4.581 -2.351,-0.453 -4.733,-0.702 -7.118,-0.841 -2.388,-0.101 -4.778,-0.048 -7.155,0.144 -4.753,0.419 -9.438,1.424 -13.945,2.931 -2.254,0.755 -4.463,1.637 -6.621,2.636 -2.17,1.011 -4.235,2.086 -6.327,3.444 l -0.648,0.421 -0.006,0.804 c -0.087,11.68 -0.106,23.351 -0.037,35.03 0.037,5.839 0.097,11.678 0.211,17.522 0.126,5.847 0.254,11.682 0.658,17.57 0.116,1.484 0.222,2.934 0.503,4.519 0.039,0.201 0.078,0.404 0.141,0.635 0.028,0.11 0.053,0.216 0.107,0.363 l 0.073,0.205 0.04,0.106 0.084,0.165 c 0.06,0.108 0.124,0.216 0.193,0.317 0.055,0.07 0.094,0.107 0.143,0.161 l 0.284,0.299 0.292,0.289 0.343,0.234 c 0.928,0.633 2.004,0.829 2.873,0.831 1.793,0.021 3.242,-0.388 4.675,-0.673 1.41,-0.307 2.765,-0.573 4.01,-0.585 0.3,-0.004 0.624,0.028 0.875,0.048 0.228,0.023 0.281,0.091 0.233,0.047 -0.123,-0.25 0.058,0.153 -0.041,0.737 -0.156,1.171 -0.61,2.557 -1.076,3.883 -0.966,2.682 -2.087,5.372 -3.203,8.055 -4.53,10.732 -9.131,21.482 -13.545,32.292 z"
             style="fill:#000000;fill-opacity:1;fill-rule:nonzero;stroke:none"
             id="path102" />
        </g>
        <g
           id="g104"
           transform="translate(347.8094,161.8338)">
          <path
             d="M 0,0 C -1.94,9.827 -3.623,19.84 -4.758,29.384"
             style="fill:none;stroke:#000000;stroke-width:3;stroke-linecap:butt;stroke-linejoin:miter;stroke-miterlimit:10;stroke-dasharray:none;stroke-opacity:1"
             id="path106" />
        </g>
        <g
           id="g108"
           transform="translate(315.1209,184.99)">
          <path
             d="m 0,0 c -1.814,-6.602 -3.175,-87.992 -3.175,-87.992 0,0 25.549,-17.451 53.192,-3.63 0,0 -4.725,15.101 -9.948,35.836"
             style="fill:none;stroke:#000000;stroke-width:3;stroke-linecap:butt;stroke-linejoin:miter;stroke-miterlimit:10;stroke-dasharray:none;stroke-opacity:1"
             id="path110" />
        </g>
        <g
           id="g112"
           transform="translate(240.2054,103.1355)">
          <path
             d="m 0,0 c 9.009,-1.485 19.984,-1.072 31.309,4.591 0,0 -25.129,67.291 -20.103,67.849 3.296,0.367 6.191,1.871 4.915,9.863"
             style="fill:none;stroke:#000000;stroke-width:3;stroke-linecap:butt;stroke-linejoin:miter;stroke-miterlimit:10;stroke-dasharray:none;stroke-opacity:1"
             id="path114" />
        </g>
        <g
           id="g116"
           transform="translate(326.0408,417.2508)">
          <path
             d="M 0,0 C 0,0 32.219,38.818 33.895,37.702 35.569,36.585 16.947,-13.805 16.947,-13.805"
             style="fill:none;stroke:#000000;stroke-width:3;stroke-linecap:butt;stroke-linejoin:miter;stroke-miterlimit:10;stroke-dasharray:none;stroke-opacity:1"
             id="path118" />
        </g>
        <g
           id="g120"
           transform="translate(269.3484,369.8802)">
          <path
             d="M 0,0 C -32.509,-46.709 16.37,-72.75 20.74,-95.265"
             style="fill:none;stroke:#000000;stroke-width:3;stroke-linecap:butt;stroke-linejoin:miter;stroke-miterlimit:10;stroke-dasharray:none;stroke-opacity:1"
             id="path122" />
        </g>
        <g
           id="g124"
           transform="translate(322.6248,231.3367)">
          <path
             d="m 0,0 c 0.284,-1.228 0.867,-2.36 1.358,-3.517 0.51,-1.152 1.044,-2.294 1.584,-3.433 l 1.614,-3.419 c 0.522,-1.144 1.181,-2.24 1.458,-3.467 l -2.022,0.845 c 6.436,2.87 12.897,5.622 19.424,8.262 6.537,2.618 13.094,5.177 19.905,7.25 1.71,0.507 3.434,0.983 5.238,1.339 0.906,0.174 1.825,0.326 2.838,0.369 0.515,0.013 1.043,0.016 1.7,-0.125 0.328,-0.08 0.708,-0.191 1.139,-0.491 0.206,-0.137 0.445,-0.377 0.601,-0.611 l 0.175,-0.296 0.107,-0.23 c 0.442,-1.098 0.586,-1.914 0.798,-2.823 0.19,-0.885 0.354,-1.762 0.51,-2.637 0.309,-1.75 0.581,-3.495 0.84,-5.24 1.02,-6.974 1.859,-13.948 2.674,-20.925 1.613,-13.955 3.057,-27.92 4.449,-41.891 0.776,-7.086 0.523,-14.334 -0.709,-21.379 -0.63,-3.523 -1.511,-7.002 -2.626,-10.403 -0.551,-1.703 -1.187,-3.377 -1.851,-5.039 l -1.997,-4.869 -0.51,-1.245 -1.272,0.367 c -3.968,1.139 -7.765,2.502 -11.539,4.062 -3.76,1.565 -7.448,3.337 -10.979,5.446 -3.513,2.122 -6.925,4.553 -9.77,7.724 -1.418,1.579 -2.676,3.37 -3.57,5.393 -0.896,2.013 -1.375,4.283 -1.265,6.535 l 0.01,0.215 0.08,0.23 5.175,15.024 5.09,15.047 c 1.69,5.015 3.346,10.041 4.893,15.083 0.769,2.52 1.517,5.047 2.173,7.568 0.324,1.256 0.631,2.522 0.845,3.731 0.052,0.3 0.098,0.596 0.128,0.87 0.031,0.262 0.043,0.55 0.036,0.637 0,0.022 -0.003,0.016 0.01,-0.035 0.013,-0.054 0.013,-0.044 0.051,-0.152 0.018,-0.042 0.038,-0.083 0.061,-0.122 0.037,-0.071 0.085,-0.146 0.139,-0.211 0.041,-0.049 0.141,-0.166 0.246,-0.249 0.104,-0.079 0.22,-0.153 0.374,-0.223 0.148,-0.066 0.313,-0.1 0.433,-0.118 0.105,-0.023 0.328,-0.009 0.336,-0.006 0.015,0.002 -0.021,-0.001 -0.068,-0.011 -0.2,-0.036 -0.507,-0.116 -0.795,-0.197 -2.414,-0.713 -4.942,-1.632 -7.421,-2.506 l -7.48,-2.689 c -4.993,-1.799 -10.009,-3.552 -15.086,-5.201 -2.547,-0.813 -5.089,-1.613 -7.761,-2.251 -0.674,-0.155 -1.354,-0.3 -2.09,-0.405 -0.376,-0.048 -0.749,-0.095 -1.224,-0.09 -0.243,0.008 -0.498,0.012 -0.899,0.121 -0.213,0.072 -0.473,0.152 -0.809,0.445 -0.176,0.161 -0.333,0.367 -0.444,0.627 l -0.058,0.138 -1.446,3.7 c -1.872,4.957 -3.597,9.975 -4.831,15.207 2.855,-4.551 5.219,-9.32 7.437,-14.148 l 1.62,-3.638 c 0.013,-0.028 0.043,-0.1 0.04,-0.09 -0.077,0.183 -0.184,0.324 -0.3,0.426 -0.211,0.183 -0.313,0.2 -0.369,0.221 -0.081,0.022 -0.002,0.004 0.084,0.008 0.191,0 0.477,0.033 0.757,0.077 0.574,0.093 1.191,0.233 1.806,0.389 2.475,0.639 4.982,1.477 7.469,2.325 4.983,1.711 9.932,3.592 14.901,5.429 l 7.462,2.769 c 2.513,0.913 4.96,1.839 7.624,2.657 0.349,0.101 0.682,0.199 1.132,0.289 0.115,0.022 0.243,0.045 0.424,0.063 0.048,0.008 0.313,0.014 0.46,-0.01 0.163,-0.016 0.365,-0.07 0.55,-0.15 0.196,-0.082 0.346,-0.179 0.479,-0.288 0.137,-0.109 0.271,-0.249 0.333,-0.336 0.077,-0.099 0.15,-0.208 0.21,-0.314 0.039,-0.076 0.076,-0.155 0.109,-0.235 0.077,-0.183 0.089,-0.256 0.126,-0.389 0.05,-0.212 0.071,-0.383 0.082,-0.526 0.042,-0.575 -0.004,-0.951 -0.043,-1.348 -0.044,-0.384 -0.1,-0.743 -0.162,-1.097 -0.253,-1.401 -0.578,-2.71 -0.918,-4.021 -0.685,-2.61 -1.449,-5.168 -2.234,-7.717 -1.575,-5.094 -3.251,-10.137 -4.958,-15.169 -1.689,-5.037 -3.518,-10.022 -5.32,-15.016 -1.807,-4.993 -3.645,-9.968 -5.562,-14.925 l 0.09,0.444 c -0.194,-3.553 1.545,-6.999 4.076,-9.788 2.526,-2.824 5.726,-5.13 9.073,-7.147 3.366,-2.011 6.936,-3.73 10.589,-5.25 3.648,-1.51 7.425,-2.861 11.177,-3.939 l -1.782,-0.877 1.997,4.868 c 0.636,1.596 1.248,3.204 1.776,4.839 1.071,3.266 1.916,6.606 2.522,9.989 1.181,6.779 1.429,13.693 0.677,20.56 -1.39,13.959 -2.834,27.913 -4.443,41.841 -0.814,6.96 -1.651,13.922 -2.662,20.833 -0.256,1.726 -0.525,3.449 -0.825,5.153 -0.152,0.852 -0.311,1.7 -0.49,2.53 -0.173,0.798 -0.388,1.711 -0.608,2.24 l -0.03,0.069 c 0,-0.006 0.003,-0.01 0.008,-0.013 0.033,-0.054 0.119,-0.13 0.141,-0.147 0.072,-0.046 0.03,-0.01 -0.068,0.009 C 52.225,1.227 51.869,1.245 51.509,1.231 50.769,1.2 49.949,1.074 49.134,0.916 47.495,0.593 45.832,0.137 44.18,-0.354 37.561,-2.367 31.025,-4.911 24.539,-7.511 18.057,-10.133 11.604,-12.882 5.224,-15.727 l -1.466,-0.653 -0.557,1.499 c -0.597,1.134 -0.795,2.403 -1.118,3.63 L 1.207,-7.542 C 0.937,-6.299 0.677,-5.053 0.44,-3.801 0.235,-2.547 -0.031,-1.28 0,0"
             style="fill:#000000;fill-opacity:1;fill-rule:nonzero;stroke:none"
             id="path126" />
        </g>
        <g
           id="g128"
           transform="translate(315.1902,354.7137)">
          <path
             d="m 0,0 c 2.591,-2.469 5.219,-4.536 8.144,-5.819 2.885,-1.318 5.959,-1.945 9.03,-1.886 3.068,0.064 6.12,0.78 8.912,2.139 2.789,1.38 5.263,3.446 7.002,6.613 0.132,-1.806 -0.371,-3.693 -1.277,-5.368 -0.907,-1.685 -2.229,-3.155 -3.768,-4.317 -3.076,-2.354 -6.967,-3.545 -10.825,-3.551 C 13.354,-12.212 9.477,-11 6.396,-8.779 3.294,-6.574 1.072,-3.401 0,0"
             style="fill:#000000;fill-opacity:1;fill-rule:nonzero;stroke:none"
             id="path130" />
        </g>
        <g
           id="g132"
           transform="translate(362.241,335.9168)">
          <path
             d="M 0,0 C 10.27,-9.76 21.873,-1.016 21.873,-1.016"
             style="fill:none;stroke:#000000;stroke-width:3;stroke-linecap:butt;stroke-linejoin:miter;stroke-miterlimit:10;stroke-dasharray:none;stroke-opacity:1"
             id="path134" />
        </g>
        <g
           id="g136"
           transform="translate(373.7996,355.2376)">
          <path
             d="m 0,0 c 2.199,1.125 4.791,0.707 6.151,-1.37 0,0 -2.826,0.48 -4.685,-1.379 C -0.393,-4.607 -2.827,-1.728 0,0"
             style="fill:#000000;fill-opacity:1;fill-rule:nonzero;stroke:none"
             id="path138" />
        </g>
        <g
           id="g140"
           transform="translate(264.3318,316.0232)">
          <path
             d="M 0,0 C 12.876,-23.733 -0.02,-34.61 -0.02,-34.61"
             style="fill:none;stroke:#000000;stroke-width:3;stroke-linecap:butt;stroke-linejoin:miter;stroke-miterlimit:10;stroke-dasharray:none;stroke-opacity:1"
             id="path142" />
        </g>
        <g
           id="g144"
           transform="translate(320.364,184.99)">
          <path
             d="M 0,0 C -43.356,0 -94.041,0.448 -94.041,0.448"
             style="fill:none;stroke:#000000;stroke-width:3;stroke-linecap:butt;stroke-linejoin:miter;stroke-miterlimit:10;stroke-dasharray:none;stroke-opacity:1"
             id="path146" />
        </g>
        <g
           id="g148"
           transform="translate(306.9715,204.3035)">
          <path
             d="m 0,0 c 0.287,-0.401 0.555,-0.808 0.851,-1.188 0.329,-0.359 0.604,-0.75 0.965,-1.065 0.663,-0.681 1.441,-1.212 2.224,-1.653 0.8,-0.426 1.651,-0.699 2.499,-0.843 0.424,-0.076 0.852,-0.101 1.268,-0.108 0.391,0.006 0.883,0.044 1.118,0.121 l 0.292,-2.993 c -0.738,0.017 -1.22,0.135 -1.792,0.269 -0.543,0.153 -1.071,0.33 -1.571,0.563 -1,0.455 -1.915,1.052 -2.692,1.771 C 2.4,-4.393 1.727,-3.6 1.224,-2.716 0.94,-2.298 0.76,-1.819 0.529,-1.383 0.333,-0.925 0.174,-0.454 0,0"
             style="fill:#000000;fill-opacity:1;fill-rule:nonzero;stroke:none"
             id="path150" />
        </g>
        <g
           id="g152"
           transform="translate(190.5144,121.1492)">
          <path
             d="M 0,0 C 30.65,-25.408 46.108,-7.963 46.108,-7.963"
             style="fill:none;stroke:#000000;stroke-width:3;stroke-linecap:butt;stroke-linejoin:miter;stroke-miterlimit:10;stroke-dasharray:none;stroke-opacity:1"
             id="path154" />
        </g>
        <g
           id="g156"
           transform="translate(265.282,124.9197)">
          <path
             d="M 0,0 C -10.053,-14.659 -32.974,0.783 -32.974,0.783"
             style="fill:none;stroke:#000000;stroke-width:3;stroke-linecap:butt;stroke-linejoin:miter;stroke-miterlimit:10;stroke-dasharray:none;stroke-opacity:1"
             id="path158" />
        </g>
        <g
           id="g160"
           transform="translate(312.4285,121.1492)">
          <path
             d="M 0,0 C 7.936,-8.307 43.807,-21.709 46.686,-6.901"
             style="fill:none;stroke:#000000;stroke-width:3;stroke-linecap:butt;stroke-linejoin:miter;stroke-miterlimit:10;stroke-dasharray:none;stroke-opacity:1"
             id="path162" />
        </g>
        <g
           id="g164"
           transform="translate(348.6873,164.3308)">
          <path
             d="M 0,0 C 8.771,-13.794 26.83,-37.149 36.822,-20.411"
             style="fill:none;stroke:#000000;stroke-width:3;stroke-linecap:butt;stroke-linejoin:miter;stroke-miterlimit:10;stroke-dasharray:none;stroke-opacity:1"
             id="path166" />
        </g>
        <g
           id="g168"
           transform="translate(348.6873,310.116)">
          <path
             d="m 0,0 c 6.501,-34.56 38.373,-44.646 57.179,-50.018 29.457,-8.415 26.665,-41.223 6.841,-50.018 0,0 9.353,21.257 -14.38,22.058 -22.618,0.764 -32.407,13.54 -32.407,13.54"
             style="fill:none;stroke:#000000;stroke-width:3;stroke-linecap:butt;stroke-linejoin:miter;stroke-miterlimit:10;stroke-dasharray:none;stroke-opacity:1"
             id="path170" />
        </g>
        <g
           id="g172"
           transform="translate(389.5828,233.1023)">
          <path
             d="m 0,0 c 20.641,-4.455 8.954,-31.921 30.523,-38.114 0,0 -28.66,-6.437 -39.773,13.298"
             style="fill:none;stroke:#000000;stroke-width:3;stroke-linecap:butt;stroke-linejoin:miter;stroke-miterlimit:10;stroke-dasharray:none;stroke-opacity:1"
             id="path174" />
        </g>
        <g
           id="g176"
           transform="translate(328.906,420.6844)">
          <path
             d="M 0,0 20.729,1.13"
             style="fill:none;stroke:#000000;stroke-width:1;stroke-linecap:butt;stroke-linejoin:miter;stroke-miterlimit:10;stroke-dasharray:none;stroke-opacity:1"
             id="path178" />
        </g>
        <g
           id="g180"
           transform="translate(338.2312,431.7132)">
          <path
             d="M 0,0 15.356,1.391"
             style="fill:none;stroke:#000000;stroke-width:1;stroke-linecap:butt;stroke-linejoin:miter;stroke-miterlimit:10;stroke-dasharray:none;stroke-opacity:1"
             id="path182" />
        </g>
        <g
           id="g184"
           transform="translate(347.6922,442.6297)">
          <path
             d="M 0,0 9.437,1.064"
             style="fill:none;stroke:#000000;stroke-width:1;stroke-linecap:butt;stroke-linejoin:miter;stroke-miterlimit:10;stroke-dasharray:none;stroke-opacity:1"
             id="path186" />
        </g>
        <g
           id="g188"
           transform="translate(292.0037,390.5764)">
          <path
             d="m 0,0 c 10.381,16.072 27.585,16.351 39.032,-0.402 10.872,-15.91 28.214,-12.666 34.211,-4.099"
             style="fill:none;stroke:#000000;stroke-width:1;stroke-linecap:butt;stroke-linejoin:miter;stroke-miterlimit:10;stroke-dasharray:none;stroke-opacity:1"
             id="path190" />
        </g>
        <g
           id="g192"
           transform="translate(285.2,394.9832)">
          <path
             d="M 0,0 C 3.919,14.387 25.593,25.172 41.927,14.178 57.266,3.854 54.806,-6.03 66.638,-7.811 81.669,-10.072 80.147,12.473 80.147,12.473"
             style="fill:none;stroke:#000000;stroke-width:1;stroke-linecap:butt;stroke-linejoin:miter;stroke-miterlimit:10;stroke-dasharray:none;stroke-opacity:1"
             id="path194" />
        </g>
        <g
           id="g196"
           transform="translate(273.3816,366.3279)">
          <path
             d="M 0,0 C -15.988,-27.111 -1.335,-45.724 10.604,-59.453 22.543,-73.181 23.679,-88.169 21.645,-93.449"
             style="fill:none;stroke:#000000;stroke-width:1;stroke-linecap:butt;stroke-linejoin:miter;stroke-miterlimit:10;stroke-dasharray:none;stroke-opacity:1"
             id="path198" />
        </g>
        <g
           id="g200"
           transform="translate(273.2635,279.4969)">
          <path
             d="M 0,0 C 7.933,5.064 3.077,18.384 3.077,18.384"
             style="fill:none;stroke:#000000;stroke-width:1;stroke-linecap:butt;stroke-linejoin:miter;stroke-miterlimit:10;stroke-dasharray:none;stroke-opacity:1"
             id="path202" />
        </g>
        <g
           id="g204"
           transform="translate(354.5047,281.4134)">
          <path
             d="m 0,0 c 13.388,-24.844 32.647,-35.466 50.942,-37.129 19.964,-1.816 21.221,-22.337 7.26,-34.204"
             style="fill:none;stroke:#000000;stroke-width:1;stroke-linecap:butt;stroke-linejoin:miter;stroke-miterlimit:10;stroke-dasharray:none;stroke-opacity:1"
             id="path206" />
        </g>
        <g
           id="g208"
           transform="translate(359.4402,286.1966)">
          <path
             d="M 0,0 C 25.322,-35.956 62.048,-28.779 66.653,-43.027"
             style="fill:none;stroke:#000000;stroke-width:1;stroke-linecap:butt;stroke-linejoin:miter;stroke-miterlimit:10;stroke-dasharray:none;stroke-opacity:1"
             id="path210" />
        </g>
        <g
           id="g212"
           transform="translate(377.4763,228.6385)">
          <path
             d="M 0,0 C 15.686,-7.39 18.198,-33.247 42.63,-33.65"
             style="fill:none;stroke:#000000;stroke-width:1;stroke-linecap:butt;stroke-linejoin:miter;stroke-miterlimit:10;stroke-dasharray:none;stroke-opacity:1"
             id="path214" />
        </g>
        <g
           id="g216"
           transform="translate(205.4197,272.8787)">
          <path
             d="m 0,0 c 28.687,59.005 -7.98,106.064 -63.543,98.561 -36.158,-4.883 -76.215,-41.112 -45.103,-102.334 31.11,-61.221 -2.312,-98.258 -2.312,-98.258 0,0 59.172,8.355 50.607,81.777 -6.155,52.769 54.597,57.507 50.039,9.528"
             style="fill:none;stroke:#000000;stroke-width:3;stroke-linecap:butt;stroke-linejoin:miter;stroke-miterlimit:10;stroke-dasharray:none;stroke-opacity:1"
             id="path218" />
        </g>
        <g
           id="g220"
           transform="translate(102.5096,256.2879)">
          <path
             d="m 0,0 c 9.671,-44.552 -17.885,-58.774 -36.551,-48.7 0,0 11.713,-22.818 39.93,-15.261"
             style="fill:none;stroke:#000000;stroke-width:3;stroke-linecap:butt;stroke-linejoin:miter;stroke-miterlimit:10;stroke-dasharray:none;stroke-opacity:1"
             id="path222" />
        </g>
        <g
           id="g224"
           transform="translate(94.4617,170.8474)">
          <path
             d="m 0,0 c 46.756,19.259 40.501,82.708 30.312,121.626 -15.556,59.413 97.169,76.521 77.473,-23.368"
             style="fill:none;stroke:#000000;stroke-width:1;stroke-linecap:butt;stroke-linejoin:miter;stroke-miterlimit:10;stroke-dasharray:none;stroke-opacity:1"
             id="path226" />
        </g>
        <g
           id="g228"
           transform="translate(67.2879,206.9236)">
          <path
             d="M 0,0 C 31.263,-18.817 42.713,9.635 42.713,9.635"
             style="fill:none;stroke:#000000;stroke-width:1;stroke-linecap:butt;stroke-linejoin:miter;stroke-miterlimit:10;stroke-dasharray:none;stroke-opacity:1"
             id="path230" />
        </g>
        <g
           id="g232"
           transform="translate(214.0486,326.2859)">
          <path
             d="m 0,0 c -9.483,42.292 -69.053,49.433 -100.387,20.561 -31.333,-28.871 -5.111,-71.088 0.297,-91.148 13.136,-48.732 -10.216,-69.088 -10.216,-69.088"
             style="fill:none;stroke:#000000;stroke-width:1;stroke-linecap:butt;stroke-linejoin:miter;stroke-miterlimit:10;stroke-dasharray:none;stroke-opacity:1"
             id="path234" />
        </g>
      </g>
    </g>
  </g>
</svg>
