<?xml version="1.0" encoding="UTF-8" standalone="no"?>
<!-- Created with Inkscape (http://www.inkscape.org/) -->

<svg
   xmlns:dc="http://purl.org/dc/elements/1.1/"
   xmlns:cc="http://creativecommons.org/ns#"
   xmlns:rdf="http://www.w3.org/1999/02/22-rdf-syntax-ns#"
   xmlns:svg="http://www.w3.org/2000/svg"
   xmlns="http://www.w3.org/2000/svg"
   xmlns:sodipodi="http://sodipodi.sourceforge.net/DTD/sodipodi-0.dtd"
   xmlns:inkscape="http://www.inkscape.org/namespaces/inkscape"
   width="306.47708"
   height="451.28027"
   viewBox="0 0 2037.38 3000"
   version="1.1"
   id="svg5181"
   inkscape:version="0.92.1 r15371"
   sodipodi:docname="winter_bear.svg">
  <defs
     id="defs5175" />
  <sodipodi:namedview
     id="base"
     pagecolor="#ffffff"
     bordercolor="#666666"
     borderopacity="1.0"
     inkscape:pageopacity="0.0"
     inkscape:pageshadow="2"
     inkscape:zoom="0.9899495"
     inkscape:cx="-204.28673"
     inkscape:cy="242.55704"
     inkscape:document-units="px"
     inkscape:current-layer="layer1"
     showgrid="false"
     units="px"
     fit-margin-top="0"
     fit-margin-left="0"
     fit-margin-right="0"
     fit-margin-bottom="0"
     viewbox-width="2037.38"
     inkscape:window-width="1920"
     inkscape:window-height="1003"
     inkscape:window-x="-9"
     inkscape:window-y="-9"
     inkscape:window-maximized="1" />
  <metadata
     id="metadata5178">
    <rdf:RDF>
      <cc:Work
         rdf:about="">
        <dc:format>image/svg+xml</dc:format>
        <dc:type
           rdf:resource="http://purl.org/dc/dcmitype/StillImage" />
        <dc:title />
      </cc:Work>
    </rdf:RDF>
  </metadata>
  <g
     inkscape:label="Layer 1"
     inkscape:groupmode="layer"
     id="layer1"
     transform="translate(-84.943754,-70.989821)">
    <g
       id="g4498">
      <path
         inkscape:connector-curvature="0"
         d="m 911.87916,501.29206 c 0,18.95043 -15.36861,34.31061 -34.31072,34.31061 -18.94162,0 -34.30183,-15.36018 -34.30183,-34.31061 0,-18.94197 15.36021,-34.30215 34.30183,-34.30215 18.94211,0 34.31072,15.36018 34.31072,34.30215"
         style="fill:#000000;fill-opacity:1;fill-rule:nonzero;stroke:none;stroke-width:0.84675735"
         id="path40" />
      <path
         inkscape:connector-curvature="0"
         d="m 863.15682,475.79619 c -13.23478,0 -13.26022,20.55928 0,20.55928 13.22662,0 13.25206,-20.55928 0,-20.55928"
         style="fill:#ffffff;fill-opacity:1;fill-rule:nonzero;stroke:none;stroke-width:0.84675735"
         id="path42" />
      <path
         inkscape:connector-curvature="0"
         d="m 1173.4428,543.96015 c 0,18.94197 15.3686,34.30215 34.3103,34.30215 18.9421,0 34.3025,-15.36018 34.3025,-34.30215 0,-18.94196 -15.3604,-34.30214 -34.3025,-34.30214 -18.9417,0 -34.3103,15.36018 -34.3103,34.30214"
         style="fill:#000000;fill-opacity:1;fill-rule:nonzero;stroke:none;stroke-width:0.84675735"
         id="path44" />
      <path
         inkscape:connector-curvature="0"
         d="m 1222.1652,518.46429 c 13.2347,0 13.2602,20.55928 0,20.55928 -13.2267,0 -13.2437,-20.55928 0,-20.55928"
         style="fill:#ffffff;fill-opacity:1;fill-rule:nonzero;stroke:none;stroke-width:0.84675735"
         id="path46" />
      <path
         inkscape:connector-curvature="0"
         d="m 1964.3138,1180.8909 c -76.0893,24.192 -197.9804,-19.9835 -198.8442,-20.339 -27.435,-15.7159 -42.0921,-42.3211 -56.2669,-68.0454 -3.531,-6.3931 -7.0111,-12.7269 -10.6602,-18.8235 -4.0308,-6.7318 -8.9508,-13.8783 -14.1584,-21.4569 -15.7152,-22.837 -33.5398,-48.7223 -32.5237,-72.13514 0.4632,-10.52513 5.4109,-19.4332 14.3355,-25.74156 7.6803,-5.4445 17.867,-8.50147 28.8321,-8.78086 2.9555,-0.072 5.9613,0.048 8.9926,0.38885 12.3709,1.36334 23.3792,5.91879 33.6756,13.92917 l 6.5457,5.09742 -0.4128,-7.39207 -0.144,-2.53179 c -4.8946,-84.88748 7.6289,-193.00137 94.4556,-237.47309 32.126,-16.44404 65.2932,-19.64478 98.5706,-9.51754 55.3108,16.842 96.5223,66.60588 112.8224,108.4611 35.2927,90.62832 23.9378,196.15971 -34.7,322.63141 -9.2465,19.9752 -26.2499,34.0143 -50.5177,41.7282 z m 40.3313,47.173 c -2.7097,9.7292 -11.1519,17.748 -25.0897,23.8276 -43.7351,19.0859 -119.7565,8.2389 -161.1885,0.072 -16.495,-3.2514 -99.7144,-21.4144 -118.3766,-59.7388 -5.0043,-10.2625 -1.4834,-15.8088 7.7644,-23.6497 9.0268,-7.6633 19.2978,-14.8015 29.8824,-21.7111 6.8244,7.0366 14.4961,13.4551 23.692,18.722 0.7537,0.4249 82.0506,30.4747 155.5662,28.5864 15.0302,-0.3817 29.7636,-2.1075 43.3966,-5.6901 9.5934,-2.5234 18.1376,-5.9697 25.8093,-10.1442 15.9612,20.3223 22.1675,36.7153 18.5439,49.73 z m -14.5981,235.6947 c -6.6473,69.8914 -16.7322,122.0432 -86.1491,156.718 -37.4354,18.7218 -98.6134,14.5473 -158.4791,-2.141 -1.2458,-0.348 -2.498,-0.7201 -3.7514,-1.0849 -2.9213,-0.8377 -5.8427,-1.685 -8.7468,-2.5827 -36.4023,-11.3635 -75.3445,-27.7652 -106.1581,-39.6875 l -2.9213,-1.1426 c -42.643,-16.4948 -90.1205,-38.5529 -130.5783,-60.0436 -0.6433,-0.5088 -1.2529,-0.5592 -0.7273,1.0081 25.3439,84.2608 44.7934,178.2678 57.6561,281.1743 29.3736,235.0005 -16.1144,426.0367 -131.5525,552.4582 -19.7042,21.5755 -41.3728,41.0348 -64.7091,58.3932 -15.1062,11.9903 -13.9802,18.5195 2.1075,7.0122 24.4375,-17.9869 47.0877,-38.2599 67.6639,-60.7813 5.428,-5.9442 10.6529,-12.0764 15.7668,-18.2983 -15.9273,50.3888 -28.468,101.9588 -37.3081,154.0506 -9.9491,58.6217 -15.0549,120.0709 -15.191,182.6514 -0.072,24.8633 1.9562,50.1212 3.8956,74.5577 0.2544,3.3278 0.5137,6.708 0.7705,10.0689 -49.9925,0.3816 -101.6953,12.8462 -148.7074,38.5275 -7.816,4.2667 -12.1597,9.559 -11.7025,8.9332 -4.3096,5.3423 0.2784,8.0443 4.3186,4.5216 2.9129,-2.7679 6.3251,-5.2159 10.5001,-7.3591 78.8665,-40.3632 198.4033,-55.9791 287.7366,0.072 15.2073,9.542 63.8706,44.818 51.3134,98.1045 -12.244,51.9831 -66.1067,68.402 -97.1317,73.5654 -51.7625,8.603 -107.8771,13.2274 -181.9515,15.0067 l -10.3979,0.252 c -50.0096,1.2361 -101.7461,2.5337 -150.2145,-6.1554 -43.5491,-7.7963 -92.8641,-43.1749 -100.248,-111.3386 -1.973,-20.1206 -0.5832,-41.2304 0.8305,-61.9986 0.8713,-12.6093 1.769,-25.6408 1.7954,-37.9188 0.2785,-86.326 -13.4299,-173.2974 -39.8486,-256.2531 6.943,0.192 13.8615,0.348 20.7368,0.348 44.5735,0 87.504,-4.5744 128.4025,-13.1942 21.4482,-5.7817 21.897,-12.4304 -2.8959,-6.2584 -46.9951,9.7707 -96.7844,13.9815 -148.623,12.2118 -37.72314,1.2769 -74.29417,-0.7537 -109.57027,-5.6394 -24.81025,-2.9898 -24.81025,1.9226 -1.09211,6.731 32.62525,4.5386 66.40262,6.5131 101.0945,5.8782 -28.22222,85.4792 -42.84603,175.437 -42.56664,264.6876 0.072,12.268 0.9217,25.3064 1.79539,37.9155 1.45696,21.3577 2.83615,43.0423 0.60247,63.6684 -8.01014,67.0462 -56.83401,101.932 -100.01055,109.6719 -48.47655,8.6891 -100.20472,7.3925 -150.22296,6.1557 l -10.38111,-0.2545 c -74.07432,-1.7762 -130.19737,-6.4005 -181.95963,-15.0037 -31.02524,-5.1663 -84.89596,-21.5822 -97.14008,-73.5653 -12.55737,-53.2864 36.10572,-88.5622 51.32193,-98.1045 89.32449,-56.0587 208.86112,-40.4325 287.72804,-0.072 4.17429,2.1435 7.58721,4.5903 10.49968,7.3592 4.0478,3.5123 8.63685,0.8209 4.31831,-4.5216 0.46325,0.6241 -3.87762,-4.6673 -11.70174,-8.9342 -47.01215,-25.6907 -98.70648,-38.1463 -148.70767,-38.5275 0.26163,-3.37 0.51605,-6.7409 0.77768,-10.0746 1.93941,-24.4308 3.93762,-49.6911 3.88674,-74.551 -0.12002,-62.5838 -5.24144,-124.034 -15.19075,-182.6617 -11.17728,-65.8787 -28.30719,-130.8935 -50.75463,-193.7617 12.10017,17.4347 25.23342,33.953 39.42494,49.4988 11.13479,12.1856 22.92173,23.6329 35.21657,34.5054 15.66503,13.0586 13.33655,2.6426 2.6758,-6.7479 -11.43962,-10.2306 -22.42224,-20.9835 -32.82039,-32.3715 -115.44681,-126.4285 -160.93456,-317.4578 -131.56058,-552.4583 18.72182,-149.7659 51.35576,-280.7508 95.9038,-390.1351 5.47835,-20.195 1.72819,-18.7131 -7.79027,1.1017 -44.03127,109.2319 -76.32666,239.5137 -94.913,388.1789 -1.96437,15.7582 -3.58178,31.2963 -4.87732,46.6565 -11.16868,54.0739 -18.96733,96.8266 -22.83705,118.8508 l -0.38092,2.1771 c -2.01526,10.6607 -3.81041,22.2528 -5.71561,34.5308 -1.24478,8.0781 -2.57411,16.4439 -3.99667,24.8945 -6.74016,-3.6918 -14.80978,-6.774 -24.27656,-9.1788 -71.39855,-18.1882 -161.00244,-14.4287 -220.53791,8.8063 -0.44909,-48.2651 6.68937,-96.9368 15.16542,-129.1389 l 67.18192,-255.1451 c 18.72181,-71.0685 38.08721,-144.567 68.46884,-212.9172 40.59356,-91.3312 148.05551,-234.5771 312.62286,-258.2271 1.60097,1.1593 3.31931,2.0498 5.24144,2.4048 171.25641,32.0835 332.26756,44.9967 465.09849,44.9967 9.0771,0 17.9597,-0.072 26.7655,-0.216 -2.828,4.4961 -5.673,8.9755 -8.5183,13.4126 -12.6078,19.7039 -25.6565,40.0684 -35.2506,61.8301 -26.664,60.4587 -23.0821,160.6977 29.1794,217.2187 0.7441,0.8041 1.6586,1.8026 6.4778,1.8626 5.0379,0.072 14.3697,-0.8977 32.2444,-4.2084 39.6371,-7.3498 165.6511,-37.071 168.0134,-46.4953 0.3048,-1.229 -0.2784,-2.4641 -1.5314,-3.2262 -40.8727,-24.954 -19.4075,-91.1536 -6.5875,-130.7055 1.4306,-4.3947 2.7435,-8.4593 3.8613,-12.1086 4.9873,-16.2917 10.6519,-32.8288 16.1218,-48.8241 7.7987,-22.7948 15.7498,-46.0636 22.1258,-69.6288 1.0513,-0.216 2.1075,-0.4321 3.1333,-0.6601 113.9649,9.3651 227.1169,41.8807 330.1503,94.9215 -0.3048,1.5242 -0.6432,3.0738 -0.9409,4.5809 -5.9017,29.9838 -9.6104,60.6617 -11.1429,91.3651 -0.3481,16.1307 5.3175,18.8742 6.8671,-0.144 1.5506,-30.2884 5.2074,-60.3907 11.0076,-89.7987 4.7592,-24.1833 10.5592,-49.4419 18.0866,-73.8033 33.3374,24.1835 87.8091,36.0634 101.0103,38.6631 26.6047,5.2498 67.1983,11.5495 105.0739,10.576 21.2283,-0.5425 41.5587,-3.4125 58.1385,-9.9834 12.7351,68.0792 16.4864,139.1306 10.1946,205.2877 z M 429.67647,2046.0652 c 6.6809,15.6566 -0.49973,36.4446 -20.20368,58.5363 -1.54961,1.7354 -13.30251,8.1544 -16.90124,8.3745 l -145.90478,8.9248 c -5.57164,0.3481 -11.59209,0.9986 -17.82421,1.6682 -21.18587,2.2947 -45.20838,4.9028 -61.27985,-4.4455 -19.17906,-11.1689 -29.98368,-30.153 -28.18852,-49.5182 1.63409,-17.5279 13.0993,-32.0161 31.48241,-39.7639 33.64164,-14.1577 78.40125,-21.4907 124.04994,-21.4907 32.34615,0 65.14952,3.6834 94.72674,11.2195 21.39759,5.4361 34.86949,14.361 40.04319,26.495 z m 26.44423,187.1502 c 1.25318,3.4727 2.8366,7.4185 4.55552,11.6854 10.1865,25.2934 25.5636,63.5238 -0.17042,80.5512 l -0.77888,0.6529 c -8.17122,9.1118 -22.13428,12.4295 -42.68506,10.1543 -31.77804,-3.5327 -54.91142,-28.3003 -73.70942,-48.4176 -17.95128,-19.2306 -33.03205,-40.7467 -44.82737,-63.9394 -9.31434,-15.4601 -19.05204,-20.9413 -7.83247,3.0661 12.02392,23.5304 27.36716,45.3768 45.8265,65.14 12.10858,12.9631 27.16395,29.0184 46.01278,39.7123 9.70383,12.3541 21.76169,23.9639 33.59083,35.2588 23.98869,22.8956 48.79864,46.5717 52.32116,76.0661 3.75959,31.4661 -23.38746,58.9325 -66.00471,66.8183 -40.80528,7.5243 -85.83578,-5.0907 -133.88929,-37.5054 -12.0917,-8.1535 -23.90396,-17.5008 -35.34364,-27.9498 -81.22099,-64.3797 -96.81827,-165.7958 -84.35398,-239.2521 4.29308,-25.2502 16.50333,-51.305 34.51385,-73.7018 5.01279,0.7441 10.19495,1.0585 15.45331,1.0585 10.42355,0 21.12661,-1.1593 31.22837,-2.2514 6.06281,-0.6601 11.897,-1.2962 17.32468,-1.625 l 145.90477,-8.9333 c 1.51576,-0.072 3.72575,-0.7537 6.17286,-1.7018 23.85315,38.3242 42.93904,76.9628 56.69042,115.1168 z M 669.63059,982.85126 c 2.77733,-4.74171 12.42181,-6.62159 26.90136,-6.62159 25.47896,0 65.92017,5.8343 110.21379,12.22715 61.22048,8.83174 137.42863,19.83118 210.71546,21.36368 37.859,0.7705 74.7773,-1.2457 109.7652,-4.4539 0.12,0.048 0.2472,0.072 0.3624,0.12 17.9426,6.9689 33.0146,21.4991 40.297,38.8746 10.0513,24.0057 10.2963,54.3195 0.72,92.6691 -6.249,25.0217 -18.535,47.8335 -31.9731,69.6881 -137.92857,2.177 -310.37935,-10.0595 -494.90438,-44.6325 -2.58268,-0.4753 -4.80963,-2.7351 -6.62159,-6.6893 -12.71824,-27.9008 1.73539,-116.5901 34.52218,-172.55231 z m -7.43456,-22.68459 c -62.00799,-97.95281 -42.55799,-169.55458 -21.97339,-245.36478 6.24907,-23.02331 12.71824,-46.83412 16.79964,-71.4917 5.58012,-33.73481 7.04499,-65.17492 8.45922,-95.59042 2.32105,-49.95021 4.51321,-97.11461 25.88533,-140.76494 l 1.91301,-3.91201 -4.25926,-0.93994 c -74.65015,-16.44399 -123.4997,-75.72546 -116.14963,-140.94272 8.10327,-71.74575 73.04966,-123.54187 144.8039,-115.44689 55.96199,6.30836 99.92581,56.10615 106.88632,121.09476 l 1.32974,12.37959 5.1992,-11.31267 c 2.85342,-6.23213 8.23888,-10.91469 15.97827,-13.90376 45.80938,-17.71415 147.88583,-25.5382 222.90012,-17.0791 53.4981,6.0374 158.7669,29.36556 213.4932,66.29263 6.8753,4.63177 11.0758,10.38973 12.4811,17.10452 l 2.5486,12.18483 4.0478,-11.76992 c 21.2533,-61.81329 75.1921,-100.56938 131.1707,-94.25257 71.7463,8.08654 123.5424,73.04128 115.4471,144.80397 -7.3496,65.20876 -68.1637,112.11912 -144.6093,111.53487 l -4.3521,-0.0336 0.9913,4.24226 c 11.1091,47.29985 2.7516,93.78682 -6.1139,142.9919 -5.3937,29.96675 -10.9651,60.94113 -13.0399,95.07391 -1.517,24.94544 -0.5137,49.59456 0.4584,73.43075 2.4814,61.08514 4.8013,119.53668 -33.0316,180.95205 -7.4266,-3.52262 -19.5182,-4.36919 -35.4794,-3.53102 -3.8867,-2.85342 -7.9936,-5.52923 -12.3712,-7.95949 -35.3605,-19.6701 -92.9149,-14.46275 -134.9474,-10.67754 l -11.0501,0.9649 c -20.8393,1.68498 -76.1664,6.1473 -88.5121,24.22555 -3.4293,5.00454 -3.4204,10.59306 0,16.60498 0.6433,1.12573 1.4905,2.10023 2.4723,2.88753 0.12,0.12 0.324,0.2784 0.5136,0.432 -17.223,0.7105 -34.7425,0.9577 -52.4991,0.5761 -72.87207,-1.5242 -148.83444,-12.48975 -209.88545,-21.30445 -71.98299,-10.38135 -116.09059,-16.18157 -135.02406,-9.06889 -4.24221,-4.05596 -7.81547,-8.1964 -10.49968,-12.43021 z m 718.05027,175.07573 c -4.3692,32.5323 -12.5833,48.4852 -18.7815,49.8653 -0.3552,0.072 -0.7369,0.144 -1.1017,0.216 3.1417,-12.2778 5.8427,-24.6235 7.7732,-37.0285 6.7997,-43.6249 3.1163,-122.1532 -46.2837,-165.84599 11.4649,-0.21602 20.1951,0.73688 25.3011,3.42949 34.2258,18.0867 39.9586,98.2238 33.0914,149.3509 z m -205.4915,2.8704 c 9.8055,-39.2979 9.5007,-70.5094 -0.9481,-95.421 -7.8241,-18.6711 -24.1154,-34.3361 -43.5738,-41.8893 -16.3004,-6.33376 -33.8707,-6.85006 -50.8309,-1.54093 -1.9994,0.61687 -3.5735,0.45845 -5.318,-0.88089 -0.5665,-0.46565 -0.9817,-0.9409 -1.3034,-1.50736 -2.5486,-4.45392 -2.6165,-8.33202 -0.216,-11.83759 10.7541,-15.74977 65.6494,-20.17824 83.6854,-21.62608 l 11.1264,-0.9745 c 41.0761,-3.70888 97.3261,-8.78086 130.7478,9.81393 66.1823,36.81702 71.2456,127.55542 63.8026,175.37192 -5.9696,38.3834 -19.0093,76.4791 -31.6092,113.313 -5.487,16.0375 -11.16,32.6087 -16.1732,48.9681 -1.1017,3.6325 -2.4216,7.6715 -3.8358,12.0409 -13.0063,40.1193 -34.6321,106.8184 6.6898,134.7951 -20.0009,11.3296 -180.8083,49.5185 -194.5512,45.9027 -50.7037,-55.1747 -54.0315,-152.9158 -27.9855,-211.9856 9.4416,-21.4231 22.3886,-41.6351 34.9033,-61.1867 18.1973,-28.4003 37.0036,-57.7742 45.3946,-91.3566 z m 846.8505,3.2092 c 59.2734,-127.8435 70.6792,-234.72115 34.8443,-326.72129 -16.8421,-43.23542 -59.6121,-94.71826 -117.1911,-112.24614 -34.9713,-10.64375 -71.2291,-7.16357 -104.8713,10.051 -69.8149,35.7586 -103.7022,118.12265 -98.2068,238.43826 -9.5681,-6.08801 -19.8307,-9.66992 -31.1438,-10.92309 -16.2915,-1.77859 -32.1764,1.76899 -43.515,9.79713 -10.3895,7.35823 -16.4012,18.08665 -16.9263,30.21227 -1.085,25.14866 17.2739,51.82996 33.4807,75.37816 5.1569,7.4854 10.0342,14.5643 13.9543,21.1436 3.6074,6.029 7.0621,12.3035 10.5595,18.6457 8.9498,16.2322 18.1121,32.7863 30.5512,47.0203 -10.7709,7.0282 -21.2457,14.3103 -30.5431,22.2021 -10.5248,8.9247 -15.7497,17.0959 -9.3394,30.2462 3.6156,7.4175 9.4155,14.107 16.5628,20.1189 -6.7572,21.4907 -12.1088,43.6417 -16.6052,65.2594 -100.6202,-51.5419 -210.7664,-83.6257 -321.9033,-93.9729 9.5598,-11.7193 14.0648,-37.41 15.7325,-49.8147 6.3424,-47.2577 2.7944,-127.9282 -31.7953,-153.05986 38.9082,-62.91409 36.622,-122.55136 34.0904,-184.88108 -0.9649,-23.6669 -1.9562,-48.13814 -0.4632,-72.74492 2.0402,-33.71788 7.5872,-64.4975 12.9472,-94.26947 8.7213,-48.48533 16.9943,-94.37112 6.9775,-141.57783 77.9774,-1.15165 139.5625,-50.07721 147.1744,-117.60611 8.5099,-75.50534 -45.9956,-143.86405 -121.5012,-152.38245 -56.5549,-6.37606 -111.0354,30.4494 -135.2271,90.32362 -2.7181,-4.73338 -6.7488,-8.9587 -11.9475,-12.46427 -55.7424,-37.60449 -162.4168,-61.30523 -216.5671,-67.41883 -75.91145,-8.55223 -179.47005,-0.54198 -226.13489,17.50248 -5.85086,2.2608 -10.72002,5.47852 -14.41978,9.48368 -10.27166,-63.76083 -55.1747,-111.78889 -111.7298,-118.16498 -75.50536,-8.5099 -143.8642,45.99586 -152.37407,121.50119 -7.62081,67.5289 41.51653,128.93573 117.28448,147.42892 -20.26297,43.7943 -22.43064,90.35748 -24.72529,139.571 -1.40655,30.2123 -2.86207,61.45764 -8.3745,94.786 -4.02211,24.32735 -10.44063,47.96035 -16.65586,70.8228 -20.99097,77.30047 -40.81349,150.33327 22.8118,250.82627 2.65877,4.20861 6.18138,8.28137 10.17805,12.26963 -1.15212,0.98171 -2.15063,2.04982 -2.8707,3.28547 -34.64075,59.12054 -48.34118,149.26644 -34.84405,178.86044 0.33123,0.7201 0.72727,1.2865 1.08491,1.9298 -165.07531,25.894 -272.74901,169.7327 -313.62198,261.6904 -30.61029,68.8583 -50.04337,142.6194 -68.88373,214.1874 l -67.12244,254.9162 c -8.74696,33.2099 -16.06295,83.719 -15.27547,133.6523 -20.05124,9.0348 -32.58325,25.1148 -34.37838,44.4801 -2.01525,21.6938 10.12724,42.9644 31.6857,55.5134 3.8273,2.2274 7.9341,3.8781 12.25254,5.0974 -17.95125,22.8541 -30.09377,49.1373 -34.42911,74.6331 -12.74374,75.0668 3.35315,178.8446 86.58934,244.7893 11.51595,10.5412 23.64149,20.1434 36.07187,28.5179 40.69516,27.4534 79.63753,41.2726 116.14975,41.2726 8.61153,0 17.09603,-0.7704 25.41961,-2.3042 46.97814,-8.6793 76.86861,-39.1532 72.70258,-74.1245 -3.77649,-31.5747 -29.45019,-56.0815 -54.2771,-79.7805 -7.95957,-7.598 -15.99527,-15.3441 -23.33664,-23.312 5.19058,1.721 10.60988,3.0059 16.31697,3.641 4.4794,0.4896 8.72164,0.7441 12.73528,0.7441 17.00287,0 29.73808,-4.4684 37.94314,-13.3424 29.71264,-19.9588 13.34495,-60.6559 2.498,-87.6165 -1.68498,-4.1974 -3.25156,-8.0671 -4.47941,-11.4812 -13.94609,-38.706 -33.31139,-77.8763 -57.52019,-116.7086 4.45392,-2.3043 8.44214,-4.7842 9.61917,-6.1135 21.33829,-23.9209 28.90831,-46.8681 21.33829,-64.6331 -2.91286,-6.8417 -7.99341,-12.7437 -15.07232,-17.748 1.60889,-9.4328 3.09914,-18.7727 4.48783,-27.7652 1.88829,-12.2101 3.67496,-23.7599 5.67325,-34.3105 l 0.40636,-2.261 c 2.59958,-14.8269 7.01965,-39.2049 13.0147,-69.9846 -5.82573,152.5349 23.02331,283.3242 85.02281,385.7919 l 0.73688,1.9202 c 27.16395,70.5687 47.36763,144.2206 60.04363,218.9207 9.88162,58.2475 14.97064,119.3256 15.09761,181.5201 0.048,24.5823 -1.9466,49.7038 -3.86969,73.998 -0.27843,3.5066 -0.54246,7.052 -0.81369,10.5914 -50.64446,0.7465 -99.21438,13.9976 -138.91042,38.9077 -43.21003,27.1063 -63.52376,66.5397 -54.34487,105.4812 13.14165,55.8525 69.96754,73.3137 102.67776,78.7582 52.09253,8.6625 108.51201,13.3197 182.91638,15.0959 l 10.38135,0.2545 c 17.90039,0.4392 36.02113,0.8905 54.15027,0.8905 32.87104,0 65.77592,-1.4714 97.44491,-7.1478 50.97426,-9.1358 88.52844,-41.1603 99.49353,-85.9693 0,-0.01 -0.072,0.024 -0.096,0.024 10.03403,-29.5011 7.84044,-62.4552 5.6394,-94.6158 -0.88809,-13.0648 -1.73538,-25.4122 -1.77859,-37.4692 -0.27843,-87.9204 14.07319,-176.5158 41.68572,-260.768 25.8174,81.706 39.2473,167.2946 38.9843,252.2581 -0.072,12.0597 -0.8881,24.4037 -1.7786,37.4784 -2.2107,32.1505 -4.4028,65.1149 5.6231,94.609 0,0 -0.072,-0.048 -0.072,-0.024 10.9655,44.8092 48.5363,76.8339 99.5024,85.9729 31.669,5.6725 64.5654,7.1544 97.4365,7.1544 18.1375,0 36.2496,-0.456 54.1502,-0.9001 l 10.3809,-0.252 c 74.4046,-1.7786 130.8241,-6.4368 182.925,-15.0996 32.7021,-5.4442 89.5282,-22.9054 102.6777,-78.7548 9.1793,-38.9346 -11.1429,-78.3782 -54.3447,-105.4814 -39.7043,-24.9123 -88.266,-38.1632 -138.9191,-38.9108 -0.2617,-3.5387 -0.5281,-7.0849 -0.8041,-10.5914 -1.9298,-24.2942 -3.9208,-49.416 -3.87,-73.9879 0.1201,-62.2036 5.2074,-123.2794 15.0893,-181.5303 9.8307,-57.9268 24.3191,-115.1758 42.9394,-170.8831 95.9034,-127.0468 132.2548,-307.0006 105.1418,-523.9483 -12.2188,-97.7665 -30.4497,-187.4804 -53.9643,-268.5998 38.4768,20.1106 77.9952,38.2227 118.4109,53.8623 l 2.9379,1.1353 c 28.7983,11.1434 61.3139,25.6568 94.4561,37.0201 0,0.01 0,0.024 0,0.024 0,-0.01 0.072,-0.01 0.072,-0.01 12.0999,4.1407 24.2769,7.8918 36.3938,10.8724 0,-0.01 0,-0.019 0,-0.024 34.3953,11.3127 79.468,16.2661 117.9278,8.5692 12.0999,-2.4219 23.54,-6.0883 33.7855,-11.2111 72.5756,-36.2413 83.0499,-90.1206 89.9086,-162.2725 6.4104,-67.309 2.6254,-139.6813 -10.4661,-208.8867 13.8027,-6.7572 22.3635,-15.5465 25.3266,-26.1986 4.1071,-14.7167 -2.4896,-32.6934 -19.6617,-54.565 13.1675,-8.476 23.1082,-19.6279 29.5433,-33.5148"
         style="fill:#000000;fill-opacity:1;fill-rule:nonzero;stroke:#000000;stroke-width:6.64775324;stroke-miterlimit:4;stroke-dasharray:none;stroke-opacity:1"
         id="path48" />
      <path
         inkscape:connector-curvature="0"
         d="m 939.60188,669.80521 c 1.8794,-13.7852 39.6028,-20.07661 84.10022,-14.0223 21.8126,2.96367 42.5241,8.57766 56.8258,15.3856 13.887,6.61317 21.3383,14.11543 20.4574,20.6016 -5.0717,37.24039 -65.2762,75.38679 -91.9579,71.76271 -26.67286,-3.64109 -74.49726,-56.49569 -69.42552,-93.72761 z m 63.24462,139.18149 c 20.4574,95.03148 112.9995,137.53883 191.7479,82.55878 9.7037,-6.774 -0.5281,-22.47288 -10.1269,-15.77497 -76.6062,53.48109 -163.1025,-1.22893 -168.3272,-99.75654 34.4295,-2.77734 91.6872,-41.50801 97.2671,-82.55036 3.7684,-27.62967 -45.0646,-44.26847 -88.0206,-50.11108 -42.94705,-5.8511 -94.4472,-2.87898 -98.21513,24.75918 -5.58852,41.04233 39.23004,93.66832 71.66927,105.5398 -31.38048,93.55825 -129.35056,123.15246 -188.87741,51.14412 -7.45136,-9.0264 -21.50774,3.37013 -13.97142,12.48965 61.19503,74.02368 161.73075,57.80802 206.85439,-28.29858"
         style="fill:#000000;fill-opacity:1;fill-rule:nonzero;stroke:#000000;stroke-width:6.64775324;stroke-miterlimit:4;stroke-dasharray:none;stroke-opacity:1"
         id="path50" />
      <path
         inkscape:connector-curvature="0"
         d="m 621.78867,265.35161 c 0,-38.00246 41.31346,-76.7162 81.84756,-76.7162 26.67285,0 63.84563,46.13133 71.07664,79.28188 2.21784,10.17802 2.54908,23.37051 -8.49282,28.43411 -36.11403,16.55409 -40.06845,25.20796 -43.54859,32.85419 -1.09211,2.39642 -1.9562,4.28458 -3.90353,6.36759 -9.5091,10.12724 -24.18355,7.24825 -34.80181,3.04833 -28.16317,-11.13484 -62.17745,-46.30067 -62.17745,-73.2699 z m 101.98355,74.90416 c 2.71805,-2.90438 3.95443,-5.59708 5.13127,-8.20508 2.99744,-6.5539 6.37604,-13.97996 40.16998,-29.47564 11.85487,-5.4277 16.23222,-18.25606 12.33732,-36.11419 -7.9002,-36.1904 -47.79079,-84.68418 -77.77456,-84.68418 -43.93815,0 -88.7063,42.17697 -88.7063,83.57493 0,30.04295 35.75855,67.48655 66.5212,79.64599 7.2399,2.86204 14.0223,4.2846 20.16144,4.2846 8.95008,0 16.53705,-3.0314 22.15965,-9.02643"
         style="fill:#000000;fill-opacity:1;fill-rule:nonzero;stroke:#000000;stroke-width:6.64775324;stroke-miterlimit:4;stroke-dasharray:none;stroke-opacity:1"
         id="path52" />
      <path
         inkscape:connector-curvature="0"
         d="m 1347.172,336.50463 c 14.3691,-28.41717 56.4701,-61.16976 83.7526,-61.16976 2.4896,0 4.8685,0.27099 7.0705,0.84681 18.5864,4.81806 36.9608,18.96739 49.1459,37.85006 12.5399,19.40769 17.0109,40.99152 12.286,59.21374 -6.9262,26.74059 -49.6707,52.87152 -80.4415,56.67345 -11.6434,1.43943 -26.9186,0.53358 -33.7692,-11.99007 -1.397,-2.56569 -1.7858,-4.77572 -2.2346,-7.32446 -1.481,-8.45063 -3.1753,-18.02747 -34.6749,-43.66727 -9.6783,-7.88331 -5.9605,-20.89796 -1.1353,-30.43245 z m -3.1926,35.7501 c 29.5263,24.03096 30.9744,32.26991 32.2443,39.53508 0.5137,2.88744 1.0513,5.86803 2.9893,9.42442 5.7239,10.50825 16.9437,16.06298 32.0329,16.06298 2.7353,0 5.6058,-0.18722 8.5862,-0.55038 33.557,-4.14913 78.528,-32.0413 86.2338,-61.76248 5.2076,-20.06819 0.4008,-43.63343 -13.1585,-64.64996 -13.3027,-20.59312 -32.6934,-35.45371 -53.1933,-40.77136 -29.6112,-7.66316 -81.56,30.07683 -98.6642,63.87091 -8.4172,16.65572 -7.3839,30.44939 2.9295,38.84076"
         style="fill:#000000;fill-opacity:1;fill-rule:nonzero;stroke:#000000;stroke-width:6.64775324;stroke-miterlimit:4;stroke-dasharray:none;stroke-opacity:1"
         id="path54" />
    </g>
  </g>
</svg>
