<svg height="512pt" viewBox="-17 0 512 512" width="512pt" xmlns="http://www.w3.org/2000/svg"><path d="M323.453 387.633l117.242-58.567c16.743-8.363 27.93-24.812 29.625-43.449.633-7 .961-14.09.961-21.258 0-127.27-101.586-230.238-228.844-231.87C112.974 30.828 7.5 135.276 7.5 264.358c0 128.07 103.82 231.891 231.89 231.891h.516c27.735-.062 50.653-21.71 52.735-49.367l1.136-15.055a53.93 53.93 0 0129.676-44.195zm0 0" fill="#efedee"/><path d="M37.5 264.36c0-123.036 95.82-223.692 216.91-231.415-3.965-.25-7.957-.402-11.972-.457C112.972 30.828 7.5 135.278 7.5 264.36c0 128.07 103.82 231.891 231.89 231.891h.516a52.102 52.102 0 009.395-.875C130.64 485.191 37.5 385.66 37.5 264.359zm0 0" fill="#e0e0e0"/><path d="M349.523 298.125l9.094 179.578c.758 15.012 13.153 26.793 28.184 26.793s27.426-11.781 28.183-26.793l9.106-179.578zm0 0" fill="#d28654"/><path d="M344.504 199.145l5.02 98.98c11.613 4.164 24.18 6.43 37.277 6.43 13.11 0 25.672-2.266 37.289-6.43l5.02-98.98zm0 0" fill="#b0bec5"/><path d="M386.8 504.379c5.212.031 10.438-1.336 15-4.203-7.542-4.742-12.702-12.957-13.183-22.473l-9.094-179.578h-30l1.254 24.77 7.84 154.808c.317 6.262 2.797 12.41 6.926 17.133 5.41 6.191 13.309 9.496 21.258 9.543zm0 0" fill="#b67248"/><path d="M349.523 298.125c9.54 3.418 19.723 5.535 30.313 6.191l-.313-6.191-5.02-98.98h-30zm0 0" fill="#90a4ae"/><path d="M328.367 142.008c0 26.293-21.312 47.605-47.601 47.605-26.293 0-47.606-21.312-47.606-47.605 0-26.29 21.313-47.602 47.606-47.602 26.289 0 47.601 21.313 47.601 47.602zm0 0" fill="#33c0ff"/><path d="M300.766 179.613c-26.293 0-47.606-21.312-47.606-47.601 0-14.598 6.578-27.653 16.922-36.387-21.144 4.852-36.922 23.77-36.922 46.387 0 26.289 21.313 47.601 47.606 47.601 11.691 0 22.394-4.222 30.68-11.218a47.637 47.637 0 01-10.68 1.218zm0 0" fill="#029be5"/><path d="M434.617 73.52c-18.738-19.118-28.832-38.114-34.262-52.723-5.015-13.496-20.16-17.613-30.28-8.164-22.09 20.62-51.907 59.293-54.997 119.535-1.332 25.996 7.817 44.73 19.777 57.996 26.356 29.238 68.848 31.418 98.06 5.031 13.253-11.972 24.272-29.675 25.605-55.668.007-.18.02-.359.027-.535 1.207-24.824-7.645-48.855-23.93-65.472zm0 0" fill="#546e7a"/><path d="M364.855 190.168c-11.96-13.27-21.113-32.004-19.777-58 2.965-57.809 30.535-95.746 52.281-116.938-6.582-8.875-18.726-10.585-27.285-2.597-22.094 20.62-51.906 59.293-54.996 119.535-1.336 25.996 7.817 44.73 19.777 58 17.793 19.734 42.938 27.121 66.383 21.73-13.414-3.09-26.12-10.351-36.383-21.73zm0 0" fill="#455a64"/><path d="M192.57 149.828c0 26.293-21.312 47.606-47.605 47.606-26.29 0-47.602-21.313-47.602-47.606 0-26.289 21.313-47.601 47.602-47.601 26.293 0 47.605 21.312 47.605 47.601zm0 0" fill="#fc5659"/><path d="M146.586 183.742c-24.25-10.148-35.684-38.039-25.535-62.289a47.374 47.374 0 0113.215-18c-14.41 3.34-27.067 13.313-33.215 28-10.149 24.25 1.285 52.14 25.535 62.29 17.039 7.128 35.863 3.597 49.078-7.54a47.353 47.353 0 01-29.078-2.46zm0 0" fill="#f24447"/><path d="M146.316 285.352c0 26.293-21.312 47.605-47.601 47.605-26.293 0-47.606-21.312-47.606-47.605 0-26.29 21.313-47.602 47.606-47.602 26.289 0 47.601 21.313 47.601 47.602zm0 0" fill="#ffd54f"/><path d="M84.809 308.766c-18.454-18.727-18.235-48.864.492-67.32a46.758 46.758 0 012.746-2.485A47.373 47.373 0 0065.3 251.445c-18.727 18.453-18.95 48.594-.492 67.32 17.578 17.837 45.75 18.872 64.57 2.981-15.559 3.563-32.547-.777-44.57-12.98zm0 0" fill="#fabc36"/><path d="M239.227 399.133c0 26.289-21.313 47.601-47.602 47.601s-47.602-21.312-47.602-47.601c0-26.29 21.313-47.602 47.602-47.602s47.602 21.313 47.602 47.602zm0 0" fill="#80c56e"/><path d="M167.445 406.867c-7.851-19.562-1.789-41.246 13.493-54.129a48.194 48.194 0 00-7.047 2.219c-24.399 9.793-36.239 37.512-26.442 61.91 9.793 24.399 37.512 36.238 61.91 26.442a47.628 47.628 0 0012.953-7.782c-22.472 5.203-46.003-6.586-54.867-28.66zm0 0" fill="#68b65c"/><path d="M166.238 99.004c-6.793-2.844-13.945-4.285-21.254-4.285-22.285 0-42.246 13.281-50.851 33.84-11.73 28.03 1.531 60.375 29.558 72.105 6.793 2.844 13.946 4.285 21.254 4.285 22.285 0 42.246-13.285 50.852-33.844 11.73-28.027-1.531-60.375-29.559-72.101zm15.723 66.312a40.032 40.032 0 01-37.016 24.633 39.86 39.86 0 01-15.46-3.12c-20.4-8.54-30.051-32.079-21.516-52.477a40.032 40.032 0 0137.015-24.633 39.774 39.774 0 0115.461 3.12c20.403 8.536 30.051 32.079 21.516 52.477zm0 0M59.465 324.035c10.437 10.594 24.379 16.426 39.25 16.426 14.566 0 28.3-5.633 38.676-15.856 21.64-21.328 21.898-56.285.57-77.925-10.438-10.59-24.379-16.426-39.25-16.426-14.563 0-28.3 5.633-38.676 15.855-21.64 21.328-21.898 56.286-.57 77.926zm39.246-78.781c10.824 0 20.969 4.246 28.566 11.953 15.52 15.75 15.336 41.191-.414 56.715-7.55 7.441-17.547 11.539-28.148 11.539-10.824 0-20.969-4.246-28.567-11.953-15.52-15.75-15.335-41.192.415-56.715 7.55-7.441 17.55-11.54 28.148-11.54zm0 0M171.098 348c-28.196 11.32-41.93 43.469-30.61 71.664 8.434 21.012 28.512 34.59 51.153 34.59 7.03 0 13.933-1.34 20.511-3.98 28.196-11.317 41.93-43.47 30.61-71.665-8.434-21.011-28.512-34.59-51.153-34.59-7.035 0-13.933 1.34-20.511 3.981zm57.746 36.2c8.234 20.519-1.758 43.917-22.281 52.152a39.837 39.837 0 01-14.922 2.902c-16.48 0-31.094-9.883-37.235-25.18-8.234-20.52 1.758-43.918 22.278-52.156a39.945 39.945 0 0114.925-2.898c16.477 0 31.094 9.882 37.235 25.18zm0 0M195.957 272.563v-11.438a7.5 7.5 0 10-15 0v11.438a7.5 7.5 0 007.5 7.5c4.145 0 7.5-3.356 7.5-7.5zm0 0M322.375 272.563v-11.438c0-4.14-3.36-7.5-7.5-7.5s-7.5 3.36-7.5 7.5v11.438a7.5 7.5 0 1015 0zm0 0M251.668 286.172c8.242 0 15.988-3.453 21.246-9.465a7.5 7.5 0 10-11.293-9.875c-2.41 2.758-6.039 4.34-9.953 4.34-3.918 0-7.547-1.582-9.957-4.34a7.5 7.5 0 00-11.293 9.871c5.262 6.016 13.004 9.469 21.25 9.469zm0 0"/><path d="M322.578 132.113c1.031-25.898 8.567-51.898 21.352-74.414a7.26 7.26 0 00.277-.55c9.492-16.583 20.746-29.473 30.984-39.028 2.829-2.64 6.258-3.648 9.664-2.844 3.793.895 6.88 3.864 8.47 8.141 6.046 16.266 15.3 31.777 27.503 46.113 2.684 3.153 7.418 3.531 10.574.848 3.153-2.684 3.532-7.418.848-10.574-11.063-12.996-19.43-26.996-24.863-41.614-3.32-8.93-10.453-15.476-19.082-17.515-8.32-1.965-16.832.398-23.348 6.48-10.05 9.38-21.008 21.707-30.64 37.254-28.97-12.472-59.81-19.004-91.786-19.414-64.59-.824-125.406 23.676-171.32 69.004C25.289 139.336 0 199.84 0 264.363c0 54.907 19.07 108.559 53.695 151.07 2.614 3.212 7.34 3.692 10.551 1.079a7.499 7.499 0 001.078-10.551C32.871 366.117 15 315.832 15 264.363c0-60.48 23.707-117.191 66.75-159.687 43.035-42.488 100.055-65.473 160.59-64.684 29.45.38 57.863 6.285 84.586 17.567C321.03 69.179 316.008 82.297 312.52 97a54.921 54.921 0 00-31.754-10.09c-30.387 0-55.106 24.723-55.106 55.106s24.719 55.101 55.106 55.101a54.858 54.858 0 0038.394-15.613 84.67 84.67 0 007.29 10.383 84.175 84.175 0 0010.734 10.957l8.378 165.363-25.46 12.719c-19.235 9.61-32.188 28.898-33.805 50.344l-1.133 15.054c-1.789 23.742-21.676 42.38-45.285 42.43h-.488c-57.66 0-112.461-21.836-154.309-61.488-3.008-2.848-7.754-2.723-10.602.285a7.5 7.5 0 00.286 10.605c44.64 42.301 103.105 65.602 164.625 65.602l.53-.004c31.384-.066 57.825-24.8 60.2-56.3l1.133-15.056c1.223-16.207 11.012-30.789 25.55-38.05l19.587-9.785 4.734 93.523c.96 19.016 16.633 33.914 35.676 33.914s34.71-14.895 35.676-33.914l6.84-134.95 14.73-7.359c19.183-9.582 31.797-28.078 33.742-49.476.656-7.246.992-14.625.992-21.934 0-32.8-6.469-64.508-19.199-94.308 11.133-27.559 8.031-60.813-7.426-86.098-2.16-3.535-6.773-4.645-10.312-2.484a7.5 7.5 0 00-2.485 10.308c13.442 21.98 15.871 51.563 5.204 75.156-10.434 23.075-34.235 39.864-59.93 39.153-38.75-1.074-63.504-37.63-62.055-73.98zm-41.812 50.004c-22.114 0-40.106-17.988-40.106-40.101s17.992-40.106 40.106-40.106c10.8 0 21.039 4.32 28.558 11.957.207.211-.32 2.367-.37 2.774-2.145 16.87-2.352 33.902 3.339 50.144-7.586 9.664-19.121 15.332-31.527 15.332zm155.703 19.918c.492-.422.988-.836 1.469-1.273a86.799 86.799 0 0012.273-13.703c9.012 24.656 13.57 50.59 13.57 77.304 0 6.86-.312 13.782-.93 20.578-1.472 16.188-11.007 30.176-25.507 37.418l-7.156 3.575zm-28.973 275.293C406.937 488.36 397.848 497 386.801 497s-20.137-8.64-20.692-19.672l-8.554-168.91a118.84 118.84 0 0029.246 3.64c1.535 0 3.062-.038 4.586-.097 8.316-.316 16.605-1.488 24.672-3.543zm-54.375-263.976c7.703 3.812 16.074 6.308 24.613 7.277 7.66.867 15.399.578 22.965-.926a76.421 76.421 0 0019.95-6.965c.09-.047.18-.09.265-.136l-4.059 80.011c-9.718 2.957-19.898 4.446-30.054 4.446-10.149 0-20.34-1.493-30.051-4.446l-4.027-79.453c.132.067.265.125.398.192zm0 0"/></svg>